<svg xmlns="http://www.w3.org/2000/svg" width="100%" height="100%" viewBox="0 0 408.61 233.83"><title>companies</title><text transform="translate(39.26 15.8)" font-size="18.48" fill="#eeefee" font-family="Raleway">THESE <tspan x="63.03" y="0" letter-spacing="-0.01em">C</tspan><tspan x="75.6" y="0">OM</tspan><tspan x="105.52" y="0" letter-spacing="-0.05em">P</tspan><tspan x="116.07" y="0">ANIES H</tspan><tspan x="188.66" y="0" letter-spacing="-0.06em">A</tspan><tspan x="199.91" y="0">VE ST</tspan><tspan x="250.46" y="0" letter-spacing="-0.01em">R</tspan><tspan x="262.77" y="0">ONGER</tspan><tspan font-weight="bold" font-size="28.57" fill="#ffc629"><tspan x="-37.54" y="31.93">CHICKEN</tspan><tspan x="90.71" y="31.93" letter-spacing="-0.03em"> </tspan><tspan x="96.14" y="31.93">WEL</tspan><tspan x="160.1" y="31.93" letter-spacing="-0.05em">F</tspan><tspan x="174.87" y="31.93">ARE POLICIES</tspan><tspan x="365.56" y="31.93" xml:space="preserve" fill="#eeefee" font-size="16.8"> </tspan></tspan><tspan font-size="13.44" fill="#fff" font-family="HelveticaNeue, Helvetica Neue" letter-spacing="-0.02em"><tspan x="112.78" y="50.41">Than McDonald&apos;s.</tspan></tspan></text><path d="M85.63,137A262.92,262.92,0,0,0,50.8,148c-1.45.58-2.57.86-1.81,1.87,1.81,2.38,11.26,6.81,23.52,2.47,11.34-4,14.63-12.46,14.8-14.31C87.46,136.43,86.67,136.75,85.63,137Zm-1.73,3.78c-2.2,6.79-9.7,9.68-10.17,9.84,7-4.65,8.21-9.68,8.35-10.36A1,1,0,1,1,83.9,140.79Zm-3.17-39.27c-2.63-3.43-10.52-7.71-23.16-4.67s-16,13-16.26,14.83c-.27,1.61.73,1.18,1.06,1.06a255.13,255.13,0,0,1,36.54-9.8C80.44,102.65,81.62,102.69,80.73,101.52Zm-35.13,8c-.19,1-1.57,1-1.27-.26,1.56-6.72,8.58-10.07,8.87-10.21C46.62,103.88,45.73,108.89,45.6,109.55Zm25.93-6.67s2.07-.7,1.65-2.39-5.31-3.72-9-3.83c0,0,8.44-.73,11.38,3.44C77.18,102.39,71.53,102.88,71.53,102.88Z" fill="#fff"/><path d="M90.36,139.58c-4.55,10.28-13.76,18-25.43,19.15a30.69,30.69,0,0,1-24.4-8.56c-1.72.74-3.88,1.58-3.88,1.58v-6.07A33.35,33.35,0,0,1,51.82,95.3a39,39,0,0,1,21.24-1.74A36.4,36.4,0,1,0,96.61,142.8Z" fill="#fff"/><path d="M88.08,121.69c2,.25,3.9,1,4.5-1.28.3-1.14-.22-2.44-2.24-2.92a13.37,13.37,0,0,0-2.76-.33,10.17,10.17,0,0,0-10.48,9.13c-.85,6.34,3.12,9.54,7.75,9.2,6-.43,7.73-3.19,7.73-6.05V123.5L85,125.11v2.08s-.06,1.89,2.74,1.14v1.3s-.08,1.45-2.33,1.39c-1.86,0-3.5-1.36-3-4.94A5,5,0,0,1,88.08,121.69Zm-14.48-1a3.15,3.15,0,0,0-2.42,3.13v5.76l-4.66-5.42a2.78,2.78,0,0,0-3-1l-2.84.87v18l2.48-.88a3.54,3.54,0,0,0,2.53-3.3v-6.58s4.25,4.86,5.33,6.07a3,3,0,0,0,2.62,1,2.71,2.71,0,0,0,2.44-2.68V120Zm3.15-5.33V113l2.28-.53a1.38,1.38,0,0,0,1.15-1.41v-1.16l-3.43.72V109l2.56-.58a1.53,1.53,0,0,0,1.27-1.46v-1.44l-7.09,1.44v11.83l5.84-1.34A1.52,1.52,0,0,0,80.6,116v-1.44ZM72.6,117v-4.8l-4.73,1.11a8.47,8.47,0,0,0,0,1.48c0,1.11,1.73.65,1.73.65s.07,1.28,0,1.42c-.09.38-.93.9-2,.73-.92-.15-1.46-1.12-1.38-3,.2-4.73,4.93-3.62,4.93-3.62a1.49,1.49,0,0,0,1.49-1.49,1.58,1.58,0,0,0-1.49-1.48c-6.17-.9-8.35,3.73-8.52,6.45s1.07,6.49,5.59,6S72.6,117,72.6,117Zm17-3.8-1.79-2.27a3.82,3.82,0,0,0,1.86-3.55c0-2.56-2.58-3.14-4.83-2.62-.73.17-3.48.65-3.48.65v11.71l2-.45s1.27-.19,1.27-1.88v-2.32l2.69,3a1.71,1.71,0,0,0,2.52.07C91,114.47,89.63,113.15,89.63,113.15Zm-5.1-2.86v-3.1s2-.73,1.93.82A2.64,2.64,0,0,1,84.53,110.29ZM62,119.19l-1.9-1.93a4.46,4.46,0,0,0,2-4.14c0-2.55-2.82-2.83-5.06-2-.74.26-3.49,1.07-3.49,1.07v12.21l2-.69a2,2,0,0,0,1.28-2v-2.83l2.9,2.9A1.69,1.69,0,1,0,62,119.19Zm-5.18-2.28v-3.38s2.08-.79,2,.76A3,3,0,0,1,56.86,116.91Zm-4.2-2.65A1.26,1.26,0,0,0,50.9,113c-.72.2-1.55.48-1.55.48v8.66a1.42,1.42,0,0,1-1.21,1.58c-1.07.14-1-1.17-1-1.17v-6.79s0-1.49-1.65-.94l-1.69.62v8.46s.1,4.17,4.72,2.72A5.3,5.3,0,0,0,52.66,121C52.69,120,52.66,114.26,52.66,114.26ZM43.52,125c-.12-1.79-2.14-2.37-2.14-2.37A3.66,3.66,0,0,0,43,119.08c-.37-3.27-4.24-1.72-4.24-1.72l-4.11,1.52v13s2.66-1.1,5.38-2.31S43.66,127.06,43.52,125Zm-5.66-5.1s2-.93,1.93.72-1.93,2.07-1.93,2.07Zm0,8v-3.25s2.24-1.06,2.17.9S37.86,127.92,37.86,127.92Zm17.89-2.3a3.67,3.67,0,0,0-2.44,3.4v15.45l3.22-1.14A3.67,3.67,0,0,0,59,139.92V124.47Zm-4.3,15.58-3.51-3.51,3.75-6.22c.93-1.56.48-2.95-.8-3.46a2.76,2.76,0,0,0-3.45,1l-4.68,7.95v-6.44l-5.38,2.28v17.76s2.27-.88,4-1.65c1.41-.62,1.34-2.56,1.34-2.56v-5.66l4.62,4.63a2.88,2.88,0,1,0,4.07-4.07ZM97,136.68a1,1,0,0,0-1-1H94.3v3.54H95v-1.55h.38l.89,1.55H97l-.89-1.56A1,1,0,0,0,97,136.68Zm-2,.49v-1h.82a.5.5,0,0,1,.49.5.49.49,0,0,1-.49.49Zm2-.49a1,1,0,0,0-1-1H94.3v3.54H95v-1.55h.38l.89,1.55H97l-.89-1.56A1,1,0,0,0,97,136.68Zm-2,.49v-1h.82a.5.5,0,0,1,.49.5.49.49,0,0,1-.49.49Zm2-.49a1,1,0,0,0-1-1H94.3v3.54H95v-1.55h.38l.89,1.55H97l-.89-1.56A1,1,0,0,0,97,136.68Zm-2,.49v-1h.82a.5.5,0,0,1,.49.5.49.49,0,0,1-.49.49Zm.54-3a3.27,3.27,0,1,0,3.21,3.27A3.24,3.24,0,0,0,95.53,134.19Zm0,5.73A2.46,2.46,0,1,1,98,137.46,2.44,2.44,0,0,1,95.53,139.92ZM97,136.68a1,1,0,0,0-1-1H94.3v3.54H95v-1.55h.38l.89,1.55H97l-.89-1.56A1,1,0,0,0,97,136.68Zm-1.15.49H95v-1h.82a.5.5,0,0,1,.49.5A.49.49,0,0,1,95.81,137.17Zm1.15-.49a1,1,0,0,0-1-1H94.3v3.54H95v-1.55h.38l.89,1.55H97l-.89-1.56A1,1,0,0,0,97,136.68Zm-2,.49v-1h.82a.5.5,0,0,1,.49.5.49.49,0,0,1-.49.49Zm2-.49a1,1,0,0,0-1-1H94.3v3.54H95v-1.55h.38l.89,1.55H97l-.89-1.56A1,1,0,0,0,97,136.68Zm-2,.49v-1h.82a.5.5,0,0,1,.49.5.49.49,0,0,1-.49.49Zm2-.49a1,1,0,0,0-1-1H94.3v3.54H95v-1.55h.38l.89,1.55H97l-.89-1.56A1,1,0,0,0,97,136.68Zm-2,.49v-1h.82a.5.5,0,0,1,.49.5.49.49,0,0,1-.49.49Z" fill="#fff"/><path d="M216.63,141.77h7.42v-4.63h-8.58a5.27,5.27,0,0,0-2.12,10.09l5.27,2.63c1.25.62,1,1.75-.36,1.75h-7.54v-2.33l-3.13,2.31-3.13,2.31,3.13,2.3,3.13,2.31v-2.33l9,.11A5.27,5.27,0,0,0,225,151a4.62,4.62,0,0,0-1.63-4l-6.83-3.56c-.55-.29-.48-1.64.14-1.64Zm25-4.57v12.3a6.6,6.6,0,0,1-2.21,5.2,8.54,8.54,0,0,1-5.87,2,7.7,7.7,0,0,1-5.6-1.89,7.31,7.31,0,0,1-1.93-5.44V137.2h5.69v12.72a2.13,2.13,0,0,0,2.11,2.11h0a2.12,2.12,0,0,0,2.11-2.11V137.2Zm12.19,19a5.27,5.27,0,0,0,2.54-9.89,5,5,0,0,0-2.54-9.05v0H243.22v19Zm-4.93-7.85h2.73a2,2,0,0,1,2,2h0a1.84,1.84,0,0,1-1.84,1.84h-2.87v-3.82Zm0-6.95h2.29A1.65,1.65,0,0,1,252.8,143h0a1.56,1.56,0,0,1-1.54,1.55h-2.4v-3.2Z" fill="#fff"/><path d="M318,141.72v3.9a5.13,5.13,0,0,1-4.85,5.11v5.55H307v-5.57a5.12,5.12,0,0,1-4.65-5.09v-8.47H308v7.58a1.8,1.8,0,0,0,1.8,1.79h.82a1.79,1.79,0,0,0,1.79-1.79v-4h0v-.08a3.47,3.47,0,0,1,3.47-3.47h4.84v-2.33l3.13,2.31,3.13,2.3-3.13,2.31-3.13,2.31v-2.33ZM291,156.21h-5.72V144.14a6.88,6.88,0,0,1,2.17-5.42,8.87,8.87,0,0,1,6.11-1.94q3.8,0,5.61,1.76t1.81,5.41v12.26h-5.72v-5.55H291Zm4.26-9.65v-3.18a2.13,2.13,0,0,0-2.13-2.13h0a2.14,2.14,0,0,0-2.13,2.13v3.18Zm-11.38-9.33V150.9a5.33,5.33,0,0,1-1.8,4.17,6.74,6.74,0,0,1-4.67,1.62H277a6.63,6.63,0,0,1-4.92-1.4,5.89,5.89,0,0,1-4.65,1.42l-.94,0a6.19,6.19,0,0,1-4.6-1.62,6.3,6.3,0,0,1-1.59-4.64v-13.2H266v13a1.69,1.69,0,0,0,1.68,1.68h0a1.68,1.68,0,0,0,1.68-1.68v-13h5.39v13a1.68,1.68,0,0,0,1.68,1.68h0a1.68,1.68,0,0,0,1.68-1.68v-13Zm32,16.21a1.52,1.52,0,0,1,.7.18,1.29,1.29,0,0,1,.53.53,1.42,1.42,0,0,1,0,1.41,1.27,1.27,0,0,1-.52.53,1.42,1.42,0,0,1-1.41,0,1.29,1.29,0,0,1-.53-.53,1.42,1.42,0,0,1,0-1.41,1.38,1.38,0,0,1,.54-.53,1.52,1.52,0,0,1,.7-.18Zm0,.23a1.33,1.33,0,0,0-.58.16,1,1,0,0,0-.44.44,1.16,1.16,0,0,0,0,1.18,1.14,1.14,0,0,0,.43.44,1.18,1.18,0,0,0,1.18,0,1.1,1.1,0,0,0,.44-.44,1.18,1.18,0,0,0,0-1.18,1.1,1.1,0,0,0-.44-.44,1.33,1.33,0,0,0-.58-.16Zm-.62,2v-1.52h.52a1.24,1.24,0,0,1,.39,0,.36.36,0,0,1,.19.15.34.34,0,0,1,.07.22.39.39,0,0,1-.11.29.45.45,0,0,1-.32.14.57.57,0,0,1,.13.08,1.66,1.66,0,0,1,.22.3l.19.3h-.3l-.13-.24a1.5,1.5,0,0,0-.26-.36.33.33,0,0,0-.2,0h-.15v.65Zm.25-.86h.29a.52.52,0,0,0,.3-.06.19.19,0,0,0,.07-.17.24.24,0,0,0,0-.12.28.28,0,0,0-.11-.08.72.72,0,0,0-.24,0h-.29v.45Z" fill="#fff"/><path d="M317.48,106.6h0c0,5-2.83,7.74-8.09,7.74s-8-2.74-8-7.66v-9h5.8v8.66c0,2.4.64,3.46,2.21,3.46s2.32-1,2.32-3.69V97.72h5.8Z" fill="#fff"/><polygon points="234.25 101.88 234.25 101.88 234.25 114.04 228.38 114.04 228.38 101.88 223.46 101.88 223.46 97.72 239.17 97.72 239.17 101.88 234.25 101.88" fill="#fff"/><path d="M249,101.46h0L247.59,107h2.94ZM252.82,114h0l-1-3H246.3l-1,3h-5.83l5.91-16.32h7.43L258.65,114Z" fill="#fff"/><path d="M336.31,112.74h0l-1.76-4.19a6,6,0,0,1-3.81,1.45,3.9,3.9,0,0,1-3.81-4.2c0-2.32,1.34-4.3,3.73-4.3a6.37,6.37,0,0,1,3.89,1.6L336.27,99a13.59,13.59,0,0,0-6.56-1.56c-4.92,0-8.65,3.35-8.65,8.35,0,5.26,3.62,8.57,8.84,8.57A11.68,11.68,0,0,0,336.31,112.74Z" fill="#fff"/><polygon points="349.5 114.04 349.5 114.04 345.8 108.09 345.8 114.04 340.12 114.04 340.12 97.72 345.8 97.72 345.8 103.71 349.27 97.72 355.6 97.72 350.26 105.77 356.29 114.04 349.5 114.04" fill="#fff"/><path d="M213.66,114.34h0c3.7,0,7.55-1.29,7.55-5.49,0-3.73-3.2-4.76-5.71-5.3-1.87-.41-2.79-.61-2.79-1.37,0-1,1.3-1.07,1.95-1.07a9,9,0,0,1,4.65,1.53l1.52-3.7a17.33,17.33,0,0,0-6.67-1.52c-3.81,0-6.82,1.83-6.82,5.56,0,3,2.32,4.23,4.88,4.84,1.75.46,2.89.58,2.89,1.45s-.87,1.15-1.71,1.15a7.49,7.49,0,0,1-4.73-1.76l-1.87,3.59A12.92,12.92,0,0,0,213.66,114.34Z" fill="#fff"/><path d="M364.94,114.34h0c3.7,0,7.51-1.29,7.51-5.49,0-3.73-3.2-4.76-5.68-5.3-1.87-.41-2.78-.61-2.78-1.37,0-1,1.26-1.07,1.94-1.07a8.84,8.84,0,0,1,4.61,1.53l1.53-3.7a17,17,0,0,0-6.64-1.52c-3.85,0-6.86,1.83-6.86,5.56,0,3,2.33,4.23,4.88,4.84,1.8.46,2.9.58,2.9,1.45s-.84,1.15-1.68,1.15a7.6,7.6,0,0,1-4.77-1.76l-1.82,3.59A12.79,12.79,0,0,0,364.94,114.34Z" fill="#fff"/><path d="M375,99.86h0v0a2.42,2.42,0,0,1,2.44-2.4,2.36,2.36,0,0,1,2.37,2.4,2.41,2.41,0,1,1-4.81,0Zm4.46,0h0a2,2,0,0,0-2-2.1,2.09,2.09,0,0,0-2.13,2.1v0a2.08,2.08,0,0,0,2.09,2.09A2,2,0,0,0,379.5,99.82Zm-3-1.3h1.11a1.07,1.07,0,0,1,.72.27.65.65,0,0,1,.19.46v0a.74.74,0,0,1-.65.73l.76,1h-.41l-.73-1h-.65v1h-.34Zm1.06,1.22h0c.35,0,.58-.15.58-.46s-.19-.41-.58-.41h-.72v.87Z" fill="#fff"/><path d="M274.09,107.94h0a4.88,4.88,0,0,0,3.09-4.61c0-3.85-2.63-5.61-6.37-5.61H262V114h5.69V109.2h1.41L272,114h6.1Zm-2.63-4.61h0a1.62,1.62,0,0,1-1.79,1.71h-2v-3.43h2a1.56,1.56,0,0,1,1.75,1.68Z" fill="#fff"/><path d="M293.91,105.69h0c2.1-.46,3.17-1.64,3.17-3.62,0-2.79-2.1-4.35-5.76-4.35H282V114h8.92c4.31,0,6.48-1.53,6.48-4.61A3.57,3.57,0,0,0,293.91,105.69Zm-6.28-4.42h2.06c1.06,0,1.75.45,1.75,1.41v0c0,.91-.65,1.44-1.8,1.44h-2Zm3.92,7.7h0c0,1-.72,1.52-1.86,1.52h-2.06v-3h2.09c1.11,0,1.83.5,1.83,1.49Z" fill="#fff"/><path d="M151.4,92.85a35.73,35.73,0,1,1-35.75,35.72A35.73,35.73,0,0,1,151.4,92.85m0-1.64A37.28,37.28,0,1,0,166,94.15a37.13,37.13,0,0,0-14.55-2.94Z" fill="#fff"/><path d="M151.4,106.89a21.69,21.69,0,1,0,21.67,21.68A21.68,21.68,0,0,0,151.4,106.89Zm0,41.74a20.06,20.06,0,1,1,20.06-20.06A20.06,20.06,0,0,1,151.39,148.63Z" fill="#fff"/><path d="M123.78,129a.85.85,0,1,1-.85-.85A.85.85,0,0,1,123.78,129Z" fill="#fff"/><path d="M181.06,129a.85.85,0,1,1-.85-.85A.85.85,0,0,1,181.06,129Z" fill="#fff"/><path d="M160,117.5c0-.56-.62-1.36-.88-2.21,0,0-1,0-2,.11a3.15,3.15,0,0,0-1.68.6,3.75,3.75,0,0,1-.67.62,8.38,8.38,0,0,1-.69.68,2.44,2.44,0,0,1,0,.54,11.45,11.45,0,0,0-.27,1.58,1.6,1.6,0,0,0,.44.81c.65.1,2,.12,2,.12a3.74,3.74,0,0,1-.23.69c-.15.33-1.11.47-1.11.47s.45.77.6,1.13a2.05,2.05,0,0,0,.62.69c.8,1.4,1.24,2.18,1.24,2.94a4.07,4.07,0,0,1-.48,1.63,3.36,3.36,0,0,1-.7,1.67,10.83,10.83,0,0,0-.74,1.17c-.17.34-.47.83-.66,1.17a3.27,3.27,0,0,1-.78.85c-.2.14-.19.25-.19.25s.67.85.67,1.24c0,.21-.09.33-.09.71a1.15,1.15,0,0,0,.27.89c.34-.07.44.08.65.21.36.19,1,.58,1.17.7s1.66,1.2,2,1.44.75.23,1.1.44.82.14.82.78a6,6,0,0,1-1.16,2.28,1.09,1.09,0,0,1-.56.37c-.61.71-.78.69-.78.69a5.51,5.51,0,0,0-.82.1,10.4,10.4,0,0,1-1.36,0,3.37,3.37,0,0,1-1.1,0c-.28,0-1.55.06-2.38.07a3.69,3.69,0,0,1-1.17-.08c-.44-.07-.75-.27-.94-.28a2,2,0,0,1-1-.16,4.53,4.53,0,0,0-1.45-.43c-.58-.09-.72-.11-1-.55a40.39,40.39,0,0,0-3-4.39A20.74,20.74,0,0,1,141,133a14.75,14.75,0,0,1-.47-3.1c0-1,0-2.15,0-3.23a4.61,4.61,0,0,1,.32-1.65,5.17,5.17,0,0,1,.26-1.21,1.78,1.78,0,0,1,.09-.76,22.58,22.58,0,0,1,2.54-2.47c.8-.59,2.29-.33,3.39-.66a2.36,2.36,0,0,0-1.79-.78c-.59,0-.85.19-.9.07s.46-.27.63-.48.54-.28.94-.55a17.71,17.71,0,0,1,2.08.57,2.42,2.42,0,0,0,1.27.23c3.1-2.75,5.74-4.7,5.74-4.7,1.23-.27,3.67-.48,3.67-.48a2.23,2.23,0,0,0,.78.19c.47,0,.51.24.51.24.22.4.4.43.53.62.26.48,1,1,1,1.62a9.79,9.79,0,0,1-.45,2.31,8.53,8.53,0,0,1-1.08.09h-.84c-.38,0-.39-.15-.39-.15A5.13,5.13,0,0,0,160,117.5ZM153,121.91c-.75.23-.87,1-1.83,1s-1.48,0-1.58-.43a1,1,0,0,0-.49-.74c-4.24,0-5.9.67-6.62,3a2.62,2.62,0,0,1-.08.89,20.27,20.27,0,0,0-.23,2.68c0,.71,0,3.88,0,3.88s3,4.65,4.72,6.73a3.43,3.43,0,0,0,2.12,1.68c1.07.16,2,.13,3.32.26a7,7,0,0,0,4.72-1,.25.25,0,0,1,.21-.25l-.76-.58a7.52,7.52,0,0,0-1.13-.81c-.26-.13-.46-.15-.6-.41a.94.94,0,0,0-.74-.47c-.24,0-.6.16-.59-.15s0-.94,0-1.37.12-1.12-.09-1.33-.39-.25-.46-.62-.21-1.24-.05-1.46a16.3,16.3,0,0,0,.86-1.39c.22-.43,2.08-2.59,2.08-4.27S153.75,122.86,153,121.91Z" fill="#fff"/><path d="M146.76,136.79s.12-.16.24,0a.52.52,0,0,0,.2.16s.06-.3-.51-1a3.65,3.65,0,0,1-.29-.47c-.1-.2-.26-.43-.46-.76a2.19,2.19,0,0,1-.36-.94,11.58,11.58,0,0,0-.66-1.62,4.1,4.1,0,0,0-.09-.48,6.05,6.05,0,0,1-.26-1.39c0-.5.05-1.16.05-1.79a5.1,5.1,0,0,1,.06-1.32c.09-.2.07-.66.14-.78s.54-.72.54-.72a3,3,0,0,0,.64-.13,15.84,15.84,0,0,1,2.78-.56,19.4,19.4,0,0,1,2.29.3,2.22,2.22,0,0,1,1,.53,6,6,0,0,0,.63.45.43.43,0,0,1-.07.34,2.35,2.35,0,0,0-.25.57s-.39.82-.68,1.32a5.19,5.19,0,0,0-.52,1.17s-.27.51-.52,1.08-.35.92-.52,1.26a2.93,2.93,0,0,0,0,1.32,4.28,4.28,0,0,0,.21,1.06,18.78,18.78,0,0,0,1.4,3.78.33.33,0,0,1-.33,0c-.35-.12-.32-.28-.56-.44a2.36,2.36,0,0,1-.72-.64c-.37-.38-.46-.77-.71-1a3.14,3.14,0,0,0-.22-.68c-.17-.43-.72-1.31-.94-1.74s-.64-1.15-.94-1.67a1.79,1.79,0,0,1-.33-1.19,13.32,13.32,0,0,0,0-1.59,2.73,2.73,0,0,1,.12-.93c.1-.26,0-.74.54-.85a4.42,4.42,0,0,1,.68,0,5,5,0,0,0,.77,0s.79.38.75.66a4,4,0,0,0-.1,1,1.27,1.27,0,0,1-.12.44c-.1.23-.62,1.25-.62,1.25v-.65a.58.58,0,0,0-.52-.53c-.25,0-.53.09-.7.75,0,0-.07.1.1.76s.41,1.17,1,1.17.71-.61.72-.87a2.36,2.36,0,0,1,.25-.75c.08-.17.35-.78.52-1.14a4.51,4.51,0,0,0,.45-1.36c0-.75-.61-1.9-1.43-1.9a7.33,7.33,0,0,0-1.81.11c-.49.13-1.05.26-1.27.31s-.26.25-.35.84a9,9,0,0,0-.18,1.26,4.77,4.77,0,0,1,0,.67,3.72,3.72,0,0,0-.14.87,2.2,2.2,0,0,0,.31,1.14,2,2,0,0,0,.39.79,7,7,0,0,1,.48,1,4.08,4.08,0,0,0,.66,1.11,11.15,11.15,0,0,0,1.16,2.06c.1.16.38.67.6,1a3.67,3.67,0,0,0,.86.88,6.41,6.41,0,0,1,.49.55,5.1,5.1,0,0,0,2.35.95c.75,0,1-.4.67-.7a3.52,3.52,0,0,1-1-1.24c-.3-.61-.48-1.36-.64-1.68a6.32,6.32,0,0,1-.51-1.35,7.23,7.23,0,0,1-.3-1.89,3.13,3.13,0,0,1,.52-1.89,4.54,4.54,0,0,0,.68-1.29,2,2,0,0,0,.46-.89,6.08,6.08,0,0,0,1.52-2.59c0-.36-.3-.4-.41-.69s-.63-.54-.76-.76-.49-.89-1-.89-.29.46-.94.46a8.82,8.82,0,0,1-3.35-.67,1.37,1.37,0,0,0-.7.06,14.28,14.28,0,0,1-2.06.23c-.76.07-1.26.41-1.33,1.16a22.68,22.68,0,0,0-.46,3.05v2.93a6.54,6.54,0,0,0,.95,2.55s.42.62,1.13,1.56A13.41,13.41,0,0,0,146.76,136.79Z" fill="#fff"/><path d="M124.79,115.09l-.72-1.61a4.57,4.57,0,0,0-3,4.19,4.29,4.29,0,0,0,4.41,4.25,4.38,4.38,0,0,0,4.26-4.32,3.82,3.82,0,0,0-.38-1.75l-1.56.57a4.31,4.31,0,0,1,.23,1.26,2.46,2.46,0,0,1-2.44,2.39,2.7,2.7,0,0,1-2.77-2.5A2.76,2.76,0,0,1,124.79,115.09Z" fill="#fff"/><polygon points="126.88 107.4 125.6 108.73 131.59 114.51 132.86 113.18 130.68 111.07 133.33 108.49 135.56 110.55 136.53 109.34 130.66 103.58 129.51 104.65 132.24 107.43 129.62 110.14 126.88 107.4" fill="#fff"/><polygon points="136.9 99.51 135.52 100.25 139.41 107.59 140.81 106.84 136.9 99.51" fill="#fff"/><path d="M145,105.37l-1.62.27-1.62-8.12s3.89-.75,4.31-.75a2.86,2.86,0,0,1,3,2.91,3,3,0,0,1-2.64,2.75l-1.94.44Zm.26-6.85-1.31.24.51,2.44,1.36-.27c1-.19,1.37-.65,1.37-1.26S146.82,98.22,145.27,98.52Z" fill="#fff"/><path d="M161.27,101.06a4.15,4.15,0,0,1-4.18,4.23,4.75,4.75,0,0,1-4.87-4.56,4.15,4.15,0,0,1,4.24-4.27A4.73,4.73,0,0,1,161.27,101.06Zm-4.61-2.86a2.51,2.51,0,0,0-2.48,2.67,2.7,2.7,0,0,0,2.74,2.67,2.55,2.55,0,0,0,2.38-2.68A2.69,2.69,0,0,0,156.66,98.2Z" fill="#fff"/><polygon points="171.3 102.54 165.27 98.95 164.46 100.16 166.92 101.62 163.37 107.45 164.79 108.28 168.41 102.45 170.46 103.76 171.3 102.54" fill="#fff"/><polygon points="175.87 106.9 174.74 105.6 168.47 111.12 172.23 115.55 173.55 114.56 170.65 111.28 175.87 106.9" fill="#fff"/><polygon points="181.87 120.44 183.23 119.94 180.99 114.25 173.17 117.14 175.45 122.98 176.89 122.47 175.1 118.19 176.53 117.63 177.84 120.96 179.29 120.46 177.99 117.15 180.17 116.29 181.87 120.44" fill="#fff"/><polygon points="122.52 138.21 125.33 137.15 123.92 139.06 126.23 139.58 123.43 140.64 123.8 141.62 128.11 139.98 127.73 138.94 125.49 138.48 126.87 136.68 126.47 135.65 122.17 137.27 122.52 138.21" fill="#fff"/><polygon points="130.46 145.43 131.2 144.91 129.24 142.03 125.44 144.62 127.41 147.54 128.16 147.03 126.77 144.95 127.54 144.41 128.76 146.2 129.53 145.69 128.31 143.9 129.06 143.38 130.46 145.43" fill="#fff"/><polygon points="133.39 147.21 132.52 146.43 132.12 149.14 129.35 149.81 130.22 150.59 132.02 150.12 131.73 151.98 132.64 152.78 133.03 149.94 135.69 149.31 134.81 148.53 133.11 148.98 133.39 147.21" fill="#fff"/><polygon points="138.41 151.25 137.55 150.71 135.1 154.63 135.98 155.17 138.41 151.25" fill="#fff"/><path d="M143.36,154.93l.88-.52a2.68,2.68,0,0,0-2.31-1.41,2.42,2.42,0,1,0,.08,4.83,2.19,2.19,0,0,0,1.17-.33l-.38-.86a2.11,2.11,0,0,1-.89.22,1.33,1.33,0,0,1-1.31-1.36A1.48,1.48,0,0,1,142,154,1.58,1.58,0,0,1,143.36,154.93Z" fill="#fff"/><path d="M150.49,159.44l-1.05-.12-.3-1.09L147.2,158l-.53,1-1-.14,2.5-4.39,1,.13Zm-2-3.69-.77,1.4,1.21.15Z" fill="#fff"/><polygon points="154.01 154.66 153.05 154.76 153.51 159.35 154.53 159.24 154.24 156.35 156.74 159.03 157.61 158.96 157.14 154.34 156.13 154.44 156.42 157.26 154.01 154.66" fill="#fff"/><path d="M164.47,153.15l.28-1A2.11,2.11,0,0,0,164,152a2.51,2.51,0,0,0-2.58,2.42,2.38,2.38,0,0,0,2.31,2.46,3,3,0,0,0,2.59-1.7l-.83-1.84-1.81.8.35.82.93-.42.27.59a1.83,1.83,0,0,1-1.36.76,1.48,1.48,0,0,1-1.41-1.52,1.4,1.4,0,0,1,1.44-1.38A1.62,1.62,0,0,1,164.47,153.15Z" fill="#fff"/><path d="M169.41,148.52a1.62,1.62,0,0,1,1.5,1.49,1.44,1.44,0,0,1-.25.86l1.9.6-.94.76-1.68-.57-.61.48.89,1.17-.81.64-2.82-3.66,1.7-1.34A1.83,1.83,0,0,1,169.41,148.52Zm-.57,1.19-.88.68.8,1,.82-.66a.82.82,0,0,0,.34-.58.71.71,0,0,0-.61-.65A.77.77,0,0,0,168.84,149.71Z" fill="#fff"/><polygon points="171.96 145.49 171.29 146.25 174.79 149.26 175.47 148.48 171.96 145.49" fill="#fff"/><polygon points="174.07 142.46 173.55 143.33 177.54 145.68 179.2 142.8 178.4 142.34 177.25 144.32 174.07 142.46" fill="#fff"/><polygon points="176.35 137.54 176.03 138.51 180.4 139.96 181.43 136.79 180.56 136.51 179.84 138.69 176.35 137.54" fill="#fff"/><path d="M269.32,207.34l1.22-9.48c.16-1.18.31-2.37.49-3.55,0-.14.19-.38.3-.38,1.69,0,3.38,0,5.14,0-.18,1.37-.35,2.62-.52,3.88-.44,3.26-.89,6.52-1.33,9.78-.3,2.23-.62,4.46-.91,6.7,0,.37-.21.43-.52.43-1.52,0-3.05,0-4.57-.06a.75.75,0,0,1-.53-.32c-2-3.47-4.1-6.93-6.08-10.43a26.51,26.51,0,0,1-1.29-3.13c-.08,1-.1,2-.21,2.94-.35,2.81-.74,5.61-1.11,8.41-.1.71-.18,1.42-.3,2.12,0,.14-.2.36-.31.36-1.69,0-3.39,0-5.16,0,1-7,1.88-13.81,2.82-20.71a4.38,4.38,0,0,1,.51,0c1.46,0,2.93,0,4.39,0a.74.74,0,0,1,.75.4c2,3.41,4,6.8,6,10.23A25.77,25.77,0,0,1,269.32,207.34Z" fill="#fff"/><path d="M229.21,204.7c.18-4.18,2.72-7.76,7-10.12a11.87,11.87,0,0,1,10.25-.81,9.46,9.46,0,0,1,6,10.13c-.77,6.25-6.43,10.75-12,11.19-4,.33-7.39-1-9.77-4.36C229.67,209.23,229.2,207.49,229.21,204.7Zm10.85,5.56a9.6,9.6,0,0,0,1.2-.15,6.66,6.66,0,0,0,5.08-5.27,6.14,6.14,0,0,0-.26-4.18,5,5,0,0,0-7.17-2.06,7.3,7.3,0,0,0-3.71,7.23A4.58,4.58,0,0,0,240.06,210.26Z" fill="#fff"/><path d="M228,195l-2.42,4.17-.54-.46A4.77,4.77,0,0,0,221,197.5a2.8,2.8,0,0,0-1.2.64,1.51,1.51,0,0,0,.36,2.58c.78.38,1.63.59,2.43.91s1.69.65,2.5,1.06a3.84,3.84,0,0,1,2.12,3.42,8.47,8.47,0,0,1-8.14,9.22,9.31,9.31,0,0,1-7.77-2.79.57.57,0,0,1-.05-.91c1-1.24,1.91-2.51,2.89-3.8.47.51.88,1,1.34,1.47a4.68,4.68,0,0,0,3.69,1.48,2.63,2.63,0,0,0,2.52-2.34,1.56,1.56,0,0,0-.85-1.74c-.69-.33-1.42-.59-2.14-.86s-1.42-.48-2.1-.8c-2.45-1.14-3.28-2.88-2.79-5.55a8.08,8.08,0,0,1,9.18-6.48,9.8,9.8,0,0,1,4.34,1.44Z" fill="#fff"/><path d="M304.9,200.6l-.57-.7a5.4,5.4,0,0,0-7.24-1,7.44,7.44,0,0,0-3,7.55,4.65,4.65,0,0,0,6.18,3.23,14.6,14.6,0,0,0,2.76-1.51,7.47,7.47,0,0,0,.78-.64c-.11.77-.19,1.4-.28,2-.19,1.22-.4,2.43-.57,3.65a1,1,0,0,1-.71.9,11.83,11.83,0,0,1-8.26.4,8.3,8.3,0,0,1-5.69-6.79,12.82,12.82,0,0,1,8.11-14.22,10.89,10.89,0,0,1,9.06.59.72.72,0,0,1,.37.53C305.56,196.54,305.24,198.49,304.9,200.6Z" fill="#fff"/><path d="M306.26,191.09l3.9-4.34c.88-1,1.75-2,2.62-3a4,4,0,0,0,.33-.47c.66-1,.41-1.63-.84-1.6a31.16,31.16,0,0,0-4.83.39q-15.18,2.85-30.34,5.8c-8.46,1.64-16.92,3.33-25.38,5a1.69,1.69,0,0,1-.95-.2c-.67-.36-1.31-.79-2.05-1.24l4.93-1,22.78-4.48c7.78-1.52,15.55-3.06,23.34-4.55,3-.58,6-1.11,9.05-1.54a16.88,16.88,0,0,1,4.26-.06c2.17.28,3,2.15,2,4.08a11.54,11.54,0,0,1-1.49,2c-1.68,1.92-3.4,3.79-5.09,5.7-.25.27-.43.35-.77.16S306.78,191.33,306.26,191.09Z" fill="#fff"/><path d="M302.22,217.3l2-.71c.11.19.22.36.32.54,1.16,2.14,2.33,4.26,3.44,6.42a5.1,5.1,0,0,1,.64,1.95,3.92,3.92,0,0,1-4.31,4.46,29.56,29.56,0,0,1-5.2-.71c-7.71-1.57-15.41-3.19-23.11-4.79l-27-5.61-5.25-1.1-.17-.05c1-.44,2-.9,3-1.33a.66.66,0,0,1,.39,0l25,5.22q12.29,2.56,24.58,5.13c2.09.43,4.18.86,6.29,1.2a6.53,6.53,0,0,0,2.29-.06,1.78,1.78,0,0,0,1.4-2.37,5.36,5.36,0,0,0-.47-1.11C304.84,222.05,303.55,219.71,302.22,217.3Z" fill="#fff"/><path d="M251.78,187.69c-1.73.35-3.28.73-4.86.93a6.59,6.59,0,0,1-2-.31c-8.43-1.65-16.84-3.32-25.27-4.95-3-.58-6-1.09-9-1.56a26.88,26.88,0,0,0-3.11-.16,1.94,1.94,0,0,0-.63.11c-.62.18-.8.5-.48,1.07a8.9,8.9,0,0,0,1.09,1.56c2.24,2.55,4.52,5.07,6.78,7.6.13.14.25.28.39.45l-1.45,1.34-2.23-2.48c-1.69-1.88-3.38-3.76-5.05-5.65a11.23,11.23,0,0,1-1-1.29c-1.55-2.38-.43-4.65,2.41-4.67a31.13,31.13,0,0,1,5.86.5c11.16,2.1,22.3,4.27,33.44,6.43l4.59.9C251.35,187.54,251.49,187.6,251.78,187.69Z" fill="#fff"/><path d="M278,214.69c1-7,1.93-13.86,2.88-20.72h5.5c-.15,1.12-.28,2.16-.43,3.2-.48,3.49-1,7-1.45,10.46q-.46,3.35-.94,6.69a.54.54,0,0,1-.33.36C281.48,214.7,279.77,214.69,278,214.69Z" fill="#fff"/><path d="M232.82,216.71l-6,2.11-14.66,5.12a12,12,0,0,1-4.24.76c-2.78-.07-4.2-1.94-3.31-4.58a10.07,10.07,0,0,1,1.59-2.79c.79-1.05,1.75-2,2.64-3l1.19,1.2c-.64.7-1.31,1.39-1.92,2.13a16.13,16.13,0,0,0-1.57,2.12,4.44,4.44,0,0,0-.48,1.65,1.24,1.24,0,0,0,1.14,1.47,7.38,7.38,0,0,0,3.92-.44c4.66-1.58,9.31-3.21,14-4.82,1.87-.65,3.75-1.3,5.61-2a.79.79,0,0,1,.89.13C231.9,216.13,232.32,216.37,232.82,216.71Z" fill="#fff"/><path d="M307.16,233.83a1.2,1.2,0,0,1-1.23-1.24,1.21,1.21,0,0,1,1.21-1.22,1.24,1.24,0,0,1,1.27,1.22A1.23,1.23,0,0,1,307.16,233.83Zm.5-.43a1,1,0,1,0-1-1.61,1,1,0,0,0-.25,1.38.89.89,0,0,0,1.3.21Z" fill="#fff"/><path d="M307.68,233.38a.89.89,0,0,1-1.3-.21,1,1,0,0,1,.25-1.38,1,1,0,1,1,1,1.61c0-.36-.28-.72,0-1.08,0,0-.2-.37-.34-.4s-.64,0-.65.11a7.65,7.65,0,0,0,0,1.27h.16l.17-.6Z" fill="#fff"/><path d="M307.68,233.38l-.66-.69-.17.6h-.16a7.65,7.65,0,0,1,0-1.27c0-.08.44-.16.65-.11s.36.38.34.4c-.33.36,0,.72,0,1.08Z" fill="#fff"/><polygon points="81.64 212.3 81.64 198.03 89.03 198.03 89.03 201.16 84.85 201.16 84.85 203.63 88.79 203.63 88.79 206.69 84.85 206.69 84.85 212.3 81.64 212.3" fill="#fff"/><path d="M94.45,204.77h.61a2.37,2.37,0,0,0,1.55-.42A1.74,1.74,0,0,0,97.1,203a2.06,2.06,0,0,0-.46-1.52A2.1,2.1,0,0,0,95.1,201h-.65Zm-3.08,7.53V198H94.8a11.87,11.87,0,0,1,2.81.22A3.3,3.3,0,0,1,99,199a3.83,3.83,0,0,1,1,1.5,5.54,5.54,0,0,1,.35,2,4.78,4.78,0,0,1-.69,2.7,3.33,3.33,0,0,1-2,1.38l3.29,5.75H97.21l-2.76-5.59v5.59Z" fill="#fff"/><rect x="102.81" y="198.03" width="3.32" height="14.27" fill="#fff"/><path d="M112.58,209.1h.55a3.74,3.74,0,0,0,2.83-.94,4.24,4.24,0,0,0,.89-3,4.32,4.32,0,0,0-.89-3,3.75,3.75,0,0,0-2.83-.95h-.55Zm-3.26,3.2V198h2.52a17.29,17.29,0,0,1,4,.31,5.45,5.45,0,0,1,2,1,6,6,0,0,1,1.74,2.43,9.89,9.89,0,0,1,0,6.73,6.09,6.09,0,0,1-1.74,2.43,5.23,5.23,0,0,1-2,1,14.06,14.06,0,0,1-3.48.31h-3.07Z" fill="#fff"/><path d="M121.07,212.3,125.23,198h4.12l4.17,14.27h-3.27l-.61-2.55H125l-.63,2.55Zm4.61-5.33H129l-1.23-4.71c0-.14-.09-.37-.16-.69s-.15-.73-.25-1.23c-.07.35-.14.68-.21,1s-.14.63-.21.92Z" fill="#fff"/><path d="M136.75,212.3v-6.51L132.53,198h3.78l1.62,3.67,0,.11a4.65,4.65,0,0,1,.35,1.1,4.58,4.58,0,0,1,.36-1.06l.06-.15,1.61-3.67h3.78l-4.22,7.76v6.51Z" fill="#fff"/><path d="M145.76,207.69a6.32,6.32,0,0,0,1.45,1.47,2.49,2.49,0,0,0,1.42.49,1.46,1.46,0,0,0,1.08-.42,1.4,1.4,0,0,0,.43-1.06,1.51,1.51,0,0,0-.37-1.1,4.2,4.2,0,0,0-1.66-.79,5.15,5.15,0,0,1-2.5-1.48,3.82,3.82,0,0,1-.73-2.48A4.81,4.81,0,0,1,146,199a3.84,3.84,0,0,1,3-1.29,5.69,5.69,0,0,1,1.9.31,6.22,6.22,0,0,1,1.69,1l-1,2.8a4.54,4.54,0,0,0-1.15-.85,2.66,2.66,0,0,0-1.17-.29,1.36,1.36,0,0,0-1,.34,1.09,1.09,0,0,0-.37.86,1.19,1.19,0,0,0,.32.86,3.32,3.32,0,0,0,1.26.61l.15.05a5.7,5.7,0,0,1,2.64,1.42A3.43,3.43,0,0,1,153,206a5.53,5.53,0,0,1,.23,1.63,5.19,5.19,0,0,1-1.26,3.65,4.33,4.33,0,0,1-3.36,1.38,5.14,5.14,0,0,1-2.3-.51,6.44,6.44,0,0,1-2-1.58Z" fill="#fff"/><path d="M68.16,202.62v-9h8.5l-9.26-9.49H57.94v8Zm30.05,13.09H80.93L91,226h17.29ZM93,193.63h17.54l-9.26-9.49H83.73Zm39.08,22.08H114.54l10,10.29h17.54Zm-5.21-22.08h16.23l-9.25-9.49H117.6ZM157.14,208v7.69H148.4l10,10.29h8.63v-7.79Zm-82.5,18-16.7-17.12V226Zm75.52-41.86,16.92,17.33V184.14Z" fill="#fff"/><polygon points="78.57 210.56 73.08 210.56 73.08 212.51 71.97 212.51 71.97 207.27 73.08 207.27 73.08 209.22 78.57 209.22 78.57 210.56" fill="#fff"/><path d="M76.14,203.34H75v-2.87h2.63a3.79,3.79,0,0,1,.71,1.21,4.34,4.34,0,0,1,.31,1.61,3.65,3.65,0,0,1-.44,1.81A2.71,2.71,0,0,1,77,206.25a4,4,0,0,1-1.76.39,3.8,3.8,0,0,1-1.83-.43,3,3,0,0,1-1.23-1.27,3.48,3.48,0,0,1-.32-1.57,3.17,3.17,0,0,1,.51-1.92,2.34,2.34,0,0,1,1.43-.89l.24,1.32a1.38,1.38,0,0,0-.76.52,1.6,1.6,0,0,0-.29,1,1.79,1.79,0,0,0,.56,1.38,2.29,2.29,0,0,0,1.64.52,2.62,2.62,0,0,0,1.76-.52,1.76,1.76,0,0,0,.59-1.37,2.28,2.28,0,0,0-.16-.84,3.07,3.07,0,0,0-.4-.72h-.84Z" fill="#fff"/><rect x="71.97" y="197.95" width="6.6" height="1.33" fill="#fff"/></svg>