<svg xmlns="http://www.w3.org/2000/svg" xmlns:xlink="http://www.w3.org/1999/xlink" viewBox="0 0 631.34 254.61"><defs><mask id="a" x="-9.81" y="227.27" width="359" height="78.8" maskUnits="userSpaceOnUse"/><mask id="b" x="207.07" y="229.6" width="282.15" height="44.36" maskUnits="userSpaceOnUse"/></defs><title>comparison</title><g mask="url(#a)"><ellipse cx="95.28" cy="240.94" rx="95.28" ry="13.67" fill="#a91f25"/></g><path d="M153.33,240.66c5.46,1.92,12.31,3.78,16.95,7.32A89.9,89.9,0,0,0,158,245.21c-3.76-.63-7.32-1.91-11-2.78-3-.71-5.39-.73-7.45.16a11.78,11.78,0,0,0-4.54,3.77c-2.08,2.65-4.58,5.32-6.22,8.25.57-1.74,0-4.31.46-6.26.68-2.69,5.45-5.53,4.62-8.44-.76-2.71-5-2-7-1.73-5.8.79-11.58.28-17.08,2.81a38.05,38.05,0,0,1,10.56-5.15c3.1-.89,7.88.54,10.51-1.7,2.38-2,0-6.79-.86-9.3-1.51-4.31-4.93-7.39-7.54-11.11-1-1.42-5.78-8.09-4-9.34-.82-1.19-.31-2.75.38-4.38l.1-.23c2-4.65,6.06-4.61,10.27-2.34,6.56,3.56,4.14,12.27,5.45,18.5,1.08,5.19,4.13,11.85,7.91,15.55,4.31,4.18,9.07,4.79,14.82,5.48,4.46.53,12.59,0,15.92,3.46C166.61,238.05,160,241.71,153.33,240.66Z" fill="#ffc629"/><path d="M139.56,242.59a11.78,11.78,0,0,0-4.54,3.77c-2.08,2.65-4.58,5.32-6.22,8.25.57-1.74,0-4.31.46-6.26.68-2.69,5.45-5.53,4.62-8.44-.76-2.71-5-2-7-1.73-5.8.79-11.58.28-17.08,2.81a38.05,38.05,0,0,1,10.56-5.15c3.1-.89,7.88.54,10.51-1.7,2.38-2,0-6.79-.86-9.3-1.51-4.31-4.93-7.39-7.54-11.11-1-1.42-5.78-8.09-4-9.34-.82-1.19-.31-2.75.38-4.38a5,5,0,0,1,3.23.51,4.11,4.11,0,0,1,1.75,2c.43,1,.63,2.07,1.08,3.09.81,2.07,2.26,3.82,3.1,5.87,1.39,3.36,2.88,6.38,4.44,9.63,2.61,5.47,1.86,11.86,5.13,16.75A13.62,13.62,0,0,1,139.56,242.59Z" fill="#f89c1c"/><path d="M91.33,237.42c-3.87-1.51-8.39.5-12.49-.83A34.07,34.07,0,0,1,73,234.16c-1.3-.71-2.75-1.73-4.37-1.35-2.55.62-3.24,5.8-4.49,8.08A31.77,31.77,0,0,1,62,244.12,13.9,13.9,0,0,0,60.93,246c-.64,1.42-.86,3.07-1.63,4.44-.92-4-1.67-8-.61-12,.63-2.44,1.59-5.77-2-5.39-3.09.32-6.12,1.88-9.22,2.3a47.38,47.38,0,0,1-11.29,0c-2.52-.28-5.48-1.16-8.16-1.24,1.19-.11,2.4-.37,3.51-.54,2.92-.5,5.82-.71,8.74-1.08,2.15-.31,4.31-.6,6.54-1,1.83-.32,3.92,0,5.56-1,2.77-1.73,3.8-5.92,4.31-8.86a88.12,88.12,0,0,1,3-11.52,19,19,0,0,0,1.07-5.63c0-1.54-.84-4.31-.2-5.57a5.78,5.78,0,0,1,.65-3.6c2.32-4,10-3.55,14.51-3.38-1.35,4-2.72,8.08-4.31,12-1.44,3.57-3.23,7.32-3.64,11.15-.18,1.65-1.24,6.23.12,7.49.4.36,2.55.59,3.14.74s1.27.31,1.91.45c.89.2,1.78.39,2.62.66a18.35,18.35,0,0,1,3.61,1.78c.64.35,1.28.71,2,1-.8-.16-1.86.37-2.89.35-1.49,0-2.94-.57-4.51-.43-3.77.32-2.5,1.84-.09,3.23a39.91,39.91,0,0,0,8.69,3.37A46.56,46.56,0,0,1,91.33,237.42Z" fill="#ffc629"/><path d="M91.33,237.42c-3.87-1.51-8.39.5-12.49-.83A34.07,34.07,0,0,1,73,234.16c-1.3-.71-2.75-1.73-4.37-1.35-2.55.62-3.24,5.8-4.49,8.08A31.77,31.77,0,0,1,62,244.12a1.82,1.82,0,0,1,0-.57c.19-2.38,1.85-4.65,2.39-7a19.06,19.06,0,0,0,.19-5.06c-.07-2.84-1-5.39-1.62-8.16A19.27,19.27,0,0,1,63,217c.3-3.56.68-7.16.86-10.78.14-2.85-.14-7-2.63-9,.85-.54,0-.85-.07-2v-.07c2.33-4,10-3.54,14.52-3.37-1.36,4-2.73,8.07-4.31,12-1.44,3.56-3.23,7.32-3.64,11.14-.19,1.65-1.24,6.23.12,7.49.94.88,3.14,1.17,5.05,1.2.88.19,1.78.39,2.62.66a18.88,18.88,0,0,1,3.61,1.77,21.52,21.52,0,0,0,2,1c-.81-.16-1.86.36-2.9.34-1.48,0-2.93-.57-4.5-.43-3.77.32-2.5,1.84-.09,3.23a39.94,39.94,0,0,0,8.69,3.38A45.81,45.81,0,0,1,91.33,237.42Z" fill="#f89c1c"/><path d="M28,234.14a9.78,9.78,0,0,1-1.71.05A10.86,10.86,0,0,1,28,234.14Z" fill="#ffc629"/><path d="M188,32c-.15,2.88-13.68,3.37-15.09,7.86-1.8,5.76-7.41,10.29-7.74,16.49-.07,1.32.74,4.25-.41,4.87.1,1.72,1.56,9.11-1.38,9-.44,3-1.27,5.94-1.45,9a24.8,24.8,0,0,1-.53,5.89,11.1,11.1,0,0,0-.7,3.56c0,2.73.1,4.71-1.08,7.19a4.84,4.84,0,0,0-.71,3,24.12,24.12,0,0,0,.43,2.68c1,4.79,3.24,9.09,5.1,13.62,2.47,5.84,3.42,10.77,2.16,17.11-.39,1.8-.67,3.52-1,5.25a40.86,40.86,0,0,1-1.27,5.1c-2.65,8.12-8.08,15.82-13.56,22.35-4.54,5.39-8.53,6.25-9,13.19,0,.3-.05.63-.07.95-.22,7.83-2.15,11-5.14,15.82a15,15,0,0,0-2.15,6c-.11,1.3.7,3.38,0,4.56-.89,1.39-1.46,0-2.29-.22a2.91,2.91,0,0,0-.59,0,2.1,2.1,0,0,0-.69.08,3.78,3.78,0,0,1-1.64.06,1.36,1.36,0,0,1-.57-.88,7.42,7.42,0,0,0-.62-1.9,1.11,1.11,0,0,0-.87-.54.81.81,0,0,0-.31,0c-.46.14-.64.77-.94,1.27a1.23,1.23,0,0,1-1.23.72c-1.44-.08-1.4-2.41-3.54-.88-1.4,1-1.41,2.54-3.6,2.28-.62-1.64-.18-3.57-1.23-5.05a53.13,53.13,0,0,0-3.9-4.18c-2.86-3.15-6.2-8.54-8.8-11.68l-.6-.7-.46-.49c.57.58-8,2.07-8.43,2.16-4.45.37-9.7.66-13.84,2.58-2,.93-2.51,2.46-3.13,4.39-.7,2.16-1.54,2.24-3.1,3.88-.6.63-.14,1.23-1,1.4-.41.09-1.08-1.16-1.83-1.08s-1.55,1.56-2.16,2c-1.91-1.72-4.24,1.61-6.54,1.65a34.3,34.3,0,0,1-4.05.18c-2.16-.34-1.8-7.21-2.16-8.73-1.67-6.64-6.61-11.63-10.78-16.76-4.77-5.81-9.58-11.62-12.38-18.7-3.24-8.22-3.87-17.14-3.31-25.87q.19-2.94.55-5.83A47.18,47.18,0,0,1,32.23,115l.06-.19a5.38,5.38,0,0,1,.24-.55s-3.86-5.85-5.62-8.81a3.61,3.61,0,0,1-.22-.44,5.76,5.76,0,0,1-.47-1.9,19.11,19.11,0,0,1,.3-4.14,9.81,9.81,0,0,0,.1-3.5l-.06-.37A10.73,10.73,0,0,1,28,89.41a12.68,12.68,0,0,1,.76-1.28,9.23,9.23,0,0,1,2.15-2.47l.19-.13a14.05,14.05,0,0,1,1.67-.77c1.51-.63,3.35-1.45,3.6-2.68a1.4,1.4,0,0,0,0-.29v-.08c-.12-1.77-3.24-1.79-3.24-3.89.09-3.17,3.43-.6,5.05-.6.89-2.94.35-5,3.92-3,2.16,1.24,1,1.08,2.16-.83.94-1.57,2-1.85,3.4-.45,1.7,1.75,2.91,4.75,4.31,6.74,1.13,1.56,5.07,6.46,7.19,3.89s9-2.69,15.26-2.91a35.28,35.28,0,0,0,7.28-1.36c6-1.64,12.93-4.31,16.45-5.52,3.35-1.14,6.23-3,10.07-5.46,2.08-1.3,4.42-2.74,7.28-4.31,8.18-4.48,4-5.11,6.71-15.89s0-7.55,1.89-12.32c1.08-2.69,3.1-4.47,4.73-6.77l-.53-.26c-.29-1.72,3.54-3.23,1.78-4.49.83-1,1.94-1.56,2.85-2.43s3.86-2.78,3.9-3.89a9.24,9.24,0,0,1-1.66-.25c0-2.07,5.39-5,7-6a36.81,36.81,0,0,1,9.7-4.31c4.32-1.23,10.35-2.74,14.89-1.92a40.69,40.69,0,0,1,17.72,6.91C191.9,17.82,188.16,29.12,188,32Z" fill="#fff"/><path d="M188.87,17.09l.39,10.69c.08,1.8.66,3.66-1,4.88-1.3,1-3.1,1.18-4.56,1.74a36.66,36.66,0,0,1-7.2,2.09c-1.87.33-3.81,0-5.68.37-.93.16-2.33.68-3.07-.23-1-1.24,1.4-3.94,2-5,.95-1.63,1.08-3.48-.31-4.86-.82-.79-3.5-2.15-2.15-3.59,1.53-1.73,5-1.57,7.11-1.77a23.9,23.9,0,0,0,4.9-.82c.35-.11.69-.24,1-.38,1-.41,1.88-.91,2.9-1.25C183.64,18.84,188.88,17.37,188.87,17.09Z" fill="#ee4446"/><path d="M172.7,6.76s12.68,3.74,13.91,10.42,2.33,1.76,2.33,1.76c.91-1.19.7-2.16.64-3.57,0-.29-.14-.52-.12-.85s.37-.39.32-.78c-1.18,0-.3-.89-.43-1.56s-.45-.53-1.2-.66c-1.38-.25-.85-.31-.4-1.29.91-2-1.68-.37-2.29-1.44s1.14-1.9-.41-2.52c-.52-.19-1.59.19-1.72-.59s1.08-.95,1.08-1.5c0-1.49-2.39.34-3.07,0-1.35-.6.26-1.78-.42-2.53-.85-.93-2.16.66-2.92.8-2,.38-.54-1.45-.95-2.16-.71-1.26-2.21,2-2.55,2.21-.66.45-1.08-1.3-1.69,0a22.64,22.64,0,0,0-1.44,2.65C171.23,5.71,172.7,6.76,172.7,6.76Z" fill="#bf2026"/><path d="M173,17c-.3.87-1.72,1.64-2.75,1.95a2.66,2.66,0,0,1-.79.17,6,6,0,0,1-3.47-.55,2.1,2.1,0,0,1-.33-.26,15.43,15.43,0,0,1-1.7-1.83,4.61,4.61,0,0,1,3.23-2.7h0a5.15,5.15,0,0,1,2.7,0,4.48,4.48,0,0,1,1.33.62C172.34,15,173.34,16,173,17Z" fill="#e6e7e8"/><path d="M170.53,18.77l-.25.14a2.66,2.66,0,0,1-.79.17,6,6,0,0,1-3.47-.55,2.1,2.1,0,0,1-.33-.26,2.21,2.21,0,0,1-.53-1.55,3.53,3.53,0,0,1,2.08-3h0a5.15,5.15,0,0,1,2.7,0,4.48,4.48,0,0,1,1.33.62C172.67,15.61,172.11,17.74,170.53,18.77Z" fill="#f89c1c"/><path d="M177.89,32.63v.17c-.27,2.23-1.23,5.77.12,7.83,1.22,1.86,3.59,1.48,5.24.43,3-1.86,3.16-6.28,4.9-9,.67-1.08,1.5-1.33.23-2.15-1.51-1-4.85-.7-6.47-.22C179.85,30.2,178.24,30.36,177.89,32.63Z" fill="#bf2026"/><path d="M198.05,30.08a7,7,0,0,1-.9,4c-.07.15-.72,1.14-1.27,2a9.59,9.59,0,0,1-.82,1.08c-.67-.72-.32-2.16-1.08-3.11a6.05,6.05,0,0,0-3.38-1.88,27.67,27.67,0,0,0-5.87-.81,14.21,14.21,0,0,0-6,.76c-1,.42-2.21.73-1.53-.76.4-.84,2.9-3.82,1-4.42-1.27-.4-3.58-.37-4.31-1.62a1.87,1.87,0,0,1-.15-.32V24.8c-.17-.73.61-1,1.48-1.26,3.82-1.08,8.23,0,10.36-4.15.76-1.48.26-4,2.48-3.82,1.24.12,2.91,1.49,3.74,2.34a30.19,30.19,0,0,1,3.73,5.26A16.54,16.54,0,0,1,198.05,30.08Z" fill="#ffc629"/><path d="M195.08,37.18h0c-.67-.72-.32-2.15-1.08-3.11a6.11,6.11,0,0,0-3.38-1.88,27.66,27.66,0,0,0-5.86-.81,14.41,14.41,0,0,0-6,.76c-1,.42-2.21.73-1.53-.76.4-.84,2.9-3.82,1-4.41-1.27-.4-3.58-.38-4.31-1.63a2.2,2.2,0,0,1-.15-.31v-.19c.18-.06.28-.15.26-.23,2.15-.19,4.61.43,6.78.62a20.84,20.84,0,0,1,7.54,2.3c2.48,1.24,6,2.85,6.7,6.37A21.16,21.16,0,0,1,195.08,37.18Z" fill="#f89c1c"/><path d="M136.46,195a15.13,15.13,0,0,0-2.16,6c-.1,1.3.71,3.38,0,4.56-.88,1.39-1.45,0-2.28-.22a2.91,2.91,0,0,0-.59,0,2.07,2.07,0,0,0-.69.08,3.79,3.79,0,0,1-1.64.06,1.32,1.32,0,0,1-.57-.88l-2.74-1.08a1.23,1.23,0,0,1-1.23.71c-1.44-.07-1.4-2.4-3.54-.87-1.41,1-1.42,2.53-3.6,2.27-.62-1.64-.19-3.56-1.23-5a53.26,53.26,0,0,0-3.9-4.18c-2.86-3.15-7.48-9.16-10.08-12.3,2.15-1.53,5.71-3.38,8.44-5.28,5-3.44,9.8-7,13.71-11.65,2.15-2.62,3.08-5.74,4.8-8.57A72.37,72.37,0,0,0,133,152a17.33,17.33,0,0,0,1.52-6.57,24.26,24.26,0,0,1,.16-3.41c1.48.52,2.46,2.38,3.48,3.49,2.88,3.13,3.88,7.62,4.57,11.7C145,170.93,143.9,182.89,136.46,195Z" fill="#e6e7e8"/><path d="M99.39,184.57a2.79,2.79,0,0,0,1.75-.31,12.24,12.24,0,0,0,1.62-.81,32.1,32.1,0,0,0,3-2c2-1.44,3.9-3,5.81-4.46a56.88,56.88,0,0,0,10.32-10,87.08,87.08,0,0,0,8.24-11.85c2.3-4.21,4.31-8.69,4.61-13.63.63,4.94-.87,10-3,14.47a64.37,64.37,0,0,1-8,12.52,46.65,46.65,0,0,1-11.06,10c-2.05,1.39-4.1,2.72-6.27,4a35.58,35.58,0,0,1-3.35,1.62C101.9,184.42,100.61,185,99.39,184.57Z" fill="#d0d2d3"/><path d="M112.09,95.84c-1.68,2.31-3.47,4.51-5.09,6.92a96.4,96.4,0,0,1-8.49,10.94c-1.79,2-3.62,4-5.23,6.1S90.4,124,88.68,126a24.2,24.2,0,0,1-6.1,5.49c-2.75,1.55-5.72,1.82-8.84,1.91s-6.13-.18-9.19-.18-6.14,1-9.26,1.41a31.4,31.4,0,0,1-7.12.12c-2.53-.3-4.78-1.64-7.18-2.29-3.81-1.08-7.66-.88-11.4-2,.12-2,.31-3.9.55-5.83a46.48,46.48,0,0,1,1.9-9.78l1.08.62a33.07,33.07,0,0,1,4.6,3.65c3.75,3.09,7.55,5.66,12.49,6.11a36.72,36.72,0,0,0,8.63-.61,97.16,97.16,0,0,0,10.14-2,15.89,15.89,0,0,0,4.09-1.37c1.37-.75,2.79-1.55,4.21-2.15,2.15-1,4.31-2.09,6.32-3.24a69.63,69.63,0,0,0,9.53-6.72,69.59,69.59,0,0,1,8.36-5.9c.71-.44,1.45-.61,2.15-1.07s1.37-1.23,2.16-1.77c1.19-.9,2.4-1.78,3.53-2.75s1.62-2,2.62-2.81a22.71,22.71,0,0,1,2-1.58A12.84,12.84,0,0,1,112.09,95.84Z" fill="#e6e7e8"/><path d="M81.63,79.2c-1.67,1.07-4.31,1.33-6.1,2.15l-1.16.58c-2.16,1-4.31,2.06-6.47,2.94a33.54,33.54,0,0,1-4,1.37,26,26,0,0,1-10.78.58l-1.66-.22h0a11,11,0,0,1-3.81-.91,5.77,5.77,0,0,0-.78-.86c-2.15-2-5.71-2.33-8.41-2.73-.63-.11-1.41-.23-2.15-.39-.12-1.77-3.23-1.79-3.23-3.89.08-3.17,3.42-.6,5-.6.89-2.94.36-5,3.92-3,2.16,1.24,1,1.08,2.16-.83.95-1.57,2-1.85,3.4-.45,1.71,1.75,2.91,4.75,4.32,6.74C53,81.19,57,86.09,59.07,83.52s9-2.69,15.27-2.91A36.14,36.14,0,0,0,81.63,79.2Z" fill="#e6e7e8"/><path d="M116.65,91.25c-3.23,1.22-6.56,5.38-9.3,7.54-6.34,4.88-12.93,9.36-19.64,13.74-7.64,5-16.11,9.72-25.2,11.44-8.09,1.5-17.49,1.44-24.36-3.75-2.36-1.8-4.13-4.31-6.57-5.88-1.49-1-2.85-2.15-4.24-3.23-1.07-.86-5.39-4.71-3.67-6.21,1.08-.9,3.56,1.14,2.95-.86-.52-1.71-3.15-3-2.4-5.08.58-1.58,1.66-.07,2.41,0,1.16,0,.64-1.27.46-2-.54-2-2.16-4.71-1.78-6.83.13-.72.36-1.08,1.07-1.23.45,0,1.72.72,2.08.51.69-.37-.4-2.69.07-3.62.9-1.73,2.15.32,3.42.07,2-.4-.95-3.53.67-4.42.81-.45,2.31.29,3.11.48,2.38.61,4.71.21,6.86,1.08.76.31,1.55.5,2.29.82,1.52.65,2.93,1.41,4.49,2,3.47,1.24,7.23,2.26,10.89,1.47,4.2-.91,7.95-3.16,12-4.62,3.15-1.17,6.56-2,9.43-3.24" fill="#fff"/><path d="M116.65,91.25a17.47,17.47,0,0,0-5,3.78,58.62,58.62,0,0,1-4.61,4.31C103.84,102,100.41,104.49,97,107c-6.91,4.78-13.72,9.77-21.39,13.53a48.35,48.35,0,0,1-24.88,5.24,25.26,25.26,0,0,1-12.37-4,31.18,31.18,0,0,1-4.87-4.31,17.25,17.25,0,0,0-2.22-1.88c-.8-.55-1.7-1.26-2.54-1.89a26.44,26.44,0,0,1-4.91-4.36,11.21,11.21,0,0,1-1-1.45,4.05,4.05,0,0,1-.62-2.09,2.14,2.14,0,0,1,.53-1.4,2,2,0,0,1,1.38-.76,5.56,5.56,0,0,1,1.94.23h.25s0,0-.27.1a.76.76,0,0,0-.4.58h0v-.11a2.85,2.85,0,0,0-.59-.87,9,9,0,0,1-1.92-3,3.15,3.15,0,0,1,.29-2.31,1.88,1.88,0,0,1,.51-.64A1.76,1.76,0,0,1,25,97.18a2.6,2.6,0,0,1,1.27.4,3.81,3.81,0,0,0,.52.29c-.1,0,.07-.06-.25.1s-.17.4-.2.24a3.87,3.87,0,0,0-.13-.59c-.43-1.9-1.59-3.71-1.91-6.17a5.22,5.22,0,0,1,.11-2,2.13,2.13,0,0,1,.79-1.2,1.9,1.9,0,0,1,.69-.32l.31-.07a2.09,2.09,0,0,1,.5,0,4.49,4.49,0,0,1,1,.31q.31.12.63.21h-.19a.64.64,0,0,0-.41.39,2.41,2.41,0,0,0,0-.38c-.06-.45-.19-1-.24-1.59a3.26,3.26,0,0,1,.06-1.08,2.51,2.51,0,0,1,.68-1.14,1.88,1.88,0,0,1,1.51-.52,3.22,3.22,0,0,1,1.08.37,3.42,3.42,0,0,0,1,.42s.15-.08.05,0-.05.14-.05,0a8.92,8.92,0,0,0-.35-1.35,3,3,0,0,1,.08-2.25,1.9,1.9,0,0,1,1.19-.88,2.74,2.74,0,0,1,1.14,0,9.69,9.69,0,0,1,1.67.49,7.32,7.32,0,0,0,1.38.34c1,.18,2,.22,3.08.34a10.27,10.27,0,0,1,3.23.84,31.53,31.53,0,0,1,2.94,1.17,33.69,33.69,0,0,0,5.73,2.36,19.43,19.43,0,0,0,6,1.08c4.05,0,7.92-2,11.79-3.61s8.09-2.38,12-3.88c-3.85,1.74-8,2.64-11.77,4.45s-7.54,3.92-12,4.19a20.44,20.44,0,0,1-6.4-.91,35.23,35.23,0,0,1-6-2.31,30.92,30.92,0,0,0-2.93-1.08,8.82,8.82,0,0,0-2.82-.63c-1-.09-2.08-.11-3.24-.27a9.72,9.72,0,0,1-1.68-.38,8.82,8.82,0,0,0-1.36-.38,1.48,1.48,0,0,0-.42,0H33a2,2,0,0,0,.14.81,9.14,9.14,0,0,1,.44,1.69,1.94,1.94,0,0,1-.43,1.5,2.16,2.16,0,0,1-1.38.61,3.85,3.85,0,0,1-1.92-.58,1.92,1.92,0,0,0-.42-.16h.1l-.12.2a1.62,1.62,0,0,0,0,.44,14.51,14.51,0,0,0,.24,1.52,2.93,2.93,0,0,1,0,1.18,1.41,1.41,0,0,1-.89,1,1.54,1.54,0,0,1-.95,0,5.66,5.66,0,0,1-.88-.29,4.72,4.72,0,0,0-.53-.18h0v.12a3,3,0,0,0-.07,1.15c.21,1.76,1.33,3.65,1.9,5.82a5.47,5.47,0,0,1,.2,1,2.18,2.18,0,0,1,0,.72,1.64,1.64,0,0,1-.6,1,1.9,1.9,0,0,1-1.76.23,5.92,5.92,0,0,1-.87-.44c-.18-.12-.36-.14-.19-.12a.48.48,0,0,0,.3-.11c.06,0,.05,0,0,0a1.09,1.09,0,0,0-.08.73,8.36,8.36,0,0,0,1.57,2.16,4.67,4.67,0,0,1,.94,1.79,2.67,2.67,0,0,1,.09.69,1.54,1.54,0,0,1-.7,1.26,1.77,1.77,0,0,1-1.08.2,3.23,3.23,0,0,1-.53-.08,3.8,3.8,0,0,0-1.16-.18c-.08,0,.06-.07,0,0h0a4.51,4.51,0,0,0,1.15,2,17.27,17.27,0,0,0,2.1,2.09c.73.61,1.62,1.23,2.42,1.86s1.57,1.23,2.5,1.88a20,20,0,0,1,2.53,2.16,29.66,29.66,0,0,0,4.52,4.08,23.36,23.36,0,0,0,11.29,3.74,43,43,0,0,0,12.24-.83,54.4,54.4,0,0,0,11.7-3.92c7.55-3.45,14.5-8.26,21.56-12.84,3.5-2.3,7-4.68,10.34-7.15S112.67,92.85,116.65,91.25Z" fill="#d0d2d3"/><path d="M169,14a2.47,2.47,0,0,0-2.38,1.35,2.53,2.53,0,0,0,0,1.54,2.43,2.43,0,0,0,1,1.39c1.43.86,3.11-.75,3.54-2.06a1.67,1.67,0,0,0-.11-1.43,1.7,1.7,0,0,0-1.14-.71A4.67,4.67,0,0,0,169,14Z" fill="#231f20"/><path d="M169,15.53a.43.43,0,0,0-.27.37c0,.36.48.32.7.21a.57.57,0,0,0,.36-.35c.15-.48-.52-.62-.79-.35" fill="#fff"/><path d="M187.86,22.14a1.49,1.49,0,0,1,1-.26,2,2,0,0,1,1.54.83.94.94,0,0,1,.16,1.08c-.3-.2-.56-.09-.8-.19a2.69,2.69,0,0,1-.69-.24,2.56,2.56,0,0,1-.62-.46A4.19,4.19,0,0,1,187.86,22.14Z" fill="#231f20"/><path d="M175.11,24.58a33.08,33.08,0,0,1,13.13,2.56,13.84,13.84,0,0,1,5.52,3.92,7.46,7.46,0,0,1,1.39,3.12,6.91,6.91,0,0,1,0,1.7,2.36,2.36,0,0,1-.33,1.62c.32-.48.14-1.08.14-1.63a6.37,6.37,0,0,0-.18-1.63,6.86,6.86,0,0,0-1.48-2.84,13.87,13.87,0,0,0-5.39-3.63A44.53,44.53,0,0,0,175.11,24.58Z" fill="#231f20"/><path d="M39.78,12.57a5.94,5.94,0,0,1,1.08-2.48,5.2,5.2,0,0,1,2.28-1.58A11.2,11.2,0,0,1,47,8a12,12,0,0,1,3.72.49A5.76,5.76,0,0,1,53,9.8a4.63,4.63,0,0,1,1.15,2,9.62,9.62,0,0,1,.31,2.45,8.91,8.91,0,0,1-.79,3.94,10.73,10.73,0,0,1-2.09,2.9L48,24.58c-.27.26-.55.55-.86.88a2.7,2.7,0,0,0-.65,1h8V31H39.26A14.4,14.4,0,0,1,40,26.43a11.48,11.48,0,0,1,2.72-4.23l4.05-4.1A6.74,6.74,0,0,0,48,16.41a4.93,4.93,0,0,0,.37-2.15,3.51,3.51,0,0,0-.42-2,1.38,1.38,0,0,0-1.14-.55,1.63,1.63,0,0,0-.62.12,1.21,1.21,0,0,0-.54.43,2.76,2.76,0,0,0-.39.94,6.91,6.91,0,0,0-.15,1.57v1H39.46A17.53,17.53,0,0,1,39.78,12.57Z" fill="#ffc629"/><path d="M56.69,14a9.28,9.28,0,0,1,1.44-3.62,4.85,4.85,0,0,1,2.44-1.86,12,12,0,0,1,7,0,5,5,0,0,1,2.48,1.86A9.42,9.42,0,0,1,71.49,14,28.54,28.54,0,0,1,72,19.72a28.83,28.83,0,0,1-.47,5.79,9.43,9.43,0,0,1-1.43,3.61,4.85,4.85,0,0,1-2.45,1.8,12.66,12.66,0,0,1-7,0,4.76,4.76,0,0,1-2.47-1.8,9.15,9.15,0,0,1-1.44-3.59,28.83,28.83,0,0,1-.47-5.79A28.67,28.67,0,0,1,56.69,14Zm6,12.93a1.41,1.41,0,0,0,1.37.86,1.43,1.43,0,0,0,1.36-.86,8.44,8.44,0,0,0,.42-3.31V15.91a8.44,8.44,0,0,0-.42-3.31,1.43,1.43,0,0,0-1.36-.86,1.4,1.4,0,0,0-1.37.86,8.27,8.27,0,0,0-.43,3.31v7.63a8.29,8.29,0,0,0,.43,3.31Z" fill="#ffc629"/><path d="M78.52,15.33H74.14V11.54a13.48,13.48,0,0,0,2.38-.18,5.28,5.28,0,0,0,1.73-.58A3.28,3.28,0,0,0,79.42,9.7,6.09,6.09,0,0,0,80.18,8h4.31V31h-6Z" fill="#ffc629"/><path d="M102.93,8.41V13H94.16l-.26,3.88a7,7,0,0,1,1.91-1.24,6.12,6.12,0,0,1,2.36-.45,5.25,5.25,0,0,1,4.31,1.79,8.71,8.71,0,0,1,1.46,5.54,18.93,18.93,0,0,1-.37,4,6.71,6.71,0,0,1-1.27,2.78A5.08,5.08,0,0,1,100,30.85a10.47,10.47,0,0,1-3.6.52c-2.68,0-4.61-.57-5.79-1.69a6.37,6.37,0,0,1-1.78-4.83V24.1h5.68v.79a4.08,4.08,0,0,0,.43,2.22,1.48,1.48,0,0,0,1.23.58,1.71,1.71,0,0,0,.77-.15,1.22,1.22,0,0,0,.53-.67,4.86,4.86,0,0,0,.33-1.5q.09-1,.09-2.64A5.64,5.64,0,0,0,97.43,20a1.38,1.38,0,0,0-1.28-.76,1.65,1.65,0,0,0-1.21.45,2.08,2.08,0,0,0-.45,1.5H89l.53-12.82Z" fill="#ffc629"/><path d="M39,53.91V51.66H34.32V48.59l5.73-7.32h2.36v7.32H44v3.07h-1.6v2.25Zm-1.25-5.32h1.66V46.37Z" fill="#ffc629"/><path d="M55,47.61a3.9,3.9,0,0,1-.37,1.71,4.17,4.17,0,0,1-1.08,1.31,4.56,4.56,0,0,1-1.55.86,6,6,0,0,1-1.88.3,5.72,5.72,0,0,1-1.84-.3,5.05,5.05,0,0,1-1.52-.81,4.31,4.31,0,0,1-1.08-1.36,4.06,4.06,0,0,1-.4-1.78,2.74,2.74,0,0,1,.15-.9,3.64,3.64,0,0,1,.37-.77,4.85,4.85,0,0,1,.49-.61c.18-.17.36-.33.55-.48a2.35,2.35,0,0,1-.86-.91,2.54,2.54,0,0,1-.33-1.25A3.12,3.12,0,0,1,46.11,41a4.16,4.16,0,0,1,1.08-1.21A4.71,4.71,0,0,1,48.64,39a5.07,5.07,0,0,1,1.54-.25,5.27,5.27,0,0,1,1.53.25,4.76,4.76,0,0,1,1.47.71,3.93,3.93,0,0,1,1.08,1.18,3.18,3.18,0,0,1,.43,1.65,2.62,2.62,0,0,1-.35,1.26,2.26,2.26,0,0,1-.87.94c.19.15.38.32.56.49a3.45,3.45,0,0,1,.5.64,3.35,3.35,0,0,1,.35.8A2.74,2.74,0,0,1,55,47.61Zm-3.49-.17a1.12,1.12,0,0,0-.39-.92,1.54,1.54,0,0,0-1-.33,1.45,1.45,0,0,0-1,.34,1.06,1.06,0,0,0-.38.91,1.2,1.2,0,0,0,.39.89,1.4,1.4,0,0,0,1,.35,1.32,1.32,0,0,0,1-.35A1.2,1.2,0,0,0,51.54,47.44Zm-2.36-4.76a.83.83,0,0,0,.32.72,1.09,1.09,0,0,0,.68.24,1.17,1.17,0,0,0,.68-.24A.89.89,0,0,0,51,42.14l-.08-.09a1.1,1.1,0,0,0-.74-.24,1.07,1.07,0,0,0-.73.24.86.86,0,0,0-.27.6Z" fill="#ffc629"/><path d="M60.9,51.6V38.75h4.94a7.37,7.37,0,0,1,2.82.5,5.69,5.69,0,0,1,3.23,3.42,7.28,7.28,0,0,1,.42,2.49,7.51,7.51,0,0,1-.46,2.65,5.83,5.83,0,0,1-1.32,2,6,6,0,0,1-2,1.3,7.3,7.3,0,0,1-2.66.45Zm7.84-6.46a4.19,4.19,0,0,0-.2-1.36A3.37,3.37,0,0,0,68,42.7a2.69,2.69,0,0,0-.92-.68,3.17,3.17,0,0,0-1.22-.25H64.43v6.75h1.41a2.72,2.72,0,0,0,1.23-.26,2.33,2.33,0,0,0,.92-.7,2.86,2.86,0,0,0,.56-1.08,4.53,4.53,0,0,0,.19-1.32Z" fill="#ffc629"/><path d="M76.67,38.75h3.24L84.36,51.6H80.77L80,49.09H76.52l-.76,2.51H72.21Zm2.75,8-1.14-4-1.19,4Z" fill="#ffc629"/><path d="M86.72,38.75,89,44.31l2.35-5.56h3.84l-4.44,8.62v4.31H87.3V47.37L83,38.75Z" fill="#ffc629"/><path d="M103.35,43a11.21,11.21,0,0,0-1.08-.58,8.22,8.22,0,0,0-1.08-.4,4,4,0,0,0-1.18-.2,1.8,1.8,0,0,0-.76.14.54.54,0,0,0-.28.5.58.58,0,0,0,.17.41,1.35,1.35,0,0,0,.47.3,4.17,4.17,0,0,0,.75.26l1,.31a13.43,13.43,0,0,1,1.6.6,5,5,0,0,1,1.22.77,2.81,2.81,0,0,1,.78,1.08,4.49,4.49,0,0,1-.15,3.48,3.46,3.46,0,0,1-1.08,1.26,4.73,4.73,0,0,1-1.58.68,7.43,7.43,0,0,1-1.76.21A10,10,0,0,1,99,51.66a12,12,0,0,1-1.47-.3,14.06,14.06,0,0,1-1.56-.48,10.43,10.43,0,0,1-1.26-.61l1.52-3.1a9.93,9.93,0,0,0,1.33.7,8.93,8.93,0,0,0,1.3.5,5.85,5.85,0,0,0,1.5.22,1.52,1.52,0,0,0,.81-.17.45.45,0,0,0,.23-.39.6.6,0,0,0-.23-.47,2.11,2.11,0,0,0-.63-.33c-.27-.1-.57-.2-.91-.29s-.71-.22-1.08-.35A8.94,8.94,0,0,1,97,46a4,4,0,0,1-1-.77,2.29,2.29,0,0,1-.58-1,3.75,3.75,0,0,1-.2-1.24,4.35,4.35,0,0,1,.39-1.88,3.77,3.77,0,0,1,1.08-1.36,4.74,4.74,0,0,1,1.53-.83,5.91,5.91,0,0,1,1.82-.28,6.4,6.4,0,0,1,1.38.14,11.11,11.11,0,0,1,1.29.34,9.79,9.79,0,0,1,1.17.46c.36.16.69.31,1,.46Z" fill="#ffc629"/><g mask="url(#b)"><ellipse cx="254.41" cy="236.39" rx="47.35" ry="6.79" fill="#a91f25"/></g><path d="M189.85,104.06c1.42.92,3-.3,4.83,0,.4.08-.84,6-.86,6.58a6.31,6.31,0,0,0,.84,4c2.16,2.86,5.48,1.39,8.08.08,0,0,2.84,9.7,3.24,15.09.81,11.85-2.78,24.86-1.93,36.74a36.41,36.41,0,0,0,1.62,8.39c.15.48.12.76.31,1.27a48.5,48.5,0,0,0,4.83,9.7,38.5,38.5,0,0,0,3.23,3.53,48.64,48.64,0,0,0,10.64,8.7c5.51,3.3,11,6.47,16.32,10.11,2.72,1.84,5.38,3.74,8.13,5.65,2.16,1.52,5.22,3,6.8,5.2.23,3-.65,4.92-1,7.41a8.75,8.75,0,0,1-2.22-.2l.21,0c-1.75-.45-3.36-1.36-4.79-1.16-.35-.08-.71-.13-1.07-.18a4.87,4.87,0,0,0-3.24.94l2.58,1.08c.48,1.34,2.42,1.24,3.08,2.45-2.54-.51-4.53-1.83-7.2-1.31a3.57,3.57,0,0,0-2.42,1.54,2.35,2.35,0,0,1,1.35.6c2.16,2.32-4.08,2.85-4.94,3-1.57.33-2.78,3.41-2.54,4.7.51.1.66-.19,1-.56a3.47,3.47,0,0,1,1.31-.77,24.11,24.11,0,0,1,4.75-1.52,7.88,7.88,0,0,1,4.88.56c1.42.71,3,1.15,1.59,2.65-.86.92-2.22,1.21-2.93,2.35a6,6,0,0,0-.88,4.06,5,5,0,0,0,.15-.77l1.91-1a32.9,32.9,0,0,1,5.31-3.34,29.07,29.07,0,0,1,13.39-3.08.62.62,0,0,0,.46-.12.65.65,0,0,0,.13-.54c0-1.2-.33-3.51,1.37-3.81.88-.15,4.17,3.47,4.59,1.85.89-3.51-3-4.94-3.88-7.74.87-2.25.42-5.81,1-8.38.3-1.34,3.12-1.27,4.13-1.45,6.94-1.2,12.8-5.53,18.42-9.47a33.31,33.31,0,0,0,5.45-4.45c1.46-1.64,2.06-3.94,3-5.87A31.5,31.5,0,0,0,302,189c.21-.93.24-3.14,1-3.78,1.15-1,2.78-1.17,4.06-1.88a18.37,18.37,0,0,0,3.92-3.16,48.94,48.94,0,0,0,7.84-10.89,42,42,0,0,0,3.71-7.25,7.13,7.13,0,0,0,.4-3.77,16.28,16.28,0,0,0-1.54-2.69c4.43-4.31,6.17-11.43,5.79-20.63,0-1.51-1.16-1.85-1.29-3.24-.18-1.89,1.42-3.66,1.34-5.58a2.15,2.15,0,0,0-1.08-2.09c-.41-.2-3.44.43-3.23-.71.38-1.75.92-4.45.13-6.14-1.19-2.53-3.92-1.42-5.92-.63-1.18-1.52-2.15-2.35-3.87-2.25-4.12.27-6.52,6.14-9.06,8.76s-5.39,4.88-8,7.42-5,5-8.34,6.2c-4.55,1.67-9.7,1.55-14.48,2.11-11.53,1.39-25,.88-32.49-9.38a59.62,59.62,0,0,1-4.68-8,109.52,109.52,0,0,1-5.28-10.84c-1.75-4.73-3.17-9.7-6-14a28.7,28.7,0,0,0-6.47-6.77c-1.56-1.26-3.12-2.73-5.17-3.24-1-1.82-1.77-3.41-3.85-4.17-1.56-.58-3.31.1-4.83-1-1.31,0-3.33-.37-4.57,0s-1.87,1.62-3,2.16c-.63.3-3.43.71-3.43,1.69s-.54,1.59-.33,2.89c-.46,1.69-2,2.82-2.3,4.59s.81,3.45.36,5.06C190.91,100,189.46,101.11,189.85,104.06Zm72.54,121.68c-.2-.05-3.3-1.2-3.44-.86a15.08,15.08,0,0,0,1-6.24l4.69-.56c.2,2.64-.87,4.94-1.62,7.41a.32.32,0,0,1-.17.25A.4.4,0,0,1,262.39,225.74Zm-5.82,2a1.67,1.67,0,0,1,.83,0l2.78.5h-.28a.66.66,0,0,1,.36.11,4.65,4.65,0,0,1-4,0A.54.54,0,0,1,256.57,227.77Z" fill="#c02026"/><path d="M250.93,63.78h-4.31V60a14,14,0,0,0,2.42-.18,5.32,5.32,0,0,0,1.72-.59,3.56,3.56,0,0,0,1.18-1.07,7.09,7.09,0,0,0,.74-1.72h4.38v23H251Z" fill="#ffc629"/><path d="M266.84,75.71a1.46,1.46,0,0,0,1.21.46,1.61,1.61,0,0,0,1.16-.54,2.28,2.28,0,0,0,.5-1.62V70.33h-.07a2.81,2.81,0,0,1-1.44,1.3,5.86,5.86,0,0,1-2.44.5,7.13,7.13,0,0,1-2.24-.35,4,4,0,0,1-1.74-1.14,5.37,5.37,0,0,1-1.08-2.16,12.33,12.33,0,0,1-.39-3.37,13.52,13.52,0,0,1,.51-4,6.83,6.83,0,0,1,1.49-2.7,5.71,5.71,0,0,1,2.44-1.54A10.75,10.75,0,0,1,268,56.4a11.82,11.82,0,0,1,3.5.47A5.51,5.51,0,0,1,274,58.49a7.49,7.49,0,0,1,1.49,3,18.76,18.76,0,0,1,.51,4.72v2.54a35.94,35.94,0,0,1-.28,4.75A9.16,9.16,0,0,1,274.61,77a5.19,5.19,0,0,1-2.41,2.15,10.12,10.12,0,0,1-4.14.7,12,12,0,0,1-3.67-.46,5.26,5.26,0,0,1-2.22-1.27,4.32,4.32,0,0,1-1.07-1.88,7.6,7.6,0,0,1-.3-2.23h5.66A3,3,0,0,0,266.84,75.71ZM266.69,67a1.35,1.35,0,0,0,1.33.79,1.38,1.38,0,0,0,1.27-.79,7.24,7.24,0,0,0,.42-3,7.88,7.88,0,0,0-.38-3,1.34,1.34,0,0,0-1.31-.78,1.39,1.39,0,0,0-1.28.78,7.34,7.34,0,0,0-.42,3A8.17,8.17,0,0,0,266.69,67Z" fill="#ffc629"/><path d="M277.73,61a5.77,5.77,0,0,1,1.08-2.47A5.22,5.22,0,0,1,281.09,57a11.16,11.16,0,0,1,3.85-.55,11.72,11.72,0,0,1,3.72.49A5.72,5.72,0,0,1,291,58.22a4.67,4.67,0,0,1,1.07,2,9.62,9.62,0,0,1,.31,2.45,9.07,9.07,0,0,1-.78,3.94,10.88,10.88,0,0,1-2.09,2.9L285.93,73l-.86.87a2.8,2.8,0,0,0-.64,1h8v4.56H277.21a14.5,14.5,0,0,1,.73-4.62,11.43,11.43,0,0,1,2.73-4.21l4-4.11A6.09,6.09,0,0,0,286,64.87a5.12,5.12,0,0,0,.38-2.15,3.57,3.57,0,0,0-.42-2,1.39,1.39,0,0,0-1.14-.55,1.67,1.67,0,0,0-.63.11,1.44,1.44,0,0,0-.54.44,2.63,2.63,0,0,0-.39.93,7,7,0,0,0-.15,1.58v1H277.4A18.72,18.72,0,0,1,277.73,61Z" fill="#ffc629"/><path d="M308.25,56.86v4.6h-8.76l-.27,3.88a6.21,6.21,0,0,1,1.92-1.24,5.79,5.79,0,0,1,2.36-.47,5.25,5.25,0,0,1,4.31,1.8A8.68,8.68,0,0,1,309.33,71a18.15,18.15,0,0,1-.38,4,6.9,6.9,0,0,1-1.25,2.79,5.18,5.18,0,0,1-2.33,1.63,10.5,10.5,0,0,1-3.61.52c-2.67,0-4.6-.56-5.77-1.7a6.33,6.33,0,0,1-1.83-4.84v-.75h5.67v.78a3.94,3.94,0,0,0,.44,2.16,1.43,1.43,0,0,0,1.22.59,1.68,1.68,0,0,0,.77-.15,1.28,1.28,0,0,0,.54-.67,5.44,5.44,0,0,0,.33-1.5,26.07,26.07,0,0,0,.1-2.64,6,6,0,0,0-.44-2.71,1.42,1.42,0,0,0-1.3-.78,1.67,1.67,0,0,0-1.2.47,2,2,0,0,0-.46,1.49h-5.47l.52-12.81Z" fill="#ffc629"/><path d="M248.06,97.18v3.08h-8.39V97.18h2.58v-3.6a1.85,1.85,0,0,1-.51.42,5.68,5.68,0,0,1-.78.39,4.14,4.14,0,0,1-.86.29,2.87,2.87,0,0,1-.77.11V91.63a2,2,0,0,0,.71-.19,7.56,7.56,0,0,0,.9-.45,6.59,6.59,0,0,0,.82-.56,1.86,1.86,0,0,0,.49-.52h3.49v7.26Z" fill="#ffc629"/><path d="M258,97.18v3.08h-8.38V97.18h2.62v-3.6a1.67,1.67,0,0,1-.5.42,5.56,5.56,0,0,1-.77.39,5.12,5.12,0,0,1-.86.29,3,3,0,0,1-.79.11V91.63a2,2,0,0,0,.72-.19,7.56,7.56,0,0,0,.9-.45,6.59,6.59,0,0,0,.82-.56,1.7,1.7,0,0,0,.48-.52h3.52v7.26Z" fill="#ffc629"/><path d="M259,100.26a7.81,7.81,0,0,1,.14-1.6,4,4,0,0,1,.48-1.24,3.78,3.78,0,0,1,.84-1,7.81,7.81,0,0,1,1.27-.85l1.55-.84c.38-.22.67-.38.86-.52a1.17,1.17,0,0,0,.37-.33.56.56,0,0,0,.09-.31.8.8,0,0,0-.29-.66,1.35,1.35,0,0,0-.8-.22,2.29,2.29,0,0,0-1.08.31,4.63,4.63,0,0,0-1.08,1l-2.15-2.55a4,4,0,0,1,.88-.7,6.88,6.88,0,0,1,1.21-.54,9.25,9.25,0,0,1,1.4-.35,8.59,8.59,0,0,1,1.52-.13,5,5,0,0,1,3.17.86,3,3,0,0,1,1.08,2.4,3,3,0,0,1-.16,1,3.2,3.2,0,0,1-.38.79,3.31,3.31,0,0,1-.59.65,8.11,8.11,0,0,1-.73.54,10.1,10.1,0,0,1-.95.59c-.33.19-.65.4-1,.62h4v3.09Z" fill="#ffc629"/><path d="M274.43,100.26V87.41h4.94a7.14,7.14,0,0,1,2.81.51,5.57,5.57,0,0,1,3.25,3.4,7.1,7.1,0,0,1,.42,2.5,7,7,0,0,1-.46,2.65,5.59,5.59,0,0,1-1.31,2A5.91,5.91,0,0,1,282,99.8a7.35,7.35,0,0,1-2.66.47Zm7.83-6.47a4.47,4.47,0,0,0-.19-1.36,3.21,3.21,0,0,0-.57-1.08,2.6,2.6,0,0,0-.92-.68,3,3,0,0,0-1.21-.24H278v6.7h1.42a2.91,2.91,0,0,0,1.23-.25,2.64,2.64,0,0,0,.91-.71,3.11,3.11,0,0,0,.57-1.08,4.74,4.74,0,0,0,.18-1.3Z" fill="#ffc629"/><path d="M290.2,87.41h3.23l4.45,12.85h-3.59l-.77-2.53h-3.43l-.75,2.53h-3.62Zm2.76,8-1.15-4-1.19,4Z" fill="#ffc629"/><path d="M300.25,87.41l2.3,5.56,2.36-5.56h3.84L304.31,96v4.31h-3.52v-4.4l-4.4-8.53Z" fill="#ffc629"/><path d="M316.87,91.63a8.49,8.49,0,0,0-1.07-.58c-.36-.16-.72-.29-1.08-.41a4.07,4.07,0,0,0-1.2-.19,1.56,1.56,0,0,0-.74.15.48.48,0,0,0-.28.48.54.54,0,0,0,.16.42,1.82,1.82,0,0,0,.47.31,6.59,6.59,0,0,0,.75.25l1,.31a12.81,12.81,0,0,1,1.6.6,5.2,5.2,0,0,1,1.23.77,3,3,0,0,1,.78,1.07,4.07,4.07,0,0,1,.27,1.54,4.15,4.15,0,0,1-.42,2,3.69,3.69,0,0,1-1.13,1.26,4.73,4.73,0,0,1-1.58.68,8.05,8.05,0,0,1-1.76.2,10,10,0,0,1-1.45-.11A10.37,10.37,0,0,1,311,100c-.48-.13-.95-.29-1.42-.46a9.87,9.87,0,0,1-1.26-.63l1.52-3.09A10.41,10.41,0,0,0,312.38,97a5.32,5.32,0,0,0,1.49.22,1.59,1.59,0,0,0,.8-.15.48.48,0,0,0,.23-.41.6.6,0,0,0-.23-.47,1.94,1.94,0,0,0-.62-.33c-.27-.1-.57-.19-.92-.29s-.71-.21-1.07-.35a8.63,8.63,0,0,1-1.47-.62,3.71,3.71,0,0,1-1.08-.76,3,3,0,0,1-.58-1,3.52,3.52,0,0,1-.19-1.25,4.34,4.34,0,0,1,.38-1.88,4,4,0,0,1,1.08-1.36,4.72,4.72,0,0,1,1.53-.82,5.61,5.61,0,0,1,1.81-.28,7,7,0,0,1,1.38.13,10,10,0,0,1,1.3.35c.42.14.8.29,1.17.45l1,.46Z" fill="#ffc629"/><g style="isolation:isolate"><text transform="translate(357.86 205.99)" font-size="19.92" fill="#eeefee" font-family="Raleway-Black, Raleway" style="isolation:isolate">THEY’RE SL<tspan x="111.9" y="0" letter-spacing="-0.03em">A</tspan><tspan x="124.64" y="0">UGHTERED</tspan><tspan x="233.01" y="0" letter-spacing="-0.03em"> </tspan><tspan x="236.9" y="0" letter-spacing="-0.07em">A</tspan><tspan x="248.89" y="0" letter-spacing="-0.03em">T</tspan><tspan x="260.76" y="0"> </tspan><tspan x="0" y="23.9">JUS</tspan><tspan x="37.01" y="23.9" letter-spacing="-0.03em">T</tspan><tspan x="48.88" y="23.9" xml:space="preserve"> 7</tspan><tspan x="65.17" y="23.9" letter-spacing="-0.04em"> </tspan><tspan x="68.95" y="23.9">WEEKS OLD.</tspan></text></g><text transform="translate(357.86 72.69)" font-size="14" fill="#fff" font-family="Raleway-SemiBold, Raleway" font-weight="700"><tspan letter-spacing="-0.01em">M</tspan><tspan x="12.08" y="0">cDonald</tspan><tspan x="67.74" y="0" letter-spacing="-0.01em">’</tspan><tspan x="70.63" y="0">s suppliers b</tspan><tspan x="154.44" y="0" letter-spacing="-0.03em">r</tspan><tspan x="159.32" y="0">eed </tspan><tspan x="0" y="16.8">chic</tspan><tspan x="27.4" y="16.8" letter-spacing="-0.03em">k</tspan><tspan x="34.69" y="16.8">ens th</tspan><tspan x="75.28" y="16.8" letter-spacing="0em">a</tspan><tspan x="83.12" y="16.8">t g</tspan><tspan x="100.52" y="16.8" letter-spacing="-0.03em">r</tspan><tspan x="105.39" y="16.8" letter-spacing="-0.02em">o</tspan><tspan x="113.55" y="16.8" letter-spacing="-0.03em">w</tspan><tspan x="124.79" y="16.8" xml:space="preserve"> so </tspan><tspan x="147.08" y="16.8" letter-spacing="-0.01em">f</tspan><tspan x="151.95" y="16.8">ast, </tspan><tspan x="0" y="33.6" letter-spacing="-0.02em">y</tspan><tspan x="7.41" y="33.6">ou e</tspan><tspan x="36.15" y="33.6" letter-spacing="0em">a</tspan><tspan x="43.99" y="33.6">t them</tspan><tspan x="87.39" y="33.6" letter-spacing="-0.03em"> </tspan><tspan x="90.47" y="33.6">when</tspan></text><text transform="translate(358.3 143.43)" font-size="30.79" fill="#ffc629" font-family="Raleway-ExtraBold, Raleway" font-weight="700">THEY’RE <tspan x="0" y="34" letter-spacing="0em">S</tspan><tspan x="18.78" y="34">TIL</tspan><tspan x="65.16" y="34" letter-spacing="-0.03em">L</tspan><tspan x="82.34" y="34"> </tspan><tspan x="89.51" y="34" letter-spacing="-0.02em">B</tspan><tspan x="110.11" y="34">ABI</tspan><tspan x="161.04" y="34" letter-spacing="-0.02em">E</tspan><tspan x="179.03" y="34">S.</tspan></text></svg>