<?xml version="1.0" encoding="UTF-8"?>
<svg width="100%" height="100%" viewBox="0 0 520 213" version="1.1" xmlns="http://www.w3.org/2000/svg" xmlns:xlink="http://www.w3.org/1999/xlink">
    <!-- Generator: Sketch 47.1 (45422) - http://www.bohemiancoding.com/sketch -->
    <title>Artboard 2</title>
    <desc>Created with Sketch.</desc>
    <defs></defs>
    <g id="Page-1" stroke="none" stroke-width="1" fill="none" fill-rule="evenodd">
        <g id="Artboard-2"></g>
        <g id="Artboard" transform="translate(-36.000000, -142.000000)" fill-rule="nonzero" fill="#FFFFFF">
            <g id="companies" transform="translate(37.000000, 142.000000)">
                <path d="M86.85,68.17 C69.4496387,72.3615931 52.361768,77.7579387 35.71,84.32 C33.58,85.17 31.94,85.59 33.05,87.07 C35.71,90.56 49.59,97.07 67.59,90.7 C84.24,84.82 89.07,72.4 89.32,69.7 C89.54,67.33 88.38,67.8 86.85,68.17 Z M84.31,73.72 C81.08,83.72 70.07,87.93 69.38,88.17 C79.66,81.34 81.44,73.96 81.64,72.96 C81.61076,72.3181868 82.0017133,71.73174 82.6053966,71.5118635 C83.2090798,71.291987 83.8856172,71.4896271 84.2759971,71.9999041 C84.6663771,72.5101811 84.6801472,73.2148617 84.31,73.74 L84.31,73.72 Z M79.66,16.06 C75.8,11.06 64.21,4.74 45.66,9.2 C27.11,13.66 22.16,28.29 21.77,31 C21.38,33.36 22.85,32.73 23.33,32.55 C40.8381295,26.4231216 58.7775814,21.6065108 77,18.14 C79.24,17.73 81,17.79 79.67,16.07 L79.66,16.06 Z M28.07,27.8 C27.79,29.27 25.77,29.27 26.21,27.42 C28.5,17.55 38.81,12.64 39.21,12.42 C29.55,19.53 28.21,26.88 28.05,27.85 L28.07,27.8 Z M66.15,18 C66.15,18 69.15,17 68.57,14.49 C67.99,11.98 60.78,9.03 55.36,8.87 C55.36,8.87 67.75,7.79 72.07,13.92 C74.45,17.34 66.15,18.06 66.15,18.06 L66.15,18 Z" id="Shape"></path>
                <path d="M93.8,72 C87.12,87.09 73.59,98.43 56.46,100.12 C43.2484895,101.409628 30.1401351,96.8109114 20.63,87.55 C18.1,88.64 14.93,89.87 14.93,89.87 L14.93,80.96 C6.20523866,68.6363851 3.64940128,52.9785535 8.00252996,38.5202266 C12.3556587,24.0618997 23.1315326,12.4179942 37.21,6.96 C47.1673677,3.22752536 57.9672897,2.3410938 68.4,4.4 C40.833192,-3.43074397 11.9958571,11.8724751 3.02869459,39.0908411 C-5.93846789,66.3092071 8.1557462,95.7563382 34.9788444,105.844492 C61.8019427,115.932646 91.8082097,103.071685 103,76.69 L93.8,72 Z" id="Shape"></path>
                <path d="M90.45,45.69 C93.39,46.06 96.18,47.16 97.06,43.81 C97.5,42.14 96.74,40.23 93.77,39.52 C92.4565256,39.224004 91.1162139,39.0631666 89.77,39.04 C81.9116686,38.7568488 75.1807309,44.6174444 74.38,52.44 C73.13,61.75 78.96,66.44 85.76,65.95 C94.57,65.32 97.11,61.27 97.11,57.07 L97.11,48.35 L85.98,50.71 L85.98,53.71 C85.98,53.71 85.89,56.49 89.98,55.39 L89.98,57.3 C89.98,57.3 89.86,59.43 86.56,59.3 C83.83,59.3 81.42,57.3 82.16,52.05 C82.3760535,50.1152033 83.3519041,48.3454947 84.8728485,47.1302394 C86.393793,45.9149842 88.3352259,45.3537436 90.27,45.57 L90.45,45.69 Z M69.19,44.22 C67.069856,44.7241544 65.5903162,46.6413045 65.64,48.82 L65.64,57.27 L58.79,49.27 C57.7752466,47.9078176 56.0197663,47.3213276 54.39,47.8 L50.22,49.07 L50.22,75.51 L53.86,74.21 C56.0159354,73.5726899 57.5146616,71.6174784 57.57,69.37 L57.57,59.71 C57.57,59.71 63.81,66.84 65.4,68.62 C66.364435,69.7119725 67.8032151,70.2613249 69.25,70.09 C71.2709113,69.8767171 72.8107415,68.1820436 72.83,66.15 L72.83,43.15 L69.19,44.22 Z M73.81,36.39 L73.81,32.93 L77.16,32.15 C78.1692795,31.9928002 78.8979196,31.1003237 78.85,30.08 L78.85,28.38 L73.85,29.43 L73.85,27.05 L77.61,26.2 C78.6639745,26.0240088 79.4468885,25.1280537 79.48,24.06 L79.48,21.94 L69,24.06 L69,41.43 L77.57,39.43 C78.6224125,39.2583997 79.4060817,38.3657712 79.44,37.3 L79.44,35.19 L73.81,36.39 Z M67.72,38.8 L67.72,31.75 L60.78,33.38 C60.7099908,34.1049804 60.7099908,34.8350196 60.78,35.56 C60.78,37.19 63.32,36.51 63.32,36.51 C63.3702734,37.2057597 63.3702734,37.9042403 63.32,38.6 C63.18,39.15 61.95,39.92 60.38,39.67 C59.03,39.45 58.23,38.02 58.38,35.26 C58.68,28.32 65.62,29.95 65.62,29.95 C66.8295036,29.95 67.81,28.9695036 67.81,27.76 C67.7400903,26.5840735 66.7965184,25.6491187 65.62,25.59 C56.56,24.26 53.36,31.06 53.11,35.06 C52.86,39.06 54.68,44.59 61.32,43.87 C67.96,43.15 67.72,38.8 67.72,38.8 L67.72,38.8 Z M92.72,33.22 L90.09,29.89 C91.9142989,28.8104709 92.9743342,26.7948563 92.83,24.68 C92.83,20.92 89.04,20.07 85.73,20.83 C84.66,21.08 80.62,21.78 80.62,21.78 L80.62,39 L83.56,38.34 C83.56,38.34 85.43,38.06 85.43,35.58 L85.43,32.17 L89.43,36.58 C90.3386706,37.6262548 91.9233054,37.738164 92.97,36.83 L93.13,36.68 C94.83,35.11 92.82,33.17 92.82,33.17 L92.72,33.22 Z M85.23,29.02 L85.23,24.47 C85.23,24.47 88.17,23.4 88.07,25.67 C87.8825802,27.2241951 86.7840074,28.5157071 85.28,28.95 L85.23,29.02 Z M52.23,42.02 L49.44,39.18 C51.4660068,37.8512298 52.5930151,35.5125916 52.37,33.1 C52.37,29.36 48.23,28.95 44.94,30.17 C43.86,30.55 39.82,31.74 39.82,31.74 L39.82,49.67 L42.75,48.67 C43.9540056,48.2145047 44.717689,47.024296 44.63,45.74 L44.63,41.58 L48.89,45.84 C49.9423507,46.7324878 51.5157563,46.617147 52.4267064,45.5807367 C53.3376566,44.5443264 53.250146,42.9691278 52.23,42.04 L52.23,42.02 Z M44.62,38.67 L44.62,33.67 C44.62,33.67 47.62,32.51 47.56,34.78 C47.4405044,36.5179747 46.313491,38.0245725 44.68,38.63 L44.62,38.67 Z M38.45,34.78 C38.4992664,34.1456367 38.2172985,33.5308395 37.7043985,33.1543058 C37.1914985,32.7777721 36.5204651,32.6929452 35.93,32.93 C34.87,33.22 33.65,33.63 33.65,33.63 L33.65,46.35 C33.7920951,47.4802916 32.998538,48.5145908 31.87,48.67 C30.3,48.88 30.41,46.95 30.41,46.95 L30.41,37 C30.41,37 30.41,34.81 27.98,35.62 L25.5,36.53 L25.5,48.95 C25.5,48.95 25.65,55.08 32.43,52.95 C36.2374846,52.1118213 38.8366894,48.5849397 38.51,44.7 C38.51,43.23 38.51,34.8 38.51,34.8 L38.45,34.78 Z M25,50.55 C24.82,47.92 21.86,47.07 21.86,47.07 C23.5868076,45.9334448 24.5114295,43.9093776 24.24,41.86 C23.69,37.05 18.01,39.33 18.01,39.33 L12.01,41.56 L12.01,60.65 C12.01,60.65 15.91,59.04 19.91,57.26 C23.91,55.48 25.23,53.57 25,50.55 Z M16.69,43.06 C16.69,43.06 19.63,41.69 19.52,44.12 C19.41,46.55 16.69,47.12 16.69,47.12 L16.69,43.06 Z M16.69,54.81 L16.69,50 C16.69,50 19.98,48.44 19.87,51.32 C19.76,54.2 16.69,54.8 16.69,54.8 L16.69,54.81 Z M43,51.43 C40.87603,52.1807623 39.4464353,54.1774029 39.42,56.43 L39.42,79.12 L44.14,77.45 C46.276349,76.7061712 47.7243515,74.7116774 47.77,72.45 L47.77,49.77 L43,51.43 Z M36.68,74.31 L31.53,69.15 L37,60 C38.36,57.71 37.7,55.67 35.82,54.92 C34.003263,54.07293 31.8400795,54.7013647 30.76,56.39 L23.9,68.08 L23.9,58.63 L16,62 L16,88.08 C16,88.08 19.34,86.79 21.88,85.66 C23.95,84.75 23.88,81.9 23.88,81.9 L23.88,73.59 L30.67,80.39 C32.2750956,82.0163009 34.8816248,82.0739162 36.5570138,80.5201279 C38.2324029,78.9663397 38.3709804,76.3628593 36.87,74.64 L36.65,74.41 L36.68,74.31 Z M103.57,67.7 C103.57,66.8881414 102.911859,66.23 102.1,66.23 L99.6,66.23 L99.6,71.43 L100.6,71.43 L100.6,69.15 L101.16,69.15 L102.47,71.43 L103.54,71.43 L102.23,69.14 C102.971426,69.0640343 103.538671,68.4452214 103.55,67.7 L103.57,67.7 Z M100.63,68.42 L100.63,67 L101.84,67 C102.240859,67.010838 102.560146,67.3389941 102.56,67.74 C102.554531,68.1337343 102.233772,68.450038 101.84,68.45 L101.84,68.45 L100.63,68.42 Z M103.57,67.7 C103.57,66.8881414 102.911859,66.23 102.1,66.23 L99.6,66.23 L99.6,71.43 L100.6,71.43 L100.6,69.15 L101.16,69.15 L102.47,71.43 L103.54,71.43 L102.23,69.14 C102.971426,69.0640343 103.538671,68.4452214 103.55,67.7 L103.57,67.7 Z M100.63,68.42 L100.63,67 L101.84,67 C102.240859,67.010838 102.560146,67.3389941 102.56,67.74 C102.554531,68.1337343 102.233772,68.450038 101.84,68.45 L101.84,68.45 L100.63,68.42 Z M103.57,67.7 C103.57,66.8881414 102.911859,66.23 102.1,66.23 L99.6,66.23 L99.6,71.43 L100.6,71.43 L100.6,69.15 L101.16,69.15 L102.47,71.43 L103.54,71.43 L102.23,69.14 C102.971426,69.0640343 103.538671,68.4452214 103.55,67.7 L103.57,67.7 Z M100.63,68.42 L100.63,67 L101.84,67 C102.240859,67.010838 102.560146,67.3389941 102.56,67.74 C102.554531,68.1337343 102.233772,68.450038 101.84,68.45 L101.84,68.45 L100.63,68.42 Z M101.43,64.01 C99.4832867,63.9697954 97.7043645,65.1072059 96.9239413,66.8910917 C96.1435181,68.6749776 96.5155608,70.7534027 97.8663356,72.1557995 C99.2171104,73.5581962 101.280128,74.0078909 103.092016,73.2948885 C104.903903,72.5818861 106.1072,70.8468521 106.14,68.9 L106.14,68.82 C106.151082,66.1949991 104.034972,64.0565209 101.41,64.04 L101.43,64.01 Z M101.43,72.43 C99.9640345,72.4340441 98.6403542,71.5535451 98.0774838,70.1999395 C97.5146134,68.846334 97.8236892,67.2868853 98.8602872,66.2502872 C99.8968853,65.2136892 101.456334,64.9046134 102.80994,65.4674838 C104.163545,66.0303542 105.044044,67.3540345 105.04,68.82 L105.04,68.82 C105.045613,70.7966034 103.456489,72.4080456 101.48,72.43 L101.41,72.43 L101.43,72.43 Z M103.57,67.7 C103.57,66.8881414 102.911859,66.23 102.1,66.23 L99.6,66.23 L99.6,71.43 L100.6,71.43 L100.6,69.15 L101.16,69.15 L102.47,71.43 L103.54,71.43 L102.23,69.14 C102.971426,69.0640343 103.538671,68.4452214 103.55,67.7 L103.57,67.7 Z M101.88,68.42 L100.63,68.42 L100.63,67 L101.84,67 C102.240859,67.010838 102.560146,67.3389941 102.56,67.74 C102.560148,68.1354848 102.245336,68.4591648 101.85,68.47 L101.85,68.47 L101.88,68.42 Z M103.57,67.7 C103.57,66.8881414 102.911859,66.23 102.1,66.23 L99.6,66.23 L99.6,71.43 L100.6,71.43 L100.6,69.15 L101.16,69.15 L102.47,71.43 L103.54,71.43 L102.23,69.14 C102.971426,69.0640343 103.538671,68.4452214 103.55,67.7 L103.57,67.7 Z M100.63,68.42 L100.63,67 L101.84,67 C102.240859,67.010838 102.560146,67.3389941 102.56,67.74 C102.554531,68.1337343 102.233772,68.450038 101.84,68.45 L101.84,68.45 L100.63,68.42 Z M103.57,67.7 C103.57,66.8881414 102.911859,66.23 102.1,66.23 L99.6,66.23 L99.6,71.43 L100.6,71.43 L100.6,69.15 L101.16,69.15 L102.47,71.43 L103.54,71.43 L102.23,69.14 C102.971426,69.0640343 103.538671,68.4452214 103.55,67.7 L103.57,67.7 Z M100.63,68.42 L100.63,67 L101.84,67 C102.240859,67.010838 102.560146,67.3389941 102.56,67.74 C102.554531,68.1337343 102.233772,68.450038 101.84,68.45 L101.84,68.45 L100.63,68.42 Z M103.57,67.7 C103.57,66.8881414 102.911859,66.23 102.1,66.23 L99.6,66.23 L99.6,71.43 L100.6,71.43 L100.6,69.15 L101.16,69.15 L102.47,71.43 L103.54,71.43 L102.23,69.14 C102.971426,69.0640343 103.538671,68.4452214 103.55,67.7 L103.57,67.7 Z M100.63,68.42 L100.63,67 L101.84,67 C102.240859,67.010838 102.560146,67.3389941 102.56,67.74 C102.554531,68.1337343 102.233772,68.450038 101.84,68.45 L101.84,68.45 L100.63,68.42 Z" id="Shape"></path>
                <path d="M279.21,75.17 L290.11,75.17 L290.11,68.38 L277.51,68.38 C273.850345,68.3765213 270.68975,70.9398563 269.93765,74.5213972 C269.185551,78.1029381 271.048075,81.7210941 274.4,83.19 L282.14,87.05 C283.97,87.96 283.6,89.62 281.61,89.62 L270.53,89.62 L270.53,86.2 L265.94,89.59 L261.34,92.99 L265.94,96.36 L270.53,99.76 L270.53,96.33 L283.75,96.5 C285.802776,96.5026539 287.77253,95.689736 289.225937,94.2400794 C290.679345,92.7904229 291.49735,90.8227762 291.5,88.77 L291.5,88.77 C291.726613,86.5350963 290.831561,84.3330441 289.11,82.89 L279.11,77.67 C278.3,77.24 278.41,75.26 279.32,75.26 L279.21,75.17 Z M315.92,68.46 L315.92,86.52 C316.041751,89.4239371 314.852213,92.2288958 312.68,94.16 C310.273746,96.1805016 307.1994,97.2290605 304.06,97.1 C301.059651,97.3008751 298.102516,96.3007736 295.84,94.32 C293.83178,92.1583759 292.804284,89.2640216 293,86.32 L293,68.46 L301.36,68.46 L301.36,87.14 C301.370843,88.8436802 302.746364,90.2236526 304.45,90.24 L304.45,90.24 C306.159804,90.234511 307.544511,88.849804 307.55,87.14 L307.55,68.46 L315.92,68.46 Z M333.82,96.36 C337.35166,96.3583928 340.434368,93.966379 341.313075,90.5457797 C342.191783,87.1251803 340.643626,83.5435574 337.55,81.84 C340.063599,80.0420022 341.181719,76.8621569 340.34661,73.8866625 C339.511501,70.911168 336.90208,68.7775027 333.82,68.55 L318.26,68.55 L318.26,96.45 L333.82,96.36 Z M326.58,84.84 L330.58,84.84 C332.19982,84.8399906 333.51449,86.1501894 333.52,87.77 L333.52,87.77 C333.52,89.2611688 332.311169,90.47 330.82,90.47 L326.6,90.47 L326.6,84.87 L326.58,84.84 Z M326.58,74.63 L330,74.63 C331.292355,74.6510564 332.337992,75.6878698 332.37,76.98 L332.37,76.98 C332.364652,78.2292119 331.359116,79.2436461 330.11,79.26 L326.59,79.26 L326.59,74.56 L326.58,74.63 Z" id="Shape"></path>
                <path d="M428.06,75.1 L428.06,80.83 C428.050016,84.8221242 424.926215,88.1126451 420.94,88.33 L420.94,96.48 L411.94,96.48 L411.94,88.3 C408.077523,87.9441074 405.119429,84.7088271 405.11,80.83 L405.11,68.39 L413.41,68.39 L413.41,79.52 C413.420947,80.9718478 414.598121,82.1445624 416.05,82.15 L417.26,82.15 C418.712509,82.15 419.89,80.9725089 419.89,79.52 L419.89,79.52 L419.89,73.65 L419.89,73.65 L419.89,73.53 C419.889995,70.7172484 422.167254,68.4355152 424.98,68.43 L432.09,68.43 L432.09,65 L436.68,68.39 L441.28,71.77 L436.68,75.16 L432.09,78.56 L432.09,75.13 L428.06,75.1 Z M388.42,96.38 L380,96.38 L380,78.65 C379.810692,75.6420244 380.977303,72.7071535 383.18,70.65 C385.716885,68.605794 388.928862,67.5886679 392.18,67.8 C395.9,67.8 398.643333,68.66 400.41,70.38 C402.19,72.1 403.07,74.75 403.07,78.33 L403.07,96.33 L394.67,96.33 L394.67,88.18 L388.42,88.18 L388.42,96.38 Z M394.67,82.21 L394.67,77.54 C394.670009,75.8152465 393.274745,74.4155104 391.55,74.41 L391.55,74.41 C389.823628,74.4154893 388.425489,75.8136276 388.42,77.54 L388.42,82.21 L394.67,82.21 Z M378,68.51 L378,88.58 C378.079782,90.9122034 377.111171,93.1576195 375.36,94.7 C373.460878,96.3397566 371.00661,97.1912372 368.5,97.08 L367.9,97.08 C365.315935,97.3908655 362.715142,96.6524133 360.68,95.03 C358.807719,96.6720723 356.319735,97.4297598 353.85,97.11 L352.47,97.11 C349.985329,97.2794924 347.540448,96.4187208 345.71,94.73 C344.0448,92.8682382 343.204283,90.4116205 343.38,87.92 L343.38,68.54 L351.75,68.54 L351.75,87.63 C351.760877,88.9840896 352.85591,90.0791233 354.21,90.09 L354.21,90.09 C354.864163,90.0926592 355.492446,89.8346558 355.955951,89.3730278 C356.419455,88.9113998 356.680005,88.2841689 356.68,87.63 L356.68,68.54 L364.6,68.54 L364.6,87.63 C364.6,88.9886205 365.70138,90.09 367.06,90.09 L367.06,90.09 C367.714163,90.0926592 368.342446,89.8346558 368.805951,89.3730278 C369.269455,88.9113998 369.530005,88.2841689 369.53,87.63 L369.53,68.54 L378,68.51 Z M425,92.31 C425.348689,92.3200498 425.690574,92.4089399 426,92.57 C426.327978,92.7517411 426.598259,93.0220224 426.78,93.35 C427.139757,93.9931069 427.139757,94.7768931 426.78,95.42 C426.607,95.7510708 426.338811,96.0227424 426.01,96.2 C425.36954,96.5697699 424.58046,96.5697699 423.94,96.2 C423.611189,96.0227424 423.343,95.7510708 423.17,95.42 C422.80023,94.7795398 422.80023,93.9904602 423.17,93.35 C423.354449,93.0206584 423.628336,92.750239 423.96,92.57 C424.269045,92.4079503 424.611162,92.3189998 424.96,92.31 L425,92.31 Z M425,92.65 C424.702729,92.660143 424.411825,92.7388582 424.15,92.88 C423.868998,93.0210272 423.641027,93.2489976 423.5,93.53 C423.190965,94.0652639 423.190965,94.7247361 423.5,95.26 C423.650842,95.527064 423.867779,95.7508875 424.13,95.91 C424.668358,96.2208211 425.331642,96.2208211 425.87,95.91 C426.13952,95.7569247 426.361121,95.5318612 426.51,95.26 C426.819035,94.7247361 426.819035,94.0652639 426.51,93.53 C426.361121,93.2581388 426.13952,93.0330753 425.87,92.88 C425.607272,92.7411373 425.316902,92.6625664 425.02,92.65 L425,92.65 Z M424.09,95.58 L424.09,93.35 L424.85,93.35 C425.042169,93.3199978 425.237831,93.3199978 425.43,93.35 C425.543445,93.3933097 425.641079,93.4700223 425.71,93.57 C425.864921,93.8040334 425.840158,94.1135729 425.65,94.32 C425.528216,94.4507308 425.358633,94.5265019 425.18,94.53 C425.24893,94.5603638 425.312963,94.6008058 425.37,94.65 C425.493272,94.78384 425.600652,94.9314875 425.69,95.09 L425.97,95.53 L425.53,95.53 L425.34,95.17 C425.239904,94.9787298 425.111827,94.8034666 424.96,94.65 C424.864,94.61 424.756,94.61 424.66,94.65 L424.44,94.65 L424.44,95.6 L424.09,95.58 Z M424.46,94.32 L424.88,94.32 C425.032653,94.3415136 425.188055,94.3097268 425.32,94.23 C425.399221,94.1727248 425.441295,94.0771019 425.43,93.98 C425.440115,93.9237847 425.440115,93.8662153 425.43,93.81 C425.383632,93.7614697 425.329572,93.7209249 425.27,93.69 C425.150829,93.6700465 425.029171,93.6700465 424.91,93.69 L424.49,93.69 L424.49,94.35 L424.46,94.32 Z" id="Shape"></path>
                <path d="M427.3,23.53 L427.3,23.53 C427.3,30.87 423.15,34.9 415.42,34.9 C407.69,34.9 403.67,30.9 403.67,23.65 L403.67,10.43 L412.19,10.43 L412.19,23.15 C412.19,26.67 413.13,28.23 415.44,28.23 C417.75,28.23 418.84,26.76 418.84,22.81 L418.84,10.49 L427.36,10.49 L427.3,23.53 Z" id="Shape"></path>
                <polygon id="Shape" points="305.09 16.6 305.09 16.6 305.09 34.46 296.47 34.46 296.47 16.6 289.24 16.6 289.24 10.49 312.31 10.49 312.31 16.6"></polygon>
                <path d="M326.75,16 L326.75,16 L324.67,24.14 L329,24.14 L326.75,16 Z M332.35,34.42 L332.35,34.42 L330.89,30 L322.78,30 L321.31,34.41 L312.75,34.41 L321.43,10.41 L332.34,10.41 L340.92,34.41 L332.35,34.42 Z" id="Shape"></path>
                <path d="M455,32.55 L455,32.55 L452.42,26.39 C450.862596,27.7376219 448.879322,28.4919743 446.82,28.52 C443.659091,28.4543845 441.148625,25.8409941 441.21,22.68 C441.21,22.57 441.21,22.46 441.21,22.36 C441.21,18.95 443.21,16.04 446.68,16.04 C448.797136,16.1558018 450.812939,16.9839724 452.4,18.39 L454.92,12.39 C451.953501,10.8293878 448.641453,10.0417876 445.29,10.1 C438.06,10.1 432.59,15.02 432.59,22.36 C432.59,30.09 437.9,34.95 445.59,34.95 C448.892264,35.0721887 452.159638,34.2388522 455,32.55 Z" id="Shape"></path>
                <polygon id="Shape" points="474.32 34.46 474.32 34.46 468.88 25.72 468.88 34.46 460.55 34.46 460.55 10.49 468.88 10.49 468.88 19.29 473.98 10.49 483.28 10.49 475.44 22.31 484.29 34.46"></polygon>
                <path d="M274.85,34.9 L274.85,34.9 C280.29,34.9 285.94,33 285.94,26.83 C285.94,21.36 281.24,19.83 277.55,19.05 C274.81,18.45 273.46,18.16 273.46,17.05 C273.46,15.58 275.37,15.48 276.32,15.48 C278.761307,15.5818929 281.126136,16.360936 283.15,17.73 L285.38,12.29 C282.295696,10.9082148 278.968476,10.1503292 275.59,10.06 C269.99,10.06 265.59,12.75 265.59,18.23 C265.59,22.63 269,24.44 272.76,25.33 C275.33,26.01 277,26.18 277,27.46 C277,28.74 275.72,29.15 274.49,29.15 C271.928283,29.1266578 269.454113,28.2147493 267.49,26.57 L264.75,31.84 C267.761549,33.7902951 271.262428,34.8509571 274.85,34.9 L274.85,34.9 Z" id="Shape"></path>
                <path d="M497,34.9 L497,34.9 C502.43,34.9 508,33 508,26.83 C508,21.36 503.3,19.83 499.66,19.05 C496.91,18.45 495.58,18.16 495.58,17.05 C495.58,15.58 497.43,15.48 498.42,15.48 C500.843308,15.5786774 503.189713,16.3585018 505.19,17.73 L507.44,12.29 C504.372861,10.899071 501.056827,10.1406346 497.69,10.06 C492.04,10.06 487.62,12.75 487.62,18.23 C487.62,22.63 491.04,24.44 494.78,25.33 C497.43,26.01 499.04,26.18 499.04,27.46 C499.04,28.74 497.81,29.15 496.57,29.15 C494.009491,29.1200836 491.53746,28.2089634 489.57,26.57 L486.9,31.84 C489.906879,33.8003414 493.410737,34.8619065 497,34.9 L497,34.9 Z" id="Shape"></path>
                <path d="M511.76,13.63 L511.76,13.63 C511.767911,12.6867209 512.150924,11.7853766 512.82448,11.1249531 C513.498037,10.4645296 514.406748,10.099338 515.35,10.11 L515.35,10.11 C517.262544,10.1044566 518.818985,11.6474796 518.83,13.56 L518.83,13.63 C518.899582,14.9377963 518.241446,16.1771556 517.11904,16.8519709 C515.996633,17.5267863 514.593367,17.5267863 513.47096,16.8519709 C512.348554,16.1771556 511.690418,14.9377963 511.76,13.63 L511.76,13.63 Z M518.31,13.63 L518.31,13.63 C518.350817,12.852656 518.080632,12.0910202 517.559071,11.5131758 C517.037511,10.9353315 516.307448,10.5887797 515.53,10.55 L515.37,10.55 C513.682052,10.5220716 512.288262,11.8622547 512.25,13.55 L512.25,13.62 L512.25,13.62 C512.238806,15.2929123 513.577274,16.662612 515.25,16.69 L515.25,16.69 C516.85157,16.7350095 518.190275,15.4810891 518.25,13.88 C518.259971,13.7769072 518.259971,13.6730928 518.25,13.57 L518.31,13.63 Z M513.91,11.72 L515.54,11.72 C515.927535,11.7182833 516.301834,11.8608736 516.59,12.12 C516.766315,12.3028751 516.866424,12.545997 516.87,12.8 L516.87,12.8 C516.861618,13.3608338 516.428986,13.8237501 515.87,13.87 L516.98,15.34 L516.38,15.34 L515.31,13.87 L514.31,13.87 L514.31,15.34 L513.81,15.34 L513.91,11.72 Z M515.46,13.52 L515.46,13.52 C515.98,13.52 516.31,13.3 516.31,12.84 C516.31,12.38 516.04,12.24 515.46,12.24 L514.41,12.24 L514.41,13.52 L515.46,13.52 Z" id="Shape"></path>
                <path d="M363.59,25.5 L363.59,25.5 C366.363528,24.4081717 368.168753,21.7102972 368.12,18.73 C368.12,13.08 364.26,10.49 358.77,10.49 L345.83,10.49 L345.83,34.4 L354.19,34.4 L354.19,27.35 L356.26,27.35 L360.52,34.4 L369.52,34.4 L363.59,25.5 Z M359.73,18.73 L359.73,18.73 C359.809755,20.0415638 358.811525,21.1696084 357.5,21.25 C357.366859,21.2601155 357.233141,21.2601155 357.1,21.25 L354.16,21.25 L354.16,16.25 L357.1,16.25 C357.705038,16.1737815 358.315488,16.3420352 358.796041,16.7174674 C359.276594,17.0928996 359.587556,17.6444981 359.66,18.25 C359.674974,18.4096496 359.674974,18.5703504 359.66,18.73 L359.73,18.73 Z" id="Shape"></path>
                <path d="M392.69,22.19 L392.69,22.19 C395.77,21.52 397.35,19.79 397.35,16.88 C397.35,12.78 394.26,10.49 388.89,10.49 L375.2,10.49 L375.2,34.4 L388.3,34.4 C394.63,34.4 397.82,32.15 397.82,27.63 C397.871315,26.2400188 397.367885,24.8866662 396.420635,23.8681383 C395.473386,22.8496104 394.160047,22.2494875 392.77,22.2 L392.69,22.19 Z M383.47,15.7 L386.47,15.7 C388.03,15.7 389.04,16.37 389.04,17.77 L389.04,17.77 C389.04,19.11 388.09,19.89 386.4,19.89 L383.46,19.89 L383.47,15.7 Z M389.23,27 L389.23,27 C389.23,28.47 388.17,29.23 386.49,29.23 L383.49,29.23 L383.49,24.83 L386.56,24.83 C388.19,24.83 389.25,25.56 389.25,27.02 L389.23,27 Z" id="Shape"></path>
                <path d="M183.43,3.34 C212.407073,3.3565699 235.884716,26.859584 235.869989,55.8366578 C235.855263,84.8137315 212.353742,108.29287 183.376667,108.279986 C154.399593,108.267103 130.91896,84.7670754 130.93,55.79 C130.935303,41.872357 136.469836,28.5269976 146.315784,18.6904268 C156.161731,8.85385606 169.512358,3.3320415 183.43,3.34 L183.43,3.34 L183.43,3.34 Z M183.43,0.93 C152.956245,0.949325632 128.26534,25.663729 128.275003,56.1374889 C128.284666,86.6112488 152.991239,111.309989 183.465,111.309989 C213.938761,111.309989 238.645334,86.6112488 238.654997,56.1374889 C238.66466,25.663729 213.973755,0.949325632 183.5,0.93 L183.43,0.93 Z" id="Shape"></path>
                <path d="M183.43,24 C165.839742,23.9834393 151.566594,38.2297328 151.550028,55.8199906 C151.533462,73.4102484 165.779752,87.6834006 183.370009,87.6999718 C200.960267,87.7165429 215.233424,73.4702578 215.25,55.88 L215.25,55.83 C215.250001,38.2546809 201.005318,24.0055216 183.43,24 L183.43,24 Z M183.43,85.29 C167.159691,85.29 153.97,72.1003087 153.97,55.83 C153.97,39.5596913 167.159691,26.37 183.43,26.37 C199.700309,26.37 212.89,39.5596913 212.89,55.83 L212.89,55.83 C212.89,63.6432778 209.786187,71.1365441 204.261366,76.6613658 C198.736544,82.1861875 191.243278,85.29 183.43,85.29 L183.43,85.29 L183.43,85.29 Z" id="Shape"></path>
                <path d="M142.87,56.42 C142.87,57.1103559 142.310356,57.67 141.62,57.67 C140.929644,57.67 140.37,57.1103559 140.37,56.42 C140.37,55.7296441 140.929644,55.17 141.62,55.17 C142.310356,55.17 142.87,55.7296441 142.87,56.42 Z" id="Shape"></path>
                <path d="M227,56.42 C227,57.1103559 226.440356,57.67 225.75,57.67 C225.059644,57.67 224.5,57.1103559 224.5,56.42 C224.5,55.7296441 225.059644,55.17 225.75,55.17 C226.440356,55.17 227,55.7296441 227,56.42 Z" id="Shape"></path>
                <path d="M196.06,39.54 C196.06,38.71 195.15,37.54 194.77,36.29 C194.77,36.29 193.3,36.29 191.83,36.45 C190.939634,36.5019831 190.082661,36.8073014 189.36,37.33 C189.067122,37.6750125 188.731024,37.9808624 188.36,38.24 C188.046786,38.592863 187.712863,38.9267858 187.36,39.24 C187.380003,39.5062915 187.380003,39.7737085 187.36,40.04 C187.170921,40.8026811 187.037239,41.5780362 186.96,42.36 C187.052392,42.8078068 187.275047,43.218328 187.6,43.54 C188.6,43.69 190.54,43.72 190.54,43.72 C190.462291,44.0644025 190.348322,44.3996056 190.2,44.72 C189.98,45.21 188.57,45.41 188.57,45.41 C188.57,45.41 189.23,46.55 189.46,47.07 C189.683288,47.4682359 189.994525,47.8102547 190.37,48.07 C191.54,50.12 192.19,51.27 192.19,52.38 C192.12119,53.2203682 191.879469,54.0374518 191.48,54.78 C191.372746,55.6716545 191.027314,56.5179619 190.48,57.23 C190.083939,57.7798834 189.723212,58.3543738 189.4,58.95 C189.15,59.45 188.71,60.17 188.4,60.67 C188.095149,61.1497398 187.705454,61.5699324 187.25,61.91 C186.96,62.12 186.97,62.28 186.97,62.28 C186.97,62.28 187.97,63.53 187.97,64.1 C187.97,64.41 187.84,64.59 187.84,65.1 C187.777169,65.5723078 187.919074,66.0489633 188.23,66.41 C188.73,66.31 188.88,66.53 189.23,66.72 C189.75,67 190.69,67.57 190.94,67.72 L193.88,69.83 C194.38,70.18 194.98,70.17 195.5,70.48 C196.02,70.79 196.7,70.68 196.7,71.62 C196.381362,72.8461249 195.801454,73.9888861 195,74.97 C194.78693,75.2327226 194.496524,75.4216614 194.17,75.51 C193.28,76.51 193.03,76.51 193.03,76.51 C192.627405,76.5308038 192.226572,76.5775677 191.83,76.65 C191.164271,76.7000078 190.495729,76.7000078 189.83,76.65 C189.293756,76.74007 188.746244,76.74007 188.21,76.65 C187.8,76.65 185.94,76.74 184.72,76.76 C184.143922,76.8105069 183.563484,76.7700113 183,76.64 C182.35,76.54 181.9,76.24 181.62,76.23 C181.117403,76.2812375 180.610202,76.1984292 180.15,75.99 C179.478746,75.6661831 178.7594,75.4534189 178.02,75.36 C177.17,75.23 176.96,75.2 176.55,74.55 C175.228079,72.3079377 173.758153,70.1565003 172.15,68.11 C170.588397,66.2972911 169.245809,64.3069041 168.15,62.18 C167.760875,60.6883722 167.529604,59.1599764 167.46,57.62 L167.46,53 C167.465173,52.1711604 167.624553,51.3505219 167.93,50.58 C167.98139,49.9730595 168.109062,49.3750146 168.31,48.8 C168.272038,48.4249483 168.316404,48.0461305 168.44,47.69 C169.587721,46.3854871 170.834786,45.1718555 172.17,44.06 C173.35,43.19 175.53,43.57 177.17,43.06 C176.49731,42.3193397 175.540504,41.9009644 174.54,41.91 C173.68,41.91 173.29,42.19 173.22,42.02 C173.15,41.85 173.9,41.62 174.14,41.31 C174.38,41 174.94,40.9 175.53,40.5 C176.545334,40.7220263 177.547001,41.002493 178.53,41.34 C179.107387,41.6208498 179.750595,41.7384253 180.39,41.68 C184.95,37.68 188.82,34.78 188.82,34.78 C190.63,34.38 194.21,34.07 194.21,34.07 C194.572889,34.2331528 194.962726,34.3280696 195.36,34.35 C196.05,34.35 196.11,34.7 196.11,34.7 C196.43,35.29 196.69,35.34 196.88,35.61 C197.27,36.32 198.35,37.08 198.35,37.99 C198.271576,39.1462826 198.04988,40.2883531 197.69,41.39 C197.166252,41.4635085 196.638719,41.5069132 196.11,41.52 L194.87,41.52 C194.31,41.52 194.3,41.3 194.3,41.3 C194.978347,40.8127986 195.572799,40.2183471 196.06,39.54 L196.06,39.54 Z M185.78,46 C184.68,46.34 184.5,47.47 183.09,47.47 C181.68,47.47 180.92,47.47 180.77,46.84 C180.714997,46.3835728 180.448226,45.9797113 180.05,45.75 C173.83,45.75 171.39,46.75 170.33,50.16 C170.370478,50.5970256 170.329794,51.0377686 170.21,51.46 C170.010495,52.7642967 169.900239,54.0806887 169.88,55.4 L169.88,61.1 C169.88,61.1 174.28,67.92 176.81,70.98 C177.46764,72.1919999 178.590576,73.0838495 179.92,73.45 C181.49,73.68 182.86,73.64 184.8,73.83 C187.211147,74.1747929 189.666468,73.6539672 191.73,72.36 C191.726757,72.1801365 191.85335,72.0240045 192.03,71.99 L190.92,71.14 C190.403321,70.6945482 189.847766,70.2962891 189.26,69.95 C188.88,69.76 188.58,69.73 188.38,69.35 C188.153148,68.9538797 187.745091,68.6955682 187.29,68.66 C186.94,68.66 186.41,68.89 186.43,68.44 C186.45,67.99 186.43,67.06 186.43,66.44 C186.43,65.82 186.6,64.79 186.29,64.44 C185.98,64.09 185.72,64.08 185.62,63.53 C185.431829,62.8318974 185.404476,62.1002034 185.54,61.39 C185.996122,60.7447291 186.419976,60.0772433 186.81,59.39 C187.13,58.76 189.86,55.59 189.86,53.12 C189.86,50.65 186.88,47.41 185.78,46 Z" id="Shape"></path>
                <path d="M176.62,67.86 C176.658908,67.8013445 176.724613,67.7660819 176.795,67.7660819 C176.865387,67.7660819 176.931092,67.8013445 176.97,67.86 C177.050602,67.9576369 177.149012,68.0390795 177.26,68.1 C177.26,68.1 177.35,67.66 176.51,66.63 C176.35121,66.4119766 176.210731,66.1811894 176.09,65.94 C175.94,65.64 175.71,65.31 175.41,64.82 C175.129029,64.4071562 174.947612,63.9347861 174.88,63.44 C174.610192,62.6214471 174.275807,61.8256123 173.88,61.06 C173.851219,60.8241975 173.807802,60.590413 173.75,60.36 C173.552286,59.7088136 173.424893,59.0383223 173.37,58.36 C173.37,57.62 173.44,56.65 173.44,55.73 C173.38979,55.0820977 173.42002,54.4304708 173.53,53.79 C173.66,53.5 173.64,52.79 173.74,52.64 C173.84,52.49 174.53,51.64 174.53,51.64 C174.848792,51.607555 175.163633,51.543917 175.47,51.45 C176.802917,51.0537734 178.168219,50.776028 179.55,50.62 C180.706848,50.6739749 181.859137,50.8008937 183,51 C183.545957,51.1236869 184.04959,51.3893015 184.46,51.77 C184.756953,52.0078296 185.067477,52.2282011 185.39,52.43 C185.429916,52.6032952 185.393498,52.7853875 185.29,52.93 C185.128254,53.1914578 185.003724,53.4741754 184.92,53.77 C184.92,53.77 184.35,54.97 183.92,55.71 C183.596165,56.2495181 183.340863,56.8273081 183.16,57.43 C183.16,57.43 182.76,58.18 182.39,59.01 C182.02,59.84 181.88,60.36 181.63,60.86 C181.480072,61.4979765 181.480072,62.1620235 181.63,62.8 C181.668477,63.3308117 181.772604,63.8548069 181.94,64.36 C182.420934,66.278593 183.108276,68.1394465 183.99,69.91 C183.84,69.99 183.66,69.99 183.51,69.91 C183,69.73 183.04,69.5 182.69,69.26 C182.274928,69.024089 181.913849,68.7038861 181.63,68.32 C181.09,67.76 180.95,67.19 180.63,66.85 C180.561681,66.5043277 180.450838,66.1684408 180.3,65.85 C180.05,65.21 179.25,63.92 178.92,63.29 C178.59,62.66 177.98,61.6 177.54,60.84 C177.1806,60.3305943 177.010786,59.7114827 177.06,59.09 C177.110014,58.3141385 177.110014,57.5358615 177.06,56.76 C177.040072,56.2963492 177.100981,55.8327672 177.24,55.39 C177.38,55.01 177.24,54.3 178.03,54.14 C178.363033,54.119998 178.696967,54.119998 179.03,54.14 C179.406068,54.1700218 179.783932,54.1700218 180.16,54.14 C180.16,54.14 181.32,54.7 181.26,55.14 C181.150323,55.6220631 181.09995,56.1157199 181.11,56.61 C181.087746,56.8342366 181.030379,57.0535808 180.94,57.26 C180.79,57.59 180.03,59.09 180.03,59.09 L180.03,58.09 C179.993714,57.6789348 179.670563,57.3515873 179.26,57.31 C178.89,57.31 178.48,57.44 178.26,58.41 C178.26,58.41 178.16,58.56 178.41,59.53 C178.66,60.5 179.01,61.24 179.88,61.24 C180.75,61.24 180.88,60.35 180.94,59.97 C180.997572,59.585765 181.119265,59.213927 181.3,58.87 C181.42,58.62 181.82,57.72 182.07,57.19 C182.39375,56.5621659 182.616485,55.8872119 182.73,55.19 C182.73,54.09 181.83,52.4 180.63,52.4 C179.739715,52.3466154 178.846246,52.4037169 177.97,52.57 C177.25,52.76 176.43,52.95 176.11,53.02 C175.79,53.09 175.72,53.39 175.59,54.25 C175.458632,54.8595539 175.371736,55.4778491 175.33,56.1 C175.350394,56.4330214 175.350394,56.7669786 175.33,57.1 C175.209201,57.5167644 175.1387,57.946485 175.12,58.38 C175.117403,58.968302 175.27653,59.5460038 175.58,60.05 C175.67933,60.474976 175.874273,60.8717017 176.15,61.21 C176.423299,61.6799493 176.657424,62.1716115 176.85,62.68 C177.099686,63.2704173 177.436793,63.8199023 177.85,64.31 C178.310593,65.3685161 178.883902,66.3743213 179.56,67.31 C179.7,67.55 180.11,68.31 180.44,68.78 C180.780864,69.2807563 181.207402,69.7174491 181.7,70.07 C181.955931,70.3254074 182.19636,70.5958901 182.42,70.88 C183.433618,71.6299937 184.620382,72.111579 185.87,72.28 C186.97,72.28 187.34,71.69 186.87,71.28 C186.250757,70.7927638 185.751324,70.1701825 185.41,69.46 C184.97,68.56 184.7,67.46 184.47,66.99 C184.139536,66.3563412 183.887673,65.6847056 183.72,64.99 C183.448997,64.0873336 183.300996,63.1522357 183.28,62.21 C183.231876,61.2292916 183.498139,60.2588352 184.04,59.44 C184.470155,58.8625511 184.807548,58.2215033 185.04,57.54 C185.369269,57.1700194 185.599733,56.7228509 185.71,56.24 C186.761741,55.1759269 187.531621,53.8664438 187.95,52.43 C187.95,51.9 187.51,51.85 187.34,51.43 C187.17,51.01 186.42,50.64 186.23,50.31 C186.04,49.98 185.51,49.01 184.76,49.01 C184.01,49.01 184.33,49.68 183.38,49.68 C181.690602,49.6695256 180.019442,49.329859 178.46,48.68 C178.124437,48.6244806 177.780258,48.6554567 177.46,48.77 C176.469461,48.9535268 175.466747,49.0638253 174.46,49.1 C173.34,49.21 172.61,49.71 172.46,50.81 C172.136173,52.286567 171.912332,53.7832988 171.79,55.29 L171.79,59.59 C171.987158,60.920034 172.460653,62.1940417 173.18,63.33 C173.18,63.33 173.8,64.24 174.84,65.62 C175.378228,66.4088439 175.973132,67.1574864 176.62,67.86 L176.62,67.86 Z" id="Shape"></path>
                <path d="M144.36,36 L143.3,33.63 C140.702363,34.5800902 138.952198,37.0247659 138.89,39.79 C138.928465,43.2671249 141.772773,46.0577669 145.25,46.03 L145.37,46.03 C148.819871,45.933638 151.578407,43.130966 151.62,39.68 C151.639736,38.7921509 151.451378,37.9120077 151.07,37.11 L148.78,37.95 C148.979169,38.5473912 149.090334,39.1705893 149.11,39.8 C149.051108,41.7407638 147.471548,43.2894385 145.53,43.31 C143.416764,43.354157 141.633919,41.7465302 141.46,39.64 C141.566308,37.9380439 142.724826,36.483904 144.36,36 L144.36,36 Z" id="Shape"></path>
                <polygon id="Shape" points="147.43 24.71 145.54 26.66 154.34 35.15 156.21 33.19 153 30.09 156.9 26.31 160.17 29.33 161.59 27.55 152.97 19.1 151.29 20.67 155.3 24.75 151.45 28.73"></polygon>
                <polygon id="Shape" points="162.14 13.12 160.11 14.21 165.82 24.98 167.88 23.88"></polygon>
                <path d="M174,21.72 L171.62,22.12 L169.24,10.2 C169.24,10.2 174.96,9.1 175.57,9.1 C176.684924,9.04296455 177.776509,9.43321985 178.602564,10.1841793 C179.42862,10.9351387 179.920834,11.9847017 179.97,13.1 C179.974991,13.1966022 179.974991,13.2933978 179.97,13.39 C179.789666,15.4750931 178.168635,17.1462589 176.09,17.39 L173.24,18.03 L174,21.72 Z M174.38,11.67 L172.46,12.02 L173.21,15.6 L175.21,15.2 C176.67,14.93 177.21,14.25 177.21,13.35 C177.21,12.45 176.66,11.23 174.39,11.67 L174.38,11.67 Z" id="Shape"></path>
                <path d="M197.92,15.4 C197.949424,17.0195999 197.333447,18.5843956 196.207894,19.7493424 C195.082342,20.9142893 193.539654,21.5837121 191.92,21.61 L191.76,21.61 C187.946436,21.7006506 184.762407,18.7211823 184.6,14.91 C184.510299,11.5464759 187.15687,8.74343534 190.52,8.64 L190.83,8.64 C194.63902,8.58879462 197.789737,11.5928634 197.92,15.4 L197.92,15.4 Z M191.15,11.2 C189.11596,11.2219823 187.483343,12.8859094 187.5,14.92 C187.505258,14.986563 187.505258,15.053437 187.5,15.12 C187.543565,17.2978348 189.32173,19.0404357 191.5,19.04 L191.5,19.04 C193.548416,18.9060104 195.108386,17.1499302 195,15.1 C194.948622,12.9869898 193.262171,11.2786368 191.15,11.2 L191.15,11.2 Z" id="Shape"></path>
                <polygon id="Shape" points="212.65 17.57 203.8 12.3 202.61 14.07 206.22 16.22 201.01 24.78 203.09 26 208.41 17.44 211.42 19.36"></polygon>
                <polygon id="Shape" points="219.36 23.97 217.7 22.06 208.5 30.17 214.02 36.67 215.96 35.22 211.7 30.4"></polygon>
                <polygon id="Shape" points="228.17 43.85 230.17 43.12 226.88 34.76 215.4 39.01 218.75 47.58 220.86 46.83 218.23 40.55 220.33 39.73 222.25 44.62 224.38 43.88 222.47 39.02 225.68 37.76"></polygon>
                <polygon id="Shape" points="141.02 69.95 145.15 68.39 143.08 71.19 146.47 71.96 142.36 73.51 142.9 74.95 149.23 72.55 148.67 71.02 145.38 70.34 147.41 67.7 146.82 66.19 140.51 68.57"></polygon>
                <polygon id="Shape" points="152.68 80.55 153.77 79.78 150.89 75.56 145.31 79.36 148.2 83.65 149.3 82.9 147.26 79.84 148.39 79.05 150.19 81.68 151.32 80.93 149.53 78.3 150.63 77.54"></polygon>
                <polygon id="Shape" points="156.98 83.16 155.71 82.02 155.12 86 151.05 86.98 152.33 88.13 154.97 87.44 154.55 90.17 155.88 91.34 156.46 87.17 160.36 86.25 159.07 85.1 156.57 85.76"></polygon>
                <polygon id="Shape" points="164.35 89.09 163.09 88.3 159.5 94.06 160.79 94.85"></polygon>
                <path d="M171.62,94.5 L172.92,93.73 C172.234825,92.485038 170.940571,91.6970658 169.52,91.66 C167.559389,91.5716345 165.898366,93.0893892 165.81,95.05 C165.721635,97.0106108 167.239389,98.6716344 169.2,98.76 C169.346496,98.7700013 169.493504,98.7700013 169.64,98.76 C170.247727,98.7596705 170.843339,98.5899904 171.36,98.27 L170.8,97 C170.392218,97.2018115 169.9449,97.3110799 169.49,97.32 C168.416792,97.2770376 167.56914,96.3940671 167.57,95.32 L167.57,95.32 C167.552128,94.1498042 168.461435,93.1742855 169.63,93.11 C170.503733,93.1570801 171.275072,93.6958543 171.62,94.5 L171.62,94.5 Z" id="Shape"></path>
                <path d="M182.09,101.12 L180.55,100.94 L180.11,99.34 L177.26,99.01 L176.48,100.47 L175.02,100.27 L178.69,93.82 L180.16,94.01 L182.09,101.12 Z M179.16,95.7 L178,97.76 L179.77,97.98 L179.16,95.7 Z" id="Shape"></path>
                <polygon id="Shape" points="187.26 94.1 185.85 94.25 186.53 100.99 188.03 100.83 187.6 96.58 191.27 100.52 192.55 100.42 191.86 93.63 190.38 93.78 190.8 97.92"></polygon>
                <path d="M202.62,91.88 L203.03,90.42 C202.680428,90.2781557 202.307238,90.2035178 201.93,90.2 C199.906893,90.1437244 198.216005,91.7275376 198.14,93.75 C198.078224,95.6795816 199.590531,97.2947977 201.52,97.36 L201.52,97.36 C203.150345,97.2987004 204.612934,96.3403202 205.32,94.87 L204.1,92.16 L201.44,93.34 L201.96,94.54 L203.32,93.93 L203.72,94.79 C203.250878,95.4397333 202.519107,95.8495253 201.72,95.91 C200.539575,95.8507081 199.621404,94.8615676 199.65,93.68 C199.677306,92.5556273 200.605421,91.6632094 201.73,91.68 L201.73,91.68 C202.036107,91.6939053 202.337374,91.7616058 202.62,91.88 L202.62,91.88 Z" id="Shape"></path>
                <path d="M209.88,85.09 C211.05239,85.1707321 211.988565,86.098396 212.08,87.27 C212.08987,87.721266 211.960696,88.1646469 211.71,88.54 L214.5,89.42 L213.12,90.53 L210.65,89.7 L209.76,90.4 L211.07,92.12 L209.88,93.06 L205.73,87.68 L208.23,85.68 C208.698351,85.3040014 209.279427,85.0962227 209.88,85.09 Z M209.04,86.83 L207.75,87.83 L208.92,89.3 L210.13,88.3 C210.409979,88.1021413 210.58909,87.7914395 210.62,87.45 C210.623106,86.9379683 210.238935,86.5063151 209.73,86.45 C209.448949,86.484957 209.189846,86.6198326 209,86.83 L209.04,86.83 Z" id="Shape"></path>
                <polygon id="Shape" points="213.62 80.64 212.64 81.75 217.78 86.17 218.77 85.03"></polygon>
                <polygon id="Shape" points="216.72 76.19 215.96 77.47 221.81 80.92 224.25 76.69 223.08 76.01 221.39 78.92"></polygon>
                <polygon id="Shape" points="220.07 68.96 219.6 70.39 226.01 72.52 227.53 67.86 226.25 67.45 225.19 70.65"></polygon>
                <path d="M356.58,171.46 L358.37,157.54 C358.61,155.8 358.83,154.06 359.09,152.32 C359.09,152.12 359.37,151.77 359.53,151.77 L367.08,151.77 C366.82,153.77 366.57,155.61 366.32,157.46 C365.67,162.25 365.01,167.04 364.37,171.82 C363.92,175.1 363.45,178.37 363.03,181.66 C363.03,182.21 362.72,182.29 362.27,182.29 C360.03,182.29 357.79,182.29 355.55,182.21 C355.238373,182.169397 354.958561,181.998603 354.78,181.74 C351.84,176.64 348.78,171.56 345.85,166.42 C345.122009,164.927497 344.487453,163.391204 343.95,161.82 C343.84,163.29 343.81,164.76 343.65,166.14 C343.13,170.27 342.56,174.38 342.02,178.49 C341.87,179.49 341.75,180.58 341.58,181.6 C341.536717,181.848254 341.359694,182.052216 341.12,182.13 L333.54,182.13 C335.01,171.85 336.3,161.85 337.68,151.72 C337.933333,151.72 338.183333,151.72 338.43,151.72 L344.88,151.72 C345.333555,151.669444 345.771222,151.904192 345.98,152.31 C348.92,157.31 351.85,162.31 354.79,167.31 C355.471176,168.655331 356.068971,170.04128 356.58,171.46 L356.58,171.46 Z" id="Shape"></path>
                <path d="M297.69,167.58 C297.95,161.44 301.69,156.19 307.96,152.72 C312.533948,150.064619 318.065379,149.626959 323,151.53 C329.04256,153.834291 332.695388,160.003879 331.81,166.41 C330.68,175.58 322.36,182.19 314.18,182.84 C308.31,183.32 303.33,181.37 299.84,176.43 C298.36,174.23 297.67,171.68 297.69,167.58 Z M313.62,175.74 C314.210991,175.706821 314.799026,175.633316 315.38,175.52 C319.185895,174.661946 322.117744,171.623985 322.84,167.79 C323.438455,165.762231 323.303924,163.588501 322.46,161.65 C321.615658,159.895248 320.108624,158.547937 318.270627,157.904638 C316.43263,157.261339 314.414331,157.374784 312.66,158.22 C312.41,158.34 312.16,158.48 311.93,158.62 C308.1302,160.72957 305.978234,164.922941 306.48,169.24 C306.534833,171.022549 307.295982,172.710197 308.595804,173.931241 C309.895625,175.152286 311.627506,175.806574 313.41,175.75 L313.62,175.74 Z" id="Shape"></path>
                <path d="M295.91,153.34 L292.36,159.46 L291.56,158.78 C289.965626,157.300832 287.7743,156.64676 285.63,157.01 C284.973349,157.169632 284.367844,157.493026 283.87,157.95 C283.407469,158.312614 283.108428,158.844532 283.038995,159.428144 C282.969562,160.011756 283.135457,160.598988 283.5,161.06 C283.739489,161.357257 284.048626,161.590827 284.4,161.74 C285.54,162.29 286.79,162.6 287.96,163.07 C289.13,163.54 290.45,164.07 291.64,164.63 C293.535075,165.578517 294.736982,167.510844 294.75,169.63 C295.357125,176.470956 290.309935,182.511476 283.47,183.13 L282.8,183.13 C278.565093,183.620108 274.344393,182.103467 271.39,179.03 C271.204324,178.90778 271.075433,178.716188 271.0322,178.498141 C270.988966,178.280095 271.035004,178.053819 271.16,177.87 C271.201676,177.8065 271.252183,177.749259 271.31,177.7 C272.78,175.88 274.12,174.01 275.56,172.12 C276.25,172.87 276.85,173.58 277.56,174.27 C278.95394,175.76454 280.939431,176.563133 282.98,176.45 C284.896667,176.381757 286.472533,174.916627 286.68,173.01 C286.909753,171.97509 286.395893,170.918361 285.44,170.46 C284.44,169.97 283.35,169.59 282.29,169.19 C281.23,168.79 280.21,168.49 279.21,168.02 C275.61,166.35 274.39,163.79 275.11,159.87 C276.301703,153.581294 282.264857,149.369927 288.59,150.35 C290.850554,150.545661 293.033031,151.272011 294.96,152.47 L295.91,153.34 Z" id="Shape"></path>
                <path d="M408.83,161.56 L407.99,160.56 C405.366617,157.382862 400.74716,156.744047 397.36,159.09 C393.868059,161.606194 392.16441,165.927835 393,170.15 C393.906119,173.812103 397.606177,176.049139 401.27,175.15 C401.544194,175.076988 401.814537,174.990211 402.08,174.89 C403.506447,174.303008 404.864503,173.561946 406.13,172.68 C406.530828,172.388702 406.914781,172.074863 407.28,171.74 C407.12,172.87 407,173.79 406.87,174.67 C406.59,176.46 406.28,178.24 406.03,180.03 C406.002576,180.634772 405.604766,181.159881 405.03,181.35 C401.189364,182.999763 396.882616,183.209242 392.9,181.94 C388.412744,180.505667 385.156326,176.61043 384.54,171.94 C382.973277,163.021697 387.976055,154.251083 396.45,151.06 C400.801785,149.398692 405.661499,149.716344 409.76,151.93 C410.050243,152.088396 410.249947,152.373159 410.3,152.7 C409.8,155.6 409.33,158.46 408.83,161.56 Z" id="Shape"></path>
                <path d="M410.83,147.6 L416.55,141.22 L420.4,136.82 C420.577914,136.602994 420.738413,136.372277 420.88,136.13 C421.88,134.66 421.49,133.73 419.65,133.78 C417.275397,133.78429 414.90479,133.974874 412.56,134.35 C397.7,137.136667 382.85,139.976667 368.01,142.87 C355.58,145.28 343.16,147.76 330.74,150.21 C330.255157,150.249944 329.769079,150.149257 329.34,149.92 C328.34,149.39 327.42,148.76 326.34,148.09 L333.58,146.63 L367,140.05 C378.43,137.82 389.84,135.55 401.28,133.37 C405.68,132.51 410.09,131.74 414.56,131.11 C416.634056,130.810197 418.738182,130.779946 420.82,131.02 C424.01,131.43 425.22,134.17 423.76,137.02 C423.137899,138.072852 422.403619,139.055245 421.57,139.95 C419.1,142.77 416.57,145.52 414.09,148.32 C413.73,148.72 413.46,148.84 412.96,148.56 C412.46,148.28 411.59,148 410.83,147.6 Z" id="Shape"></path>
                <path d="M404.89,186.08 L407.83,185.08 C407.99,185.36 408.15,185.61 408.3,185.87 C410,189.01 411.72,192.13 413.35,195.3 C413.850905,196.181116 414.170508,197.153524 414.29,198.16 C414.510161,199.671739 414.120752,201.209018 413.207445,202.433638 C412.294137,203.658258 410.931747,204.469899 409.42,204.69 C408.935504,204.755 408.444496,204.755 407.96,204.69 C405.392173,204.582098 402.838907,204.247462 400.33,203.69 C389,201.38 377.7,199 366.39,196.69 L326.75,188.45 L319,186.74 L318.75,186.67 C320.21,186.02 321.68,185.35 323.15,184.72 C323.335209,184.659657 323.534791,184.659657 323.72,184.72 L360.43,192.38 L396.53,199.91 C399.6,200.55 402.66,201.18 405.76,201.68 C406.879769,201.850291 408.020916,201.819815 409.13,201.59 C409.817185,201.481823 410.433139,201.104799 410.842076,200.542042 C411.251013,199.979284 411.419358,199.276998 411.31,198.59 C411.282002,198.419718 411.238487,198.252354 411.18,198.09 C411.01243,197.522304 410.780948,196.975469 410.49,196.46 C408.74,193.06 406.85,189.62 404.89,186.08 Z" id="Shape"></path>
                <path d="M330.83,142.6 C328.29,143.12 326.01,143.67 323.69,143.97 C322.691869,143.972728 321.699596,143.817474 320.75,143.51 C308.38,141.09 296.03,138.64 283.65,136.24 C279.24,135.39 274.84,134.64 270.43,133.95 C268.915478,133.788361 267.3931,133.711574 265.87,133.72 C265.553391,133.722734 265.239319,133.776768 264.94,133.88 C264.03,134.14 263.77,134.61 264.24,135.45 C264.686378,136.270543 265.223041,137.038641 265.84,137.74 C269.13,141.49 272.47,145.19 275.84,148.9 C276.03,149.11 276.21,149.31 276.41,149.56 L274.29,151.56 L271,147.89 C268.52,145.13 266,142.37 263.59,139.59 C263.052604,138.998337 262.561176,138.3665 262.12,137.7 C259.84,134.2 261.49,130.87 265.66,130.84 C268.543723,130.811386 271.423553,131.059185 274.26,131.58 C290.65,134.66 307.01,137.85 323.36,141.02 L330.1,142.34 C330.2,142.38 330.4,142.47 330.83,142.6 Z" id="Shape"></path>
                <path d="M369.33,182.25 C370.8,171.97 372.16,161.9 373.56,151.82 L381.63,151.82 C381.41,153.47 381.22,155 381,156.52 C380.3,161.65 379.53,166.8 378.87,171.88 C378.423333,175.16 377.963333,178.436667 377.49,181.71 C377.42236,181.950118 377.243948,182.143398 377.01,182.23 C374.44,182.26 371.93,182.25 369.33,182.25 Z" id="Shape"></path>
                <path d="M303,185.22 L294.19,188.31 L272.66,195.83 C270.667793,196.575706 268.557191,196.95514 266.43,196.95 C262.35,196.85 260.27,194.1 261.57,190.22 C262.129654,188.741901 262.919396,187.36154 263.91,186.13 C265.07,184.58 266.48,183.19 267.78,181.72 L269.53,183.48 C268.59,184.48 267.61,185.48 266.71,186.61 C265.85864,187.581271 265.089334,188.621506 264.41,189.72 C264.020606,190.477339 263.779612,191.302149 263.7,192.15 C263.609273,192.624798 263.711155,193.116185 263.983175,193.515773 C264.255195,193.91536 264.675003,194.190319 265.15,194.28 L265.38,194.28 C267.319152,194.595614 269.307706,194.374279 271.13,193.64 C277.98,191.32 284.8,188.93 291.69,186.56 C294.44,185.61 297.2,184.65 299.93,183.62 C300.362906,183.410811 300.87999,183.490362 301.23,183.82 C301.749868,184.369069 302.345964,184.840558 303,185.22 L303,185.22 Z" id="Shape"></path>
                <path d="M412.15,210.35 C411.683167,210.363451 411.230128,210.190804 410.890645,209.870077 C410.551162,209.54935 410.353074,209.106844 410.34,208.64 L410.34,208.53 C410.334437,207.550797 411.120843,206.750987 412.1,206.74 L412.1,206.74 C412.582727,206.729274 413.049932,206.91081 413.398776,207.24465 C413.747619,207.578489 413.949507,208.037268 413.96,208.52 L413.96,208.52 C413.968044,208.999914 413.783013,209.462953 413.446447,209.805159 C413.109881,210.147366 412.649981,210.340067 412.17,210.34 L412.15,210.35 Z M412.88,209.72 C413.639007,209.508365 414.096155,208.73591 413.916429,207.968721 C413.736703,207.201532 412.984031,206.712497 412.21,206.86 C411.897593,206.938872 411.617794,207.113747 411.41,207.36 C410.774329,207.823038 410.61569,208.704366 411.05,209.36 C411.238153,209.649266 411.533594,209.851857 411.871227,209.923135 C412.20886,209.994413 412.560979,209.928529 412.85,209.74 L412.95,209.66 L412.88,209.72 Z" id="Shape"></path>
                <path d="M412.91,209.69 C412.346459,210.142152 411.523235,210.052671 411.07,209.49 C411.049065,209.455051 411.025672,209.421633 411,209.39 C410.446683,208.742142 410.477602,207.779539 411.071355,207.168525 C411.665108,206.557511 412.62643,206.499028 413.289874,207.033558 C413.953318,207.568088 414.100701,208.519844 413.63,209.23 C413.42963,209.477942 413.151153,209.650668 412.84,209.72 C412.84,209.19 412.43,208.67 412.84,208.14 C412.84,208.14 412.54,207.59 412.34,207.55 C412.14,207.51 411.4,207.55 411.34,207.71 C411.290021,208.332332 411.290021,208.957668 411.34,209.58 L411.58,209.58 L411.83,208.7 L412.91,209.69 Z" id="Shape"></path>
                <path d="M412.91,209.69 L411.91,208.69 L411.66,209.57 L411.43,209.57 C411.369984,208.951452 411.369984,208.328548 411.43,207.71 C411.43,207.59 412.07,207.47 412.43,207.55 C412.680223,207.651702 412.866276,207.867523 412.93,208.13 C412.45,208.66 412.93,209.19 412.93,209.72 L412.91,209.69 Z" id="Shape"></path>
                <polygon id="Shape" points="81 178.74 81 157.79 91.85 157.79 91.85 162.38 85.71 162.38 85.71 166.01 91.49 166.01 91.49 170.5 85.71 170.5 85.71 178.74"></polygon>
                <path d="M99.8,167.68 L100.7,167.68 C101.507778,167.747619 102.313903,167.531945 102.98,167.07 C103.492901,166.535689 103.754643,165.808627 103.7,165.07 C103.783246,164.26539 103.53804,163.461258 103.02,162.84 C102.389901,162.315094 101.576483,162.06315 100.76,162.14 L99.76,162.14 L99.8,167.68 Z M95.28,178.74 L95.28,157.74 L100.28,157.74 C101.664412,157.686478 103.050356,157.793863 104.41,158.06 C105.158239,158.279755 105.843672,158.673879 106.41,159.21 C107.064178,159.817233 107.564606,160.571302 107.87,161.41 C108.226288,162.348686 108.402693,163.346052 108.39,164.35 C108.462105,165.753134 108.113921,167.145873 107.39,168.35 C106.69782,169.364108 105.647453,170.078644 104.45,170.35 L109.28,178.79 L103.79,178.79 L99.73,170.59 L99.73,178.79 L95.28,178.74 Z" id="Shape"></path>
                <rect id="Rectangle-path" x="112.08" y="157.79" width="4.88" height="20.95"></rect>
                <path d="M126.43,174 L127.23,174 C128.748542,174.141175 130.25692,173.640799 131.39,172.62 C132.369929,171.373089 132.838327,169.799846 132.7,168.22 C132.828913,166.638036 132.361651,165.065039 131.39,163.81 C130.255442,162.790942 128.749274,162.287678 127.23,162.42 L126.43,162.42 L126.43,174 Z M121.64,178.7 L121.64,157.7 L125.34,157.7 C127.307833,157.62768 129.277453,157.782029 131.21,158.16 C132.281186,158.441218 133.282315,158.941782 134.15,159.63 C135.289408,160.582246 136.169952,161.806753 136.71,163.19 C137.859742,166.386421 137.859742,169.883579 136.71,173.08 C136.166173,174.461189 135.286254,175.684826 134.15,176.64 C133.289852,177.339972 132.286066,177.841865 131.21,178.11 C129.532878,178.478196 127.815916,178.632756 126.1,178.57 L121.6,178.57 L121.64,178.7 Z" id="Shape"></path>
                <path d="M138.89,178.74 L145,157.74 L151.05,157.74 L157.18,178.74 L152.37,178.74 L151.48,174.99 L144.66,174.99 L143.74,178.74 L138.89,178.74 Z M145.66,170.91 L150.54,170.91 L148.73,164 C148.67312,163.662423 148.596319,163.328506 148.5,163 C148.39,162.53 148.28,161.93 148.13,161.2 C148.03,161.71 147.92,162.2 147.82,162.67 C147.72,163.14 147.62,163.59 147.51,164.02 L145.66,170.91 Z" id="Shape"></path>
                <path d="M161.92,178.74 L161.92,169.18 L155.72,157.74 L161.27,157.74 L163.65,163.13 L163.65,163.29 C163.888748,163.805903 164.060154,164.350369 164.16,164.91 C164.276222,164.371386 164.454059,163.847941 164.69,163.35 L164.78,163.13 L167.15,157.74 L172.7,157.74 L166.5,169.14 L166.5,178.7 L161.92,178.74 Z" id="Shape"></path>
                <path d="M175.15,172 C175.734145,172.834104 176.454147,173.564247 177.28,174.16 C177.882107,174.609487 178.608859,174.861055 179.36,174.88 C179.952839,174.901541 180.528232,174.677173 180.95,174.26 C181.370881,173.856443 181.599995,173.292751 181.58,172.71 C181.623191,172.119601 181.428792,171.536405 181.04,171.09 C180.322,170.52839 179.488824,170.13229 178.6,169.93 C177.194245,169.572697 175.92052,168.819567 174.93,167.76 C174.16066,166.708129 173.782264,165.420874 173.86,164.12 C173.766931,162.344067 174.353291,160.599287 175.5,159.24 C176.612855,157.981464 178.23116,157.287904 179.91,157.35 C180.858857,157.3398 181.802466,157.491995 182.7,157.8 C183.598123,158.157965 184.434863,158.653936 185.18,159.27 L183.71,163.38 C183.211662,162.865151 182.634415,162.43306 182,162.1 C181.466077,161.830993 180.877817,161.687348 180.28,161.68 C179.742659,161.641897 179.212668,161.822166 178.81,162.18 C178.447685,162.495976 178.248938,162.95972 178.27,163.44 C178.249179,163.90638 178.41883,164.361188 178.74,164.7 C179.287613,165.124995 179.917614,165.431482 180.59,165.6 L180.81,165.67 C182.26595,166.009838 183.605158,166.731215 184.69,167.76 C185.161441,168.257257 185.525644,168.846107 185.76,169.49 C185.987542,170.2662 186.102052,171.071138 186.1,171.88 C186.191668,173.837534 185.529596,175.755756 184.25,177.24 C182.976316,178.598862 181.170287,179.330048 179.31,179.24 C178.143817,179.253641 176.990329,178.99693 175.94,178.49 C174.816412,177.931445 173.816599,177.152679 173,176.2 L175.15,172 Z" id="Shape"></path>
                <path d="M61.2,164.53 L61.2,151.31 L73.68,151.31 L60.08,137.38 L46.19,137.38 L46.19,149.12 L61.2,164.53 Z M105.33,183.75 L80,183.75 L94.79,198.86 L120.18,198.86 L105.33,183.75 Z M97.68,151.33 L123.43,151.33 L109.83,137.39 L84.06,137.39 L97.68,151.33 Z M155.06,183.75 L129.3,183.75 L144,198.86 L169.75,198.86 L155.06,183.75 Z M147.41,151.33 L171.24,151.33 L157.66,137.39 L133.8,137.39 L147.41,151.33 Z M191.86,172.43 L191.86,183.72 L179,183.72 L193.69,198.83 L206.36,198.83 L206.36,187.39 L191.86,172.43 Z M70.72,198.86 L46.19,173.72 L46.19,198.86 L70.72,198.86 Z M181.61,137.39 L206.45,162.84 L206.45,137.39 L181.61,137.39 Z" id="Shape"></path>
                <polygon id="Shape" points="76.49 176.19 68.42 176.19 68.42 179.05 66.8 179.05 66.8 171.35 68.42 171.35 68.42 174.22 76.49 174.22"></polygon>
                <path d="M72.92,165.58 L71.24,165.58 L71.24,161.37 L75.11,161.37 C75.5516985,161.895587 75.8908962,162.499359 76.11,163.15 C76.4088067,163.900865 76.5615399,164.701866 76.56,165.51 C76.5803595,166.437101 76.3598425,167.353624 75.92,168.17 C75.5184359,168.905952 74.8957793,169.497126 74.14,169.86 C73.3339242,170.241942 72.4519596,170.436795 71.56,170.43 C70.6246997,170.44881 69.6996805,170.23217 68.87,169.8 C68.0922904,169.372937 67.4614828,168.721219 67.06,167.93 C66.7304013,167.209072 66.5696545,166.422439 66.59,165.63 C66.5372407,164.63452 66.7996807,163.647746 67.34,162.81 C67.8545279,162.129335 68.6024191,161.662794 69.44,161.5 L69.8,163.44 C69.349685,163.555467 68.9536595,163.824199 68.68,164.2 C68.3806355,164.630207 68.2296758,165.146279 68.25,165.67 C68.2292404,166.424443 68.5311534,167.151944 69.08,167.67 C69.7492064,168.22858 70.6112495,168.50156 71.48,168.43 C72.4071502,168.501217 73.3283379,168.230907 74.07,167.67 C74.638823,167.163674 74.9538059,166.431156 74.93,165.67 C74.9292704,165.246129 74.8513315,164.825937 74.7,164.43 C74.5489785,164.056241 74.3506979,163.703369 74.11,163.38 L72.88,163.38 L72.92,165.58 Z" id="Shape"></path>
                <rect id="Rectangle-path" x="66.8" y="157.67" width="9.69" height="1.95"></rect>
            </g>
        </g>
    </g>
</svg>