<svg xmlns="http://www.w3.org/2000/svg" viewBox="0 0 593.47 342.35"><title>companies</title><g style="isolation:isolate"><text transform="translate(48.71 23.2)" font-size="27.14" fill="#eeefee" font-family="Raleway-Black, Raleway" style="isolation:isolate">THESE <tspan x="92.53" y="0" letter-spacing="-0.01em">C</tspan><tspan x="110.98" y="0">OM</tspan><tspan x="154.92" y="0" letter-spacing="-0.05em">P</tspan><tspan x="170.41" y="0">ANIES H</tspan><tspan x="276.97" y="0" letter-spacing="-0.06em">A</tspan><tspan x="293.5" y="0">VE ST</tspan><tspan x="367.71" y="0" letter-spacing="-0.01em">R</tspan><tspan x="385.79" y="0">ONGER</tspan></text><text transform="translate(0 67.09)" font-size="41.95" fill="#ffc629" font-family="Raleway-Bold, Raleway" font-weight="700" style="isolation:isolate">CHICKEN<tspan x="186.1" y="0" letter-spacing="-0.03em"> </tspan><tspan x="194.74" y="0">WEL</tspan><tspan x="288.63" y="0" letter-spacing="-0.08em">F</tspan><tspan x="309.44" y="0">ARE POLICI</tspan><tspan x="535.93" y="0" letter-spacing="-0.01em">E</tspan><tspan x="560.52" y="0">S</tspan></text><text transform="translate(183.96 69.09)" font-size="41.95" fill="#ffc629" font-family="Raleway-Bold, Raleway" font-weight="700" letter-spacing="-0.03em" style="isolation:isolate"> </text><text transform="translate(587.55 69.09)" font-size="24.67" fill="#eeefee" font-family="Raleway-Bold, Raleway" font-weight="700" style="isolation:isolate"> </text><text transform="translate(198.54 96.22)" font-size="19.74" fill="#fff" font-family="Raleway-Black, Raleway" letter-spacing="-0.02em" style="isolation:isolate">THAN MCDONALD&apos;S.</text></g><path d="M118.85,200.17a386.13,386.13,0,0,0-51.14,16.15c-2.13.85-3.77,1.27-2.66,2.75,2.66,3.49,16.54,10,34.54,3.63,16.65-5.88,21.48-18.3,21.73-21C121.54,199.33,120.38,199.8,118.85,200.17Zm-2.54,5.55c-3.23,10-14.24,14.21-14.93,14.45,10.28-6.83,12.06-14.21,12.26-15.21a1.47,1.47,0,1,1,2.67.78Zm-4.65-57.66c-3.86-5-15.45-11.32-34-6.86S54.16,160.29,53.77,163c-.39,2.36,1.08,1.73,1.56,1.55A374.21,374.21,0,0,1,109,150.14c2.24-.41,4-.35,2.67-2.07ZM60.07,159.8c-.28,1.47-2.3,1.47-1.86-.38,2.29-9.87,12.6-14.78,13-15-9.66,7.11-11,14.46-11.16,15.43ZM98.15,150s3-1,2.42-3.51-7.79-5.46-13.21-5.62c0,0,12.39-1.08,16.71,5.05,2.38,3.42-5.92,4.14-5.92,4.14Z" fill="#fff"/><path d="M125.8,204c-6.68,15.09-20.21,26.43-37.34,28.12a45.08,45.08,0,0,1-35.83-12.57c-2.53,1.09-5.7,2.32-5.7,2.32v-8.91a49,49,0,0,1,22.28-74,57.27,57.27,0,0,1,31.19-2.56A53.45,53.45,0,1,0,135,208.69Z" fill="#fff"/><path d="M122.45,177.69c2.94.37,5.73,1.47,6.61-1.88.44-1.67-.32-3.58-3.29-4.29a19.74,19.74,0,0,0-4-.48,14.93,14.93,0,0,0-15.39,13.4c-1.25,9.31,4.58,14,11.38,13.51,8.81-.63,11.35-4.68,11.35-8.88v-8.72l-11.13,2.36v3s-.09,2.78,4,1.68v1.91s-.12,2.13-3.42,2c-2.73,0-5.14-2-4.4-7.25a7.34,7.34,0,0,1,8.11-6.48Zm-21.26-1.47a4.62,4.62,0,0,0-3.55,4.6v8.45l-6.85-8a4.06,4.06,0,0,0-4.4-1.47l-4.17,1.27v26.44l3.64-1.3a5.18,5.18,0,0,0,3.71-4.84v-9.66s6.24,7.13,7.83,8.91a4.44,4.44,0,0,0,3.85,1.47,4,4,0,0,0,3.58-3.94v-23Zm4.62-7.83v-3.46l3.35-.78a2,2,0,0,0,1.69-2.07v-1.7l-5,1.05v-2.38l3.76-.85a2.24,2.24,0,0,0,1.87-2.14v-2.12L101,156.06v17.37l8.57-2a2.23,2.23,0,0,0,1.87-2.13v-2.11Zm-6.09,2.41v-7.05l-6.94,1.63a11.34,11.34,0,0,0,0,2.18c0,1.63,2.54.95,2.54.95a14.5,14.5,0,0,1,0,2.09c-.14.55-1.37,1.32-2.94,1.07-1.35-.22-2.15-1.65-2-4.41.3-6.94,7.24-5.31,7.24-5.31a2.19,2.19,0,0,0,2.19-2.19,2.31,2.31,0,0,0-2.19-2.17c-9.06-1.33-12.26,5.47-12.51,9.47s1.57,9.53,8.21,8.81S99.72,170.8,99.72,170.8Zm25-5.58-2.63-3.33a5.61,5.61,0,0,0,2.74-5.21c0-3.76-3.79-4.61-7.1-3.85-1.07.25-5.11.95-5.11.95V171l2.94-.66s1.87-.28,1.87-2.76v-3.41l4,4.41a2.51,2.51,0,0,0,3.54.25l.16-.15c1.7-1.57-.31-3.51-.31-3.51Zm-7.49-4.2v-4.55s2.94-1.07,2.84,1.2a3.9,3.9,0,0,1-2.79,3.28Zm-33,13-2.79-2.84a6.55,6.55,0,0,0,2.93-6.08c0-3.74-4.14-4.15-7.43-2.93-1.08.38-5.12,1.57-5.12,1.57v17.93l2.93-1a2.92,2.92,0,0,0,1.88-2.93v-4.16l4.26,4.26a2.53,2.53,0,0,0,3.34-3.8Zm-7.61-3.35v-5s3-1.16,2.94,1.11a4.43,4.43,0,0,1-2.88,3.85Zm-6.17-3.89a1.84,1.84,0,0,0-2.52-1.85c-1.06.29-2.28.7-2.28.7v12.72a2.08,2.08,0,0,1-1.78,2.32c-1.57.21-1.46-1.72-1.46-1.72V169s0-2.19-2.43-1.38l-2.48.91v12.42s.15,6.13,6.93,4a7.78,7.78,0,0,0,6.08-8.25c0-1.47,0-9.9,0-9.9ZM57,182.55c-.18-2.63-3.14-3.48-3.14-3.48a5.39,5.39,0,0,0,2.38-5.21c-.55-4.81-6.23-2.53-6.23-2.53l-6,2.23v19.09s3.9-1.61,7.9-3.39S57.23,185.57,57,182.55Zm-8.31-7.49s2.94-1.37,2.83,1.06-2.83,3-2.83,3Zm0,11.75V182s3.29-1.56,3.18,1.32-3.18,3.48-3.18,3.48ZM75,183.43a5.37,5.37,0,0,0-3.58,5v22.69l4.72-1.67a5.41,5.41,0,0,0,3.63-5V181.77Zm-6.32,22.88-5.15-5.16L69,192c1.36-2.29.7-4.33-1.18-5.08a4,4,0,0,0-5.06,1.47L55.9,200.08v-9.45L48,194v26.08s3.34-1.29,5.88-2.42c2.07-.91,2-3.76,2-3.76v-8.31l6.79,6.8a4.23,4.23,0,0,0,6.2-5.75l-.22-.23Zm66.89-6.61a1.47,1.47,0,0,0-1.47-1.47h-2.5v5.2h1v-2.28h.56l1.31,2.28h1.07l-1.31-2.29A1.47,1.47,0,0,0,135.55,199.7Zm-2.94.72V199h1.21a.74.74,0,0,1,.72.74.72.72,0,0,1-.72.71h0Zm2.94-.72a1.47,1.47,0,0,0-1.47-1.47h-2.5v5.2h1v-2.28h.56l1.31,2.28h1.07l-1.31-2.29A1.47,1.47,0,0,0,135.55,199.7Zm-2.94.72V199h1.21a.74.74,0,0,1,.72.74.72.72,0,0,1-.72.71h0Zm2.94-.72a1.47,1.47,0,0,0-1.47-1.47h-2.5v5.2h1v-2.28h.56l1.31,2.28h1.07l-1.31-2.29A1.47,1.47,0,0,0,135.55,199.7Zm-2.94.72V199h1.21a.74.74,0,0,1,.72.74.72.72,0,0,1-.72.71h0Zm.8-4.41a4.81,4.81,0,1,0,4.71,4.89v-.08a4.76,4.76,0,0,0-4.73-4.78Zm0,8.42a3.62,3.62,0,1,1,3.61-3.61v0a3.6,3.6,0,0,1-3.56,3.61h-.07Zm2.14-4.73a1.47,1.47,0,0,0-1.47-1.47h-2.5v5.2h1v-2.28h.56l1.31,2.28h1.07l-1.31-2.29A1.47,1.47,0,0,0,135.55,199.7Zm-1.69.72h-1.25V199h1.21a.74.74,0,0,1,.72.74.73.73,0,0,1-.71.73h0Zm1.69-.72a1.47,1.47,0,0,0-1.47-1.47h-2.5v5.2h1v-2.28h.56l1.31,2.28h1.07l-1.31-2.29A1.47,1.47,0,0,0,135.55,199.7Zm-2.94.72V199h1.21a.74.74,0,0,1,.72.74.72.72,0,0,1-.72.71h0Zm2.94-.72a1.47,1.47,0,0,0-1.47-1.47h-2.5v5.2h1v-2.28h.56l1.31,2.28h1.07l-1.31-2.29A1.47,1.47,0,0,0,135.55,199.7Zm-2.94.72V199h1.21a.74.74,0,0,1,.72.74.72.72,0,0,1-.72.71h0Zm2.94-.72a1.47,1.47,0,0,0-1.47-1.47h-2.5v5.2h1v-2.28h.56l1.31,2.28h1.07l-1.31-2.29A1.47,1.47,0,0,0,135.55,199.7Zm-2.94.72V199h1.21a.74.74,0,0,1,.72.74.72.72,0,0,1-.72.71h0Z" fill="#fff"/><path d="M311.21,207.17h10.9v-6.79h-12.6a7.73,7.73,0,0,0-3.11,14.81l7.74,3.86c1.83.91,1.46,2.57-.53,2.57H302.53V218.2l-4.59,3.39-4.6,3.4,4.6,3.37,4.59,3.4v-3.43l13.22.17a7.74,7.74,0,0,0,7.75-7.73v0a6.78,6.78,0,0,0-2.39-5.88l-10-5.22c-.81-.43-.7-2.41.21-2.41Zm36.71-6.71v18.06a9.68,9.68,0,0,1-3.24,7.64,12.6,12.6,0,0,1-8.62,2.94,11.33,11.33,0,0,1-8.22-2.78,10.71,10.71,0,0,1-2.84-8V200.46h8.36v18.68a3.12,3.12,0,0,0,3.09,3.1h0a3.11,3.11,0,0,0,3.1-3.1V200.46Zm17.9,27.9a7.74,7.74,0,0,0,3.73-14.52,7.34,7.34,0,0,0-3.73-13.29H350.26v27.9Zm-7.24-11.52h4a2.94,2.94,0,0,1,2.94,2.93h0a2.7,2.7,0,0,1-2.7,2.7h-4.22v-5.6Zm0-10.21H362a2.41,2.41,0,0,1,2.37,2.35h0a2.29,2.29,0,0,1-2.26,2.28h-3.52v-4.7Z" fill="#fff"/><path d="M460.06,207.1v5.73a7.53,7.53,0,0,1-7.12,7.5v8.15h-9V220.3a7.52,7.52,0,0,1-6.83-7.47V200.39h8.3v11.13a2.65,2.65,0,0,0,2.64,2.63h1.21a2.63,2.63,0,0,0,2.63-2.63h0v-5.87h0v-.12a5.1,5.1,0,0,1,5.09-5.1h7.11V197l4.59,3.39,4.6,3.38-4.6,3.39-4.59,3.4v-3.43Zm-39.64,21.28H412V210.65a10.08,10.08,0,0,1,3.18-8,13,13,0,0,1,9-2.85q5.58,0,8.23,2.58c1.78,1.72,2.66,4.37,2.66,7.95v18h-8.4v-8.15h-6.25Zm6.25-14.17v-4.67a3.13,3.13,0,0,0-3.12-3.13h0a3.14,3.14,0,0,0-3.13,3.13v4.67ZM410,200.51v20.07a7.8,7.8,0,0,1-2.64,6.12,9.83,9.83,0,0,1-6.86,2.38h-.6a9.72,9.72,0,0,1-7.22-2.05,8.67,8.67,0,0,1-6.83,2.08h-1.38a9.06,9.06,0,0,1-6.76-2.38,9.24,9.24,0,0,1-2.33-6.81V200.54h8.37v19.09a2.48,2.48,0,0,0,2.46,2.46h0a2.46,2.46,0,0,0,2.47-2.46V200.54h7.92v19.09a2.46,2.46,0,0,0,2.46,2.46h0a2.46,2.46,0,0,0,2.47-2.46V200.54Zm47,23.8a2.31,2.31,0,0,1,1,.26,2,2,0,0,1,.78.78,2.12,2.12,0,0,1,0,2.07,1.87,1.87,0,0,1-.77.78,2.07,2.07,0,0,1-2.07,0,1.87,1.87,0,0,1-.77-.78,2.07,2.07,0,0,1,0-2.07,2,2,0,0,1,.79-.78,2.28,2.28,0,0,1,1-.26Zm0,.34a1.93,1.93,0,0,0-.85.23,1.46,1.46,0,0,0-.65.65,1.73,1.73,0,0,0,0,1.73,1.79,1.79,0,0,0,.63.65,1.74,1.74,0,0,0,1.74,0,1.67,1.67,0,0,0,.64-.65,1.73,1.73,0,0,0,0-1.73,1.67,1.67,0,0,0-.64-.65,2,2,0,0,0-.85-.23Zm-.91,2.93v-2.23h.76a1.88,1.88,0,0,1,.58,0,.6.6,0,0,1,.28.22.61.61,0,0,1-.06.75.66.66,0,0,1-.47.21.76.76,0,0,1,.19.12,2.36,2.36,0,0,1,.32.44l.28.44h-.44l-.19-.36a2.17,2.17,0,0,0-.38-.52.39.39,0,0,0-.3,0h-.22v.95Zm.37-1.26h.42a.67.67,0,0,0,.44-.09.27.27,0,0,0,.11-.25.48.48,0,0,0,0-.17.61.61,0,0,0-.16-.12,1.09,1.09,0,0,0-.36,0h-.42v.66Z" fill="#fff"/><path d="M459.3,155.53h0c0,7.34-4.15,11.37-11.88,11.37s-11.75-4-11.75-11.25V142.43h8.52v12.72c0,3.52.94,5.08,3.25,5.08s3.4-1.47,3.4-5.42V142.49h8.52Z" fill="#fff"/><polygon points="337.09 148.6 337.09 148.6 337.09 166.46 328.47 166.46 328.47 148.6 321.24 148.6 321.24 142.49 344.31 142.49 344.31 148.6 337.09 148.6" fill="#fff"/><path d="M358.75,148h0l-2.08,8.14H361Zm5.6,18.42h0L362.89,162h-8.11l-1.47,4.41h-8.56l8.68-24h10.91l8.58,24Z" fill="#fff"/><path d="M487,164.55h0l-2.58-6.16a8.74,8.74,0,0,1-5.6,2.13,5.73,5.73,0,0,1-5.61-5.84c0-.11,0-.22,0-.32,0-3.41,2-6.32,5.47-6.32a9.4,9.4,0,0,1,5.72,2.35l2.52-6a19.94,19.94,0,0,0-9.63-2.29c-7.23,0-12.7,4.92-12.7,12.26,0,7.73,5.31,12.59,13,12.59A17.17,17.17,0,0,0,487,164.55Z" fill="#fff"/><polygon points="506.32 166.46 506.32 166.46 500.88 157.72 500.88 166.46 492.55 166.46 492.55 142.49 500.88 142.49 500.88 151.29 505.98 142.49 515.28 142.49 507.44 154.31 516.29 166.46 506.32 166.46" fill="#fff"/><path d="M306.85,166.9h0c5.44,0,11.09-1.9,11.09-8.07,0-5.47-4.7-7-8.39-7.78-2.74-.6-4.09-.89-4.09-2,0-1.47,1.91-1.57,2.86-1.57a13.17,13.17,0,0,1,6.83,2.25l2.23-5.44a25.62,25.62,0,0,0-9.79-2.23c-5.6,0-10,2.69-10,8.17,0,4.4,3.41,6.21,7.17,7.1,2.57.68,4.24.85,4.24,2.13s-1.28,1.69-2.51,1.69a11.06,11.06,0,0,1-7-2.58l-2.74,5.27A19.06,19.06,0,0,0,306.85,166.9Z" fill="#fff"/><path d="M529,166.9h0c5.43,0,11-1.9,11-8.07,0-5.47-4.7-7-8.34-7.78-2.75-.6-4.08-.89-4.08-2,0-1.47,1.85-1.57,2.84-1.57a12.9,12.9,0,0,1,6.77,2.25l2.25-5.44a25.06,25.06,0,0,0-9.75-2.23c-5.65,0-10.07,2.69-10.07,8.17,0,4.4,3.42,6.21,7.16,7.1,2.65.68,4.26.85,4.26,2.13s-1.23,1.69-2.47,1.69a11.14,11.14,0,0,1-7-2.58l-2.67,5.27A18.86,18.86,0,0,0,529,166.9Z" fill="#fff"/><path d="M543.76,145.63h0a3.55,3.55,0,0,1,3.59-3.52h0a3.47,3.47,0,0,1,3.48,3.45v.07a3.54,3.54,0,1,1-7.07,0Zm6.55,0h0a2.93,2.93,0,0,0-2.78-3.08h-.16a3.07,3.07,0,0,0-3.12,3v.07h0a3.05,3.05,0,0,0,3,3.07h0a2.92,2.92,0,0,0,3-2.81,1.61,1.61,0,0,0,0-.31Zm-4.4-1.91h1.63a1.56,1.56,0,0,1,1.05.4,1,1,0,0,1,.28.68h0a1.09,1.09,0,0,1-1,1.07l1.11,1.47h-.6l-1.07-1.47h-1v1.47h-.5Zm1.55,1.8h0c.52,0,.85-.22.85-.68s-.27-.6-.85-.6h-1.05v1.28Z" fill="#fff"/><path d="M395.59,157.5h0a7.15,7.15,0,0,0,4.53-6.77c0-5.65-3.86-8.24-9.35-8.24H377.83V166.4h8.36v-7.05h2.07l4.26,7.05h9Zm-3.86-6.77h0a2.38,2.38,0,0,1-2.23,2.52,2.64,2.64,0,0,1-.4,0h-2.94v-5h2.94a2.29,2.29,0,0,1,2.56,2,2.57,2.57,0,0,1,0,.48Z" fill="#fff"/><path d="M424.69,154.19h0c3.08-.67,4.66-2.4,4.66-5.31,0-4.1-3.09-6.39-8.46-6.39H407.2V166.4h13.1c6.33,0,9.52-2.25,9.52-6.77a5.24,5.24,0,0,0-5.05-5.43Zm-9.22-6.49h3c1.56,0,2.57.67,2.57,2.07h0c0,1.34-.95,2.12-2.64,2.12h-2.94ZM421.23,159h0c0,1.47-1.06,2.23-2.74,2.23h-3v-4.4h3.07c1.63,0,2.69.73,2.69,2.19Z" fill="#fff"/><path d="M215.43,135.34a52.47,52.47,0,1,1-52.5,52.45,52.47,52.47,0,0,1,52.5-52.45h0m0-2.41a55.19,55.19,0,1,0,.07,0Z" fill="#fff"/><path d="M215.43,156a31.85,31.85,0,1,0,31.82,31.88v-.05A31.83,31.83,0,0,0,215.43,156Zm0,61.29a29.46,29.46,0,1,1,29.46-29.46h0a29.46,29.46,0,0,1-29.46,29.46h0Z" fill="#fff"/><path d="M174.87,188.42a1.25,1.25,0,1,1-1.25-1.25,1.25,1.25,0,0,1,1.25,1.25Z" fill="#fff"/><path d="M259,188.42a1.25,1.25,0,1,1-1.25-1.25,1.25,1.25,0,0,1,1.25,1.25Z" fill="#fff"/><path d="M228.06,171.54c0-.83-.91-2-1.29-3.25,0,0-1.47,0-2.94.16a4.68,4.68,0,0,0-2.47.88,5.27,5.27,0,0,1-1,.91,11.9,11.9,0,0,1-1,1,5.34,5.34,0,0,1,0,.8,16.3,16.3,0,0,0-.4,2.32,2.32,2.32,0,0,0,.64,1.18c1,.15,2.94.18,2.94.18a5,5,0,0,1-.34,1c-.22.49-1.63.69-1.63.69s.66,1.14.89,1.66a3,3,0,0,0,.91,1c1.17,2.05,1.82,3.2,1.82,4.31a6.12,6.12,0,0,1-.71,2.4,5,5,0,0,1-1,2.45,16,16,0,0,0-1.08,1.72c-.25.5-.69,1.22-1,1.72a4.68,4.68,0,0,1-1.15,1.24c-.29.21-.28.37-.28.37s1,1.25,1,1.82c0,.31-.13.49-.13,1a1.67,1.67,0,0,0,.39,1.31c.5-.1.65.12,1,.31.52.28,1.46.85,1.71,1l2.94,2.11c.5.35,1.1.34,1.62.65s1.2.2,1.2,1.14a8.79,8.79,0,0,1-1.7,3.35,1.61,1.61,0,0,1-.83.54c-.89,1-1.14,1-1.14,1a9.37,9.37,0,0,0-1.2.14,13.35,13.35,0,0,1-2,0,4.89,4.89,0,0,1-1.62,0c-.41,0-2.27.09-3.49.11a5.51,5.51,0,0,1-1.72-.12c-.65-.1-1.1-.4-1.38-.41a2.86,2.86,0,0,1-1.47-.24,6.89,6.89,0,0,0-2.13-.63c-.85-.13-1.06-.16-1.47-.81a58.56,58.56,0,0,0-4.4-6.44,30.46,30.46,0,0,1-4-5.93,22,22,0,0,1-.69-4.56V185a6.68,6.68,0,0,1,.47-2.42,7.25,7.25,0,0,1,.38-1.78,2.59,2.59,0,0,1,.13-1.11,33.64,33.64,0,0,1,3.73-3.63c1.18-.87,3.36-.49,5-1a3.51,3.51,0,0,0-2.63-1.15c-.86,0-1.25.28-1.32.11s.68-.4.92-.71.8-.41,1.39-.81a27,27,0,0,1,3,.84,3.52,3.52,0,0,0,1.86.34c4.56-4,8.43-6.9,8.43-6.9,1.81-.4,5.39-.71,5.39-.71a3.24,3.24,0,0,0,1.15.28c.69,0,.75.35.75.35.32.59.58.64.77.91.39.71,1.47,1.47,1.47,2.38a14,14,0,0,1-.66,3.4,13.83,13.83,0,0,1-1.58.13h-1.24c-.56,0-.57-.22-.57-.22A7.69,7.69,0,0,0,228.06,171.54ZM217.78,178c-1.1.34-1.28,1.47-2.69,1.47s-2.17,0-2.32-.63a1.46,1.46,0,0,0-.72-1.09c-6.22,0-8.66,1-9.72,4.41a3.56,3.56,0,0,1-.12,1.3,29,29,0,0,0-.33,3.94v5.7s4.4,6.82,6.93,9.88a5.07,5.07,0,0,0,3.11,2.47c1.57.23,2.94.19,4.88.38a10.3,10.3,0,0,0,6.93-1.47.37.37,0,0,1,.3-.37l-1.11-.85a11.42,11.42,0,0,0-1.66-1.19c-.38-.19-.68-.22-.88-.6a1.38,1.38,0,0,0-1.09-.69c-.35,0-.88.23-.86-.22s0-1.38,0-2,.17-1.65-.14-2-.57-.36-.67-.91a4.78,4.78,0,0,1-.08-2.14,23.91,23.91,0,0,0,1.27-2c.32-.63,3.05-3.8,3.05-6.27S218.88,179.41,217.78,178Z" fill="#fff"/><path d="M208.62,199.86a.21.21,0,0,1,.35,0,1,1,0,0,0,.29.24s.09-.44-.75-1.47a4.89,4.89,0,0,1-.42-.69c-.15-.3-.38-.63-.68-1.12a3.23,3.23,0,0,1-.53-1.38,16.28,16.28,0,0,0-1-2.38,5.73,5.73,0,0,0-.13-.7,9.53,9.53,0,0,1-.38-2c0-.74.07-1.71.07-2.63a7.87,7.87,0,0,1,.09-1.94c.13-.29.11-1,.21-1.15s.79-1,.79-1a4.9,4.9,0,0,0,.94-.19,23.62,23.62,0,0,1,4.08-.83A27.53,27.53,0,0,1,215,183a3.18,3.18,0,0,1,1.46.77,9.82,9.82,0,0,0,.93.66.62.62,0,0,1-.1.5,3.31,3.31,0,0,0-.37.84s-.57,1.2-1,1.94a7.57,7.57,0,0,0-.76,1.72s-.4.75-.77,1.58-.51,1.35-.76,1.85a4.24,4.24,0,0,0,0,1.94,6.44,6.44,0,0,0,.31,1.56,27.39,27.39,0,0,0,2.05,5.55.51.51,0,0,1-.48,0c-.51-.18-.47-.41-.82-.65a3.42,3.42,0,0,1-1.06-.94c-.54-.56-.68-1.13-1-1.47a4.27,4.27,0,0,0-.33-1c-.25-.64-1.05-1.93-1.38-2.56s-.94-1.69-1.38-2.45a2.67,2.67,0,0,1-.48-1.75,18.11,18.11,0,0,0,0-2.33,4,4,0,0,1,.18-1.37c.14-.38,0-1.09.79-1.25a8.34,8.34,0,0,1,1,0,7.1,7.1,0,0,0,1.13,0s1.16.56,1.1,1a6.07,6.07,0,0,0-.15,1.47,2.15,2.15,0,0,1-.17.65c-.15.33-.91,1.83-.91,1.83v-1a.86.86,0,0,0-.77-.78c-.37,0-.78.13-1,1.1,0,0-.1.15.15,1.12s.6,1.71,1.47,1.71,1-.89,1.06-1.27a3.47,3.47,0,0,1,.36-1.1c.12-.25.52-1.15.77-1.68a6.72,6.72,0,0,0,.66-2c0-1.1-.9-2.79-2.1-2.79a10.8,10.8,0,0,0-2.66.17c-.72.19-1.54.38-1.86.45s-.39.37-.52,1.23a12.87,12.87,0,0,0-.26,1.85,8.18,8.18,0,0,1,0,1,5.44,5.44,0,0,0-.21,1.28,3.21,3.21,0,0,0,.46,1.67,2.87,2.87,0,0,0,.57,1.16,9.9,9.9,0,0,1,.7,1.47,6.39,6.39,0,0,0,1,1.63,16.07,16.07,0,0,0,1.71,3c.14.24.55,1,.88,1.47a5.15,5.15,0,0,0,1.26,1.29,9.07,9.07,0,0,1,.72.81,7.48,7.48,0,0,0,3.45,1.4c1.1,0,1.47-.59,1-1a5.16,5.16,0,0,1-1.46-1.82c-.44-.9-.71-2-.94-2.47a8.78,8.78,0,0,1-.75-2,10.48,10.48,0,0,1-.44-2.78,4.61,4.61,0,0,1,.76-2.77,6.92,6.92,0,0,0,1-1.9,2.94,2.94,0,0,0,.67-1.3,9,9,0,0,0,2.24-3.81c0-.53-.44-.58-.61-1s-.92-.79-1.11-1.12-.72-1.3-1.47-1.3-.43.67-1.38.67a13,13,0,0,1-4.92-1,2,2,0,0,0-1,.09,20.51,20.51,0,0,1-3,.33c-1.12.11-1.85.61-2,1.71a33.61,33.61,0,0,0-.67,4.48v4.3a9.63,9.63,0,0,0,1.39,3.74s.62.91,1.66,2.29A19.69,19.69,0,0,0,208.62,199.86Z" fill="#fff"/><path d="M176.36,168l-1.06-2.37a6.72,6.72,0,0,0-4.41,6.16,6.31,6.31,0,0,0,6.36,6.24h.12a6.43,6.43,0,0,0,6.25-6.35,5.69,5.69,0,0,0-.55-2.57l-2.29.84a6.49,6.49,0,0,1,.33,1.85,3.62,3.62,0,0,1-3.58,3.51,4,4,0,0,1-4.07-3.67A4.06,4.06,0,0,1,176.36,168Z" fill="#fff"/><polygon points="179.43 156.71 177.54 158.66 186.34 167.15 188.21 165.19 185 162.09 188.9 158.31 192.17 161.33 193.59 159.55 184.97 151.1 183.29 152.67 187.3 156.75 183.45 160.73 179.43 156.71" fill="#fff"/><polygon points="194.14 145.12 192.11 146.21 197.82 156.98 199.88 155.88 194.14 145.12" fill="#fff"/><path d="M206,153.72l-2.38.4-2.38-11.92s5.72-1.1,6.33-1.1a4.19,4.19,0,0,1,4.4,4,2.81,2.81,0,0,1,0,.29,4.41,4.41,0,0,1-3.88,4l-2.85.64Zm.38-10.05-1.92.35.75,3.58,2-.4c1.46-.27,2-.95,2-1.85s-.55-2.12-2.82-1.68Z" fill="#fff"/><path d="M229.92,147.4a6.1,6.1,0,0,1-6,6.21h-.16a7,7,0,0,1-7.16-6.7,6.11,6.11,0,0,1,5.92-6.27h.31A7,7,0,0,1,229.92,147.4Zm-6.77-4.2a3.69,3.69,0,0,0-3.65,3.72,1.27,1.27,0,0,1,0,.2,4,4,0,0,0,4,3.92h0A3.75,3.75,0,0,0,227,147.1,4,4,0,0,0,223.15,143.2Z" fill="#fff"/><polygon points="244.65 149.57 235.8 144.3 234.61 146.07 238.22 148.22 233.01 156.78 235.09 158 240.41 149.44 243.42 151.36 244.65 149.57" fill="#fff"/><polygon points="251.36 155.97 249.7 154.06 240.5 162.17 246.02 168.67 247.96 167.22 243.7 162.4 251.36 155.97" fill="#fff"/><polygon points="260.17 175.85 262.17 175.12 258.88 166.76 247.4 171.01 250.75 179.58 252.86 178.83 250.23 172.55 252.33 171.73 254.25 176.62 256.38 175.88 254.47 171.02 257.68 169.76 260.17 175.85" fill="#fff"/><polygon points="173.02 201.95 177.15 200.39 175.08 203.19 178.47 203.96 174.36 205.51 174.9 206.95 181.23 204.55 180.67 203.02 177.38 202.34 179.41 199.7 178.82 198.19 172.51 200.57 173.02 201.95" fill="#fff"/><polygon points="184.68 212.55 185.77 211.78 182.89 207.56 177.31 211.36 180.2 215.65 181.3 214.9 179.26 211.84 180.39 211.05 182.19 213.68 183.32 212.93 181.53 210.3 182.63 209.54 184.68 212.55" fill="#fff"/><polygon points="188.98 215.16 187.71 214.02 187.12 218 183.05 218.98 184.33 220.13 186.97 219.44 186.55 222.17 187.88 223.34 188.46 219.17 192.36 218.25 191.07 217.1 188.57 217.76 188.98 215.16" fill="#fff"/><polygon points="196.35 221.09 195.09 220.3 191.5 226.06 192.79 226.85 196.35 221.09" fill="#fff"/><path d="M203.62,226.5l1.3-.77a4,4,0,0,0-3.4-2.07,3.55,3.55,0,0,0-.32,7.1,3.23,3.23,0,0,0,.44,0,3.27,3.27,0,0,0,1.72-.49L202.8,229a3.09,3.09,0,0,1-1.31.32,2,2,0,0,1-1.92-2h0a2.18,2.18,0,0,1,2.06-2.21A2.3,2.3,0,0,1,203.62,226.5Z" fill="#fff"/><path d="M214.09,233.12l-1.54-.18-.44-1.6-2.85-.33-.78,1.46-1.46-.2,3.67-6.45,1.47.19Zm-2.93-5.42L210,229.76l1.77.22Z" fill="#fff"/><polygon points="219.26 226.1 217.85 226.25 218.53 232.99 220.03 232.83 219.6 228.58 223.27 232.52 224.55 232.42 223.86 225.63 222.38 225.78 222.8 229.92 219.26 226.1" fill="#fff"/><path d="M234.62,223.88l.41-1.46a3,3,0,0,0-1.1-.22,3.69,3.69,0,0,0-3.79,3.55,3.5,3.5,0,0,0,3.38,3.61h0a4.4,4.4,0,0,0,3.8-2.49l-1.22-2.71-2.66,1.18.52,1.2,1.36-.61.4.86a2.72,2.72,0,0,1-2,1.12,2.18,2.18,0,0,1-2.07-2.23,2.05,2.05,0,0,1,2.08-2h0A2.61,2.61,0,0,1,234.62,223.88Z" fill="#fff"/><path d="M241.88,217.09a2.37,2.37,0,0,1,2.2,2.18,2.2,2.2,0,0,1-.37,1.27l2.79.88-1.38,1.11-2.47-.83-.89.7,1.31,1.72-1.19.94-4.15-5.38,2.5-2A2.68,2.68,0,0,1,241.88,217.09Zm-.84,1.74-1.29,1,1.17,1.47,1.21-1a1.17,1.17,0,0,0,.49-.85,1,1,0,0,0-.89-1A1.18,1.18,0,0,0,241,218.83Z" fill="#fff"/><polygon points="245.62 212.64 244.64 213.75 249.78 218.17 250.77 217.03 245.62 212.64" fill="#fff"/><polygon points="248.72 208.19 247.96 209.47 253.81 212.92 256.25 208.69 255.08 208.01 253.39 210.92 248.72 208.19" fill="#fff"/><polygon points="252.07 200.96 251.6 202.39 258.01 204.52 259.53 199.86 258.25 199.45 257.19 202.65 252.07 200.96" fill="#fff"/><path d="M388.58,303.46l1.79-13.92c.24-1.74.46-3.48.72-5.22,0-.2.28-.55.44-.55h7.55c-.26,2-.51,3.84-.76,5.69-.65,4.79-1.31,9.58-1.95,14.36-.45,3.28-.92,6.55-1.34,9.84,0,.55-.31.63-.76.63-2.24,0-4.48,0-6.72-.08a1.11,1.11,0,0,1-.77-.47c-2.94-5.1-6-10.18-8.93-15.32a40.09,40.09,0,0,1-1.9-4.6c-.11,1.47-.14,2.94-.3,4.32-.52,4.13-1.09,8.24-1.63,12.35-.15,1-.27,2.09-.44,3.11a.68.68,0,0,1-.46.53h-7.58c1.47-10.28,2.76-20.28,4.14-30.41q.38,0,.75,0h6.45a1.1,1.1,0,0,1,1.1.59c2.94,5,5.87,10,8.81,15A36.78,36.78,0,0,1,388.58,303.46Z" fill="#fff"/><path d="M329.69,299.58c.26-6.14,4-11.39,10.27-14.86A17.45,17.45,0,0,1,355,283.53a13.89,13.89,0,0,1,8.81,14.88c-1.13,9.17-9.45,15.78-17.63,16.43-5.87.48-10.85-1.47-14.34-6.41C330.36,306.23,329.67,303.68,329.69,299.58Zm15.93,8.16a13,13,0,0,0,1.76-.22,9.78,9.78,0,0,0,7.46-7.73,9,9,0,0,0-.38-6.14,7.34,7.34,0,0,0-9.8-3.43c-.25.12-.5.26-.73.4a10.73,10.73,0,0,0-5.45,10.62,6.72,6.72,0,0,0,6.93,6.51Z" fill="#fff"/><path d="M327.91,285.34l-3.55,6.12-.8-.68a7,7,0,0,0-5.93-1.77,4,4,0,0,0-1.76.94,2.21,2.21,0,0,0-.37,3.11,2.32,2.32,0,0,0,.9.68c1.14.55,2.39.86,3.56,1.33s2.49,1,3.68,1.56a5.63,5.63,0,0,1,3.11,5,12.45,12.45,0,0,1-11.28,13.5l-.67,0a13.65,13.65,0,0,1-11.41-4.1.83.83,0,0,1-.23-1.16.8.8,0,0,1,.15-.17c1.47-1.82,2.81-3.69,4.25-5.58.69.75,1.29,1.46,2,2.15a6.89,6.89,0,0,0,5.42,2.18,3.86,3.86,0,0,0,3.7-3.44,2.28,2.28,0,0,0-1.24-2.55c-1-.49-2.09-.87-3.15-1.27s-2.08-.7-3.08-1.17c-3.6-1.67-4.82-4.23-4.1-8.15a11.87,11.87,0,0,1,13.48-9.52,14.42,14.42,0,0,1,6.37,2.12Z" fill="#fff"/><path d="M440.83,293.56l-.84-1a7.93,7.93,0,0,0-10.63-1.47A11,11,0,0,0,425,302.15a6.84,6.84,0,0,0,8.27,5,8.45,8.45,0,0,0,.81-.26,21.18,21.18,0,0,0,4.05-2.21,13.08,13.08,0,0,0,1.15-.94c-.16,1.13-.28,2.05-.41,2.93-.28,1.79-.59,3.57-.84,5.36a1.46,1.46,0,0,1-1,1.32,17.37,17.37,0,0,1-12.13.59,12.17,12.17,0,0,1-8.36-10,18.83,18.83,0,0,1,11.91-20.88,16,16,0,0,1,13.31.87,1.06,1.06,0,0,1,.54.77C441.8,287.6,441.33,290.46,440.83,293.56Z" fill="#fff"/><path d="M442.83,279.6l5.72-6.38,3.85-4.4a5.33,5.33,0,0,0,.48-.69c1-1.47.61-2.4-1.23-2.35a45.4,45.4,0,0,0-7.09.57q-22.29,4.18-44.55,8.52c-12.43,2.41-24.85,4.89-37.27,7.34a2.53,2.53,0,0,1-1.4-.29c-1-.53-1.92-1.16-3-1.83l7.24-1.46L399,272.05c11.43-2.23,22.84-4.5,34.28-6.68,4.4-.86,8.81-1.63,13.28-2.26a24.3,24.3,0,0,1,6.26-.09c3.19.41,4.4,3.15,2.94,6a16.94,16.94,0,0,1-2.19,2.93c-2.47,2.82-5,5.57-7.48,8.37-.36.4-.63.52-1.13.24S443.59,280,442.83,279.6Z" fill="#fff"/><path d="M436.89,318.08l2.94-1c.16.28.32.53.47.79,1.7,3.14,3.42,6.26,5.05,9.43a7.6,7.6,0,0,1,.94,2.86,5.76,5.76,0,0,1-4.87,6.53,5.49,5.49,0,0,1-1.46,0,43.62,43.62,0,0,1-7.63-1c-11.33-2.31-22.63-4.69-33.94-7l-39.64-8.24L351,318.74l-.25-.07c1.46-.65,2.93-1.32,4.4-1.95a.92.92,0,0,1,.57,0l36.71,7.66,36.1,7.53c3.07.64,6.13,1.27,9.23,1.77a9.54,9.54,0,0,0,3.37-.09,2.62,2.62,0,0,0,2.18-3,2.83,2.83,0,0,0-.13-.5,7.82,7.82,0,0,0-.69-1.63C440.74,325.06,438.85,321.62,436.89,318.08Z" fill="#fff"/><path d="M362.83,274.6c-2.54.52-4.82,1.07-7.14,1.37a9.46,9.46,0,0,1-2.94-.46c-12.37-2.42-24.72-4.87-37.1-7.27-4.41-.85-8.81-1.6-13.22-2.29a40.84,40.84,0,0,0-4.56-.23,2.93,2.93,0,0,0-.93.16c-.91.26-1.17.73-.7,1.57a12.54,12.54,0,0,0,1.6,2.29c3.29,3.75,6.63,7.45,10,11.16.19.21.37.41.57.66l-2.12,2L303,279.89c-2.48-2.76-5-5.52-7.41-8.3a15.7,15.7,0,0,1-1.47-1.89c-2.28-3.5-.63-6.83,3.54-6.86a45.14,45.14,0,0,1,8.6.74c16.39,3.08,32.75,6.27,49.1,9.44l6.74,1.32C362.2,274.38,362.4,274.47,362.83,274.6Z" fill="#fff"/><path d="M401.33,314.25c1.47-10.28,2.83-20.35,4.23-30.43h8.07c-.22,1.65-.41,3.18-.63,4.7-.7,5.13-1.47,10.28-2.13,15.36q-.67,4.92-1.38,9.83a.78.78,0,0,1-.48.52C406.44,314.26,403.93,314.25,401.33,314.25Z" fill="#fff"/><path d="M335,317.22l-8.81,3.09-21.53,7.52a17.65,17.65,0,0,1-6.23,1.12c-4.08-.1-6.16-2.85-4.86-6.73a15,15,0,0,1,2.34-4.09c1.16-1.55,2.57-2.94,3.87-4.41l1.75,1.76c-.94,1-1.92,2-2.82,3.13a23.35,23.35,0,0,0-2.3,3.11,6.68,6.68,0,0,0-.71,2.43,1.82,1.82,0,0,0,1.45,2.13l.23,0a10.76,10.76,0,0,0,5.75-.64c6.85-2.32,13.67-4.71,20.56-7.08,2.75-.95,5.51-1.91,8.24-2.94a1.16,1.16,0,0,1,1.3.2A7.89,7.89,0,0,0,335,317.22Z" fill="#fff"/><path d="M444.15,342.35a1.76,1.76,0,0,1-1.81-1.71v-.11a1.78,1.78,0,0,1,1.76-1.79h0a1.82,1.82,0,0,1,1.86,1.78h0a1.79,1.79,0,0,1-1.79,1.82Zm.73-.63a1.47,1.47,0,0,0-.67-2.86,1.54,1.54,0,0,0-.8.5,1.47,1.47,0,0,0-.36,2,1.3,1.3,0,0,0,1.8.38l.1-.08Z" fill="#fff"/><path d="M444.91,341.69a1.31,1.31,0,0,1-1.84-.2.86.86,0,0,0-.07-.1,1.65,1.65,0,1,1,2.63-.16,1.41,1.41,0,0,1-.79.49c0-.53-.41-1.05,0-1.58,0,0-.3-.55-.5-.59s-.94,0-1,.16a11.68,11.68,0,0,0,0,1.87h.24l.25-.88Z" fill="#fff"/><path d="M444.91,341.69l-1-1-.25.88h-.23a9.63,9.63,0,0,1,0-1.86c0-.12.64-.24,1-.16a.84.84,0,0,1,.5.58c-.48.53,0,1.06,0,1.59Z" fill="#fff"/><polygon points="113 310.74 113 289.79 123.85 289.79 123.85 294.38 117.71 294.38 117.71 298.01 123.49 298.01 123.49 302.5 117.71 302.5 117.71 310.74 113 310.74" fill="#fff"/><path d="M131.8,299.68h.9a3.49,3.49,0,0,0,2.28-.61,2.61,2.61,0,0,0,.72-2,3,3,0,0,0-.68-2.23,3.08,3.08,0,0,0-2.26-.7h-1Zm-4.52,11.06v-21h5a17.9,17.9,0,0,1,4.13.32,4.93,4.93,0,0,1,2,1.15,5.63,5.63,0,0,1,1.46,2.2,8,8,0,0,1,.52,2.94,7.06,7.06,0,0,1-1,4,4.86,4.86,0,0,1-2.94,2l4.83,8.44h-5.49l-4.06-8.2v8.2Z" fill="#fff"/><rect x="144.08" y="289.79" width="4.88" height="20.95" fill="#fff"/><path d="M158.43,306h.8a5.46,5.46,0,0,0,4.16-1.38,6.24,6.24,0,0,0,1.31-4.4,6.36,6.36,0,0,0-1.31-4.41,5.51,5.51,0,0,0-4.16-1.39h-.8Zm-4.79,4.7v-21h3.7a25.67,25.67,0,0,1,5.87.46,8,8,0,0,1,2.94,1.47,8.82,8.82,0,0,1,2.56,3.56,14.61,14.61,0,0,1,0,9.89,8.92,8.92,0,0,1-2.56,3.56,7.55,7.55,0,0,1-2.94,1.47,20.36,20.36,0,0,1-5.11.46h-4.5Z" fill="#fff"/><path d="M170.89,310.74l6.11-21h6.05l6.13,21h-4.81l-.89-3.75h-6.82l-.92,3.75Zm6.77-7.83h4.88L180.73,296a8.68,8.68,0,0,0-.23-1c-.11-.47-.22-1.07-.37-1.8-.1.51-.21,1-.31,1.47s-.2.92-.31,1.35Z" fill="#fff"/><path d="M193.92,310.74v-9.56l-6.2-11.44h5.55l2.38,5.39v.16a6.63,6.63,0,0,1,.51,1.62,7.18,7.18,0,0,1,.53-1.56l.09-.22,2.37-5.39h5.55l-6.2,11.4v9.56Z" fill="#fff"/><path d="M207.15,304a9.1,9.1,0,0,0,2.13,2.16,3.63,3.63,0,0,0,2.08.72,2.15,2.15,0,0,0,1.59-.62,2.05,2.05,0,0,0,.63-1.55,2.22,2.22,0,0,0-.54-1.62,6.19,6.19,0,0,0-2.44-1.16,7.58,7.58,0,0,1-3.67-2.17,5.6,5.6,0,0,1-1.07-3.64,7,7,0,0,1,1.64-4.88,5.61,5.61,0,0,1,4.41-1.89,8.32,8.32,0,0,1,2.79.45,9.29,9.29,0,0,1,2.48,1.47l-1.47,4.11A6.74,6.74,0,0,0,214,294.1a3.93,3.93,0,0,0-1.72-.42,2,2,0,0,0-1.47.5,1.58,1.58,0,0,0-.54,1.26,1.72,1.72,0,0,0,.47,1.26,5,5,0,0,0,1.85.9l.22.07a8.42,8.42,0,0,1,3.88,2.09,5,5,0,0,1,1.07,1.73,8.42,8.42,0,0,1,.34,2.39,7.66,7.66,0,0,1-1.85,5.36,6.35,6.35,0,0,1-4.94,2,7.55,7.55,0,0,1-3.37-.75A9.36,9.36,0,0,1,205,308.2Z" fill="#fff"/><path d="M93.2,296.53V283.31h12.48l-13.6-13.93H78.19v11.74Zm44.13,19.22H112l14.79,15.11h25.39Zm-7.65-32.42h25.75l-13.6-13.94H116.06Zm57.38,32.42H161.3L176,330.86h25.75Zm-7.65-32.42h23.83l-13.58-13.94H165.8Zm44.45,21.1v11.29H211l14.69,15.11h12.67V319.39ZM102.72,330.86,78.19,305.72v25.14Zm110.89-61.47,24.84,25.45V269.39Z" fill="#fff"/><polygon points="108.49 308.19 100.42 308.19 100.42 311.05 98.8 311.05 98.8 303.35 100.42 303.35 100.42 306.22 108.49 306.22 108.49 308.19" fill="#fff"/><path d="M104.92,297.58h-1.68v-4.21h3.87a5.49,5.49,0,0,1,1,1.78,6.35,6.35,0,0,1,.45,2.36,5.36,5.36,0,0,1-.64,2.66,4,4,0,0,1-1.78,1.69,5.92,5.92,0,0,1-2.58.57,5.58,5.58,0,0,1-2.69-.63,4.41,4.41,0,0,1-1.81-1.87,5.21,5.21,0,0,1-.47-2.3,4.74,4.74,0,0,1,.75-2.82,3.46,3.46,0,0,1,2.1-1.31l.36,1.94a2,2,0,0,0-1.12.76,2.41,2.41,0,0,0-.43,1.47,2.65,2.65,0,0,0,.83,2,3.32,3.32,0,0,0,2.4.76,3.81,3.81,0,0,0,2.59-.76,2.57,2.57,0,0,0,.86-2,3.49,3.49,0,0,0-.23-1.24,4.72,4.72,0,0,0-.59-1.05h-1.23Z" fill="#fff"/><rect x="98.8" y="289.67" width="9.69" height="1.95" fill="#fff"/></svg>