<?xml version="1.0" encoding="UTF-8"?>
<svg width="100%" height="100%" viewBox="0 0 330 262" version="1.1" xmlns="http://www.w3.org/2000/svg" xmlns:xlink="http://www.w3.org/1999/xlink">
    <!-- Generator: Sketch 47.1 (45422) - http://www.bohemiancoding.com/sketch -->
    <title>Artboard</title>
    <desc>Created with Sketch.</desc>
    <defs></defs>
    <g id="Page-1" stroke="none" stroke-width="1" fill="none" fill-rule="evenodd">
        <g id="Artboard" fill-rule="nonzero">
            <g id="comparison" transform="translate(1.000000, 3.000000)">
                <g id="Clipped" transform="translate(0.000000, 227.000000)" fill="#A91F25">
                    <ellipse id="Oval" cx="95.28" cy="13.94" rx="95.28" ry="13.67"></ellipse>
                </g>
                <path d="M153.33,240.66 C158.79,242.58 165.64,244.44 170.28,247.98 C166.256421,246.770858 162.15303,245.845256 158,245.21 C154.24,244.58 150.68,243.3 147,242.43 C144,241.72 141.61,241.7 139.55,242.59 C137.741314,243.441119 136.178958,244.738493 135.01,246.36 C132.93,249.01 130.43,251.68 128.79,254.61 C129.36,252.87 128.79,250.3 129.25,248.35 C129.93,245.66 134.7,242.82 133.87,239.91 C133.11,237.2 128.87,237.91 126.87,238.18 C121.07,238.97 115.29,238.46 109.79,240.99 C113.022141,238.736966 116.584599,236.999593 120.35,235.84 C123.45,234.95 128.23,236.38 130.86,234.14 C133.24,232.14 130.86,227.35 130,224.84 C128.49,220.53 125.07,217.45 122.46,213.73 C121.46,212.31 116.68,205.64 118.46,204.39 C117.64,203.2 118.15,201.64 118.84,200.01 L118.94,199.78 C120.94,195.13 125,195.17 129.21,197.44 C135.77,201 133.35,209.71 134.66,215.94 C135.74,221.13 138.79,227.79 142.57,231.49 C146.88,235.67 151.64,236.28 157.39,236.97 C161.85,237.5 169.98,236.97 173.31,240.43 C166.61,238.05 160,241.71 153.33,240.66 Z" id="Shape" fill="#FFC629"></path>
                <path d="M139.56,242.59 C137.751314,243.441119 136.188958,244.738493 135.02,246.36 C132.94,249.01 130.44,251.68 128.8,254.61 C129.37,252.87 128.8,250.3 129.26,248.35 C129.94,245.66 134.71,242.82 133.88,239.91 C133.12,237.2 128.88,237.91 126.88,238.18 C121.08,238.97 115.3,238.46 109.8,240.99 C113.032141,238.736966 116.594599,236.999593 120.36,235.84 C123.46,234.95 128.24,236.38 130.87,234.14 C133.25,232.14 130.87,227.35 130.01,224.84 C128.5,220.53 125.08,217.45 122.47,213.73 C121.47,212.31 116.69,205.64 118.47,204.39 C117.65,203.2 118.16,201.64 118.85,200.01 C119.953396,199.813172 121.090927,199.992782 122.08,200.52 C122.868719,200.974475 123.484244,201.677932 123.83,202.52 C124.26,203.52 124.46,204.59 124.91,205.61 C125.72,207.68 127.17,209.43 128.01,211.48 C129.4,214.84 130.89,217.86 132.45,221.11 C135.06,226.58 134.31,232.97 137.58,237.86 C138.533518,239.297086 139.205424,240.902194 139.56,242.59 L139.56,242.59 Z" id="Shape" fill="#F89C1C"></path>
                <path d="M91.33,237.42 C87.46,235.91 82.94,237.92 78.84,236.59 C76.8221909,235.962851 74.8671004,235.149346 73,234.16 C71.7,233.45 70.25,232.43 68.63,232.81 C66.08,233.43 65.39,238.61 64.14,240.89 C63.4930461,242.009203 62.778384,243.087875 62,244.12 C61.5950387,244.71792 61.237289,245.34649 60.93,246 C60.29,247.42 60.07,249.07 59.3,250.44 C58.38,246.44 57.63,242.44 58.69,238.44 C59.32,236 60.28,232.67 56.69,233.05 C53.6,233.37 50.57,234.93 47.47,235.35 C43.7201175,235.799978 39.9298825,235.799978 36.18,235.35 C33.66,235.07 30.7,234.19 28.02,234.11 C29.21,234 30.42,233.74 31.53,233.57 C34.45,233.07 37.35,232.86 40.27,232.49 C42.42,232.18 44.58,231.89 46.81,231.49 C48.64,231.17 50.73,231.49 52.37,230.49 C55.14,228.76 56.17,224.57 56.68,221.63 C57.4191856,217.726767 58.421472,213.877987 59.68,210.11 C60.319263,208.298225 60.6800324,206.399971 60.75,204.48 C60.75,202.94 59.91,200.17 60.55,198.91 C60.371192,197.671275 60.5992874,196.407978 61.2,195.31 C63.52,191.31 71.2,191.76 75.71,191.93 C74.36,195.93 72.99,200.01 71.4,203.93 C69.96,207.5 68.17,211.25 67.76,215.08 C67.58,216.73 66.52,221.31 67.88,222.57 C68.28,222.93 70.43,223.16 71.02,223.31 C71.61,223.46 72.29,223.62 72.93,223.76 C73.82,223.96 74.71,224.15 75.55,224.42 C76.8149622,224.879166 78.0255763,225.47609 79.16,226.2 C79.8,226.55 80.44,226.91 81.16,227.2 C80.36,227.04 79.3,227.57 78.27,227.55 C76.78,227.55 75.33,226.98 73.76,227.12 C69.99,227.44 71.26,228.96 73.67,230.35 C76.4251029,231.808882 79.3416537,232.939926 82.36,233.72 C85.470704,234.637558 88.477025,235.877623 91.33,237.42 L91.33,237.42 Z" id="Shape" fill="#FFC629"></path>
                <path d="M91.33,237.42 C87.46,235.91 82.94,237.92 78.84,236.59 C76.8221909,235.962851 74.8671004,235.149346 73,234.16 C71.7,233.45 70.25,232.43 68.63,232.81 C66.08,233.43 65.39,238.61 64.14,240.89 C63.4930461,242.009203 62.778384,243.087875 62,244.12 C61.9700626,243.931179 61.9700626,243.738821 62,243.55 C62.19,241.17 63.85,238.9 64.39,236.55 C64.6780923,234.87929 64.7419894,233.17761 64.58,231.49 C64.51,228.65 63.58,226.1 62.96,223.33 C62.624309,221.232221 62.6378247,219.093369 63,217 C63.3,213.44 63.68,209.84 63.86,206.22 C64,203.37 63.72,199.22 61.23,197.22 C62.08,196.68 61.23,196.37 61.16,195.22 L61.16,195.15 C63.49,191.15 71.16,191.61 75.68,191.78 C74.32,195.78 72.95,199.85 71.37,203.78 C69.93,207.34 68.14,211.1 67.73,214.92 C67.54,216.57 66.49,221.15 67.85,222.41 C68.79,223.29 70.99,223.58 72.9,223.61 C73.78,223.8 74.68,224 75.52,224.27 C76.7829037,224.729826 77.9930973,225.323189 79.13,226.04 C79.7788867,226.407767 80.4464543,226.741551 81.13,227.04 C80.32,226.88 79.27,227.4 78.23,227.38 C76.75,227.38 75.3,226.81 73.73,226.95 C69.96,227.27 71.23,228.79 73.64,230.18 C76.3947679,231.642083 79.3113041,232.776478 82.33,233.56 C85.4593032,234.521394 88.4765385,235.815452 91.33,237.42 Z" id="Shape" fill="#F89C1C"></path>
                <path d="M28,234.14 C27.4325547,234.206583 26.8603663,234.223314 26.29,234.19 C26.8577985,234.128395 27.429572,234.111676 28,234.14 L28,234.14 Z" id="Shape" fill="#FFC629"></path>
                <path d="M188,32 C187.85,34.88 174.32,35.37 172.91,39.86 C171.11,45.62 165.5,50.15 165.17,56.35 C165.1,57.67 165.91,60.6 164.76,61.22 C164.86,62.94 166.32,70.33 163.38,70.22 C162.94,73.22 162.11,76.16 161.93,79.22 C161.988891,81.1974451 161.81096,83.1748336 161.4,85.11 C160.972995,86.2502432 160.736503,87.4529728 160.7,88.67 C160.7,91.4 160.8,93.38 159.62,95.86 C159.062668,96.7558811 158.813349,97.8093429 158.91,98.86 C159.002915,99.7606964 159.146476,100.655446 159.34,101.54 C160.34,106.33 162.58,110.63 164.44,115.16 C166.91,121 167.86,125.93 166.6,132.27 C166.21,134.07 165.93,135.79 165.6,137.52 C165.286553,139.245493 164.862342,140.949016 164.33,142.62 C161.68,150.74 156.25,158.44 150.77,164.97 C146.23,170.36 142.24,171.22 141.77,178.16 C141.77,178.46 141.72,178.79 141.7,179.11 C141.48,186.94 139.55,190.11 136.56,194.93 C135.421797,196.752892 134.688581,198.799077 134.41,200.93 C134.3,202.23 135.11,204.31 134.41,205.49 C133.52,206.88 132.95,205.49 132.12,205.27 C131.923841,205.250012 131.726159,205.250012 131.53,205.27 C131.297154,205.258179 131.063964,205.285216 130.84,205.35 C130.304324,205.489859 129.744464,205.510342 129.2,205.41 C128.900021,205.204639 128.694748,204.887726 128.63,204.53 C128.509964,203.871604 128.301406,203.232475 128.01,202.63 C127.825305,202.319001 127.500661,202.117498 127.14,202.09 C127.03763,202.070042 126.93237,202.070042 126.83,202.09 C126.37,202.23 126.19,202.86 125.89,203.36 C125.674988,203.837289 125.181441,204.126194 124.66,204.08 C123.22,204 123.26,201.67 121.12,203.2 C119.72,204.2 119.71,205.74 117.52,205.48 C116.9,203.84 117.34,201.91 116.29,200.43 C115.065959,198.967685 113.764074,197.572332 112.39,196.25 C109.53,193.1 106.19,187.71 103.59,184.57 L102.99,183.87 L102.53,183.38 C103.1,183.96 94.53,185.45 94.1,185.54 C89.65,185.91 84.4,186.2 80.26,188.12 C78.26,189.05 77.75,190.58 77.13,192.51 C76.43,194.67 75.59,194.75 74.03,196.39 C73.43,197.02 73.89,197.62 73.03,197.79 C72.62,197.88 71.95,196.63 71.2,196.71 C70.45,196.79 69.65,198.27 69.04,198.71 C67.13,196.99 64.8,200.32 62.5,200.36 C61.1547296,200.499797 59.8023681,200.559902 58.45,200.54 C56.29,200.2 56.65,193.33 56.29,191.81 C54.62,185.17 49.68,180.18 45.51,175.05 C40.74,169.24 35.93,163.43 33.13,156.35 C29.89,148.13 29.26,139.21 29.82,130.48 C29.9466667,128.52 30.13,126.576667 30.37,124.65 C30.6523793,121.377355 31.2757603,118.143147 32.23,115 L32.29,114.81 C32.3597053,114.622344 32.4398299,114.438725 32.53,114.26 C32.53,114.26 28.67,108.41 26.91,105.45 C26.8267472,105.308506 26.7532433,105.161498 26.69,105.01 C26.4260881,104.408117 26.267127,103.765508 26.22,103.11 C26.1693849,101.723201 26.2699782,100.335014 26.52,98.97 C26.7629542,97.8187704 26.796827,96.6332234 26.62,95.47 L26.56,95.1 C26.5018443,93.1063619 27.0005019,91.1359717 28,89.41 C28.2280479,88.9688181 28.4818185,88.5414151 28.76,88.13 C29.3237178,87.1851005 30.0518415,86.3486049 30.91,85.66 L31.1,85.53 C31.6392541,85.2371393 32.1971154,84.9799219 32.77,84.76 C34.28,84.13 36.12,83.31 36.37,82.08 C36.3800389,81.983594 36.3800389,81.886406 36.37,81.79 L36.37,81.71 C36.25,79.94 33.13,79.92 33.13,77.82 C33.22,74.65 36.56,77.22 38.18,77.22 C39.07,74.28 38.53,72.22 42.1,74.22 C44.26,75.46 43.1,75.3 44.26,73.39 C45.2,71.82 46.26,71.54 47.66,72.94 C49.36,74.69 50.57,77.69 51.97,79.68 C53.1,81.24 57.04,86.14 59.16,83.57 C61.28,81 68.16,80.88 74.42,80.66 C76.8876597,80.4633293 79.3277672,80.007485 81.7,79.3 C87.7,77.66 94.63,74.99 98.15,73.78 C101.5,72.64 104.38,70.78 108.22,68.32 C110.3,67.02 112.64,65.58 115.5,64.01 C123.68,59.53 119.5,58.9 122.21,48.12 C124.92,37.34 122.21,40.57 124.1,35.8 C125.18,33.11 127.2,31.33 128.83,29.03 L128.3,28.77 C128.01,27.05 131.84,25.54 130.08,24.28 C130.91,23.28 132.02,22.72 132.93,21.85 C133.84,20.98 136.79,19.07 136.83,17.96 C136.270227,17.9272081 135.714601,17.8435295 135.17,17.71 C135.17,15.64 140.56,12.71 142.17,11.71 C145.178129,9.81225246 148.445422,8.36049621 151.87,7.4 C156.19,6.17 162.22,4.66 166.76,5.48 C173.129607,6.35113645 179.202153,8.71915535 184.48,12.39 C191.9,17.82 188.16,29.12 188,32 Z" id="Shape" fill="#FFFFFF"></path>
                <path d="M188.87,17.09 L189.26,27.78 C189.34,29.58 189.92,31.44 188.26,32.66 C186.96,33.66 185.16,33.84 183.7,34.4 C181.37773,35.3408886 178.965117,36.0412165 176.5,36.49 C174.63,36.82 172.69,36.49 170.82,36.86 C169.89,37.02 168.49,37.54 167.75,36.63 C166.75,35.39 169.15,32.69 169.75,31.63 C170.7,30 170.83,28.15 169.44,26.77 C168.62,25.98 165.94,24.62 167.29,23.18 C168.82,21.45 172.29,21.61 174.4,21.41 C176.057385,21.3076319 177.699588,21.0328142 179.3,20.59 C179.65,20.48 179.99,20.35 180.3,20.21 C181.3,19.8 182.18,19.3 183.2,18.96 C183.64,18.84 188.88,17.37 188.87,17.09 Z" id="Shape" fill="#EE4446"></path>
                <path d="M172.7,6.76 C172.7,6.76 185.38,10.5 186.61,17.18 C187.84,23.86 188.94,18.94 188.94,18.94 C189.85,17.75 189.64,16.78 189.58,15.37 C189.58,15.08 189.44,14.85 189.46,14.52 C189.48,14.19 189.83,14.13 189.78,13.74 C188.6,13.74 189.48,12.85 189.35,12.18 C189.22,11.51 188.9,11.65 188.15,11.52 C186.77,11.27 187.3,11.21 187.75,10.23 C188.66,8.23 186.07,9.86 185.46,8.79 C184.85,7.72 186.6,6.89 185.05,6.27 C184.53,6.08 183.46,6.46 183.33,5.68 C183.2,4.9 184.41,4.73 184.41,4.18 C184.41,2.69 182.02,4.52 181.34,4.18 C179.99,3.58 181.6,2.4 180.92,1.65 C180.07,0.72 178.76,2.31 178,2.45 C176,2.83 177.46,1 177.05,0.29 C176.34,-0.97 174.84,2.29 174.5,2.5 C173.84,2.95 173.42,1.2 172.81,2.5 C172.271632,3.35034443 171.790565,4.23564158 171.37,5.15 C171.23,5.71 172.7,6.76 172.7,6.76 Z" id="Shape" fill="#BF2026"></path>
                <path d="M173,17 C172.7,17.87 171.28,18.64 170.25,18.95 C169.996861,19.0465686 169.730454,19.1038966 169.46,19.12 C168.274365,19.2870039 167.065879,19.0954571 165.99,18.57 C165.871586,18.494582 165.761033,18.4074796 165.66,18.31 C165.044811,17.7469432 164.476282,17.1349385 163.96,16.48 C164.538872,15.1122373 165.741261,14.1071446 167.19,13.78 L167.19,13.78 C168.073984,13.5398793 169.006016,13.5398793 169.89,13.78 C170.364397,13.9121621 170.813757,14.1216382 171.22,14.4 C172.34,15 173.34,16 173,17 Z" id="Shape" fill="#E6E7E8"></path>
                <path d="M170.53,18.77 L170.28,18.91 C170.026861,19.0065686 169.760454,19.0638966 169.49,19.08 C168.304365,19.2470039 167.095879,19.0554571 166.02,18.53 C165.901586,18.454582 165.791033,18.3674796 165.69,18.27 C165.321303,17.8403014 165.131591,17.2854832 165.16,16.72 C165.242308,15.4112892 166.043275,14.2560488 167.24,13.72 L167.24,13.72 C168.123984,13.4798793 169.056016,13.4798793 169.94,13.72 C170.414397,13.8521621 170.863757,14.0616382 171.27,14.34 C172.67,15.61 172.11,17.74 170.53,18.77 Z" id="Shape" fill="#F89C1C"></path>
                <path d="M177.89,32.63 L177.89,32.8 C177.62,35.03 176.66,38.57 178.01,40.63 C179.23,42.49 181.6,42.11 183.25,41.06 C186.25,39.2 186.41,34.78 188.15,32.06 C188.82,30.98 189.65,30.73 188.38,29.91 C186.87,28.91 183.53,29.21 181.91,29.69 C179.85,30.2 178.24,30.36 177.89,32.63 Z" id="Shape" fill="#BF2026"></path>
                <path d="M198.05,30.08 C198.155952,31.4732753 197.842504,32.8663773 197.15,34.08 C197.08,34.23 196.43,35.22 195.88,36.08 C195.632493,36.4588979 195.358475,36.8197998 195.06,37.16 C194.39,36.44 194.74,35 193.98,34.05 C193.089387,33.0703838 191.902022,32.4099558 190.6,32.17 C188.677968,31.690661 186.71002,31.4191043 184.73,31.36 C182.698635,31.1798558 180.652294,31.4390591 178.73,32.12 C177.73,32.54 176.52,32.85 177.2,31.36 C177.6,30.52 180.1,27.54 178.2,26.94 C176.93,26.54 174.62,26.57 173.89,25.32 C173.83001,25.2183079 173.779786,25.1111628 173.74,25 L173.74,24.8 C173.57,24.07 174.35,23.8 175.22,23.54 C179.04,22.46 183.45,23.54 185.58,19.39 C186.34,17.91 185.84,15.39 188.06,15.57 C189.3,15.69 190.97,17.06 191.8,17.91 C193.227552,19.5251425 194.478017,21.2885319 195.53,23.17 C196.877979,25.2550026 197.739272,27.6167236 198.05,30.08 L198.05,30.08 Z" id="Shape" fill="#FFC629"></path>
                <path d="M195.08,37.18 L195.08,37.18 C194.41,36.46 194.76,35.03 194,34.07 C193.106632,33.0938657 191.920517,32.4341332 190.62,32.19 C188.701239,31.7112935 186.736673,31.4397408 184.76,31.38 C182.728756,31.2060512 180.683721,31.465089 178.76,32.14 C177.76,32.56 176.55,32.87 177.23,31.38 C177.63,30.54 180.13,27.56 178.23,26.97 C176.96,26.57 174.65,26.59 173.92,25.34 C173.861977,25.2407449 173.811823,25.1370941 173.77,25.03 L173.77,24.84 C173.95,24.78 174.05,24.69 174.03,24.61 C176.18,24.42 178.64,25.04 180.81,25.23 C183.446767,25.5100064 186.005875,26.290636 188.35,27.53 C190.83,28.77 194.35,30.38 195.05,33.9 C195.144855,34.9909101 195.154885,36.0875374 195.08,37.18 L195.08,37.18 Z" id="Shape" fill="#F89C1C"></path>
                <path d="M136.46,195 C135.321912,196.823832 134.585559,198.869258 134.3,201 C134.2,202.3 135.01,204.38 134.3,205.56 C133.42,206.95 132.85,205.56 132.02,205.34 C131.823841,205.320012 131.626159,205.320012 131.43,205.34 C131.197136,205.327611 130.963852,205.354658 130.74,205.42 C130.204276,205.559536 129.644488,205.580016 129.1,205.48 C128.796655,205.277941 128.590358,204.959448 128.53,204.6 L125.79,203.52 C125.571847,203.993372 125.07902,204.277849 124.56,204.23 C123.12,204.16 123.16,201.83 121.02,203.36 C119.61,204.36 119.6,205.89 117.42,205.63 C116.8,203.99 117.23,202.07 116.19,200.63 C114.965771,199.167851 113.663896,197.772508 112.29,196.45 C109.43,193.3 104.81,187.29 102.21,184.15 C104.36,182.62 107.92,180.77 110.65,178.87 C115.65,175.43 120.45,171.87 124.36,167.22 C126.51,164.6 127.44,161.48 129.16,158.65 C130.556784,156.502853 131.838588,154.283062 133,152 C133.931981,149.930657 134.448424,147.698402 134.52,145.43 C134.493195,144.290986 134.54666,143.151499 134.68,142.02 C136.16,142.54 137.14,144.4 138.16,145.51 C141.04,148.64 142.04,153.13 142.73,157.21 C145,170.93 143.9,182.89 136.46,195 Z" id="Shape" fill="#E6E7E8"></path>
                <path d="M99.39,184.57 C99.9915297,184.66019 100.606054,184.551331 101.14,184.26 C101.699263,184.030379 102.240745,183.759638 102.76,183.45 C103.796681,182.840065 104.79826,182.172346 105.76,181.45 C107.76,180.01 109.66,178.45 111.57,176.99 C115.418927,174.10636 118.886594,170.746218 121.89,166.99 C124.95985,163.274824 127.715981,159.311213 130.13,155.14 C132.43,150.93 134.44,146.45 134.74,141.51 C135.37,146.45 133.87,151.51 131.74,155.98 C129.565524,160.448131 126.88098,164.649443 123.74,168.5 C120.613333,172.40476 116.878976,175.781213 112.68,178.5 C110.63,179.89 108.58,181.22 106.41,182.5 C105.322355,183.098064 104.20416,183.638803 103.06,184.12 C101.9,184.42 100.61,185 99.39,184.57 Z" id="Shape" fill="#D0D2D3"></path>
                <path d="M112.09,95.84 C110.41,98.15 108.62,100.35 107,102.76 C104.43592,106.605479 101.598602,110.261576 98.51,113.7 C96.72,115.7 94.89,117.7 93.28,119.8 C91.67,121.9 90.4,124 88.68,126 C86.9740535,128.163941 84.9110625,130.020633 82.58,131.49 C79.83,133.04 76.86,133.31 73.74,133.4 C70.62,133.49 67.61,133.22 64.55,133.22 C61.49,133.22 58.41,134.22 55.29,134.63 C52.9288954,134.939858 50.5402053,134.980117 48.17,134.75 C45.64,134.45 43.39,133.11 40.99,132.46 C37.18,131.38 33.33,131.58 29.59,130.46 C29.71,128.46 29.9,126.56 30.14,124.63 C30.4211094,121.311343 31.0581011,118.032512 32.04,114.85 L33.12,115.47 C34.7585341,116.547855 36.2979347,117.769336 37.72,119.12 C41.47,122.21 45.27,124.78 50.21,125.23 C53.1006535,125.367444 55.9974208,125.16269 58.84,124.62 C62.2530895,124.133706 65.6378771,123.466095 68.98,122.62 C70.3992656,122.351355 71.7752731,121.890443 73.07,121.25 C74.44,120.5 75.86,119.7 77.28,119.1 C79.43,118.1 81.59,117.01 83.6,115.86 C86.9589763,113.890408 90.146819,111.642528 93.13,109.14 C95.768109,106.970849 98.562327,104.998853 101.49,103.24 C102.2,102.8 102.94,102.63 103.64,102.17 C104.34,101.71 105.01,100.94 105.8,100.4 C106.99,99.5 108.2,98.62 109.33,97.65 C110.46,96.68 110.95,95.65 111.95,94.84 C112.586563,94.2763082 113.254281,93.748811 113.95,93.26 C113.439322,94.1937625 112.81453,95.0604097 112.09,95.84 L112.09,95.84 Z" id="Shape" fill="#E6E7E8"></path>
                <path d="M81.63,79.2 C79.96,80.27 77.32,80.53 75.53,81.35 L74.37,81.93 C72.21,82.93 70.06,83.99 67.9,84.87 C66.5968063,85.4103369 65.2608191,85.8679126 63.9,86.24 C60.3868227,87.1854234 56.7143363,87.3830155 53.12,86.82 L51.46,86.6 L51.46,86.6 C50.145784,86.5270583 48.8553271,86.2188389 47.65,85.69 C47.4195761,85.3778374 47.1582535,85.0897125 46.87,84.83 C44.72,82.83 41.16,82.5 38.46,82.1 C37.83,81.99 37.05,81.87 36.31,81.71 C36.19,79.94 33.08,79.92 33.08,77.82 C33.16,74.65 36.5,77.22 38.08,77.22 C38.97,74.28 38.44,72.22 42,74.22 C44.16,75.46 43,75.3 44.16,73.39 C45.11,71.82 46.16,71.54 47.56,72.94 C49.27,74.69 50.47,77.69 51.88,79.68 C53,81.19 57,86.09 59.07,83.52 C61.14,80.95 68.07,80.83 74.34,80.61 C76.8119648,80.3915352 79.2548546,79.9190421 81.63,79.2 Z" id="Shape" fill="#E6E7E8"></path>
                <path d="M116.65,91.25 C113.42,92.47 110.09,96.63 107.35,98.79 C101.01,103.67 94.42,108.15 87.71,112.53 C80.07,117.53 71.6,122.25 62.51,123.97 C54.42,125.47 45.02,125.41 38.15,120.22 C35.79,118.42 34.02,115.91 31.58,114.34 C30.09,113.34 28.73,112.19 27.34,111.11 C26.27,110.25 21.95,106.4 23.67,104.9 C24.75,104 27.23,106.04 26.62,104.04 C26.1,102.33 23.47,101.04 24.22,98.96 C24.8,97.38 25.88,98.89 26.63,98.96 C27.79,98.96 27.27,97.69 27.09,96.96 C26.55,94.96 24.93,92.25 25.31,90.13 C25.44,89.41 25.67,89.05 26.38,88.9 C26.83,88.9 28.1,89.62 28.46,89.41 C29.15,89.04 28.06,86.72 28.53,85.79 C29.43,84.06 30.68,86.11 31.95,85.86 C33.95,85.46 31,82.33 32.62,81.44 C33.43,80.99 34.93,81.73 35.73,81.92 C38.11,82.53 40.44,82.13 42.59,83 C43.35,83.31 44.14,83.5 44.88,83.82 C46.4,84.47 47.81,85.23 49.37,85.82 C52.84,87.06 56.6,88.08 60.26,87.29 C64.46,86.38 68.21,84.13 72.26,82.67 C75.41,81.5 78.82,80.67 81.69,79.43" id="Shape" fill="#FFFFFF"></path>
                <path d="M116.65,91.25 C114.769077,92.1982601 113.075152,93.4788679 111.65,95.03 C110.191839,96.5484023 108.652943,97.9871534 107.04,99.34 C103.84,102 100.41,104.49 97,107 C90.09,111.78 83.28,116.77 75.61,120.53 C67.9326704,124.465045 59.3422983,126.274272 50.73,125.77 C46.3282968,125.538762 42.0637186,124.159755 38.36,121.77 C36.59087,120.507015 34.9586609,119.062494 33.49,117.46 C32.8042558,116.771942 32.0616156,116.14304 31.27,115.58 C30.47,115.03 29.57,114.32 28.73,113.69 C26.918522,112.446336 25.2691387,110.981711 23.82,109.33 C23.4491515,108.873643 23.1147863,108.388814 22.82,107.88 C22.4261937,107.253095 22.211758,106.53024 22.2,105.79 C22.2023627,105.274746 22.3905515,104.777643 22.73,104.39 C23.0666464,103.958531 23.5653937,103.683858 24.11,103.63 C24.765173,103.591568 25.4219761,103.669436 26.05,103.86 L26.3,103.86 C26.3,103.86 26.3,103.86 26.03,103.96 C25.8096925,104.07612 25.6602531,104.292808 25.63,104.54 L25.63,104.54 L25.63,104.43 C25.4889788,104.105926 25.2889097,103.810909 25.04,103.56 C24.2065371,102.697892 23.5537559,101.677921 23.12,100.56 C22.9181295,99.7812196 23.02189,98.9547136 23.41,98.25 C23.530943,98.0018059 23.7050678,97.7832964 23.92,97.61 C24.2209089,97.3484848 24.6016892,97.1968779 25,97.18 C25.4508769,97.2008375 25.8885628,97.3386914 26.27,97.58 C26.4355032,97.690083 26.6093673,97.7870457 26.79,97.87 C26.69,97.87 26.86,97.81 26.54,97.97 C26.22,98.13 26.37,98.37 26.34,98.21 C26.3121073,98.0102462 26.2686416,97.8129786 26.21,97.62 C25.78,95.72 24.62,93.91 24.3,91.45 C24.2072167,90.7824831 24.2445709,90.1033152 24.41,89.45 C24.5264147,88.9705808 24.8056412,88.5464393 25.2,88.25 C25.4060809,88.0979172 25.6407827,87.98907 25.89,87.93 L26.2,87.86 C26.3660662,87.839992 26.5339338,87.839992 26.7,87.86 C27.0442814,87.9239846 27.3798956,88.028025 27.7,88.17 C27.9066667,88.25 28.1166667,88.32 28.33,88.38 L28.14,88.38 C27.9501641,88.4392409 27.7986528,88.5833614 27.73,88.77 C27.7400017,88.6435308 27.7400017,88.5164692 27.73,88.39 C27.67,87.94 27.54,87.39 27.49,86.8 C27.4497199,86.4391706 27.469999,86.0741471 27.55,85.72 C27.6702583,85.2858634 27.905139,84.8920929 28.23,84.58 C28.6310394,84.1908697 29.1843995,84.0003086 29.74,84.06 C30.1191643,84.1180221 30.4849114,84.2433244 30.82,84.43 C31.12887,84.6223019 31.4664477,84.7640845 31.82,84.85 C31.82,84.85 31.97,84.77 31.87,84.85 C31.77,84.93 31.82,84.99 31.82,84.85 C31.7387445,84.3915553 31.6217203,83.940176 31.47,83.5 C31.2035557,82.768055 31.2322448,81.9611735 31.55,81.25 C31.8114167,80.807879 32.2406942,80.4904301 32.74,80.37 C33.1157973,80.2900746 33.5042027,80.2900746 33.88,80.37 C34.4502375,80.4829106 35.0091579,80.6469052 35.55,80.86 C35.9978824,81.0178281 36.4600604,81.131698 36.93,81.2 C37.93,81.38 38.93,81.42 40.01,81.54 C41.125265,81.6420149 42.2163352,81.9257607 43.24,82.38 C44.2389643,82.7205483 45.2201996,83.1110399 46.18,83.55 C48.0134401,84.5110329 49.9315523,85.3010407 51.91,85.91 C53.840711,86.5834755 55.8656305,86.947961 57.91,86.99 C61.96,86.99 65.83,84.99 69.7,83.38 C73.57,81.77 77.79,81 81.7,79.5 C77.85,81.24 73.7,82.14 69.93,83.95 C66.16,85.76 62.39,87.87 57.93,88.14 C55.7619023,88.1780675 53.6015579,87.8708935 51.53,87.23 C49.4637729,86.6444864 47.4554119,85.8712674 45.53,84.92 C44.5721471,84.51088 43.5942336,84.1504204 42.6,83.84 C41.7010245,83.4764045 40.7482413,83.2635487 39.78,83.21 C38.78,83.12 37.7,83.1 36.54,82.94 C35.9698583,82.8632983 35.4076515,82.7361325 34.86,82.56 C34.4175513,82.397189 33.9627608,82.2701152 33.5,82.18 C33.3607118,82.1600341 33.2192882,82.1600341 33.08,82.18 L33,82.18 C32.9900791,82.4567811 33.0377525,82.732606 33.14,82.99 C33.3402706,83.5379985 33.4876097,84.1039143 33.58,84.68 C33.6529326,85.218146 33.4969635,85.7622242 33.15,86.18 C32.7782802,86.542606 32.2883702,86.7591605 31.77,86.79 C31.0899968,86.7696971 30.4275155,86.5695725 29.85,86.21 C29.7167466,86.1404081 29.575781,86.0867069 29.43,86.05 L29.53,86.05 L29.41,86.25 C29.3899896,86.3959841 29.3899896,86.5440159 29.41,86.69 C29.463058,87.2005551 29.5431706,87.7079351 29.65,88.21 C29.7300232,88.5992632 29.7300232,89.0007368 29.65,89.39 C29.5405717,89.8518931 29.2060798,90.2277267 28.76,90.39 C28.451246,90.4901138 28.118754,90.4901138 27.81,90.39 C27.5092341,90.3175457 27.2149148,90.2205542 26.93,90.1 C26.7570496,90.0295684 26.5800719,89.9694627 26.4,89.92 L26.4,89.92 L26.4,90.04 C26.3025863,90.4152105 26.2788146,90.8057444 26.33,91.19 C26.54,92.95 27.66,94.84 28.23,97.01 C28.3276616,97.336378 28.3946192,97.6711659 28.43,98.01 C28.469907,98.2483411 28.469907,98.4916589 28.43,98.73 C28.3592728,99.1255861 28.1457632,99.4814355 27.83,99.73 C27.3173982,100.092825 26.6586247,100.178915 26.07,99.96 C25.7683958,99.8375027 25.4774093,99.6903372 25.2,99.52 C25.02,99.4 24.84,99.38 25.01,99.4 C25.1196279,99.3986706 25.225497,99.3598519 25.31,99.29 C25.37,99.29 25.36,99.29 25.31,99.29 C25.1996975,99.5167546 25.1714253,99.7747383 25.23,100.02 C25.6342213,100.819469 26.1643153,101.54877 26.8,102.18 C27.2402827,102.700868 27.5611343,103.311852 27.74,103.97 C27.7999707,104.195089 27.8302276,104.427059 27.83,104.66 C27.8197518,105.170014 27.5576162,105.641858 27.13,105.92 C26.8003163,106.099504 26.4221,106.169544 26.05,106.12 C25.871422,106.108063 25.6941451,106.081304 25.52,106.04 C25.1449909,105.920278 24.753656,105.859553 24.36,105.86 C24.28,105.86 24.42,105.79 24.36,105.86 L24.36,105.86 C24.5634523,106.615095 24.959752,107.304312 25.51,107.86 C26.1488383,108.615536 26.8514231,109.314775 27.61,109.95 C28.34,110.56 29.23,111.18 30.03,111.81 C30.83,112.44 31.6,113.04 32.53,113.69 C33.4318534,114.338492 34.2781133,115.060991 35.06,115.85 C36.422706,117.361464 37.9373524,118.728667 39.58,119.93 C42.9576293,122.129851 46.8470211,123.418277 50.87,123.67 C54.9686994,123.979769 59.0906407,123.700258 63.11,122.84 C67.1460492,121.9813 71.0712933,120.666176 74.81,118.92 C82.36,115.47 89.31,110.66 96.37,106.08 C99.87,103.78 103.37,101.4 106.71,98.93 C110.05,96.46 112.67,92.85 116.65,91.25 Z" id="Shape" fill="#D0D2D3"></path>
                <path d="M169,14 C168.007119,13.9293298 167.06884,14.4615466 166.62,15.35 C166.459972,15.8508615 166.459972,16.3891385 166.62,16.89 C166.773637,17.4593201 167.129053,17.953349 167.62,18.28 C169.05,19.14 170.73,17.53 171.16,16.22 C171.340306,15.7510544 171.299905,15.2258524 171.05,14.79 C170.783553,14.4069002 170.371341,14.1501717 169.91,14.08 C169.61001,14.0236582 169.305219,13.9968634 169,14 Z" id="Shape" fill="#231F20"></path>
                <path d="M169,15.53 C168.846335,15.5911479 168.741357,15.7350062 168.73,15.9 C168.73,16.26 169.21,16.22 169.43,16.11 C169.597688,16.0553158 169.730615,15.9260818 169.79,15.76 C169.94,15.28 169.27,15.14 169,15.41" id="Shape" fill="#FFFFFF"></path>
                <path d="M187.86,22.14 C188.151652,21.9368322 188.506325,21.8446172 188.86,21.88 C189.473532,21.9055812 190.041305,22.211589 190.4,22.71 C190.678359,22.9989601 190.742623,23.4327463 190.56,23.79 C190.26,23.59 190,23.7 189.76,23.6 C189.520156,23.5517491 189.288016,23.4710047 189.07,23.36 C188.841269,23.2388893 188.632225,23.0837928 188.45,22.9 C188.224803,22.6701619 188.026832,22.4151477 187.86,22.14 L187.86,22.14 Z" id="Shape" fill="#231F20"></path>
                <path d="M175.11,24.58 C179.615336,24.5302529 184.083345,25.4013956 188.24,27.14 C190.376153,27.9695282 192.272903,29.3164953 193.76,31.06 C194.458389,31.9785065 194.934192,33.0464974 195.15,34.18 C195.219971,34.7445067 195.219971,35.3154933 195.15,35.88 C195.238931,36.4421257 195.121734,37.0174542 194.82,37.5 C195.14,37.02 194.96,36.42 194.96,35.87 C194.970481,35.3211806 194.90998,34.7733083 194.78,34.24 C194.51764,33.1898258 194.010488,32.2166426 193.3,31.4 C191.816138,29.780246 189.968771,28.5361013 187.91,27.77 C183.825369,26.0770827 179.511378,25.0019552 175.11,24.58 Z" id="Shape" fill="#231F20"></path>
                <path d="M39.78,12.57 C39.9444804,11.6712753 40.3140622,10.8226062 40.86,10.09 C41.4629124,9.36659789 42.2509533,8.82049937 43.14,8.51 C44.3870226,8.11594142 45.6934256,7.94333376 47,8 C48.2580223,7.96726344 49.5133643,8.13261763 50.72,8.49 C51.5708403,8.74502834 52.3511724,9.19337701 53,9.8 C53.545948,10.358953 53.9415626,11.0469784 54.15,11.8 C54.3581621,12.5999567 54.4623537,13.4234066 54.46,14.25 C54.5001235,15.6063555 54.229919,16.9539576 53.67,18.19 C53.1403869,19.2667285 52.4339188,20.2469953 51.58,21.09 L48,24.58 C47.73,24.84 47.45,25.13 47.14,25.46 C46.8514991,25.7407128 46.6294147,26.0823812 46.49,26.46 L54.49,26.46 L54.49,31 L39.26,31 C39.2585778,29.446726 39.5084732,27.9034529 40,26.43 C40.5828877,24.8362973 41.5118416,23.3916374 42.72,22.2 L46.77,18.1 C47.2653876,17.6040558 47.6803768,17.0338674 48,16.41 C48.2823438,15.7299569 48.4087722,14.9953049 48.37,14.26 C48.4314712,13.566432 48.2852734,12.8702516 47.95,12.26 C47.6814399,11.9029325 47.2566288,11.6979797 46.81,11.71 C46.5974867,11.7092006 46.386868,11.7499655 46.19,11.83 C45.9720661,11.9178597 45.7844294,12.0672742 45.65,12.26 C45.4628568,12.5464499 45.3306091,12.8652009 45.26,13.2 C45.1502449,13.7158935 45.0999172,14.242657 45.11,14.77 L45.11,15.77 L39.46,15.77 C39.4683922,14.6957816 39.5755095,13.6246086 39.78,12.57 L39.78,12.57 Z" id="Shape" fill="#FFC629"></path>
                <path d="M56.69,14 C56.9084504,12.7050354 57.3992647,11.4711827 58.13,10.38 C58.7206333,9.51230103 59.5768235,8.85963146 60.57,8.52 C62.8514794,7.82432038 65.2885206,7.82432038 67.57,8.52 C68.572844,8.8616043 69.4412636,9.51291897 70.05,10.38 C70.7770068,11.4731406 71.267495,12.7061736 71.49,14 C71.851881,15.8846705 72.0227457,17.8010359 72,19.72 C72.0386696,21.6609016 71.8812038,23.6007462 71.53,25.51 C71.30892,26.7995034 70.8219312,28.0288947 70.1,29.12 C69.4973489,29.9670663 68.6384715,30.5980782 67.65,30.92 C65.3630412,31.5778971 62.9369588,31.5778971 60.65,30.92 C59.6511902,30.6078198 58.7830898,29.975196 58.18,29.12 C57.4496573,28.0396221 56.9586885,26.8156097 56.74,25.53 C56.3887962,23.6207462 56.2313304,21.6809016 56.27,19.74 C56.2171139,17.8174224 56.3578227,15.8944022 56.69,14 L56.69,14 Z M62.69,26.93 C62.9204814,27.476154 63.4679557,27.8198241 64.06,27.79 C64.646914,27.8097775 65.1862556,27.4687233 65.42,26.93 C65.7788654,25.8656078 65.9216551,24.740289 65.84,23.62 L65.84,15.91 C65.9216551,14.789711 65.7788654,13.6643922 65.42,12.6 C65.1862556,12.0612767 64.646914,11.7202225 64.06,11.74 C63.4671726,11.7071577 62.9181036,12.0518288 62.69,12.6 C62.3231868,13.6626398 62.1768739,14.7889088 62.26,15.91 L62.26,23.54 C62.1774353,24.6610756 62.3237335,25.7872318 62.69,26.85 L62.69,26.93 Z" id="Shape" fill="#FFC629"></path>
                <path d="M78.52,15.33 L74.14,15.33 L74.14,11.54 C74.937095,11.5504908 75.7335496,11.4902548 76.52,11.36 C77.1259557,11.2685275 77.7113617,11.0722642 78.25,10.78 C78.7227868,10.5215633 79.1246265,10.1506343 79.42,9.7 C79.758983,9.17564402 80.0153121,8.60227615 80.18,8 L84.49,8 L84.49,31 L78.49,31 L78.52,15.33 Z" id="Shape" fill="#FFC629"></path>
                <path d="M102.93,8.41 L102.93,13 L94.16,13 L93.9,16.88 C94.4647162,16.3651842 95.1099185,15.9463094 95.81,15.64 C96.5592082,15.3355464 97.3613282,15.1825998 98.17,15.19 C99.8074748,15.0802164 101.40208,15.7424769 102.48,16.98 C103.577458,18.6091964 104.091972,20.5615315 103.94,22.52 C103.958887,23.8626825 103.834856,25.2035637 103.57,26.52 C103.366158,27.5320247 102.931552,28.4833679 102.3,29.3 C101.691948,30.0200054 100.895598,30.5566759 100,30.85 C98.8395304,31.2320471 97.6211482,31.4080356 96.4,31.37 C93.72,31.37 91.79,30.8 90.61,29.68 C89.3636055,28.3921013 88.717431,26.6387176 88.83,24.85 L88.83,24.1 L94.51,24.1 L94.51,24.89 C94.4413095,25.6557333 94.5903684,26.425293 94.94,27.11 C95.2316483,27.4914022 95.690192,27.7076261 96.17,27.69 C96.4348226,27.7003449 96.6984252,27.6489937 96.94,27.54 C97.191641,27.3878407 97.379855,27.1499099 97.47,26.87 C97.6588098,26.3906517 97.7702004,25.8843306 97.8,25.37 C97.86,24.7033333 97.89,23.8233333 97.89,22.73 C97.9658607,21.7959154 97.8077646,20.8576495 97.43,20 C97.1882626,19.5185309 96.6884392,19.2217608 96.15,19.24 C95.7022899,19.2194414 95.2654787,19.3818919 94.94,19.69 C94.6003136,20.1122823 94.4388575,20.6504691 94.49,21.19 L89,21.19 L89.53,8.37 L102.93,8.41 Z" id="Shape" fill="#FFC629"></path>
                <path d="M39,53.91 L39,51.66 L34.32,51.66 L34.32,48.59 L40.05,41.27 L42.41,41.27 L42.41,48.59 L44,48.59 L44,51.66 L42.4,51.66 L42.4,53.91 L39,53.91 Z M37.75,48.59 L39.41,48.59 L39.41,46.37 L37.75,48.59 Z" id="Shape" fill="#FFC629"></path>
                <path d="M55,47.61 C55.0077615,48.2006654 54.881245,48.7853769 54.63,49.32 C54.3636429,49.8261078 53.9960247,50.2720151 53.55,50.63 C53.0945613,51.0152949 52.5679467,51.3074811 52,51.49 C51.393293,51.6894162 50.758639,51.7906908 50.12,51.79 C49.4943878,51.7912961 48.8728003,51.6899503 48.28,51.49 C47.7306886,51.3090313 47.2165458,51.0350473 46.76,50.68 C46.3114504,50.3046428 45.9439921,49.8419175 45.68,49.32 C45.4133577,48.7646948 45.2765712,48.1559953 45.28,47.54 C45.2793478,47.233725 45.3300507,46.9295081 45.43,46.64 C45.5226824,46.3697001 45.6468708,46.111254 45.8,45.87 C45.9466385,45.653802 46.110505,45.449805 46.29,45.26 C46.47,45.09 46.65,44.93 46.84,44.78 C46.4763135,44.5600215 46.1790968,44.2455248 45.98,43.87 C45.7640274,43.4887705 45.650345,43.0581552 45.65,42.62 C45.6519454,42.0480443 45.8110758,41.4876284 46.11,41 C46.387127,40.5297157 46.7541003,40.1185698 47.19,39.79 C47.6230422,39.4433362 48.1139175,39.1758937 48.64,39 C49.1373601,38.8377103 49.6568426,38.7533787 50.18,38.75 C50.6995356,38.7574535 51.2151129,38.8416981 51.71,39 C52.2372302,39.150249 52.7345423,39.3904474 53.18,39.71 C53.6170887,40.0251339 53.9847025,40.426786 54.26,40.89 C54.5508647,41.3906009 54.6995431,41.9611111 54.69,42.54 C54.68171,42.9828322 54.5612925,43.4163352 54.34,43.8 C54.1467138,44.1906733 53.8445784,44.5171185 53.47,44.74 C53.66,44.89 53.85,45.06 54.03,45.23 C54.2212831,45.4229035 54.3891124,45.637725 54.53,45.87 C54.6810706,46.1202542 54.7987366,46.3892051 54.88,46.67 C54.9742908,46.9739857 55.014898,47.2920753 55,47.61 L55,47.61 Z M51.51,47.44 C51.5315873,47.0891219 51.387179,46.7484663 51.12,46.52 C50.8357996,46.2959111 50.4817546,46.1790762 50.12,46.19 C49.7557757,46.1735806 49.3987333,46.2949751 49.12,46.53 C48.8513539,46.7523572 48.7092637,47.0926259 48.74,47.44 C48.7386999,47.7783851 48.8803294,48.1015909 49.13,48.33 C49.4046133,48.5731607 49.7636876,48.6988367 50.13,48.68 C50.4975831,48.7080942 50.8601663,48.5811901 51.13,48.33 C51.3870849,48.1051912 51.5362045,47.7814927 51.54,47.44 L51.51,47.44 Z M49.15,42.68 C49.1286947,42.9585602 49.2489569,43.2291502 49.47,43.4 C49.6628728,43.5548324 49.9026689,43.6394663 50.15,43.64 C50.3962816,43.6335885 50.6342548,43.549598 50.83,43.4 C51.0216959,43.2569483 51.1477433,43.0427576 51.179725,42.8057169 C51.2117067,42.5686761 51.1469305,42.3287394 51,42.14 L50.92,42.05 C50.7108009,41.8825346 50.4476657,41.7971934 50.18,41.81 C49.9153434,41.7968487 49.6552211,41.8823684 49.45,42.05 C49.2840275,42.206305 49.1869118,42.4221177 49.18,42.65 L49.15,42.68 Z" id="Shape" fill="#FFC629"></path>
                <path d="M60.9,51.6 L60.9,38.75 L65.84,38.75 C66.8036515,38.730664 67.7617383,38.9005376 68.66,39.25 C70.1795701,39.870735 71.3570394,41.1174672 71.89,42.67 C72.1739789,43.4691971 72.3161167,44.3118711 72.31,45.16 C72.3173831,46.0638173 72.1615511,46.9615448 71.85,47.81 C71.5532365,48.5608775 71.1037427,49.2419287 70.53,49.81 C69.957059,50.3728222 69.2769542,50.8148904 68.53,51.11 C67.6789917,51.4239589 66.7769239,51.5765644 65.87,51.56 L60.9,51.6 Z M68.74,45.14 C68.7486583,44.6787476 68.6810824,44.2192317 68.54,43.78 C68.4264882,43.3904257 68.2435523,43.024554 68,42.7 C67.7456377,42.40999 67.4318763,42.1780794 67.08,42.02 C66.6938636,41.85682 66.2791964,41.7718473 65.86,41.77 L64.43,41.77 L64.43,48.52 L65.84,48.52 C66.2646779,48.5305731 66.6859288,48.4415282 67.07,48.26 C67.4306006,48.1076556 67.7470056,47.8669127 67.99,47.56 C68.2519588,47.2443263 68.4429457,46.8759946 68.55,46.48 C68.6781078,46.0517831 68.7421348,45.606964 68.74,45.16 L68.74,45.14 Z" id="Shape" fill="#FFC629"></path>
                <path d="M76.67,38.75 L79.91,38.75 L84.36,51.6 L80.77,51.6 L80,49.09 L76.52,49.09 L75.76,51.6 L72.21,51.6 L76.67,38.75 Z M79.42,46.75 L78.28,42.75 L77.09,46.75 L79.42,46.75 Z" id="Shape" fill="#FFC629"></path>
                <polygon id="Shape" fill="#FFC629" points="86.72 38.75 89 44.31 91.35 38.75 95.19 38.75 90.75 47.37 90.75 51.68 87.3 51.68 87.3 47.37 83 38.75"></polygon>
                <path d="M103.35,43 C103.000849,42.7871125 102.64031,42.5934897 102.27,42.42 C101.919795,42.2615801 101.558909,42.1279187 101.19,42.02 C100.808922,41.8945335 100.411138,41.8271123 100.01,41.82 C99.7495186,41.8110936 99.4902099,41.858861 99.25,41.96 C99.0686351,42.059312 98.9599061,42.2534711 98.97,42.46 C98.9700647,42.6138008 99.0312141,42.7612787 99.14,42.87 C99.2740834,43.0016166 99.434164,43.1037957 99.61,43.17 C99.8511637,43.2803182 100.102301,43.3673793 100.36,43.43 L101.36,43.74 C101.905529,43.9058328 102.439944,44.1062384 102.96,44.34 C103.401752,44.53634 103.812695,44.7957058 104.18,45.11 C104.522813,45.4022716 104.79033,45.7726808 104.96,46.19 C105.380318,47.3229243 105.326244,48.5774448 104.81,49.67 C104.557544,50.1713928 104.186883,50.6038304 103.73,50.93 C103.249321,51.2513305 102.713801,51.4818074 102.15,51.61 C101.573814,51.7499769 100.982944,51.8204784 100.39,51.82 C99.9234993,51.7991861 99.4590293,51.745722 99,51.66 C98.5042223,51.590759 98.013263,51.4905632 97.53,51.36 C97.001144,51.2303429 96.4802665,51.070073 95.97,50.88 C95.5368131,50.7051137 95.1158652,50.5013215 94.71,50.27 L96.23,47.17 C96.6550132,47.436597 97.0996197,47.6706004 97.56,47.87 C97.9796549,48.0702582 98.41431,48.2374332 98.86,48.37 C99.3483409,48.5080855 99.8525741,48.5820397 100.36,48.59 C100.640527,48.6093474 100.920922,48.550499 101.17,48.42 C101.311246,48.3408448 101.399079,48.191911 101.4,48.03 C101.399284,47.8463943 101.314541,47.673223 101.17,47.56 C100.980185,47.4151461 100.767159,47.3035614 100.54,47.23 C100.27,47.13 99.97,47.03 99.63,46.94 C99.29,46.85 98.92,46.72 98.55,46.59 C98.0161679,46.4417861 97.4972689,46.2442697 97,46 C96.6280194,45.7978695 96.2904855,45.5379683 96,45.23 C95.7243277,44.9517538 95.5246314,44.6074499 95.42,44.23 C95.2840942,43.8308502 95.2164793,43.4116379 95.22,42.99 C95.2083503,42.3421073 95.3415957,41.6997963 95.61,41.11 C95.8592569,40.5787965 96.229068,40.1131085 96.69,39.75 C97.144393,39.3812609 97.6631379,39.0998503 98.22,38.92 C98.8083109,38.7321481 99.4224301,38.6376682 100.04,38.64 C100.503714,38.6365333 100.96643,38.6834756 101.42,38.78 C101.856422,38.8673912 102.287199,38.9809291 102.71,39.12 C103.109453,39.2481083 103.500258,39.4017583 103.88,39.58 C104.24,39.74 104.57,39.89 104.88,40.04 L103.35,43 Z" id="Shape" fill="#FFC629"></path>
                <g id="Clipped" transform="translate(207.000000, 229.000000)" fill="#A91F25">
                    <ellipse id="Oval" cx="47.41" cy="7.39" rx="47.35" ry="6.79"></ellipse>
                </g>
                <path d="M189.85,104.06 C191.27,104.98 192.85,103.76 194.68,104.06 C195.08,104.14 193.84,110.06 193.82,110.64 C193.648458,112.029601 193.943967,113.43679 194.66,114.64 C196.82,117.5 200.14,116.03 202.74,114.72 C202.74,114.72 205.58,124.42 205.98,129.81 C206.79,141.66 203.2,154.67 204.05,166.55 C204.258819,169.400558 204.802563,172.216613 205.67,174.94 C205.82,175.42 205.79,175.7 205.98,176.21 C207.222611,179.613602 208.842721,182.867238 210.81,185.91 C211.812437,187.152497 212.891186,188.33144 214.04,189.44 C217.157001,192.828994 220.739423,195.75823 224.68,198.14 C230.19,201.44 235.68,204.61 241,208.25 C243.72,210.09 246.38,211.99 249.13,213.9 C251.29,215.42 254.35,216.9 255.93,219.1 C256.16,222.1 255.28,224.02 254.93,226.51 C254.1845,226.538246 253.438448,226.471034 252.71,226.31 L252.92,226.31 C251.17,225.86 249.56,224.95 248.13,225.15 C247.78,225.07 247.42,225.02 247.06,224.97 C245.9025,224.887303 244.753512,225.220652 243.82,225.91 L246.4,226.99 C246.88,228.33 248.82,228.23 249.48,229.44 C246.94,228.93 244.95,227.61 242.28,228.13 C241.29351,228.282434 240.415895,228.840916 239.86,229.67 C240.362799,229.719676 240.8362,229.930076 241.21,230.27 C243.37,232.59 237.13,233.12 236.27,233.27 C234.7,233.6 233.49,236.68 233.73,237.97 C234.24,238.07 234.39,237.78 234.73,237.41 C235.104415,237.059702 235.551808,236.79673 236.04,236.64 C237.566532,235.970495 239.15838,235.461104 240.79,235.12 C242.434784,234.781955 244.144547,234.978157 245.67,235.68 C247.09,236.39 248.67,236.83 247.26,238.33 C246.4,239.25 245.04,239.54 244.33,240.68 C243.562568,241.885368 243.250518,243.325055 243.45,244.74 C243.520089,244.487658 243.570243,244.230199 243.6,243.97 L245.51,242.97 C247.169577,241.690078 248.947657,240.571663 250.82,239.63 C254.973106,237.548153 259.564679,236.491988 264.21,236.55 C264.373187,236.572709 264.538702,236.529532 264.67,236.43 C264.791929,236.278509 264.839626,236.080384 264.8,235.89 C264.8,234.69 264.47,232.38 266.17,232.08 C267.05,231.93 270.34,235.55 270.76,233.93 C271.65,230.42 267.76,228.99 266.88,226.19 C267.75,223.94 267.3,220.38 267.88,217.81 C268.18,216.47 271,216.54 272.01,216.36 C278.95,215.16 284.81,210.83 290.43,206.89 C292.398672,205.603229 294.225527,204.111577 295.88,202.44 C297.34,200.8 297.94,198.5 298.88,196.57 C300.244911,194.193151 301.293769,191.648326 302,189 C302.21,188.07 302.24,185.86 303,185.22 C304.15,184.22 305.78,184.05 307.06,183.34 C308.505513,182.471582 309.824567,181.408263 310.98,180.18 C314.080942,176.927184 316.719066,173.262748 318.82,169.29 C320.288605,166.999222 321.531111,164.571143 322.53,162.04 C323.001109,160.842458 323.139329,159.539737 322.93,158.27 C322.50339,157.326395 321.98772,156.425647 321.39,155.58 C325.82,151.27 327.56,144.15 327.18,134.95 C327.18,133.44 326.02,133.1 325.89,131.71 C325.71,129.82 327.31,128.05 327.23,126.13 C327.316885,125.280697 326.893026,124.46045 326.15,124.04 C325.74,123.84 322.71,124.47 322.92,123.33 C323.3,121.58 323.84,118.88 323.05,117.19 C321.86,114.66 319.13,115.77 317.13,116.56 C315.95,115.04 314.98,114.21 313.26,114.31 C309.14,114.58 306.74,120.45 304.2,123.07 C301.66,125.69 298.81,127.95 296.2,130.49 C293.59,133.03 291.2,135.49 287.86,136.69 C283.31,138.36 278.16,138.24 273.38,138.8 C261.85,140.19 248.38,139.68 240.89,129.42 C239.124773,126.878814 237.560046,124.204067 236.21,121.42 C234.252281,117.906365 232.48961,114.287548 230.93,110.58 C229.18,105.85 227.76,100.88 224.93,96.58 C223.158524,93.9843312 220.972768,91.6972262 218.46,89.81 C216.9,88.55 215.34,87.08 213.29,86.57 C212.29,84.75 211.52,83.16 209.44,82.4 C207.88,81.82 206.13,82.5 204.61,81.4 C203.3,81.4 201.28,81.03 200.04,81.4 C198.8,81.77 198.17,83.02 197.04,83.56 C196.41,83.86 193.61,84.27 193.61,85.25 C193.61,86.23 193.07,86.84 193.28,88.14 C192.82,89.83 191.28,90.96 190.98,92.73 C190.68,94.5 191.79,96.18 191.34,97.79 C190.91,100 189.46,101.11 189.85,104.06 Z M262.39,225.74 C262.19,225.69 259.09,224.54 258.95,224.88 C259.72032,222.893976 260.061136,220.767283 259.95,218.64 L264.64,218.08 C264.84,220.72 263.77,223.02 263.02,225.49 C263.008752,225.596536 262.944941,225.690376 262.85,225.74 C262.712003,225.836985 262.527997,225.836985 262.39,225.74 L262.39,225.74 Z M256.57,227.74 C256.842258,227.670152 257.127742,227.670152 257.4,227.74 L260.18,228.24 L259.9,228.24 C260.028134,228.240943 260.153222,228.279164 260.26,228.35 C258.994793,228.952778 257.525207,228.952778 256.26,228.35 C256.220116,228.108781 256.34728,227.870861 256.57,227.77 L256.57,227.74 Z" id="Shape" fill="#C02026"></path>
                <path d="M250.93,63.78 L246.62,63.78 L246.62,60 C247.430356,60.0101565 248.240064,59.9499303 249.04,59.82 C249.642944,59.7234996 250.224775,59.5239182 250.76,59.23 C251.229102,58.9670378 251.632533,58.6012148 251.94,58.16 C252.261622,57.6219028 252.510458,57.043527 252.68,56.44 L257.06,56.44 L257.06,79.44 L251,79.44 L250.93,63.78 Z" id="Shape" fill="#FFC629"></path>
                <path d="M266.84,75.71 C267.149601,76.0435302 267.597018,76.2136228 268.05,76.17 C268.494662,76.1579761 268.914534,75.9625183 269.21,75.63 C269.578706,75.1743453 269.757765,74.5941952 269.71,74.01 L269.71,70.33 L269.64,70.33 C269.329548,70.9205406 268.819108,71.3813553 268.2,71.63 C267.431892,71.9695855 266.599765,72.1401032 265.76,72.13 C264.999445,72.1335514 264.24322,72.0153913 263.52,71.78 C262.849612,71.5601031 262.249312,71.1668032 261.78,70.64 C261.260673,70.0113365 260.891335,69.2726596 260.7,68.48 C260.415345,67.3800021 260.284103,66.2459371 260.31,65.11 C260.279091,63.7586691 260.451003,62.4103428 260.82,61.11 C261.104333,60.1081769 261.61399,59.1846383 262.31,58.41 C262.978086,57.6962485 263.818242,57.1659859 264.75,56.87 C265.802871,56.5478182 266.89899,56.3893025 268,56.4 C269.18362,56.3805192 270.363451,56.5389537 271.5,56.87 C272.466271,57.1702121 273.331219,57.7306983 274,58.49 C274.716773,59.3646948 275.226177,60.3903402 275.49,61.49 C275.859194,63.0353878 276.030566,64.6214178 276,66.21 L276,68.75 C276.011696,70.3377801 275.918158,71.9245902 275.72,73.5 C275.590019,74.7296265 275.212434,75.9202087 274.61,77 C274.055771,77.9547388 273.211548,78.7078834 272.2,79.15 C270.884112,79.6701948 269.473762,79.9086599 268.06,79.85 C266.820245,79.8872528 265.582209,79.7320766 264.39,79.39 C263.556783,79.155761 262.794243,78.7195329 262.17,78.12 C261.65967,77.5942167 261.29146,76.9472684 261.1,76.24 C260.889907,75.5156694 260.788799,74.764101 260.8,74.01 L266.46,74.01 C266.41574,74.6017783 266.547982,75.1933897 266.84,75.71 L266.84,75.71 Z M266.69,67 C266.923548,67.5164107 267.454788,67.8319596 268.02,67.79 C268.561705,67.7987927 269.058442,67.4897989 269.29,67 C269.639977,66.0408037 269.78311,65.0184284 269.71,64 C269.778197,62.9848453 269.649155,61.9660902 269.33,61 C269.098211,60.4927125 268.57644,60.1820403 268.02,60.22 C267.477687,60.2079673 266.977919,60.5125135 266.74,61 C266.392926,61.9599181 266.24988,62.9816746 266.32,64 C266.25566,65.0143091 266.38114,66.0317189 266.69,67 L266.69,67 Z" id="Shape" fill="#FFC629"></path>
                <path d="M277.73,61 C277.889918,60.1029393 278.260018,59.2565062 278.81,58.53 C279.419846,57.8256725 280.207082,57.2973958 281.09,57 C282.331251,56.5927453 283.634367,56.4065859 284.94,56.45 C286.198268,56.4124937 287.454362,56.5779468 288.66,56.94 C289.529968,57.1763094 290.331764,57.6148987 291,58.22 C291.515608,58.7886027 291.883115,59.4755304 292.07,60.22 C292.278162,61.0199567 292.382354,61.8434066 292.38,62.67 C292.417713,64.0251211 292.151178,65.3714614 291.6,66.61 C291.067984,67.6852838 290.361788,68.665173 289.51,69.51 L285.93,73 L285.07,73.87 C284.787636,74.1537518 284.569398,74.4947499 284.43,74.87 L292.43,74.87 L292.43,79.43 L277.21,79.43 C277.201712,77.8606425 277.448252,76.3003473 277.94,74.81 C278.52694,73.2217826 279.459405,71.7838044 280.67,70.6 L284.67,66.49 C285.203627,66.0309235 285.653624,65.4828071 286,64.87 C286.279775,64.1889903 286.409388,63.4556524 286.38,62.72 C286.437883,62.0266496 286.2919,61.331496 285.96,60.72 C285.690359,60.3642503 285.26627,60.1596457 284.82,60.17 C284.604875,60.1657388 284.390953,60.2030902 284.19,60.28 C283.976705,60.3802654 283.79128,60.5313522 283.65,60.72 C283.461226,61.0019403 283.328792,61.317745 283.26,61.65 C283.150263,62.169277 283.09994,62.6993499 283.11,63.23 L283.11,64.23 L277.4,64.23 C277.416247,63.145808 277.526662,62.0650775 277.73,61 L277.73,61 Z" id="Shape" fill="#FFC629"></path>
                <path d="M308.25,56.86 L308.25,61.46 L299.49,61.46 L299.22,65.34 C299.777768,64.8114354 300.428793,64.3909821 301.14,64.1 C301.885071,63.7797874 302.689099,63.6196631 303.5,63.63 C305.139151,63.5226862 306.734047,64.1887679 307.81,65.43 C308.937413,67.058825 309.473767,69.024282 309.33,71 C309.351764,72.3432879 309.224316,73.6848397 308.95,75 C308.747197,76.0117689 308.320047,76.9651684 307.7,77.79 C307.09059,78.5400443 306.283511,79.1046532 305.37,79.42 C304.206215,79.8026001 302.984454,79.9785879 301.76,79.94 C299.09,79.94 297.16,79.38 295.99,78.24 C294.718341,76.9610436 294.05263,75.2003662 294.16,73.4 L294.16,72.65 L299.83,72.65 L299.83,73.43 C299.768163,74.1771988 299.920805,74.92653 300.27,75.59 C300.551746,75.9791084 301.010046,76.2007452 301.49,76.18 C301.754908,76.1914654 302.018767,76.1400642 302.26,76.03 C302.511927,75.8756778 302.702715,75.6389595 302.8,75.36 C302.980384,74.8781223 303.091491,74.3730902 303.13,73.86 C303.207929,72.9822556 303.241306,72.1011245 303.23,71.22 C303.294757,70.2948009 303.144147,69.3671852 302.79,68.51 C302.543323,68.0210774 302.037485,67.7175745 301.49,67.73 C301.043226,67.7197968 300.611002,67.8890845 300.29,68.2 C299.941383,68.6139702 299.775418,69.1515521 299.83,69.69 L294.36,69.69 L294.88,56.88 L308.25,56.86 Z" id="Shape" fill="#FFC629"></path>
                <path d="M248.06,97.18 L248.06,100.26 L239.67,100.26 L239.67,97.18 L242.25,97.18 L242.25,93.58 C242.106578,93.7494674 241.933824,93.8917357 241.74,94 C241.490379,94.1497967 241.22961,94.2801809 240.96,94.39 C240.684827,94.5178913 240.396428,94.6151422 240.1,94.68 C239.849514,94.7514384 239.590469,94.7884448 239.33,94.79 L239.33,91.63 C239.576372,91.6110703 239.817103,91.5466494 240.04,91.44 C240.349661,91.3101535 240.650326,91.1598206 240.94,90.99 C241.227028,90.8242211 241.501139,90.6370231 241.76,90.43 C241.955403,90.2899613 242.121806,90.1133705 242.25,89.91 L245.74,89.91 L245.74,97.17 L248.06,97.18 Z" id="Shape" fill="#FFC629"></path>
                <path d="M258,97.18 L258,100.26 L249.62,100.26 L249.62,97.18 L252.24,97.18 L252.24,93.58 C252.102595,93.751538 251.93268,93.894266 251.74,94 C251.493827,94.1497562 251.236385,94.280149 250.97,94.39 C250.692483,94.5119337 250.404686,94.6089815 250.11,94.68 C249.852737,94.751666 249.587056,94.7886595 249.32,94.79 L249.32,91.63 C249.569778,91.6122979 249.81401,91.5478477 250.04,91.44 C250.349661,91.3101535 250.650326,91.1598206 250.94,90.99 C251.227028,90.8242211 251.501139,90.6370231 251.76,90.43 C251.954705,90.2922567 252.118248,90.1150852 252.24,89.91 L255.76,89.91 L255.76,97.17 L258,97.18 Z" id="Shape" fill="#FFC629"></path>
                <path d="M259,100.26 C258.991557,99.7232727 259.038472,99.1871049 259.14,98.66 C259.229699,98.2227819 259.39194,97.8036592 259.62,97.42 C259.83986,97.0404551 260.124101,96.7020724 260.46,96.42 C260.854529,96.095831 261.279898,95.8111351 261.73,95.57 L263.28,94.73 C263.66,94.51 263.95,94.35 264.14,94.21 C264.285491,94.127694 264.411656,94.015168 264.51,93.88 C264.569777,93.7877405 264.601078,93.6799272 264.6,93.57 C264.613552,93.3164441 264.50593,93.0715107 264.31,92.91 C264.073038,92.7545076 263.793149,92.677538 263.51,92.69 C263.129842,92.7020407 262.75867,92.8085809 262.43,93 C262.018981,93.2736131 261.654375,93.6112113 261.35,94 L259.2,91.45 C259.45891,91.1763949 259.75517,90.9407337 260.08,90.75 C260.46502,90.5314895 260.870232,90.3506511 261.29,90.21 C261.74684,90.0570536 262.214931,89.9400309 262.69,89.86 C263.191808,89.7716724 263.700481,89.7281676 264.21,89.73 C265.333362,89.6515135 266.450327,89.9545387 267.38,90.59 C268.090422,91.1809668 268.488849,92.066361 268.46,92.99 C268.463721,93.3299918 268.409617,93.6681422 268.3,93.99 C268.210174,94.2695188 268.082308,94.5353459 267.92,94.78 C267.753064,95.0219002 267.554653,95.2404887 267.33,95.43 C267.096942,95.6234916 266.853227,95.8037741 266.6,95.97 C266.294472,96.1840603 265.97732,96.3810289 265.65,96.56 C265.32,96.75 265,96.96 264.65,97.18 L268.65,97.18 L268.65,100.27 L259,100.26 Z" id="Shape" fill="#FFC629"></path>
                <path d="M274.43,100.26 L274.43,87.41 L279.37,87.41 C280.331454,87.3890265 281.287237,87.562496 282.18,87.92 C283.712178,88.5179187 284.901775,89.76242 285.43,91.32 C285.718841,92.12139 285.861108,92.9682187 285.85,93.82 C285.869406,94.7247635 285.71319,95.6247061 285.39,96.47 C285.102678,97.223339 284.655791,97.9056084 284.08,98.47 C283.488031,99.0548223 282.779234,99.5080433 282,99.8 C281.149983,100.11965 280.248088,100.279007 279.34,100.27 L274.43,100.26 Z M282.26,93.79 C282.267094,93.3295864 282.203004,92.8708411 282.07,92.43 C281.950859,92.0368426 281.757358,91.6702093 281.5,91.35 C281.247623,91.0578395 280.93335,90.8255503 280.58,90.67 C280.197647,90.507045 279.785604,90.4253175 279.37,90.43 L278,90.43 L278,97.13 L279.42,97.13 C279.843304,97.1371327 280.263067,97.0518151 280.65,96.88 C281.001989,96.7133508 281.312748,96.4708901 281.56,96.17 C281.819507,95.8512074 282.013241,95.484132 282.13,95.09 C282.24999,94.6671096 282.310571,94.2295835 282.31,93.79 L282.26,93.79 Z" id="Shape" fill="#FFC629"></path>
                <path d="M290.2,87.41 L293.43,87.41 L297.88,100.26 L294.29,100.26 L293.52,97.73 L290.09,97.73 L289.34,100.26 L285.72,100.26 L290.2,87.41 Z M292.96,95.41 L291.81,91.41 L290.62,95.41 L292.96,95.41 Z" id="Shape" fill="#FFC629"></path>
                <polygon id="Shape" fill="#FFC629" points="300.25 87.41 302.55 92.97 304.91 87.41 308.75 87.41 304.31 96 304.31 100.31 300.79 100.31 300.79 95.91 296.39 87.38"></polygon>
                <path d="M316.87,91.63 C316.527668,91.4113177 316.170083,91.2174864 315.8,91.05 C315.44,90.89 315.08,90.76 314.72,90.64 C314.331759,90.5169845 313.927253,90.4529377 313.52,90.45 C313.264772,90.438651 313.010663,90.4901597 312.78,90.6 C312.594123,90.6842147 312.481812,90.8767477 312.5,91.08 C312.489771,91.2365982 312.548171,91.3899002 312.66,91.5 C312.799638,91.6270873 312.958202,91.7316718 313.13,91.81 C313.374772,91.9082674 313.625222,91.9917509 313.88,92.06 L314.88,92.37 C315.426093,92.5341652 315.960616,92.7346111 316.48,92.97 C316.923974,93.1679156 317.338005,93.4271054 317.71,93.74 C318.046449,94.0341201 318.312939,94.3996903 318.49,94.81 C318.678679,95.3010602 318.770371,95.8240415 318.76,96.35 C318.788901,97.0412539 318.644524,97.7287654 318.34,98.35 C318.066042,98.8518765 317.6792,99.2832216 317.21,99.61 C316.729321,99.9313305 316.193801,100.161807 315.63,100.29 C315.052477,100.421205 314.462238,100.488278 313.87,100.49 C313.384638,100.488571 312.900023,100.451807 312.42,100.38 C311.938274,100.287083 311.463748,100.160097 311,100 C310.52,99.87 310.05,99.71 309.58,99.54 C309.145531,99.3602791 308.724458,99.149743 308.32,98.91 L309.84,95.82 C310.629648,96.3259515 311.484046,96.7228762 312.38,97 C312.86372,97.1436241 313.365413,97.2176996 313.87,97.22 C314.145164,97.240258 314.420865,97.1885642 314.67,97.07 C314.812925,96.9827988 314.900085,96.8274262 314.9,96.66 C314.899284,96.4763943 314.814541,96.303223 314.67,96.19 C314.485133,96.043194 314.275023,95.9313617 314.05,95.86 C313.78,95.76 313.48,95.67 313.13,95.57 C312.78,95.47 312.42,95.36 312.06,95.22 C311.551907,95.0591662 311.059805,94.8516128 310.59,94.6 C310.187446,94.4132934 309.821652,94.1558829 309.51,93.84 C309.253664,93.547421 309.056674,93.2077831 308.93,92.84 C308.791741,92.4382162 308.727369,92.0147191 308.74,91.59 C308.724874,90.9428359 308.854711,90.3004845 309.12,89.71 C309.376057,89.1830443 309.744746,88.7187699 310.2,88.35 C310.65492,87.9844288 311.173691,87.7063943 311.73,87.53 C312.313921,87.338145 312.925402,87.2435513 313.54,87.25 C314.003168,87.2475709 314.465434,87.2911176 314.92,87.38 C315.360704,87.4673314 315.795021,87.584263 316.22,87.73 C316.64,87.87 317.02,88.02 317.39,88.18 L318.39,88.64 L316.87,91.63 Z" id="Shape" fill="#FFC629"></path>
            </g>
        </g>
    </g>
</svg>