<svg xmlns="http://www.w3.org/2000/svg" xmlns:xlink="http://www.w3.org/1999/xlink" viewBox="0 0 562.98 457.71"><defs><mask id="a" x="519.49" y="304.23" width="188.03" height="28.64" maskUnits="userSpaceOnUse"/></defs><title>slaughter</title><g style="isolation:isolate"><text transform="translate(31.44 25.59)" font-size="29.93" fill="#eeefee" font-family="Raleway-Black, Raleway" style="isolation:isolate">AFTER 7<tspan x="118.04" y="0" letter-spacing="-0.03em"> </tspan><tspan x="123.73" y="0">WEEKS O</tspan><tspan x="259.85" y="0" letter-spacing="-0.03em">F</tspan><tspan x="275.92" y="0" xml:space="preserve"> SUFFERING,</tspan></text></g><g style="isolation:isolate"><text transform="translate(46.67 53.28)" font-size="21.77" fill="#fff" font-family="Raleway-SemiBold, Raleway" font-weight="700" style="isolation:isolate">chic<tspan x="42.6" y="0" letter-spacing="-0.03em">k</tspan><tspan x="53.94" y="0">ens a</tspan><tspan x="108.33" y="0" letter-spacing="-0.03em">r</tspan><tspan x="115.91" y="0">e loaded on a truck and dri</tspan><tspan x="392" y="0" letter-spacing="-0.02em">v</tspan><tspan x="403.43" y="0">en</tspan></text><text transform="translate(26.53 133.28)" font-size="21.77" fill="#fff" font-family="Raleway-SemiBold, Raleway" font-weight="700" style="isolation:isolate">These chic<tspan x="111.08" y="0" letter-spacing="-0.03em">k</tspan><tspan x="122.42" y="0">ens a</tspan><tspan x="176.81" y="0" letter-spacing="-0.03em">r</tspan><tspan x="184.39" y="0">e g</tspan><tspan x="216.41" y="0" letter-spacing="-0.03em">r</tspan><tspan x="223.98" y="0">ound up and turned i</tspan><tspan x="439.24" y="0" letter-spacing="0em">n</tspan><tspan x="452.12" y="0" letter-spacing="-0.01em">t</tspan><tspan x="459.83" y="0">o </tspan><tspan x="61.46" y="26.12">nugg</tspan><tspan x="115.09" y="26.12" letter-spacing="0em">e</tspan><tspan x="127.96" y="26.12">ts and p</tspan><tspan x="210.3" y="26.12" letter-spacing="0em">a</tspan><tspan x="222.49" y="26.12">tties </tspan><tspan x="272.86" y="26.12" letter-spacing="-0.03em">f</tspan><tspan x="280.04" y="26.12">o</tspan><tspan x="293.15" y="26.12" letter-spacing="-0.02em">r</tspan><tspan x="300.77" y="26.12"> </tspan><tspan x="306.14" y="26.12" letter-spacing="-0.01em">M</tspan><tspan x="324.93" y="26.12">cDonald</tspan></text><text transform="translate(33.83 102.93)" font-size="46.27" fill="#ffc629" font-family="Raleway-Black, Raleway" style="isolation:isolate">OF<tspan x="61.45" y="0" letter-spacing="-0.03em">F</tspan><tspan x="86.3" y="0" letter-spacing="-0.03em"> </tspan><tspan x="95.41" y="0" letter-spacing="-0.01em">T</tspan><tspan x="123.78" y="0">O SL</tspan><tspan x="225.2" y="0" letter-spacing="-0.03em">A</tspan><tspan x="254.82" y="0" letter-spacing="0em">UGHTER.</tspan></text></g><path d="M543.8,199.59h0a43.86,43.86,0,0,0-.92,4.42,89.75,89.75,0,0,0-1,14h-3.82c0-12.65-2.14-22.92-4.78-22.92s-4.78,11.13-4.78,24.83h-3.81c0-14.77,3.84-26.74,8.59-26.74,2.7,0,5.12,3.6,6.69,9.24a28.43,28.43,0,0,1,1.47-4.12c0-.1.08-.18.11-.27h0Z" fill="#ffc629"/><path d="M554,206.23,550.15,203c-.87-4.86-2.12-7.92-3.49-7.92-.88,0-1.62,1.12-2.4,3.08l-2-1.62c1.28-2.16,2.76-3.41,4.35-3.41C549.78,193.21,552.53,198.44,554,206.23Z" fill="#ffc629"/><path d="M555.26,220h-3.83c0-3.63-.16-7.07-.42-10.18-.18-2-.39-3.83-.66-5.5l3.8,2.72c.17.86.3,1.73.41,2.62A77.75,77.75,0,0,1,555.26,220Z" fill="#ffc629"/><path d="M554.67,209.5a.2.2,0,0,1-.09.11.2.2,0,0,1-.25,0,.35.35,0,0,1-.18-.31,6.14,6.14,0,0,1,0-1.05,1.55,1.55,0,0,0-.22-1,.37.37,0,0,0-.2-.15.27.27,0,0,0-.22.16,1.88,1.88,0,0,0-.26.89,11,11,0,0,0,.22,3.48,1.28,1.28,0,0,1,0,.39.3.3,0,0,1-.27.26.29.29,0,0,1-.26-.21,1,1,0,0,1,0-.35,15.84,15.84,0,0,0-.08-2.84c0-.39.14-1.12-.37-1.28l-.44-.08c-.41,0-.31-.78-.75-.71s-.3.32-.32.57c0,.69.11,1.39.11,2.08a.46.46,0,0,1-.09.3h-.1c-.13,0-.18-.15-.21-.26-.2-1,0-2.11-.1-3.15a12.85,12.85,0,0,0-.18-1.37,2.8,2.8,0,0,0-.08-.7h0l3.82,2.75.31.23a3.09,3.09,0,0,1,.08.61l.15,1.25A.86.86,0,0,1,554.67,209.5Z" fill="#a91f25"/><path d="M543.8,199.62h0a3.93,3.93,0,0,1-.19.73,6.73,6.73,0,0,0-.18,1.42c0,.6-.11,1.17-.11,1.77a18.4,18.4,0,0,0,.1,2.23c0,.31.22,1.75-.17,1.92s-.37-.78-.37-1v-4.34c0-.55.42-3.44-.63-2.77-.36.21-.24.64-.24,1v2.77c0,.39,0,.89-.38.55s0-.86,0-1.14v-1.71a11.13,11.13,0,0,0,0-2,3.46,3.46,0,0,1-.16-.79.36.36,0,0,1,.12-.27h0l2.18,1.62Z" fill="#a91f25"/><path d="M533.1,207.47H533C533,207.25,533.41,207.35,533.1,207.47Z" fill="#a91f25"/><path d="M532,207.72Z" fill="#a91f25"/><path d="M527,207.81h-.1C526.88,207.72,527,207.7,527,207.81Z" fill="#a91f25"/><path d="M527.88,208.19Z" fill="#a91f25"/><path d="M535.2,208.74h.1a.22.22,0,0,0,0,.16c-.08,0,0,.1-.11.11s-.28-.32,0-.3,0,0,0-.13,0-.25.18-.21.09.16,0,.27S535.24,208.71,535.2,208.74Z" fill="#a91f25"/><path d="M532.56,208.79a.21.21,0,0,1,0,.24C532.22,209.09,532.29,208.64,532.56,208.79Z" fill="#a91f25"/><path d="M536.73,208.79h0a.26.26,0,0,0,.21,0c0,.13.09.21.09.35a.28.28,0,0,1-.28.3.29.29,0,0,1-.3-.29h0c0-.14.1-.18.15-.3S536.73,208.85,536.73,208.79Z" fill="#a91f25"/><path d="M535.56,208.93h.2c0,.13.16.2.16.33s0,.4-.25.45-.5.15-.37-.13a.37.37,0,0,0-.13-.15s.1,0,0-.11.1-.13,0-.19.13-.08.16-.15S535.54,209,535.56,208.93Z" fill="#a91f25"/><path d="M524.58,209.68a.15.15,0,0,1,0,.13.11.11,0,0,1-.14-.08.07.07,0,0,1,0,0A.19.19,0,0,1,524.58,209.68Z" fill="#a91f25"/><path d="M525.6,210.31Z" fill="#a91f25"/><path d="M523.88,210.44h-.09S523.88,210.36,523.88,210.44Z" fill="#a91f25"/><path d="M522.75,210.39c.19.18.36.4.53.58-.24,0-.35-.35-.55-.52S522.75,210.42,522.75,210.39Z" fill="#a91f25"/><path d="M522.78,210.92c.15,0,.13.17,0,.18a.1.1,0,0,1-.13,0,.11.11,0,0,1,.05-.13Z" fill="#a91f25"/><path d="M529.13,211.09a.08.08,0,0,1-.08.08C529,211.17,529.07,211,529.13,211.09Z" fill="#a91f25"/><path d="M525.1,211.3Z" fill="#a91f25"/><path d="M523.85,211.46Z" fill="#a91f25"/><path d="M530.6,211.57h0v.12s0,0-.12,0a.11.11,0,0,1,.11-.12Z" fill="#a91f25"/><path d="M535.08,211.88a.15.15,0,0,1,0,.21h0C534.83,212.17,534.85,211.82,535.08,211.88Z" fill="#a91f25"/><path d="M522.51,213.19v.15a.15.15,0,0,1,0-.13Z" fill="#a91f25"/><path d="M534.72,213.31h.18a.09.09,0,0,1,0,.12.1.1,0,0,1-.13-.05A.09.09,0,0,1,534.72,213.31Z" fill="#a91f25"/><path d="M529.86,213.61a.11.11,0,0,1-.11,0A.11.11,0,0,1,529.86,213.61Z" fill="#a91f25"/><path d="M522.85,213.77Z" fill="#a91f25"/><path d="M531.84,214a.43.43,0,0,0,.16,0h.1a.4.4,0,0,1,0,.34.37.37,0,0,0-.13.15h-.15a.31.31,0,0,1-.22-.38.3.3,0,0,1,.12-.17Z" fill="#a91f25"/><path d="M530.56,214.1c.11,0,.32,0,.35.18s-.19-.12-.35-.13S530.54,214.11,530.56,214.1Z" fill="#a91f25"/><path d="M529.31,214.55h-.41C529,214.47,529.2,214.54,529.31,214.55Z" fill="#a91f25"/><path d="M529.63,214.54a.32.32,0,0,1-.27,0A.62.62,0,0,1,529.63,214.54Z" fill="#a91f25"/><path d="M528.92,214.89H529C529.08,214.89,528.94,214.91,528.92,214.89Z" fill="#a91f25"/><path d="M529.31,214.88h0Z" fill="#a91f25"/><path d="M522.67,215.25v.11S522.57,215.15,522.67,215.25Z" fill="#a91f25"/><path d="M529.5,215.91h0Z" fill="#a91f25"/><path d="M529.86,215.85Z" fill="#a91f25"/><path d="M522.59,216c.18,0,.18.21,0,.23S522.44,216.09,522.59,216Z" fill="#a91f25"/><path d="M525.29,216.06Z" fill="#a91f25"/><path d="M528.52,216.22h-.15S528.47,216.24,528.52,216.22Z" fill="#a91f25"/><path d="M529.13,216.45H529S529.07,216.43,529.13,216.45Z" fill="#a91f25"/><path d="M524,216.63h0Z" fill="#a91f25"/><path d="M523.77,216.8a.15.15,0,0,1,.16,0c.1.18-.22.26-.24.1S523.67,216.84,523.77,216.8Z" fill="#a91f25"/><path d="M521.29,217.1Z" fill="#a91f25"/><path d="M525.71,217.4v.12A.39.39,0,0,1,525.71,217.4Z" fill="#a91f25"/><path d="M527.77,217.45a.26.26,0,0,1,.11.21S527.74,217.55,527.77,217.45Z" fill="#a91f25"/><path d="M528.86,217.5Z" fill="#a91f25"/><path d="M532.84,217.61Z" fill="#a91f25"/><path d="M524.5,217.86Z" fill="#a91f25"/><path d="M530.26,218c0,.08-.12,0-.11,0S530.25,218,530.26,218Z" fill="#a91f25"/><path d="M521.94,218.08h-.1S521.92,218,521.94,218.08Z" fill="#a91f25"/><path d="M521,218.36Z" fill="#a91f25"/><path d="M527.35,218.41Z" fill="#a91f25"/><path d="M528,218.44a.35.35,0,0,1,.1.24h0S528,218.5,528,218.44Z" fill="#a91f25"/><path d="M532.37,218.49c0,.1,0,.13-.13.13S532.31,218.39,532.37,218.49Z" fill="#a91f25"/><path d="M534,218.67c0,.29-.47.26-.35,0S533.94,218.52,534,218.67Z" fill="#a91f25"/><path d="M526.82,218.81v.36A.56.56,0,0,1,526.82,218.81Z" fill="#a91f25"/><path d="M526.75,218.81v.24A.92.92,0,0,0,526.75,218.81Z" fill="#a91f25"/><path d="M525.18,218.81v.1S525.2,218.81,525.18,218.81Z" fill="#a91f25"/><path d="M534.51,219.31h.31S534.57,219.36,534.51,219.31Z" fill="#a91f25"/><path d="M531.79,219.46h-.08C531.63,219.46,532,219.35,531.79,219.46Z" fill="#a91f25"/><path d="M526.83,219.48v.17S526.85,219.54,526.83,219.48Z" fill="#a91f25"/><path d="M528.86,219.78a.28.28,0,0,1,0,.18C528.52,220.19,528.53,219.52,528.86,219.78Z" fill="#a91f25"/><path d="M528,220Z" fill="#a91f25"/><path d="M531.38,221.31a.15.15,0,0,1,0,.13h-.08C531.2,221.37,531.27,221.26,531.38,221.31Z" fill="#a91f25"/><path d="M536.79,210Z" fill="#a91f25"/><path d="M528.82,214.54a.52.52,0,0,0-.09.51.51.51,0,0,0,0,.57c.09.13-.12,0-.17.08s0,.25-.08.34.13.1.15.2a.22.22,0,0,0-.16,0h0a1.26,1.26,0,0,1-.44.39,1.13,1.13,0,0,1-.36.24v.26s0,.13.12.11,0,.15,0,.18-.12-.45-.25-.49h-.26c-.09,0-.21.15-.32.15h-.4c-.1,0-.28-.21-.51-.08s0,0-.08,0,0,.34-.22.42c0-.23.16-.45,0-.7s0-.08,0,0a.54.54,0,0,0,0-.55h0v.08h0a1.36,1.36,0,0,0,.13-.24h-.12s-.11-.16,0-.34,0,0,0-.13v-.15c0-.06,0,0-.08-.09.16-.36-.27-.54-.39-.8h0a2.34,2.34,0,0,0-.79-.13h.24c.07,0-.08-.19-.18-.21s-.09-.14-.16-.21a1.16,1.16,0,0,0-.56-.27c.11,0,0-.15-.09-.18s-.3-.15-.26-.32.17.11.25.16a1.18,1.18,0,0,1,.53.43c.21,0,.21.13.31.2h0c.26.23.91.29.92-.16a.28.28,0,0,0,.36-.13,2.05,2.05,0,0,0-.41-.37c-.12-.13,0-.09,0-.1s.23.35.46.34,0,0,0-.1,0,0,.1,0h.27c.08,0,.65.34.83.15h.29a.85.85,0,0,0,.5,0h.41c.25,0,.24-.38.45-.49,0,.28-.33.36-.31.65h.2c.08,0,0,.14,0,.21s.11-.08.19,0,0,.1-.08.15.31.17.45.24c-.18,0-.16.37,0,.5s.16,0,.23,0Z" fill="#a91f25"/><path d="M528.94,214c0,.08-.12,0-.13,0h.13Z" fill="#a91f25"/><path d="M525,214.86h0C524.86,214.86,525,214.91,525,214.86Z" fill="#a91f25"/><path d="M529.18,215.26h.13C529.36,215.26,529.24,215.23,529.18,215.26Z" fill="#a91f25"/><path d="M531,215.36h0v-.1h0S530.93,215.39,531,215.36Z" fill="#a91f25"/><path d="M528.58,216.3h.1A.1.1,0,0,1,528.58,216.3Z" fill="#a91f25"/><path d="M525.83,217.19v.12S525.79,217.19,525.83,217.19Z" fill="#a91f25"/><path d="M525,217.19a.39.39,0,0,1-.18.29C524.74,217.55,525,217.29,525,217.19Z" fill="#a91f25"/><path d="M525.65,217.56v.13A.27.27,0,0,1,525.65,217.56Z" fill="#a91f25"/><path d="M525.41,218.05c0,.1-.1.21-.13.32A.8.8,0,0,1,525.41,218.05Z" fill="#a91f25"/><path d="M527.87,218.08v.16A.22.22,0,0,1,527.87,218.08Z" fill="#a91f25"/><path d="M525.5,218.13Z" fill="#a91f25"/><path d="M525.44,218.26v.23C525.44,218.57,525.41,218.34,525.44,218.26Z" fill="#a91f25"/><path d="M525.1,218.81V219C525.1,219.05,525.08,218.81,525.1,218.81Z" fill="#a91f25"/><path d="M526.8,220h-.08C526.64,220,526.91,219.88,526.8,220Z" fill="#a91f25"/><path d="M532.22,211.07c.13,0,.23,0,.26.16S532.27,211.17,532.22,211.07Z" fill="#a91f25"/><path d="M536.34,211.1h.1a.25.25,0,0,0,.22.16,1.22,1.22,0,0,0,.1.34.24.24,0,0,1,0,.12c0,.11-.08.16-.1.27s-.09,0-.08,0a.69.69,0,0,1-.35,0,.92.92,0,0,1-.39-.39c.11,0,0-.17,0-.25s0-.09.11-.12m0-.08c.11.1.24,0,.39-.05Z" fill="#a91f25"/><path d="M530.51,213.77c0,.17-.25.18-.2,0a.15.15,0,0,1,.19,0Z" fill="#a91f25"/><path d="M525.24,215.7a.15.15,0,0,1,.15.16h0c0,.09,0-.09-.13,0S525.23,215.73,525.24,215.7Z" fill="#a91f25"/><path d="M525.81,216.59a3.27,3.27,0,0,1,.52,1.87,24.87,24.87,0,0,1,0,3.23c0,.49.21.59.44.22s0-1,0-1.32a16.68,16.68,0,0,1,0-2,6.61,6.61,0,0,1,0-1.09,2.54,2.54,0,0,1,.37-.84" fill="#a91f25"/><path d="M553.41,196.45h-.13a.39.39,0,0,1,.16-.1h0S553.44,196.46,553.41,196.45Z" fill="#a91f25"/><path d="M552.53,195.6h0s-.08.18-.14.15h-.08a2.34,2.34,0,0,1,.29-.13Z" fill="#a91f25"/><path d="M552.31,195.44h0C552.31,195.33,552.28,195.44,552.31,195.44Z" fill="#a91f25"/><path d="M549.72,193.24Z" fill="#a91f25"/><path d="M550.19,194.37Z" fill="#a91f25"/><path d="M553.46,197.47Z" fill="#a91f25"/><path d="M551.47,195.76Z" fill="#a91f25"/><path d="M552.26,196.54Z" fill="#a91f25"/><path d="M553.17,197.48Z" fill="#a91f25"/><path d="M552.65,197.17Z" fill="#a91f25"/><path d="M552.42,197Z" fill="#a91f25"/><path d="M552.1,196.75v.1a.17.17,0,0,0,0,.1h0A.41.41,0,0,0,552.1,196.75Z" fill="#a91f25"/><path d="M548.5,194.68Z" fill="#a91f25"/><path d="M548.94,195.3Z" fill="#a91f25"/><path d="M550.15,196.51Z" fill="#a91f25"/><path d="M552.19,198.45Z" fill="#a91f25"/><path d="M551.22,198.15Z" fill="#a91f25"/><path d="M548,195.62a.16.16,0,0,1-.13-.1c-.05-.1,0-.08,0-.13h0S548,195.54,548,195.62Z" fill="#a91f25"/><path d="M551.42,198.84Z" fill="#a91f25"/><path d="M551.22,198.73Z" fill="#a91f25"/><path d="M550.57,198.94s.07.08,0,.13Z" fill="#a91f25"/><path d="M550.91,199.72h0v-.1h0A.07.07,0,0,1,550.91,199.72Z" fill="#a91f25"/><path d="M550.32,199.38h0s-.1,0-.12-.15a.1.1,0,0,1,.13.06A.14.14,0,0,1,550.32,199.38Z" fill="#a91f25"/><path d="M551,200.7h0C550.91,200.7,551,200.74,551,200.7Zm0,0h0s0,0,0,0Z" fill="#a91f25"/><path d="M552.53,195.21v.1h.1S552.62,195.25,552.53,195.21Z" fill="#a91f25"/><path d="M552.53,195.76a.17.17,0,0,1-.14,0S552.53,195.72,552.53,195.76Z" fill="#a91f25"/><path d="M552.1,195.34s-.15.2-.21.2,0-.13.09-.13S552.06,195.3,552.1,195.34Z" fill="#a91f25"/><path d="M551.09,195v.26h0S551,195.07,551.09,195Z" fill="#a91f25"/><path d="M551.47,195.62Z" fill="#a91f25"/><path d="M551.76,195.94h0a.09.09,0,0,1-.1,0h0A.16.16,0,0,0,551.76,195.94Z" fill="#a91f25"/><path d="M552.53,196.66c.1,0,0,.19,0,.11h0Z" fill="#a91f25"/><path d="M552.87,197.19h0a.1.1,0,0,0,.12.1h0a.07.07,0,0,0,0,.09.15.15,0,0,1-.1.13h-.16a.36.36,0,0,1-.23-.13h0c.09,0,0,0,.09-.09s.11,0,.12,0Z" fill="#a91f25"/><path d="M552.44,196.88h0a.28.28,0,0,1-.18,0h.18Z" fill="#a91f25"/><path d="M549.7,194.52h0s.08,0,0,.13h0S549.72,194.52,549.7,194.52Z" fill="#a91f25"/><path d="M550.64,195.59Z" fill="#a91f25"/><path d="M550.8,197.32h0v-.15h0V197h-.26a.12.12,0,0,1-.14,0h0m-.15,0h-.18c-.09,0,0-.1-.08-.13h0V197h-.42a.43.43,0,0,0,0,.16h-.15c.09,0,0,.1,0,.16s0,0-.09,0,0,.08,0,.12h0s0,.16-.1.11,0,0,0-.1v.1c0,.1.1.1.11.18h0c.08,0,0,.13-.08.11h0v.1h0s.1.1,0,.14.08,0,0,0h.21v.1h0a.17.17,0,0,1,.17,0v.1h.61c.11,0,.21-.11.32,0h0v.21h0s.1-.11,0-.13h0s-.12.16,0,.23.09,0,.12,0h0v-.1h0s-.18,0-.23-.13h0a.46.46,0,0,0,.18.13h0a.43.43,0,0,0,0-.16h0v-.23h0v-.16Z" fill="#a91f25"/><path d="M552.21,197.76a.23.23,0,0,0,0-.2s-.1-.14,0-.21,0,0-.08,0H552a.11.11,0,0,1-.08-.1h-.09a.11.11,0,0,1,0-.11h0v.11h0a.28.28,0,0,1-.18,0h-.29a.19.19,0,0,1-.1.1v.1h0v.1h0a.15.15,0,0,1,0,.13h0v.16h0V198h.1a.11.11,0,0,1,.11,0h.11v.13h0a.87.87,0,0,0,.23.16H552v-.16S552.24,197.84,552.21,197.76Zm-.65-.57Zm0,.13h0a.08.08,0,0,1,0,.05Zm0-.16h.12s-.08.09-.08.05Z" fill="#a91f25"/><path d="M551.4,196.49Z" fill="#a91f25"/><path d="M550.75,196h-.18v-.11S550.72,195.94,550.75,196Z" fill="#a91f25"/><path d="M554,199.38v.14S554,199.46,554,199.38Zm0,0h0s0,.09,0,.09Z" fill="#a91f25"/><path d="M549.91,196a.38.38,0,0,1,0-.15Z" fill="#a91f25"/><path d="M552.28,198.36Z" fill="#a91f25"/><path d="M549.89,196.57Z" fill="#a91f25"/><path d="M553.26,199.57v.1h0S553.28,199.59,553.26,199.57Z" fill="#a91f25"/><path d="M548.39,195.57v-.08h0S548.4,195.59,548.39,195.57Z" fill="#a91f25"/><path d="M551.47,198.29h-.07S551.45,198.26,551.47,198.29Z" fill="#a91f25"/><path d="M552.06,198.81Z" fill="#a91f25"/><path d="M548.44,196h0v-.1h0v-.08c0-.08.09.1.13.17S548.44,196,548.44,196Z" fill="#a91f25"/><path d="M548.39,196Z" fill="#a91f25"/><path d="M551,198.62Z" fill="#a91f25"/><path d="M550.45,198.32h-.09S550.45,198.36,550.45,198.32Zm0,0Zm0,0Z" fill="#a91f25"/><path d="M551.5,199.77h0a.16.16,0,0,1-.13-.09h0A.59.59,0,0,1,551.5,199.77Zm0,0Z" fill="#a91f25"/><path d="M550.75,199.54Z" fill="#a91f25"/><path d="M548.57,199.13l-.1.1h0v-.08Z" fill="#a91f25"/><path d="M550,200.54h-.11v-.13h0S550,200.49,550,200.54Z" fill="#a91f25"/><path d="M550.77,202.29Z" fill="#a91f25"/><path d="M550.91,203Z" fill="#a91f25"/><path d="M550.91,203Z" fill="#a91f25"/><path d="M544.24,200.88a.43.43,0,0,1-.11.12.12.12,0,0,1,0,.16h0v.08h.08a.11.11,0,0,1,.08,0h.34v-.13s0,0-.11-.1h-.18a.09.09,0,0,0-.06-.12Z" fill="#a91f25"/><path d="M552.79,194.84Z" fill="#a91f25"/><path d="M552.53,194.7s0-.13.1-.12h0c0,.1-.1.16-.19.28h0v-.13h0S552.53,194.68,552.53,194.7Zm0,0h0v0Z" fill="#a91f25"/><path d="M552.19,194.74Z" fill="#a91f25"/><path d="M549.68,193v-.18S549.72,192.9,549.68,193Z" fill="#a91f25"/><path d="M552.53,195.67h-.09l.09-.12h0Z" fill="#a91f25"/><path d="M553,196Z" fill="#a91f25"/><path d="M550.36,193.66v.23A.17.17,0,0,1,550.36,193.66Z" fill="#a91f25"/><path d="M549.72,193.24Z" fill="#a91f25"/><path d="M551.85,195.67v.08C551.85,195.83,551.82,195.68,551.85,195.67Z" fill="#a91f25"/><path d="M554.88,198.42a.09.09,0,0,1,0,.1A.1.1,0,0,1,554.88,198.42Z" fill="#a91f25"/><path d="M551,195.26v.12S551,195.31,551,195.26Z" fill="#a91f25"/><path d="M552.19,196.48s.1-.13.12,0S552.26,196.53,552.19,196.48Z" fill="#a91f25"/><path d="M551.9,196.3h-.19c-.07,0,0,0,0-.1h0S551.89,196.23,551.9,196.3Z" fill="#a91f25"/><path d="M551.55,196.35s-.15,0-.12-.12S551.56,196.3,551.55,196.35Z" fill="#a91f25"/><path d="M552.24,197.11Z" fill="#a91f25"/><path d="M550.35,196.14h0V196c0-.1,0-.13.11-.18s.1,0,.16,0-.09.13-.09.23h0s-.08.1-.12.1Z" fill="#a91f25"/><path d="M549.17,194.91h0a.15.15,0,0,1,0-.13Z" fill="#a91f25"/><path d="M553.38,199.21h0l-.08-.09c-.09-.1,0-.1,0-.12h.14s0,.13,0,.2a.26.26,0,0,1-.14.11Z" fill="#a91f25"/><path d="M549.51,196h0a1.7,1.7,0,0,1-.12-.26c0-.08,0-.21.12-.24s0,0,0,.11h0v.1A2.78,2.78,0,0,1,549.51,196Z" fill="#a91f25"/><path d="M549.3,195.68h-.17c-.06,0,0,0,0-.09h0v-.12S549.42,195.55,549.3,195.68Z" fill="#a91f25"/><path d="M550.2,196.49v-.09h0S550.22,196.46,550.2,196.49Z" fill="#a91f25"/><path d="M551.84,198.31Z" fill="#a91f25"/><path d="M549.3,196.23Z" fill="#a91f25"/><path d="M551.09,198.16H551C551,198.16,551.08,198.19,551.09,198.16Z" fill="#a91f25"/><path d="M550.7,198.15h0a.14.14,0,0,1,.09,0h-.09Z" fill="#a91f25"/><path d="M550.56,198.4h.11A.11.11,0,0,1,550.56,198.4Z" fill="#a91f25"/><path d="M551,198.79Zm0,0h0s-.1,0-.1,0Z" fill="#a91f25"/><path d="M551.48,199.25s.12,0,.13.11-.08,0-.1,0-.11-.15-.19-.19h0S551.48,199.21,551.48,199.25Z" fill="#a91f25"/><path d="M550.57,198.76s-.09,0,0-.1.09,0,.09.13h0Z" fill="#a91f25"/><path d="M547.3,196.27Z" fill="#a91f25"/><path d="M549.62,199.23Z" fill="#a91f25"/><path d="M547.29,198.28Z" fill="#a91f25"/><path d="M548.65,199.67h0v-.12A.24.24,0,0,1,548.65,199.67Z" fill="#a91f25"/><path d="M549.88,198.31c-.23.22-.15.89-.15,1.2a17.52,17.52,0,0,1,0,2.51c0,.11,0,.3-.09.35s-.13-.43-.13-.53V199.3c0-.46,0-.83-.34-1s-.44-.67.13-.59" fill="#a91f25"/><polygon points="518.09 220.22 521.96 228.25 536.92 228.25 538.49 228.25 538.49 305.36 542.57 305.36 542.57 228.25 544.16 228.25 559.13 228.25 562.98 220.22 518.09 220.22" fill="#bf2026"/><g mask="url(#a)"><ellipse cx="540.53" cy="307.24" rx="21.04" ry="3.01" fill="#a91f25"/></g><g opacity="0.6"><polygon points="8.01 252.22 9.16 379.44 115.56 396.31 114.88 223.48 8.01 252.22" fill="#fff"/><polygon points="397.3 251.98 114.88 222.36 115.56 395.19 397.6 346.81 397.3 251.98" fill="#fff"/></g><polygon points="405.13 346.16 396.94 344.06 396.53 275.47 405.8 271.38 405.13 346.16" fill="#f99d1c"/><path d="M109,396.61l-35.47-6.12-11.66-2-46.23-7.94a43.37,43.37,0,0,0-7.25,22.89c-.67,19.43,10.93,35.9,26.75,39.53a29.62,29.62,0,0,0,5.54.73c11.55.39,22-6,28.36-16.2a25,25,0,0,0,11.52,6.21,24.34,24.34,0,0,0,4.5.6c15,.5,27.68-13.27,28.26-30.78a52.64,52.64,0,0,1,1.62-7.43Z" fill="#231f20"/><path d="M481.43,338.66l-4.4.44-36.56,3.58L405,346.16l.78-74.82L448.2,276l3.4.37,22.55,25.77a48.85,48.85,0,0,1,6.47,16.19A79,79,0,0,1,481.43,338.66Z" fill="#ffc629"/><path d="M344.45,356.92a23.61,23.61,0,0,1-13,16.19c-8.5,3.71-19.43.2-25.8-6.2a23.14,23.14,0,0,1-2.53-3.05Z" fill="#231f20"/><path d="M398.27,348.38l-1.09-75,.78-22-282.43-28.6v-.16l-.45.11H115L7.84,251.59l-.48.13L8.49,379.46V380l7.06,1.23.23-1.3-6-1L9.5,345.4l19.9,1.94-.21,37H30.5l.21-36.9,22.18,2.32L52.16,389h1.31l.74-39L82,352.9v38.29h1.31V353l31.4,3.24.15,38.63-6,1,.23,1.29,5.75-1v.11h1.31V396l82.85-14v1.46h1.31v-1.62l102.89-17.36ZM29.4,346,9.48,344.07l-.24-26.38,20.32.21Zm.18-29.43-20.34-.21L9,286.84l20.79-3.15Zm.19-34.22L9,285.51l-.3-32.78L30,247ZM52.9,348.48l-22.19-2.32.16-28.26,22.6-.13Zm.6-32-22.67.13L31,283.5,54.13,280ZM31.1,282.17l.2-35.53,23.63-6.35-.72,38.45ZM82,351.51l-27.81-2.9.57-30.78L82,317.61Zm0-35.21-27.21.14.68-36.62,26.53-4Zm0-41.81-26.51,4,.71-38.62,25.8-7Zm1.31-41.86,30.87-8.3.18,45.35-31.05,4.68Zm0,43,31.06-4.68.18,45.19-31.24.18Zm0,76.12V317.61l31.24-.18.15,37.43Zm248.59-78.22,18.11.24.23,25.09-17.95,1.32Zm.41,28,17.93-1.33.21,24.71-17.82,2.29Zm19-27.71,14.87.19.26,23.68-14.9,1.1Zm.23,26.28,14.9-1.1.26,23.81-14.95,1.93Zm.47,54.79L351.82,326l14.95-1.94.3,28.25ZM381,350l-12.58,2.13-.31-28.19,13.07-1.62Zm.19-29.07-13.1,1.7-.26-23.74,13.53-1Zm.17-24.29-13.53,1-.26-23.56,13.95.17Zm.95,53.22.2-27.71,14.07-1.82.39,27.05Zm13.93-53,.32,22.17-14,1.73.16-23Zm-13.56-.31.15-22.27,13.09.18.3,21.05Zm14-43.87-.74,20.47-13.05-.18L383,251.2h-1.31l-.15,21.63-14-.18-.26-23.07Zm-29.39-3.07H366l.25,23-14.85-.2L351.15,248Zm-34,108.52-.44-29.56,17.82-2.3.24,28.89ZM350.76,248h-.9l.21,24.51-18.14-.24L331.54,246Zm-18.88,110.3-19.44,3.24L312,331.12l19.43-2.51Zm-.45-30.93L312,329.84,311.52,303,331,301.59ZM311.5,301.7l-.45-28.47,19.57.26.4,26.77Zm19.15-55.81h-.47l.47,26.37L311.07,272l-.46-28.09Zm-72.22,26.66,27,.36.26,30.77-27.29,1.94Zm0,34.4,27.34-2,.24,28.26-27.61,3.56Zm-31.6-71.57v35.45l-28.55-.37-.7-38ZM198.36,344.49l-37.17,4.86-.44-35.13,37.09-2.78Zm-.63-34.36-37,2.73-.54-41.59,36.81.49Zm-1.51-77.84.71,38.15L160.12,270l-.45-41.43Zm-80.74-8.1,42.86,4.34.53,41.49-42.93-.55h-.21Zm.18,46.63H116l42.87.56.54,41.71-42.66,3.24h-.86Zm.18,46.69h1l42.63-3.16.44,35.2-43.56,5.62h-.32Zm.31,77.22L116,356.45h.28l43.55-5.62.44,34.8h1.32l-.45-34.95,37.25-4.86.65,34.87ZM199,310.11l-.71-38.26,28.54.38.19,35.66Zm0,1.31,28-2.14v31.54l-27.27,3.51Zm1.27,69.11-.63-34.81L227,342.13v33.78ZM256.92,371l-28.71,4.86V342.05L257,338.34Zm0-34-28.81,3.73V309.23L257,307.1Zm0-31.19-28.7,2.12V272.26l29,.37Zm0-34.5-29-.37V235.56l29,2.95Zm1.19,99.44v-32.6l27.63-3.56L286,366Zm28.4-129.22H285.2l.26,30.06-27-.36V238.54l50.79,5.13h0l.46,28.18-22.94-.29Zm.28,31.4,22.95.29.45,28.59-23.14,1.71Zm.27,31.91,23.15-1.72.44,26.89-23.34,3Zm.26,29.51,23.34-3,.5,30.44-23.56,4Z" fill="#fff"/><path d="M397.05,344.69,118.3,394.9,9.79,376.25,9,380.56l-1.1-.21s4.57,23.28,6.14,28.07c1.1,3.32,2.11,6.48,5.55,8A42.18,42.18,0,0,0,29,419.64c7.4,1.62,15,2,22.4,3.45,13.62,2.58,27.11,5.61,40.49,9,3,.76,3.61,1.05,5.65-1.39,2.6-3.14,10.26-24.67,11.73-30.77l8.47,1.45.57.1,279.87-50.32ZM91.84,421.64c-2.32,2.49-6.11,1-8.85.19-10.15-3-55.9-9.94-60.2-12.16-2.65-1.4-3-4.31-4-7.19-.78-2.32-2.81-13-2.81-13S62,398.59,73,400.21c5.49.81,11,1.62,16.41,2.75,2.22.42,9.43,1.62,9.43,1.62C98.8,407,94,419.3,91.84,421.64Z" fill="#fff"/><path d="M214.38,370.73a71.7,71.7,0,0,0-16.72-3.24c-10.87-.37-20.47,6.74-25.2,17.3a14.58,14.58,0,0,0-7.27-5.15c-4.44-1.62-15.69-2.84-20.23-3C126.4,376,110.75,393,110,414.64c-.6,17.81,9.71,32.84,26.27,39.58,8.32,3.42,16.87,5,25.47,1.62a36.15,36.15,0,0,0,18.93-18.2,42.22,42.22,0,0,0,3.36-10.08c8.26,5.35,19.25,7.55,28.18,3.66,11.14-4.86,17.46-17,17.81-28.74C230.57,388.47,227.11,376,214.38,370.73Z" fill="#231f20"/><path d="M404.66,343.07a48.56,48.56,0,0,0-11.33-2.14c-7.15-.24-13.51,4.28-16.81,11.09a19,19,0,0,0-9-7.43A59.18,59.18,0,0,0,353.71,342c-12.42-.42-22.9,10.95-23.39,25.41a28.05,28.05,0,0,0,7.6,20.59c6.82,6.92,18.66,10.71,27.84,6.69a25.22,25.22,0,0,0,13.7-17c.31.34.59.7.91,1,5.59,5.67,15.32,8.8,22.87,5.49s11.85-11.51,12.13-19.43C415.66,355.12,413.25,346.66,404.66,343.07Z" fill="#231f20"/><ellipse cx="210.72" cy="400.51" rx="15.41" ry="11.05" transform="translate(-195.93 599.12) rotate(-88.28)" fill="#fff"/><ellipse cx="401.82" cy="362.81" rx="9.61" ry="6.89" transform="translate(27.13 753.57) rotate(-88.28)" fill="#fff"/><path d="M477,339.15l-36.56,3.58V342c.36-10.58,8.1-18.9,17.12-18.59a43.11,43.11,0,0,1,10.14,1.89C473.74,327.81,476.41,332.93,477,339.15Z" fill="#f99d1c"/><path d="M465.93,329.4a27.85,27.85,0,0,0-7.49-1.62c-6.39-.23-11.84,6.12-12.67,14.4l-5.31.53L425,344.2a13.44,13.44,0,0,0,1,1.28c3.67,4.28,10.1,6.61,15.11,4.08a12.55,12.55,0,0,0,4.65-4.21,18.23,18.23,0,0,0,4,11c3.69,4.27,10.1,6.59,15.09,4.08s7.89-8.75,8.1-14.8C473.17,338.45,471.64,332.09,465.93,329.4Z" fill="#231f20"/><ellipse cx="462.49" cy="345.45" rx="7.26" ry="5.2" transform="translate(101.66 796.05) rotate(-88.07)" fill="#fff"/><ellipse cx="160.99" cy="420.7" rx="19.03" ry="13.64" transform="translate(-264.89 567.43) rotate(-88.07)" fill="#fff"/><ellipse cx="365.77" cy="370.56" rx="11.69" ry="8.37" transform="matrix(0.03, -1, 1, 0.03, -16.89, 723.64)" fill="#fff"/><g opacity="0.6"><polygon points="471.44 304.75 436.17 305.38 434.98 278.24 448.88 278.96 471.25 303.79 471.44 304.75" fill="#fff"/></g><path d="M39.62,280.68a.58.58,0,0,1,.31.49c-1.72-.21-8.1,2.12-9.23.17-.63-1.15.53-4.4.39-5.83-.43-4.09-2.6-7.33,2.39-8.92a2.18,2.18,0,0,1,.84-.1,6.91,6.91,0,0,0,.91,0c.41,0,.81,0,1.22,0h.22a5.74,5.74,0,0,1,1.15.38c.59.21,1.33.79,2,.63.21,0,.24-.16.32-.38a3.33,3.33,0,0,1,.46-.9,1.88,1.88,0,0,1,.35-.39l.31-.24.57-.39a6.55,6.55,0,0,1,1.94-.88c.33-.08.67-.14,1-.19-.11-.15.12-.39.17-.5s.16-.49.4-.39.08.08.15,0,0-.1.11-.12.15.09.16.15.15.18.2,0a.53.53,0,0,0,0-.29c0-.08.21-.1.26,0s-.1.52.08.6.14-.41.34-.47,0,.35.11.52.24-.17.26.08.16-.08.26,0,0,.21.08.31c.11.34.19,0,.36,0s0,.43.29.43h.26c.06,0,0,.21,0,.33s.24,0,.26.27c.26,0,0,.33,0,.29a2.17,2.17,0,0,0,0,.51l.22.21a1.74,1.74,0,0,1,.46.58c.08.13.22.53,0,.68s-.47-.2-.65-.23a1.8,1.8,0,0,0-.73,0,1.43,1.43,0,0,1-1,0v.13a1.28,1.28,0,0,0,.13.39.94.94,0,0,1,0,.47c0,.21-.2.39-.26.6a.83.83,0,0,1-.38.5.58.58,0,0,1-.32,0h0a3.7,3.7,0,0,1-.14.55.24.24,0,0,0,0,.12,3.09,3.09,0,0,0,0,.43,1.77,1.77,0,0,0,0,.46v1.1a3,3,0,0,1-.16,1.49,4.53,4.53,0,0,1-.52,1.24c-.18.28-.55.51-.7.8a4.3,4.3,0,0,0-.16.81A6.46,6.46,0,0,1,44,277a2.64,2.64,0,0,1,.47.17,3.47,3.47,0,0,1,.87.65,3.13,3.13,0,0,1-1-.22h-.1l-.44-.12-.19.26.31.15a.78.78,0,0,1,.42.32,2.11,2.11,0,0,1-.75-.13h-.24a4.32,4.32,0,0,1-.91.68h.42c.55.1,1.17.21,1.14.37s-1.12.18-1.62.13h-.91l-.21.09a5.39,5.39,0,0,1-.68.22,3.8,3.8,0,0,0,.87.16h.26a3.88,3.88,0,0,1,1.82.88,16.29,16.29,0,0,0-2.4-.42H39.65a5.09,5.09,0,0,1-.6-.25h-.56a5.54,5.54,0,0,0,.53.3Z" fill="#fff"/><path d="M168.53,300.47a2.93,2.93,0,0,0-.52-.82c-.1-.12-.2-.2-.28-.31s0-.43,0-.65c0,0,.34-.39,0-.37,0-.29,0-.41-.29-.39,0-.15.1-.28,0-.42s-.19-.11-.34-.13,0-.49-.31-.6-.37.39-.47,0v-.41c0-.08-.22,0-.34,0,0-.32-.11-.21-.32-.14v-.68c-.26,0,0,.79-.5.57s0-.54,0-.78a.2.2,0,0,0-.27-.08.18.18,0,0,0-.07.08c-.13.11,0,.24-.12.37s-.21.1-.24,0,0-.27-.19-.21-.1.1-.17.13-.11,0-.17-.1-.46.23-.57.46-.41.42-.29.63a11.39,11.39,0,0,0-1.31.13,7.73,7.73,0,0,0-2.61.87l-.8.44-.42.27a3.67,3.67,0,0,0-.52.44,5.1,5.1,0,0,0-.69,1.14c-.13.25-.2.4-.47.45-.86.11-1.75-.73-2.46-1.09a8.64,8.64,0,0,0-1.44-.61H152a10,10,0,0,0-1.62-.2h-1.18a3,3,0,0,0-1.11,0,32.45,32.45,0,0,0-3.95,1.06c-.53.19-1.11.32-1.62.5a5.76,5.76,0,0,0-1.39.61,1.17,1.17,0,0,1-.7.2c-.61,0-1.29.14-2,.19a5.31,5.31,0,0,1-2.06-.16,9.38,9.38,0,0,1-1.23-.61,1.88,1.88,0,0,0-1.23-.38c0,.49-3-.17-3.42-.16s-.5,0-.5.2.53.16.6.38-.7-.09-.89,0c.19.55.82.78,1.31,1-.31.1-1.26-.16-1.18.34s.76.39.48.83c-.09.16-.32.16-.26.37s.31.24.44.32.49.33.37.54v.1c-.35.29-.87-.13-.85.53a2.45,2.45,0,0,0,.74,1.62,2.62,2.62,0,0,0,1.49.79c.15,0,.55.2.63.09a13.33,13.33,0,0,1,1.62.53c.47.31.39.73.29,1.21s-.22,1.19-.3,1.8a2.76,2.76,0,0,0,.61,2.12c3.09,4.38,9.91,2.81,14.46,2.6,2.48-.12,4.94,0,7.41-.34,3.35-.47,3.85-1.45,5.81-3.78a5.85,5.85,0,0,0,.81-1.52,3.83,3.83,0,0,0,.41-1.91v-1.46a2.81,2.81,0,0,1,0-.58v-.1a2.57,2.57,0,0,1,.08-.47v-.15a6.4,6.4,0,0,1,.27-.68.71.71,0,0,0,.29,0l-.27-.08a.2.2,0,0,1,0-.11,1,1,0,0,0,.42,0,1,1,0,0,0,.55-.6,5.91,5.91,0,0,0,.4-.74,1,1,0,0,0,0-.6c0-.17-.14-.36-.11-.52a.54.54,0,0,0,0-.18,1.91,1.91,0,0,0,1.31.1,2.13,2.13,0,0,1,.94,0c.23,0,.55.42.81.37h0A8,8,0,0,0,168.53,300.47Z" fill="#fff"/><path d="M191.12,271.32c-4,0-8.1.08-12.12,0-3.23,0-7,.34-6.67-4v-1.83a1.28,1.28,0,0,0,0-.39V265a2.21,2.21,0,0,0-.21-.59h0v-.09a.69.69,0,0,1-.35,0,.86.86,0,0,1-.46-.51,5,5,0,0,1-.34-.65,1.14,1.14,0,0,1,0-.52,1.06,1.06,0,0,0,.13-.45V262a1.57,1.57,0,0,1-1.13,0,1.51,1.51,0,0,0-.79,0c-.21,0-.49.36-.72.31h0c-.16-.13,0-.58,0-.73a2.6,2.6,0,0,1,.47-.7l.25-.26a5.23,5.23,0,0,0,0-.56s-.29-.34,0-.31c0-.26,0-.36.26-.34s0-.23,0-.37.17-.08.29-.1,0-.42.29-.5.31.34.39,0a.54.54,0,0,1,.08-.36c.08-.08.19,0,.29,0s.1-.18.28-.11c.08-.2,0-.44.08-.6.22.08,0,.69.42.5s0-.45,0-.66a.16.16,0,0,1,.29,0c.1.09,0,.21.1.32s.17.1.19,0,0-.23.18-.18,0,.1.13.12a.76.76,0,0,0,.16,0,1.07,1.07,0,0,1,.47.38c.1.18.34.39.24.56l1.12.14a6.93,6.93,0,0,1,2.24.81l.68.39.35.24a3.31,3.31,0,0,1,.44.39,4.89,4.89,0,0,1,.57,1c.11.21.16.36.39.39.72.11,1.52-.59,2.13-.88a8.17,8.17,0,0,1,1.27-.5h.24a12.28,12.28,0,0,1,1.36-.14h1a2.13,2.13,0,0,1,.94,0,23.79,23.79,0,0,1,3.39,1c.45.18,1,.3,1.42.47a4.76,4.76,0,0,1,1.19.55,1.12,1.12,0,0,0,.6.19c.53,0,1.11.15,1.61.2a4.7,4.7,0,0,0,1.79-.1,9.4,9.4,0,0,0,1.07-.5,1.56,1.56,0,0,1,1.05-.29c0,.42,2.62-.1,2.95,0s.43,0,.43.17-.47.15-.53.33.6,0,.76,0c-.16.47-.71.65-1.15.82.28.08,1.1-.11,1,.33s-.66.3-.44.69c0,.15.28.15.23.33s-.29.21-.39.26-.42.27-.32.45h0c.29.28.74,0,.73.49a2.31,2.31,0,0,1-.68,1.34,2.42,2.42,0,0,1-1.3.66c-.13,0-.47.15-.55,0-1.81.85-.84.64-1.62,2s0,1.54-1.51,2.22C194.68,272,192.43,271.34,191.12,271.32Z" fill="#fff"/><path d="M179.09,346.76c0,.62-7.23,2.11-8,2.28a44,44,0,0,1-6.66.85c-1,0-3.24,1.08-4.11.37-1.43-1.07-1.18-10.33-1.41-10.3a.94.94,0,0,1-.41,0,1.17,1.17,0,0,1-.55-.57c-.15-.23-.29-.46-.42-.71a1.37,1.37,0,0,1,0-.57,2.19,2.19,0,0,0,.12-.52v-.16a1.92,1.92,0,0,1-1.25.13,2.32,2.32,0,0,0-.91,0c-.23,0-.52.44-.78.39h0c-.19-.11,0-.63,0-.81a2.73,2.73,0,0,1,.47-.81l.26-.29a3.31,3.31,0,0,0,0-.63s-.34-.38,0-.36c0-.29,0-.39.26-.39,0-.14-.08-.26,0-.42s.2-.11.33-.13,0-.47.27-.58.39.37.45,0v-.39c0-.08.22,0,.33,0,0-.32.1-.21.31-.16v-.67c0-.17.11.77.5.54s-.1-.5,0-.75a.2.2,0,0,1,.24-.13l.08,0c.13.1,0,.25.12.36s.21.1.24,0,0-.26.18-.21.09.1.14.11.12,0,.18-.1.44.23.57.43.4.4.29.59l1.26.1a7.39,7.39,0,0,1,2.56.78l.78.39.42.24a2.86,2.86,0,0,1,.5.42,4.24,4.24,0,0,1,.71,1.07c.13.24.2.39.46.41.82.09,1.62-.75,2.35-1.11a7.44,7.44,0,0,1,1.37-.64h.29a8.65,8.65,0,0,1,1.51-.25,8.47,8.47,0,0,0,1.13-.09,2.7,2.7,0,0,1,1.06,0c6.82,1.23,5.23,6.77,4.86,12.32Z" fill="#fff"/><path d="M198.2,289.64a9.86,9.86,0,0,1,.08-2.87c.34-1.62,2-3,2-4.6,0-.52,1.38-1.23,1.78-1.47a8.82,8.82,0,0,1,2.45-1,9,9,0,0,1,3.74-.44,12.71,12.71,0,0,1,1.62.38h-.11s-.36-.28-.31-.41a3.44,3.44,0,0,1,.34-.66c.16-.33.26.11.42,0s.47-.88.65-.55-.26.63.22.55c.2,0,.54-.44.75-.2s-.24.47.1.63.77-.37.76,0-.28.21-.26.38.31.09.44.16,0,.37.09.63.8-.13.57.36-.26.26.1.32.26,0,.29.18-.2.39.11.39c0,.09-.09.13-.09.19V282a2.53,2.53,0,0,1,.51.42,7.49,7.49,0,0,1,.93,1.32,4.26,4.26,0,0,1,.63,1.72,1.9,1.9,0,0,1-.24,1l-.33.49a2.47,2.47,0,0,1-.21.27v.08l-1.75-1.18c-.37.7-.5,1.62-1.18,2a.92.92,0,0,1-1.3-.11v0a1.63,1.63,0,0,1-.15-1c-.55.2-1,.46-1.12.83-.47,1.44-1.89,2.56-2,4.11,0,.33.18,1.05-.11,1.22s-1.51,6.07-1.75,6.83a35.22,35.22,0,0,1-3,8c-.42.67-1.11,1.93-1.83,2.27a9.06,9.06,0,0,1-2.75,0c0-2.71-.34-5.43-.27-8.1,0-3.08.45-6.15.48-9.23C198.46,291.84,198.29,290.74,198.2,289.64Z" fill="#fff"/><path d="M30.63,333.64a33.85,33.85,0,0,0-.82,6.87v3.11a9.94,9.94,0,0,1-.08,1.54c-.17,1.5-.33,1.44-1.92,1.41a23.7,23.7,0,0,1-4.26-.64,10,10,0,0,1-3.23-.79c-1.38-.74-2.08-2.12-3.24-3.24-1.45-1.37-3.75-2.46-4.86-4.11a13.07,13.07,0,0,1-1.54-3.89,3.41,3.41,0,0,1-.16-.57,47.76,47.76,0,0,0-2.21-5.52c-.19-.48-.42-1-.6-1.46a1.75,1.75,0,0,1-.11-.24l-.08-.21a5.8,5.8,0,0,0-1.17-1.85,9.53,9.53,0,0,1-1.42-1.42A4.11,4.11,0,0,1,4.57,321a1.85,1.85,0,0,0-.76-1.13,2.62,2.62,0,0,1-.74-1.11c-.23-.42-.42-.55-.23-1a2.55,2.55,0,0,1,1.62-1.21,25.81,25.81,0,0,1,2.61-.72,9.3,9.3,0,0,1,4.76.46,9.49,9.49,0,0,1,4,2.15c1.09.11,2.43,2,3.1,2.75a25.44,25.44,0,0,0,4,4.23,7.21,7.21,0,0,0,2,1c1.62.5,4.39.81,5.6,2.07.94,1,.54,2.66.67,3.86a14.74,14.74,0,0,1-.26,3.92c-.24,1.62,0,3.24-.21,4.86s0,3.69-.32,5.41c-.22,1.26-1.12,1-2.13.6s-3.24-.59-4-1.51" fill="#fff"/><path d="M3.58,319.62c1,.63,1.79-.38,2.64-.88a5.3,5.3,0,0,1,3.68-.16c1.22.26,2.64.83,2.38,2.33a9.64,9.64,0,0,1-1.41,2.72c-.65,1.14-1.62,1.7-2.73.81S6,323.36,5.06,322.68a2.12,2.12,0,0,1-1-1.51c0-.37-.2-1.41.42-1.18" fill="#ef4446"/><path d="M4.48,322.37c0,.21.29.4.38.6a3.06,3.06,0,0,1,.33.71,2.31,2.31,0,0,1,0,.83c0,.71-.15,1,.47,1.47a1.59,1.59,0,0,0,1.31.36,2.54,2.54,0,0,0,1.13-1A1.05,1.05,0,0,0,8,323.88a.86.86,0,0,0-.2-.13c-.52-.38-1.13-.59-1.62-.94-.23-.18-.47-.29-.68-.49a1.11,1.11,0,0,0-.57-.4.32.32,0,0,0-.36.28.34.34,0,0,0,0,.1Z" fill="#bf2026"/><path d="M6.11,321.75c0,.39-.92.31-1.15.39a3.65,3.65,0,0,1-1.2.42,12.84,12.84,0,0,0-2.48,0c-.42.12-.82.47-1.08.23a.72.72,0,0,1-.15-.27,1.55,1.55,0,0,1,0-.8,2.11,2.11,0,0,1,.68-1.05c.17-.15.34-.2.47-.36s.26-.45.41-.66a2.26,2.26,0,0,1,1-.86c.25-.1.93-.42,1.14-.18s.13.54.26.75a1.16,1.16,0,0,0,.77.5h.57c.13.19,0,.73.11,1S6.11,321.49,6.11,321.75Z" fill="#ffc629"/><path d="M29.84,343.52h0a9.94,9.94,0,0,1-.08,1.54c-.16,1.51-.33,1.44-1.91,1.41a23.42,23.42,0,0,1-4.26-.63,10.34,10.34,0,0,1-3.24-.8c-1.38-.74-2.08-2.12-3.24-3.24-1.44-1.37-3.74-2.46-4.86-4.11a13.62,13.62,0,0,1-1.54-3.89,5.15,5.15,0,0,1-.16-.56,47.85,47.85,0,0,0-2.2-5.53h.08c-.16-.48-.47-1-.68-1.44a1.08,1.08,0,0,1-.12-.24l-.08-.21c.34-.18.73,0,1.17.65.76,1.15,1.39,2.41,2.12,3.63A18,18,0,0,0,14,333.8a17,17,0,0,0,8.1,4.17,12.26,12.26,0,0,1,5.78,2.85A7.26,7.26,0,0,1,29.84,343.52Z" fill="#e6e7e8"/><path d="M7,319.58a1,1,0,0,0,.54.51h.16a1.3,1.3,0,0,0,.78,0h0a3.62,3.62,0,0,0,.42-.36,1,1,0,0,0-.62-.68h0a1.27,1.27,0,0,0-.58-.1l-.31.1C7.24,319.23,7,319.37,7,319.58Z" fill="#e6e7e8"/><path d="M7.52,320.05h.16a1.3,1.3,0,0,0,.78,0h0a.49.49,0,0,0,.16-.32.74.74,0,0,0-.35-.71h0a1.21,1.21,0,0,0-.59-.1l-.31.1a.63.63,0,0,0,0,.89A.52.52,0,0,0,7.52,320.05Z" fill="#f89c1c"/><path d="M8,319.08a.54.54,0,0,1,.48.7.49.49,0,0,1-.26.27c-.34.15-.65-.26-.69-.55a.32.32,0,0,1,0-.3.37.37,0,0,1,.27-.13Z" fill="#231f20"/><path d="M8,319.39v.1c0,.09-.12,0-.15,0h0c0-.12.13-.12.18,0" fill="#fff"/><path d="M6.11,321.75c0,.39-.92.31-1.15.39a3.65,3.65,0,0,1-1.2.42,12.84,12.84,0,0,0-2.48,0c-.42.12-.82.47-1.08.23h0a1.8,1.8,0,0,1,.71-.66,14.82,14.82,0,0,1,1.82-.81c.63-.25,1.19-.57,1.81-.88a4.88,4.88,0,0,1,.83-.4c.13.19,0,.73.11,1S6.11,321.49,6.11,321.75Z" fill="#f99d1c"/><path d="M.25,322.64a1.92,1.92,0,0,1,.94-.77l1.08-.59a5.68,5.68,0,0,1,2.35-.63,3,3,0,0,0-1.17.28,8.44,8.44,0,0,0-1.1.52l-1.13.5A1.79,1.79,0,0,0,.25,322.64Z" fill="#231f20"/><path d="M2.9,320.07c0,.34-.35.24-.5.4h0a1,1,0,0,1,.23-.24.54.54,0,0,1,.27-.14Z" fill="#231f20"/><path d="M2.22,318.82a5.24,5.24,0,0,0,.44-.5,7.33,7.33,0,0,0,.39-.91c.31-.61.34-1.62,1.1-1.81.18.78.62.18.83-.21.37-.71.47-1.09,1-.36a2,2,0,0,1,.87-1.21c.18.22.23.53.39.76.26-.23,1-1.36,1-.36a3,3,0,0,0,.94-.4c.29.47-.16,1,.68.52a1.15,1.15,0,0,1-.2.53c.2,0,.41-.1.64-.11,0,.22-.09.47-.1.69.26,0,.58.18.58.46s-.35.31-.68.31a7.14,7.14,0,0,0-2.83.34,7.61,7.61,0,0,0-1.62.92,3.24,3.24,0,0,0-1.23,1.29c-.12.36.11.59.09.89a1.12,1.12,0,0,1-.51-.22,1.51,1.51,0,0,0-.52,0,2.31,2.31,0,0,1-.83,0,2.77,2.77,0,0,1-.5-.1c-.24-.1-.1-.23,0-.39Z" fill="#bf2026"/><path d="M9.45,319c.32.26.29.76.31,1.13.34-.27.09-1.12-.31-1.08" fill="#fff"/><path d="M8.23,317.22a2.52,2.52,0,0,1,1.91,1.33c0-.89-1.45-2-2.21-1.33" fill="#e6e7e8"/><path d="M221.07,325.12c-.43.39-.94.75-1.32,1.15a8.59,8.59,0,0,0-1,2.11c-.34.79-.65,1.62-.95,2.46,0,.16-.13.32-.18.49h0v.09a10,10,0,0,0-.36,1.3l-.08.37c-.13.67-.21,1.33-.31,2a22.34,22.34,0,0,1-.26,4.32c-.6,1.9-2.88,2.54-4.63,2.77-3,.41-5.89,1-8.84,1.62a33,33,0,0,1-3.68.78h-.56a33.9,33.9,0,0,1-.75-4.12,30.8,30.8,0,0,0,0-5.26,18.46,18.46,0,0,1-.23-5.3c.13-.87.33-1.76.49-2.65a3,3,0,0,1,2-2.63c2-.9,4.05-1.47,6.07-2.18a19.29,19.29,0,0,0,2.85-1.1,13,13,0,0,1,4.23-1.43,15.61,15.61,0,0,1,3.13-.24,7.5,7.5,0,0,1,1.81.39,4.71,4.71,0,0,1,2.79,2.22A2.28,2.28,0,0,1,221.07,325.12Z" fill="#efefef"/><path d="M220.51,321.2c-.43-.08-.32,1.27-.66,1.48s-.86-.21-1.12-.39a6.55,6.55,0,0,0-1.18-.75,2.83,2.83,0,0,0-1.76-.29c-.39.1-.88.33-1,.75a3.83,3.83,0,0,0,0,1.07c0,.35-.11.45-.4.61a2.59,2.59,0,0,0-1.22,1,3.75,3.75,0,0,0-.17,1.79c.13,1,1.23,1.72,2,2.24a2,2,0,0,0,2.09-.08,5,5,0,0,0,1.62-1.35c.23-.24.42-.5.65-.74a3.74,3.74,0,0,1,.94-.62,3.06,3.06,0,0,0,1.78-2.14,2.45,2.45,0,0,0-.6-2.07C221.45,321.61,220.51,320.93,220.51,321.2Z" fill="#ef4446"/><path d="M219.09,326.19c.1.21.49.31.68.41a3.19,3.19,0,0,0,2.11.16,3.54,3.54,0,0,1,1.52,0c.39.11.9.68,1.33.61h.11c.32-.22.08-1.08,0-1.37a4.28,4.28,0,0,0-.83-1.35,3.51,3.51,0,0,1-.81-1l-.13-.24a1.64,1.64,0,0,0-.51-.57,3.31,3.31,0,0,0-1-.52c-.34,0-.42.25-.47.6a3.72,3.72,0,0,1-.17,1.8,1.5,1.5,0,0,1-.28.37c-.29.26-.65.51-.94.75A5.71,5.71,0,0,1,219.09,326.19Z" fill="#ffc629"/><path d="M217.89,330.86a16.1,16.1,0,0,1-.66,1.92,1.23,1.23,0,0,0-.08.38c-.13.66-.21,1.32-.31,2a23.22,23.22,0,0,1-.26,4.33c-.6,1.89-2.88,2.54-4.63,2.77-3,.4-5.9,1-8.85,1.62a30.27,30.27,0,0,1-3.67.77,13.29,13.29,0,0,1,2-1.62,39.84,39.84,0,0,1,3.84-2.86,46.78,46.78,0,0,0,4.29-3c.9-.82.76-2.28,1.62-3.11a15.12,15.12,0,0,1,3.24-1.75c1.37-.69,2-2.09,3.54-1.37Z" fill="#e6e7e8"/><path d="M223.53,323.08v1.17c-.34,0-.52-.47-.76-.67s-.62-.38-.91-.61a1.87,1.87,0,0,1-.54-.89,2.58,2.58,0,0,0-.74-1,7.35,7.35,0,0,0-2.87-1.41,1.31,1.31,0,0,1-.61-.1,2.47,2.47,0,0,0-.6-.08c-.21,0-.62.12-.75-.13s.38-.74.51-1,.43-1,.92-.73c.11,0,.14.21.29.14s.15-.16.24-.19.29.19.33.34.26.4.39.1,0-.43.17-.6a.32.32,0,0,1,.46,0,.26.26,0,0,1,.09.14c.17.39-.32,1.05,0,1.26.67.36.39-.81.8-.94.24.29,0,.76.13,1.12.34-.1.55-.29.52.24.19,0,.38-.13.55,0s.08.46.13.67c.14.71.42,0,.76.08s-.1.89.5.95c.23,0,.4-.09.55.21s-.15.46,0,.7c.53,0,.49.16.47.65C224.09,322.47,223.53,323.16,223.53,323.08Z" fill="#bf2026"/><path d="M219.82,326.89a2.47,2.47,0,0,0,.21.84,2,2,0,0,1,0,1,8.53,8.53,0,0,1-.67,1.22,1.58,1.58,0,0,1-.89,1,3,3,0,0,1-2.51-.73,2.26,2.26,0,0,1-.81-1.83,5.36,5.36,0,0,0,3.24-1.62c.36-.34.67-.91,1.15-.36C219.82,326.65,219.85,326.92,219.82,326.89Z" fill="#bf2026"/><path d="M219.09,326.19c.1.21.49.31.68.41a3.19,3.19,0,0,0,2.11.16,3.54,3.54,0,0,1,1.52,0c.39.11.9.68,1.33.61h.11a4.19,4.19,0,0,0-1.1-1.16,8.55,8.55,0,0,0-2.84-1.51,1.26,1.26,0,0,1-.27.37c-.29.26-.65.51-.94.75A5.91,5.91,0,0,1,219.09,326.19Z" fill="#f99d1c"/><path d="M217.63,331.12h0a1.88,1.88,0,0,0,.58.13Z" fill="#e6e7e8"/><path d="M218.15,323.42c0,.18-.36.33-.55.39h-.16a1.22,1.22,0,0,1-.68-.13h0a3.61,3.61,0,0,1-.33-.35.91.91,0,0,1,.65-.54h0a1,1,0,0,1,.54,0,.75.75,0,0,1,.25.13C218,323,218.22,323.24,218.15,323.42Z" fill="#e6e7e8"/><path d="M217.65,323.78h-.16a1.22,1.22,0,0,1-.68-.13h0a.4.4,0,0,1-.1-.31.69.69,0,0,1,.42-.58h0a1,1,0,0,1,.53,0,.79.79,0,0,1,.26.13.56.56,0,0,1-.09.79A.54.54,0,0,1,217.65,323.78Z" fill="#f89c1c"/><path d="M217.36,322.86a.47.47,0,0,0-.49.25.51.51,0,0,0,0,.3.39.39,0,0,0,.18.27c.29.18.61-.13.71-.39a.37.37,0,0,0,0-.29.41.41,0,0,0-.23-.13A.25.25,0,0,0,217.36,322.86Z" fill="#231f20"/><path d="M217.36,323.13a.11.11,0,0,0,0,.08h.13l.08-.08c0-.1-.1-.11-.16,0" fill="#fff"/><path d="M224.73,327.13a7.06,7.06,0,0,0-1.62-1.21,8.57,8.57,0,0,0-1.77-1.1,9.17,9.17,0,0,1,1.83,1A7.38,7.38,0,0,1,224.73,327.13Z" fill="#231f20"/><path d="M222.54,324.17a.19.19,0,0,0-.18,0h0a1.15,1.15,0,0,1,.33.21.92.92,0,0,1,.24.39h0a.86.86,0,0,0-.29-.31l-.18-.13s-.2,0-.18-.18h0a.28.28,0,0,1,.21.13Z" fill="#231f20"/><path d="M277.87,234.05c-.38.33-.83.63-1.17,1-1.15,1.22-.84,3.68-2.25,4.6-1.88,1.22-6-.4-8.1-.69s-7.82.76-8.78-1.85c-1.28-3.53,5.44-4.68,7.42-5.36a16.89,16.89,0,0,0,2.49-.92,11.68,11.68,0,0,1,3.76-1.22,14.1,14.1,0,0,1,2.75-.21,6.77,6.77,0,0,1,1.62.34,4.06,4.06,0,0,1,2.48,1.9A1.91,1.91,0,0,1,277.87,234.05Z" fill="#efefef"/><path d="M277.38,230.7c-.39,0-.29,1.08-.6,1.26s-.76-.19-1-.34a5.32,5.32,0,0,0-1.05-.63,2.6,2.6,0,0,0-1.62-.26c-.34.1-.78.28-.86.65a2.32,2.32,0,0,0,0,.91c0,.3-.12.39-.36.53s-.86.37-1.08.86a3.1,3.1,0,0,0-.15,1.54c.11.82,1.07,1.46,1.73,1.89a1.76,1.76,0,0,0,1.85,0,4.71,4.71,0,0,0,1.49-1.13c.19-.21.36-.45.55-.65a4.1,4.1,0,0,1,.84-.53,2.62,2.62,0,0,0,1.62-1.82,2.05,2.05,0,0,0-.53-1.78C278.21,231.06,277.41,230.46,277.38,230.7Z" fill="#ef4446"/><path d="M276.12,235c0,.19.43.26.6.34a3,3,0,0,0,1.87.16,2.72,2.72,0,0,1,1.33,0c.36.1.81.58,1.17.52h.11c.29-.2,0-.94,0-1.18a3.7,3.7,0,0,0-.73-1.14,4.07,4.07,0,0,1-.73-.87l-.09-.21a1.23,1.23,0,0,0-.47-.49,2.48,2.48,0,0,0-.85-.45c-.35,0-.38.21-.42.52a3.71,3.71,0,0,1-.16,1.53.81.81,0,0,1-.24.31c-.26.23-.57.44-.83.65S276.28,234.83,276.12,235Z" fill="#ffc629"/><path d="M280,232.3v1c-.3,0-.46-.41-.67-.57a8.57,8.57,0,0,0-.81-.52,1.78,1.78,0,0,1-.47-.78,2.08,2.08,0,0,0-.66-.84,6.43,6.43,0,0,0-2.53-1.2h-.55a2.25,2.25,0,0,0-.52-.08c-.19,0-.55.1-.66-.09s.32-.65.44-.86.38-.84.82-.62c.1,0,.13.18.26.13s.13-.14.21-.18.26.18.29.31.23.33.34,0,0-.36.16-.5a.3.3,0,0,1,.42,0,.21.21,0,0,1,.07.11c.15.32-.29.9,0,1.07.6.3.34-.69.71-.8.2.24,0,.65.12,1,.29-.08.47-.25.45.21.16,0,.34-.12.49,0s.08.39.11.56c.13.62.37,0,.66,0s0,.77.46.83c.21,0,.35-.1.48.18s-.13.39,0,.58c.47,0,.42.15.41.57C280.54,231.77,280,232.38,280,232.3Z" fill="#bf2026"/><path d="M276.76,235.56a4.11,4.11,0,0,0,.18.71,1.67,1.67,0,0,1,0,.83,7.17,7.17,0,0,1-.58,1.05,1.56,1.56,0,0,1-.79.83,2.65,2.65,0,0,1-2.21-.64,1.82,1.82,0,0,1-.71-1.62,4.83,4.83,0,0,0,2.9-1.34c.31-.29.58-.78,1-.31S276.8,235.57,276.76,235.56Z" fill="#bf2026"/><path d="M276.12,235c0,.19.43.26.6.34a3,3,0,0,0,1.87.16,2.72,2.72,0,0,1,1.33,0c.36.1.81.58,1.17.52h.11a4,4,0,0,0-1-1,8.06,8.06,0,0,0-2.51-1.28.92.92,0,0,1-.24.31c-.26.23-.57.44-.83.65S276.28,234.83,276.12,235Z" fill="#f99d1c"/><path d="M274.84,239.17h0a1.25,1.25,0,0,0,.5.11Z" fill="#e6e7e8"/><path d="M275.29,232.59a.83.83,0,0,1-.49.33h-.14a1.12,1.12,0,0,1-.6-.1h0c-.11-.1-.18-.21-.29-.31a.83.83,0,0,1,.58-.45h0a1.24,1.24,0,0,1,.47,0,.7.7,0,0,1,.23.11C275.16,232.27,275.34,232.45,275.29,232.59Z" fill="#e6e7e8"/><path d="M274.84,232.9h-.15a1.13,1.13,0,0,1-.6-.09h0a.42.42,0,0,1-.08-.26.62.62,0,0,1,.37-.51h0a1.24,1.24,0,0,1,.47,0,.63.63,0,0,1,.23.12.45.45,0,0,1,0,.64A.42.42,0,0,1,274.84,232.9Z" fill="#f89c1c"/><path d="M274.58,232.11a.44.44,0,0,0-.42.21.39.39,0,0,0,0,.26.31.31,0,0,0,.16.24c.24.15.55-.11.63-.34a.33.33,0,0,0,0-.24.23.23,0,0,0-.19-.11Z" fill="#231f20"/><path d="M274.59,232.35h.12s-.08-.1-.13,0" fill="#fff"/><path d="M281.1,235.77a6.35,6.35,0,0,0-1.47-1.05,8.4,8.4,0,0,0-1.62-.93,7.51,7.51,0,0,1,1.62.83A6.55,6.55,0,0,1,281.1,235.77Z" fill="#231f20"/><path d="M279.16,233.24a.17.17,0,0,0-.14,0h0a1.75,1.75,0,0,1,.29.18,1,1,0,0,1,.21.32h0a1,1,0,0,0-.26-.27l-.15-.1s-.18,0-.16-.16h0a.22.22,0,0,1,.18.1Z" fill="#231f20"/><path d="M60.37,297c.42.39.92.76,1.29,1.16a7.75,7.75,0,0,1,.91,2.14c.32.81.63,1.62.91,2.48a1.6,1.6,0,0,0,.18.5h0a.24.24,0,0,0,0,.12,7.16,7.16,0,0,1,.32,1.29V305c.11.67.18,1.33.26,2a22.49,22.49,0,0,0,.16,4.34c.55,1.89,2.82,2.61,4.57,2.87,3,.47,5.88,1.11,8.81,1.75a27,27,0,0,0,3.66.87H82a31.65,31.65,0,0,0,.82-4.1,33,33,0,0,1,0-5.26,18.85,18.85,0,0,0,.36-5.3c-.12-.87-.29-1.76-.44-2.65a2.94,2.94,0,0,0-2-2.68c-2-.87-4-1.65-6-2.33a18.13,18.13,0,0,1-2.82-1.15,12.7,12.7,0,0,0-4.21-1.54,15.4,15.4,0,0,0-3.11-.3,6.52,6.52,0,0,0-1.81.35,4.65,4.65,0,0,0-2.63,2.22A2.28,2.28,0,0,0,60.37,297Z" fill="#efefef"/><path d="M61,293.05c.43-.08.29,1.27.63,1.49s.87-.21,1.12-.37a7.59,7.59,0,0,1,1.19-.73,2.91,2.91,0,0,1,1.79-.24c.38.11.85.34.93.76a2.75,2.75,0,0,1,0,1.07.61.61,0,0,0,.39.63,2.53,2.53,0,0,1,1.2,1,3.66,3.66,0,0,1,0,1.8c-.14,1-1.26,1.62-2,2.18a2,2,0,0,1-2.09-.13,5.22,5.22,0,0,1-1.62-1.37c-.21-.25-.41-.52-.62-.76a3.37,3.37,0,0,0-.94-.65,3,3,0,0,1-1.71-2.17,2.43,2.43,0,0,1,.63-2.06C60.06,293.43,61,292.76,61,293.05Z" fill="#ef4446"/><path d="M62.33,298.08c-.1.21-.49.29-.7.37a3.16,3.16,0,0,1-2.1.13,3.3,3.3,0,0,0-1.53,0c-.39.09-.92.66-1.32.58h-.13c-.33-.24,0-1.08,0-1.38a4.22,4.22,0,0,1,.87-1.31,3.82,3.82,0,0,0,.83-1l.13-.25a1.55,1.55,0,0,1,.53-.55,3.19,3.19,0,0,1,1-.5c.39,0,.42.25.46.62a4.85,4.85,0,0,0,.14,1.8,1.25,1.25,0,0,0,.28.37c.27.26.61.52.92.78S62.15,297.91,62.33,298.08Z" fill="#ffc629"/><path d="M63.41,302.76a16.71,16.71,0,0,0,.6,1.94.77.77,0,0,1,0,.37c.12.67.18,1.33.26,2a23.32,23.32,0,0,0,.16,4.34c.55,1.89,2.82,2.61,4.57,2.87,3,.47,5.88,1.11,8.81,1.74a27.08,27.08,0,0,0,3.66.88,13,13,0,0,0-1.93-1.62,41.45,41.45,0,0,0-3.77-3,42,42,0,0,1-4.23-3c-.89-.85-.71-2.3-1.52-3.14a16,16,0,0,0-3.12-1.83c-1.35-.73-1.92-2.14-3.52-1.46C63.41,302.76,63.41,302.74,63.41,302.76Z" fill="#e6e7e8"/><path d="M58,294.93v1.17c.36,0,.54-.45.78-.65s.63-.37.94-.58a2.22,2.22,0,0,0,.55-.89,2.78,2.78,0,0,1,.76-1,7.34,7.34,0,0,1,2.9-1.35,1.63,1.63,0,0,0,.62-.08,2,2,0,0,1,.6,0c.22,0,.63.13.76-.1s-.36-.76-.49-1-.42-1-.9-.76c-.12,0-.15.21-.3.14s-.14-.16-.24-.21-.31.2-.32.34-.28.39-.41,0,0-.42-.16-.6a.33.33,0,0,0-.46,0,.3.3,0,0,0-.09.13c-.18.39.31,1.07,0,1.26-.68.34-.37-.8-.79-.95-.23.29,0,.76-.15,1.12-.34-.12-.53-.29-.53.22-.18,0-.38-.13-.54,0s-.1.44-.14.65c-.17.71-.43,0-.77,0s0,.89-.53,1c-.23,0-.4-.12-.55.19s.15.45,0,.7c-.54,0-.49.14-.49.63C57.4,294.2,58,294.93,58,294.93Z" fill="#bf2026"/><path d="M61.57,298.74a3,3,0,0,1-.21.84,1.78,1.78,0,0,0,0,1,7.13,7.13,0,0,0,.63,1.23,1.57,1.57,0,0,0,.86,1,3,3,0,0,0,2.52-.66,2.15,2.15,0,0,0,.84-1.83A5.33,5.33,0,0,1,63,298.66c-.36-.34-.65-.92-1.14-.39C61.58,298.5,61.53,298.77,61.57,298.74Z" fill="#bf2026"/><path d="M62.33,298.08c-.1.21-.49.29-.7.37a3.16,3.16,0,0,1-2.1.13,3.3,3.3,0,0,0-1.53,0c-.39.09-.92.66-1.32.58h-.13A4.05,4.05,0,0,1,57.68,298a8.43,8.43,0,0,1,2.87-1.44,1.22,1.22,0,0,0,.27.37c.28.26.62.52.92.78S62.15,297.91,62.33,298.08Z" fill="#f99d1c"/><path d="M63.67,303h0a1.22,1.22,0,0,1-.56.11Z" fill="#e6e7e8"/><path d="M63.41,295.32a.89.89,0,0,0,.54.39.43.43,0,0,0,.16,0,1.07,1.07,0,0,0,.68-.1h0a1.88,1.88,0,0,0,.34-.35.86.86,0,0,0-.63-.54h0a1,1,0,0,0-.54,0l-.27.12C63.41,294.93,63.27,295.14,63.41,295.32Z" fill="#e6e7e8"/><path d="M63.82,295.68H64a1.07,1.07,0,0,0,.68-.1h0a.36.36,0,0,0,.11-.31.7.7,0,0,0-.4-.58h0a.83.83,0,0,0-.54,0l-.27.11a.57.57,0,0,0,.11.8A.53.53,0,0,0,63.82,295.68Z" fill="#f89c1c"/><path d="M64.14,294.76a.5.5,0,0,1,.47.27.55.55,0,0,1,0,.31.48.48,0,0,1-.19.27c-.29.17-.62-.16-.7-.42a.26.26,0,0,1,0-.27.31.31,0,0,1,.23-.15Z" fill="#231f20"/><path d="M64.13,295.05a.11.11,0,0,1,0,.08H64c0-.1.11-.13.16,0" fill="#fff"/><path d="M56.68,298.89a7,7,0,0,1,1.61-1.32,8.78,8.78,0,0,1,1.87-.92,8.37,8.37,0,0,0-1.78,1A6.54,6.54,0,0,0,56.68,298.89Z" fill="#231f20"/><path d="M58.91,296a.24.24,0,0,1,.21-.11h0c0,.18-.16.15-.19.18l-.17.11a1.38,1.38,0,0,0-.21.42h0a.76.76,0,0,1,.26-.37.86.86,0,0,1,.33-.23h0a.15.15,0,0,0-.16,0Z" fill="#231f20"/><path d="M287.84,303.84a20.91,20.91,0,0,0,3.52-.44,8.9,8.9,0,0,0,2.69-.6c1.15-.59,1.74-1.71,2.68-2.57,1.22-1.1,3.13-2,4-3.24a12.31,12.31,0,0,0,1.36-3.24,1.85,1.85,0,0,1,.13-.47,38.68,38.68,0,0,1,1.91-4.5c.18-.39.37-.79.53-1.18l.1-.21v-.18a4.44,4.44,0,0,1,1-1.49,8.16,8.16,0,0,0,1.2-1.15c.29-.41.21-.88.33-1.33a1.55,1.55,0,0,1,.64-.92,2.16,2.16,0,0,0,.64-.89c.19-.34.35-.44.21-.81a2.17,2.17,0,0,0-1.3-1,19.15,19.15,0,0,0-2.12-.63,7.55,7.55,0,0,0-3.94.27,7.85,7.85,0,0,0-3.35,1.7c-.89,0-2,1.62-2.59,2.21a21,21,0,0,1-3.39,3.4,5.72,5.72,0,0,1-1.62.81c-1.81.52-3.11.26-3.64,2.22a24.77,24.77,0,0,0,0,5C286.77,296.65,284.76,303.83,287.84,303.84Z" fill="#fff"/><path d="M308.33,282.11c-.86.48-1.46-.36-2.15-.78a4.31,4.31,0,0,0-3-.21c-1,.19-2.2.63-2,1.88a7.65,7.65,0,0,0,1.1,2.26c.51,1,1.32,1.45,2.23.73s1.78-.86,2.56-1.39a1.84,1.84,0,0,0,.91-1.23c0-.31.18-1.17-.33-1" fill="#ef4446"/><path d="M307.55,284.36c0,.16-.26.32-.34.47a3.06,3.06,0,0,0-.27.58,1.94,1.94,0,0,0,0,.68c0,.58.09.81-.41,1.2a1.21,1.21,0,0,1-1.08.27,2.06,2.06,0,0,1-.93-.82.88.88,0,0,1,.21-1.22l.1-.06c.42-.29.94-.44,1.38-.73a3.44,3.44,0,0,0,.55-.39c.14-.13.29-.31.48-.32a.25.25,0,0,1,.3.21.2.2,0,0,1,0,.11Z" fill="#bf2026"/><path d="M306.21,283.81c0,.32.76.26,1,.34a3.06,3.06,0,0,0,1,.37,9.93,9.93,0,0,1,2,0c.34.1.66.4.87.21s.1-.11.13-.23a1,1,0,0,0,0-.64,1.63,1.63,0,0,0-.55-.9,2.06,2.06,0,0,1-.37-.29c-.13-.18-.2-.37-.33-.55a1.85,1.85,0,0,0-.81-.73c-.19,0-.74-.37-.92-.16s-.11.42-.23.6a1,1,0,0,1-.64.41h-.47c-.12.16,0,.59-.12.79S306.21,283.6,306.21,283.81Z" fill="#ffc629"/><path d="M286.25,301.41h0c0,.42,0,.84,0,1.27.1,1.24.23,1.21,1.54,1.21a22,22,0,0,0,3.52-.44,8.9,8.9,0,0,0,2.69-.6c1.15-.6,1.75-1.71,2.69-2.57,1.21-1.1,3.12-2,4-3.24a12,12,0,0,0,1.36-3.24,1.75,1.75,0,0,1,.13-.47,38.68,38.68,0,0,1,1.91-4.5h0a9.23,9.23,0,0,1,.6-1.17l.1-.21v-.18c-.28-.14-.6,0-1,.52-.64.92-1.18,2-1.81,2.95a14.86,14.86,0,0,1-2.58,2.85,14.19,14.19,0,0,1-6.78,3.24,10.35,10.35,0,0,0-4.86,2.25A6.26,6.26,0,0,0,286.25,301.41Z" fill="#e6e7e8"/><path d="M305.5,282a.86.86,0,0,1-.46.4h-.14a1,1,0,0,1-.64,0h0a3.07,3.07,0,0,1-.34-.29.84.84,0,0,1,.52-.55h0a.75.75,0,0,1,.47,0,.61.61,0,0,1,.26.08C305.32,281.67,305.53,281.83,305.5,282Z" fill="#e6e7e8"/><path d="M305.07,282.38h-.14a1,1,0,0,1-.63,0h0a.41.41,0,0,1-.13-.27.64.64,0,0,1,.31-.57h0a.75.75,0,0,1,.47,0,.53.53,0,0,1,.25.08.51.51,0,0,1-.05.71Z" fill="#f89c1c"/><path d="M304.73,281.57a.47.47,0,0,0-.4.29.45.45,0,0,0,0,.28.43.43,0,0,0,.21.23c.28.12.53-.2.58-.44a.3.3,0,0,0,0-.26.27.27,0,0,0-.22-.1Z" fill="#231f20"/><path d="M304.73,281.83v.08h.13s-.11-.11-.16,0" fill="#fff"/><path d="M306.21,283.81c0,.32.76.26,1,.34a3.06,3.06,0,0,0,1,.37,9.93,9.93,0,0,1,2,0c.34.1.66.4.87.21h0a1.36,1.36,0,0,0-.57-.57,13.12,13.12,0,0,0-1.47-.69,15.62,15.62,0,0,1-1.47-.75,4,4,0,0,0-.68-.35c-.12.16,0,.59-.12.79S306.21,283.6,306.21,283.81Z" fill="#f99d1c"/><path d="M311,284.65a1.94,1.94,0,0,0-.79-.6l-.91-.42a4.64,4.64,0,0,0-1.86-.71,4.66,4.66,0,0,1,1.92.58l.88.48A2.13,2.13,0,0,1,311,284.65Z" fill="#231f20"/><path d="M308.9,282.48a.74.74,0,0,1,.4.34h0C309.19,282.69,308.91,282.82,308.9,282.48Z" fill="#231f20"/><path d="M309.48,281.46a2.36,2.36,0,0,1-.36-.42c-.13-.23-.19-.5-.3-.75-.25-.5-.26-1.36-.88-1.5-.16.63-.52.13-.66-.2-.31-.6-.38-.91-.88-.32a1.51,1.51,0,0,0-.69-1c-.15.18-.2.44-.34.62-.21-.2-.8-1.15-.78-.31a2.65,2.65,0,0,1-.76-.36c-.26.38.11.86-.59.43a1.1,1.1,0,0,0,.17.42c-.17,0-.33-.08-.52-.1s0,.39,0,.58-.49.13-.49.36.29.27.55.27a6.21,6.21,0,0,1,2.34.33,6.61,6.61,0,0,1,1.36.79,2.67,2.67,0,0,1,1,1.1c.1.3-.11.47-.09.73.16,0,.29-.13.43-.18a1,1,0,0,1,.42,0,1.61,1.61,0,0,0,.69,0,1.48,1.48,0,0,0,.42,0c.19,0,.08-.17,0-.32Z" fill="#bf2026"/><path d="M303.5,281.49c-.26.21-.24.62-.26.92-.27-.22,0-.92.26-.89" fill="#fff"/><path d="M304.54,280a2.09,2.09,0,0,0-1.62,1.06c0-.73,1.25-1.62,1.85-1.06" fill="#e6e7e8"/><path d="M354.16,325.17c.83-.42,1.25-1.21,1.93-1.83S358.33,322,359,321a9.24,9.24,0,0,0,1-2.26l.09-.34a28.79,28.79,0,0,1,1.36-3.24c.13-.28.26-.57.38-.85a.64.64,0,0,0,.08-.14V314a3.51,3.51,0,0,1,.71-1.07,8.24,8.24,0,0,0,.86-.81c.21-.29.14-.63.23-1a1.05,1.05,0,0,1,.47-.66,1.66,1.66,0,0,0,.45-.63c.13-.24.26-.33.14-.58a1.59,1.59,0,0,0-.92-.75,15.63,15.63,0,0,0-1.52-.45,5.41,5.41,0,0,0-2.82.21,5.67,5.67,0,0,0-2.4,1.2c-.63,0-1.45,1.13-1.84,1.62a15.45,15.45,0,0,1-2.42,2.43c-.95.66-1.62.72-2.05,2a9.32,9.32,0,0,0,.27,4c.18,1.49.39,3,.59,4.49,0,.39,0,1.62.32,1.83S353.63,325.45,354.16,325.17Z" fill="#fff"/><path d="M364.38,310.38c-.61.34-1.05-.25-1.61-.56a3.27,3.27,0,0,0-2.18-.15c-.71.15-1.61.46-1.42,1.35a5.42,5.42,0,0,0,.79,1.62c.36.68,1,1,1.62.51a20,20,0,0,1,1.83-1,1.29,1.29,0,0,0,.63-.88c0-.23.13-.82-.22-.71" fill="#ef4446"/><path d="M363.82,312c0,.13-.18.22-.25.34a4.08,4.08,0,0,0-.19.42,1.29,1.29,0,0,0,0,.48c0,.43.08.59-.29.86a.88.88,0,0,1-.78.2,1.57,1.57,0,0,1-.66-.59.64.64,0,0,1,.15-.88l.07,0c.31-.21.67-.32,1-.53a2.14,2.14,0,0,0,.39-.28.77.77,0,0,1,.36-.23.18.18,0,0,1,.2.15.17.17,0,0,1,0,.1Z" fill="#bf2026"/><path d="M362.86,311.6c0,.23.55.19.68.24a3,3,0,0,0,.7.28,5.94,5.94,0,0,1,1.46,0c.24,0,.48.27.63.14a.62.62,0,0,0,.1-.16,1.24,1.24,0,0,0,0-.47A1.22,1.22,0,0,0,366,311c-.08,0-.18-.11-.26-.21s-.14-.28-.23-.39a1.41,1.41,0,0,0-.58-.53c-.14,0-.53-.26-.66-.12s-.08.31-.16.44a.65.65,0,0,1-.47.28h-.33V311C363.33,311.18,362.86,311.44,362.86,311.6Z" fill="#ffc629"/><path d="M351.56,323.54a6.28,6.28,0,0,0,.39,1.18c1,2.4,3.07-.41,4.14-1.38S358.33,322,359,321a9.24,9.24,0,0,0,1-2.26l.09-.34a28.79,28.79,0,0,1,1.36-3.24h0a8.13,8.13,0,0,1,.43-.83.53.53,0,0,0,.08-.15V314c-.2-.09-.42,0-.7.38-.47.66-.86,1.39-1.3,2.1a10.15,10.15,0,0,1-1.84,2,9.89,9.89,0,0,1-4.86,2.33,2,2,0,0,0-1.77,2.16A2.15,2.15,0,0,0,351.56,323.54Z" fill="#e6e7e8"/><path d="M362.34,310.3c0,.12-.19.25-.32.3h-.08a.86.86,0,0,1-.45,0h0l-.26-.22a.64.64,0,0,1,.39-.4h0a1,1,0,0,1,.34,0h.17C362.23,310.06,362.38,310.19,362.34,310.3Z" fill="#e6e7e8"/><path d="M362.05,310.58H362a.69.69,0,0,1-.45,0h0a.26.26,0,0,1-.1-.2.46.46,0,0,1,.23-.42h0a1,1,0,0,1,.34,0h.18a.38.38,0,0,1,0,.53A.3.3,0,0,1,362.05,310.58Z" fill="#f89c1c"/><path d="M361.78,310a.38.38,0,0,0-.28.21.31.31,0,0,0,0,.19.26.26,0,0,0,.15.16c.19.1.39-.14.42-.31a.2.2,0,0,0-.16-.25h-.13Z" fill="#231f20"/><path d="M362.86,311.6c0,.23.55.19.68.24a3,3,0,0,0,.7.28,5.94,5.94,0,0,1,1.46,0c.24,0,.48.27.63.14h0a1.08,1.08,0,0,0-.42-.4,7.9,7.9,0,0,0-1.06-.5,10.4,10.4,0,0,1-1.05-.54,2.16,2.16,0,0,0-.48-.24v.57C363.32,311.29,362.86,311.44,362.86,311.6Z" fill="#f99d1c"/><path d="M366.28,312.2a7.87,7.87,0,0,0-2.54-1.23,3.29,3.29,0,0,1,1.37.4C365.5,311.63,366,311.78,366.28,312.2Z" fill="#231f20"/><path d="M364.79,310.64a.64.64,0,0,1,.29.25h0a.25.25,0,0,1-.29-.23Z" fill="#231f20"/><path d="M365.19,309.91a1.37,1.37,0,0,1-.24-.29c-.1-.16-.14-.37-.23-.53s-.17-1-.61-1.09c-.11.46-.37.1-.49-.13s-.26-.64-.61-.22a1.22,1.22,0,0,0-.5-.73c-.12.13-.15.31-.25.44-.14-.13-.56-.81-.55-.21a2.77,2.77,0,0,1-.55-.26c-.18.27,0,.61-.4.3a.8.8,0,0,0,.09.31h-.35c-.13,0,0,.28,0,.42s-.34.1-.34.25.21.19.39.21a3.88,3.88,0,0,1,1.62.22,4.74,4.74,0,0,1,1,.57,2,2,0,0,1,.71.78c0,.21-.08.34,0,.53s.19-.1.31-.13a.48.48,0,0,1,.29,0,1.4,1.4,0,0,0,.5,0h.29c.15,0,0-.13,0-.22Z" fill="#bf2026"/><path d="M360.93,310c-.19.14-.17.43-.19.65-.19-.15,0-.65.19-.64" fill="#fff"/><path d="M361.68,308.91a1.41,1.41,0,0,0-1.13.75c0-.54.87-1.14,1.31-.75" fill="#e6e7e8"/><path d="M352.58,239.75l-.12.18a3.17,3.17,0,0,1-.21.41l-.14.19-.2.18-.11.1-.24.24a.4.4,0,0,0-.1.18.54.54,0,0,0-.11.27,1.56,1.56,0,0,1-.1.67.33.33,0,0,1,0,.14,1,1,0,0,1-.16.36h0a7.19,7.19,0,0,1-1,1,3.93,3.93,0,0,0-.84,1.25h0v.32c-.15.34-.33.7-.46,1a4.59,4.59,0,0,0-.24.5h-.86l-13.26-1.09c.85-.27,1.81-.4,2.49-.61a4.58,4.58,0,0,0,1.44-.7,17.84,17.84,0,0,0,2.93-3c.5-.55,1.49-1.86,2.27-1.93a6.85,6.85,0,0,1,2.92-1.47,3.8,3.8,0,0,1,.82-.21,6.74,6.74,0,0,1,2.61,0c.61.14,1.26.35,1.85.55a1.77,1.77,0,0,1,1.11.91A.45.45,0,0,1,352.58,239.75Z" fill="#fff"/><path d="M352.17,240.5c-.74.42-1.28-.31-1.88-.68a3.81,3.81,0,0,0-2.62-.18c-.87.18-1.93.55-1.75,1.62a6.63,6.63,0,0,0,1,2c.44.82,1.15,1.24,1.95.63s1.62-.75,2.22-1.22a1.61,1.61,0,0,0,.79-1.07c0-.27.16-1-.29-.85Z" fill="#ef4446"/><path d="M351.49,242.46a2.42,2.42,0,0,1-.29.42,2.1,2.1,0,0,0-.24.5,1.42,1.42,0,0,0,0,.58c0,.52,0,.72-.36,1.06a1,1,0,0,1-.94.24,1.64,1.64,0,0,1-.81-.73.75.75,0,0,1,.17-1l.11-.06c.37-.26.81-.39,1.2-.65a3.21,3.21,0,0,0,.48-.34c.12-.1.25-.26.41-.27a.23.23,0,0,1,.26.18v.11Z" fill="#bf2026"/><path d="M350.33,242c0,.27.66.23.82.29a2.39,2.39,0,0,0,.84.32,10.7,10.7,0,0,1,1.79,0c.29.1.58.36.77.2a1.13,1.13,0,0,0,.12-.21,1.37,1.37,0,0,0,0-.57,1.51,1.51,0,0,0-.47-.76,1.81,1.81,0,0,1-.33-.26c-.08-.11-.17-.32-.29-.49a1.73,1.73,0,0,0-.71-.63c-.16,0-.63-.32-.79-.14s-.1.37-.21.53a.79.79,0,0,1-.56.34h-.42a2.23,2.23,0,0,1-.09.68C350.7,241.45,350.33,241.79,350.33,242Z" fill="#ffc629"/><path d="M349.16,245v.32a8.23,8.23,0,0,0-.53,1h.08l-.25.5h-.85c.25-.46.55-.92.84-1.36S348.92,244.84,349.16,245Z" fill="#e6e7e8"/><path d="M349.69,240.42a.66.66,0,0,1-.38.35h-.12a.86.86,0,0,1-.55,0h0a1.75,1.75,0,0,1-.29-.26.72.72,0,0,1,.45-.48h0a1,1,0,0,1,.43,0h.22C349.55,240.13,349.73,240.26,349.69,240.42Z" fill="#e6e7e8"/><path d="M349.34,240.74h-.11a.89.89,0,0,1-.56,0h0a.32.32,0,0,1-.11-.24.61.61,0,0,1,.28-.5h0a.75.75,0,0,1,.42,0,.41.41,0,0,1,.22,0,.45.45,0,0,1,0,.64A.4.4,0,0,1,349.34,240.74Z" fill="#f89c1c"/><path d="M349,240a.38.38,0,0,0-.35.25.33.33,0,0,0,0,.24.41.41,0,0,0,.19.2c.23.11.47-.18.5-.39a.2.2,0,0,0,0-.21.3.3,0,0,0-.19-.1Z" fill="#231f20"/><path d="M350.33,242c0,.27.66.23.82.29a2.39,2.39,0,0,0,.84.32,10.7,10.7,0,0,1,1.79,0c.29.1.58.36.77.2h0a1.18,1.18,0,0,0-.5-.49,8.93,8.93,0,0,0-1.29-.61c-.44-.2-.85-.42-1.28-.65a3.32,3.32,0,0,0-.59-.31c-.09.13,0,.52-.09.68S350.33,241.79,350.33,242Z" fill="#f99d1c"/><path d="M354.47,242.72a1.69,1.69,0,0,0-.69-.52l-.8-.37a3.83,3.83,0,0,0-1.62-.62,4,4,0,0,1,1.62.5l.76.44A1.86,1.86,0,0,1,354.47,242.72Z" fill="#231f20"/><path d="M352.66,240.82a.72.72,0,0,1,.35.29h0c-.09-.11-.34,0-.35-.3Z" fill="#231f20"/><path d="M353.16,240a2.48,2.48,0,0,1-.29-.37c-.11-.2-.18-.44-.28-.65s-.21-1.18-.76-1.31c-.14.53-.43.11-.58-.18s-.32-.78-.76-.28a1.26,1.26,0,0,0-.6-.87,5.45,5.45,0,0,0-.29.53c-.18-.16-.7-1-.68-.27a2.28,2.28,0,0,1-.67-.31c-.22.34.1.74-.5.37a1.16,1.16,0,0,0,.13.37c-.13,0-.27-.08-.45-.08s0,.33,0,.5-.42.12-.42.31.26.23.47.25a5.07,5.07,0,0,1,2,.27,6.12,6.12,0,0,1,1.18.7,2.26,2.26,0,0,1,.86.95c.08.25-.1.41,0,.63s.24-.09.37-.14a.59.59,0,0,1,.37,0,2,2,0,0,0,.6,0h.36c.18,0,.08-.16,0-.29Z" fill="#bf2026"/><path d="M348,240c-.23.18-.21.55-.24.81-.23-.19,0-.81.24-.77Z" fill="#fff"/><path d="M348.87,238.7a1.84,1.84,0,0,0-1.38.92c0-.64,1.07-1.37,1.62-.92Z" fill="#e6e7e8"/><path d="M154,226.68c-.22-.56-.87-.14-1.5.51l-20.77-1.62h-.34a2.33,2.33,0,0,1-.94.24v-.33c-.25-.76-.53-1.61-.82-2.26a10.72,10.72,0,0,0-.75-1.9h0v-.11h0c-.37-.42-.87-.78-1.28-1.18a3.88,3.88,0,0,1-.26-.31h0a2.36,2.36,0,0,1,0-2.53h0a5.48,5.48,0,0,1,.85-1.07,5.59,5.59,0,0,1,2-1.08,7,7,0,0,1,1.83-.34,15.55,15.55,0,0,1,3.11.31,12.64,12.64,0,0,1,4.19,1.52,19.22,19.22,0,0,0,2.82,1.16C146.09,219,153,221.47,154,226.68Z" fill="#efefef"/><path d="M128,215.9c.44,0,.3,1.26.64,1.49s.87-.21,1.11-.39a6.47,6.47,0,0,1,1.22-.71,2.74,2.74,0,0,1,1.76-.25c.39.12.86.34,1,.76a3.2,3.2,0,0,1,0,1.07c0,.36.11.46.4.63a2.65,2.65,0,0,1,1.19,1,3.88,3.88,0,0,1,.14,1.82c-.16,1-1.26,1.62-2,2.18a2,2,0,0,1-2.09-.12,5.39,5.39,0,0,1-1.62-1.38c-.21-.24-.39-.52-.62-.76a3.43,3.43,0,0,0-.94-.65,3,3,0,0,1-1.71-2.17,2.41,2.41,0,0,1,.64-2.06C127,216.27,127.92,215.57,128,215.9Z" fill="#ef4446"/><path d="M129.27,220.9c-.1.21-.49.29-.68.39a3.25,3.25,0,0,1-2.13.13,3.25,3.25,0,0,0-1.52,0c-.39.1-.92.66-1.33.58h-.11c-.32-.24,0-1.08,0-1.37a4.33,4.33,0,0,1,.87-1.32,3.91,3.91,0,0,0,.83-1,.25.25,0,0,1,.13-.22,1.47,1.47,0,0,1,.53-.55,2.94,2.94,0,0,1,1-.52c.39,0,.42.26.46.63a3.88,3.88,0,0,0,.13,1.8,1.59,1.59,0,0,0,.27.37c.28.26.63.52.92.78S129.09,220.76,129.27,220.9Z" fill="#ffc629"/><path d="M125,217.68v1.18c.34,0,.52-.45.76-.65s.65-.37.94-.58a2,2,0,0,0,.55-.89,2.45,2.45,0,0,1,.78-1,7.2,7.2,0,0,1,2.88-1.35h.63a1.88,1.88,0,0,1,.58,0c.23,0,.64.13.77-.11s-.36-.76-.49-1-.41-1-.91-.75c-.11,0-.14.21-.29.15s-.13-.18-.24-.21-.29.19-.33.34-.27.38-.38.08,0-.42-.18-.6a.32.32,0,0,0-.46,0,.38.38,0,0,0-.09.13c-.18.39.3,1.07,0,1.27-.68.34-.38-.83-.78-1-.24.29,0,.76-.16,1.12-.34-.11-.54-.31-.52.23-.2,0-.37-.15-.55,0s-.1.45-.15.66c-.16.71-.42,0-.76,0s0,.89-.53,1c-.23,0-.39-.13-.54.19s.13.45,0,.68c-.53,0-.48.16-.47.65C124.36,217.05,125,217.78,125,217.68Z" fill="#bf2026"/><path d="M133.15,223.12a3.69,3.69,0,0,1,0,.47,2.41,2.41,0,0,1-.84,1.36,4.08,4.08,0,0,1-.81.47h0a2.18,2.18,0,0,1-.94.24h-.08a1.24,1.24,0,0,1-.6-.09,1.63,1.63,0,0,1-.45-.33,2,2,0,0,1-.42-.66,10.19,10.19,0,0,1-.63-1.23,1.81,1.81,0,0,1,0-1,3.35,3.35,0,0,0,.22-.84.67.67,0,0,1,.12-.32.2.2,0,0,1,.09-.11h0c.2-.2.33-.25.47-.2a2.9,2.9,0,0,1,.67.58A5.36,5.36,0,0,0,133.15,223.12Z" fill="#bf2026"/><path d="M129.27,220.9c-.1.21-.49.29-.68.39a3.25,3.25,0,0,1-2.13.13,3.25,3.25,0,0,0-1.52,0c-.39.1-.92.66-1.33.58h-.11a3.89,3.89,0,0,1,1.12-1.13,8.38,8.38,0,0,1,2.86-1.44,2,2,0,0,0,.28.37c.28.26.63.52.92.78S129.09,220.76,129.27,220.9Z" fill="#f99d1c"/><path d="M130.27,218.16a.94.94,0,0,0,.55.39H131a1.17,1.17,0,0,0,.69-.09h0c.13-.1.21-.25.34-.36a1,1,0,0,0-.64-.55h0a1,1,0,0,0-.54,0,.85.85,0,0,0-.26.11C130.42,217.78,130.22,218,130.27,218.16Z" fill="#e6e7e8"/><path d="M130.77,218.52h.15a1.1,1.1,0,0,0,.69-.1h0a.37.37,0,0,0,.1-.3.66.66,0,0,0-.4-.6h0a1,1,0,0,0-.54,0,.85.85,0,0,0-.26.11.55.55,0,0,0,.06.78A.56.56,0,0,0,130.77,218.52Z" fill="#f89c1c"/><path d="M131.08,217.6a.5.5,0,0,1,.47.27.81.81,0,0,1,0,.31.54.54,0,0,1-.21.26c-.28.18-.62-.15-.7-.41a.37.37,0,0,1,0-.29.41.41,0,0,1,.23-.13Z" fill="#231f20"/><path d="M131.06,217.89h-.14s.1-.13.14,0" fill="none"/><path d="M123.61,221.73a6.8,6.8,0,0,1,1.62-1.31,10.23,10.23,0,0,1,1.87-.94,8.93,8.93,0,0,0-1.79,1.05A6.9,6.9,0,0,0,123.61,221.73Z" fill="#231f20"/><path d="M125.86,218.81a.23.23,0,0,1,.2-.11h0c0,.19-.18.16-.2.19a.66.66,0,0,0-.17.12.89.89,0,0,0-.31.3h0a1.18,1.18,0,0,1,.26-.37,1,1,0,0,1,.32-.21h0a.19.19,0,0,0-.18,0Z" fill="#231f20"/><path d="M137.91,256.34a3.69,3.69,0,0,1,.75-1.15l.4-.41a4.71,4.71,0,0,0,0-.92c0,.08-.48-.57,0-.52,0-.42,0-.57.41-.55.11-.21-.11-.39,0-.6s.27-.14.49-.18c.5,0,0-.68.45-.82s.52.56.66,0c0-.18,0-.46.12-.57s.32,0,.48,0c0-.45.16-.29.46-.19.11-.31,0-.72.13-1,.35.13,0,1.14.68.83.32-.16-.1-.74,0-1.08a.29.29,0,0,1,.37-.18l.11.08c.18.16,0,.35.15.53s.29.16.34,0,.09-.37.29-.29.11.16.19.18.17,0,.26-.13c.44-.21.63.36.8.66s.55.62.42.88-.47.1-.67.08a1.51,1.51,0,0,0-.52,0h-.53a6.57,6.57,0,0,0-2.56,1.21h0a4.22,4.22,0,0,1,1.72-.95,6,6,0,0,1,1.62-.31,14.34,14.34,0,0,1,2.69.26,11.31,11.31,0,0,1,3.64,1.33,16.35,16.35,0,0,0,2.45,1c2.23.86,5,1.38,6,3.82,1.28,3.15,0,7.33-.37,10.55-.17,1.88-.26,3-2.38,3.24-2.64.22-5.38-1.4-8.1-1.62-5.17-.54-3.76-2.85-4.6-6.8v-.33c-.12-.42-.34-.86-.47-1.37h-.34l.34-.09a.43.43,0,0,1,0-.16,1.44,1.44,0,0,1-.54-.1,1.48,1.48,0,0,1-.76-.85,9.66,9.66,0,0,1-.53-1.07,1.5,1.5,0,0,1,0-.84,2.69,2.69,0,0,0,.18-.73V257a2.74,2.74,0,0,1-1.85.1,2.9,2.9,0,0,0-1.31,0c-.34,0-.8.58-1.15.5h-.12A2.63,2.63,0,0,1,137.91,256.34Z" fill="#fff"/><path d="M138.69,341.9a3.62,3.62,0,0,0-.71-1.15l-.41-.44q0-.45,0-.9s.49-.55,0-.52c0-.42,0-.57-.4-.57-.1-.19.13-.37,0-.6s-.28-.14-.47-.17c-.52,0,0-.68-.44-.85s-.53.57-.66,0a.94.94,0,0,0-.11-.56c-.12-.13-.31,0-.47,0,0-.47-.17-.31-.46-.21-.11-.31.1-.73-.11-1-.36.12-.11,1.12-.7.81-.32-.17.12-.76,0-1.1a.28.28,0,0,0-.34-.18.38.38,0,0,0-.13.09c-.18.16-.09.35-.16.51s-.29.17-.34-.08,0-.37-.27-.29-.13.15-.22.18-.16-.08-.25-.15c-.43-.21-.64.34-.8.65s-.58.6-.44.86.46.11.65.1a1.51,1.51,0,0,1,.52,0,1.32,1.32,0,0,1,.54.08,6.1,6.1,0,0,1,2.52,1.28h0a4.48,4.48,0,0,0-1.62-1,6.87,6.87,0,0,0-1.62-.34,13.6,13.6,0,0,0-2.7.21,11,11,0,0,0-3.66,1.25,17.06,17.06,0,0,1-2.46.94c-3.24,1.17-5.66,1.62-6.48,5.31a24.93,24.93,0,0,0-.63,6.61,40.11,40.11,0,0,0,0,5.59,20.51,20.51,0,0,0,2.55-.83,30.5,30.5,0,0,1,4.86-.45c2-.16,5.11.29,6.84-1s1.62-3.9,2-5.93l.08-.32c.11-.41.35-.84.48-1.36a1,1,0,0,0,.34,0h-.32a.43.43,0,0,0,0-.16,1.57,1.57,0,0,0,.53,0,1.45,1.45,0,0,0,.78-.85,9.63,9.63,0,0,0,.57-1.05,1.71,1.71,0,0,0,0-.84,2.14,2.14,0,0,1-.16-.75v-.24a2.74,2.74,0,0,0,1.83.15,2.64,2.64,0,0,1,1.31,0c.34.09.79.58,1.15.52h.1C139,342.92,138.79,342.18,138.69,341.9Z" fill="#fff"/><path d="M307.18,320.69a3.4,3.4,0,0,0-.63-1l-.36-.37a5.61,5.61,0,0,1,0-.82c0,.08.42-.47,0-.46,0-.37,0-.5-.35-.5-.09-.18.11-.32,0-.52s-.25-.14-.43-.16c-.45,0,0-.6-.38-.74s-.47.48-.59,0a.93.93,0,0,0-.09-.51c-.1-.11-.28,0-.43,0,0-.42-.14-.27-.4-.19-.1-.28.08-.63-.1-.86-.31.1-.09,1-.61.71s.09-.66,0-.95a.26.26,0,0,0-.3-.18.2.2,0,0,0-.12.08c-.15.13-.08.31-.15.47s-.26.13-.29-.08,0-.34-.24-.26-.12.13-.2.15-.13,0-.23-.12c-.37-.19-.56.29-.71.57s-.5.53-.39.76.42.1.59.1a1.14,1.14,0,0,1,.45,0h.49a5.43,5.43,0,0,1,2.23,1.13h0a4.11,4.11,0,0,0-1.51-.89,5.93,5.93,0,0,0-1.39-.29,12.13,12.13,0,0,0-2.4.18,10,10,0,0,0-3.23,1.1,13.54,13.54,0,0,1-2.19.84c-2.88,1-5,1.46-5.78,4.71a50.32,50.32,0,0,0-.52,6.6c-.11,1.1-.91,2.39,0,3.4,1.26,1.5,4.94.61,6.48.26a22.55,22.55,0,0,0,5.8-1.62c2.07-1.12,1.62-2.95,2.15-5.09v-.29c.11-.37.32-.75.44-1.22a.76.76,0,0,0,.3,0h-.29a.43.43,0,0,0,0-.16.94.94,0,0,0,.47,0,1.27,1.27,0,0,0,.7-.74,7.07,7.07,0,0,0,.5-.94,1.37,1.37,0,0,0,0-.75,1.57,1.57,0,0,1-.14-.64v-.23a2.43,2.43,0,0,0,1.62.14,2.53,2.53,0,0,1,1.16,0c.31.09.7.54,1,.47h.1C307.46,321.58,307.26,320.85,307.18,320.69Z" fill="#fff"/><path d="M350.39,288.18a3.22,3.22,0,0,0-.65-1c-.11-.15-.24-.26-.34-.39a5.47,5.47,0,0,1,0-.81s.44-.49,0-.45c0-.38,0-.5-.35-.5-.08-.18.11-.34,0-.54s-.25-.13-.42-.16c-.46,0,0-.6-.39-.73s-.47.49-.59,0a1,1,0,0,0-.09-.52c-.1-.11-.28,0-.42,0,0-.4-.15-.26-.41-.18-.1-.27,0-.64-.1-.85-.32.09-.09,1-.61.71s.1-.67,0-1a.25.25,0,0,0-.31-.16.26.26,0,0,0-.11.07c-.16.13-.08.31-.15.46a.15.15,0,0,1-.29,0c0-.15-.08-.34-.24-.28s-.12.15-.2.17-.14,0-.22-.12c-.38-.21-.57.29-.72.55s-.5.55-.39.78.43.1.59,0a1.69,1.69,0,0,1,.45,0h.49a5.49,5.49,0,0,1,2.23,1.13h0a4,4,0,0,0-1.5-.89,5.55,5.55,0,0,0-1.4-.3,11.29,11.29,0,0,0-2.39.19,9.5,9.5,0,0,0-3.24,1.1,15.64,15.64,0,0,1-2.19.83c-3.08,1.1-4.76,1.34-4.75,4.86s0,7.25.15,10.88c0,.61,7.48-.24,8.1-.45,3.63-1.2,3.82-3.71,4.58-7v-.27c.12-.38.33-.77.44-1.22a.81.81,0,0,0,.31,0H345V292a1.24,1.24,0,0,0,.47,0,1.35,1.35,0,0,0,.68-.75,5.7,5.7,0,0,0,.51-.94,1.54,1.54,0,0,0,0-.74,2.1,2.1,0,0,1-.14-.65v-.23a2.38,2.38,0,0,0,1.62.13,2.53,2.53,0,0,1,1.16,0c.31.08.7.52,1,.47h.1C350.67,289.05,350.47,288.45,350.39,288.18Z" fill="#fff"/><path d="M197,243.82c.12-.76-.13-1.83.49-2.45s2.57-.94,3.61-1.24a4.65,4.65,0,0,0,1.28-.64,15.05,15.05,0,0,0,2.61-2.62c.43-.49,1.32-1.62,2-1.72a6.4,6.4,0,0,1,2.6-1.31,4.73,4.73,0,0,1,.74-.19h0a.38.38,0,0,1,.37-.28v-.45c0-.16.3.11.41.08a.56.56,0,0,1-.11-.32c.53.32.24,0,.43-.34a1.91,1.91,0,0,0,.6.27c0-.63.44.1.6.24.11-.14.15-.34.26-.47a1.19,1.19,0,0,1,.53.78c.39-.45.44-.23.69.24s.38.65.51.15c.49.11.49.78.67,1.18s.14.39.24.57a1.43,1.43,0,0,0,.28.32h0c.08,0,.14.15.09.2l.23.27c.1.13.15.29.26.42a1.18,1.18,0,0,0,.27.23,1.38,1.38,0,0,1,.43.7,1.06,1.06,0,0,1,0,.5,1.62,1.62,0,0,1-.1.18c-.16.14-.42-.1-.7-.16a7.31,7.31,0,0,0-1.62,0,1.7,1.7,0,0,1-.45-.15h0c0,.15-.2.26-.26.37a2.11,2.11,0,0,0-.21.46,1.1,1.1,0,0,0,0,.51c0,.47,0,.65-.33.94a.89.89,0,0,1-.84.21.94.94,0,0,1-.43-.3h0v.29l-.41.92a29.61,29.61,0,0,0-1.49,3.48l-.1.36a9.09,9.09,0,0,1-1,2.46c-.71,1-2.17,1.62-3.13,2.54-.71.67-1.18,1.54-2.07,2a6.52,6.52,0,0,1-2.09.45c-.42.08-.82.16-1.23.21a12.23,12.23,0,0,0-1.83.49c-.47.16-1.23.38-1.34-.42-.17-1.11,0-2.32-.13-3.45a23.85,23.85,0,0,1,0-3.05A9.73,9.73,0,0,1,197,243.82Z" fill="#fff"/><path d="M55.31,268.24c.1-.68-.11-1.62.44-2.17S58,265.23,59,265a3.54,3.54,0,0,0,1.14-.55,13.94,13.94,0,0,0,2.33-2.34c.37-.43,1.16-1.48,1.78-1.53a5.61,5.61,0,0,1,2.31-1.16l.65-.18h0a.29.29,0,0,1,.3-.25h0v-.41h.34a.63.63,0,0,1-.1-.29c.49.29.23,0,.39-.29a1.7,1.7,0,0,0,.53.24c0-.57.39,0,.54.21a4.49,4.49,0,0,1,.24-.42,1,1,0,0,1,.47.7c.34-.41.39-.2.6.22s.36.55.45.13c.44.1.44.68.6,1a3.84,3.84,0,0,0,.23.52,1.32,1.32,0,0,0,.24.29h0s.13.13.1.18a1.12,1.12,0,0,1,.19.24c0,.11.15.26.23.37s.16.13.26.21a1.24,1.24,0,0,1,.29.65.69.69,0,0,1,0,.45.49.49,0,0,1,0,.17c-.15.13-.37,0-.61-.15a6.55,6.55,0,0,0-1.4,0,1.11,1.11,0,0,1-.4-.13h0c0,.13-.18.23-.25.34a1.86,1.86,0,0,0-.17.41.86.86,0,0,0,0,.45c0,.42,0,.57-.3.84a.86.86,0,0,1-.74.18.93.93,0,0,1-.39-.26h0v.26c-.11.28-.24.55-.37.83A23.28,23.28,0,0,0,67.19,269l-.1.32a8.28,8.28,0,0,1-.92,2.19,17.86,17.86,0,0,1-2.79,2.27c-.65.58-1.07,1.36-1.86,1.76a5.59,5.59,0,0,1-1.85.41l-1.1.19c-.53.2-1.2.28-1.62.42s-1.1.36-1.2-.37c-.14-1,0-2.07-.11-3.06a22.43,22.43,0,0,1,0-2.72A9,9,0,0,1,55.31,268.24Z" fill="#fff"/><path d="M257,328.14a4.28,4.28,0,0,1,.44-2.09c1-1.62,3.24-1.2,4.71-2.22a16,16,0,0,0,2.63-2.64c.42-.49,1.31-1.62,2-1.7a5.92,5.92,0,0,1,2.59-1.32l.73-.27c0-.16.21-.28.37-.28s0-.29,0-.45.28.11.4.08a1,1,0,0,1-.12-.32c.53.34.25,0,.45-.34a2.42,2.42,0,0,0,.58.29c0-.65.46,0,.62.24a3.77,3.77,0,0,1,.26-.48,1.18,1.18,0,0,1,.53.77c.39-.45.44-.21.66.26s.41.63.52.15c.49.11.49.76.68,1.16a4.91,4.91,0,0,0,.25.57,2.69,2.69,0,0,0,.3.37s.13.15.1.21a1.86,1.86,0,0,1,.23.26,2.86,2.86,0,0,0,.24.42c0,.12.2.15.29.25a1.22,1.22,0,0,1,.42.68.85.85,0,0,1,0,.5.31.31,0,0,1-.09.18c-.17.14-.42-.08-.68-.16a7.31,7.31,0,0,0-1.62,0,1.86,1.86,0,0,1-.46-.13c0,.13-.19.24-.27.37a1.78,1.78,0,0,0-.21.44,1.19,1.19,0,0,0,0,.53c0,.45.08.63-.33.92a.86.86,0,0,1-.82.21,1.92,1.92,0,0,1-.47-.25v.13a.43.43,0,0,1,0,.16c-.12.3-.26.61-.41.92a31.26,31.26,0,0,0-1.47,3.48,1.45,1.45,0,0,1-.11.37,8.7,8.7,0,0,1-1,2.45,18.6,18.6,0,0,1-3.13,2.54c-.73.67-1.2,1.54-2.09,2a7,7,0,0,1-2.07.47l-1.25.21c-4.26,1.53-2.9-3.08-3-5.66A20.44,20.44,0,0,1,257,328.14Z" fill="#fff"/><path d="M350.08,260.14c.08-.55-.09-1.32.36-1.78a8.24,8.24,0,0,1,2.62-.9A3.16,3.16,0,0,0,354,257a10.9,10.9,0,0,0,1.91-1.93c.31-.34,1-1.19,1.46-1.24a4.57,4.57,0,0,1,1.9-1,3.18,3.18,0,0,1,.53-.14h0c0-.12.16-.2.28-.2s0-.22,0-.32.19,0,.29,0a.56.56,0,0,1-.1-.24c.41.24.2,0,.32-.25a2,2,0,0,0,.44.21c0-.47.33,0,.44.18s.11-.26.19-.36a.84.84,0,0,1,.39.57c.29-.32.33-.16.49.2s.29.45.39.09c.35,0,.35.57.48.86s.12.29.18.42a2.43,2.43,0,0,0,.2.25h0s.09.11,0,.14a.83.83,0,0,1,.16.21c0,.1.11.21.19.31a1.46,1.46,0,0,0,.21.16,1.06,1.06,0,0,1,.31.5.81.81,0,0,1,0,.38.26.26,0,0,1-.08.13c-.11.09-.31,0-.49-.13a5.53,5.53,0,0,0-1.15,0,.83.83,0,0,1-.34-.1h0a1.31,1.31,0,0,1-.19.27,2.41,2.41,0,0,0-.15.33,1.27,1.27,0,0,0,0,.39c0,.34,0,.45-.22.68a.69.69,0,0,1-.62.14.66.66,0,0,1-.31-.21h0v.21c-.09.23-.19.44-.3.67a19.5,19.5,0,0,0-1.07,2.54,1.29,1.29,0,0,0-.08.28,7,7,0,0,1-.77,1.78c-.51.76-1.62,1.23-2.28,1.86s-.87,1.12-1.52,1.46a5.15,5.15,0,0,1-1.51.32l-.91.16c-.43.16-1,.23-1.34.36s-.89.27-1-.31,0-1.7-.1-2.53a16.28,16.28,0,0,1,0-2.21A7.72,7.72,0,0,1,350.08,260.14Z" fill="#fff"/><path d="M382,284.71c.08-.55-.1-1.32.36-1.78A6.92,6.92,0,0,1,385,282a3.73,3.73,0,0,0,.94-.46,11.25,11.25,0,0,0,1.91-1.93c.31-.34,1-1.19,1.46-1.24a4.71,4.71,0,0,1,1.89-1l.54-.14h0c0-.12.14-.2.27-.2v-.32h.29a.45.45,0,0,1-.09-.25c.39.25.19,0,.32-.24a1.19,1.19,0,0,0,.44.21c0-.47.32,0,.44.18s.11-.24.19-.36a.86.86,0,0,1,.39.59c.29-.34.32-.16.48.18s.3.45.39.09c.34.08.36.57.49.86a3.78,3.78,0,0,0,.18.42,1.55,1.55,0,0,0,.19.24h0s.1.12,0,.17a.58.58,0,0,1,.16.19c.08.1.12.21.2.31s.13.1.21.16a1.14,1.14,0,0,1,.31.5.81.81,0,0,1,0,.38.57.57,0,0,1-.08.13c-.12.11-.31,0-.49-.13a4.43,4.43,0,0,0-1.15,0,1.06,1.06,0,0,1-.34-.12h0a1.79,1.79,0,0,1-.2.28,3.09,3.09,0,0,0-.14.32,1.28,1.28,0,0,0,0,.39c0,.34,0,.47-.23.68a.68.68,0,0,1-.61.16,1.19,1.19,0,0,1-.33-.22h0v.21l-.3.68a18.22,18.22,0,0,0-1.07,2.54,1.12,1.12,0,0,0-.08.26,6.71,6.71,0,0,1-.77,1.78c-.51.76-1.62,1.25-2.28,1.86s-.87,1.12-1.52,1.46a5.32,5.32,0,0,1-1.52.34l-.9.15c-.43.16-1,.22-1.34.35s-.89.28-1-.31,0-1.7-.1-2.52a16.43,16.43,0,0,1,0-2.22A7,7,0,0,1,382,284.71Z" fill="#fff"/><path d="M381.26,331.47a3.67,3.67,0,0,1,.11-.74c.44-1.54,1.75-1.62,2.95-2.53a12.39,12.39,0,0,0,1.9-1.93c.32-.35,1-1.2,1.47-1.24a4.4,4.4,0,0,1,1.9-1l.51-.19a.27.27,0,0,1,.28-.2,1.93,1.93,0,0,0,0-.34c.11,0,.21.08.29,0a.68.68,0,0,1-.08-.24c.39.24.18,0,.32-.24a1.78,1.78,0,0,0,.44.21c0-.47.31,0,.44.16s.1-.24.19-.34a.9.9,0,0,1,.39.56c.28-.32.31-.16.49.18s.29.47.37.12c.36,0,.36.56.5.85s.1.3.18.43a1.27,1.27,0,0,0,.21.25s.11.12.08.15l.16.2c0,.09.12.22.18.3l.21.18a.89.89,0,0,1,.31.5.73.73,0,0,1,0,.36s0,.11-.08.13a.83.83,0,0,1-.5-.11,5.53,5.53,0,0,0-1.15,0,.75.75,0,0,1-.33-.1c0,.1-.14.18-.19.27a2,2,0,0,0-.16.33.86.86,0,0,0,0,.39.74.74,0,0,1-.23.68.72.72,0,0,1-.62.14,1.24,1.24,0,0,1-.34-.18v.21c-.08.22-.19.44-.29.67a22.78,22.78,0,0,0-1.08,2.54,2,2,0,0,1-.08.26,6.5,6.5,0,0,1-.76,1.8,14.55,14.55,0,0,1-2.29,1.86c-.52.49-.86,1.12-1.5,1.44-1.82.93-3.24,1.74-3.24-.84C382.09,334.92,381.16,333.11,381.26,331.47Z" fill="#fff"/><path d="M271.27,368.25c0-2.39,1.19-5.28,2.55-6,2-1.07,4.26-.84,6.33-2.19s1.62-1.49,2.2-3.71,0-1.62.44-2.56a7.17,7.17,0,0,1,1-1.41h-.1c0-.35.74-.66.37-.93.18-.2.41-.31.6-.49s.81-.58.83-.81h-.34c0-.44,1.13-1,1.47-1.23a7.48,7.48,0,0,1,2-.88,8,8,0,0,1,3.11-.35,6.75,6.75,0,0,1,1.32.31H293s-.31-.23-.27-.34a4.25,4.25,0,0,1,.29-.56c.13-.27.21.1.35,0s.39-.71.54-.45-.23.54.19.45c.17,0,.44-.35.6-.14s-.19.39.1.52.63-.31.63,0-.24.18-.21.31.24.09.36.12,0,.33,0,.54.66-.11.47.29-.21.23,0,.28.21,0,.24.14-.16.33.08.33,0,.11,0,.16V350a3.68,3.68,0,0,1,.44.34,7.12,7.12,0,0,1,.76,1.12,3.3,3.3,0,0,1,.52,1.42,1.35,1.35,0,0,1-.2.85l-.27.4a1,1,0,0,1-.18.23h0l-1.44-1h0c-.28.56-.37,1.32-.92,1.61A.76.76,0,0,1,294,355l0,0a1.36,1.36,0,0,1-.13-.86c-.45.18-.83.39-.92.7-.39,1.19-1.62,2.12-1.62,3.41,0,.28.14.88-.1,1,0,.35.29,1.91-.31,1.88a14.45,14.45,0,0,0-.32,1.86,5.65,5.65,0,0,1-.13,1.23,2.39,2.39,0,0,0-.16.74c0,1.62.73,3.05-.41,4.2-.76.79-2.75.86-3.79,1-3.14.47-11.66,3.5-14,1A4.1,4.1,0,0,1,271.27,368.25Z" fill="#fff"/><path d="M309.92,270a4.93,4.93,0,0,1,1.62-3.81c1.26-.68,2.69-.55,4-1.39s1-.95,1.4-2.35,0-1,.26-1.62a5.16,5.16,0,0,1,.64-.89h0c0-.22.49-.42.25-.58a2.8,2.8,0,0,1,.38-.32c.12-.12.52-.36.52-.51h-.22c0-.27.73-.64.94-.77a4.45,4.45,0,0,1,1.29-.55,4.66,4.66,0,0,1,2-.23,5.32,5.32,0,0,1,.79.18s-.19-.15-.16-.21a2,2,0,0,1,.18-.36c0-.16.13,0,.23,0s.24-.45.34-.28-.15.33.11.28.28-.21.39-.1-.13.26,0,.34.4-.19.4,0-.14.12-.12.2.14,0,.22.08,0,.21,0,.34.42-.08.29.18-.13.14,0,.17.15,0,.17.1-.1.2,0,.2,0,.08,0,.11v.23a1.44,1.44,0,0,1,.27.22,4.19,4.19,0,0,1,.49.7,2,2,0,0,1,.32.91,1.08,1.08,0,0,1-.11.53l-.18.26-.13.18a9.51,9.51,0,0,0-1-.59c-.17.36-.24.83-.58,1.06a.48.48,0,0,1-.68-.07h0a1,1,0,0,1,0-.54c-.29.12-.51.25-.58.44-.26.76-1,1.34-1,2.17,0,.16.1.55,0,.63s.19,1.22-.2,1.18a12,12,0,0,1-.21,1.2,2.55,2.55,0,0,1,0,.78c-.51,1.62,1.27,4.71.21,5.88s-4.27-.39-5.49-.73c-1.79-.52-5,.71-6.38-.73A2.61,2.61,0,0,1,309.92,270Z" fill="#fff"/><path d="M256.79,294.93a7.32,7.32,0,0,0-3.38-4.24c-.49-.24-1-.47-1.44-.66.18-.18-.1-.64-.13-.83s-.1-.81-.5-.75c-.1,0-.15.12-.25,0s0-.16-.13-.21-.26.09-.3.18-.28.23-.31,0,.11-.31,0-.47-.29-.21-.42,0,0,.83-.33.89c-.56.1-.08-.66-.35-.85-.23.16-.18.55-.34.77-.23-.16-.33-.34-.44,0-.15,0-.24-.18-.39-.14s-.16.3-.24.45c-.28.47-.29-.13-.57-.11s-.14.64-.58.56c-.16,0-.26-.17-.44,0s0,.38-.13.52c-.39-.14-.39,0-.49.34-.38-.14-.14.5-.12.44a6.65,6.65,0,0,1-.23.76l-.45.24a3.32,3.32,0,0,0-.9.77c-.16.17-.53.74-.34,1h0c.28.16.78-.13,1.09-.13a2.42,2.42,0,0,1,1.08.35,2.51,2.51,0,0,0,1.62.36c-.13.11-.17.21-.14.19a2.69,2.69,0,0,1-.34.57,1.36,1.36,0,0,0-.23.7,6.13,6.13,0,0,0,.2,1,1.21,1.21,0,0,0,.4.89,1.58,1.58,0,0,0,.47.23.33.33,0,0,1,0,.14h-.37a1.15,1.15,0,0,0,.37,0v.89a.67.67,0,0,0,0,.2v.68a5.89,5.89,0,0,1-.21.68,5.72,5.72,0,0,0-.7,2.28c0,3.89,1.49,4.68,4.94,4.45,2.89-.21,5.77.12,6-3.09A23.43,23.43,0,0,0,256.79,294.93Z" fill="#fff"/><path d="M115.14,304.65a7.32,7.32,0,0,0-3.4-4.24,15.65,15.65,0,0,0-1.44-.67c.18-.17-.1-.63-.13-.82s-.08-.81-.5-.75c0,0-.15.12-.24,0s0-.16-.13-.21a.22.22,0,0,0-.31.18c0,.18-.28.23-.29,0s.11-.29,0-.47a.24.24,0,0,0-.33-.09.2.2,0,0,0-.09.09c-.21.23,0,.83-.31.89-.57.1-.1-.68-.37-.86-.23.15-.18.55-.34.76-.23-.14-.33-.32-.44,0-.15,0-.23-.17-.39-.14s-.16.31-.24.44c-.28.48-.29-.12-.55-.12s-.15.67-.6.59c-.17,0-.26-.18-.44,0s0,.35-.13.5c-.37-.13-.37,0-.49.35-.37-.14-.13.51-.13.44a5.07,5.07,0,0,1-.22.76l-.44.25a3.16,3.16,0,0,0-.91.76c-.14.17-.51.74-.34,1h0c.29.14.8-.15,1.09-.13a2.67,2.67,0,0,1,1.1.34,2.32,2.32,0,0,0,1.62.37c-.13.1-.16.21-.15.2s-.24.38-.34.55a1.69,1.69,0,0,0-.22.69c0,.36.16.68.19,1a1.31,1.31,0,0,0,.42.89,1.21,1.21,0,0,0,.47.23v.13h-.35a1,1,0,0,0,.35,0v1.75a2.89,2.89,0,0,1-.21.69,6,6,0,0,0-.7,2.27c0,3.89,1.5,4.7,4.86,4.45,2.89-.19,5.77.13,6-3.07A23.27,23.27,0,0,0,115.14,304.65Z" fill="#fff"/><path d="M116.24,382.08a34.3,34.3,0,0,0-.79,6.61v3a10.55,10.55,0,0,1-.08,1.49c-.15,1.44-.31,1.4-1.81,1.36a23.45,23.45,0,0,1-4.1-.61,10.42,10.42,0,0,1-3.11-.76c-1.33-.73-2-2-3.06-3.08-1.41-1.31-3.6-2.37-4.63-3.94a13.18,13.18,0,0,1-1.49-3.74,2.37,2.37,0,0,0-.15-.53,40.47,40.47,0,0,0-2.11-5.31c-.19-.47-.4-.94-.58-1.41a1,1,0,0,1-.11-.23v-.21a5.83,5.83,0,0,0-1.14-1.77,10.36,10.36,0,0,1-1.36-1.37c-.32-.47-.22-1-.34-1.62a1.83,1.83,0,0,0-.73-1.09,2.48,2.48,0,0,1-.72-1.05c-.21-.41-.41-.53-.21-1a2.52,2.52,0,0,1,1.52-1.17c.82-.27,1.65-.49,2.49-.68a9.09,9.09,0,0,1,4.59.44,9.2,9.2,0,0,1,3.87,2.06c1,.11,2.33,1.91,3,2.64a23.93,23.93,0,0,0,3.81,4.17,6.55,6.55,0,0,0,1.91,1c3.95,1.28,5.29,1.49,5.71,5.88a39.87,39.87,0,0,1-.14,8.1c-.16,1.7,0,3.55-.31,5.2-.21,1.21-1.07,1-2,.58s-3-.57-3.81-1.46" fill="#fff"/><path d="M90.28,368.63c1,.59,1.62-.38,2.53-.85a5.11,5.11,0,0,1,3.53-.16c1.17.26,2.54.8,2.28,2.25a8.67,8.67,0,0,1-1.36,2.61c-.61,1.09-1.62,1.62-2.62.78a21,21,0,0,0-3-1.62,2.11,2.11,0,0,1-1-1.46c0-.36-.18-1.36.41-1.13" fill="#ef4446"/><path d="M91.12,371.27c0,.21.3.38.39.58a2.73,2.73,0,0,1,.29.68,1.71,1.71,0,0,1,0,.78c-.08.69-.14.95.46,1.42a1.39,1.39,0,0,0,1.25.34,2.28,2.28,0,0,0,1.1-.94,1,1,0,0,0-.3-1.39l-.12-.07c-.49-.35-1.09-.55-1.62-.9a5.06,5.06,0,0,1-.65-.46c-.15-.14-.33-.37-.55-.38a.3.3,0,0,0-.35.26.41.41,0,0,0,0,.11Z" fill="#bf2026"/><path d="M92.7,370.68c0,.38-.9.28-1.11.38a4.61,4.61,0,0,1-1.15.4,13.51,13.51,0,0,0-2.38,0c-.4.11-.79.45-1,.23a.43.43,0,0,1-.15-.28,1.4,1.4,0,0,1,0-.76,1.83,1.83,0,0,1,.65-1,3.79,3.79,0,0,0,.45-.34c.15-.2.25-.44.39-.64a2.2,2.2,0,0,1,1-.85c.22-.1.87-.41,1.08-.17s.12.51.24.72a1.16,1.16,0,0,0,.75.47H92c.13.19,0,.69.11.92S92.71,370.42,92.7,370.68Z" fill="#ffc629"/><path d="M115.48,391.66h0a10.71,10.71,0,0,1-.08,1.49c-.14,1.44-.31,1.39-1.81,1.36a23.75,23.75,0,0,1-4.1-.62,10.13,10.13,0,0,1-3.11-.76c-1.33-.73-2-2-3.06-3.08-1.41-1.31-3.6-2.36-4.63-3.93a13.73,13.73,0,0,1-1.49-3.74,2.31,2.31,0,0,0-.15-.54,42.46,42.46,0,0,0-2.1-5.31h0c-.17-.45-.46-.92-.67-1.38a1.51,1.51,0,0,1-.11-.22v-.21c.31-.17.68,0,1.12.63.73,1.1,1.32,2.31,2,3.48a17.39,17.39,0,0,0,2.91,3.38,16.56,16.56,0,0,0,7.83,4,12.18,12.18,0,0,1,5.55,2.67A6.86,6.86,0,0,1,115.48,391.66Z" fill="#e6e7e8"/><path d="M93.59,368.59a1.06,1.06,0,0,0,.51.49h.17a1.29,1.29,0,0,0,.73,0h0a2.44,2.44,0,0,0,.4-.32.94.94,0,0,0-.58-.67h0a1,1,0,0,0-.55,0,.81.81,0,0,0-.31,0C93.8,368.2,93.55,368.38,93.59,368.59Z" fill="#e6e7e8"/><path d="M94.06,369.05h.16a1.3,1.3,0,0,0,.73,0h0a.52.52,0,0,0,.16-.31.75.75,0,0,0-.34-.68h0a.86.86,0,0,0-.55,0,.81.81,0,0,0-.31,0,.62.62,0,0,0,0,.87A.48.48,0,0,0,94.06,369.05Z" fill="#f89c1c"/><path d="M94.53,368.11a.48.48,0,0,1,.45.35.62.62,0,0,1,0,.33.65.65,0,0,1-.26.26c-.32.13-.62-.26-.66-.54a.29.29,0,0,1,0-.31.47.47,0,0,1,.25-.11Z" fill="#231f20"/><path d="M94.46,368.42h-.15v-.09c0-.09.12-.11.18,0" fill="#fff"/><path d="M92.7,370.68c0,.38-.9.28-1.11.38a4.61,4.61,0,0,1-1.15.4,13.51,13.51,0,0,0-2.38,0c-.4.11-.79.45-1,.23h0a1.6,1.6,0,0,1,.69-.65,13.58,13.58,0,0,1,1.74-.78c.61-.24,1.16-.55,1.75-.84A5.27,5.27,0,0,1,92,369c.13.19,0,.7.11.92S92.71,370.42,92.7,370.68Z" fill="#f99d1c"/><path d="M87.12,371.52a2,2,0,0,1,.91-.74l1-.55a5.42,5.42,0,0,1,2.26-.62,5.2,5.2,0,0,0-2.18.78l-1.09.47A1.75,1.75,0,0,0,87.12,371.52Z" fill="#231f20"/><path d="M89.62,369.06c0,.33-.36.23-.49.38h0a.69.69,0,0,1,.23-.25l.26-.14Z" fill="#231f20"/><path d="M89,367.82a2.23,2.23,0,0,0,.43-.49,9.37,9.37,0,0,0,.38-.86c.3-.58.33-1.62,1.06-1.73.17.74.6.16.79-.21.36-.7.45-1,1-.34a1.78,1.78,0,0,1,.83-1.17c.17.21.22.52.39.73.24-.21,1-1.31.9-.34a3.05,3.05,0,0,0,.91-.39c.27.46-.16,1,.66.5a1.57,1.57,0,0,1-.19.51c.18,0,.37-.1.6-.12v.68c.24,0,.55.18.55.42s-.36.31-.65.31a7,7,0,0,0-2.72.33,7.74,7.74,0,0,0-1.62.89,3,3,0,0,0-1.17,1.24c-.13.34.1.55,0,.86a1.09,1.09,0,0,1-.5-.23,1,1,0,0,0-.48,0,2.15,2.15,0,0,1-.8,0,1,1,0,0,1-.48-.08c-.15-.08-.1-.22,0-.37Z" fill="#bf2026"/><path d="M95.92,368c.29.25.26.73.27,1.09.33-.26.1-1.07-.29-1" fill="#fff"/><path d="M94.74,366.33a2.36,2.36,0,0,1,1.83,1.28c0-.88-1.4-1.9-2.13-1.28" fill="#e6e7e8"/><path d="M82.64,341.37a33.7,33.7,0,0,0-.34-4c-.44-2.77-1.87-2.93-4.68-2.87h-.28a7.16,7.16,0,0,0-1.44.33c-.71.21-1.62.82-2.45.58-.24-.08-.27-.23-.35-.48a4.91,4.91,0,0,0-.46-1.17,2.68,2.68,0,0,0-.4-.49l-.34-.32-.66-.54A7.61,7.61,0,0,0,69,331.15c-.39-.13-.78-.26-1.17-.36.12-.14-.13-.47-.18-.61s-.16-.62-.45-.52-.11.11-.19,0,0-.12-.12-.15-.18.1-.21.18-.19.19-.22,0a1.06,1.06,0,0,1,0-.36.18.18,0,0,0-.24-.08.18.18,0,0,0-.09.08c-.13.2,0,.64-.14.7s-.15-.49-.38-.6-.08.42-.18.62c-.19-.1-.27-.21-.32,0-.11,0-.19-.12-.31,0s-.09.26-.14.37c-.16.39-.23,0-.44,0s0,.52-.39.48-.23-.09-.32,0,0,.28,0,.41-.29,0-.34.32c-.31-.08,0,.39,0,.34a5.36,5.36,0,0,1-.1.6l-.31.23a2.09,2.09,0,0,0-.61.68c-.1.15-.33.62-.16.78h0c.22.09.58-.18.81-.21a1.73,1.73,0,0,1,.87.16,1.93,1.93,0,0,0,1.23.1c0,.09-.1.17-.08.17s-.15.31-.19.46a.88.88,0,0,0-.1.55,4.19,4.19,0,0,0,.24.76.81.81,0,0,0,.79.76v.11h-.34a.66.66,0,0,0,.28,0,4.54,4.54,0,0,0,.15.67v.68a3.09,3.09,0,0,1-.09.53c-.11.46-.17.89-.29,1.35a3.55,3.55,0,0,0,0,1.83,4.71,4.71,0,0,0,.51,1.62c.19.35.61.66.76,1a5.89,5.89,0,0,1,.11,1,7.43,7.43,0,0,0,.23,1,3.82,3.82,0,0,0-.6.19,4.17,4.17,0,0,0-1.14.7,3.75,3.75,0,0,0,1.33-.18h.21l.54-.09.21.34L67,348a.9.9,0,0,0-.54.35,3.26,3.26,0,0,0,.93-.08h.29a5,5,0,0,0,1,.89h-.52c-.7,0-1.43.13-1.43.33s1.35.34,2.07.32h1l.26.11.81.36a4.91,4.91,0,0,1-1.08.08h-.31a4.53,4.53,0,0,0-2.29.87,20.87,20.87,0,0,1,3-.27h1.14a3.42,3.42,0,0,0,.64,0l.75-.23h.68a2.38,2.38,0,0,0-1.52,1.1c1.62,0,2.59-1.11,4.21-.95,1.88.18,3.48,1.89,5.54,1.38s1.62-3.7,1.31-5.67C82.78,344.84,82.67,343.11,82.64,341.37Z" fill="#fff"/><path d="M63.41,376.74c.16-.39-.66-.32-.89-.44.42-.11,1-.19,1.2-.61H63c.08,0,.5,0,.55-.23s-.27-.19-.39-.23-2.86,0-2.77-.35a1.59,1.59,0,0,0-1,.11,5.92,5.92,0,0,1-1.09.32,4.69,4.69,0,0,1-1.62-.17c-.53-.13-1.07-.31-1.62-.42a1.05,1.05,0,0,1-.53-.28,4.65,4.65,0,0,0-1-.68c-.44-.23-.88-.42-1.28-.65a24.22,24.22,0,0,0-3-1.41,2.28,2.28,0,0,0-.89-.18,5.89,5.89,0,0,1-.94-.12,7.06,7.06,0,0,0-1.3,0h-.24a4.84,4.84,0,0,0-1.25.29c-.63.17-1.47.71-2.14.5-.21,0-.24-.21-.3-.42a4.59,4.59,0,0,0-.39-1,3.73,3.73,0,0,0-.36-.43,2.06,2.06,0,0,0-.31-.28l-.56-.47a6.71,6.71,0,0,0-2-1.08,9.91,9.91,0,0,0-1-.31h0c.11-.13-.11-.41-.15-.54s-.13-.53-.4-.45,0,.1-.16,0,0-.1-.1-.13-.16.08-.2.15-.16.16-.19,0a1.2,1.2,0,0,1,0-.33.16.16,0,0,0-.22-.07.12.12,0,0,0-.07.07c-.11.18.08.55-.13.62s-.11-.44-.31-.54,0,.38-.16.54c-.16-.08-.24-.18-.28,0-.09,0-.17-.1-.27,0s0,.22-.13.32c-.13.34-.19,0-.37,0s0,.46-.34.44-.2-.1-.29,0,0,.24,0,.36-.26,0-.3.27c-.27,0,0,.34,0,.29v.54l-.27.19a2.48,2.48,0,0,0-.54.58c0,.13-.27.54-.13.68h0c.2,0,.51-.16.72-.17a1.36,1.36,0,0,1,.74.13,1.52,1.52,0,0,0,1.07.09h0c0,.08-.1.15,0,.15a1.11,1.11,0,0,1-.16.39.82.82,0,0,0-.1.48,5.3,5.3,0,0,0,.23.67.79.79,0,0,0,.36.55.68.68,0,0,0,.32.11h-.24a.49.49,0,0,0,.24,0,4.62,4.62,0,0,0,.13.6v.11a2.54,2.54,0,0,1,0,.39h0a1,1,0,0,1-.08.47h0c-.1.39-.16.78-.26,1.15a3,3,0,0,0,0,1.62,4.32,4.32,0,0,0,.42,1.35c.18.3.55.58.68.9a5.16,5.16,0,0,1,.1.88,6.83,6.83,0,0,0,.18.9,4.51,4.51,0,0,0-.52.17,3.74,3.74,0,0,0-1,.6,3.17,3.17,0,0,0,1.14-.15h.57c0,.1.12.21.18.29l-.34.12a1,1,0,0,0-.47.3,2.21,2.21,0,0,0,.81,0h.26a4.09,4.09,0,0,0,.91.8H38c-.6,0-1.24.11-1.24.27s1.16.29,1.79.28h1l.21.11.71.31a5.86,5.86,0,0,1-.94.08h-.32a3.69,3.69,0,0,0-2,.78,14.83,14.83,0,0,1,2.57-.26h1.54l.66-.21h.59c-.2.09-.44.18-.57.26l-.36.17c-.24.17-.53.38-.4.54s.6,0,.73-.08a6.44,6.44,0,0,0,.61-.24,8.44,8.44,0,0,0,1-.54l.19-.11H44a3.85,3.85,0,0,0,1.07-.1l.44-.08h.26l.76-.18c1-.27,1.62.45,2.43.84a7.28,7.28,0,0,0,4.34.57,13.39,13.39,0,0,0,2.4-.68,5.84,5.84,0,0,0,2.09-1.17,2.3,2.3,0,0,0,.81-1.62v-1.49c0-.5,0-.76.4-.94a9.62,9.62,0,0,1,1.31-.19c0,.1.41,0,.52,0a2.29,2.29,0,0,0,1.31-.44,2,2,0,0,0,.83-1.15c.1-.53-.36-.27-.62-.56v-.08c0-.2.21-.31.38-.38s.34-.08.4-.19-.1-.2-.16-.34C62.77,377,63.41,377.05,63.41,376.74Z" fill="#fff"/><path d="M115,269.31a2.14,2.14,0,0,0-.34-.94,2.49,2.49,0,0,0-2.84-1.05,8,8,0,0,1-1.18.36,5,5,0,0,1-1.84-.2c-.59-.14-1.17-.34-1.62-.47a1.1,1.1,0,0,1-.59-.29,5.09,5.09,0,0,0-1.13-.76c-.47-.24-1-.45-1.39-.71a25.23,25.23,0,0,0-3.24-1.54,2.43,2.43,0,0,0-1-.2,9.71,9.71,0,0,1-1-.13,9.53,9.53,0,0,0-1.41-.08h-.42a6.56,6.56,0,0,0-1.38.31c-.68.21-1.62.79-2.35.57-.22-.08-.26-.23-.34-.47a4.17,4.17,0,0,0-.42-1.1,2.63,2.63,0,0,0-.39-.49l-.32-.29c-.21-.18-.44-.34-.63-.52a7.05,7.05,0,0,0-2.17-1.18c-.38-.13-.75-.24-1.12-.34.11-.15-.11-.46-.16-.6s-.15-.57-.44-.49-.1.1-.18,0,0-.11-.11-.14-.18,0-.21.16-.18.19-.21,0a1.24,1.24,0,0,1,0-.34.19.19,0,0,0-.25-.07l-.06.07c-.13.19,0,.61-.14.68s-.13-.47-.35-.58,0,.42-.17.6c-.18-.1-.26-.22-.31.08-.1,0-.2-.12-.29,0a.65.65,0,0,0-.13.34c-.16.37-.23,0-.42,0s0,.5-.38.48-.21-.09-.32,0,0,.26,0,.39-.29,0-.32.31c-.3,0,0,.37,0,.32a1.72,1.72,0,0,1-.1.57l-.29.23a2.37,2.37,0,0,0-.59.63c-.09.16-.3.6-.09.79s.55-.18.77-.21a1.8,1.8,0,0,1,.83.15,1.78,1.78,0,0,0,1.18.11c0,.08-.09.16,0,.15s-.13.3-.19.45a.92.92,0,0,0,0,.52,3.86,3.86,0,0,0,.23.73,1,1,0,0,0,.38.61,1.29,1.29,0,0,0,.38.12.14.14,0,0,0,0,.09H85.6a.45.45,0,0,0,.28,0,4.67,4.67,0,0,1,.13.65v.63a4.51,4.51,0,0,1,0,.52c-.12.42-.18.86-.28,1.28-.82,3.45,2,5.57,5.1,4.94a133.22,133.22,0,0,1,13.8-1.38,31.66,31.66,0,0,0,8.63-1.62C113.93,270.64,115,270.23,115,269.31Z" fill="#fff"/></svg>