<?xml version="1.0" encoding="UTF-8"?>
<svg width="78px" height="64px" viewBox="0 0 78 64" version="1.1" xmlns="http://www.w3.org/2000/svg" xmlns:xlink="http://www.w3.org/1999/xlink">
    <!-- Generator: Sketch 47.1 (45422) - http://www.bohemiancoding.com/sketch -->
    <title>a</title>
    <desc>Created with Sketch.</desc>
    <defs></defs>
    <g id="Page-1" stroke="none" stroke-width="1" fill="none" fill-rule="evenodd">
        <g id="Artboard" transform="translate(-256.000000, -10.000000)" fill-rule="nonzero" fill="#FFFFFF">
            <g id="symptoms" transform="translate(5.000000, 10.000000)">
                <path d="M291.33,29.22 C291.72,27.7 292.11,26.38 292.33,25.04 C292.37991,24.5692516 292.2188,24.1005671 291.89,23.76 C291.236406,23.1323591 290.515349,22.5789899 289.74,22.11 C288.74,21.44 289.34,19.98 288.74,19 C288.37,18.41 287.56,18.08 287.34,17.42 C288.397688,17.2304375 289.466631,17.1101814 290.54,17.06 C295.66,16.16 301.17,14.44 305.22,11.06 C307.111507,9.4521252 308.827713,7.64876809 310.34,5.68 C311.385932,4.33883499 312.921997,3.46832942 314.610001,3.26014233 C316.298004,3.05195524 317.999547,3.52315584 319.34,4.57 C319.818187,4.93966243 320.239367,5.37768907 320.59,5.87 C321.063021,6.73374761 321.30419,7.70531341 321.29,8.69 C321.35,10.69 320.63,13.04 321.17,15.01 C321.93,17.83 325.09,19.7 325.36,22.69 C325.63,25.68 322.68,28.61 319.94,29 C318.763889,29.1029496 317.581323,28.8960868 316.51,28.4 C312.982608,26.8326617 309.148285,26.0774163 305.29,26.19 C301.57493,26.454554 297.910469,27.2042555 294.39,28.42 C293.41,28.69 292.49,28.92 291.33,29.22 Z" id="Shape"></path>
                <path d="M281.71,22.15 C282.08,23.22 282.41,24.32 282.87,25.37 C283.06168,25.7469758 283.402664,26.0262921 283.81,26.14 C284.759627,26.341621 285.721835,26.478602 286.69,26.55 C286.941697,26.513243 287.197466,26.5811856 287.397741,26.7380051 C287.598017,26.8948246 287.725318,27.1268331 287.75,27.38 C288.06,28.66 289.03,30.13 288.75,31.3 C288.47,32.47 287.11,33.36 286.19,34.3 C281.876463,38.378123 279.05892,43.7878054 278.19,49.66 C278.177966,51.2111732 277.700717,52.7230424 276.82,54 C274.766688,56.0344922 271.697862,56.6482573 269.02,55.56 C268.148709,54.883425 267.455382,54.0047528 267,53 C266.303052,51.7777759 265.678639,50.5155938 265.13,49.22 C264.657341,48.2494758 263.846571,47.4849341 262.85,47.07 C261.39,46.37 259.96,45.57 258.5,44.88 C256.35,43.88 255.81,42.1 255.94,39.95 C256.22,36.29 258.32,34.35 261.99,33.95 C266.852174,33.471979 271.446485,31.4979976 275.14,28.3 C277.14,26.64 278.86,24.77 280.7,22.97 C280.97547,22.6334718 281.213536,22.267991 281.41,21.88 L281.71,22.15 Z" id="Shape"></path>
            </g>
        </g>
        <g id="a"></g>
    </g>
</svg>