<svg xmlns="http://www.w3.org/2000/svg" width="468.74" height="215.97" viewBox="0 0 468.74 215.97"><title>symptoms</title><text transform="translate(160.02 69.12)" font-size="13.44" fill="#ffc629" font-family="Raleway-Black, Raleway">L<tspan x="7.86" y="0" letter-spacing="-0.01em">E</tspan><tspan x="15.74" y="0">G INJURIES</tspan><tspan fill="#fff" font-family="HelveticaNeue, Helvetica Neue" letter-spacing="0.01em"><tspan x="0" y="16.8">Chickens raised for </tspan></tspan><tspan fill="#fff" font-family="HelveticaNeue, Helvetica Neue"><tspan x="0" y="33.61">McDonald</tspan><tspan x="61.75" y="33.61" letter-spacing="-0.07em">’</tspan><tspan x="64.5" y="33.61">s g</tspan><tspan x="82.67" y="33.61" letter-spacing="-0.02em">r</tspan><tspan x="86.91" y="33.61">ow so </tspan><tspan x="0" y="50.41">la</tspan><tspan x="10.2" y="50.41" letter-spacing="-0.03em">r</tspan><tspan x="14.3" y="50.41">ge so fast that many </tspan></tspan><tspan fill="#fff" font-family="HelveticaNeue, Helvetica Neue" letter-spacing="0.01em"><tspan x="0" y="67.21">endu</tspan><tspan x="30.68" y="67.21" letter-spacing="-0.01em">r</tspan><tspan x="35.04" y="67.21">e debilitating in- </tspan></tspan><tspan fill="#fff" font-family="HelveticaNeue, Helvetica Neue"><tspan x="0" y="84.02">juries including b</tspan><tspan x="101.59" y="84.02" letter-spacing="-0.02em">r</tspan><tspan x="105.82" y="84.02">oken </tspan><tspan x="0" y="100.82" letter-spacing="-0.02em">legs, which buckle under</tspan><tspan x="142.94" y="100.82"> </tspan><tspan x="0" y="117.62">the enormous weight </tspan><tspan x="0" y="134.43">of their own bodies.</tspan></tspan></text><text transform="translate(0 68.94)" font-size="13.44" fill="#ffc629" font-family="Raleway-Black, Raleway">CHEMI<tspan x="43.14" y="0" letter-spacing="-0.01em">C</tspan><tspan x="52.28" y="0">A</tspan><tspan x="61.24" y="0" letter-spacing="-0.03em">L</tspan><tspan x="68.72" y="0" xml:space="preserve"> BURNS</tspan><tspan x="118.51" y="0" xml:space="preserve" font-size="18.48"> </tspan><tspan fill="#fff" font-family="HelveticaNeue, Helvetica Neue"><tspan x="0" y="16.8">Chickens often have </tspan></tspan><tspan fill="#fff" font-family="HelveticaNeue, Helvetica Neue" letter-spacing="0.01em"><tspan x="0" y="33.61">to stand in their own </tspan></tspan><tspan fill="#fff" font-family="HelveticaNeue, Helvetica Neue" letter-spacing="-0.02em"><tspan x="0" y="50.41">waste, which contains </tspan></tspan><tspan fill="#fff" font-family="HelveticaNeue, Helvetica Neue"><tspan x="0" y="67.21" letter-spacing="-0.02em">concentrated levels of</tspan><tspan x="126.78" y="67.21"> </tspan><tspan x="0" y="84.02">ammonia. This chem- </tspan></tspan><tspan fill="#fff" font-family="HelveticaNeue, Helvetica Neue" letter-spacing="0.02em"><tspan x="0" y="100.82">ical leaves painful </tspan></tspan><tspan fill="#fff" font-family="HelveticaNeue, Helvetica Neue"><tspan x="0" y="117.62" letter-spacing="0.02em">bu</tspan><tspan x="15.98" y="117.62" letter-spacing="0.04em">r</tspan><tspan x="20.97" y="117.62" letter-spacing="0.02em">ns </tspan><tspan x="39.71" y="117.62">on their skin.</tspan><tspan x="116.66" y="117.62" letter-spacing="-0.01em"> </tspan></tspan></text><text transform="translate(332.1 71.05)" font-size="13.44" fill="#ffc629" font-family="Raleway-Black, Raleway">HEA<tspan x="27.07" y="0" letter-spacing="-0.01em">R</tspan><tspan x="36.01" y="0" letter-spacing="-0.03em">T</tspan><tspan x="44.02" y="0" letter-spacing="-0.03em"> </tspan><tspan x="46.64" y="0" letter-spacing="-0.06em">A</tspan><tspan x="54.74" y="0">T</tspan><tspan x="63.13" y="0" letter-spacing="-0.07em">T</tspan><tspan x="70.64" y="0" letter-spacing="-0.03em">A</tspan><tspan x="79.21" y="0">CKS</tspan><tspan fill="#fff" font-family="HelveticaNeue, Helvetica Neue" letter-spacing="0.01em"><tspan x="0" y="16.8">These unnaturally </tspan></tspan><tspan fill="#fff" font-family="HelveticaNeue, Helvetica Neue" letter-spacing="-0.02em"><tspan x="0" y="33.61">la</tspan><tspan x="9.67" y="33.61" letter-spacing="-0.05em">r</tspan><tspan x="13.5" y="33.61">ge bi</tspan><tspan x="41.78" y="33.61" letter-spacing="-0.04em">r</tspan><tspan x="45.75" y="33.61">ds have such </tspan></tspan><tspan fill="#fff" font-family="HelveticaNeue, Helvetica Neue" letter-spacing="0.01em"><tspan x="0" y="50.41">high blood p</tspan><tspan x="77.07" y="50.41" letter-spacing="-0.01em">r</tspan><tspan x="81.43" y="50.41">essu</tspan><tspan x="110.11" y="50.41" letter-spacing="-0.01em">r</tspan><tspan x="114.48" y="50.41" letter-spacing="0.01em">e </tspan></tspan><tspan fill="#fff" font-family="HelveticaNeue, Helvetica Neue"><tspan x="0" y="67.21">that many die slow </tspan><tspan x="0" y="84.02" letter-spacing="-0.01em">painful deaths f</tspan><tspan x="90.23" y="84.02" letter-spacing="-0.03em">r</tspan><tspan x="94.33" y="84.02" letter-spacing="-0.01em">om</tspan><tspan x="113.24" y="84.02"> </tspan><tspan x="0" y="100.82">heart disease or </tspan><tspan x="0" y="117.62">arrhythmias.</tspan></tspan></text><path d="M34.1,35.51a14.18,14.18,0,0,1,8.13-18.62A14.16,14.16,0,0,1,54.33.58v.51a9.89,9.89,0,0,0-6.21,4A9.64,9.64,0,0,0,46.31,11a9.66,9.66,0,0,0,2.81,6.69,9.78,9.78,0,0,0,6.63,3,.2.2,0,0,1,0,.07v1.3c0,.07,0,.09-.09.11a2.82,2.82,0,0,0-2.13,3.66c0,.06,0,.1,0,.14l-1.19.68-.07-.09a10,10,0,0,0-15.59-1.24,9.49,9.49,0,0,0-2.48,5,9.63,9.63,0,0,0,.36,4.76c0,.11,0,.17-.09.22S34.23,35.44,34.1,35.51Z" fill="#fff"/><path d="M70.23,16.88a14,14,0,0,1,8.52,9,13.86,13.86,0,0,1-.4,9.6c-.15-.09-.28-.16-.41-.25s0-.08,0-.12c.11-.46.26-.92.34-1.39a9.5,9.5,0,0,0-.86-6.09,9.63,9.63,0,0,0-7.16-5.38,9.86,9.86,0,0,0-10,4.29l-.06.09L58.92,26c0-.32.12-.62.14-.92a2.82,2.82,0,0,0-2.25-2.85s-.1-.06-.1-.08c0-.46,0-.93,0-1.39a9.87,9.87,0,0,0,7.64-4.21,9.53,9.53,0,0,0,1.81-5.93,9.88,9.88,0,0,0-8-9.48V.56a14.22,14.22,0,0,1,12.1,16.32Z" fill="#fff"/><path d="M47.25,43.27a12.75,12.75,0,0,1-1.38-.07,15.23,15.23,0,0,1-1.71-.3,10.48,10.48,0,0,0,6.14-2,10.69,10.69,0,0,0,4.26-6.28,11,11,0,0,0-.37-6.39,3.8,3.8,0,0,0,2,.57,3.85,3.85,0,0,0,2.08-.6,10.9,10.9,0,0,0,10,14.74,12.79,12.79,0,0,1-3,.36,11.21,11.21,0,0,1-1.41-.08A13.1,13.1,0,0,1,57,40.36a1.12,1.12,0,0,0-1.46,0,13.27,13.27,0,0,1-5.86,2.69A13,13,0,0,1,47.25,43.27Z" fill="#fff"/><path d="M56.81,29.73A12.2,12.2,0,0,0,56.63,33a11.81,11.81,0,0,0,5,8.69,12.15,12.15,0,0,1-4-2.15,2.1,2.1,0,0,0-1.35-.49,2.2,2.2,0,0,0-1.36.49,12,12,0,0,1-4.06,2.15l.07,0a11.75,11.75,0,0,0,4.65-6.85,12,12,0,0,0,.12-5.11,5.12,5.12,0,0,0,.56,0q.3,0,.6,0m1.61-3a2.87,2.87,0,0,1-2.21,1,2.78,2.78,0,0,1-2.17-1l-1.26.72a9.94,9.94,0,0,1,.82,6.87,9.75,9.75,0,0,1-3.88,5.71A9.56,9.56,0,0,1,44,41.91h-.54a9.86,9.86,0,0,1-7-3.39l-.06,0-.4.23c.16.2.31.39.47.57a14.1,14.1,0,0,0,9.29,4.85,14.87,14.87,0,0,0,1.49.08,14.19,14.19,0,0,0,8.87-3.13.13.13,0,0,1,.22,0,14.16,14.16,0,0,0,7.42,3c.5.05,1,.08,1.51.08a13.51,13.51,0,0,0,3.28-.4A14.11,14.11,0,0,0,76,39.33l.46-.56c-.12-.07-.24-.13-.34-.2a.16.16,0,0,0-.1,0s-.07,0-.11.08a9.93,9.93,0,0,1-17.29-5.74,9.74,9.74,0,0,1,.72-4.65c.11-.25.22-.49.34-.74l-1.26-.73Z" fill="#fff"/><path d="M65.58,23.53c.39-.1.78-.21,1.17-.29a8.71,8.71,0,0,1,2-.18c.1,0,.13,0,.15.13A12.72,12.72,0,0,1,61,36.74l-.1,0a9.26,9.26,0,0,1-1.22-3.06,9.45,9.45,0,0,0,5.89-10.19Z" fill="#fff"/><path d="M46.88,23.56a9.28,9.28,0,0,0,1.17,6.1,9.39,9.39,0,0,0,4.72,4.06,9,9,0,0,1-1.23,3.08c-.43-.21-.88-.39-1.29-.62a12.55,12.55,0,0,1-6.49-8.56,12.16,12.16,0,0,1-.16-4.46c0-.07,0-.09.09-.1a9.7,9.7,0,0,1,3.16.48S46.86,23.55,46.88,23.56Z" fill="#fff"/><path d="M50.34,17.57A9.12,9.12,0,0,1,48.29,15a12.77,12.77,0,0,1,15.87,0,9.15,9.15,0,0,1-2,2.58,9.51,9.51,0,0,0-11.77,0Z" fill="#fff"/><path d="M215.1,22.05c.3-1.19.61-2.22.8-3.27a1.26,1.26,0,0,0-.34-1,10.12,10.12,0,0,0-1.68-1.29c-.81-.52-.31-1.66-.8-2.43-.29-.46-.92-.72-1.09-1.23a17.55,17.55,0,0,1,2.5-.28c4-.71,8.3-2.05,11.47-4.7a28.24,28.24,0,0,0,4-4.2,5,5,0,0,1,8,.15A4.42,4.42,0,0,1,238.5,6c.05,1.59-.51,3.4-.09,4.94.59,2.2,3.06,3.66,3.27,6s-2.09,4.62-4.23,4.93a5.34,5.34,0,0,1-2.68-.47A20.19,20.19,0,0,0,226,19.67a33.54,33.54,0,0,0-8.51,1.74C216.72,21.63,216,21.81,215.1,22.05Z" fill="#fff"/><path d="M207.58,16.52c.29.84.55,1.7.91,2.52a1.19,1.19,0,0,0,.73.6,16.93,16.93,0,0,0,2.25.32c.45,0,.71.14.83.65.24,1,1,2.15.76,3.06s-1.28,1.61-2,2.35a20.68,20.68,0,0,0-6.23,12,6,6,0,0,1-1.07,3.39,5.63,5.63,0,0,1-6.09,1.22,5.26,5.26,0,0,1-1.62-2,28.87,28.87,0,0,1-1.46-2.95A3.49,3.49,0,0,0,192.81,36c-1.14-.55-2.26-1.17-3.4-1.71-1.68-.78-2.1-2.17-2-3.85.22-2.86,1.86-4.38,4.73-4.66a18.48,18.48,0,0,0,10.27-4.41c1.53-1.3,2.91-2.76,4.34-4.17a4.46,4.46,0,0,0,.56-.85Z" fill="#fff"/><path d="M390.35,25.26h11.76c-6.72,8-17,19.45-17,19.57-5.46-7-10.9-12-16.35-18.72h2.54a.79.79,0,0,0,.57-.23.92.92,0,0,0,.81.22.91.91,0,0,0,.57-.51.92.92,0,0,0,.38.09h3.15a.84.84,0,0,0,.84-.73l.6-4.85.15,5.21a1,1,0,0,0,0,.21l1.79,6a.86.86,0,0,0,.81.59H381a.82.82,0,0,0,.77-.69l1.05-5.82h3.26a.83.83,0,0,0,.53-.18l.12-.1.12.15a.82.82,0,0,0,.54.34l.62.11h.08l.27.41a.86.86,0,0,0,.91.33.83.83,0,0,0,.62-.74l.07-.72A.91.91,0,0,0,390.35,25.26Z" fill="#fff"/><path d="M409,12.35c0,3.68-2,6.94-4.23,9.71l-1.25,1.51H391.09l-.54-4.15a.82.82,0,0,0-.84-.73.83.83,0,0,0-.82.75l-.44,4.29a.71.71,0,0,0-.5,0l-.19.08-.15-.2a.75.75,0,0,0-.57-.33.87.87,0,0,0-.64.16l-.57.47h-3.66a.85.85,0,0,0-.84.69l-.54,3.06-.76-2.5-.45-16a.83.83,0,0,0-.79-.81.79.79,0,0,0-.87.73L376,24h-1.75l-1-3.91a.86.86,0,0,0-.92-.62.83.83,0,0,0-.74.82v3.09a.83.83,0,0,0-.54.44l-.3.62h-2.09a1.36,1.36,0,0,0-1.07-.54,1.62,1.62,0,0,0-.54.1c-3.36-4.26-7-9-5.49-14.77a12.49,12.49,0,0,1,12-9.22c5.29,0,9.8,2.67,11.56,7.36C386.84,2.67,391.34,0,396.63,0A12.36,12.36,0,0,1,409,12.35Z" fill="#fff"/></svg>