<?xml version="1.0" encoding="UTF-8"?>
<svg width="66px" height="64px" viewBox="0 0 66 64" version="1.1" xmlns="http://www.w3.org/2000/svg" xmlns:xlink="http://www.w3.org/1999/xlink">
    <!-- Generator: Sketch 47.1 (45422) - http://www.bohemiancoding.com/sketch -->
    <title>a</title>
    <desc>Created with Sketch.</desc>
    <defs></defs>
    <g id="Page-1" stroke="none" stroke-width="1" fill="none" fill-rule="evenodd">
        <g id="Artboard" transform="translate(-465.000000, -9.000000)" fill-rule="nonzero" fill="#FFFFFF">
            <g id="symptoms" transform="translate(5.000000, 10.000000)">
                <path d="M499.66,33.33 L514.71,33.33 C506.11,43.57 493,58.23 493,58.38 C486,49.38 479.05,43.02 472.07,34.38 L475.32,34.38 C475.592702,34.3869484 475.856407,34.2821891 476.05,34.09 C476.322878,34.3315247 476.691378,34.4347045 477.05,34.37 C477.37585,34.2690389 477.642062,34.0320006 477.78,33.72 C477.933446,33.7917012 478.10063,33.8292323 478.27,33.83 L482.27,33.83 C482.810326,33.8346425 483.26932,33.4357038 483.34,32.9 L484.11,26.69 L484.3,33.36 C484.29001,33.4497228 484.29001,33.5402772 484.3,33.63 L486.59,41.31 C486.737508,41.7417654 487.134203,42.0392864 487.59,42.06 L487.59,42.06 C488.098626,42.0636739 488.528977,41.6849651 488.59,41.18 L490,33.77 L494.17,33.77 C494.416134,33.7723117 494.655805,33.6912467 494.85,33.54 L495,33.41 L495.16,33.6 C495.322612,33.832301 495.570784,33.9905556 495.85,34.04 L496.64,34.18 L496.75,34.18 L497.09,34.7 C497.355105,35.0694572 497.818739,35.2398526 498.26,35.13 C498.712896,35.0041096 499.032351,34.5997361 499.05,34.13 L499.14,33.21 C499.302242,33.2882019 499.479896,33.3291989 499.66,33.33 Z" id="Shape"></path>
                <path d="M523.53,16.81 C523.53,21.52 520.97,25.69 518.12,29.24 L516.52,31.17 L500.61,31.17 L499.91,25.86 C499.894627,25.5927554 499.77275,25.342831 499.571645,25.1661594 C499.37054,24.9894878 499.106998,24.9008201 498.84,24.92 C498.300524,24.9497625 497.869762,25.3805238 497.84,25.92 L497.28,31.42 C497.074228,31.3396747 496.845772,31.3396747 496.64,31.42 L496.39,31.52 L496.2,31.26 C496.03036,31.0193625 495.763297,30.8657097 495.47,30.84 C495.181145,30.7992987 494.887678,30.8708761 494.65,31.04 L493.92,31.65 L489.24,31.65 C488.713639,31.6409093 488.25741,32.0126512 488.16,32.53 L487.47,36.45 L486.47,33.25 L485.89,12.77 C485.864774,12.2285082 485.431492,11.795226 484.89,11.77 C484.622899,11.7392485 484.354666,11.8173497 484.145823,11.9866819 C483.93698,12.1560141 483.805122,12.4023104 483.78,12.67 L483.78,12.67 L481.32,31.77 L479.08,31.77 L477.8,26.77 C477.656074,26.2500436 477.156296,25.911211 476.62,25.97 C476.103995,26.0313794 475.704854,26.4515275 475.67,26.97 L475.67,30.97 C475.365137,31.0386055 475.10987,31.2457783 474.98,31.53 L474.6,32.32 L471.92,32.32 C471.594826,31.8902548 471.088878,31.6354345 470.55,31.63 C470.314771,31.6383834 470.082153,31.68221 469.86,31.76 C465.56,26.31 460.86,20.24 462.86,12.85 C464.723466,5.91029026 470.984739,1.06404012 478.17,1 C484.94,1 490.71,4.42 492.96,10.42 C495.17,4.42 500.96,0.99 507.7,0.99 C511.895725,0.987346997 515.920658,2.6515484 518.889359,5.61649873 C521.85806,8.58144905 523.527349,12.6042749 523.53,16.8 L523.53,16.81 Z" id="Shape"></path>
            </g>
        </g>
        <g id="a"></g>
    </g>
</svg>