<?xml version="1.0" encoding="UTF-8"?>
<svg width="63px" height="64px" viewBox="0 0 63 64" version="1.1" xmlns="http://www.w3.org/2000/svg" xmlns:xlink="http://www.w3.org/1999/xlink">
    <!-- Generator: Sketch 47.1 (45422) - http://www.bohemiancoding.com/sketch -->
    <title>Artboard 2</title>
    <desc>Created with Sketch.</desc>
    <defs></defs>
    <g id="Page-1" stroke="none" stroke-width="1" fill="none" fill-rule="evenodd">
        <g id="Artboard" transform="translate(-46.000000, -9.000000)" fill-rule="nonzero" fill="#FFFFFF">
            <g id="symptoms" transform="translate(5.000000, 10.000000)">
                <path d="M43.65,46.45 C41.83531,41.9881381 41.8697011,36.9877334 43.7455909,32.5512541 C45.6214806,28.1147747 49.1848276,24.6065289 53.65,22.8 C53.8,22.73 53.95,22.68 54.1,22.62 C52.4869419,12.7654941 59.1504997,3.46334626 69,1.82 L69.51,1.74 L69.51,2.4 C66.2791287,3.00175884 63.4096579,4.83822013 61.51,7.52 C59.9291314,9.71717808 59.1171802,12.3744727 59.2,15.08 C59.2401545,18.2911636 60.527557,21.3608476 62.79,23.64 C65.0187053,25.9672459 68.0606123,27.3430908 71.28,27.48 C71.2899057,27.5091823 71.2899057,27.5408177 71.28,27.57 L71.28,29.24 C71.28,29.33 71.28,29.35 71.17,29.38 C70.2294822,29.5637167 69.4006035,30.1138485 68.8660119,30.9091707 C68.3314203,31.7044929 68.134988,32.6797361 68.32,33.62 C68.3493839,33.7693576 68.3894877,33.9164047 68.44,34.06 L68.44,34.24 L67,35.11 L66.91,35 C62.9556116,29.1403036 54.9997519,27.5956938 49.14,31.55 C48.3586428,32.087103 47.6407217,32.7110906 47,33.41 C43.86416,36.7548129 42.8055811,41.545266 44.24,45.9 C44.24,46.04 44.24,46.12 44.12,46.18 L43.65,46.45 Z" id="Shape"></path>
                <path d="M89.9,22.61 C94.4790285,24.3339586 98.1662642,27.8364275 100.123143,32.3208629 C102.080022,36.8052982 102.140203,41.8905095 100.29,46.42 L99.76,46.1 C99.6,45.98 99.76,45.99 99.76,45.94 C99.91,45.35 100.1,44.76 100.2,44.16 C100.708976,41.5132383 100.321943,38.7723445 99.1,36.37 C97.3640375,32.7037293 93.9345674,30.1269519 89.93,29.48 C84.9423247,28.5856895 79.9030243,30.7588878 77.13,35 L77.06,35.12 L75.42,34.31 C75.42,33.9 75.57,33.52 75.6,33.13 C75.6506098,31.378513 74.4361696,29.8435956 72.72,29.49 C72.72,29.49 72.59,29.41 72.59,29.38 L72.59,27.57 C76.510357,27.3903605 80.1244567,25.3985407 82.37,22.18 C83.9669647,19.9789416 84.7834523,17.3077603 84.69,14.59 C84.554093,8.64163505 80.2912427,3.59198918 74.45,2.46 L74.45,1.72 C84.4090656,3.09480149 91.3697663,12.2802407 90,22.24 L89.94,22.61 L89.9,22.61 Z" id="Shape"></path>
                <path d="M60.48,56.39 C59.8888577,56.3899484 59.2980986,56.3599098 58.71,56.3 C57.9767842,56.2097246 57.249037,56.0795313 56.53,55.91 C59.3514439,55.9076325 62.0995972,55.0114194 64.38,53.35 C67.1127097,51.4364438 69.0539427,48.5921464 69.84,45.35 C70.4936782,42.6393199 70.3265986,39.7954864 69.36,37.18 C70.9643554,38.1644488 72.9856446,38.1644488 74.59,37.18 C73.2744574,40.6458663 73.3936183,44.4929917 74.9211369,47.870797 C76.4486555,51.2486022 79.2587057,53.8788477 82.73,55.18 C84.219867,55.7450164 85.7967705,56.0461847 87.39,56.07 C86.1326765,56.3757039 84.8439375,56.5334402 83.55,56.54 C82.945042,56.5385275 82.340684,56.5017986 81.74,56.43 C78.5229412,56.0466449 75.4865493,54.7368969 73,52.66 C72.4614544,52.2002131 71.6685456,52.2002131 71.13,52.66 C68.1268898,55.0853542 64.3801628,56.4025353 60.52,56.39 L60.48,56.39 Z" id="Shape"></path>
                <path d="M72.72,39.06 C72.4534266,40.436369 72.3760452,41.8426929 72.49,43.24 C72.8614837,47.7146126 75.2075832,51.7909604 78.89,54.36 C77.024169,53.7768249 75.2865247,52.8435198 73.77,51.61 C73.2725147,51.2004996 72.6441463,50.9839433 72,51 C71.3660053,51.0006864 70.7515755,51.2196211 70.26,51.62 C68.7231267,52.8678178 66.9564537,53.8021161 65.06,54.37 L65.15,54.37 C68.151139,52.2791896 70.2849222,49.163866 71.15,45.61 C71.6726534,43.4668231 71.7272259,41.2361709 71.31,39.07 L72.79,39.07 L72.72,39.06 Z M74.85,35.23 C74.1353598,36.0550522 73.0913342,36.5202847 72,36.5 C70.931345,36.5107378 69.9144001,36.0408138 69.23,35.22 L67.61,36.14 C68.9912754,38.8538843 69.3463739,41.9752 68.61,44.93 C67.8921807,47.8956048 66.1136141,50.4958691 63.61,52.24 C61.472271,53.8216832 58.8791928,54.6673284 56.22,54.65 L55.53,54.65 C52.0612661,54.5007848 48.8066273,52.9313257 46.53,50.31 L46.45,50.31 L45.94,50.6 C46.15,50.86 46.34,51.1 46.54,51.33 C49.5604025,54.8480625 53.8169916,57.0712264 58.43,57.54 C59.07,57.6 59.7,57.64 60.34,57.64 C64.4689573,57.6410307 68.4740239,56.2295535 71.69,53.64 C71.7408675,53.5643727 71.8423258,53.5423166 71.92,53.59 L71.98,53.64 C74.707023,55.808058 78.0026372,57.1415837 81.47,57.48 C82.1141697,57.5521014 82.7618088,57.5888232 83.41,57.59 C84.8254438,57.5899914 86.2356888,57.4187473 87.61,57.08 C91.3118111,56.2236995 94.6477155,54.2179564 97.14,51.35 L97.73,50.64 C97.58,50.55 97.42,50.47 97.3,50.38 L97.17,50.38 C97.1086656,50.3855157 97.0551097,50.4237698 97.03,50.48 C93.6382293,54.1758225 88.3911086,55.5331075 83.6326659,53.9455199 C78.8742231,52.3579323 75.4932042,48.1219898 75,43.13 C74.8138272,41.0840143 75.1331878,39.0236231 75.93,37.13 C76.07,36.81 76.21,36.51 76.36,36.19 L74.75,35.25 L74.85,35.23 Z" id="Shape"></path>
                <path d="M83.94,31.12 C84.44,30.99 84.94,30.85 85.44,30.75 C86.2814134,30.5735573 87.1406107,30.4963638 88,30.52 C88.13,30.52 88.17,30.52 88.19,30.68 C89.1980642,38.0901395 85.0280639,45.2339976 78.08,48 L78,48 C77.248731,46.7976595 76.7202861,45.4697724 76.44,44.08 C81.66844,42.0247803 84.7922852,36.6388404 83.98,31.08 L83.94,31.12 Z" id="Shape"></path>
                <path d="M60,31.16 C59.5791319,33.8681486 60.1091693,36.6384774 61.5,39 C62.8568649,41.3576404 64.9715254,43.1868217 67.5,44.19 C67.2277219,45.6102947 66.6918145,46.9670221 65.92,48.19 C65.37,47.92 64.8,47.69 64.27,47.39 C59.9870848,45.1591769 56.9353318,41.119552 55.96,36.39 C55.539006,34.5190267 55.4711763,32.5858792 55.76,30.69 C55.76,30.6 55.76,30.57 55.87,30.56 C57.2277891,30.542227 58.5792272,30.7483214 59.87,31.17 L60,31.16 Z" id="Shape"></path>
                <path d="M64.44,23.49 C63.3705589,22.5623915 62.4793036,21.4474753 61.81,20.2 C67.7610644,15.4800416 76.1789356,15.4800416 82.13,20.2 C81.4802167,21.4438164 80.6132366,22.5614079 79.57,23.5 C75.1495846,20.0193922 68.9204154,20.0193922 64.5,23.5 L64.44,23.49 Z" id="Shape"></path>
            </g>
        </g>
        <g id="Artboard-2"></g>
    </g>
</svg>