<svg xmlns="http://www.w3.org/2000/svg" viewBox="0 0 604.06 274.75"><title>symptoms</title><g style="isolation:isolate"><text transform="translate(220.83 88.48)" font-size="17.2" fill="#ffc629" font-family="Raleway-Black, Raleway" letter-spacing="-0.03em" style="isolation:isolate">L</text><text transform="translate(230.89 88.48)" font-size="17.2" fill="#ffc629" font-family="Raleway-Black, Raleway" letter-spacing="-0.01em" style="isolation:isolate">E</text><text transform="translate(240.98 88.48)" font-size="17.2" fill="#ffc629" font-family="Raleway-Black, Raleway" style="isolation:isolate">G INJURIES</text><text transform="translate(403.8 217.53)" font-size="17.2" fill="#fff" font-family="HelveticaNeue, Helvetica Neue" style="isolation:isolate"> </text></g><g style="isolation:isolate"><text transform="translate(0 88.25)" font-size="17.2" fill="#ffc629" font-family="Raleway-Black, Raleway" style="isolation:isolate">CHEMI</text><text transform="translate(55.22 88.25)" font-size="17.2" fill="#ffc629" font-family="Raleway-Black, Raleway" letter-spacing="-0.01em" style="isolation:isolate">C</text><text transform="translate(66.92 88.25)" font-size="17.2" fill="#ffc629" font-family="Raleway-Black, Raleway" letter-spacing="-0.03em" style="isolation:isolate">A</text><text transform="translate(78.39 88.25)" font-size="17.2" fill="#ffc629" font-family="Raleway-Black, Raleway" letter-spacing="-0.06em" style="isolation:isolate">L</text><text transform="translate(87.96 88.25)" font-size="17.2" fill="#ffc629" font-family="Raleway-Black, Raleway" style="isolation:isolate"><tspan xml:space="preserve"> BURNS</tspan></text><text transform="translate(151.7 88.25)" font-size="23.65" fill="#ffc629" font-family="Raleway-Black, Raleway" style="isolation:isolate"> </text><text transform="translate(162.28 174.28)" font-size="17.2" fill="#fff" font-family="HelveticaNeue, Helvetica Neue" style="isolation:isolate"> </text></g><g style="isolation:isolate"><text transform="translate(425.1 89.95)" font-size="17.2" fill="#ffc629" font-family="Raleway-Black, Raleway" style="isolation:isolate">HE<tspan x="23.17" y="0" letter-spacing="-0.03em">A</tspan></text><text transform="translate(459.75 89.95)" font-size="17.2" fill="#ffc629" font-family="Raleway-Black, Raleway" letter-spacing="-0.01em" style="isolation:isolate">R</text><text transform="translate(471.19 89.95)" font-size="17.2" fill="#ffc629" font-family="Raleway-Black, Raleway" letter-spacing="-0.06em" style="isolation:isolate">T</text><text transform="translate(481.44 89.95)" font-size="17.2" fill="#ffc629" font-family="Raleway-Black, Raleway" letter-spacing="-0.03em" style="isolation:isolate"> </text><text transform="translate(484.8 89.95)" font-size="17.2" fill="#ffc629" font-family="Raleway-Black, Raleway" letter-spacing="-0.09em" style="isolation:isolate">A</text><text transform="translate(495.17 89.95)" font-size="17.2" fill="#ffc629" font-family="Raleway-Black, Raleway" letter-spacing="-0.03em" style="isolation:isolate">T</text><text transform="translate(505.9 89.95)" font-size="17.2" fill="#ffc629" font-family="Raleway-Black, Raleway" letter-spacing="-0.1em" style="isolation:isolate">T</text><text transform="translate(515.52 89.95)" font-size="17.2" fill="#ffc629" font-family="Raleway-Black, Raleway" letter-spacing="-0.06em" style="isolation:isolate">A</text><text transform="translate(526.49 89.95)" font-size="17.2" fill="#ffc629" font-family="Raleway-Black, Raleway" style="isolation:isolate">CKS</text></g><path d="M43.65,45.45a18.14,18.14,0,0,1,10-23.65c.15-.07.3-.12.45-.18A18.12,18.12,0,0,1,69,.82l.51-.08V1.4a12.64,12.64,0,0,0-8,5.12,12.3,12.3,0,0,0-2.31,7.56,12.37,12.37,0,0,0,3.59,8.56,12.49,12.49,0,0,0,8.49,3.84.14.14,0,0,1,0,.09v1.67c0,.09,0,.11-.11.14a3.61,3.61,0,0,0-2.85,4.24,3.17,3.17,0,0,0,.12.44v.18L67,34.11,66.91,34a12.8,12.8,0,0,0-17.77-3.45A12.54,12.54,0,0,0,47,32.41,12.53,12.53,0,0,0,44.24,44.9c0,.14,0,.22-.12.28Z" fill="#fff"/><path d="M89.9,21.61a18.12,18.12,0,0,1,10.39,23.81l-.53-.32c-.16-.12,0-.11,0-.16.15-.59.34-1.18.44-1.78a12.13,12.13,0,0,0-1.1-7.79,12.32,12.32,0,0,0-9.17-6.89A12.63,12.63,0,0,0,77.13,34l-.07.12-1.64-.81c0-.41.15-.79.18-1.18a3.61,3.61,0,0,0-2.88-3.64s-.13-.08-.13-.11V26.57a12.63,12.63,0,0,0,9.78-5.39,12.21,12.21,0,0,0,2.32-7.59A12.65,12.65,0,0,0,74.45,1.46V.72A18.21,18.21,0,0,1,90,21.24l-.06.37Z" fill="#fff"/><path d="M60.48,55.39a17.48,17.48,0,0,1-1.77-.09,20.32,20.32,0,0,1-2.18-.39,13.35,13.35,0,0,0,7.85-2.56,13.71,13.71,0,0,0,5.46-8,14.06,14.06,0,0,0-.48-8.17,5,5,0,0,0,5.23,0,13.94,13.94,0,0,0,8.14,18,13.72,13.72,0,0,0,4.66.89,16.61,16.61,0,0,1-3.84.47,15.57,15.57,0,0,1-1.81-.11A16.72,16.72,0,0,1,73,51.66a1.44,1.44,0,0,0-1.87,0,16.8,16.8,0,0,1-10.61,3.73Z" fill="#fff"/><path d="M72.72,38.06a15.4,15.4,0,0,0-.23,4.18,15.08,15.08,0,0,0,6.4,11.12,15.39,15.39,0,0,1-5.12-2.75A2.68,2.68,0,0,0,72,50a2.76,2.76,0,0,0-1.74.62,15.14,15.14,0,0,1-5.2,2.75h.09a15,15,0,0,0,6-8.76,15.35,15.35,0,0,0,.16-6.54h1.48m2.06-3.84A3.68,3.68,0,0,1,72,35.5a3.56,3.56,0,0,1-2.77-1.28l-1.62.92a12.64,12.64,0,0,1,1,8.79,12.49,12.49,0,0,1-5,7.31,12.29,12.29,0,0,1-7.39,2.41h-.69a12.64,12.64,0,0,1-9-4.34h-.08l-.51.29c.21.26.4.5.6.73a18.08,18.08,0,0,0,11.89,6.21c.64.06,1.27.1,1.91.1a18.09,18.09,0,0,0,11.35-4,.17.17,0,0,1,.23-.05l.06.05a18.07,18.07,0,0,0,9.49,3.84,17.73,17.73,0,0,0,1.94.11,17.55,17.55,0,0,0,4.2-.51,18,18,0,0,0,9.53-5.73l.59-.71c-.15-.09-.31-.17-.43-.26h-.13a.17.17,0,0,0-.14.1A12.72,12.72,0,0,1,75,42.13a12.54,12.54,0,0,1,.93-6c.14-.32.28-.62.43-.94l-1.61-.94Z" fill="#fff"/><path d="M83.94,30.12c.5-.13,1-.27,1.5-.37A11,11,0,0,1,88,29.52c.13,0,.17,0,.19.16A16.28,16.28,0,0,1,78.08,47H78a11.8,11.8,0,0,1-1.56-3.92,12.09,12.09,0,0,0,7.54-13Z" fill="#fff"/><path d="M60,30.16A11.86,11.86,0,0,0,61.5,38a12.05,12.05,0,0,0,6,5.19,11.58,11.58,0,0,1-1.58,4c-.55-.27-1.12-.5-1.65-.8a16.06,16.06,0,0,1-8.31-11,15.4,15.4,0,0,1-.2-5.7c0-.09,0-.12.11-.13a12.36,12.36,0,0,1,4,.61Z" fill="#fff"/><path d="M64.44,22.49a11.64,11.64,0,0,1-2.63-3.29,16.35,16.35,0,0,1,20.32,0,11.77,11.77,0,0,1-2.56,3.3,12.18,12.18,0,0,0-15.07,0Z" fill="#fff"/><path d="M291.33,28.22c.39-1.52.78-2.84,1-4.18a1.6,1.6,0,0,0-.44-1.28,12.28,12.28,0,0,0-2.15-1.65c-1-.67-.4-2.13-1-3.11-.37-.59-1.18-.92-1.4-1.58a24.67,24.67,0,0,1,3.2-.36c5.12-.9,10.63-2.62,14.68-6a35.22,35.22,0,0,0,5.12-5.38,6.41,6.41,0,0,1,9-1.11,6.16,6.16,0,0,1,1.25,1.3,5.7,5.7,0,0,1,.7,2.82c.06,2-.66,4.35-.12,6.32.76,2.82,3.92,4.69,4.19,7.68s-2.68,5.92-5.42,6.31a6.76,6.76,0,0,1-3.43-.6,25.78,25.78,0,0,0-11.22-2.21,42.68,42.68,0,0,0-10.9,2.23C293.41,27.69,292.49,27.92,291.33,28.22Z" fill="#fff"/><path d="M281.71,21.15c.37,1.07.7,2.17,1.16,3.22a1.51,1.51,0,0,0,.94.77,21.47,21.47,0,0,0,2.88.41.93.93,0,0,1,1.06.83c.31,1.28,1.28,2.75,1,3.92s-1.64,2.06-2.56,3a26.47,26.47,0,0,0-8,15.36A7.75,7.75,0,0,1,276.82,53a7.22,7.22,0,0,1-7.8,1.56A6.79,6.79,0,0,1,267,52a35.86,35.86,0,0,1-1.87-3.78,4.43,4.43,0,0,0-2.28-2.15c-1.46-.7-2.89-1.5-4.35-2.19-2.15-1-2.69-2.78-2.56-4.93.28-3.66,2.38-5.6,6.05-6a23.62,23.62,0,0,0,13.15-5.65c2-1.66,3.72-3.53,5.56-5.33a6,6,0,0,0,.71-1.09Z" fill="#fff"/><path d="M499.66,32.33h15.05C506.11,42.57,493,57.23,493,57.38c-7-9-13.95-15.36-20.93-24h3.25a1,1,0,0,0,.73-.29,1.19,1.19,0,0,0,1,.28,1.18,1.18,0,0,0,.73-.65,1.17,1.17,0,0,0,.49.11h4a1.07,1.07,0,0,0,1.07-.93l.77-6.21.19,6.67a1.22,1.22,0,0,0,0,.27l2.29,7.68a1.11,1.11,0,0,0,1,.75h0a1,1,0,0,0,1-.88L490,32.77h4.17a1.09,1.09,0,0,0,.68-.23l.15-.13.16.19a1.07,1.07,0,0,0,.69.44l.79.14h.11l.34.52a1.11,1.11,0,0,0,1.17.43,1.08,1.08,0,0,0,.79-1l.09-.92A1.21,1.21,0,0,0,499.66,32.33Z" fill="#fff"/><path d="M523.53,15.81c0,4.71-2.56,8.88-5.41,12.43l-1.6,1.93H500.61l-.7-5.31a1,1,0,0,0-1.07-.94,1.06,1.06,0,0,0-1,1l-.56,5.5a.88.88,0,0,0-.64,0l-.25.1-.19-.26a1,1,0,0,0-.73-.42,1.14,1.14,0,0,0-.82.2l-.73.61h-4.68a1.08,1.08,0,0,0-1.08.88l-.69,3.92-1-3.2-.58-20.48a1.05,1.05,0,0,0-1-1,1,1,0,0,0-1.11.9v0l-2.46,19.1h-2.24l-1.28-5a1.1,1.1,0,0,0-1.18-.8,1.08,1.08,0,0,0-.95,1v4a1,1,0,0,0-.69.56l-.38.79h-2.68a1.74,1.74,0,0,0-1.37-.69,2.34,2.34,0,0,0-.69.13c-4.3-5.45-9-11.52-7-18.91A16,16,0,0,1,478.17,0c6.77,0,12.54,3.42,14.79,9.42,2.21-6,8-9.43,14.74-9.43a15.82,15.82,0,0,1,15.83,15.81Z" fill="#fff"/><text transform="translate(0.3 109.66)" font-size="17.2" fill="#fff" font-family="Raleway-SemiBold, Raleway" font-weight="700">Chic<tspan x="35.81" y="0" letter-spacing="-0.03em">k</tspan><tspan x="44.77" y="0">ens </tspan><tspan x="78.05" y="0" letter-spacing="-0.01em">o</tspan><tspan x="88.27" y="0">f</tspan><tspan x="94.39" y="0" letter-spacing="-0.01em">t</tspan><tspan x="100.48" y="0">en h</tspan><tspan x="135.5" y="0" letter-spacing="-0.01em">a</tspan><tspan x="144.96" y="0" letter-spacing="-0.02em">v</tspan><tspan x="153.99" y="0">e </tspan><tspan x="0" y="20.64" letter-spacing="-0.01em">t</tspan><tspan x="6.09" y="20.64">o stand in thei</tspan><tspan x="120.36" y="20.64" letter-spacing="-0.02em">r</tspan><tspan x="126.38" y="20.64"> </tspan><tspan x="130.63" y="20.64" letter-spacing="-0.02em">o</tspan><tspan x="140.66" y="20.64" letter-spacing="0em">wn </tspan><tspan x="0" y="41.28" letter-spacing="-0.01em">w</tspan><tspan x="14.05" y="41.28">as</tspan><tspan x="32.28" y="41.28" letter-spacing="-0.01em">t</tspan><tspan x="38.37" y="41.28">e,</tspan><tspan x="52.41" y="41.28" letter-spacing="-0.03em"> </tspan><tspan x="56.19" y="41.28">which </tspan><tspan x="109.03" y="41.28" letter-spacing="0em">c</tspan><tspan x="118.56" y="41.28">o</tspan><tspan x="128.91" y="41.28" letter-spacing="0em">n</tspan><tspan x="139.09" y="41.28">tains </tspan><tspan x="0" y="61.92" letter-spacing="0em">c</tspan><tspan x="9.53" y="61.92">on</tspan><tspan x="30.15" y="61.92" letter-spacing="0em">c</tspan><tspan x="39.68" y="61.92" letter-spacing="0em">e</tspan><tspan x="49.91" y="61.92" letter-spacing="0em">n</tspan><tspan x="60.1" y="61.92">t</tspan><tspan x="66.41" y="61.92" letter-spacing="-0.01em">r</tspan><tspan x="72.72" y="61.92" letter-spacing="0em">a</tspan><tspan x="82.35" y="61.92" letter-spacing="-0.01em">t</tspan><tspan x="88.44" y="61.92">ed l</tspan><tspan x="119.06" y="61.92" letter-spacing="-0.01em">e</tspan><tspan x="129.05" y="61.92" letter-spacing="-0.02em">v</tspan><tspan x="138.08" y="61.92">els </tspan><tspan x="0" y="82.56" letter-spacing="-0.01em">o</tspan><tspan x="10.22" y="82.56" letter-spacing="-0.02em">f</tspan><tspan x="15.98" y="82.56" xml:space="preserve"> ammonia.</tspan><tspan x="99.96" y="82.56" letter-spacing="-0.03em"> </tspan><tspan x="103.73" y="82.56" letter-spacing="0em">This </tspan><tspan x="0" y="103.2">chemica</tspan><tspan x="69.54" y="103.2" letter-spacing="-0.03em">l</tspan><tspan x="74.18" y="103.2" xml:space="preserve"> le</tspan><tspan x="93.84" y="103.2" letter-spacing="-0.01em">a</tspan><tspan x="103.3" y="103.2" letter-spacing="-0.02em">v</tspan><tspan x="112.33" y="103.2">es pain</tspan><tspan x="170.28" y="103.2">-</tspan><tspan x="0" y="123.84">fu</tspan><tspan x="16.6" y="123.84" letter-spacing="-0.03em">l</tspan><tspan x="21.24" y="123.84" xml:space="preserve"> burns on thei</tspan><tspan x="132.09" y="123.84" letter-spacing="-0.02em">r</tspan><tspan x="138.11" y="123.84" xml:space="preserve"> skin.</tspan></text><text transform="translate(220.73 109.66)" font-size="17.2" fill="#fff" font-family="Raleway-SemiBold, Raleway" font-weight="700">Chic<tspan x="35.81" y="0" letter-spacing="-0.03em">k</tspan><tspan x="44.77" y="0">ens </tspan><tspan x="78.05" y="0" letter-spacing="-0.01em">r</tspan><tspan x="84.36" y="0">aised </tspan><tspan x="132.2" y="0" letter-spacing="-0.03em">f</tspan><tspan x="137.87" y="0">o</tspan><tspan x="148.23" y="0" letter-spacing="-0.02em">r</tspan><tspan x="154.25" y="0"> </tspan><tspan x="0" y="20.64" letter-spacing="-0.01em">M</tspan><tspan x="14.84" y="20.64">cDonald</tspan><tspan x="83.23" y="20.64" letter-spacing="-0.01em">&apos;</tspan><tspan x="86.86" y="20.64">s g</tspan><tspan x="110.46" y="20.64" letter-spacing="-0.03em">r</tspan><tspan x="116.44" y="20.64" letter-spacing="-0.02em">o</tspan><tspan x="126.47" y="20.64" letter-spacing="-0.03em">w</tspan><tspan x="140.28" y="20.64" xml:space="preserve"> so </tspan><tspan x="0" y="41.28">la</tspan><tspan x="14.88" y="41.28" letter-spacing="-0.03em">r</tspan><tspan x="20.86" y="41.28">ge so </tspan><tspan x="69.3" y="41.28" letter-spacing="-0.01em">f</tspan><tspan x="75.28" y="41.28">ast th</tspan><tspan x="120.65" y="41.28" letter-spacing="0em">a</tspan><tspan x="130.29" y="41.28">t </tspan><tspan x="0" y="61.92">ma</tspan><tspan x="25.65" y="61.92" letter-spacing="-0.01em">n</tspan><tspan x="35.71" y="61.92" letter-spacing="-0.03em">y</tspan><tspan x="44.65" y="61.92" xml:space="preserve"> endu</tspan><tspan x="90.83" y="61.92" letter-spacing="-0.03em">r</tspan><tspan x="96.82" y="61.92">e debili</tspan><tspan x="156.79" y="61.92">-</tspan><tspan x="0" y="82.56">t</tspan><tspan x="6.31" y="82.56" letter-spacing="0em">a</tspan><tspan x="15.94" y="82.56">ting injuries includ</tspan><tspan x="165.18" y="82.56">-</tspan><tspan x="0" y="103.2">ing b</tspan><tspan x="40.3" y="103.2" letter-spacing="-0.03em">r</tspan><tspan x="46.28" y="103.2">o</tspan><tspan x="56.64" y="103.2" letter-spacing="-0.03em">k</tspan><tspan x="65.6" y="103.2">en legs, </tspan><tspan x="0" y="123.84">which buckle unde</tspan><tspan x="154.75" y="123.84" letter-spacing="-0.02em">r</tspan><tspan x="160.77" y="123.84"> </tspan><tspan x="0" y="144.48">the enormous</tspan><tspan x="113.65" y="144.48" letter-spacing="-0.03em"> </tspan><tspan x="117.44" y="144.48" letter-spacing="-0.02em">w</tspan><tspan x="131.39" y="144.48">eig</tspan><tspan x="156.6" y="144.48" letter-spacing="0em">h</tspan><tspan x="166.79" y="144.48">t </tspan></text><text transform="translate(425.36 110.18)" font-size="17.2" fill="#fff" font-family="Raleway-SemiBold, Raleway" font-weight="700">These unn<tspan x="85.12" y="0" letter-spacing="0em">a</tspan><tspan x="94.75" y="0">tu</tspan><tspan x="111.54" y="0" letter-spacing="-0.01em">r</tspan><tspan x="117.85" y="0">al</tspan><tspan x="132.73" y="0" letter-spacing="-0.01em">l</tspan><tspan x="137.72" y="0" letter-spacing="-0.03em">y</tspan><tspan x="146.66" y="0"> </tspan><tspan x="0" y="20.64">la</tspan><tspan x="14.88" y="20.64" letter-spacing="-0.03em">r</tspan><tspan x="20.86" y="20.64">ge bi</tspan><tspan x="61.13" y="20.64" letter-spacing="-0.03em">r</tspan><tspan x="67.11" y="20.64">ds h</tspan><tspan x="101.12" y="20.64" letter-spacing="-0.01em">a</tspan><tspan x="110.58" y="20.64" letter-spacing="-0.02em">v</tspan><tspan x="119.61" y="20.64">e such </tspan><tspan x="0" y="41.28">high blood p</tspan><tspan x="102.46" y="41.28" letter-spacing="-0.03em">r</tspan><tspan x="108.44" y="41.28">essu</tspan><tspan x="146.21" y="41.28" letter-spacing="-0.03em">r</tspan><tspan x="152.2" y="41.28">e </tspan><tspan x="0" y="61.92">th</tspan><tspan x="16.58" y="61.92" letter-spacing="0em">a</tspan><tspan x="26.21" y="61.92">t ma</tspan><tspan x="62.42" y="61.92" letter-spacing="-0.01em">n</tspan><tspan x="72.48" y="61.92" letter-spacing="-0.03em">y</tspan><tspan x="81.42" y="61.92" xml:space="preserve"> die sl</tspan><tspan x="128.98" y="61.92" letter-spacing="-0.02em">o</tspan><tspan x="139.01" y="61.92" letter-spacing="-0.03em">w</tspan><tspan x="152.82" y="61.92"> </tspan><tspan x="0" y="82.56">pai</tspan><tspan x="24.66" y="82.56" letter-spacing="0em">n</tspan><tspan x="34.85" y="82.56">fu</tspan><tspan x="51.44" y="82.56" letter-spacing="-0.03em">l</tspan><tspan x="56.09" y="82.56" xml:space="preserve"> de</tspan><tspan x="81.53" y="82.56" letter-spacing="0em">a</tspan><tspan x="91.16" y="82.56">ths f</tspan><tspan x="126.64" y="82.56" letter-spacing="-0.03em">r</tspan><tspan x="132.63" y="82.56">om </tspan><tspan x="0" y="103.2">heart disease o</tspan><tspan x="124.15" y="103.2" letter-spacing="-0.02em">r</tspan><tspan x="130.17" y="103.2" xml:space="preserve"> ar</tspan><tspan x="150.55" y="103.2">-</tspan><tspan x="0" y="123.84">r</tspan><tspan x="6.43" y="123.84" letter-spacing="-0.01em">h</tspan><tspan x="16.46" y="123.84">ythmias.</tspan></text></svg>