<?xml version="1.0" encoding="UTF-8"?>
<svg width="38px" height="38px" viewBox="0 0 38 38" version="1.1" xmlns="http://www.w3.org/2000/svg" xmlns:xlink="http://www.w3.org/1999/xlink">
    <!-- Generator: Sketch 47.1 (45422) - http://www.bohemiancoding.com/sketch -->
    <title>Artboard</title>
    <desc>Created with Sketch.</desc>
    <defs></defs>
    <g id="Page-1" stroke="none" stroke-width="1" fill="none" fill-rule="evenodd">
        <g id="warehouses" transform="translate(-298.000000, -303.000000)" fill-rule="nonzero">
            <circle id="Oval" fill="#FFFFFF" cx="317.2" cy="321.78" r="18.4"></circle>
            <path d="M321,311.18 C319.874986,310.163219 318.416345,309.593994 316.9,309.58 C315.62976,309.563797 314.393074,309.987803 313.4,310.78 C311.86432,311.838875 310.875837,313.522956 310.7,315.38 C310.600026,316.176877 310.600026,316.983123 310.7,317.78 C310.701467,318.490573 310.802448,319.197439 311,319.88 C311.14074,320.815471 311.799422,321.590392 312.7,321.88 C313.185331,322.015421 313.564579,322.394669 313.7,322.88 C313.877908,323.263736 314.012085,323.666266 314.1,324.08 C314.222831,324.502811 314.290064,324.939821 314.3,325.38 L314.3,325.48 C314.3,325.58 314.4,325.58 314.5,325.58 L315.2,325.68 L315.3,325.68 L315.3,325.28 L315.4,325.28 L315.4,325.68 L316,325.78 C316.2,325.78 316.1,325.58 316.2,325.38 L316.2,325.58 C316.2,325.78 316.3,325.78 316.4,325.78 L316.8,325.78 L316.8,325.48 C316.8,325.38 316.8,325.38 316.9,325.28 L316.9,325.68 L316.9,325.68 L317.1,325.78 L317.3,325.78 C317.4,325.78 317.4,325.78 317.4,325.68 L317.4,325.28 L317.4,325.28 L317.4,325.68 L317.7,325.68 C317.8,325.68 317.9,325.68 317.9,325.58 L317.9,325.48 C317.9,325.58 318,325.58 318.1,325.58 L318.5,325.58 C318.6,325.58 318.6,325.48 318.6,325.38 L318.6,325.08 L318.6,325.08 L318.6,325.38 L318.7,325.48 C318.84096,325.494964 318.982665,325.459537 319.1,325.38 C319.2,325.28 319.2,325.28 319.2,325.18 C319.2,325.08 319.3,324.68 319.3,324.48 C319.419992,323.868002 319.587157,323.266206 319.8,322.68 C320.000426,322.236006 320.356006,321.880426 320.8,321.68 L320.8,321.68 C321.410073,321.46945 321.88945,320.990073 322.1,320.38 C322.291547,320.044658 322.394774,319.666157 322.4,319.28 C322.5,318.38 322.6,317.48 322.7,316.48 C322.880653,314.555334 322.26646,312.640497 321,311.18 Z M313.3,320.68 C313.027384,320.596646 312.760204,320.496454 312.5,320.38 C311.96629,320.069943 311.655148,319.483541 311.697615,318.867767 C311.740083,318.251992 312.128779,317.713855 312.7,317.48 C313.5,317.18 315.8,316.98 315.8,318.28 L315.8,318.68 C315.827195,319.210603 315.642149,319.730221 315.285693,320.124199 C314.929237,320.518176 314.430669,320.754131 313.9,320.78 C313.8,320.78 313.5,320.68 313.3,320.68 Z M317.4,322.68 L316.5,322.68 C316.2,322.78 315.9,322.48 315.8,322.18 L315.8,321.88 C316,321.48 316.1,321.08 316.3,320.68 C316.5,320.28 316.7,320.18 316.9,320.18 C317.191647,320.187635 317.439898,320.394511 317.5,320.68 C317.7,321.08 317.8,321.48 318,321.88 C318.2,322.28 317.9,322.68 317.4,322.68 L317.4,322.68 Z M321.8,319.98 C321.041622,320.673569 319.951555,320.868224 319,320.48 C318.381993,320.137687 317.998928,319.486478 318,318.78 C318,317.78 318.2,317.48 319.2,317.28 C319.4,317.28 319.7,317.18 319.9,317.18 C320.686383,317.055136 321.471923,317.408629 321.9,318.08 C322.268931,318.671502 322.228984,319.430494 321.8,319.98 L321.8,319.98 Z" id="Shape" fill="#FFC629"></path>
            <path d="M327.1,326 C327.318447,326.347285 327.277491,326.7978 327,327.1 C326.645581,327.425217 326.181002,327.603901 325.7,327.6 C323.968023,327.380967 322.208911,327.622413 320.6,328.3 L320.4,328.3 L319.8,328.1 C319.08572,327.91192 318.384272,327.678104 317.7,327.4 C319,326.9 320.2,326.4 321.5,325.9 C322.43977,325.46332 323.237055,324.770029 323.8,323.9 C324.015577,323.499394 324.324237,323.156439 324.7,322.9 C325.432952,322.279334 326.518964,322.322774 327.2,323 C327.582372,323.333504 327.626867,323.911939 327.3,324.3 L327.2,324.4 C326.7,324.8 326.7,325.1 327,325.6 C327,325.78 327.1,325.88 327.1,326 Z" id="Shape" fill="#FFC629"></path>
            <path d="M316.3,329.78 C314.9,330.28 313.6,330.88 312.2,331.38 C311.479374,331.682291 310.805846,332.086408 310.2,332.58 C309.936117,332.854939 309.701524,333.156559 309.5,333.48 C309.285902,333.849107 308.920094,334.105173 308.5,334.18 C308.08757,334.296503 307.654256,334.079846 307.5,333.68 L307.5,333.48 C307.427916,333.093872 307.292777,332.72224 307.1,332.38 L306.9,332.08 C306.580141,331.546792 306.619833,330.87203 307,330.38 C307.166866,330.154347 307.420875,330.009199 307.7,329.98 L307.9,329.98 C308.982383,330.050859 310.068363,329.915111 311.1,329.58 C312,329.38 312.8,329.08 313.7,328.88 L314.3,329.08 L316.3,329.78 Z" id="Shape" fill="#FFC629"></path>
            <path d="M327.3,332.08 C327.015102,332.541712 326.812116,333.049175 326.7,333.58 C326.694042,333.774467 326.599947,333.955665 326.4443,334.0724 C326.288653,334.189135 326.088357,334.228731 325.9,334.18 L325.7,334.18 C325.279906,334.105173 324.914098,333.849107 324.7,333.48 C324.066138,332.492284 323.113353,331.751228 322,331.38 C321.317346,331.069855 320.615979,330.802668 319.9,330.58 C318.5,329.98 315.9,329.08 314.4,328.58 L312.5,327.98 C311.600509,327.660508 310.654477,327.491574 309.7,327.48 C309.264268,327.463499 308.828082,327.497052 308.4,327.58 L308.1,327.58 C307.702835,327.55361 307.321348,327.414888 307,327.18 C306.644675,326.885117 306.55952,326.374184 306.8,325.98 L307.1,325.38 C307.192808,325.251038 307.224112,325.087748 307.185577,324.933606 C307.147041,324.779464 307.042578,324.650116 306.9,324.58 L306.8,324.48 C306.417638,324.157643 306.332213,323.602379 306.6,323.18 C306.7,323.08 306.8,322.98 306.9,322.98 C307.264843,322.758151 307.675016,322.621427 308.1,322.58 C308.704177,322.5715 309.270476,322.873526 309.6,323.38 C309.799428,323.588102 309.967826,323.823859 310.1,324.08 C310.633491,324.91334 311.397879,325.573494 312.3,325.98 C313.8,326.58 315.3,327.18 316.7,327.78 L316.8,327.78 C317.6,328.08 318.5,328.38 319.5,328.68 L319.7,328.78 C321.3,329.18 322.9,329.68 324.5,330.08 L326.4,330.08 C326.610323,330.076154 326.804418,330.192611 326.9,330.38 C327.459238,330.753585 327.633982,331.496246 327.3,332.08 Z" id="Shape" fill="#FFC629"></path>
        </g>
        <g id="Artboard"></g>
    </g>
</svg>