<?xml version="1.0" encoding="UTF-8"?>
<svg width="37px" height="38px" viewBox="0 0 37 38" version="1.1" xmlns="http://www.w3.org/2000/svg" xmlns:xlink="http://www.w3.org/1999/xlink">
    <!-- Generator: Sketch 47.1 (45422) - http://www.bohemiancoding.com/sketch -->
    <title>Artboard</title>
    <desc>Created with Sketch.</desc>
    <defs></defs>
    <g id="Page-1" stroke="none" stroke-width="1" fill="none" fill-rule="evenodd">
        <g id="warehouses" transform="translate(0.000000, -388.000000)" fill-rule="nonzero">
            <circle id="Oval" fill="#FFFFFF" cx="18.4" cy="407.28" r="18.4"></circle>
            <path d="M12.4,408.08 L12.7,408.58 L24.5,399.78 C22.5150918,396.94582 18.8186016,395.885661 15.6332774,397.237011 C12.4479531,398.588361 10.6414325,401.98313 11.3,405.38 C11.4286211,406.359555 11.8074656,407.289446 12.4,408.08 L12.4,408.08 Z" id="Shape" fill="#FFC629"></path>
            <path d="M13.8,411.38 C13.9153242,411.804437 13.9824148,412.240526 14,412.68 C13.9807399,412.863093 14.0527025,413.043956 14.1924839,413.163769 C14.3322653,413.283581 14.522007,413.327036 14.7,413.28 L22.1,413.28 C22.5107913,413.297688 22.8630014,412.989504 22.9,412.58 L22.9,412.58 C22.9774687,411.538898 23.2487914,410.521438 23.7,409.58 C24.1,408.78 24.5,408.08 24.9,407.28 C25.7186602,405.894614 25.9695069,404.246194 25.6,402.68 L13.8,411.38 Z" id="Shape" fill="#FFC629"></path>
            <path d="M14.9,415.58 L22.1,415.58 C22.4865993,415.58 22.8,415.266599 22.8,414.88 C22.8,414.493401 22.4865993,414.18 22.1,414.18 L14.9,414.18 C14.6382263,414.118098 14.3639492,414.209447 14.1915663,414.415945 C14.0191835,414.622443 13.9783001,414.908626 14.0859682,415.155132 C14.1936363,415.401637 14.4313648,415.566129 14.7,415.58 L14.9,415.58 Z" id="Shape" fill="#FFC629"></path>
            <path d="M22,416.28 L14.5,416.28 C14.1654868,416.395334 13.9570865,416.728774 14,417.08 C14.0973614,417.398742 14.3701178,417.632533 14.7,417.68 L22,417.68 C22.397674,417.662766 22.7301296,417.371867 22.8,416.98 L22.8,416.98 C22.7630014,416.570496 22.4107913,416.262312 22,416.28 Z" id="Shape" fill="#FFC629"></path>
            <path d="M16.9,419.88 L20,419.88 C20.7665081,419.864081 21.3840812,419.246508 21.4,418.48 L15.6,418.48 C15.5837674,418.838826 15.7122743,419.189147 15.9566877,419.452361 C16.2011011,419.715576 16.5409561,419.869645 16.9,419.88 Z" id="Shape" fill="#FFC629"></path>
            <path d="M29.8,397.68 C29.7260619,397.566514 29.6067587,397.490444 29.4726731,397.471289 C29.3385875,397.452133 29.2027566,397.491756 29.1,397.58 L29.1,397.58 L24.9,400.68 L13.1,409.48 L7.4,413.78 C7.29160243,413.857858 7.21965316,413.976563 7.20077888,414.108683 C7.18190461,414.240803 7.2177386,414.374905 7.3,414.48 C7.39639239,414.603525 7.54334442,414.677001 7.7,414.68 C7.80992511,414.693232 7.91999883,414.65654 8,414.58 L13.5,410.48 L25.3,401.68 L29.6,398.48 C29.8391972,398.288788 29.9210743,397.96128 29.8,397.68 L29.8,397.68 Z" id="Shape" fill="#FFC629"></path>
        </g>
        <g id="Artboard"></g>
    </g>
</svg>