<?xml version="1.0" encoding="UTF-8"?>
<svg width="37px" height="38px" viewBox="0 0 37 38" version="1.1" xmlns="http://www.w3.org/2000/svg" xmlns:xlink="http://www.w3.org/1999/xlink">
    <!-- Generator: Sketch 47.1 (45422) - http://www.bohemiancoding.com/sketch -->
    <title>Artboard</title>
    <desc>Created with Sketch.</desc>
    <defs></defs>
    <g id="Page-1" stroke="none" stroke-width="1" fill="none" fill-rule="evenodd">
        <g id="warehouses" transform="translate(-299.000000, -388.000000)" fill-rule="nonzero">
            <circle id="Oval" fill="#FFFFFF" cx="317.5" cy="407.28" r="18.4"></circle>
            <path d="M312.8,407.28 C312.870213,407.112323 313.009432,406.983147 313.181887,406.925661 C313.354343,406.868176 313.543224,406.887986 313.7,406.98 L313.8,406.98 C314.1,407.18 314,407.58 313.9,407.88 C313.8,408.18 313.8,408.18 313.8,408.28 L321,403 C319.905464,401.410339 318.999386,399.698858 318.3,397.9 C318.2,397.6 317.9,396 317.3,396.6 C316.999936,397.017123 316.795114,397.495041 316.7,398 C316.49434,398.593419 316.226166,399.163289 315.9,399.7 C315.3,400.7 314.7,401.8 314.1,402.8 C313.2,404.2 312.3,405.7 311.4,407.3 C310.811398,408.372796 310.501915,409.576342 310.5,410.8 L312,409.6 C312.125898,408.785077 312.396849,407.999318 312.8,407.28 L312.8,407.28 Z" id="Shape" fill="#FFC629"></path>
            <path d="M322.6,405.38 L313.3,412.28 C313.809553,413.604906 314.813341,414.680393 316.1,415.28 C316.235986,415.328752 316.345563,415.431876 316.402469,415.564656 C316.459375,415.697437 316.458481,415.847905 316.4,415.98 L316.4,415.98 C316.2,416.58 315.4,416.28 315,416.08 C313.735726,415.431191 312.769109,414.321371 312.3,412.98 L311.1,413.88 C311.881342,415.590262 313.317881,416.914276 315.086061,417.553831 C316.854241,418.193385 318.805374,418.094699 320.5,417.28 C322.601125,416.30216 324.093826,414.361649 324.5,412.08 C324.799509,410.327072 324.481414,408.52453 323.6,406.98 C323.3,406.48 322.9,406 322.6,405.38 Z" id="Shape" fill="#FFC629"></path>
            <path d="M328.8,398.88 C328.722142,398.771602 328.603437,398.699653 328.471317,398.680779 C328.339197,398.661905 328.205095,398.697739 328.1,398.78 L328.1,398.78 L321.5,403.68 L313.3,409.78 L311.9,410.78 L310.5,411.78 L310.5,411.78 L306.3,414.88 C306.191602,414.957858 306.119653,415.076563 306.100779,415.208683 C306.081905,415.340803 306.117739,415.474905 306.2,415.58 C306.296392,415.703525 306.443344,415.777001 306.6,415.78 C306.709925,415.793232 306.819999,415.75654 306.9,415.68 L310.7,412.88 L312,411.98 L313.1,411.18 L322,404.58 L328.6,399.68 C328.85617,399.500061 328.941355,399.15932 328.8,398.88 L328.8,398.88 Z" id="Shape" fill="#FFC629"></path>
        </g>
        <g id="Artboard"></g>
    </g>
</svg>