
<svg width="926px" height="411px" viewBox="0 0 926 411" version="1.1" xmlns="http://www.w3.org/2000/svg" xmlns:xlink="http://www.w3.org/1999/xlink">
    <!-- Generator: Sketch 49.1 (51147) - http://www.bohemiancoding.com/sketch -->
    <desc>Created with Sketch.</desc>
    <defs>
        <polygon id="path-1" points="0.137931051 0.30277 167.188188 0.30277 167.188188 33.3523272 0.137931051 33.3523272"></polygon>
        <polygon id="path-3" points="0 125 339.793939 125 339.793939 0.240384615 0 0.240384615"></polygon>
        <polygon id="path-5" points="2.00824613e-05 6.03e-05 192.866556 6.03e-05 192.866556 201 2.00824613e-05 201"></polygon>
        <polygon id="path-7" points="0.0354244122 0.153141316 177.150425 0.153141316 177.150425 127.366618 0.0354244122 127.366618"></polygon>
        <polygon id="path-9" points="0 0.181350857 134.878439 0.181350857 134.878439 52.9999394 0 52.9999394"></polygon>
        <polygon id="path-11" points="0.228306017 0.2649 165 0.2649 165 53.8965765 0.228306017 53.8965765"></polygon>
        <polygon id="path-13" points="0.537277647 0.853028571 34.8161865 0.853028571 34.8161865 38.8571429 0.537277647 38.8571429"></polygon>
        <polygon id="path-15" points="0.601920294 0.853028571 11.3965559 0.853028571 11.3965559 11.7227429 0.601920294 11.7227429"></polygon>
        <polygon id="path-17" points="0.00017826087 0.00594405594 81.8308304 0.00594405594 81.8308304 139.13115 0.00017826087 139.13115"></polygon>
        <polygon id="path-19" points="0.413149275 0.00594405594 82.246 0.00594405594 82.246 139.13115 0.413149275 139.13115"></polygon>
    </defs>
    <g id="Mockups" stroke="none" stroke-width="1" fill="none" fill-rule="evenodd">
        <g id="Desktop-HD" transform="translate(-272.000000, -3205.000000)">
            <g id="Commitments" transform="translate(49.000000, 3015.000000)">
                <g id="Logos" transform="translate(223.000000, 190.000000)">
                    <g id="sonic-logo" transform="translate(647.000000, 244.000000)">
                        <g id="Page-1">
                            <path d="M162.856393,70.1765375 C163.857791,62.3545225 164.877608,54.3598875 165.906975,46.3659375 C166.289662,43.3930375 166.673713,40.4194525 167.11984,37.4547725 C167.175095,37.0855575 167.609625,36.4834425 167.875664,36.4800175 C172.102958,36.4183675 176.330933,36.4361775 180.734904,36.4361775 C180.273087,39.8824125 179.854928,43.0293025 179.429948,46.1748225 C178.322134,54.3674225 177.213637,62.5600225 176.101048,70.7519375 C175.340449,76.3572925 174.547107,81.9585375 173.833576,87.5707425 C173.715564,88.4968625 173.307637,88.6626325 172.523163,88.6530425 C168.714029,88.6030375 164.904212,88.6098875 161.096442,88.5146725 C160.640082,88.5030275 160.012503,88.0968225 159.77375,87.6906175 C154.657613,78.9828975 149.515554,70.2888775 144.553584,61.4927925 C143.219977,59.1288575 142.461425,56.4381775 141.330417,53.6317325 C141.149647,56.2655575 141.095075,58.6582625 140.802432,61.0208275 C139.927914,68.0742725 138.961305,75.1153875 138.028122,82.1612975 C137.793461,83.9347625 137.584041,85.7130225 137.279119,87.4748425 C137.218408,87.8283025 136.77842,88.3872625 136.507606,88.3906875 C132.276219,88.4489125 128.043469,88.4311025 123.612212,88.4311025 C125.971092,70.9855225 128.301322,53.7564025 130.647241,36.4080925 C131.094733,36.3731575 131.512892,36.3135625 131.930368,36.3135625 C135.595569,36.3176725 139.260769,36.3574025 142.92597,36.3252075 C143.783434,36.3176725 144.323016,36.5245425 144.782104,37.3157175 C149.753625,45.8850675 154.82474,54.3968775 159.725317,63.0059575 C161.050056,65.3322175 161.892513,67.9352175 162.856393,70.1765375" id="Fill-1" fill="#A7A7A7"></path>
                            <path d="M89.6556609,77.5001465 C90.6584237,77.3857515 91.6877905,77.3789015 92.6605386,77.1391515 C99.6566853,75.4129515 103.641815,70.6974115 105.378573,63.9001565 C106.283788,60.3587065 106.262641,56.8035565 104.710064,53.3902015 C101.709962,46.7915965 93.7233308,44.4667065 86.8008565,48.2225615 C79.7208051,52.0633565 76.8421254,59.6230165 77.5147269,66.3860215 C78.2132501,73.4127515 82.8532452,77.4761715 89.6556609,77.5001465 M62.5278565,63.5350515 C62.9903553,53.0353715 69.3193577,44.0502265 80.0850741,38.1325115 C88.234057,33.6532965 96.8810105,32.7381365 105.731927,36.0836765 C116.094492,40.0011915 122.028529,50.5447115 120.679233,61.5417015 C118.75693,77.2213515 104.592052,88.5334415 90.7511963,89.6451965 C80.6369347,90.4576065 72.2491988,87.2531765 66.3028834,78.6927315 C63.6813748,74.9183815 62.4930667,70.5542465 62.5278565,63.5350515" id="Fill-3" fill="#A7A7A7"></path>
                            <path d="M59.5810298,39.1380915 C57.5236606,42.6870765 55.5645213,46.0668665 53.5126093,49.6069465 C53.0084993,49.1740265 52.5985262,48.7993315 52.1653599,48.4540915 C49.1413819,46.0367265 45.802932,44.5653465 41.8682817,45.4640665 C40.7952572,45.7092965 39.6819858,46.3182615 38.8715897,47.0703915 C36.6539149,49.1288165 37.0713917,52.2441965 39.7788513,53.5539165 C41.716844,54.4916815 43.8431105,55.0280365 45.8547756,55.8226365 C47.9558024,56.6528565 50.0725188,57.4700615 52.0869125,58.4831765 C55.5638391,60.2326665 57.1450665,63.3377715 57.399509,67.0703365 C58.2508342,79.5592565 49.5076973,89.3896915 37.0420592,90.2349815 C29.508377,90.7459915 22.9467609,88.8053865 17.6136998,83.2246915 C16.8073966,82.3821415 16.7910249,81.8389365 17.4922768,80.9381615 C19.9200543,77.8179865 22.2646093,74.6320515 24.7019369,71.3906315 C25.8800127,72.6900765 26.9141545,73.9470515 28.068355,75.0814115 C30.6182377,77.5837165 33.5985579,79.0660565 37.2862694,78.8016465 C40.6724699,78.5584715 43.2434993,76.2246765 43.6057218,72.9387315 C43.8151423,71.0371715 43.2353134,69.4198865 41.4624015,68.5615815 C39.7358758,67.7258815 37.9118024,67.0908865 36.1197902,66.3949265 C34.3714357,65.7167765 32.5575946,65.1852165 30.8638122,64.3926715 C24.7258122,61.5204665 22.6609394,57.1638665 23.8799443,50.4597715 C25.8254406,39.7552765 35.5658831,32.8819865 46.8500347,34.1691015 C50.7382988,34.6129815 54.3987242,35.6603465 57.705113,37.8064515 C58.3060885,38.1969015 58.8763672,38.6359865 59.5810298,39.1380915" id="Fill-5" fill="#A7A7A7"></path>
                            <path d="M251.846478,53.2321035 C251.192295,52.4347635 250.804833,51.9497835 250.40441,51.4764485 C245.756911,45.9772685 238.325552,44.9045585 232.296696,48.8597485 C226.461571,52.6875285 223.142222,61.0753535 224.792346,67.8239735 C226.434967,74.5445085 233.199183,78.2510435 240.245126,75.9556085 C242.698826,75.1562135 244.872843,73.4745385 247.146454,72.1470085 C247.754933,71.7921785 248.257679,71.2558235 249.113779,70.5536985 C248.846376,72.4730685 248.64173,74.0595285 248.400931,75.6405085 C247.937068,78.6983485 247.413175,81.7472835 246.995699,84.8112885 C246.834711,85.9881185 246.36539,86.6203735 245.198229,87.0683635 C238.410821,89.6672535 231.481525,90.4899385 224.561097,88.0650385 C216.568327,85.2633885 211.712772,79.3004635 210.323229,71.0263485 C207.713999,55.4891785 216.335031,40.6253635 230.590635,35.3111335 C238.257337,32.4533135 245.928813,33.0280285 253.266036,36.7914185 C253.701931,37.0147285 254.23742,37.7243885 254.180119,38.1299085 C253.481596,43.0461535 252.68075,47.9473285 251.846478,53.2321035" id="Fill-7" fill="#A7A7A7"></path>
                            <g id="Group-11" transform="translate(111.190709, 0.382230)">
                                <mask id="mask-2" fill="white">
                                    <use xlink:href="#path-1"></use>
                                </mask>
                                <g id="Clip-10"></g>
                                <path d="M144.041902,28.965225 C147.363298,25.258005 150.600789,21.67751 153.800762,18.06345 C156.010933,15.566625 158.173354,13.026645 160.344643,10.496255 C160.65775,10.13115 160.919014,9.71741 161.176185,9.308465 C162.841317,6.662995 162.200777,5.210795 159.073794,5.28683 C155.040232,5.3841 150.950051,5.534115 146.999711,6.27734 C121.687794,11.036035 96.4004347,15.929675 71.1198968,20.847975 C49.9493222,24.96688 28.7998944,29.19059 7.63068411,33.313605 C6.89191394,33.457455 5.95122689,33.180715 5.25816088,32.81013 C3.57665721,31.91278 1.98656186,30.843495 0.137931051,29.70708 C4.39728557,28.86042 8.42948362,28.054175 12.4637281,27.258205 C31.4514176,23.512625 50.4384249,19.76499 69.4274787,16.026945 C88.8885814,12.19711 108.342863,8.32823 127.819655,4.576485 C135.334919,3.128395 142.880198,1.791275 150.456855,0.732265 C153.951518,0.24386 157.605804,0.143165 161.09842,0.580195 C166.539943,1.262455 168.711914,5.97868 166.060391,10.827795 C165.050806,12.67661 163.715154,14.38363 162.324929,15.976255 C158.128332,20.784955 153.819863,25.493645 149.592569,30.273575 C148.983408,30.962 148.518863,31.16887 147.663444,30.673615 C146.553584,30.032455 145.3414,29.56734 144.041902,28.965225" id="Fill-9" fill="#A7A7A7" mask="url(#mask-2)"></path>
                            </g>
                            <path d="M245.126876,95.173626 C246.88137,94.553701 248.459187,93.996111 250.134551,93.404271 C250.412869,93.872126 250.694597,94.309156 250.940854,94.766736 C253.825673,100.129601 256.760971,105.466436 259.548925,110.879991 C260.32726,112.393156 261.01214,114.107026 261.144478,115.776371 C261.675191,122.468821 257.363311,127.122711 250.352157,126.968586 C246.010262,126.872686 241.642446,126.078771 237.365355,125.204711 C218.077519,121.264591 198.819015,117.179936 179.548233,113.155561 C157.073385,108.461256 134.597172,103.777226 112.121641,99.084291 C107.740182,98.169816 103.362133,97.236161 98.9834017,96.307986 C98.818321,96.273051 98.6586976,96.212771 98.5761572,96.187426 C101.048275,95.073616 103.525849,93.941311 106.023206,92.853531 C106.293338,92.735026 106.682847,92.832296 107.003458,92.899426 C127.87525,97.262876 148.74636,101.631121 169.616788,106.004846 C190.109986,110.298426 210.599091,114.611871 231.097064,118.884901 C236.325756,119.974736 241.56127,121.048131 246.830209,121.911916 C248.689072,122.216741 250.701419,122.122211 252.558235,121.762586 C255.452605,121.202256 256.834644,118.688306 256.07268,115.811306 C255.816874,114.844771 255.365971,113.910431 254.885737,113.026096 C251.683035,107.124136 248.448272,101.240671 245.126876,95.173626" id="Fill-12" fill="#A7A7A7"></path>
                            <path d="M118.987838,20.830439 C114.658904,21.690114 110.773369,22.641579 106.831897,23.158754 C105.194733,23.374529 103.429325,22.703229 101.73486,22.370319 C80.6734298,18.226754 59.6222318,14.029074 38.549887,9.943049 C31.0380337,8.486739 23.48798,7.217434 15.9297403,6.028274 C13.3750826,5.626179 10.7412954,5.716599 8.1422978,5.626179 C7.62590905,5.607684 7.08905575,5.748109 6.58426357,5.893329 C5.02281858,6.343374 4.58828802,7.162634 5.38640538,8.593599 C6.15791883,9.975929 7.05494817,11.326064 8.09795795,12.511799 C13.7175227,18.899424 19.3991633,25.230194 25.0582929,31.581514 C25.3775399,31.939769 25.6865545,32.306244 26.0371804,32.711764 C24.8434152,33.820094 23.6878504,34.892804 22.4067697,36.081964 C20.5526817,34.015319 18.6849506,31.945934 16.8294983,29.866274 C12.6144836,25.141829 8.38991883,20.424919 4.20287237,15.675814 C3.31130024,14.664754 2.4961291,13.570124 1.76076968,12.439189 C-2.12885868,6.459824 0.666598533,0.741444 7.78416822,0.703769 C12.6690557,0.677739 17.6351193,1.059284 22.4326914,1.963484 C50.3367844,7.224284 78.2019946,12.691954 106.078801,18.095234 C109.905672,18.837089 113.727085,19.606344 117.54918,20.372859 C117.903899,20.444784 118.244293,20.590689 118.987838,20.830439" id="Fill-14" fill="#A7A7A7"></path>
                            <path d="M184.466068,88.634068 C186.890435,71.085738 189.275919,53.823738 191.655946,36.596673 L205.421765,36.596673 C205.047264,39.394213 204.707553,42.010913 204.346694,44.623503 C203.135875,53.383968 201.91687,62.143748 200.704005,70.904213 C199.927716,76.504773 199.168482,82.108073 198.351946,87.703153 C198.302149,88.046338 197.819868,88.590913 197.532,88.593653 C193.254227,88.651193 188.974408,88.634068 184.466068,88.634068" id="Fill-16" fill="#A7A7A7"></path>
                            <path d="M71.5619993,93.7113565 C66.3032927,95.5526365 61.3604222,97.2808915 56.4189161,99.0118865 C44.1988526,103.294506 31.9849284,107.593567 19.756679,111.850842 C16.3315958,113.043427 12.8307939,113.878442 9.15604328,113.777747 C2.19809707,113.586632 -1.33817677,108.888902 0.874040831,102.256046 C1.70763007,99.7544265 3.24110685,97.3987115 4.84143447,95.2683615 C6.83127066,92.6215215 9.22016553,90.2760815 11.4644443,87.7696665 C12.4828966,88.8053865 13.3908403,89.7294515 14.433168,90.7898315 C12.8362511,92.5564465 11.1670262,94.2826465 9.6390066,96.1273515 C8.22627066,97.8330015 6.8053489,99.5708465 5.69548826,101.475147 C4.99491858,102.678007 4.67021443,104.191171 4.51331956,105.602272 C4.28411663,107.671656 5.32712641,108.888216 7.35925599,109.310177 C10.7399993,110.012302 14.0054589,109.270447 17.1535885,108.196367 C28.8149699,104.216516 40.438833,100.127752 52.0770213,96.0787165 C56.7593098,94.4497865 61.4470555,92.8366115 66.1163831,91.1672665 C66.9711191,90.8617565 67.6068844,90.8699765 68.3408795,91.4851065 C69.252234,92.2481965 70.2979724,92.8509965 71.5619993,93.7113565" id="Fill-18" fill="#A7A7A7"></path>
                            <path d="M258.746646,135.618081 C260.014766,134.585786 260.252837,133.274011 259.382412,132.107456 C258.634091,131.105986 257.202937,130.866236 256.161292,131.566991 C255.071214,132.300626 254.783346,133.907636 255.538488,135.039256 C256.282033,136.153751 257.459426,136.348976 258.783483,135.577666 L258.746646,135.618081 Z M257.492852,136.696956 C255.707661,136.694216 254.384969,135.358466 254.404069,133.577466 C254.421123,131.877981 255.734947,130.556616 257.433505,130.530586 C259.181177,130.503871 260.600734,131.868391 260.616424,133.589796 C260.632796,135.318736 259.243935,136.700381 257.492852,136.696956 Z" id="Fill-20" fill="#A7A7A7"></path>
                            <path d="M258.783278,135.57794 C257.459904,136.34925 256.281828,136.154025 255.538283,135.03953 C254.783823,133.90791 255.071691,132.3009 256.161087,131.567265 C257.203415,130.865825 258.633887,131.10626 259.382207,132.10773 C260.252633,133.274285 260.015244,134.58606 258.74917,135.61493 C258.801014,134.72306 258.027454,133.80105 258.859679,132.90507 C258.904701,132.856435 258.361026,131.974155 258.002897,131.898805 C257.480368,131.78852 256.41553,131.98443 256.386197,132.175545 C256.224527,133.21743 256.309114,134.29699 256.309114,135.36422 C256.447591,135.359425 256.586068,135.355315 256.724544,135.35052 C256.845967,134.88883 256.968073,134.426455 257.126332,133.82434 C257.76619,134.501805 258.274393,135.03953 258.783278,135.57794" id="Fill-22" fill="#A7A7A7"></path>
                            <path d="M258.783278,135.57794 C258.274393,135.03953 257.76619,134.501805 257.126332,133.82434 C256.968073,134.426455 256.845967,134.88883 256.724544,135.35052 C256.586068,135.355315 256.447591,135.359425 256.309114,135.36422 C256.309114,134.29699 256.224527,133.21743 256.386197,132.175545 C256.41553,131.98443 257.480368,131.78852 258.002897,131.898805 C258.361026,131.974155 258.904701,132.856435 258.859679,132.90507 C258.027454,133.80105 258.801014,134.72306 258.74917,135.61493 C258.746442,135.618355 258.783278,135.57794 258.783278,135.57794" id="Fill-24" fill="#A7A7A7"></path>
                        </g>
                    </g>
                    <g id="chipotle-circle-logo" transform="translate(394.000000, 213.000000)">
                        <g id="chipotle-circle-orig">
                            <path d="M198,99 C198,153.648 153.6678,197.9406 99,197.9406 C44.3322,197.9406 0,153.648 0,99 C0,44.352 44.3322,0.0594 99,0.0594 C153.6678,0.0594 198,44.352 198,99 Z" id="Shape" fill="#A7A7A7" fill-rule="nonzero"></path>
                            <path d="M159.0138,99 C159.0138,132.165 132.1452,159.0534 99,159.0534 C65.8548,159.0534 38.9664,132.165 38.9664,99 C38.9664,65.835 65.8548,38.9466 99,38.9466 C132.1452,38.9466 159.0138,65.835 159.0138,99 Z" id="Shape" fill="#FFFFFF" fill-rule="nonzero"></path>
                            <path d="M154.5588,98.9802 C154.5588,129.6504 129.6702,154.539 99,154.539 C68.3298,154.539 43.4214,129.6702 43.4214,98.9802 C43.4214,68.2902 68.2902,43.4214 98.9802,43.4214 C129.6702,43.4214 154.5588,68.31 154.5588,98.9802 Z" id="Shape" fill="#A7A7A7" fill-rule="nonzero"></path>
                            <circle id="Oval" fill="#FFFFFF" fill-rule="nonzero" cx="20.1564" cy="100.2078" r="2.3562"></circle>
                            <circle id="Oval" fill="#FFFFFF" fill-rule="nonzero" cx="178.794" cy="100.2078" r="2.3562"></circle>
                            <path d="M122.8788,68.31 C122.8986,66.7656 121.1562,64.5678 120.4434,62.1918 C120.4434,62.1918 117.6318,62.271 114.7806,62.4888 C113.103153,62.5902124 111.489246,63.1670984 110.1276,64.152 C109.593,64.9044 108.2862,65.8746 108.2862,65.8746 C107.9892,66.2904 106.3656,67.7556 106.3656,67.7556 C106.397649,68.2644982 106.377746,68.775338 106.3062,69.2802 C106.1874,70.2108 105.5142,72.2898 105.5538,73.6362 C105.5736,74.6658 106.7814,75.8934 106.7814,75.8934 C108.5634,76.1508 112.365,76.2102 112.365,76.2102 C112.209243,76.8673781 111.997262,77.5099451 111.7314,78.1308 C111.3156,79.0416 108.6624,79.4178 108.6624,79.4178 C108.6624,79.4178 109.9296,81.5562 110.3256,82.5462 C110.7216,83.5362 112.0482,84.4668 112.0482,84.4668 C114.246,88.3278 115.4736,90.486 115.4736,92.5848 C115.4736,94.6836 114.1668,97.119 114.1668,97.119 C114.1668,98.6436 113.1372,100.386 112.2066,101.7324 C111.276,103.0788 110.6226,104.049 110.1672,104.9796 C109.7118,105.9102 108.8802,107.2566 108.3456,108.1872 C107.780687,109.106874 107.048694,109.912738 106.1874,110.5632 C105.633,110.9394 105.6528,111.2562 105.6528,111.2562 C105.6528,111.2562 107.4942,113.5926 107.4942,114.6816 C107.4942,115.2756 107.2566,115.5924 107.2566,116.6418 C107.2566,118.503 107.9892,119.1366 107.9892,119.1366 C108.9594,118.9386 109.2168,119.3346 109.8108,119.7306 C110.8008,120.2652 112.5036,121.3344 113.058,121.6512 C113.6124,121.968 117.6516,124.9776 118.5822,125.631 C119.5128,126.2844 120.6612,126.2646 121.6314,126.8586 C122.2254,127.2744 123.9084,127.2348 123.9084,129.0168 C123.9084,130.4226 121.8294,133.9272 120.7008,135.333 C120.1464,136.0854 119.1564,136.3626 119.1564,136.3626 C117.4536,138.3228 116.9982,138.2634 116.9982,138.2634 C116.3844,138.2436 115.533,138.4416 114.741,138.5604 C113.256,138.8574 112.0878,138.4416 110.979,138.5802 C109.8702,138.7188 108.7218,138.6594 107.9298,138.6 C107.1378,138.5406 103.6332,138.7386 101.3166,138.7782 C99,138.8178 99.2772,138.7782 98.0694,138.5802 C96.8616,138.3822 95.9904,137.8278 95.4756,137.7882 C94.9608,137.7486 93.6144,137.8674 92.6046,137.3526 C91.5948,136.8378 90.1692,136.3824 88.5654,136.1448 C86.9616,135.9072 86.5854,135.8478 85.932,134.6202 C85.2786,133.3926 82.3086,128.5614 77.6358,122.463 C72.963,116.3646 70.6266,112.4838 70.1712,111.1176 C69.7158,109.7514 68.9238,105.237 68.8842,102.5244 C68.8446,99.8118 68.805,96.5844 68.805,93.5748 C68.805,90.5652 69.5574,90.0306 69.6762,89.0208 C69.8148,86.922 70.29,86.4468 70.4088,85.6548 C70.3391417,84.9462728 70.4201133,84.231024 70.6464,83.556 C71.8146,82.6254 75.0024,78.4476 77.6952,76.7052 C79.9128,75.0618 84.0312,75.7944 87.0804,74.8836 C85.7142,73.2996 83.7738,72.7254 82.1304,72.7254 C80.487,72.7254 79.7544,73.26 79.6158,72.9234 C79.4772,72.5868 80.9028,72.171 81.378,71.577 C81.8532,70.983 82.863,70.8246 83.9718,70.0524 C85.921955,70.4663193 87.8459157,70.9952433 89.7336,71.6364 C92.2482,72.5472 93.2382,72.27 93.2382,72.27 C101.8314,64.647 109.1376,59.2614 109.1376,59.2614 C112.563,58.509 119.3148,57.915 119.3148,57.915 C119.996374,58.221026 120.727387,58.4021027 121.473,58.4496 C122.76,58.5288 122.8788,59.1228 122.8788,59.1228 C123.4926,60.2316 123.9876,60.3306 124.344,60.8454 C125.0766,62.1522 127.1754,63.6174 127.1754,65.3202 C127.1754,67.8348 125.928,71.7156 125.928,71.7156 C124.937005,71.8541224 123.938635,71.933463 122.9382,71.9532 L120.5622,71.9532 C119.5128,71.9532 119.4732,71.5374 119.4732,71.5374 C119.4732,71.5374 121.9482,69.894 122.8788,68.31 Z M103.356,80.5464 C101.277,81.18 100.9602,83.3184 98.307,83.358 C95.6538,83.3976 94.2084,83.2788 93.9312,82.1502 C93.654,81.0216 93.5154,80.8434 92.5848,80.1108 C80.8236,80.1108 76.2498,81.9522 74.25,88.3476 C74.25,88.3476 74.3688,89.1594 74.0124,90.8226 C73.656,92.4858 73.4184,96.228 73.3788,98.2278 C73.3392,100.2276 73.3194,108.9792 73.3194,108.9792 C73.3194,108.9792 81.774,121.869 86.3874,127.6308 C87.3774,129.0564 89.2782,131.8482 92.268,132.2838 C95.2578,132.7194 97.8912,132.6402 101.475,132.9768 C105.0588,133.3134 110.6226,133.155 114.543,130.1652 C114.547752,129.821097 114.797672,129.529523 115.137,129.4722 L113.0382,127.8684 C111.672,126.819 110.6424,125.9676 109.9098,125.6112 C109.1772,125.2548 108.6228,125.1954 108.2466,124.5024 C107.8704,123.8094 106.8804,123.0966 106.2072,123.1956 C105.534,123.2946 104.544,123.6312 104.5638,122.7798 C104.5836,121.9284 104.445,120.186 104.4846,118.9782 C104.5242,117.7704 104.8014,115.8696 104.247,115.2954 C103.6926,114.7212 103.158,114.6024 102.96,113.5728 C102.762,112.5432 102.366,110.1474 102.8214,109.5336 C103.2768,108.9198 104.6034,106.8408 105.2172,105.6726 C105.831,104.5044 110.979,98.505 110.979,93.852 C110.979,89.199 105.5142,83.16 103.356,80.5464 Z" id="Shape" fill="#FFFFFF" fill-rule="nonzero"></path>
                            <path d="M86.1696,121.7502 C86.1696,121.7502 86.4864,121.3146 86.823,121.6908 C86.9766868,121.884882 87.1732174,122.040751 87.3972,122.1462 C87.3972,122.1462 87.5358,121.3146 85.9716,119.4138 C85.6625994,119.010258 85.3908836,118.579489 85.1598,118.1268 C84.9024,117.5526 84.4272,116.919 83.8728,116.0082 C83.3184,115.0974 83.259,114.8796 82.8828,113.3946 C82.5066,111.9096 81.0612,108.9198 81.0612,108.9198 C81.0016493,108.466377 80.9157034,108.016814 80.8038,107.5734 C80.6058,106.7814 80.0712,105.1182 80.0712,103.7322 C80.0712,102.3462 80.2098,100.5246 80.2098,98.7822 C80.2098,97.0398 80.1306,95.6934 80.388,95.1192 C80.6454,94.545 80.586,93.2976 80.7642,92.9412 C80.9424,92.5848 82.269,90.9414 82.269,90.9414 C82.269,90.9414 82.7046,90.9216 84.0312,90.585 C85.3578,90.2484 89.7336,89.0406 91.7334,89.0406 C93.7332,89.0406 97.1586,89.7732 98.0892,89.8524 C99.0198,89.9316 99.99,90.6246 100.9206,91.3374 C101.8512,92.0502 102.6828,92.5848 102.6828,92.5848 C102.6828,92.5848 102.8214,92.9412 102.4848,93.5352 C102.1482,94.1292 101.871,94.7034 101.8116,95.1192 C101.8116,95.1192 100.7028,97.3962 99.9306,98.7624 C99.3182631,99.7844932 98.826576,100.874178 98.4654,102.0096 C98.4654,102.0096 97.7328,103.4352 97.0398,104.9994 C96.3468,106.5636 96.0498,107.5338 95.5746,108.4842 C95.4558,108.702 95.2578,110.0088 95.5746,112.1472 C95.8914,114.2856 95.8518,114.1272 96.1686,115.0776 C96.4854,116.028 97.416,120.3642 100.0296,125.532 C100.0296,125.532 99.7326,125.7894 99.1188,125.5518 C98.1684,125.2152 98.2476,124.7598 97.5744,124.3044 C96.7957499,123.857918 96.1154993,123.258489 95.5746,122.5422 C94.5648,121.4928 94.3272,120.4236 93.6144,119.9286 C93.4883764,119.274712 93.289121,118.637095 93.0204,118.0278 C92.5254,116.8398 91.0206,114.4044 90.4068,113.2164 C89.793,112.0284 88.6446,110.0484 87.7932,108.5832 C86.9418,107.118 86.9022,106.8012 86.9022,105.2964 C87.0408,102.9798 86.7834,102.0294 86.7834,100.9008 C86.7834,99.7722 86.8626,99.0792 87.12,98.3268 C87.3774,97.5744 87.1794,96.2676 88.605,95.9706 C89.2319525,95.928809 89.8613618,95.9420597 90.486,96.0102 C91.1900678,96.0789549 91.8984546,96.0921958 92.6046,96.0498 C92.6046,96.0498 94.8024,97.0992 94.6836,97.8714 C94.5648,98.6436 94.3668,99.5148 94.4064,100.584 C94.3765931,101.002759 94.2691666,101.412322 94.0896,101.7918 C93.7926,102.4254 92.367,105.2766 92.367,105.2766 L92.367,103.455 C92.367,102.7224 91.6344,101.97 90.9414,101.97 C90.2484,101.97 89.4564,102.2274 88.9812,104.0688 C88.9812,104.0688 88.803,104.3262 89.2584,106.1874 C89.7138,108.0486 90.4068,109.4148 92.0106,109.4148 C93.6144,109.4148 93.9708,107.712 94.0104,106.9992 C94.05,106.2864 94.5054,105.3756 94.7232,104.9202 C94.941,104.4648 95.6736,102.7818 96.1686,101.772 C96.6636,100.7622 97.416,98.8218 97.416,97.9902 C97.416,95.931 95.7132,92.7234 93.456,92.7234 C91.1988,92.7234 89.793,92.7036 88.4466,93.0402 C87.1002,93.3768 85.5162,93.753 84.9222,93.8718 C84.3282,93.9906 84.2094,94.5846 83.9718,96.2082 C83.7342,97.8318 83.457,98.6436 83.457,99.693 C83.457,100.7424 83.5362,101.0196 83.4768,101.5344 C83.4174,102.0492 83.1006,102.663 83.1006,103.95 C83.1006,105.237 83.3382,105.831 83.9322,107.0982 C84.1104,107.5338 84.1896,108.3258 85.0014,109.2762 C85.5172905,110.118049 85.9674276,110.998464 86.3478,111.9096 C86.7976565,113.024236 87.4116442,114.065346 88.1694,114.9984 C88.8822,115.929 89.4366,118.3842 91.377,120.7008 C91.674,121.1364 92.4462,122.562 93.06,123.354 C93.6738,124.146 93.8124,124.5222 95.4162,125.7696 C96.0102,126.2646 96.2478,126.7794 96.7824,127.314 C97.317,127.8486 101.0394,129.9474 103.2966,129.9474 C105.5538,129.9474 106.0488,128.8386 105.138,128.007 C104.2272,127.1754 103.0986,126.126 102.4452,124.5618 C101.7918,122.9976 101.1186,120.7998 100.683,119.9088 C100.066517,118.719905 99.5882016,117.464326 99.2574,116.1666 C98.7822,114.3648 98.4456,112.761 98.4456,110.9394 C98.4456,109.1178 98.6634,107.5536 99.8712,105.6924 C101.4156,103.455 101.7522,102.1284 101.7522,102.1284 C101.7522,102.1284 102.762,101.0592 102.9996,99.6534 C104.9202,98.1288 107.217,93.456 107.217,92.4858 C107.217,91.5156 106.3854,91.3968 106.0884,90.585 C105.7914,89.7732 104.3262,89.1 103.9698,88.4664 C103.6134,87.8328 102.6036,86.0112 101.2572,86.0112 C99.9108,86.0112 100.4652,87.2982 98.6634,87.2982 C96.8616,87.2982 94.3866,87.2388 89.3772,85.437 C89.3772,85.437 88.7832,85.239 87.4368,85.6152 C86.0904,85.9914 83.8728,86.0508 81.7542,86.229 C79.6356,86.4072 78.2496,87.3576 78.0516,89.4366 C77.8536,91.5156 76.7844,94.7034 76.7844,97.8912 L76.7844,105.9894 C76.7844,109.0782 79.1208,112.0878 79.4178,113.058 C79.4178,113.058 80.586,114.7806 82.5264,117.3942 C83.6310845,118.934547 84.8488459,120.390566 86.1696,121.7502 Z" id="Shape" fill="#FFFFFF" fill-rule="nonzero"></path>
                            <path d="M25.3242,61.6572 L23.3046,57.222 C18.1566,58.6872 14.949,64.4094 14.949,68.805 C14.949,75.6756 20.6118,80.586 27.1656,80.586 C34.6302,80.586 38.9862,73.854 38.9862,68.6268 C38.9862,65.637 37.9368,63.7758 37.9368,63.7758 L33.6006,65.3598 C33.6006,65.3598 34.2342,67.1418 34.2342,68.8446 C34.2342,72.6462 30.8682,75.4776 27.4824,75.4776 C24.0966,75.4776 19.8,72.9432 19.8,68.5476 C19.8,64.152 23.6808,62.271 25.3242,61.6572 Z" id="Shape" fill="#FFFFFF" fill-rule="nonzero"></path>
                            <polygon id="Shape" fill="#FFFFFF" fill-rule="nonzero" points="31.1058 40.3722 27.5418 44.055 44.154 60.0336 47.6586 56.3508 41.6394 50.5098 48.9654 43.3818 55.143 49.0842 57.8358 45.7182 41.58 29.7792 38.3922 32.7294 45.936 40.4316 38.6694 47.9358"></polygon>
                            <polygon id="Shape" fill="#FFFFFF" fill-rule="nonzero" points="58.8456 18.4932 55.0242 20.5524 65.8152 40.887 69.6762 38.808"></polygon>
                            <path d="M81.2988,34.7292 L76.824,35.4816 L72.3294,13.0086 C72.3294,13.0086 83.1204,10.9296 84.249,10.9296 C89.6346,10.9296 92.664,14.6916 92.664,18.9684 C92.664,23.2452 89.2386,25.7202 85.3578,26.5914 L80.0118,27.7992 L81.2988,34.7292 Z M82.0314,15.7608 L78.408,16.4142 L79.8138,23.166 L83.5758,22.4334 C86.229,21.8988 87.3774,20.6118 87.3774,18.9288 C87.3774,17.2458 86.328,14.9292 82.0314,15.741 L82.0314,15.7608 Z" id="Shape" fill="#FFFFFF" fill-rule="nonzero"></path>
                            <path d="M126.324,22.7898 C126.324,28.9278 121.7106,34.5114 114.741,34.5114 C107.7714,34.5114 101.2572,29.1852 101.2572,21.879 C101.2572,17.1072 104.445,10.0386 113.0184,10.0386 C119.889,10.0386 126.324,15.3648 126.324,22.7898 Z M113.5728,14.8698 C108.108,14.8698 106.7022,19.8198 106.7022,22.275 C106.7022,26.433 110.1276,29.6802 114.2658,29.6802 C117.8892,29.6802 120.879,26.3736 120.879,22.2552 C120.879,18.1368 117.3744,14.8698 113.5926,14.8698 L113.5728,14.8698 Z" id="Shape" fill="#FFFFFF" fill-rule="nonzero"></path>
                            <polygon id="Shape" fill="#FFFFFF" fill-rule="nonzero" points="154.143 26.8884 137.412 16.9488 135.1944 20.3148 142.0056 24.354 132.1452 40.491 136.0854 42.7878 146.124 26.6508 151.7868 30.2742"></polygon>
                            <polygon id="Shape" fill="#FFFFFF" fill-rule="nonzero" points="166.7556 38.9664 163.6272 35.3628 146.2626 50.6484 156.717 62.9442 160.3602 60.192 152.3214 51.1038"></polygon>
                            <polygon id="Shape" fill="#FFFFFF" fill-rule="nonzero" points="183.4074 76.4676 187.1694 75.1014 180.9522 59.3208 159.3108 67.32 165.627 83.5164 169.6068 82.0908 164.6568 70.2504 168.6168 68.706 172.2402 77.913 176.2398 76.527 172.6362 67.3596 178.695 64.9836"></polygon>
                            <polygon id="Shape" fill="#FFFFFF" fill-rule="nonzero" points="19.0278 125.6904 26.7894 122.76 22.8888 128.0268 29.304 129.4722 21.5424 132.4224 22.5522 135.135 34.5114 130.581 33.462 127.6902 27.2448 126.4428 31.0662 121.4532 29.9574 118.5822 18.0576 123.0768"></polygon>
                            <polygon id="Shape" fill="#FFFFFF" fill-rule="nonzero" points="41.0058 145.6686 43.065 144.2232 37.62 136.2636 27.1062 143.4312 32.571 151.5096 34.65 150.1236 30.789 144.342 32.9076 142.857 36.2934 147.807 38.4318 146.4012 35.046 141.4314 37.125 140.0058"></polygon>
                            <polygon id="Shape" fill="#FFFFFF" fill-rule="nonzero" points="49.1238 150.6186 46.7082 148.4406 45.5994 155.9646 37.9368 157.806 40.3524 159.9642 45.342 158.6574 44.5302 163.8252 47.0448 166.0428 48.1338 158.1624 55.4796 156.4398 53.064 154.2618 48.3318 155.5092"></polygon>
                            <polygon id="Shape" fill="#FFFFFF" fill-rule="nonzero" points="63.0234 161.8056 60.6474 160.3008 53.856 171.1512 56.2914 172.6758"></polygon>
                            <path d="M76.7448,171.9828 L79.1802,170.5572 C77.8536,168.4386 75.7548,166.6368 72.765,166.6368 C68.706,166.6368 66.1122,170.0622 66.1122,173.4084 C66.1122,177.606 69.7356,180.0414 73.0026,180.0414 C74.1337416,180.047628 75.2443251,179.739132 76.2102,179.1504 L75.1608,176.7546 C74.3977716,177.138005 73.5592864,177.347626 72.7056,177.3684 C71.379,177.3684 69.0624,176.2992 69.0624,173.5866 C69.0624,170.874 71.1612,169.3296 72.963,169.3296 C74.7648,169.3296 76.0914,170.6364 76.7448,171.9828 Z" id="Shape" fill="#FFFFFF" fill-rule="nonzero"></path>
                            <path d="M96.4854,184.4964 L93.5748,184.14 L92.7432,181.1304 L87.3774,180.477 L85.9122,183.249 L83.0214,182.8728 L89.9514,170.6958 L92.6046,171.072 L96.4854,184.4964 Z M90.8226,174.2598 L88.704,178.1406 L92.07,178.5564 L90.8226,174.2598 Z" id="Shape" fill="#FFFFFF" fill-rule="nonzero"></path>
                            <polygon id="Shape" fill="#FFFFFF" fill-rule="nonzero" points="106.227 171.2502 103.5738 171.5274 104.8608 184.239 107.6724 183.9222 106.8606 175.923 113.7906 183.3282 116.2062 183.15 114.8994 170.379 112.1076 170.6364 112.9194 178.4376"></polygon>
                            <path d="M135.1944,167.0526 L135.9666,164.2806 C135.9666,164.2806 135.2142,163.944 133.7886,163.944 C129.69,163.944 126.621,167.0922 126.621,170.6562 C126.621,174.2202 129.294,177.4674 133.056,177.4674 C136.818,177.4674 139.293,174.7548 140.2236,172.755 L137.9268,167.6664 L132.9174,169.884 L133.8876,172.161 L136.4616,170.973 L137.214,172.6362 C137.214,172.6362 135.7686,174.735 133.4322,174.735 C131.0958,174.735 129.5316,172.5768 129.5316,170.5176 C129.5316,168.4584 131.2344,166.6764 133.5312,166.6764 C134.104342,166.69596 134.668632,166.823597 135.1944,167.0526 Z" id="Shape" fill="#FFFFFF" fill-rule="nonzero"></path>
                            <path d="M148.896,154.242 C151.4106,154.242 153.0342,156.816 153.0342,158.3604 C153.0342,159.9048 152.3412,160.7562 152.3412,160.7562 L157.5882,162.4392 L154.9944,164.538 L150.3414,162.954 L148.6584,164.2806 L151.1136,167.508 L148.896,169.29 L141.075,159.1326 L145.7874,155.4498 C146.8566,154.6578 147.7674,154.242 148.896,154.242 Z M147.312,157.5486 L144.8766,159.4098 L147.0744,162.3006 L149.3712,160.4592 C149.3712,160.4592 150.3018,159.8058 150.3018,158.8752 C150.3018,157.9446 149.3316,157.0734 148.6188,157.0734 C148.139136,157.063017 147.672956,157.232537 147.312,157.5486 Z" id="Shape" fill="#FFFFFF" fill-rule="nonzero"></path>
                            <polygon id="Shape" fill="#FFFFFF" fill-rule="nonzero" points="155.9448 145.8468 154.1034 147.9456 163.7856 156.3012 165.6666 154.1232"></polygon>
                            <polygon id="Shape" fill="#FFFFFF" fill-rule="nonzero" points="161.7858 137.4714 160.3602 139.8474 171.3888 146.3814 176.0022 138.402 173.7846 137.1348 170.5968 142.5996"></polygon>
                            <polygon id="Shape" fill="#FFFFFF" fill-rule="nonzero" points="168.102 123.849 167.211 126.522 179.3286 130.5414 182.1798 121.7502 179.7642 120.978 177.7644 127.017"></polygon>
                        </g>
                    </g>
                    <g id="tgifriday-logo" transform="translate(0.000000, 249.000000)">
                        <g id="Page-1">
                            <polygon id="Fill-1" fill="#A7A7A7" points="70.9793814 84.7902098 70.9793814 41.958042 92.8865979 41.958042 92.8865979 51.3610683 80.4804831 51.3610683 80.4804831 58.7936075 92.2030654 58.7936075 92.2030654 67.9892142 80.4804831 67.9892142 80.4804831 84.7902098"></polygon>
                            <g id="Group-16">
                                <path d="M99.6302687,84.168956 L99.6302687,41.6208791 L109.864612,41.6208791 C113.871461,41.6208791 116.664612,41.8382555 118.24441,42.2733516 C119.759986,42.676511 121.159481,43.4292582 122.331279,44.4711538 C123.665178,45.6895604 124.689299,47.2081044 125.319158,48.9010989 C126.026632,50.8008242 126.375905,52.8152473 126.349461,54.842033 C126.349461,58.1387363 125.662592,60.8173077 124.288855,62.8777473 C122.915117,64.9381868 120.923198,66.3118132 118.313097,66.9986264 L128.100976,84.1346154 L117.04239,84.1346154 L108.799966,67.4793956 L108.799966,84.1346154 L99.6302687,84.168956 Z M108.799966,61.7445055 L110.620168,61.7445055 C112.726451,61.7445055 114.271905,61.3210852 115.256531,60.4739011 C116.241158,59.626717 116.733299,58.2874313 116.733299,56.456044 C116.733299,54.3269231 116.275501,52.8159341 115.359562,51.9230769 C114.443622,51.0302198 112.921178,50.5837912 110.791885,50.5837912 L108.834309,50.5837912 L108.799966,61.7445055 Z" id="Fill-2" fill="#A7A7A7"></path>
                                <mask id="mask-4" fill="white">
                                    <use xlink:href="#path-3"></use>
                                </mask>
                                <g id="Clip-5"></g>
                                <polygon id="Fill-4" fill="#A7A7A7" mask="url(#mask-4)" points="133.733333 84.1586538 143.624242 84.1586538 143.624242 41.6208791 133.733333 41.6208791"></polygon>
                                <path d="M153.171648,84.2031593 L153.171648,41.6207418 L160.658517,41.6207418 C166.245164,41.6207418 170.194315,41.9298077 172.507002,42.5479396 C174.748941,43.1303571 176.835648,44.1966346 178.620477,45.6729396 C180.93179,47.5987637 182.716275,50.0802198 183.805992,52.884478 C184.974012,55.8151099 185.557507,59.1574863 185.557507,62.9119505 C185.557507,66.6667582 184.974012,70.0091346 183.805992,72.9394231 C182.716275,75.7440247 180.93179,78.2254808 178.620477,80.1509615 C176.880982,81.5826236 174.855063,82.6248626 172.678719,83.2076236 C170.457729,83.8254121 167.000719,84.1348214 162.307002,84.1348214 L153.171648,84.1348214 L153.171648,84.2031593 Z M162.856497,74.656456 L164.504982,74.656456 C168.351446,74.656456 171.156275,73.7179258 172.919123,71.840522 C174.682315,69.9634615 175.563568,66.998489 175.563568,62.9466346 C175.563568,58.8714286 174.682315,55.8837912 172.919123,53.9833791 C171.156275,52.0833104 168.351446,51.1331044 164.504982,51.1331044 L162.856497,51.1331044 L162.856497,74.656456 Z" id="Fill-6" fill="#A7A7A7" mask="url(#mask-4)"></path>
                                <path d="M201.905119,68.2692995 L211.658311,68.2692995 L207.983907,54.2239698 C207.8692,53.7888736 207.708816,53.1020604 207.503099,52.1635302 L206.747543,48.4890797 L206.129362,51.476717 C205.923301,52.4152473 205.71724,53.3311126 205.51118,54.2239698 L201.905119,68.2692995 Z M188.167745,84.1690247 L200.565725,41.6209478 L212.826331,41.6209478 L225.258655,84.1690247 L215.539463,84.1690247 L213.718917,76.5453984 L199.809826,76.5453984 L197.955624,84.1690247 L188.167745,84.1690247 Z" id="Fill-7" fill="#A7A7A7" mask="url(#mask-4)"></path>
                                <path d="M234.909022,84.168956 L234.909022,64.7664835 L222.339325,41.6208791 L233.569972,41.6208791 L238.412053,52.5755495 L238.54977,52.8846154 C239.031265,53.9385302 239.38878,55.0446429 239.614073,56.1813187 C239.829749,55.0865385 240.187608,54.0243819 240.678719,53.021978 L240.88478,52.5755495 L245.658517,41.6208791 L256.923507,41.6208791 L244.353467,64.7664835 L244.353467,84.168956 L234.909022,84.168956 Z" id="Fill-8" fill="#A7A7A7" mask="url(#mask-4)"></path>
                                <path d="M261.765657,70.4326923 C263.231091,72.3787775 264.662182,73.8440934 266.058586,74.8282967 C267.28602,75.7293956 268.760384,76.2328297 270.282828,76.2706044 C271.482444,76.3166209 272.648747,75.8698489 273.511111,75.0343407 C274.355616,74.2036401 274.816162,73.0590659 274.781818,71.875 C274.781818,70.4553571 274.415374,69.3681319 273.682828,68.6126374 C272.949939,67.8571429 271.301798,67.0673077 268.737374,66.2431319 C265.211333,65.1212225 262.727273,63.65625 261.284848,61.8475275 C259.842424,60.0388049 259.109879,57.5662775 259.086869,54.4299451 C259.086869,50.354739 260.231535,47.0353709 262.521212,44.4711538 C264.810545,41.9069368 267.798424,40.625 271.484848,40.625 C273.403616,40.6201923 275.30899,40.9453984 277.117172,41.5865385 C278.949394,42.2438187 280.656606,43.2074176 282.165657,44.4368132 L279.143434,52.7472527 C278.149535,51.7132555 276.988384,50.8543956 275.709091,50.206044 C274.634141,49.6576236 273.447232,49.3636676 272.240404,49.3475275 C271.186747,49.2980769 270.154384,49.654533 269.355556,50.3434066 C268.628505,50.9989698 268.226343,51.9405907 268.256566,52.918956 C268.21398,53.862294 268.561879,54.78125 269.218182,55.4601648 C269.85903,56.1013049 271.107071,56.707761 272.961616,57.2802198 L273.408081,57.4175824 C277.391919,58.6995192 280.013354,60.1074863 281.272727,61.6414835 C282.155697,62.7620192 282.809253,64.0456731 283.19596,65.418956 C283.651697,67.0034341 283.871495,68.6466346 283.848485,70.2953297 C283.848485,74.8052885 282.600788,78.4340659 280.105051,81.1813187 C277.609313,83.9285714 274.266667,85.3021978 270.076768,85.3021978 C267.712566,85.332761 265.373434,84.8155907 263.242424,83.7912088 C261.181818,82.7839973 259.201232,81.2039835 257.30101,79.0521978 L261.765657,70.4326923 Z" id="Fill-9" fill="#A7A7A7" mask="url(#mask-4)"></path>
                                <path d="M274.884917,0.240418956 L325.301079,51.8887706 L325.301079,0.240418956 L274.884917,0.240418956 Z M49.7980485,125.000034 L6.86868687e-05,74.0041552 L6.86868687e-05,125.000034 L49.7980485,125.000034 Z M295.697038,71.4286058 L295.697038,94.3338255 L269.630372,94.3338255 L299.577503,125.000034 L325.301079,125.000034 L325.301079,101.785749 L295.697038,71.4286058 Z M205.408149,28.5027816 L253.832392,28.5027816 L226.220271,0.240418956 L177.830028,0.240418956 L205.408149,28.5027816 Z M220.965725,94.3338255 L168.695018,94.3338255 L198.642493,125.000034 L250.9132,125.000034 L220.965725,94.3338255 Z M104.472796,28.5027816 L156.743503,28.5027816 L129.131382,0.240418956 L76.8606747,0.240418956 L104.472796,28.5027816 Z M120.030372,94.3338255 L68.5152202,94.3338255 L98.4626949,125.000034 L149.977846,125.000034 L120.030372,94.3338255 Z M30.4283515,55.3228365 L30.4283515,28.5371223 L55.7738061,28.5371223 L28.1960283,0.240418956 L6.86868687e-05,0.240418956 L6.86868687e-05,24.1071772 L30.4283515,55.3228365 Z" id="Fill-10" fill="#A7A7A7" mask="url(#mask-4)"></path>
                                <polygon id="Fill-11" fill="#A7A7A7" mask="url(#mask-4)" points="61.4746788 78.9836538 45.127204 78.9836538 45.127204 84.8215659 41.7958909 84.8215659 41.7958909 69.1965659 45.127204 69.1965659 45.127204 74.999794 61.4746788 74.999794"></polygon>
                                <path d="M54.2283515,57.4861951 L50.9313818,57.4861951 L50.9313818,48.9010302 L58.7616848,48.9010302 C59.7002909,49.9525412 60.4235636,51.1774725 60.8909778,52.5067995 C61.4981697,54.0373626 61.8127556,55.6682005 61.8182505,57.3144918 C61.8625535,59.1949863 61.4123111,61.0541896 60.5132,62.7059753 C59.6669778,64.2111264 58.3694828,65.4120192 56.8041091,66.1400412 C55.1642101,66.9236951 53.3670182,67.3230769 51.5495636,67.3076236 C49.651402,67.3481456 47.7738465,66.9113324 46.0889576,66.0370192 C44.5022909,65.1888049 43.2181899,63.86875 42.4142101,62.2595467 C41.7503515,61.0002747 41.4182505,59.4322802 41.4182505,57.5548764 C41.4182505,55.1053571 41.933402,53.1936126 42.9637051,51.8199863 C44.0039677,50.4388049 45.5226343,49.495467 47.2222909,49.1757555 L47.943503,53.1249313 C47.0172606,53.370467 46.2043515,53.9285027 45.6424929,54.7046016 C45.0696444,55.5418269 44.7808162,56.5411401 44.8182505,57.5548764 C44.8182505,59.2949176 45.3677455,60.668544 46.4667354,61.6757555 C47.5657253,62.682967 49.2028768,63.1980769 51.3778465,63.2210852 C53.7132,63.2210852 55.4647152,62.7059753 56.6323919,61.6757555 C57.8000687,60.6455357 58.4433212,59.1455357 58.3839071,57.589217 C58.3825333,56.7307005 58.219402,55.8804258 57.903099,55.0823489 C57.6091192,54.3069368 57.2042101,53.578228 56.7010788,52.9188874 L54.1940081,52.9188874 L54.2283515,57.4861951 Z" id="Fill-12" fill="#A7A7A7" mask="url(#mask-4)"></path>
                                <polygon id="Fill-13" fill="#A7A7A7" mask="url(#mask-4)" points="41.7959596 45.3846154 61.4747475 45.3846154 61.4747475 41.4148352 41.7959596 41.4148352"></polygon>
                                <path d="M328.220202,114.42294 L329.387879,114.319918 C329.424283,114.64478 329.569556,114.947321 329.8,115.178434 C330.044525,115.369368 330.348808,115.466552 330.658586,115.453159 C330.963899,115.473764 331.266808,115.388942 331.517172,115.213118 C331.708465,115.079533 331.823515,114.862157 331.826263,114.629327 C331.821455,114.501923 331.77303,114.380701 331.688889,114.28592 C331.567313,114.156113 331.413111,114.060989 331.242424,114.011195 L330.280808,113.736126 C329.795879,113.645467 329.338081,113.445604 328.941414,113.152679 C328.587333,112.854258 328.385737,112.412981 328.391919,111.950755 C328.396384,111.643407 328.491859,111.344299 328.666667,111.092239 C328.848687,110.812706 329.112788,110.597047 329.422222,110.473764 C329.793818,110.327816 330.190828,110.257761 330.589899,110.26772 C331.190222,110.221016 331.787798,110.391346 332.272727,110.748832 C332.648101,111.078159 332.86103,111.554121 332.856566,112.053777 L331.654545,112.122459 C331.624323,111.869712 331.502404,111.637569 331.311111,111.469643 C331.089253,111.318544 330.823434,111.246085 330.555556,111.263942 C330.26604,111.243681 329.977212,111.315797 329.731313,111.469643 C329.602525,111.552404 329.524909,111.694574 329.525253,111.84739 C329.516667,111.994025 329.581232,112.135165 329.69697,112.225481 C330.034222,112.429808 330.407192,112.569918 330.79596,112.637569 C331.245859,112.723077 331.683737,112.86147 332.10101,113.049313 C332.370606,113.192514 332.596242,113.406113 332.753535,113.667788 C332.922848,113.958654 333.006303,114.292102 332.993939,114.629327 C332.997717,114.969643 332.902242,115.303434 332.719535,115.590522 C332.528586,115.883448 332.252808,116.111126 331.929293,116.243338 C331.512364,116.397184 331.068646,116.467239 330.624242,116.449038 C330.008808,116.488874 329.399556,116.305495 328.907071,115.933929 C328.495293,115.535234 328.249737,114.995398 328.220202,114.42294" id="Fill-14" fill="#A7A7A7" mask="url(#mask-4)"></path>
                                <polygon id="Fill-15" fill="#A7A7A7" mask="url(#mask-4)" points="334.058586 116.380426 334.058586 110.405495 335.844444 110.405495 336.943434 114.49169 338.008081 110.405495 339.793939 110.405495 339.793939 116.380426 338.694949 116.380426 338.694949 111.675755 337.492929 116.380426 336.359596 116.380426 335.191919 111.675755 335.191919 116.380426"></polygon>
                            </g>
                        </g>
                    </g>
                    <g id="bk" transform="translate(11.000000, 0.000000)">
                        <g id="Page-1">
                            <path d="M66.8159056,153.949635 C62.8266252,155.565185 59.7388035,156.314753 61.8451484,159.102106 C66.8205182,165.686556 92.8551248,177.93599 126.634053,165.943918 C157.889499,154.847788 166.949008,131.512881 167.411269,126.412887 C167.81858,121.92051 165.641041,122.827712 162.777631,123.541087 C134.974802,130.467347 101.021799,140.096915 66.8159056,153.949635 M43.5957751,56.4986436 C42.6911077,56.835024 39.9213535,58.0229113 40.6814265,53.5767787 C41.5445807,48.5294641 50.6279546,20.9923148 85.4725897,12.6081389 C120.317225,4.22376183 142.047492,16.038093 149.26979,25.5021848 C151.734713,28.7322811 148.487456,28.6124469 144.26494,29.4402282 C104.732118,37.1894434 67.1632529,47.7332499 43.5957751,56.4986436" id="Fill-1" fill="#A7A7A7"></path>
                            <path d="M130.119568,161.25 C130.119568,161.25 152.004686,153.382646 158.2889,134.019899 C159.442146,130.467062 154.015071,128.954759 153.252476,132.575359 C152.853779,134.468905 149.439704,148.392307 130.119568,161.25 M73.4689053,18.808587 C73.4689053,18.808587 53.339505,28.0581469 48.9238588,47.0121038 C48.1135895,50.4899383 51.9265626,50.3946276 52.4507836,47.7267328 C52.8074389,45.9114062 55.2627884,32.0529514 73.4689053,18.808587 M124.084389,29.2897459 C124.084389,29.2897459 129.803547,27.3841355 128.659554,22.7153196 C127.515964,18.0465037 113.980362,12.424782 103.780784,12.13885 C103.780784,12.13885 127.094334,10.1033436 135.236656,21.6194478 C139.716874,27.9557985 124.084389,29.2897459 124.084389,29.2897459" id="Fill-3" fill="#FEFEFE"></path>
                            <g id="Group-7">
                                <mask id="mask-6" fill="white">
                                    <use xlink:href="#path-5"></use>
                                </mask>
                                <g id="Clip-6"></g>
                                <path d="M175.612107,130.876185 C163.055146,159.264219 137.662882,180.615444 105.444188,183.776169 C79.711727,186.300327 55.620204,176.97654 38.1406305,160.133544 C33.3961491,162.16083 27.4445108,164.497656 27.4445108,164.497656 L27.4445108,147.722196 C18.0925103,134.613579 12.0569274,118.693374 10.7471492,101.173611 C7.60484652,59.1433053 33.0661942,22.6867293 69.2897329,8.6247693 C83.7938889,2.9941563 104.746724,-0.7060527 127.876297,3.8057943 C119.147455,1.3270623 109.934626,6.03e-05 100.412326,6.03e-05 C44.9562162,6.03e-05 2.00824613e-05,44.9953173 2.00824613e-05,100.50006 C2.00824613e-05,156.004803 44.9562162,201.00006 100.412326,201.00006 C141.945065,201.00006 177.586614,175.761495 192.866556,139.772646 L175.612107,130.876185 Z" id="Fill-5" fill="#A7A7A7" mask="url(#mask-6)"></path>
                            </g>
                            <g id="Group-10" transform="translate(21.777358, 33.750000)">
                                <mask id="mask-8" fill="white">
                                    <use xlink:href="#path-7"></use>
                                </mask>
                                <g id="Clip-9"></g>
                                <path d="M132.103507,59.767045 C130.721734,69.6816303 135.242822,73.3203152 140.393343,73.4476137 C146.610619,73.6012986 146.840948,69.6046872 146.840948,69.6046872 L146.840948,65.9923886 C139.088413,68.0676374 139.241898,62.841346 139.241898,62.841346 L139.241898,57.0770569 L160.119973,52.6191896 L160.119973,69.0666896 C160.119973,76.9829692 155.214868,84.6110142 138.757704,85.8108839 C125.962873,86.7438697 114.983719,77.9048768 117.340117,60.3366659 C119.59191,43.550173 132.554308,35.0495687 146.303647,35.0958957 C148.828215,35.1043555 151.702802,35.4729573 153.92583,36.000481 C159.50603,37.324628 160.964446,40.9369265 160.119973,44.0881706 C158.445712,50.3364763 153.135067,48.3152085 147.685219,47.6235261 C142.235372,46.9318436 133.485079,49.8522583 132.103507,59.767045 Z M114.516423,86.1869384 C114.516423,86.1869384 114.652609,92.5393791 107.780353,93.5980521 C105.37608,93.9684668 102.509338,93.024 100.53595,90.8111801 C97.5408676,87.4522701 85.7928773,74.0128033 85.7928773,74.0128033 L85.7928773,92.2426848 C85.7928773,92.2426848 85.8246607,99.2102678 78.8343238,101.341512 L71.9715228,103.793621 L71.9715228,54.0647938 L79.8194081,51.6785498 C79.8194081,51.6785498 84.2043106,49.9606232 88.112261,54.3510142 L100.980717,69.3359905 L100.980717,53.3966777 C100.980717,53.3966777 100.790419,46.2883009 107.653421,44.7343318 L114.516621,43.0456114 L114.516423,86.1869384 Z M123.49624,35.7581706 L107.36737,39.4615118 L107.36737,6.7240237 L126.955803,2.74493602 C126.955803,2.74493602 126.959223,5.90061137 126.955803,6.7240237 C126.942325,10.1564526 123.448565,10.751654 123.448565,10.751654 L116.375149,12.375718 L116.375149,17.1004692 L125.859678,15.1051848 C125.859678,15.1051848 125.863098,17.4972701 125.859678,18.320481 C125.8462,21.75291 122.666452,22.2339052 122.666452,22.2339052 L116.375149,23.6946161 L116.375149,29.9876374 L127.003478,27.7514526 C127.003478,27.7514526 127.006898,30.9073294 127.003478,31.7305403 C126.99,35.1631706 123.49624,35.7581706 123.49624,35.7581706 Z M77.2457572,27.3401493 C77.722307,19.7999242 83.7277608,7.01024408 100.790218,9.49176066 C103.030344,9.81766114 104.88907,11.3293318 104.88907,13.5959313 C104.88907,15.8627322 103.05388,17.7001019 100.790218,17.7001019 C100.790218,17.7001019 87.7310613,14.6459431 87.1591612,27.7218436 C86.9266194,33.0391777 88.4361298,35.7243318 90.9719625,36.1209313 C94.0221634,36.5983009 96.3324948,35.172436 96.5960155,34.1167844 C96.6913657,33.7348886 96.5006652,30.2035616 96.5006652,30.2035616 C96.5006652,30.2035616 91.8299132,31.4443199 91.734563,28.3899597 C91.639414,25.3358009 91.8299132,24.2857891 91.8299132,24.2857891 L104.88907,21.2316303 L104.88907,34.4984787 C104.88907,34.4984787 105.174919,42.4203981 92.6878639,43.8521043 C80.2006078,45.2838104 76.7692073,34.880173 77.2457572,27.3401493 Z M137.870183,7.48741232 C137.870183,7.48741232 143.531853,5.48588389 143.208185,9.77818246 C142.826986,14.836891 137.870183,16.0776493 137.870183,16.0776493 L137.870183,7.48741232 Z M138.346733,28.3899597 L138.346733,21.9591659 L145.781836,30.2035616 C145.781836,30.2035616 149.022737,33.8303626 152.74039,30.3810142 C155.681964,27.6517488 151.977789,23.9890948 151.977789,23.9890948 L147.020987,17.7001019 C147.020987,17.7001019 152.26384,15.1231114 152.16849,7.86930806 C152.075352,0.794770142 145.019236,-0.804720379 138.823283,0.637459716 C136.804031,1.1075782 129.195929,2.42628673 129.195929,2.42628673 L129.195929,34.8179336 L134.819982,33.5926848 C134.819982,33.5926848 138.346733,33.0667725 138.346733,28.3899597 Z M66.8558032,27.1492014 C66.4750059,32.8663578 61.4224507,34.4030047 61.4224507,34.4030047 L61.4224507,25.0493791 C61.4224507,25.0493791 67.1416527,22.8542844 66.8558032,27.1492014 Z M76.4831567,47.1926848 C79.247508,43.9475782 75.7205562,40.7024716 75.7205562,40.7024716 L70.4779041,35.3575427 C70.4779041,35.3575427 76.1212684,32.4000664 76.0066068,23.9040948 C75.9112566,16.8412393 68.1901026,16.0776493 61.9943508,18.2727441 C59.9748978,18.9881943 52.3667962,21.2316303 52.3667962,21.2316303 L52.3667962,55.0191303 L57.9908491,53.1102559 C57.9908491,53.1102559 61.5175998,52.155718 61.5175998,47.4791066 L61.5175998,39.6524597 L69.5248044,47.6698531 C69.5248044,47.6698531 73.2273696,51.0146635 76.4831567,47.1926848 Z M49.7931452,27.0537275 C49.7931452,27.0537275 49.8884954,42.9930403 49.7931452,45.5702322 C49.697795,48.1472227 50.2696951,57.4053744 38.4498904,61.1276493 C25.680808,65.1490355 25.3909353,53.5874242 25.3909353,53.5874242 L25.3909353,30.2035616 C25.3909353,30.2035616 29.2037366,28.7718555 30.0616873,28.4854336 C34.6956269,26.9387156 34.6368879,31.0624242 34.6368879,31.0624242 L34.6368879,49.8651493 C34.6368879,49.8651493 34.3510385,53.4921517 37.3060902,53.1102559 C41.023139,52.6300664 40.6421405,48.7198649 40.6421405,48.7198649 L40.6421405,24.7631588 C40.6421405,24.7631588 42.929942,23.9995687 44.9316928,23.4269265 C49.9751957,21.9839408 49.7931452,27.0537275 49.7931452,27.0537275 Z M8.90037854,64.8499242 L8.90037854,55.8781943 C8.90037854,55.8781943 15.103171,52.9197109 14.9056311,58.3597109 C14.7147295,63.6091659 8.90037854,64.8499242 8.90037854,64.8499242 Z M8.90037854,42.611346 C8.90037854,42.611346 14.4288801,40.0343555 14.2381797,44.6156943 C14.0474793,49.1970332 8.90037854,50.3423175 8.90037854,50.3423175 L8.90037854,42.611346 Z M24.5329846,56.7372583 C24.2022763,51.7703981 18.6230822,50.1515711 18.6230822,50.1515711 C18.6230822,50.1515711 23.8657343,47.0972109 23.1031338,40.4160498 C22.0691674,31.3577085 11.3786793,35.643763 11.3786793,35.643763 L0.0354244122,39.8434076 L0.0354244122,75.8262038 C0.0354244122,75.8262038 7.37517756,72.772045 14.9056311,69.4314645 C22.5837367,66.0252204 24.9141842,62.4638815 24.5329846,56.7372583 Z M67.2370029,98.0649834 C67.2370029,98.0649834 67.3641365,105.06419 60.5009332,107.482258 L51.6043968,110.663917 L51.6043968,67.9042844 C51.6043968,67.9042844 51.4772632,60.9048768 58.3404665,58.4870095 L67.2370029,55.3055521 L67.2370029,98.0649834 Z M46.4492497,101.61041 C49.5523558,104.717341 49.5523558,109.755102 46.4492497,112.862235 C43.3461436,115.969166 38.3151127,115.969166 35.2120066,112.862235 L22.4358835,100.069332 L22.4358835,115.722424 C22.4358835,115.722424 22.6265839,121.067152 18.7184324,122.78528 C13.8352546,124.93163 7.56567681,127.366618 7.56567681,127.366618 L7.56567681,78.2124479 L22.4358835,71.912981 L22.4358835,89.7488815 L35.386413,67.7415355 C37.3002566,64.4962275 41.4188222,63.7259905 44.9184162,65.1137867 C48.452811,66.5152796 49.6845184,70.3632417 47.1241441,74.6809194 L36.7492772,91.8978507 L46.4492497,101.61041 Z M168.277243,98.0641777 C164.583127,98.0641777 161.588446,95.0130403 161.588446,91.2492725 C161.588446,87.4857062 164.583127,84.4345687 168.277243,84.4345687 C171.971561,84.4345687 174.966241,87.4857062 174.966241,91.2492725 C174.966241,95.0130403 171.971561,98.0641777 168.277243,98.0641777 Z M168.277243,82.2092607 C163.376967,82.2092607 159.404243,86.2566303 159.404243,91.2492725 C159.404243,96.2419147 163.376967,100.289486 168.277243,100.289486 C173.177922,100.289486 177.150646,96.2419147 177.150646,91.2492725 C177.150646,86.2566303 173.177922,82.2092607 168.277243,82.2092607 Z M166.775779,87.733455 L169.036826,87.733455 C169.79138,87.733455 170.40311,88.3459787 170.40311,89.1015118 C170.40311,89.8568436 169.79138,90.4693673 169.036826,90.4693673 L166.775779,90.4693673 L166.775779,87.733455 Z M172.236087,89.1015118 C172.236087,87.5807773 171.005184,86.3482773 169.486421,86.3482773 L164.864551,86.3482773 L164.864551,96.1504692 L166.775779,96.1504692 L166.775779,91.8547464 L167.834488,91.8547464 L170.286035,96.1504692 L172.197263,96.1504692 L169.738274,91.8420569 C171.138755,91.7145569 172.236087,90.5368436 172.236087,89.1015118 Z" id="Fill-8" fill="#A7A7A7" mask="url(#mask-8)"></path>
                            </g>
                        </g>
                    </g>
                    <g id="subway" transform="translate(300.000000, 21.000000)">
                        <g id="Page-1">
                            <g id="Group-3" transform="translate(0.000000, 6.000000)">
                                <mask id="mask-10" fill="white">
                                    <use xlink:href="#path-9"></use>
                                </mask>
                                <g id="Clip-2"></g>
                                <path d="M109.680962,10.6892823 L115.330682,10.6892823 C117.58391,10.6977623 119.408529,12.5233851 119.417004,14.7778537 C119.408529,16.8827109 117.705289,18.586888 115.60159,18.595368 L109.680962,18.595368 L109.680962,10.6892823 Z M109.680962,27.8646137 L116.429448,27.8646137 C119.129146,27.8688537 121.316388,30.0572994 121.320928,32.7584823 C121.31215,35.2740137 119.276253,37.310728 116.762408,37.3195109 L109.680962,37.3195109 L109.680962,27.8646137 Z M121.862442,47.2777566 C129.051948,47.276848 134.879348,41.444728 134.878439,34.2512651 C134.877834,29.500648 132.292251,25.1273909 128.131466,22.8390023 C133.684022,18.8885337 134.984381,11.1823337 131.036085,5.62672229 C128.901511,2.62298514 125.536803,0.730733714 121.862442,0.467853714 L121.862442,0.336110857 L95.734796,0.336110857 L95.734796,47.2777566 L121.862442,47.2777566 Z M91.7413991,0.382750857 L91.7413991,30.7838537 C91.7413991,36.1477566 89.9225314,40.4350023 86.2850987,43.6455909 C82.6476659,46.8567851 77.8130919,48.4625337 71.7816794,48.4625337 C65.7554126,48.4625337 61.1505807,46.9031223 57.9671839,43.785208 C54.783787,40.6669909 53.1895157,36.1837966 53.18437,30.3347166 L53.18437,0.382750857 L67.2543363,0.382750857 L67.2543363,31.8214423 C67.2628117,34.6961623 69.5895942,37.0242251 72.4627332,37.0327051 C75.3358722,37.0242251 77.6629574,34.6961623 77.6714327,31.8214423 L77.6714327,0.382750857 L91.7413991,0.382750857 Z M30.074852,11.6805337 L48.3861188,11.6572137 L48.3861188,0.212242286 L28.062565,0.212242286 C27.7762197,0.196796571 27.4898744,0.181350857 27.2035291,0.181350857 C20.0143251,0.184076571 14.1884395,6.01801371 14.1914664,13.2111737 C14.1935852,18.3700423 17.2386525,23.0416137 21.9563879,25.1231509 L34.9893363,31.635488 C38.0616457,33.1688537 37.5664439,35.9566537 34.0915561,35.9566537 L15.4785067,35.9566537 L15.4785067,30.2032766 L7.7393139,35.9024423 L-0.00018161435,41.6013051 L7.7393139,47.3007737 L15.4785067,52.9999394 L15.4785067,47.2465623 L37.6127556,47.5097451 C44.7992354,47.5097451 50.6260291,41.6833794 50.6302668,34.4929451 C50.6302668,30.8226194 49.9029013,26.865488 46.5902556,24.5268251 L29.7188879,15.7306423 C28.3643475,15.0255909 28.5501996,11.688408 30.074852,11.688408 L30.074852,11.6805337 Z" id="Fill-1" fill="#A7A7A7" mask="url(#mask-10)"></path>
                            </g>
                            <g id="Group-6" transform="translate(138.000000, 0.000000)">
                                <mask id="mask-12" fill="white">
                                    <use xlink:href="#path-11"></use>
                                </mask>
                                <g id="Clip-5"></g>
                                <path d="M136.397568,49.12584 L137.132953,49.12584 C137.48899,49.12584 137.72877,49.07454 137.852898,48.97224 C137.980357,48.87264 138.052109,48.71904 138.046357,48.55824 C138.046962,48.45384 138.014568,48.35184 137.953715,48.26694 C137.889834,48.17874 137.800825,48.11184 137.698192,48.07494 C137.589806,48.02904 137.380605,48.01374 137.086329,48.01374 L136.389999,48.01374 L136.389999,49.13334 L136.397568,49.12584 Z M135.786008,51.22764 L135.786008,47.49954 L137.078761,47.49954 C137.522595,47.49954 137.842302,47.53554 138.038788,47.60724 C138.231944,47.67264 138.39755,47.79924 138.510779,47.96784 C138.624614,48.12684 138.686981,48.31704 138.688797,48.51204 C138.692128,48.77964 138.586164,49.03704 138.394825,49.22544 C138.186228,49.43184 137.907091,49.55214 137.613118,49.56294 C137.730283,49.60914 137.838063,49.67694 137.9301,49.76244 C138.142935,49.98684 138.329733,50.23374 138.487467,50.49894 L138.94432,51.22764 L138.208935,51.22764 L137.87621,50.63694 C137.613118,50.17674 137.396045,49.88514 137.23377,49.76994 C137.071192,49.65534 136.962504,49.63974 136.745733,49.64724 L136.389999,49.64724 L136.389999,51.22764 L135.786008,51.22764 Z M137.326412,46.41834 C136.822329,46.42134 136.327329,46.55064 135.886825,46.79424 C135.426036,47.04024 135.04699,47.41314 134.7951,47.86794 C134.270128,48.76074 134.2671,49.86414 134.787531,50.75964 C135.038816,51.21204 135.414531,51.58464 135.871384,51.83334 C136.772072,52.34694 137.880751,52.34694 138.781742,51.83334 C139.239201,51.58524 139.614917,51.21264 139.865595,50.75964 C140.382696,49.86324 140.379669,48.76164 139.857724,47.86794 C139.607045,47.41254 139.227696,47.03934 138.766302,46.79424 C138.328219,46.55184 137.835944,46.42254 137.334283,46.41834 L137.326412,46.41834 Z M137.326412,45.84294 C137.931008,45.84684 138.525008,46.00284 139.052706,46.29534 C139.605228,46.58724 140.059962,47.03244 140.360898,47.57634 C140.983357,48.64884 140.986384,49.96824 140.368467,51.04344 C140.07177,51.58734 139.622788,52.03464 139.076017,52.33224 C137.993981,52.94394 136.666715,52.94394 135.584678,52.33224 C135.035485,52.03524 134.584082,51.58794 134.284357,51.04344 C133.663412,49.96914 133.666439,48.64824 134.292228,47.57634 C134.596494,47.03214 135.05365,46.58724 135.608293,46.29534 C136.135687,46.00284 136.729687,45.84684 137.334283,45.84294 L137.326412,45.84294 Z M58.3698248,6.17094 L58.3698248,39.61434 C58.3698248,43.80264 56.8836138,47.21064 53.9111917,49.83924 C50.9387697,52.46784 47.0916963,53.78694 42.3696688,53.79714 C42.0753936,53.79714 41.7811183,53.78184 41.4871459,53.80494 C38.9403936,53.98134 33.4442284,54.05034 29.3419349,50.36064 C25.3783018,54.34194 19.8900083,53.92764 17.8464303,53.84334 C17.111045,53.81244 16.3447789,53.79714 15.531889,53.79714 C10.5933936,53.79714 6.80565963,52.47774 4.1683844,49.83924 C1.53141193,47.20044 0.218072477,43.40874 0.228366055,38.46384 L0.228306017,6.17094 L14.1773752,6.17094 L14.1773752,37.88874 C14.1816138,40.15734 16.0365771,41.99574 18.3265954,41.99994 C20.6160083,41.99574 22.4712743,40.15734 22.4755128,37.88874 L22.4755128,6.17094 L35.7896505,6.17094 L35.7896505,37.88874 C35.793889,40.15734 37.649155,41.99574 39.9391734,41.99994 C42.2285862,41.99574 44.0838523,40.15734 44.0880908,37.88874 L44.0880908,6.17094 L58.3698248,6.17094 Z M86.4767422,28.99854 L86.4767422,21.21294 C86.4682651,18.34014 84.1201183,16.01304 81.2209624,16.00494 C78.3215037,16.01304 75.9733569,18.34014 75.9648798,21.21294 L75.9648798,28.99854 L86.4767422,28.99854 Z M75.9648798,52.61604 L61.8224119,52.61604 L61.8224119,23.08434 C61.8224119,17.38794 63.610467,12.95934 67.1868798,9.79914 C70.7629899,6.63894 75.7917055,5.06154 82.2736321,5.06664 C88.5281917,5.06664 93.1494028,6.49824 96.1375679,9.36204 C99.1254303,12.22584 100.61921,16.64394 100.61921,22.61664 L100.61921,52.61604 L86.4767422,52.61604 L86.4767422,39.03924 L75.9648798,39.03924 L75.9648798,52.61604 Z M142.768384,17.14764 L142.768384,26.70504 C142.768384,33.37044 137.45054,38.85504 130.808761,39.20784 L130.808761,52.79994 L115.667513,52.79994 L115.667513,39.16944 C109.257944,38.58654 104.187751,33.20184 104.187751,26.70504 L104.187751,5.96394 L118.028375,5.96394 L118.028375,24.51114 C118.036852,26.93514 120.017761,28.89804 122.464302,28.90674 L124.492137,28.90674 C126.938375,28.89804 128.919283,26.93514 128.927761,24.51114 L128.927761,14.66244 L128.981953,14.66244 L128.981953,14.47044 C128.981953,9.77244 132.825394,5.96424 137.566494,5.96394 L149.518247,5.96394 L149.518247,0.26484 L157.259017,5.91024 L165.000091,11.55594 L157.259017,17.20134 L149.518247,22.84674 L149.518247,17.14764 L142.768384,17.14764 Z" id="Fill-4" fill="#A7A7A7" mask="url(#mask-12)"></path>
                            </g>
                        </g>
                    </g>
                    <g id="starbucks" transform="translate(258.000000, 125.000000)">
                        <g id="Page-1">
                            <path d="M248.767331,21.7722286 C248.767331,33.0705143 242.415189,39.1470857 230.594166,39.1470857 C219.023704,39.1470857 212.512531,32.9859429 212.512531,21.9425143 L212.512531,1.82822857 L225.545175,1.82822857 L225.545175,21.2579429 C225.545175,26.6510857 226.995916,29.0465143 230.514078,29.0465143 C234.019654,29.0465143 235.733542,26.9082286 235.733542,20.7448 L235.733542,1.82822857 L248.767331,1.82822857 L248.767331,21.7722286 Z" id="Fill-1" fill="#A7A7A7"></path>
                            <polygon id="Fill-3" fill="#A7A7A7" points="61.6974594 11.1573714 61.6974594 11.1573714 61.6974594 38.4636571 48.5012065 38.4636571 48.5012065 11.1573714 37.4478859 11.1573714 37.4478859 1.82822857 72.7519241 1.82822857 72.7519241 11.1573714"></polygon>
                            <path d="M103.429837,38.4630857 L101.20224,31.7008 L88.7771224,31.7008 L86.4625724,38.4630857 L73.3521282,38.4630857 L86.63419,1.82765714 L103.344028,1.82765714 L116.540281,38.4630857 L103.429837,38.4630857 Z M94.9462047,10.2162286 L91.6889018,22.7145143 L98.2881724,22.7145143 L94.9462047,10.2162286 Z" id="Fill-5" fill="#A7A7A7"></path>
                            <g id="Group-9" transform="translate(256.282353, 0.290171)">
                                <mask id="mask-14" fill="white">
                                    <use xlink:href="#path-13"></use>
                                </mask>
                                <g id="Clip-8"></g>
                                <path d="M34.8161865,35.2633143 L30.8644041,25.8473143 C28.4651894,27.5593143 26.1586482,29.0998857 22.2972512,29.0998857 C17.1567306,29.0998857 13.7300982,24.9056 13.7300982,19.6827429 C13.7300982,14.4621714 16.7345512,10.0107429 22.1256335,10.0107429 C25.5522659,10.0107429 28.4651894,11.7227429 30.8644041,13.6061714 L34.7246571,4.3616 C30.3506953,2.13645714 25.9858865,0.853028571 19.9895659,0.853028571 C8.93281294,0.853028571 0.537277647,8.38445714 0.537277647,19.5981714 C0.537277647,31.4107429 8.66966588,38.8576 20.4117453,38.8576 C26.8428306,38.8576 31.3781129,37.4027429 34.8161865,35.2633143" id="Fill-7" fill="#A7A7A7" mask="url(#mask-14)"></path>
                            </g>
                            <polygon id="Fill-10" fill="#A7A7A7" points="320.739539 38.4630857 320.739539 38.4630857 312.435533 25.1099429 312.435533 38.4630857 299.664891 38.4630857 299.664891 1.82765714 312.435533 1.82765714 312.435533 15.2665143 320.22583 1.82765714 334.458653 1.82765714 322.453427 19.8882286 336.000924 38.4630857"></polygon>
                            <path d="M15.4243076,39.1473143 C23.7374665,39.1473143 32.3915724,36.2376 32.3915724,26.8227429 C32.3915724,18.4341714 25.1939282,16.1233143 19.5385547,14.9244571 C15.3396429,13.9816 13.2813753,13.5541714 13.2813753,11.8421714 C13.2813753,9.61702857 16.1954429,9.44674286 17.6519047,9.44674286 C21.5087253,9.44674286 25.0223106,10.9861714 28.1079959,12.8696 L31.5357724,4.56674286 C26.9924812,2.59874286 21.5945341,1.14274286 16.5386782,1.14274286 C7.96923706,1.14274286 1.19949294,5.25131429 1.19949294,13.6410286 C1.19949294,20.4878857 6.42696647,23.1404571 12.1681488,24.5107429 C16.1107782,25.5381714 18.6816106,25.7941714 18.6816106,27.7633143 C18.6816106,29.7324571 16.7091518,30.3313143 14.8259341,30.3313143 C10.6270224,30.3313143 6.68439294,28.5347429 4.19822529,26.3941714 L0.000457647059,34.4410286 C4.54146059,37.3507429 9.94055176,39.1473143 15.4243076,39.1473143" id="Fill-12" fill="#A7A7A7"></path>
                            <path d="M355.452983,39.1473143 C363.756989,39.1473143 372.324142,36.2376 372.324142,26.8227429 C372.324142,18.4341714 365.127642,16.1233143 359.564942,14.9244571 C355.361454,13.9816 353.305474,13.5541714 353.305474,11.8421714 C353.305474,9.61702857 356.13831,9.44674286 357.68058,9.44674286 C361.449304,9.44674286 365.048698,10.9861714 368.040566,12.8696 L371.467198,4.56674286 C367.013148,2.59874286 361.622066,1.14274286 356.561633,1.14274286 C347.901807,1.14274286 341.140071,5.25131429 341.140071,13.6410286 C341.140071,20.4878857 346.36068,23.1404571 352.106439,24.5107429 C356.13831,25.5381714 358.617613,25.7941714 358.617613,27.7633143 C358.617613,29.7324571 356.732107,30.3313143 354.847745,30.3313143 C350.644257,30.3313143 346.622683,28.5347429 344.133083,26.3941714 L340.021124,34.4410286 C344.475174,37.3507429 349.95893,39.1473143 355.452983,39.1473143" id="Fill-14" fill="#A7A7A7"></path>
                            <g id="Group-18" transform="translate(377.558824, 0.290171)">
                                <mask id="mask-16" fill="white">
                                    <use xlink:href="#path-15"></use>
                                </mask>
                                <g id="Clip-17"></g>
                                <path d="M6.33623794,6.0736 C7.11309382,6.0736 7.62680265,5.73188571 7.62680265,5.04731429 C7.62680265,4.44731429 7.19318206,4.10445714 6.33623794,4.10445714 L4.71387912,4.10445714 L4.71387912,6.0736 L6.33623794,6.0736 Z M3.93702324,3.33531429 L6.42776735,3.33531429 C7.11309382,3.33531429 7.70689088,3.59131429 8.04898206,3.93417143 C8.31327324,4.19131429 8.48374676,4.53302857 8.48374676,4.96045714 L8.48374676,5.04731429 C8.48374676,5.90331429 7.87850853,6.50217143 7.02156441,6.67245714 L8.73545265,8.89874286 L7.79842029,8.89874286 L6.16576441,6.75931429 L6.08453206,6.75931429 L4.71387912,6.75931429 L4.71387912,8.89874286 L3.93702324,8.89874286 L3.93702324,3.33531429 Z M10.6198144,6.24502857 C10.6198144,3.67702857 8.73545265,1.5376 6.08453206,1.5376 C3.34322618,1.5376 1.28724676,3.67702857 1.28724676,6.24502857 L1.28724676,6.33074286 C1.28724676,8.89874286 3.34322618,11.0393143 5.99300265,11.0393143 C8.73545265,11.0393143 10.6198144,8.89874286 10.6198144,6.24502857 Z M0.601920294,6.33074286 L0.601920294,6.24502857 C0.601920294,3.33531429 3.001135,0.853028571 6.08453206,0.853028571 C9.07754382,0.853028571 11.3966703,3.2496 11.3966703,6.24502857 C11.3966703,9.24045714 9.07754382,11.7227429 5.99300265,11.7227429 C2.90960559,11.7227429 0.601920294,9.24045714 0.601920294,6.33074286 Z" id="Fill-16" fill="#A7A7A7" mask="url(#mask-16)"></path>
                            </g>
                            <path d="M145.336464,14.4106286 C145.336464,16.8083429 143.794193,18.2620571 141.304593,18.2620571 L136.849399,18.2620571 L136.849399,10.5580571 L141.396123,10.5580571 C143.794193,10.5580571 145.336464,11.8426286 145.336464,14.3249143 L145.336464,14.4106286 Z M151.241255,24.7683429 C155.787979,23.1409143 158.186049,18.6049143 158.186049,14.4106286 C158.186049,5.76605714 152.269817,1.82777143 143.874281,1.82777143 L124.079902,1.82777143 L124.079902,38.4632 L136.849399,38.4632 L136.849399,27.5923429 L140.024326,27.5923429 L146.615587,38.4632 L160.333558,38.4632 L151.241255,24.7683429 Z" id="Fill-19" fill="#A7A7A7"></path>
                            <path d="M190.489982,27.0792 C190.489982,29.2186286 188.867623,30.5020571 186.297935,30.5020571 L181.671123,30.5020571 L181.671123,23.6552 L186.376879,23.6552 C188.867623,23.6552 190.489982,24.7683429 190.489982,26.9934857 L190.489982,27.0792 Z M181.671123,9.78777143 L186.297935,9.78777143 C188.696006,9.78777143 190.237132,10.8152 190.237132,12.9557714 L190.237132,13.0403429 C190.237132,15.0963429 188.776094,16.2929143 186.206406,16.2929143 L181.671123,16.2929143 L181.671123,9.78777143 Z M195.80212,19.7180571 C200.519317,18.6906286 202.916244,16.0369143 202.916244,11.5854857 C202.916244,5.33748571 198.199047,1.82777143 189.976273,1.82777143 L169.0721,1.82777143 L169.0721,38.4632 L189.119329,38.4632 C198.805429,38.4632 203.694244,35.0392 203.694244,28.1054857 C203.694244,23.3123429 200.598261,20.1466286 195.80212,19.7180571 Z" id="Fill-21" fill="#A7A7A7"></path>
                        </g>
                    </g>
                    <g id="jack-in-the-box" transform="translate(722.000000, 0.000000)">
                        <g id="Page-1">
                            <g id="Group-3" transform="translate(0.000000, 0.588462)">
                                <mask id="mask-18" fill="white">
                                    <use xlink:href="#path-17"></use>
                                </mask>
                                <g id="Clip-2"></g>
                                <path d="M81.8308304,0.00576573427 L9.50504783,20.8028287 C6.21613478,21.6754161 0.00017826087,25.6157308 0.00017826087,34.2667098 L0.00017826087,104.86129 C0.00017826087,113.508108 6.21435217,117.448423 9.4991058,118.325171 L81.8308304,139.13115 L81.8308304,0.00576573427 Z" id="Fill-1" fill="#A7A7A7" mask="url(#mask-18)"></path>
                            </g>
                            <g id="Group-6" transform="translate(80.811594, 0.594406)">
                                <mask id="mask-20" fill="white">
                                    <use xlink:href="#path-19"></use>
                                </mask>
                                <g id="Clip-5"></g>
                                <path d="M0.413149275,0.00576573427 L72.7419029,20.8028287 C76.0302217,21.6754161 82.2461783,25.6157308 82.2461783,34.2667098 L82.2461783,104.86129 C82.2461783,113.508108 76.0325986,117.448423 72.7466565,118.325171 L0.413149275,139.13115 L0.413149275,0.00576573427 Z" id="Fill-4" fill="#A7A7A7" mask="url(#mask-20)"></path>
                            </g>
                            <path d="M53.1573319,169.993997 C53.7788681,169.993997 54.2881,169.485185 54.2881,168.863437 L54.2881,167.916549 C54.2881,167.294801 53.7788681,166.78599 53.1573319,166.78599 L50.2701,166.78599 C49.6479696,166.78599 49.1393319,166.27599 49.1393319,165.653647 L49.1399261,158.296689 L53.1573319,158.296689 C53.7788681,158.296689 54.2881,157.787878 54.2881,157.165535 L54.2881,156.221024 C54.2881,155.598682 53.7788681,155.089871 53.1573319,155.089871 L49.1399261,155.089871 L49.1399261,151.843822 C49.1399261,151.221479 48.6312884,150.712668 48.009158,150.712668 L46.8266942,150.712668 C46.205158,150.712668 45.6959261,151.221479 45.6959261,151.843822 L45.6959261,166.599941 C45.6959261,168.466374 47.2230275,169.993402 49.0888246,169.993402 L53.1573319,169.993997 Z M15.9875638,150.952808 C15.9875638,150.330465 15.4783319,149.821059 14.8562014,149.821059 L13.6743319,149.821059 C13.0522014,149.821059 12.5435638,150.330465 12.5435638,150.952808 L12.5435638,151.897913 C12.5435638,152.519661 13.0522014,153.028472 13.6743319,153.028472 L14.8562014,153.028472 C15.4783319,153.028472 15.9875638,152.519661 15.9875638,151.897913 L15.9875638,150.952808 Z M15.9875638,168.861654 C15.9875638,169.483997 15.4783319,169.992808 14.8562014,169.992808 L13.6743319,169.992808 C13.0522014,169.992808 12.5435638,169.483997 12.5435638,168.861654 L12.5435638,156.221024 C12.5435638,155.598682 13.0522014,155.089871 13.6743319,155.089871 L14.8562014,155.089871 C15.4783319,155.089871 15.9875638,155.598682 15.9875638,156.221024 L15.9875638,168.861654 Z M104.114984,166.784801 L104.123303,158.296689 L110.906129,158.296689 C111.528259,158.296689 112.036303,158.806094 112.035709,159.428437 L112.03868,159.427248 L112.03868,165.653647 C112.03868,166.27599 111.530636,166.784801 110.907912,166.784801 L104.114984,166.784801 Z M112.089781,155.088087 L104.123897,155.088087 L104.123897,151.843822 C104.123897,151.221479 103.615854,150.712668 102.993723,150.712668 L101.810665,150.712668 C101.189129,150.712668 100.680491,151.221479 100.680491,151.843822 L100.680491,169.061969 C100.680491,169.573157 101.189129,169.992808 101.810665,169.992808 L112.089781,169.99043 C113.954984,169.99043 115.482086,168.463997 115.482086,166.596969 L115.482086,158.481549 C115.482086,156.615115 113.954984,155.088087 112.089781,155.088087 Z" id="Fill-7" fill="#A7A7A7"></path>
                            <path d="M69.1848261,155.07293 L61.2195362,155.07293 L61.2195362,151.826881 C61.2195362,151.204538 60.7103043,150.695727 60.0881739,150.695727 L58.9063043,150.695727 C58.2841739,150.695727 57.7755362,151.204538 57.7755362,151.826881 L57.7755362,169.045028 C57.7755362,169.556217 58.2841739,169.975867 58.9063043,169.975867 L60.0881739,169.975867 C60.7103043,169.975867 61.218942,169.556217 61.218942,169.045028 L61.2177536,158.280343 L68.0011739,158.280343 C68.6233043,158.280343 69.131942,158.789154 69.1307536,159.411497 L69.1337246,169.045028 C69.1337246,169.556217 69.6423623,169.975867 70.2638986,169.975867 L71.4463623,169.975867 C72.0684928,169.975867 72.5771304,169.556217 72.5771304,169.045028 L72.5771304,158.466392 C72.5771304,156.599958 71.0506232,155.07293 69.1848261,155.07293" id="Fill-9" fill="#A7A7A7"></path>
                            <path d="M31.2980333,169.048416 C31.2980333,169.559605 31.806671,169.979255 32.4288014,169.979255 L33.610671,169.979255 C34.2328014,169.979255 34.7414391,169.559605 34.7414391,169.048416 L34.7414391,158.46978 C34.7414391,156.603346 33.2149319,155.076318 31.3491348,155.076318 L21.070613,155.076318 C20.4490768,155.076318 19.9398449,155.585724 19.9398449,156.207472 L19.9398449,169.048416 C19.9398449,169.559605 20.4490768,169.979255 21.070613,169.979255 L22.2524826,169.979255 C22.874613,169.979255 23.3838449,169.559605 23.3838449,169.048416 L23.3820623,158.283731 L30.1654826,158.283731 C30.787613,158.283731 31.2962507,158.792542 31.2950623,159.414885 L31.2980333,169.048416 Z" id="Fill-11" fill="#A7A7A7"></path>
                            <path d="M148.321481,155.417685 L143.639162,160.101601 L138.956249,155.417685 C138.517133,154.97842 137.797554,154.97842 137.357249,155.417685 L136.520612,156.255203 C136.080901,156.695063 136.080901,157.415483 136.520612,157.855937 L141.20293,162.538664 L136.520612,167.223175 C136.080901,167.663629 136.080901,168.38286 136.520612,168.823315 L137.357249,169.660832 C137.797554,170.100692 138.517133,170.100692 138.956249,169.660832 L143.639162,164.976916 L148.321481,169.660832 C148.761191,170.100692 149.481365,170.100692 149.921075,169.660832 L150.758307,168.823315 C151.198017,168.38286 151.198017,167.663629 150.758307,167.223175 L146.075394,162.538664 L150.758307,157.855937 C151.198017,157.414888 151.198017,156.695063 150.758307,156.255203 L149.921075,155.417685 C149.480771,154.97842 148.761191,154.97842 148.321481,155.417685" id="Fill-13" fill="#A7A7A7"></path>
                            <path d="M129.833868,159.391643 C129.833868,158.768706 129.32523,158.26049 128.7031,158.26049 L123.049259,158.26049 C122.427129,158.26049 121.918491,158.768706 121.918491,159.391643 L121.918491,165.62042 C121.918491,166.242168 122.427129,166.750979 123.049259,166.750979 L128.7031,166.750979 C129.32523,166.750979 129.833868,166.242168 129.833868,165.62042 L129.833868,159.391643 Z M133.27668,166.563147 C133.27668,168.430175 131.750767,169.956608 129.884375,169.956608 L121.86739,169.956608 C120.001593,169.956608 118.475086,168.430175 118.475086,166.563147 L118.475086,158.447727 C118.475086,156.581294 120.001593,155.054266 121.86739,155.054266 L129.884375,155.054266 C131.750767,155.054266 133.27668,156.581294 133.27668,158.447727 L133.27668,166.563147 Z" id="Fill-15" fill="#A7A7A7"></path>
                            <path d="M79.1786652,161.007119 L86.6198681,161.007119 L86.6198681,159.105021 C86.6198681,158.583133 86.2128391,158.190231 85.6715203,158.190231 L80.0877957,158.190231 C79.5684623,158.190231 79.1786652,158.583133 79.1786652,159.105021 L79.1786652,161.007119 Z M79.1733174,164.214531 L79.1733174,165.547783 C79.1733174,166.17072 79.6819551,166.678937 80.3040855,166.678937 L84.8663754,166.678937 L88.4957667,166.678937 C89.1173029,166.678937 89.6265348,167.187748 89.6265348,167.809497 L89.6265348,168.754601 C89.6265348,169.376944 89.1173029,169.885755 88.4957667,169.885755 L79.1198391,169.885755 C77.2546362,169.885755 75.7275348,168.36586 75.7275348,166.507748 L75.7275348,158.373308 C75.7275348,156.506874 77.2546362,154.979846 79.1198391,154.979846 L86.6733464,154.979846 C88.5385493,154.979846 90.0656507,156.506874 90.0656507,158.373308 L90.0656507,163.081594 C90.0656507,163.704531 89.557013,164.213343 88.9348826,164.213343 L79.1733174,164.214531 Z" id="Fill-17" fill="#A7A7A7"></path>
                            <path d="M154.670004,153.278063 C155.017613,153.278063 155.324816,153.242993 155.324816,152.834042 C155.324816,152.492853 154.99028,152.451839 154.71041,152.451839 L154.151265,152.451839 L154.151265,153.278063 L154.670004,153.278063 Z M154.151265,154.881175 L153.687193,154.881175 L153.687193,152.055965 L154.758541,152.055965 C155.440686,152.055965 155.788888,152.29551 155.788888,152.868517 C155.788888,153.380301 155.475149,153.591315 155.052077,153.639462 L155.843555,154.881175 L155.31828,154.881175 L154.588004,153.673343 L154.151265,153.673343 L154.151265,154.881175 Z M154.655743,151.312364 C153.55112,151.312364 152.691309,152.179007 152.691309,153.42072 C152.691309,154.581 153.442381,155.529671 154.655743,155.529671 C155.747294,155.529671 156.607106,154.669566 156.607106,153.42072 C156.607106,152.179007 155.747294,151.312364 154.655743,151.312364 Z M154.655743,155.972503 C153.189251,155.972503 152.14583,154.874636 152.14583,153.42072 C152.14583,151.885371 153.305714,150.868937 154.655743,150.868937 C155.993294,150.868937 157.153178,151.885371 157.153178,153.42072 C157.153178,154.95607 155.993294,155.972503 154.655743,155.972503 Z" id="Fill-19" fill="#A7A7A7"></path>
                            <path d="M154.670004,153.278063 C155.017613,153.278063 155.324816,153.242993 155.324816,152.834042 C155.324816,152.492853 154.99028,152.451839 154.71041,152.451839 L154.151265,152.451839 L154.151265,153.278063 L154.670004,153.278063 Z M154.151265,154.881175 L153.687193,154.881175 L153.687193,152.055965 L154.758541,152.055965 C155.440686,152.055965 155.788888,152.29551 155.788888,152.868517 C155.788888,153.380301 155.475149,153.591315 155.052077,153.639462 L155.843555,154.881175 L155.31828,154.881175 L154.588004,153.673343 L154.151265,153.673343 L154.151265,154.881175 Z M154.655743,151.312364 C153.55112,151.312364 152.691309,152.179007 152.691309,153.42072 C152.691309,154.581 153.442381,155.529671 154.655743,155.529671 C155.747294,155.529671 156.607106,154.669566 156.607106,153.42072 C156.607106,152.179007 155.747294,151.312364 154.655743,151.312364 Z M154.655743,155.972503 C153.189251,155.972503 152.14583,154.874636 152.14583,153.42072 C152.14583,151.885371 153.305714,150.868937 154.655743,150.868937 C155.993294,150.868937 157.153178,151.885371 157.153178,153.42072 C157.153178,154.95607 155.993294,155.972503 154.655743,155.972503 Z" id="Fill-21" fill-opacity="0.4" fill="#222222"></path>
                            <path d="M43.3625507,77.0873322 C43.1117971,82.1641503 42.8776812,85.3911783 42.4361884,90.1000594 C42.1444348,93.2266329 41.5151739,96.1540804 39.3641594,95.9846748 C37.9707536,95.6678566 36.3277826,94.9040455 35.4733188,89.2250944 C34.6176667,83.5461434 35.4447971,78.0419476 36.2523188,73.5648846 C36.7098551,71.0226119 38.048,68.3977168 39.1157826,67.3919825 C41.9091304,64.7658986 43.6430145,67.0626818 43.6109275,71.7483811 C43.5942899,73.9839406 43.4136522,76.0637657 43.3625507,77.0873322 M81.9197826,89.0521224 C80.1003333,92.4824371 72.5438551,100.810654 68.2168696,99.6331364 C64.3183043,98.5721224 61.9789275,95.026493 61.6105217,84.9281364 C61.3080725,76.6231014 63.9588116,64.1994301 67.9476957,62.3222972 C68.4337536,62.0940455 68.2857971,62.1166329 68.7225362,62.3954091 C69.5258986,62.9048147 71.3970435,64.0924371 71.4124928,73.162472 C71.4166522,74.9522273 71.2057101,77.053451 71.096971,78.1804441 C71.0013043,79.1303042 71.0013043,79.1303042 71.2282899,79.2260035 C71.8082319,79.474465 73.0085217,79.7371923 75.5879565,79.7282762 C78.2416667,79.7128217 78.5221304,77.6217028 78.6926667,76.3728566 L78.7075217,76.2563531 C80.0718116,66.2424021 78.5726377,58.6500594 74.7976667,54.8738007 C73.2438261,53.3235909 70.9882319,52.6519126 68.9625942,52.9295 C62.4014058,53.7444301 52.3558116,69.3077517 55.1259855,95.4972622 C55.1200435,96.7360035 54.5193043,97.4831713 53.8668696,97.768486 C52.9208986,98.0228916 52.5311014,97.8267378 51.6142464,96.833486 C50.6985797,95.8408287 49.812029,93.4108986 49.5398841,90.7461783 C49.1821739,87.2552343 49.3295362,74.1836608 52.359971,60.516493 C52.8412754,58.3528566 52.8816812,58.1798846 52.359971,57.6045 C51.9416522,57.1337308 51.2078116,57.119465 49.9177971,57.2591503 L49.2374348,57.3393951 C47.8844348,57.4826469 47.4096667,56.6813881 46.8297246,59.2474371 C46.1933333,62.0785909 44.6995072,60.1610385 43.7933478,59.6320175 C42.4421304,58.7332762 39.8662609,58.3689056 37.9939275,59.408521 C35.224942,60.9462483 30.632942,66.6709685 29.6548841,80.0837308 C29.5883333,79.6070175 29.5390145,79.2485909 29.5176232,79.0750245 C27.0576232,56.3413881 22.142971,32.1853392 21.9153913,31.2390455 C21.3776377,29.5081364 16.517058,28.4750594 15.6287246,28.6943951 C15.0838406,28.8215979 15.5681159,29.721528 16.733942,37.3602343 C19.7417971,57.0671573 23.8007971,91.6247098 20.8868261,100.717332 C19.598,104.733731 14.3702029,105.990899 11.7984928,102.172437 C8.80549275,97.7346049 8.25407246,94.8356888 7.45249275,92.4128916 C7.45249275,92.4128916 6.99436232,92.5947797 6.39481159,93.1695699 C5.5962029,93.9381364 5.6377971,93.9286259 5.74178261,95.1917378 C5.9652029,97.9878217 7.16549275,103.437332 9.68313043,107.506633 C14.2555217,114.905199 21.5553043,114.746493 25.2322319,111.628836 C27.516942,109.692262 30.2033333,106.296423 30.717913,98.2927517 C30.8563623,96.1451643 30.8617101,93.7627867 30.826058,91.8535559 C31.326971,94.8309336 32.4226812,100.138381 35.6093913,102.095164 C37.9844203,103.555024 41.8205942,103.585339 43.8355362,101.742682 C45.5504058,99.8720874 45.9966522,98.7379615 46.1862029,98.1489056 C46.5142029,98.2790804 49.7068551,108.472542 55.9501449,103.922367 C58.2063333,102.277647 58.3643913,100.397542 60.0311304,102.615864 C65.7865797,110.296178 75.4619855,107.048941 81.8413478,99.065479 L81.8413478,99.0648846 C82.8217826,97.9141154 84.5526957,95.5145 85.0565797,94.0932762 C85.1777971,93.874535 81.9215652,89.0479615 81.9197826,89.0521224" id="Fill-23" fill="#FFFFFF"></path>
                            <path d="M154.479681,79.2728427 C153.613333,79.6366189 153.266319,80.3861643 153.266319,80.3861643 C150.489609,94.8748007 142.416768,105.594906 129.478594,107.206339 C119.215522,108.488472 109.568043,105.142563 103.074594,94.0711643 C103.074594,94.0711643 100.290754,89.760535 98.4588261,82.8339266 C98.1034928,81.408542 104.428783,75.3848357 112.208087,60.3612343 C113.335884,58.1779825 116.42871,50.6599406 116.275406,49.9002902 C116.025841,47.4436119 114.53142,46.2179476 112.790406,45.6389965 C104.656957,59.1991713 92.9606667,74.104486 92.8424203,71.5972832 C94.390913,51.6430874 92.8394493,19.5992762 92.455,18.9489965 C92.0384638,18.240465 89.0514058,18.5257797 88.2171449,18.5257797 C87.3840725,18.5257797 86.6900435,19.090465 86.6900435,19.090465 C86.6900435,19.090465 85.6044348,21.4591713 84.7731449,42.5391713 C84.3827536,52.4496958 84.0327681,72.1447308 84.0327681,72.1447308 C84.0327681,72.1447308 83.5098696,86.3242762 81.8187681,89.2118986 L81.8365942,99.0772483 C82.7397826,98.0067238 83.3238841,97.2137867 84.2567826,95.7111294 C84.2395507,97.419451 84.2282609,99.2763741 84.2567826,100.399206 C84.3940435,105.914696 84.952,109.482318 86.0637536,110.471409 C87.1761014,111.464066 91.9505217,110.42029 92.6457391,109.569696 C93.3397681,108.719696 91.878029,93.2752552 92.0937246,91.8998007 C92.2494058,91.3101503 92.583942,91.6620385 92.8691594,92.2766538 C100.276493,108.363052 114.205797,116.474906 127.395319,114.694066 C142.108971,112.706374 152.18071,99.204451 155.321072,80.9722483 C155.321072,80.9722483 156.125029,78.5833322 154.479681,79.2728427" id="Fill-25" fill="#FFFFFF"></path>
                        </g>
                    </g>
                </g>
            </g>
        </g>
    </g>
</svg>
