
<svg width="273px" height="445px" viewBox="0 0 273 445" version="1.1" xmlns="http://www.w3.org/2000/svg" xmlns:xlink="http://www.w3.org/1999/xlink">
    <!-- Generator: Sketch 49.1 (51147) - http://www.bohemiancoding.com/sketch -->
    <desc>Created with Sketch.</desc>
    <defs>
        <polygon id="path-1" points="0 0.12909722 95.26068 0.12909722 95.26068 37.7287704 0 37.7287704"></polygon>
        <polygon id="path-3" points="0.161245834 0.188572881 116.534653 0.188572881 116.534653 38.3670544 0.161245834 38.3670544"></polygon>
        <polygon id="path-5" points="1.13026918e-05 3.39e-05 108.548011 3.39e-05 108.548011 113 1.13026918e-05 113"></polygon>
        <polygon id="path-7" points="0.0199373576 0.0860943718 99.7027516 0.0860943718 99.7027516 71.6041188 0.0199373576 71.6041188"></polygon>
        <polygon id="path-9" points="0.334244706 0.533142857 21.6594271 0.533142857 21.6594271 24.2857143 0.334244706 24.2857143"></polygon>
        <polygon id="path-11" points="0.374459412 0.533142857 7.08988824 0.533142857 7.08988824 7.32671429 0.374459412 7.32671429"></polygon>
        <polygon id="path-13" points="0.000111956522 0.00370629371 51.3937533 0.00370629371 51.3937533 86.7523643 0.000111956522 86.7523643"></polygon>
        <polygon id="path-15" points="0.259477899 0.00370629371 51.6545 0.00370629371 51.6545 86.7523643 0.259477899 86.7523643"></polygon>
        <polygon id="path-17" points="0.0647633252 0.14365 78.5005472 0.14365 78.5005472 15.8240969 0.0647633252 15.8240969"></polygon>
        <polygon id="path-19" points="0 59 159.90303 59 159.90303 0.113461538 0 0.113461538"></polygon>
    </defs>
    <g id="Mockups" stroke="none" stroke-width="1" fill="none" fill-rule="evenodd">
        <g id="Mobile" transform="translate(-47.000000, -2285.000000)">
            <g id="Commitments" transform="translate(21.000000, 2112.000000)">
                <g id="Logos" transform="translate(26.000000, 173.000000)">
                    <g id="subway" transform="translate(25.000000, 0.000000)">
                        <g id="Page-1">
                            <g id="Group-3" transform="translate(0.000000, 4.271186)">
                                <mask id="mask-2" fill="white">
                                    <use xlink:href="#path-1"></use>
                                </mask>
                                <g id="Clip-2"></g>
                                <path d="M77.4644417,7.60931959 L81.4546728,7.60931959 C83.0460621,7.6153562 84.3347368,8.91495214 84.3407226,10.5198281 C84.3347368,12.0182009 83.1317884,13.231344 81.6460072,13.2373806 L77.4644417,13.2373806 L77.4644417,7.60931959 Z M77.4644417,19.8358267 L82.2306996,19.8358267 C84.1374165,19.838845 85.6822013,21.3967216 85.6854081,23.3195976 C85.6792084,25.1103148 84.2413143,26.5601793 82.4658592,26.5664315 L77.4644417,26.5664315 L77.4644417,19.8358267 Z M86.0678631,33.6553521 C91.1456005,33.6547054 95.2613214,29.5030267 95.26068,24.3822565 C95.2602525,21.0004613 93.4341312,17.8872952 90.4954911,16.2582728 C94.4170983,13.4460748 95.3355035,7.96030536 92.5469381,4.00546332 C91.0393512,1.86720976 88.6629564,0.520183322 86.0678631,0.333048407 L86.0678631,0.239265356 L67.6146744,0.239265356 L67.6146744,33.6553521 L86.0678631,33.6553521 Z M64.7942555,0.272466712 L64.7942555,21.9139298 C64.7942555,25.7323013 63.5096426,28.7842389 60.9406307,31.0697426 C58.3716188,33.3556776 54.9571012,34.4987528 50.6972917,34.4987528 C46.4411165,34.4987528 43.188859,33.3886633 40.9405193,31.1691311 C38.6921796,28.9493833 37.5661926,25.7579569 37.5625583,21.594205 L37.5625583,0.272466712 L47.4997623,0.272466712 L47.4997623,22.6525521 C47.5057482,24.698963 49.1490863,26.3562281 51.1783,26.3622647 C53.2075137,26.3562281 54.8510656,24.698963 54.8570515,22.6525521 L54.8570515,0.272466712 L64.7942555,0.272466712 Z M21.2409846,8.3149562 L34.1736945,8.29835553 L34.1736945,0.151087729 L19.8197654,0.151087729 C19.6175281,0.140092475 19.4152909,0.12909722 19.2130536,0.12909722 C14.1355299,0.131037559 10.020878,4.28400976 10.0230159,9.40456434 C10.0245123,13.0769793 12.1751539,16.4025047 15.5071518,17.8842769 L24.7119405,22.5201779 C26.8818224,23.6117264 26.5320759,25.596262 24.0778647,25.596262 L10.9320147,25.596262 L10.9320147,21.5006376 L5.46605008,25.5576708 L-0.000128268881,29.6144884 L5.46605008,33.6717372 L10.9320147,37.7287704 L10.9320147,33.633146 L26.5647845,33.8204965 C31.6403841,33.8204965 35.7556774,29.6729142 35.7586703,24.5542999 C35.7586703,21.9415257 35.2449534,19.1245847 32.905329,17.4597738 L20.9895776,11.1980843 C20.0329055,10.6961833 20.1641673,8.32056163 21.2409846,8.32056163 L21.2409846,8.3149562 Z" id="Fill-1" fill="#A7A7A7" mask="url(#mask-2)"></path>
                            </g>
                            <g id="Group-6" transform="translate(97.465347, 0.000000)">
                                <mask id="mask-4" fill="white">
                                    <use xlink:href="#path-3"></use>
                                </mask>
                                <g id="Clip-5"></g>
                                <path d="M96.3335958,34.9709369 L96.8529769,34.9709369 C97.1044351,34.9709369 97.2737846,34.9344183 97.3614528,34.8615946 C97.4514732,34.7906929 97.5021497,34.6813505 97.498087,34.5668827 C97.4985147,34.4925641 97.4756354,34.4199539 97.4326566,34.3595166 C97.3875395,34.2967302 97.3246749,34.2491064 97.2521882,34.2228386 C97.1756389,34.1901641 97.0278857,34.1792725 96.8200478,34.1792725 L96.3282502,34.1792725 L96.3282502,34.9762759 L96.3335958,34.9709369 Z M95.9016692,36.4671336 L95.9016692,33.8132319 L96.8147022,33.8132319 C97.1281697,33.8132319 97.353969,33.838859 97.4927414,33.8898997 C97.6291618,33.9364556 97.7461241,34.0265776 97.8260947,34.146598 C97.9064929,34.2597844 97.9505408,34.395181 97.9518238,34.5339946 C97.9541759,34.7244895 97.8793371,34.9077234 97.7441997,35.0418386 C97.5968742,35.1887675 97.3997275,35.2744047 97.1921034,35.2820929 C97.2748537,35.314981 97.3509754,35.3632454 97.4159782,35.4241098 C97.5662972,35.5838522 97.6982273,35.7596115 97.8096301,35.948398 L98.1322921,36.4671336 L97.6129111,36.4671336 L97.3779174,36.0466353 C97.1921034,35.7190353 97.0387908,35.5114556 96.9241806,35.4294488 C96.8093565,35.3478692 96.7325934,35.3367641 96.5794946,35.3421031 L96.3282502,35.3421031 L96.3282502,36.4671336 L95.9016692,36.4671336 Z M96.9896111,33.0435641 C96.6335924,33.0456997 96.2839884,33.1377437 95.9728729,33.3111539 C95.6474312,33.4862725 95.3797222,33.7517268 95.2018198,34.0754827 C94.8310472,34.7110353 94.8289089,35.4965064 95.1964742,36.133981 C95.373949,36.4560285 95.6393059,36.7212692 95.9619679,36.8983098 C96.5980974,37.2639234 97.3811247,37.2639234 98.0174681,36.8983098 C98.3405577,36.7216963 98.6059146,36.4564556 98.7829618,36.133981 C99.148175,35.4958658 99.1460367,34.7116759 98.7774023,34.0754827 C98.6003552,33.7512997 98.3324324,33.4856319 98.006563,33.3111539 C97.6971582,33.138598 97.3494786,33.0465539 96.9951705,33.0435641 L96.9896111,33.0435641 Z M96.9896111,32.6339573 C97.4166197,32.6367336 97.8361444,32.7477844 98.2088415,32.9560047 C98.5990722,33.163798 98.9202375,33.48072 99.1327796,33.8679031 C99.5724039,34.6313776 99.5745421,35.5706115 99.1381252,36.3360081 C98.9285766,36.7231912 98.6114741,37.0416081 98.225306,37.253459 C97.4610953,37.6889064 96.5236863,37.6889064 95.7594755,37.253459 C95.3715969,37.0420353 95.0527837,36.7236183 94.8410969,36.3360081 C94.4025418,35.5712522 94.40468,34.6309505 94.8466564,33.8679031 C95.0615506,33.4805064 95.3844264,33.163798 95.7761539,32.9560047 C96.1486371,32.7477844 96.5681619,32.6367336 96.9951705,32.6339573 L96.9896111,32.6339573 Z M41.2248927,4.39287254 L41.2248927,28.2000386 C41.2248927,31.1815403 40.1752256,33.6075742 38.0758912,35.478781 C35.9765568,37.3499878 33.2594819,38.2890081 29.9244526,38.2962692 C29.7166146,38.2962692 29.5087767,38.2853776 29.3011525,38.3018217 C27.5024562,38.4273946 23.6206762,38.4765132 20.7233467,35.8499471 C17.9239492,38.6840929 14.0477286,38.3891675 12.6044095,38.3291573 C12.0850284,38.3071607 11.5438372,38.2962692 10.969717,38.2962692 C7.48180273,38.2962692 4.8066375,37.3570353 2.94400747,35.478781 C1.08159126,33.6003132 0.154018185,30.9011369 0.161288237,27.3810386 L0.161245834,4.39287254 L10.0130637,4.39287254 L10.0130637,26.9716454 C10.0160572,28.586581 11.3261633,29.8952725 12.943536,29.8982624 C14.5604811,29.8952725 15.870801,28.586581 15.8737945,26.9716454 L15.8737945,4.39287254 L25.2771789,4.39287254 L25.2771789,26.9716454 C25.2801724,28.586581 26.5904923,29.8952725 28.207865,29.8982624 C29.8248101,29.8952725 31.13513,28.586581 31.1381236,26.9716454 L31.1381236,4.39287254 L41.2248927,4.39287254 Z M61.0759829,20.6430285 L61.0759829,15.1007369 C61.0699958,13.0556929 59.4115687,11.3991132 57.36398,11.3933471 C55.3161775,11.3991132 53.6577504,13.0556929 53.6517633,15.1007369 L53.6517633,20.6430285 L61.0759829,20.6430285 Z M53.6517633,37.4554861 L43.6633536,37.4554861 L43.6633536,16.43292 C43.6633536,12.3778556 44.9262044,9.22529288 47.4521197,6.97565898 C49.9778213,4.72602508 53.5294554,3.60313017 58.1074497,3.60676068 C62.5248615,3.60676068 65.7886871,4.62586576 67.8991404,6.66450305 C70.0093798,8.70314034 71.0643926,11.8482285 71.0643926,16.099981 L71.0643926,37.4554861 L61.0759829,37.4554861 L61.0759829,27.7906454 L53.6517633,27.7906454 L53.6517633,37.4554861 Z M100.833116,12.2067946 L100.833116,19.0103675 C100.833116,23.7552285 97.0772793,27.65952 92.3863853,27.9106658 L92.3863853,37.586398 L81.6925668,37.586398 L81.6925668,27.8833302 C77.1656766,27.4683844 73.5847485,23.6352081 73.5847485,19.0103675 L73.5847485,4.24551661 L83.3599746,4.24551661 L83.3599746,17.4486081 C83.3659617,19.1741675 84.765019,20.5714861 86.4929392,20.5776793 L87.9251394,20.5776793 C89.6528459,20.5714861 91.0519032,19.1741675 91.0578903,17.4486081 L91.0578903,10.4376692 L91.096165,10.4376692 L91.096165,10.3009912 C91.096165,6.9566522 93.810674,4.24573017 97.1591743,4.24551661 L105.600346,4.24551661 L105.600346,0.188530169 L111.067425,4.20728949 L116.534718,8.22626237 L111.067425,12.2450217 L105.600346,16.263781 L105.600346,12.2067946 L100.833116,12.2067946 Z" id="Fill-4" fill="#A7A7A7" mask="url(#mask-4)"></path>
                            </g>
                        </g>
                    </g>
                    <g id="bk" transform="translate(0.000000, 66.000000)">
                        <g id="Page-1">
                            <path d="M37.6049318,86.5487995 C35.3597087,87.4570445 33.6218392,87.8784431 34.8073197,89.4454624 C37.6075278,93.1471683 52.2601708,100.033666 71.271427,93.2918545 C88.8624317,87.0537318 93.9612508,73.9351021 94.2214177,71.0679417 C94.450658,68.5423763 93.2251084,69.0523951 91.6135411,69.4534472 C75.9657176,73.3473145 56.8564896,78.760952 37.6049318,86.5487995 M24.5363156,31.762919 C24.0271561,31.9520284 22.4682995,32.6198456 22.8960792,30.1202786 C23.3818746,27.2827336 28.4941252,11.8016496 48.1051761,7.08815767 C67.716227,2.37455267 79.9463271,9.01644035 84.011138,14.3370492 C85.3984313,16.152974 83.5708296,16.0856045 81.1943379,16.550974 C58.9447097,20.907498 37.8004238,26.8351106 24.5363156,31.762919" id="Fill-1" fill="#A7A7A7"></path>
                            <path d="M73.2331236,90.6529851 C73.2331236,90.6529851 85.5503759,86.2300448 89.0872201,75.3445202 C89.7362831,73.3471545 86.681849,72.4969543 86.2526501,74.5324157 C86.0282574,75.5969464 84.1067683,83.424531 73.2331236,90.6529851 M41.3493336,10.5739817 C41.3493336,10.5739817 30.0202239,15.7739831 27.5350361,26.4296902 C27.0790051,28.3848907 29.2250001,28.3313081 29.520039,26.8314468 C29.7207696,25.81089 31.1026749,18.0198184 41.3493336,10.5739817 M69.8364398,16.4663746 C69.8364398,16.4663746 73.0552624,15.3950612 72.4114073,12.770304 C71.7677787,10.1455468 64.1497514,6.98507646 58.4092857,6.8243286 C58.4092857,6.8243286 71.5304795,5.67998917 76.1130929,12.1542169 C78.6346228,15.7164439 69.8364398,16.4663746 69.8364398,16.4663746" id="Fill-3" fill="#FEFEFE"></path>
                            <g id="Group-7">
                                <mask id="mask-6" fill="white">
                                    <use xlink:href="#path-5"></use>
                                </mask>
                                <g id="Clip-6"></g>
                                <path d="M98.8369646,73.5771589 C91.7697305,89.5366009 77.4786071,101.540026 59.3454726,103.316951 C44.8628815,104.736005 31.3038334,99.4942739 21.4660835,90.0253259 C18.7958226,91.1650439 15.4461569,92.4787819 15.4461569,92.4787819 L15.4461569,83.0478019 C10.1827193,75.6782809 6.78580836,66.7281159 6.0486468,56.8786969 C4.28011462,33.2497189 18.6101194,12.7542309 38.9972366,4.8487509 C47.1603797,1.6832819 58.9529301,-0.3969351 71.9705793,2.1395759 C67.0578643,0.7460599 61.8727545,3.39e-05 56.5134702,3.39e-05 C25.301991,3.39e-05 1.13026918e-05,25.2958749 1.13026918e-05,56.5000339 C1.13026918e-05,87.7041929 25.301991,113.000034 56.5134702,113.000034 C79.88868,113.000034 99.9482453,98.8111889 108.548011,78.5786519 L98.8369646,73.5771589 Z" id="Fill-5" fill="#A7A7A7" mask="url(#mask-6)"></path>
                            </g>
                            <g id="Group-10" transform="translate(12.256604, 18.973881)">
                                <mask id="mask-8" fill="white">
                                    <use xlink:href="#path-7"></use>
                                </mask>
                                <g id="Clip-9"></g>
                                <path d="M74.3497125,33.6003785 C73.572031,39.1742499 76.1165632,41.2198787 79.0153486,41.2914445 C82.514519,41.3778445 82.6441515,39.1309933 82.6441515,39.1309933 L82.6441515,37.1001986 C78.2809156,38.2668808 78.3672995,35.3287169 78.3672995,35.3287169 L78.3672995,32.0880966 L90.1177736,29.5819324 L90.1177736,38.8285369 C90.1177736,43.2789827 87.3571118,47.5673861 78.0947884,48.2419397 C70.8936774,48.7664541 64.7144552,43.797269 66.0406687,33.9206132 C67.3080099,24.4834306 74.6034298,19.7044839 82.3417512,19.7305284 C83.7626134,19.7352844 85.3804717,19.9425084 86.631623,20.2390764 C89.772238,20.9834973 90.5930548,23.014292 90.1177736,24.785887 C89.1754758,28.298616 86.1865704,27.1622814 83.1193195,26.7734251 C80.0520685,26.3845688 75.1272808,28.026394 74.3497125,33.6003785 Z M64.4514541,48.4533534 C64.4514541,48.4533534 64.5281014,52.0246261 60.6602993,52.6198005 C59.3071404,52.8280435 57.6936975,52.2970746 56.5830474,51.0530515 C54.8973727,49.1647091 48.2854385,41.6091879 48.2854385,41.6091879 L48.2854385,51.8578278 C48.2854385,51.8578278 48.3033266,55.7749267 44.3690667,56.9730888 L40.5065857,58.3516376 L40.5065857,30.3946353 L44.923486,29.053115 C44.923486,29.053115 47.3913708,28.0873155 49.5908203,30.5555453 L56.8333683,38.979935 L56.8333683,30.0190278 C56.8333683,30.0190278 56.7262658,26.0227762 60.58886,25.1491517 L64.4515655,24.1997716 L64.4514541,48.4533534 Z M69.5054215,20.1028521 L60.4278667,22.18483 L60.4278667,3.78017253 L71.4525122,1.54317299 C71.4525122,1.54317299 71.4544369,3.31725913 71.4525122,3.78017253 C71.4449267,5.70984649 69.4785892,6.04446221 69.4785892,6.04446221 L65.497571,6.95749321 L65.497571,9.61369661 L70.8355976,8.49196958 C70.8355976,8.49196958 70.8375222,9.83677376 70.8355976,10.2995739 C70.8280121,12.2292479 69.038405,12.4996582 69.038405,12.4996582 L65.497571,13.3208538 L65.497571,16.8587215 L71.4793444,15.6015629 C71.4793444,15.6015629 71.4812691,17.3757623 71.4793444,17.8385624 C71.4717589,19.7683496 69.5054215,20.1028521 69.5054215,20.1028521 Z M43.474999,15.3703327 C43.743208,11.1313007 47.1231618,3.94108249 56.7261526,5.33616396 C57.9869273,5.51938163 59.0330441,6.36922631 59.0330441,7.64348375 C59.0330441,8.91785444 58.0001735,9.95080355 56.7261526,9.95080355 C56.7261526,9.95080355 49.3762757,8.23378892 49.0544023,15.584917 C48.9235245,18.5742641 49.7730982,20.0838283 51.2003005,20.3067922 C52.9169965,20.5751642 54.2172835,19.7735586 54.3655966,19.1800827 C54.4192611,18.9653851 54.3119322,16.9801118 54.3119322,16.9801118 C54.3119322,16.9801118 51.6831673,17.6776525 51.6295028,15.9605246 C51.5759516,14.24351 51.6831673,13.6532048 51.6831673,13.6532048 L59.0330441,11.9361902 L59.0330441,19.3946671 C59.0330441,19.3946671 59.1939242,23.8482835 52.166034,24.653173 C45.1380305,25.4580626 43.20679,19.6092515 43.474999,15.3703327 Z M77.5952789,4.20934126 C77.5952789,4.20934126 80.7817464,3.08410388 80.5995817,5.49718716 C80.3850371,8.34113772 77.5952789,9.03867846 77.5952789,9.03867846 L77.5952789,4.20934126 Z M77.8634878,15.9605246 L77.8634878,12.3452027 L82.0480686,16.9801118 C82.0480686,16.9801118 83.8720934,19.0190595 85.9644404,17.0798737 C87.6199997,15.5455105 85.5352381,13.4864065 85.5352381,13.4864065 L82.7454799,9.95080355 C82.7454799,9.95080355 85.6962314,8.50204769 85.642567,4.42403886 C85.590148,0.446811075 81.6188663,-0.452404989 78.1316968,0.358372875 C76.9952335,0.622668341 72.7132868,1.36403184 72.7132868,1.36403184 L72.7132868,19.5742612 L75.8785829,18.8854397 C75.8785829,18.8854397 77.8634878,18.5897776 77.8634878,15.9605246 Z M37.6273867,15.2629839 C37.4130686,18.4771066 34.5694195,19.3409927 34.5694195,19.3409927 L34.5694195,14.0824868 C34.5694195,14.0824868 37.7882668,12.8484285 37.6273867,15.2629839 Z M43.0457967,26.5312109 C44.6016126,24.7068474 42.6165944,22.882484 42.6165944,22.882484 L39.6659561,19.8776235 C39.6659561,19.8776235 42.8421209,18.2149627 42.7775877,13.4386205 C42.7239233,9.46796042 38.3783492,9.03867846 34.8912929,10.2727367 C33.7547163,10.674955 29.4727697,11.9361902 29.4727697,11.9361902 L29.4727697,30.9311529 L32.6380658,29.8580046 C32.6380658,29.8580046 34.6229707,29.3213738 34.6229707,26.6922341 L34.6229707,22.2921788 L39.1295381,26.7994696 C39.1295381,26.7994696 41.2133939,28.6798855 43.0457967,26.5312109 Z M28.0242827,15.2093095 C28.0242827,15.2093095 28.0779472,24.1702167 28.0242827,25.6190858 C27.9706183,27.0678416 28.2924917,32.2726732 21.6401393,34.3652954 C14.4535201,36.6260747 14.2903756,30.1262633 14.2903756,30.1262633 L14.2903756,16.9801118 C14.2903756,16.9801118 16.4362739,16.1752222 16.9191406,16.014199 C19.527187,15.1446511 19.4941279,17.4629549 19.4941279,17.4629549 L19.4941279,28.0336411 C19.4941279,28.0336411 19.3332478,30.0727022 20.9963925,29.8580046 C23.0883998,29.5880473 22.8739685,27.3897748 22.8739685,27.3897748 L22.8739685,13.9215768 C22.8739685,13.9215768 24.1615754,13.4922949 25.2881889,13.1703617 C28.1267433,12.3591309 28.0242827,15.2093095 28.0242827,15.2093095 Z M5.00925828,36.4579176 L5.00925828,31.4141092 C5.00925828,31.4141092 8.50027714,29.7508822 8.38909892,32.8091907 C8.28165683,35.7603768 5.00925828,36.4579176 5.00925828,36.4579176 Z M5.00925828,23.9556323 C5.00925828,23.9556323 8.12077673,22.5068764 8.01344785,25.082455 C7.90611898,27.6580336 5.00925828,28.3018999 5.00925828,28.3018999 L5.00925828,23.9556323 Z M13.8075089,31.8970656 C13.6213816,29.1047512 10.4813327,28.1946643 10.4813327,28.1946643 C10.4813327,28.1946643 13.4319711,26.4775365 13.0027688,22.7214608 C12.4208379,17.6289605 6.4040808,20.0385334 6.4040808,20.0385334 L0.0199373576,22.3995276 L0.0199373576,42.6286618 C0.0199373576,42.6286618 4.1508537,40.9116472 8.38909892,39.0336094 C12.7104448,37.1186562 14.0220534,35.1165105 13.8075089,31.8970656 Z M37.8419313,55.1310603 C37.8419313,55.1310603 37.9134839,59.0659374 34.0507765,60.4253492 L29.0436806,62.2140429 L29.0436806,38.1750454 C29.0436806,38.1750454 28.9721281,34.2400551 32.8348354,32.8807566 L37.8419313,31.0921761 L37.8419313,55.1310603 Z M26.1422913,57.1242603 C27.8887631,58.8709431 27.8887631,61.703117 26.1422913,63.449913 C24.3958195,65.1965957 21.5642845,65.1965957 19.8178127,63.449913 L12.6272309,56.257883 L12.6272309,65.0578803 C12.6272309,65.0578803 12.7345598,68.0626275 10.5349971,69.0285403 C7.78667598,70.2351952 4.25806936,71.6041188 4.25806936,71.6041188 L4.25806936,43.9701821 L12.6272309,40.4286908 L12.6272309,50.4558389 L19.9159711,38.0835498 C20.9931092,36.2590732 23.3110959,35.8260544 25.2807167,36.6062582 C27.2699238,37.3941622 27.963146,39.5574443 26.5221313,41.9847955 L20.6830103,51.6639658 L26.1422913,57.1242603 Z M94.7088002,55.1306074 C92.6296995,55.1306074 90.9442512,53.4152913 90.9442512,51.2993423 C90.9442512,49.1835064 92.6296995,47.4681904 94.7088002,47.4681904 C96.7880141,47.4681904 98.4734624,49.1835064 98.4734624,51.2993423 C98.4734624,53.4152913 96.7880141,55.1306074 94.7088002,55.1306074 Z M94.7088002,46.2171465 C91.9508557,46.2171465 89.7149506,48.4925335 89.7149506,51.2993423 C89.7149506,54.106151 91.9508557,56.3816512 94.7088002,56.3816512 C97.4669711,56.3816512 99.7028762,54.106151 99.7028762,51.2993423 C99.7028762,48.4925335 97.4669711,46.2171465 94.7088002,46.2171465 Z M93.8637551,49.3227881 L95.1363042,49.3227881 C95.5609779,49.3227881 95.9052681,49.6671422 95.9052681,50.0918947 C95.9052681,50.516534 95.5609779,50.8608881 95.1363042,50.8608881 L93.8637551,50.8608881 L93.8637551,49.3227881 Z M96.9368933,50.0918947 C96.9368933,49.2369544 96.2441239,48.5440564 95.3893422,48.5440564 L92.7880888,48.5440564 L92.7880888,54.0547414 L93.8637551,54.0547414 L93.8637551,51.6397331 L94.4596115,51.6397331 L95.8393763,54.0547414 L96.9150426,54.0547414 L95.5310888,51.6325991 C96.3192994,51.56092 96.9368933,50.8988225 96.9368933,50.0918947 Z" id="Fill-8" fill="#A7A7A7" mask="url(#mask-8)"></path>
                            </g>
                        </g>
                    </g>
                    <g id="starbucks" transform="translate(23.000000, 203.000000)">
                        <g id="Page-1">
                            <path d="M154.760139,13.6076429 C154.760139,20.6690714 150.808421,24.4669286 143.454468,24.4669286 C136.256392,24.4669286 132.205739,20.6162143 132.205739,13.7140714 L132.205739,1.14264286 L140.313451,1.14264286 L140.313451,13.2862143 C140.313451,16.6569286 141.215968,18.1540714 143.404645,18.1540714 C145.585492,18.1540714 146.651715,16.8176429 146.651715,12.9655 L146.651715,1.14264286 L154.760139,1.14264286 L154.760139,13.6076429 Z" id="Fill-1" fill="#A7A7A7"></path>
                            <polygon id="Fill-3" fill="#A7A7A7" points="38.3824812 6.97335714 38.3824812 6.97335714 38.3824812 24.0397857 30.1729871 24.0397857 30.1729871 6.97335714 23.2966282 6.97335714 23.2966282 1.14264286 45.2595518 1.14264286 45.2595518 6.97335714"></polygon>
                            <path d="M64.3445259,24.0394286 L62.95872,19.813 L55.2289553,19.813 L53.7890553,24.0394286 L45.6329435,24.0394286 L53.89582,1.14228571 L64.2911435,1.14228571 L72.5006376,24.0394286 L64.3445259,24.0394286 Z M59.0667906,6.38514286 L57.0403965,14.1965714 L61.1458553,14.1965714 L59.0667906,6.38514286 Z" id="Fill-5" fill="#A7A7A7"></path>
                            <g id="Group-9" transform="translate(159.435294, 0.181357)">
                                <mask id="mask-10" fill="white">
                                    <use xlink:href="#path-9"></use>
                                </mask>
                                <g id="Clip-8"></g>
                                <path d="M21.6594271,22.0395714 L19.2009918,16.1545714 C17.7084212,17.2245714 16.2735035,18.1874286 13.8712976,18.1874286 C10.6733388,18.1874286 8.54160353,15.566 8.54160353,12.3017143 C8.54160353,9.03885714 10.4106976,6.25671429 13.7645329,6.25671429 C15.8962682,6.25671429 17.7084212,7.32671429 19.2009918,8.50385714 L21.6024859,2.726 C18.8814094,1.33528571 16.1660271,0.533142857 12.4356682,0.533142857 C5.55717412,0.533142857 0.334244706,5.24028571 0.334244706,12.2488571 C0.334244706,19.6317143 5.39346824,24.286 12.6983094,24.286 C16.6991388,24.286 19.5205741,23.3767143 21.6594271,22.0395714" id="Fill-7" fill="#A7A7A7" mask="url(#mask-10)"></path>
                            </g>
                            <polygon id="Fill-10" fill="#A7A7A7" points="199.534623 24.0394286 199.534623 24.0394286 194.368635 15.6937143 194.368635 24.0394286 186.423917 24.0394286 186.423917 1.14228571 194.368635 1.14228571 194.368635 9.54157143 199.215041 1.14228571 208.069394 1.14228571 200.600846 12.4301429 209.028852 24.0394286"></polygon>
                            <path d="M9.59558471,24.4670714 C14.7672671,24.4670714 20.1510553,22.6485 20.1510553,16.7642143 C20.1510553,11.5213571 15.6733435,10.0770714 12.1550906,9.32778571 C9.54291412,8.7385 8.26244941,8.47135714 8.26244941,7.40135714 C8.26244941,6.01064286 10.0753141,5.90421429 10.9813906,5.90421429 C13.3807494,5.90421429 15.5665788,6.86635714 17.4862082,8.0435 L19.6186553,2.85421429 C16.7922376,1.62421429 13.4341318,0.714214286 10.2888435,0.714214286 C4.95772588,0.714214286 0.746214118,3.28207143 0.746214118,8.52564286 C0.746214118,12.8049286 3.99826706,14.4627857 7.56990235,15.3192143 C10.0226435,15.9613571 11.6219788,16.1213571 11.6219788,17.3520714 C11.6219788,18.5827857 10.3948965,18.9570714 9.22333176,18.9570714 C6.61115529,18.9570714 4.15841412,17.8342143 2.61174941,16.4963571 L0.000284705882,21.5256429 C2.82527882,23.3442143 6.18409647,24.4670714 9.59558471,24.4670714" id="Fill-12" fill="#A7A7A7"></path>
                            <path d="M221.130134,24.4670714 C226.296122,24.4670714 231.625816,22.6485 231.625816,16.7642143 C231.625816,11.5213571 227.148816,10.0770714 223.688216,9.32778571 C221.073192,8.7385 219.794151,8.47135714 219.794151,7.40135714 C219.794151,6.01064286 221.556481,5.90421429 222.515939,5.90421429 C224.860492,5.90421429 227.099704,6.86635714 228.960969,8.0435 L231.092704,2.85421429 C228.321804,1.62421429 224.967969,0.714214286 221.819834,0.714214286 C216.432486,0.714214286 212.225957,3.28207143 212.225957,8.52564286 C212.225957,12.8049286 215.473739,14.4627857 219.048222,15.3192143 C221.556481,15.9613571 223.098875,16.1213571 223.098875,17.3520714 C223.098875,18.5827857 221.925886,18.9570714 220.75361,18.9570714 C218.138586,18.9570714 215.636734,17.8342143 214.087934,16.4963571 L211.529851,21.5256429 C214.300751,23.3442143 217.712239,24.4670714 221.130134,24.4670714" id="Fill-14" fill="#A7A7A7"></path>
                            <g id="Group-18" transform="translate(234.882353, 0.181357)">
                                <mask id="mask-12" fill="white">
                                    <use xlink:href="#path-11"></use>
                                </mask>
                                <g id="Clip-17"></g>
                                <path d="M3.94182412,3.796 C4.42511235,3.796 4.74469471,3.58242857 4.74469471,3.15457143 C4.74469471,2.77957143 4.47493588,2.56528571 3.94182412,2.56528571 L2.93254176,2.56528571 L2.93254176,3.796 L3.94182412,3.796 Z M2.44925353,2.08457143 L3.99876529,2.08457143 C4.42511235,2.08457143 4.79451824,2.24457143 5.00733588,2.45885714 C5.17175353,2.61957143 5.27780647,2.83314286 5.27780647,3.10028571 L5.27780647,3.15457143 C5.27780647,3.68957143 4.90128294,4.06385714 4.36817118,4.17028571 L5.43439471,5.56171429 L4.85145941,5.56171429 L3.83577118,4.22457143 L3.78523588,4.22457143 L2.93254176,4.22457143 L2.93254176,5.56171429 L2.44925353,5.56171429 L2.44925353,2.08457143 Z M6.60667118,3.90314286 C6.60667118,2.29814286 5.43439471,0.961 3.78523588,0.961 C2.07984765,0.961 0.800806471,2.29814286 0.800806471,3.90314286 L0.800806471,3.95671429 C0.800806471,5.56171429 2.07984765,6.89957143 3.72829471,6.89957143 C5.43439471,6.89957143 6.60667118,5.56171429 6.60667118,3.90314286 Z M0.374459412,3.95671429 L0.374459412,3.90314286 C0.374459412,2.08457143 1.86703,0.533142857 3.78523588,0.533142857 C5.64721235,0.533142857 7.08995941,2.031 7.08995941,3.90314286 C7.08995941,5.77528571 5.64721235,7.32671429 3.72829471,7.32671429 C1.81008882,7.32671429 0.374459412,5.77528571 0.374459412,3.95671429 Z" id="Fill-16" fill="#A7A7A7" mask="url(#mask-12)"></path>
                            </g>
                            <path d="M90.4149724,9.00664286 C90.4149724,10.5052143 89.4555135,11.4137857 87.9067135,11.4137857 L85.1351018,11.4137857 L85.1351018,6.59878571 L87.9636547,6.59878571 C89.4555135,6.59878571 90.4149724,7.40164286 90.4149724,8.95307143 L90.4149724,9.00664286 Z M94.08839,15.4802143 C96.9169429,14.4630714 98.4088018,11.6280714 98.4088018,9.00664286 C98.4088018,3.60378571 94.7282665,1.14235714 89.5053371,1.14235714 L77.1910959,1.14235714 L77.1910959,24.0395 L85.1351018,24.0395 L85.1351018,17.2452143 L87.1102488,17.2452143 L91.2107253,24.0395 L99.7447841,24.0395 L94.08839,15.4802143 Z" id="Fill-19" fill="#A7A7A7"></path>
                            <path d="M118.505336,16.9245 C118.505336,18.2616429 117.496054,19.0637857 115.89743,19.0637857 L113.019054,19.0637857 L113.019054,14.7845 L115.946542,14.7845 C117.496054,14.7845 118.505336,15.4802143 118.505336,16.8709286 L118.505336,16.9245 Z M113.019054,6.11735714 L115.89743,6.11735714 C117.389289,6.11735714 118.348036,6.7595 118.348036,8.09735714 L118.348036,8.15021429 C118.348036,9.43521429 117.439112,10.1830714 115.840489,10.1830714 L113.019054,10.1830714 L113.019054,6.11735714 Z M121.810059,12.3237857 C124.744665,11.6816429 126.235812,10.0230714 126.235812,7.24092857 C126.235812,3.33592857 123.301206,1.14235714 118.185754,1.14235714 L105.181101,1.14235714 L105.181101,24.0395 L117.652642,24.0395 C123.678442,24.0395 126.719812,21.8995 126.719812,17.5659286 C126.719812,14.5702143 124.793777,12.5916429 121.810059,12.3237857 Z" id="Fill-21" fill="#A7A7A7"></path>
                        </g>
                    </g>
                    <g id="jack-in-the-box" transform="translate(156.000000, 65.000000)">
                        <g id="Page-1">
                            <g id="Group-3" transform="translate(0.000000, 0.366923)">
                                <mask id="mask-14" fill="white">
                                    <use xlink:href="#path-13"></use>
                                </mask>
                                <g id="Clip-2"></g>
                                <path d="M51.3937533,0.0035951049 L5.9696337,12.9711755 C3.90403587,13.5152594 0.000111956522,15.9721615 0.000111956522,21.3663014 L0.000111956522,65.3840986 C0.000111956522,70.7756441 3.9029163,73.2325462 5.96590181,73.7792245 L51.3937533,86.7523643 L51.3937533,0.0035951049 Z" id="Fill-1" fill="#A7A7A7" mask="url(#mask-14)"></path>
                            </g>
                            <g id="Group-6" transform="translate(50.753623, 0.370629)">
                                <mask id="mask-16" fill="white">
                                    <use xlink:href="#path-15"></use>
                                </mask>
                                <g id="Clip-5"></g>
                                <path d="M0.259477899,0.0035951049 L45.6854634,12.9711755 C47.750688,13.5152594 51.654612,15.9721615 51.654612,21.3663014 L51.654612,65.3840986 C51.654612,70.7756441 47.7521808,73.2325462 45.6884489,73.7792245 L0.259477899,86.7523643 L0.259477899,0.0035951049 Z" id="Fill-4" fill="#A7A7A7" mask="url(#mask-16)"></path>
                            </g>
                            <path d="M33.3853975,105.996257 C33.7757525,105.996257 34.095575,105.678998 34.095575,105.29132 L34.095575,104.700907 C34.095575,104.313229 33.7757525,103.99597 33.3853975,103.99597 L31.572075,103.99597 C31.1813467,103.99597 30.8618975,103.67797 30.8618975,103.289921 L30.8622707,98.7026413 L33.3853975,98.7026413 C33.7757525,98.7026413 34.095575,98.3853825 34.095575,97.9973336 L34.095575,97.4084035 C34.095575,97.0203545 33.7757525,96.7030958 33.3853975,96.7030958 L30.8622707,96.7030958 L30.8622707,94.6790888 C30.8622707,94.2910399 30.5428214,93.9737811 30.1520931,93.9737811 L29.4094482,93.9737811 C29.0190931,93.9737811 28.6992707,94.2910399 28.6992707,94.6790888 L28.6992707,103.879963 C28.6992707,105.043739 29.6583649,105.995886 30.8301764,105.995886 L33.3853975,105.996257 Z M10.0409699,94.1235154 C10.0409699,93.7354664 9.72114746,93.4178371 9.3304192,93.4178371 L8.58814746,93.4178371 C8.1974192,93.4178371 7.87796993,93.7354664 7.87796993,94.1235154 L7.87796993,94.7128161 C7.87796993,95.1004944 8.1974192,95.4177531 8.58814746,95.4177531 L9.3304192,95.4177531 C9.72114746,95.4177531 10.0409699,95.1004944 10.0409699,94.7128161 L10.0409699,94.1235154 Z M10.0409699,105.290208 C10.0409699,105.678257 9.72114746,105.995515 9.3304192,105.995515 L8.58814746,105.995515 C8.1974192,105.995515 7.87796993,105.678257 7.87796993,105.290208 L7.87796993,97.4084035 C7.87796993,97.0203545 8.1974192,96.7030958 8.58814746,96.7030958 L9.3304192,96.7030958 C9.72114746,96.7030958 10.0409699,97.0203545 10.0409699,97.4084035 L10.0409699,105.290208 Z M65.3892888,103.995229 L65.3945134,98.7026413 L69.6544591,98.7026413 C70.0451873,98.7026413 70.3642634,99.0202706 70.3638902,99.4083196 L70.3657562,99.4075783 L70.3657562,103.289921 C70.3657562,103.67797 70.0466801,103.995229 69.6555786,103.995229 L65.3892888,103.995229 Z M70.3978504,96.7019839 L65.3948866,96.7019839 L65.3948866,94.6790888 C65.3948866,94.2910399 65.0758105,93.9737811 64.6850822,93.9737811 L63.9420641,93.9737811 C63.5517091,93.9737811 63.2322598,94.2910399 63.2322598,94.6790888 L63.2322598,105.41511 C63.2322598,105.733851 63.5517091,105.995515 63.9420641,105.995515 L70.3978504,105.994033 C71.5692888,105.994033 72.528383,105.042257 72.528383,103.87811 L72.528383,98.817907 C72.528383,97.6541308 71.5692888,96.7019839 70.3978504,96.7019839 Z" id="Fill-7" fill="#A7A7A7"></path>
                            <path d="M43.4514457,96.6925329 L38.4488551,96.6925329 L38.4488551,94.6685259 C38.4488551,94.2804769 38.1290326,93.9632182 37.7383043,93.9632182 L36.9960326,93.9632182 C36.6053043,93.9632182 36.2858551,94.2804769 36.2858551,94.6685259 L36.2858551,105.404547 C36.2858551,105.723288 36.6053043,105.984952 36.9960326,105.984952 L37.7383043,105.984952 C38.1290326,105.984952 38.4484819,105.723288 38.4484819,105.404547 L38.4477355,98.692449 L42.7080543,98.692449 C43.0987826,98.692449 43.4182319,99.0097077 43.4174855,99.3977566 L43.4193514,105.404547 C43.4193514,105.723288 43.7388007,105.984952 44.1291558,105.984952 L44.8718007,105.984952 C45.262529,105.984952 45.5819783,105.723288 45.5819783,105.404547 L45.5819783,98.8084559 C45.5819783,97.6446797 44.6232572,96.6925329 43.4514457,96.6925329" id="Fill-9" fill="#A7A7A7"></path>
                            <path d="M19.6566917,105.406659 C19.6566917,105.725401 19.9761409,105.987065 20.3668692,105.987065 L21.1091409,105.987065 C21.4998692,105.987065 21.8193185,105.725401 21.8193185,105.406659 L21.8193185,98.8105685 C21.8193185,97.6467923 20.8605975,96.6946455 19.6887859,96.6946455 L13.2333728,96.6946455 C12.8430178,96.6946455 12.5231953,97.0122748 12.5231953,97.3999531 L12.5231953,105.406659 C12.5231953,105.725401 12.8430178,105.987065 13.2333728,105.987065 L13.9756446,105.987065 C14.3663728,105.987065 14.6861953,105.725401 14.6861953,105.406659 L14.6850757,98.6945615 L18.9453946,98.6945615 C19.3361228,98.6945615 19.6555721,99.0118203 19.6548257,99.3998692 L19.6566917,105.406659 Z" id="Fill-11" fill="#A7A7A7"></path>
                            <path d="M93.1531254,96.9074979 L90.2124007,99.8280573 L87.2713029,96.9074979 C86.9955167,96.6336028 86.5435855,96.6336028 86.2670529,96.9074979 L85.7416036,97.4297147 C85.4654442,97.7039804 85.4654442,98.1531832 85.7416036,98.4278196 L88.6823283,101.347638 L85.7416036,104.268568 C85.4654442,104.543204 85.4654442,104.991666 85.7416036,105.266302 L86.2670529,105.788519 C86.5435855,106.062785 86.9955167,106.062785 87.2713029,105.788519 L90.2124007,102.867959 L93.1531254,105.788519 C93.4292848,106.062785 93.8815891,106.062785 94.1577486,105.788519 L94.683571,105.266302 C94.9597304,104.991666 94.9597304,104.543204 94.683571,104.268568 L91.7424732,101.347638 L94.683571,98.4278196 C94.9597304,98.1528126 94.9597304,97.7039804 94.683571,97.4297147 L94.1577486,96.9074979 C93.8812159,96.6336028 93.4292848,96.6336028 93.1531254,96.9074979" id="Fill-13" fill="#A7A7A7"></path>
                            <path d="M81.5420025,99.3853776 C81.5420025,98.996958 81.2225533,98.6800699 80.831825,98.6800699 L77.2809373,98.6800699 C76.8902091,98.6800699 76.5707598,98.996958 76.5707598,99.3853776 L76.5707598,103.269203 C76.5707598,103.656881 76.8902091,103.97414 77.2809373,103.97414 L80.831825,103.97414 C81.2225533,103.97414 81.5420025,103.656881 81.5420025,103.269203 L81.5420025,99.3853776 Z M83.7042562,103.857021 C83.7042562,105.021168 82.7459083,105.972944 81.5737236,105.972944 L76.5386656,105.972944 C75.366854,105.972944 74.408133,105.021168 74.408133,103.857021 L74.408133,98.7968182 C74.408133,97.633042 75.366854,96.6808951 76.5386656,96.6808951 L81.5737236,96.6808951 C82.7459083,96.6808951 83.7042562,97.633042 83.7042562,98.7968182 L83.7042562,103.857021 Z" id="Fill-15" fill="#A7A7A7"></path>
                            <path d="M49.7280641,100.392674 L54.4015025,100.392674 L54.4015025,99.2066601 C54.4015025,98.8812476 54.1458685,98.6362615 53.8058938,98.6362615 L50.2990424,98.6362615 C49.9728757,98.6362615 49.7280641,98.8812476 49.7280641,99.2066601 L49.7280641,100.392674 Z M49.7247054,102.39259 L49.7247054,103.223912 C49.7247054,103.612331 50.0441547,103.92922 50.434883,103.92922 L53.3002236,103.92922 L55.5796583,103.92922 C55.9700134,103.92922 56.2898359,104.246478 56.2898359,104.634157 L56.2898359,105.223457 C56.2898359,105.611506 55.9700134,105.928765 55.5796583,105.928765 L49.6911185,105.928765 C48.5196801,105.928765 47.5605859,104.981066 47.5605859,103.822478 L47.5605859,98.7504154 C47.5605859,97.5866392 48.5196801,96.6344923 49.6911185,96.6344923 L54.4350895,96.6344923 C55.6065279,96.6344923 56.5656221,97.5866392 56.5656221,98.7504154 L56.5656221,101.686171 C56.5656221,102.07459 56.2461728,102.391849 55.8554446,102.391849 L49.7247054,102.39259 Z" id="Fill-17" fill="#A7A7A7"></path>
                            <path d="M97.1403076,95.5733804 C97.3586228,95.5733804 97.5515612,95.5515133 97.5515612,95.2965203 C97.5515612,95.083779 97.3414562,95.0582056 97.1656844,95.0582056 L96.8145141,95.0582056 L96.8145141,95.5733804 L97.1403076,95.5733804 Z M96.8145141,96.5729678 L96.523054,96.5729678 L96.523054,94.8113664 L97.1959127,94.8113664 C97.624333,94.8113664 97.8430214,94.9607301 97.8430214,95.3180168 C97.8430214,95.6371287 97.6459779,95.7687021 97.3802678,95.7987231 L97.8773547,96.5729678 L97.5474562,96.5729678 L97.0888076,95.819849 L96.8145141,95.819849 L96.8145141,96.5729678 Z M97.1313511,94.3477091 C96.4375938,94.3477091 95.8975902,94.8880867 95.8975902,95.6623315 C95.8975902,96.3858 96.3693004,96.9773245 97.1313511,96.9773245 C97.8168982,96.9773245 98.3569018,96.4410238 98.3569018,95.6623315 C98.3569018,94.8880867 97.8168982,94.3477091 97.1313511,94.3477091 Z M97.1313511,97.2534434 C96.2103221,97.2534434 95.5550033,96.5688909 95.5550033,95.6623315 C95.5550033,94.7049958 96.283467,94.0712196 97.1313511,94.0712196 C97.9713982,94.0712196 98.699862,94.7049958 98.699862,95.6623315 C98.699862,96.6196671 97.9713982,97.2534434 97.1313511,97.2534434 Z" id="Fill-19" fill="#A7A7A7"></path>
                            <path d="M97.1403076,95.5733804 C97.3586228,95.5733804 97.5515612,95.5515133 97.5515612,95.2965203 C97.5515612,95.083779 97.3414562,95.0582056 97.1656844,95.0582056 L96.8145141,95.0582056 L96.8145141,95.5733804 L97.1403076,95.5733804 Z M96.8145141,96.5729678 L96.523054,96.5729678 L96.523054,94.8113664 L97.1959127,94.8113664 C97.624333,94.8113664 97.8430214,94.9607301 97.8430214,95.3180168 C97.8430214,95.6371287 97.6459779,95.7687021 97.3802678,95.7987231 L97.8773547,96.5729678 L97.5474562,96.5729678 L97.0888076,95.819849 L96.8145141,95.819849 L96.8145141,96.5729678 Z M97.1313511,94.3477091 C96.4375938,94.3477091 95.8975902,94.8880867 95.8975902,95.6623315 C95.8975902,96.3858 96.3693004,96.9773245 97.1313511,96.9773245 C97.8168982,96.9773245 98.3569018,96.4410238 98.3569018,95.6623315 C98.3569018,94.8880867 97.8168982,94.3477091 97.1313511,94.3477091 Z M97.1313511,97.2534434 C96.2103221,97.2534434 95.5550033,96.5688909 95.5550033,95.6623315 C95.5550033,94.7049958 96.283467,94.0712196 97.1313511,94.0712196 C97.9713982,94.0712196 98.699862,94.7049958 98.699862,95.6623315 C98.699862,96.6196671 97.9713982,97.2534434 97.1313511,97.2534434 Z" id="Fill-21" fill-opacity="0.4" fill="#222222"></path>
                            <path d="M27.2337971,48.0662189 C27.0763116,51.2317643 26.9292754,53.2439112 26.6519964,56.1800371 C26.4687609,58.1295476 26.0735543,59.9548972 24.7226123,59.8492678 C23.8474855,59.6517224 22.8156196,59.1754636 22.2789746,55.6344706 C21.7415833,52.0934776 22.2610616,48.6614497 22.7682246,45.8698692 C23.0555797,44.2846874 23.896,42.6479881 24.5666196,42.0208832 C26.3209783,40.3834427 27.409942,41.8155545 27.3897899,44.7372259 C27.3793406,46.1311629 27.2658913,47.4279951 27.2337971,48.0662189 M51.4496196,55.5266175 C50.3069167,57.6655196 45.5610797,62.8584077 42.8435217,62.1241909 C40.3950326,61.4626175 38.9257899,59.2518133 38.694413,52.9551909 C38.5044601,47.7767573 40.1692536,40.0302329 42.6744674,38.8597853 C42.9797355,38.7174636 42.8868116,38.7315476 43.1611051,38.9053727 C43.6656558,39.2230021 44.8408261,39.9635196 44.850529,45.6189531 C44.8531413,46.7349182 44.7206594,48.045093 44.6523659,48.7478063 C44.5922826,49.340072 44.5922826,49.340072 44.7348406,49.3997434 C45.0990725,49.5546664 45.852913,49.7184846 47.4729239,49.7129252 C49.1395833,49.7032888 49.3157283,48.3994147 49.4228333,47.6207224 L49.432163,47.548079 C50.2890036,41.304086 49.3474493,36.5700371 46.9765833,34.2154287 C46.0006957,33.2488273 44.5840725,32.8300161 43.3118732,33.0031 C39.1911268,33.5112329 32.8820036,43.2154217 34.621808,59.5453517 C34.6180761,60.3177434 34.2407826,60.7836245 33.8310217,60.9615266 C33.2369058,61.1201559 32.9920942,60.9978483 32.4162645,60.3785266 C31.8411812,59.7595755 31.2843841,58.2444427 31.1134638,56.5829112 C30.8888043,54.4062049 30.9813551,46.2556944 32.8846159,37.7338133 C33.1868986,36.3847224 33.2122754,36.2768692 32.8846159,35.9181 C32.6218913,35.6245615 32.1610036,35.6156664 31.3508116,35.7027643 L30.9235109,35.7527993 C30.0737609,35.842121 29.7755833,35.3425126 29.4113514,36.9425196 C29.0116667,38.7078273 28.073471,37.5121769 27.5043587,37.1823168 C26.6557283,36.6219252 25.0379565,36.3947294 23.8620399,37.0429601 C22.1229819,38.0017783 19.2389819,41.5713098 18.6247138,49.9345615 C18.5829167,49.6373168 18.551942,49.4138273 18.5385072,49.3056035 C16.9935072,35.1305126 13.9068659,20.0685056 13.7639348,19.4784636 C13.4261993,18.3991909 10.3735181,17.7550371 9.81560145,17.8917993 C9.47338768,17.971114 9.77753623,18.5322469 10.5097319,23.2952049 C12.3988116,35.583051 14.9480616,57.1307014 13.1179457,62.8002189 C12.3085,65.3045615 9.02518841,66.0884427 7.41002899,63.7075196 C5.53027899,60.9404007 5.18396014,59.1328413 4.68052899,57.6221559 C4.68052899,57.6221559 4.39280072,57.7355685 4.01625362,58.0939671 C3.51468841,58.5731909 3.54081159,58.5672608 3.60611957,59.3548483 C3.74643841,61.0982888 4.50027899,64.4962189 6.08147826,67.0335476 C8.95316304,71.6467713 13.5377826,71.5478133 15.8470725,69.6038622 C17.2819819,68.3963517 18.9691667,66.2789462 19.2923478,61.2884217 C19.3793007,59.9493378 19.3826594,58.4638552 19.3602681,57.2733937 C19.6748659,59.1298762 20.3630254,62.4392259 22.3644348,63.6593378 C23.8560688,64.5696035 26.2653732,64.5885056 27.5308551,63.4395545 C28.6078768,62.2731839 28.8881413,61.5660231 29.0071884,61.1987294 C29.2131884,61.2798972 31.2183297,67.6358203 35.1394203,64.7986524 C36.5564167,63.773121 36.6556848,62.6008203 37.7024783,63.9840091 C41.3171812,68.7729112 47.393808,66.7481629 51.4003587,61.7702399 L51.4003587,61.7698692 C52.0161196,61.0523308 53.1032174,59.5561 53.4196812,58.6699252 C53.4958116,58.5335336 51.4507391,55.5240231 51.4496196,55.5266175" id="Fill-23" fill="#FFFFFF"></path>
                            <path d="M97.0207754,49.428949 C96.4766667,49.6557741 96.2587246,50.1231378 96.2587246,50.1231378 C94.5148152,59.1572287 89.4446775,65.8415294 81.3188732,66.8463056 C74.873163,67.6457531 68.8140761,65.5594804 64.7358732,58.6561378 C64.7358732,58.6561378 62.9874855,55.9683336 61.8369457,51.6493895 C61.613779,50.7606203 65.5863696,47.0046622 70.4721522,37.6370049 C71.1804638,36.2756832 73.1229094,31.5879629 73.0266268,31.1142986 C72.8698877,29.5824874 71.9313188,28.8182497 70.8378768,28.4572566 C65.7296739,36.9124245 58.3838333,46.2063266 58.3095688,44.6430119 C59.2820978,32.2009839 58.3077029,12.2207252 58.06625,11.8152566 C57.8046449,11.3734664 55.9286268,11.5513685 55.4046703,11.5513685 C54.8814601,11.5513685 54.4455761,11.9034664 54.4455761,11.9034664 C54.4455761,11.9034664 53.7637609,13.3804245 53.2416703,26.5244245 C52.9964855,32.703928 52.7766775,44.9843615 52.7766775,44.9843615 C52.7766775,44.9843615 52.4482717,53.8257252 51.3861775,55.6262427 L51.3973732,61.7775783 C51.9646196,61.1100748 52.3314638,60.6156552 52.9173696,59.6787042 C52.9065471,60.743893 52.8994565,61.9017392 52.9173696,62.601858 C53.0035761,66.040928 53.354,68.2654455 54.0522355,68.8821727 C54.7508442,69.5011238 57.749413,68.8502986 58.1860435,68.319928 C58.6219275,67.789928 57.7038841,58.159865 57.8393514,57.3022287 C57.9371268,56.9345643 58.1472319,57.1539769 58.3263623,57.5372077 C62.978529,67.5675503 71.7268116,72.6255294 80.0104746,71.5151238 C89.2513659,70.2757392 95.5769094,61.856893 97.5492101,50.4885783 C97.5492101,50.4885783 98.0541341,48.9990189 97.0207754,49.428949" id="Fill-25" fill="#FFFFFF"></path>
                        </g>
                    </g>
                </g>
                <g id="sonic-logo" transform="translate(168.000000, 448.000000)">
                    <g id="Page-1">
                        <path d="M76.4666218,33.2954375 C76.9368125,29.5842625 77.4156511,25.7911875 77.8989738,21.9984375 C78.0786584,20.5879375 78.2589836,19.1771125 78.4684555,17.7705125 C78.4943993,17.5953375 78.6984262,17.3096625 78.8233406,17.3080375 C80.8081988,17.2787875 82.7933773,17.2872375 84.8611914,17.2872375 C84.6443528,18.9223125 84.448013,20.4153625 84.2484702,21.9077625 C83.7283137,25.7947625 83.2078369,29.6817625 82.6854384,33.5684375 C82.3283112,36.2279125 81.95581,38.8854375 81.6207831,41.5481625 C81.5653724,41.9875625 81.3738369,42.0662125 81.0054995,42.0616625 C79.2169812,42.0379375 77.4281425,42.0411875 75.6402648,41.9960125 C75.4259885,41.9904875 75.1313186,41.7977625 75.0192159,41.6050375 C72.6170154,37.4736375 70.2026438,33.3487375 67.8728296,29.1754125 C67.246656,28.0538375 66.8904897,26.7772375 66.3594433,25.4457125 C66.2745655,26.6953375 66.2489421,27.8305625 66.1115362,28.9514875 C65.70092,32.2980125 65.2470643,35.6386875 64.8089029,38.9816375 C64.698722,39.8230625 64.6003919,40.6667625 64.4572208,41.5026625 C64.4287147,41.6703625 64.2221254,41.9355625 64.0949689,41.9371875 C62.108189,41.9648125 60.1207685,41.9563625 58.0401425,41.9563625 C59.1477171,33.6792625 60.2418394,25.5048625 61.3433284,17.2739125 C61.5534408,17.2573375 61.7497807,17.2290625 61.9458002,17.2290625 C63.6667367,17.2310125 65.3876731,17.2498625 67.1086095,17.2345875 C67.5112183,17.2310125 67.7645704,17.3291625 67.9801279,17.7045375 C70.3144262,21.7702875 72.6954873,25.8087375 74.9964751,29.8933375 C75.6184848,30.9970375 76.0140472,32.2320375 76.4666218,33.2954375" id="Fill-1" fill="#A7A7A7"></path>
                        <path d="M42.0963856,36.7701425 C42.5672169,36.7158675 43.0505396,36.7126175 43.507278,36.5988675 C46.7922071,35.7798675 48.6633611,33.5425675 49.4788281,30.3175925 C49.9038575,28.6373425 49.8939284,26.9505925 49.1649406,25.3311175 C47.7562902,22.2003925 44.0062951,21.0973425 40.7559577,22.8793175 C37.4316325,24.7015925 36.0799944,28.2882925 36.3958037,31.4970175 C36.7237841,34.8308675 38.9024198,36.7587675 42.0963856,36.7701425 M29.3589577,30.1443675 C29.5761166,25.1627675 32.5477988,20.8997425 37.6026692,18.0920675 C41.4288941,15.9668925 45.4889333,15.5326925 49.6447401,17.1199925 C54.5103171,18.9786675 57.2965494,23.9810675 56.663009,29.1986175 C55.7604222,36.6378675 49.1095298,42.0049175 42.6107768,42.5323925 C37.8617866,42.9178425 33.9234589,41.3974925 31.1314614,37.3359675 C29.9005738,35.5452175 29.3426227,33.4746425 29.3589577,30.1443675" id="Fill-3" fill="#A7A7A7"></path>
                        <path d="M27.9753222,18.5691675 C27.0093174,20.2529925 26.0894347,21.8565425 25.1259922,23.5361425 C24.8892954,23.3307425 24.696799,23.1529675 24.4934127,22.9891675 C23.0735521,21.8422425 21.5060362,21.1441425 19.6585839,21.5705425 C19.1547623,21.6868925 18.6320435,21.9758175 18.251535,22.3326675 C17.2102611,23.3092925 17.4062807,24.7873925 18.6775252,25.4087925 C19.5874787,25.8537175 20.5858333,26.1081925 21.5303785,26.4851925 C22.5168822,26.8790925 23.5107526,27.2668175 24.456579,27.7474925 C26.0891144,28.5775425 26.8315545,30.0507675 26.951024,31.8216925 C27.3507501,37.7470925 23.2455496,42.4111675 17.3925081,42.8122175 C13.8551878,43.0546675 10.7742856,42.1339425 8.27023178,39.4861675 C7.89164499,39.0864175 7.88395795,38.8286925 8.21321956,38.4013175 C9.35314377,36.9209425 10.4539922,35.4093675 11.5984005,33.8714675 C12.1515472,34.4879925 12.637112,35.0843675 13.1790484,35.6225675 C14.3763051,36.8097925 15.775667,37.5130925 17.5071731,37.3876425 C19.0971095,37.2722675 20.3042954,36.1649925 20.4743711,34.6059675 C20.5727012,33.7037675 20.3004518,32.9364425 19.4680093,32.5292175 C18.6573467,32.1327175 17.8008822,31.8314425 16.9594714,31.5012425 C16.1385594,31.1794925 15.2868993,30.9272925 14.4916108,30.5512675 C11.6096108,29.1885425 10.6400826,27.1215425 11.2124469,23.9407675 C12.1259237,18.8619925 16.6993932,15.6009425 21.9976866,16.2116175 C23.8233589,16.4222175 25.5420533,16.9191425 27.0945154,17.9373675 C27.3766939,18.1226175 27.6444592,18.3309425 27.9753222,18.5691675" id="Fill-5" fill="#A7A7A7"></path>
                        <path d="M118.250497,25.2561075 C117.943336,24.8778075 117.761409,24.6477075 117.573397,24.4231325 C115.391238,21.8140325 111.901962,21.3050825 109.071209,23.1816325 C106.331419,24.9977325 104.772871,28.9773575 105.547661,32.1792575 C106.318927,35.3678325 109.494957,37.1264075 112.803267,36.0373325 C113.955363,35.6580575 114.976138,34.8601825 116.043676,34.2303325 C116.329377,34.0619825 116.565433,33.8075075 116.967402,33.4743825 C116.841847,34.3850325 116.745759,35.1377325 116.632695,35.8878325 C116.414896,37.3386325 116.16891,38.7852075 115.972891,40.2389325 C115.897301,40.7972825 115.67694,41.0972575 115.128918,41.3098075 C111.941998,42.5428575 108.688458,42.9331825 105.439081,41.7826825 C101.686204,40.4534325 99.4063553,37.6243075 98.7539176,33.6986325 C97.5287954,26.3269825 101.576663,19.2748075 108.270155,16.7534575 C111.869932,15.3975575 115.471952,15.6702325 118.917028,17.4557825 C119.121695,17.5617325 119.373125,17.8984325 119.346221,18.0908325 C119.01824,20.4233575 118.642216,22.7487325 118.250497,25.2561075" id="Fill-7" fill="#A7A7A7"></path>
                        <g id="Group-11" transform="translate(52.207824, 0.181350)">
                            <mask id="mask-18" fill="white">
                                <use xlink:href="#path-17"></use>
                            </mask>
                            <g id="Clip-10"></g>
                            <path d="M67.6325775,13.742625 C69.1920861,11.983725 70.7121985,10.28495 72.2146949,8.57025 C73.2524455,7.385625 74.2677756,6.180525 75.2872694,4.979975 C75.4342841,4.80675 75.5569565,4.61045 75.6777071,4.416425 C76.4595433,3.161275 76.1587878,2.472275 74.6905628,2.50835 C72.796668,2.5545 70.8761888,2.625675 69.0213697,2.9783 C57.1365628,5.236075 45.2632866,7.557875 33.3932132,9.891375 C23.4529076,11.8456 13.5225311,13.84955 3.58286601,15.805725 C3.23598826,15.873975 2.79430367,15.742675 2.46888557,15.56685 C1.67936235,15.1411 0.932758435,14.633775 0.0647633252,14.0946 C2.06467531,13.6929 3.95792958,13.310375 5.85214474,12.932725 C14.7675115,11.155625 23.6825579,9.37755 32.5985653,7.604025 C41.7362156,5.78695 50.8706631,3.95135 60.0156802,2.171325 C63.5443526,1.484275 67.0871178,0.849875 70.6446166,0.347425 C72.2854797,0.1157 74.0012914,0.067925 75.6411936,0.275275 C78.1961741,0.598975 79.2159883,2.8366 77.9710078,5.137275 C77.4969736,6.01445 76.8698391,6.82435 76.2170812,7.579975 C74.2466362,9.861475 72.2236631,12.095525 70.2388049,14.363375 C69.9527829,14.69 69.7346631,14.78815 69.3330152,14.553175 C68.8118978,14.248975 68.2427364,14.0283 67.6325775,13.742625" id="Fill-9" fill="#A7A7A7" mask="url(#mask-18)"></path>
                        </g>
                        <path d="M115.095415,45.15537 C115.91921,44.861245 116.660048,44.596695 117.446689,44.315895 C117.577368,44.53787 117.70965,44.74522 117.825276,44.96232 C119.179796,47.506745 120.558019,50.03882 121.867058,52.607295 C122.232513,53.32522 122.554087,54.13837 122.616224,54.930395 C122.865412,58.105645 120.840838,60.313695 117.548862,60.24057 C115.510195,60.19507 113.459356,59.818395 111.451117,59.403695 C102.394821,57.534295 93.3522976,55.59632 84.304009,53.686945 C73.7513024,51.45972 63.1979553,49.23737 52.6449284,47.010795 C50.5876839,46.57692 48.5320408,46.133945 46.4760775,45.69357 C46.3985665,45.676995 46.3236178,45.648395 46.2848623,45.63637 C47.4456056,45.10792 48.6089112,44.570695 49.7815054,44.054595 C49.9083416,43.99837 50.0912291,44.04452 50.241767,44.07637 C60.0417841,46.14662 69.8414809,48.219145 79.6408575,50.29427 C89.2631117,52.33137 98.8834443,54.377895 108.507941,56.405245 C110.962989,56.92232 113.421241,57.431595 115.895188,57.84142 C116.767987,57.986045 117.712853,57.941195 118.584691,57.77057 C119.943696,57.50472 120.592611,56.31197 120.234843,54.94697 C120.114733,54.488395 119.903019,54.045095 119.677532,53.62552 C118.173755,50.82532 116.654923,48.033895 115.095415,45.15537" id="Fill-12" fill="#A7A7A7"></path>
                        <path d="M55.8688416,9.883055 C53.8362597,10.29093 52.0118685,10.742355 50.1612132,10.98773 C49.392509,11.090105 48.5635897,10.771605 47.7679809,10.613655 C37.8789222,8.64773 27.994668,6.65613 18.1004846,4.717505 C14.5734137,4.026555 11.0284064,3.42433 7.4795555,2.86013 C6.28005672,2.669355 5.04340391,2.712255 3.82308606,2.669355 C3.58062396,2.66058 3.32855306,2.727205 3.09153594,2.796105 C2.35838435,3.00963 2.15435746,3.39833 2.52910073,4.077255 C2.89135257,4.733105 3.31253839,5.37368 3.80226699,5.936255 C6.44084401,8.96688 9.10856773,11.97053 11.7657218,14.98393 C11.9156191,15.153905 12.060712,15.32778 12.2253428,15.52018 C11.6648293,16.04603 11.1222523,16.55498 10.5207413,17.11918 C9.65018386,16.138655 8.77322054,15.15683 7.90202249,14.17013 C5.92292958,11.928605 3.93935257,9.690655 1.97339169,7.43743 C1.55476822,6.95773 1.1720176,6.43838 0.82674132,5.901805 C-0.999571638,3.06488 0.312990709,0.35178 3.65493203,0.333905 C5.94855306,0.321555 8.280289,0.50258 10.5329125,0.93158 C23.6348342,3.42758 36.7184993,6.02173 49.8076093,8.58533 C51.6044553,8.937305 53.3987389,9.30228 55.1933428,9.665955 C55.3598954,9.70008 55.5197218,9.769305 55.8688416,9.883055" id="Fill-14" fill="#A7A7A7"></path>
                        <path d="M86.6131002,42.05266 C87.751423,33.72681 88.871489,25.53681 89.9889927,17.363385 L96.4525134,17.363385 C96.2766724,18.690685 96.1171663,19.932185 95.9477311,21.171735 C95.3792103,25.32816 94.806846,29.48426 94.2373643,33.640685 C93.8728704,36.297885 93.5163839,38.956385 93.1329927,41.610985 C93.1096112,41.77381 92.8831638,42.032185 92.748,42.033485 C90.7394401,42.060785 88.7299193,42.05266 86.6131002,42.05266" id="Fill-16" fill="#A7A7A7"></path>
                        <path d="M33.6007954,44.4615925 C31.1316535,45.3351925 28.8108076,46.1551675 26.4906022,46.9764425 C20.7528663,49.0083425 15.018013,51.0480425 9.2764335,53.0679175 C7.66824034,53.6337425 6.02449462,54.0299175 4.29907408,53.9821425 C1.03208142,53.8914675 -0.62831956,51.6626175 0.410391932,48.5156425 C0.801790465,47.3287425 1.52181002,46.2110675 2.27321834,45.2003175 C3.20751418,43.9445175 4.32918166,42.8317175 5.38294694,41.6425425 C5.86114499,42.1339425 6.2874555,42.5723675 6.77686381,43.0754675 C6.02705697,43.9136425 5.24329902,44.7326425 4.52584181,45.6078675 C3.86251418,46.4171175 3.19534303,47.2416425 2.67422567,48.1451425 C2.34528435,48.7158425 2.19282469,49.4337675 2.11915721,50.1032675 C2.01153863,51.0850925 2.50126724,51.6622925 3.45542127,51.8624925 C5.04279535,52.1956175 6.57603985,51.8436425 8.05419389,51.3340425 C13.5296095,49.4457925 18.987409,47.5058675 24.4519347,45.5847925 C26.6504286,44.8119425 28.8514848,44.0465675 31.0438932,43.2545425 C31.4452208,43.1095925 31.7437342,43.1134925 32.0883699,43.4053425 C32.5162819,43.7673925 33.0072917,44.0533925 33.6007954,44.4615925" id="Fill-18" fill="#A7A7A7"></path>
                        <path d="M121.490361,64.344345 C122.085786,63.85457 122.197569,63.232195 121.788874,62.67872 C121.437512,62.20357 120.765537,62.08982 120.276449,62.422295 C119.76462,62.77037 119.629456,63.53282 119.984021,64.06972 C120.333141,64.598495 120.885967,64.69112 121.507657,64.32517 L121.490361,64.344345 Z M120.901662,64.85622 C120.063454,64.85492 119.442405,64.22117 119.451373,63.37617 C119.45938,62.569845 120.076266,61.94292 120.873796,61.93057 C121.694388,61.917895 122.360918,62.565295 122.368285,63.38202 C122.375972,64.20232 121.723855,64.857845 120.901662,64.85622 Z" id="Fill-20" fill="#A7A7A7"></path>
                        <path d="M121.507561,64.3253 C120.886191,64.69125 120.333045,64.598625 119.983925,64.06985 C119.62968,63.53295 119.764844,62.7705 120.276353,62.422425 C120.765761,62.089625 121.437416,62.2037 121.788778,62.67885 C122.197473,63.232325 122.086011,63.8547 121.491546,64.34285 C121.515888,63.9197 121.152676,63.48225 121.543433,63.05715 C121.564573,63.034075 121.309299,62.615475 121.141145,62.579725 C120.8958,62.5274 120.395822,62.62035 120.38205,62.711025 C120.30614,63.20535 120.345856,63.71755 120.345856,64.2239 C120.410876,64.221625 120.475896,64.219675 120.540915,64.2174 C120.597927,63.99835 120.65526,63.778975 120.729568,63.4933 C121.030003,63.814725 121.268622,64.06985 121.507561,64.3253" id="Fill-22" fill="#A7A7A7"></path>
                        <path d="M121.507561,64.3253 C121.268622,64.06985 121.030003,63.814725 120.729568,63.4933 C120.65526,63.778975 120.597927,63.99835 120.540915,64.2174 C120.475896,64.219675 120.410876,64.221625 120.345856,64.2239 C120.345856,63.71755 120.30614,63.20535 120.38205,62.711025 C120.395822,62.62035 120.8958,62.5274 121.141145,62.579725 C121.309299,62.615475 121.564573,63.034075 121.543433,63.05715 C121.152676,63.48225 121.515888,63.9197 121.491546,64.34285 C121.490265,64.344475 121.507561,64.3253 121.507561,64.3253" id="Fill-24" fill="#A7A7A7"></path>
                    </g>
                </g>
                <g id="chipotle-circle-logo" transform="translate(37.000000, 433.000000)">
                    <g id="chipotle-circle-orig">
                        <path d="M93,47 C93,72.944 72.1773,93.9718 46.5,93.9718 C20.8227,93.9718 0,72.944 0,47 C0,21.056 20.8227,0.0282 46.5,0.0282 C72.1773,0.0282 93,21.056 93,47 Z" id="Shape" fill="#A7A7A7" fill-rule="nonzero"></path>
                        <path d="M74.6883,47 C74.6883,62.745 62.0682,75.5102 46.5,75.5102 C30.9318,75.5102 18.3024,62.745 18.3024,47 C18.3024,31.255 30.9318,18.4898 46.5,18.4898 C62.0682,18.4898 74.6883,31.255 74.6883,47 Z" id="Shape" fill="#FFFFFF" fill-rule="nonzero"></path>
                        <path d="M72.5958,46.9906 C72.5958,61.5512 60.9057,73.367 46.5,73.367 C32.0943,73.367 20.3949,61.5606 20.3949,46.9906 C20.3949,32.4206 32.0757,20.6142 46.4907,20.6142 C60.9057,20.6142 72.5958,32.43 72.5958,46.9906 Z" id="Shape" fill="#A7A7A7" fill-rule="nonzero"></path>
                        <ellipse id="Oval" fill="#FFFFFF" fill-rule="nonzero" cx="9.4674" cy="47.5734" rx="1.1067" ry="1.1186"></ellipse>
                        <ellipse id="Oval" fill="#FFFFFF" fill-rule="nonzero" cx="83.979" cy="47.5734" rx="1.1067" ry="1.1186"></ellipse>
                        <path d="M57.7158,32.43 C57.7251,31.6968 56.9067,30.6534 56.5719,29.5254 C56.5719,29.5254 55.2513,29.563 53.9121,29.6664 C53.1242084,29.7145453 52.3661611,29.9884204 51.7266,30.456 C51.4755,30.8132 50.8617,31.2738 50.8617,31.2738 C50.7222,31.4712 49.9596,32.1668 49.9596,32.1668 C49.9746535,32.4083982 49.9653052,32.650918 49.9317,32.8906 C49.8759,33.3324 49.5597,34.3194 49.5783,34.9586 C49.5876,35.4474 50.1549,36.0302 50.1549,36.0302 C50.9919,36.1524 52.7775,36.1806 52.7775,36.1806 C52.7043413,36.4925936 52.6047745,36.7976507 52.4799,37.0924 C52.2846,37.5248 51.0384,37.7034 51.0384,37.7034 C51.0384,37.7034 51.6336,38.7186 51.8196,39.1886 C52.0056,39.6586 52.6287,40.1004 52.6287,40.1004 C53.661,41.9334 54.2376,42.958 54.2376,43.9544 C54.2376,44.9508 53.6238,46.107 53.6238,46.107 C53.6238,46.8308 53.1402,47.658 52.7031,48.2972 C52.266,48.9364 51.9591,49.397 51.7452,49.8388 C51.5313,50.2806 51.1407,50.9198 50.8896,51.3616 C50.6242619,51.798213 50.280447,52.1807948 49.8759,52.4896 C49.6155,52.6682 49.6248,52.8186 49.6248,52.8186 C49.6248,52.8186 50.4897,53.9278 50.4897,54.4448 C50.4897,54.7268 50.3781,54.8772 50.3781,55.3754 C50.3781,56.259 50.7222,56.5598 50.7222,56.5598 C51.1779,56.4658 51.2988,56.6538 51.5778,56.8418 C52.0428,57.0956 52.8426,57.6032 53.103,57.7536 C53.3634,57.904 55.2606,59.3328 55.6977,59.643 C56.1348,59.9532 56.6742,59.9438 57.1299,60.2258 C57.4089,60.4232 58.1994,60.4044 58.1994,61.2504 C58.1994,61.9178 57.2229,63.5816 56.6928,64.249 C56.4324,64.6062 55.9674,64.7378 55.9674,64.7378 C55.1676,65.6684 54.9537,65.6402 54.9537,65.6402 C54.6654,65.6308 54.2655,65.7248 53.8935,65.7812 C53.196,65.9222 52.6473,65.7248 52.1265,65.7906 C51.6057,65.8564 51.0663,65.8282 50.6943,65.8 C50.3223,65.7718 48.6762,65.8658 47.5881,65.8846 C46.5,65.9034 46.6302,65.8846 46.0629,65.7906 C45.4956,65.6966 45.0864,65.4334 44.8446,65.4146 C44.6028,65.3958 43.9704,65.4522 43.4961,65.2078 C43.0218,64.9634 42.3522,64.7472 41.5989,64.6344 C40.8456,64.5216 40.6689,64.4934 40.362,63.9106 C40.0551,63.3278 38.6601,61.0342 36.4653,58.139 C34.2705,55.2438 33.1731,53.4014 32.9592,52.7528 C32.7453,52.1042 32.3733,49.961 32.3547,48.6732 C32.3361,47.3854 32.3175,45.8532 32.3175,44.4244 C32.3175,42.9956 32.6709,42.7418 32.7267,42.2624 C32.7918,41.266 33.015,41.0404 33.0708,40.6644 C33.0380817,40.3280285 33.0761138,39.9884659 33.1824,39.668 C33.7311,39.2262 35.2284,37.2428 36.4932,36.4156 C37.5348,35.6354 39.4692,35.9832 40.9014,35.5508 C40.2597,34.7988 39.3483,34.5262 38.5764,34.5262 C37.8045,34.5262 37.4604,34.78 37.3953,34.6202 C37.3302,34.4604 37.9998,34.263 38.223,33.981 C38.4462,33.699 38.9205,33.6238 39.4413,33.2572 C40.3572819,33.4537072 41.2609604,33.7048125 42.1476,34.0092 C43.3287,34.4416 43.7937,34.31 43.7937,34.31 C47.8299,30.691 51.2616,28.1342 51.2616,28.1342 C52.8705,27.777 56.0418,27.495 56.0418,27.495 C56.3619331,27.6402851 56.7052879,27.7262508 57.0555,27.7488 C57.66,27.7864 57.7158,28.0684 57.7158,28.0684 C58.0041,28.5948 58.2366,28.6418 58.404,28.8862 C58.7481,29.5066 59.7339,30.2022 59.7339,31.0106 C59.7339,32.2044 59.148,34.0468 59.148,34.0468 C58.6825326,34.1125632 58.2136013,34.1502299 57.7437,34.1596 L56.6277,34.1596 C56.1348,34.1596 56.1162,33.9622 56.1162,33.9622 C56.1162,33.9622 57.2787,33.182 57.7158,32.43 Z M48.546,38.2392 C47.5695,38.54 47.4207,39.5552 46.1745,39.574 C44.9283,39.5928 44.2494,39.5364 44.1192,39.0006 C43.989,38.4648 43.9239,38.3802 43.4868,38.0324 C37.9626,38.0324 35.8143,38.9066 34.875,41.9428 C34.875,41.9428 34.9308,42.3282 34.7634,43.1178 C34.596,43.9074 34.4844,45.684 34.4658,46.6334 C34.4472,47.5828 34.4379,51.7376 34.4379,51.7376 C34.4379,51.7376 38.409,57.857 40.5759,60.5924 C41.0409,61.2692 41.9337,62.5946 43.338,62.8014 C44.7423,63.0082 45.9792,62.9706 47.6625,63.1304 C49.3458,63.2902 51.9591,63.215 53.8005,61.7956 C53.8027318,61.6322381 53.9201188,61.493814 54.0795,61.4666 L53.0937,60.7052 C52.452,60.207 51.9684,59.8028 51.6243,59.6336 C51.2802,59.4644 51.0198,59.4362 50.8431,59.1072 C50.6664,58.7782 50.2014,58.4398 49.8852,58.4868 C49.569,58.5338 49.104,58.6936 49.1133,58.2894 C49.1226,57.8852 49.0575,57.058 49.0761,56.4846 C49.0947,55.9112 49.2249,55.0088 48.9645,54.7362 C48.7041,54.4636 48.453,54.4072 48.36,53.9184 C48.267,53.4296 48.081,52.2922 48.2949,52.0008 C48.5088,51.7094 49.1319,50.7224 49.4202,50.1678 C49.7085,49.6132 52.1265,46.765 52.1265,44.556 C52.1265,42.347 49.5597,39.48 48.546,38.2392 Z" id="Shape" fill="#FFFFFF" fill-rule="nonzero"></path>
                        <path d="M40.4736,57.8006 C40.4736,57.8006 40.6224,57.5938 40.7805,57.7724 C40.8526862,57.8645401 40.9449961,57.9385386 41.0502,57.9886 C41.0502,57.9886 41.1153,57.5938 40.3806,56.6914 C40.2354633,56.4998196 40.1078392,56.2953131 39.9993,56.0804 C39.8784,55.8078 39.6552,55.507 39.3948,55.0746 C39.1344,54.6422 39.1065,54.5388 38.9298,53.8338 C38.7531,53.1288 38.0742,51.7094 38.0742,51.7094 C38.0462292,51.4941388 38.0058607,51.2807097 37.9533,51.0702 C37.8603,50.6942 37.6092,49.9046 37.6092,49.2466 C37.6092,48.5886 37.6743,47.7238 37.6743,46.8966 C37.6743,46.0694 37.6371,45.4302 37.758,45.1576 C37.8789,44.885 37.851,44.2928 37.9347,44.1236 C38.0184,43.9544 38.6415,43.1742 38.6415,43.1742 C38.6415,43.1742 38.8461,43.1648 39.4692,43.005 C40.0923,42.8452 42.1476,42.2718 43.0869,42.2718 C44.0262,42.2718 45.6351,42.6196 46.0722,42.6572 C46.5093,42.6948 46.965,43.0238 47.4021,43.3622 C47.8392,43.7006 48.2298,43.9544 48.2298,43.9544 C48.2298,43.9544 48.2949,44.1236 48.1368,44.4056 C47.9787,44.6876 47.8485,44.9602 47.8206,45.1576 C47.8206,45.1576 47.2998,46.2386 46.9371,46.8872 C46.6494872,47.3724362 46.4185433,47.8897613 46.2489,48.4288 C46.2489,48.4288 45.9048,49.1056 45.5793,49.8482 C45.2538,50.5908 45.1143,51.0514 44.8911,51.5026 C44.8353,51.606 44.7423,52.2264 44.8911,53.2416 C45.0399,54.2568 45.0213,54.1816 45.1701,54.6328 C45.3189,55.084 45.756,57.1426 46.9836,59.596 C46.9836,59.596 46.8441,59.7182 46.5558,59.6054 C46.1094,59.4456 46.1466,59.2294 45.8304,59.0132 C45.4646704,58.8012337 45.1451588,58.5166565 44.8911,58.1766 C44.4168,57.6784 44.3052,57.1708 43.9704,56.9358 C43.9112071,56.6253684 43.8176175,56.3226612 43.6914,56.0334 C43.4589,55.4694 42.7521,54.3132 42.4638,53.7492 C42.1755,53.1852 41.6361,52.2452 41.2362,51.5496 C40.8363,50.854 40.8177,50.7036 40.8177,49.9892 C40.8828,48.8894 40.7619,48.4382 40.7619,47.9024 C40.7619,47.3666 40.7991,47.0376 40.92,46.6804 C41.0409,46.3232 40.9479,45.7028 41.6175,45.5618 C41.9119777,45.5419598 42.2076093,45.5482506 42.501,45.5806 C42.8316985,45.6132412 43.1644256,45.6195273 43.4961,45.5994 C43.4961,45.5994 44.5284,46.0976 44.4726,46.4642 C44.4168,46.8308 44.3238,47.2444 44.3424,47.752 C44.3283998,47.9508047 44.2779419,48.145244 44.1936,48.3254 C44.0541,48.6262 43.3845,49.9798 43.3845,49.9798 L43.3845,49.115 C43.3845,48.7672 43.0404,48.41 42.7149,48.41 C42.3894,48.41 42.0174,48.5322 41.7942,49.4064 C41.7942,49.4064 41.7105,49.5286 41.9244,50.4122 C42.1383,51.2958 42.4638,51.9444 43.2171,51.9444 C43.9704,51.9444 44.1378,51.136 44.1564,50.7976 C44.175,50.4592 44.3889,50.0268 44.4912,49.8106 C44.5935,49.5944 44.9376,48.7954 45.1701,48.316 C45.4026,47.8366 45.756,46.9154 45.756,46.5206 C45.756,45.543 44.9562,44.0202 43.896,44.0202 C42.8358,44.0202 42.1755,44.0108 41.5431,44.1706 C40.9107,44.3304 40.1667,44.509 39.8877,44.5654 C39.6087,44.6218 39.5529,44.9038 39.4413,45.6746 C39.3297,46.4454 39.1995,46.8308 39.1995,47.329 C39.1995,47.8272 39.2367,47.9588 39.2088,48.2032 C39.1809,48.4476 39.0321,48.739 39.0321,49.35 C39.0321,49.961 39.1437,50.243 39.4227,50.8446 C39.5064,51.0514 39.5436,51.4274 39.9249,51.8786 C40.1672122,52.2782655 40.3786402,52.6962404 40.5573,53.1288 C40.7685962,53.6579707 41.0569844,54.1522348 41.4129,54.5952 C41.7477,55.037 42.0081,56.2026 42.9195,57.3024 C43.059,57.5092 43.4217,58.186 43.71,58.562 C43.9983,58.938 44.0634,59.1166 44.8167,59.7088 C45.0957,59.9438 45.2073,60.1882 45.4584,60.442 C45.7095,60.6958 47.4579,61.6922 48.5181,61.6922 C49.5783,61.6922 49.8108,61.1658 49.383,60.771 C48.9552,60.3762 48.4251,59.878 48.1182,59.1354 C47.8113,58.3928 47.4951,57.3494 47.2905,56.9264 C47.0009399,56.3619749 46.7762765,55.7658923 46.6209,55.1498 C46.3977,54.2944 46.2396,53.533 46.2396,52.6682 C46.2396,51.8034 46.3419,51.0608 46.9092,50.1772 C47.6346,49.115 47.7927,48.4852 47.7927,48.4852 C47.7927,48.4852 48.267,47.9776 48.3786,47.3102 C49.2807,46.5864 50.3595,44.368 50.3595,43.9074 C50.3595,43.4468 49.9689,43.3904 49.8294,43.005 C49.6899,42.6196 49.0017,42.3 48.8343,41.9992 C48.6669,41.6984 48.1926,40.8336 47.5602,40.8336 C46.9278,40.8336 47.1882,41.4446 46.3419,41.4446 C45.4956,41.4446 44.3331,41.4164 41.9802,40.561 C41.9802,40.561 41.7012,40.467 41.0688,40.6456 C40.4364,40.8242 39.3948,40.8524 38.3997,40.937 C37.4046,41.0216 36.7536,41.4728 36.6606,42.4598 C36.5676,43.4468 36.0654,44.9602 36.0654,46.4736 L36.0654,50.3182 C36.0654,51.7846 37.1628,53.2134 37.3023,53.674 C37.3023,53.674 37.851,54.4918 38.7624,55.7326 C39.2812669,56.4638758 39.8532458,57.1551172 40.4736,57.8006 Z" id="Shape" fill="#FFFFFF" fill-rule="nonzero"></path>
                        <path d="M11.8947,29.2716 L10.9461,27.166 C8.5281,27.8616 7.0215,30.5782 7.0215,32.665 C7.0215,35.9268 9.6813,38.258 12.7596,38.258 C16.2657,38.258 18.3117,35.062 18.3117,32.5804 C18.3117,31.161 17.8188,30.2774 17.8188,30.2774 L15.7821,31.0294 C15.7821,31.0294 16.0797,31.8754 16.0797,32.6838 C16.0797,34.4886 14.4987,35.8328 12.9084,35.8328 C11.3181,35.8328 9.3,34.6296 9.3,32.5428 C9.3,30.456 11.1228,29.563 11.8947,29.2716 Z" id="Shape" fill="#FFFFFF" fill-rule="nonzero"></path>
                        <polygon id="Shape" fill="#FFFFFF" fill-rule="nonzero" points="14.6103 19.1666 12.9363 20.915 20.739 28.5008 22.3851 26.7524 19.5579 23.9794 22.9989 20.5954 25.9005 23.3026 27.1653 21.7046 19.53 14.1376 18.0327 15.5382 21.576 19.1948 18.1629 22.7574"></polygon>
                        <polygon id="Shape" fill="#FFFFFF" fill-rule="nonzero" points="27.6396 8.7796 25.8447 9.7572 30.9132 19.411 32.7267 18.424"></polygon>
                        <path d="M38.1858,16.4876 L36.084,16.8448 L33.9729,6.1758 C33.9729,6.1758 39.0414,5.1888 39.5715,5.1888 C42.1011,5.1888 43.524,6.9748 43.524,9.0052 C43.524,11.0356 41.9151,12.2106 40.0923,12.6242 L37.5813,13.1976 L38.1858,16.4876 Z M38.5299,7.4824 L36.828,7.7926 L37.4883,10.998 L39.2553,10.6502 C40.5015,10.3964 41.0409,9.7854 41.0409,8.9864 C41.0409,8.1874 40.548,7.0876 38.5299,7.473 L38.5299,7.4824 Z" id="Shape" fill="#FFFFFF" fill-rule="nonzero"></path>
                        <path d="M59.334,10.8194 C59.334,13.7334 57.1671,16.3842 53.8935,16.3842 C50.6199,16.3842 47.5602,13.8556 47.5602,10.387 C47.5602,8.1216 49.0575,4.7658 53.0844,4.7658 C56.3115,4.7658 59.334,7.2944 59.334,10.8194 Z M53.3448,7.0594 C50.778,7.0594 50.1177,9.4094 50.1177,10.575 C50.1177,12.549 51.7266,14.0906 53.6703,14.0906 C55.3722,14.0906 56.7765,12.5208 56.7765,10.5656 C56.7765,8.6104 55.1304,7.0594 53.3541,7.0594 L53.3448,7.0594 Z" id="Shape" fill="#FFFFFF" fill-rule="nonzero"></path>
                        <polygon id="Shape" fill="#FFFFFF" fill-rule="nonzero" points="72.4005 12.7652 64.542 8.0464 63.5004 9.6444 66.6996 11.562 62.0682 19.223 63.9189 20.3134 68.634 12.6524 71.2938 14.3726"></polygon>
                        <polygon id="Shape" fill="#FFFFFF" fill-rule="nonzero" points="78.3246 18.4992 76.8552 16.7884 68.6991 24.0452 73.6095 29.8826 75.3207 28.576 71.5449 24.2614"></polygon>
                        <polygon id="Shape" fill="#FFFFFF" fill-rule="nonzero" points="86.1459 36.3028 87.9129 35.6542 84.9927 28.1624 74.8278 31.96 77.7945 39.6492 79.6638 38.9724 77.3388 33.3512 79.1988 32.618 80.9007 36.989 82.7793 36.331 81.0867 31.9788 83.9325 30.8508"></polygon>
                        <polygon id="Shape" fill="#FFFFFF" fill-rule="nonzero" points="8.9373 59.6712 12.5829 58.28 10.7508 60.7804 13.764 61.4666 10.1184 62.8672 10.5927 64.155 16.2099 61.993 15.717 60.6206 12.7968 60.0284 14.5917 57.6596 14.0709 56.2966 8.4816 58.4304"></polygon>
                        <polygon id="Shape" fill="#FFFFFF" fill-rule="nonzero" points="19.2603 69.1558 20.2275 68.4696 17.67 64.6908 12.7317 68.0936 15.2985 71.9288 16.275 71.2708 14.4615 68.526 15.4566 67.821 17.0469 70.171 18.0513 69.5036 16.461 67.1442 17.4375 66.4674"></polygon>
                        <polygon id="Shape" fill="#FFFFFF" fill-rule="nonzero" points="23.0733 71.5058 21.9387 70.4718 21.4179 74.0438 17.8188 74.918 18.9534 75.9426 21.297 75.3222 20.9157 77.7756 22.0968 78.8284 22.6083 75.0872 26.0586 74.2694 24.924 73.2354 22.7013 73.8276"></polygon>
                        <polygon id="Shape" fill="#FFFFFF" fill-rule="nonzero" points="29.6019 76.8168 28.4859 76.1024 25.296 81.2536 26.4399 81.9774"></polygon>
                        <path d="M36.0468,81.6484 L37.1907,80.9716 C36.5676,79.9658 35.5818,79.1104 34.1775,79.1104 C32.271,79.1104 31.0527,80.7366 31.0527,82.3252 C31.0527,84.318 32.7546,85.4742 34.2891,85.4742 C34.8203938,85.4771566 35.3420315,85.3306992 35.7957,85.0512 L35.3028,83.9138 C34.9444078,84.0958206 34.5505739,84.1953378 34.1496,84.2052 C33.5265,84.2052 32.4384,83.6976 32.4384,82.4098 C32.4384,81.122 33.4242,80.3888 34.2705,80.3888 C35.1168,80.3888 35.7399,81.0092 36.0468,81.6484 Z" id="Shape" fill="#FFFFFF" fill-rule="nonzero"></path>
                        <path d="M45.3189,87.5892 L43.9518,87.42 L43.5612,85.9912 L41.0409,85.681 L40.3527,86.997 L38.9949,86.8184 L42.2499,81.0374 L43.4961,81.216 L45.3189,87.5892 Z M42.6591,82.7294 L41.664,84.5718 L43.245,84.7692 L42.6591,82.7294 Z" id="Shape" fill="#FFFFFF" fill-rule="nonzero"></path>
                        <polygon id="Shape" fill="#FFFFFF" fill-rule="nonzero" points="49.8945 81.3006 48.6483 81.4322 49.2528 87.467 50.5734 87.3166 50.1921 83.519 53.4471 87.0346 54.5817 86.95 53.9679 80.887 52.6566 81.0092 53.0379 84.7128"></polygon>
                        <path d="M63.5004,79.3078 L63.8631,77.9918 C63.8631,77.9918 63.5097,77.832 62.8401,77.832 C60.915,77.832 59.4735,79.3266 59.4735,81.0186 C59.4735,82.7106 60.729,84.2522 62.496,84.2522 C64.263,84.2522 65.4255,82.9644 65.8626,82.015 L64.7838,79.5992 L62.4309,80.652 L62.8866,81.733 L64.0956,81.169 L64.449,81.9586 C64.449,81.9586 63.7701,82.955 62.6727,82.955 C61.5753,82.955 60.8406,81.9304 60.8406,80.9528 C60.8406,79.9752 61.6404,79.1292 62.7192,79.1292 C62.988403,79.138486 63.2534485,79.1990814 63.5004,79.3078 Z" id="Shape" fill="#FFFFFF" fill-rule="nonzero"></path>
                        <path d="M69.936,73.226 C71.1171,73.226 71.8797,74.448 71.8797,75.1812 C71.8797,75.9144 71.5542,76.3186 71.5542,76.3186 L74.0187,77.1176 L72.8004,78.114 L70.6149,77.362 L69.8244,77.9918 L70.9776,79.524 L69.936,80.37 L66.2625,75.5478 L68.4759,73.7994 C68.9781,73.4234 69.4059,73.226 69.936,73.226 Z M69.192,74.7958 L68.0481,75.6794 L69.0804,77.0518 L70.1592,76.1776 C70.1592,76.1776 70.5963,75.8674 70.5963,75.4256 C70.5963,74.9838 70.1406,74.5702 69.8058,74.5702 C69.5805035,74.5652708 69.36154,74.6457501 69.192,74.7958 Z" id="Shape" fill="#FFFFFF" fill-rule="nonzero"></path>
                        <polygon id="Shape" fill="#FFFFFF" fill-rule="nonzero" points="73.2468 69.2404 72.3819 70.2368 76.9296 74.2036 77.8131 73.1696"></polygon>
                        <polygon id="Shape" fill="#FFFFFF" fill-rule="nonzero" points="75.9903 65.2642 75.3207 66.3922 80.5008 69.4942 82.6677 65.706 81.6261 65.1044 80.1288 67.6988"></polygon>
                        <polygon id="Shape" fill="#FFFFFF" fill-rule="nonzero" points="78.957 58.797 78.5385 60.066 84.2301 61.9742 85.5693 57.8006 84.4347 57.434 83.4954 60.301"></polygon>
                    </g>
                </g>
                <g id="tgifriday-logo" transform="translate(88.000000, 559.000000)">
                    <g id="Page-1">
                        <polygon id="Fill-1" fill="#A7A7A7" points="33.4020619 40.020979 33.4020619 19.8041958 43.7113402 19.8041958 43.7113402 24.2424242 37.8731685 24.2424242 37.8731685 27.7505828 43.3896779 27.7505828 43.3896779 32.0909091 37.8731685 32.0909091 37.8731685 40.020979"></polygon>
                        <g id="Group-16">
                            <path d="M46.8848323,39.7277473 L46.8848323,19.6450549 L51.7009939,19.6450549 C53.5865697,19.6450549 54.9009939,19.7476566 55.6444283,19.953022 C56.3576404,20.1433132 57.0162263,20.4986099 57.5676606,20.9903846 C58.1953778,21.5654725 58.6773172,22.2822253 58.9737212,23.0813187 C59.3066505,23.977989 59.4710141,24.9287967 59.4585697,25.8854396 C59.4585697,27.4414835 59.1353374,28.7057692 58.4888727,29.6782967 C57.8424081,30.6508242 56.9050343,31.2991758 55.6767515,31.6233516 L60.2828121,39.7115385 L55.0787717,39.7115385 L51.1999838,31.8502747 L51.1999838,39.7115385 L46.8848323,39.7277473 Z M51.1999838,29.1434066 L52.0565495,29.1434066 C53.0477414,29.1434066 53.7750141,28.9435522 54.2383677,28.5436813 C54.7017212,28.1438104 54.9333172,27.5116676 54.9333172,26.6472527 C54.9333172,25.6423077 54.7178828,24.9291209 54.2868525,24.5076923 C53.8558222,24.0862637 53.1393778,23.8755495 52.1373576,23.8755495 L51.2161455,23.8755495 L51.1999838,29.1434066 Z" id="Fill-2" fill="#A7A7A7"></path>
                            <mask id="mask-20" fill="white">
                                <use xlink:href="#path-19"></use>
                            </mask>
                            <g id="Clip-5"></g>
                            <polygon id="Fill-4" fill="#A7A7A7" mask="url(#mask-20)" points="62.9333333 39.7228846 67.5878788 39.7228846 67.5878788 19.6450549 62.9333333 19.6450549"></polygon>
                            <path d="M72.0807758,39.7438912 L72.0807758,19.6449901 L75.6040081,19.6449901 C78.2330182,19.6449901 80.0914424,19.7908692 81.1797657,20.0826275 C82.234796,20.3575286 83.2167758,20.8608115 84.0566949,21.5576275 C85.1443717,22.4666165 85.9841293,23.6378637 86.4969374,24.9614736 C87.0465939,26.3447319 87.3211798,27.9223335 87.3211798,29.6944407 C87.3211798,31.4667099 87.0465939,33.0443115 86.4969374,34.4274077 C85.9841293,35.7511797 85.1443717,36.9224269 84.0566949,37.8312538 C83.2381091,38.5069984 82.2847354,38.9989352 81.2605737,39.2739984 C80.215402,39.5655945 78.5885737,39.7116357 76.3797657,39.7116357 L72.0807758,39.7116357 L72.0807758,39.7438912 Z M76.6383515,35.2378473 L77.4141091,35.2378473 C79.2242101,35.2378473 80.5441293,34.794861 81.3737051,33.9087264 C82.2034424,33.0227538 82.6181495,31.6232868 82.6181495,29.7108115 C82.6181495,27.7873143 82.2034424,26.3771495 81.3737051,25.4801549 C80.5441293,24.5833225 79.2242101,24.1348253 77.4141091,24.1348253 L76.6383515,24.1348253 L76.6383515,35.2378473 Z" id="Fill-6" fill="#A7A7A7" mask="url(#mask-20)"></path>
                            <path d="M95.0141737,32.2231093 L99.6039111,32.2231093 L97.8747798,25.5937137 C97.8208,25.3883484 97.7453253,25.0641725 97.6485172,24.6211863 L97.2929616,22.8868456 L97.0020525,24.2970104 C96.9050828,24.7399967 96.8081131,25.1722852 96.7111434,25.5937137 L95.0141737,32.2231093 Z M88.5495273,39.7277797 L94.3838707,19.6450874 L100.153568,19.6450874 L106.004073,39.7277797 L101.430335,39.7277797 L100.573608,36.129428 L94.0281535,36.129428 L93.1555879,39.7277797 L88.5495273,39.7277797 Z" id="Fill-7" fill="#A7A7A7" mask="url(#mask-20)"></path>
                            <path d="M110.545422,39.7277473 L110.545422,30.5697802 L104.630271,19.6450549 L109.915281,19.6450549 L112.193907,24.8156593 L112.258715,24.9615385 C112.485301,25.4589863 112.653543,25.9810714 112.759564,26.5175824 C112.861059,26.0008462 113.029463,25.4995082 113.260574,25.0263736 L113.357543,24.8156593 L115.604008,19.6450549 L120.90518,19.6450549 L114.989867,30.5697802 L114.989867,39.7277473 L110.545422,39.7277473 Z" id="Fill-8" fill="#A7A7A7" mask="url(#mask-20)"></path>
                            <path d="M123.183838,33.2442308 C123.873455,34.162783 124.546909,34.8544121 125.20404,35.318956 C125.781657,35.7442747 126.475475,35.9818956 127.191919,35.9997253 C127.756444,36.0214451 128.305293,35.8105687 128.711111,35.4162088 C129.108525,35.0241181 129.325253,34.4838791 129.309091,33.925 C129.309091,33.2549286 129.136646,32.7417582 128.791919,32.3851648 C128.44703,32.0285714 127.671434,31.6557692 126.464646,31.2667582 C124.805333,30.737217 123.636364,30.04575 122.957576,29.192033 C122.278788,28.3383159 121.934061,27.171283 121.923232,25.6909341 C121.923232,23.7674368 122.461899,22.2006951 123.539394,20.9903846 C124.616727,19.7800742 126.022788,19.175 127.757576,19.175 C128.660525,19.1727308 129.557172,19.326228 130.408081,19.6288462 C131.270303,19.9390824 132.073697,20.3939011 132.783838,20.9741758 L131.361616,24.8967033 C130.893899,24.4086566 130.347475,24.0032747 129.745455,23.6972527 C129.239596,23.4383984 128.681051,23.2996511 128.113131,23.292033 C127.617293,23.2686923 127.131475,23.4369396 126.755556,23.7620879 C126.413414,24.0715137 126.224162,24.5159588 126.238384,24.9777473 C126.218343,25.4230027 126.382061,25.85675 126.690909,26.1771978 C126.992485,26.4798159 127.579798,26.7660632 128.452525,27.0362637 L128.662626,27.1010989 C130.537374,27.7061731 131.77099,28.3707335 132.363636,29.0947802 C132.779152,29.6236731 133.086707,30.2295577 133.268687,30.8777473 C133.483152,31.6256209 133.586586,32.4012115 133.575758,33.1793956 C133.575758,35.3080962 132.988606,37.0208791 131.814141,38.3175824 C130.639677,39.6142857 129.066667,40.2626374 127.094949,40.2626374 C125.982384,40.2770632 124.881616,40.0329588 123.878788,39.5494505 C122.909091,39.0740467 121.977051,38.3282802 121.082828,37.3126374 L123.183838,33.2442308 Z" id="Fill-9" fill="#A7A7A7" mask="url(#mask-20)"></path>
                            <path d="M129.357608,0.113477747 L153.082861,24.4914997 L153.082861,0.113477747 L129.357608,0.113477747 Z M23.4343758,59.0000162 L3.23232323e-05,34.9299613 L3.23232323e-05,59.0000162 L23.4343758,59.0000162 Z M139.151547,33.7143019 L139.151547,44.5255657 L126.884881,44.5255657 L140.977648,59.0000162 L153.082861,59.0000162 L153.082861,48.0428734 L139.151547,33.7143019 Z M96.6626586,13.4533129 L119.450537,13.4533129 L106.456598,0.113477747 L83.6847192,0.113477747 L96.6626586,13.4533129 Z M103.983871,44.5255657 L79.3858909,44.5255657 L93.4788202,59.0000162 L118.0768,59.0000162 L103.983871,44.5255657 Z M49.1636687,13.4533129 L73.7616485,13.4533129 L60.7677091,0.113477747 L36.1697293,0.113477747 L49.1636687,13.4533129 Z M56.4848808,44.5255657 L32.2424566,44.5255657 L46.3353859,59.0000162 L70.5778101,59.0000162 L56.4848808,44.5255657 Z M14.3192242,26.1123788 L14.3192242,13.4695217 L26.246497,13.4695217 L13.2687192,0.113477747 L3.23232323e-05,0.113477747 L3.23232323e-05,11.3785876 L14.3192242,26.1123788 Z" id="Fill-10" fill="#A7A7A7" mask="url(#mask-20)"></path>
                            <polygon id="Fill-11" fill="#A7A7A7" mask="url(#mask-20)" points="28.9292606 37.2802846 21.2363313 37.2802846 21.2363313 40.0357791 19.6686545 40.0357791 19.6686545 32.6607791 21.2363313 32.6607791 21.2363313 35.3999027 28.9292606 35.3999027"></polygon>
                            <path d="M25.5192242,27.1334841 L23.9677091,27.1334841 L23.9677091,23.0812863 L27.6525576,23.0812863 C28.0942545,23.5775995 28.4346182,24.155767 28.6545778,24.7832093 C28.9403152,25.5056352 29.0883556,26.2753907 29.0909414,27.0524401 C29.1117899,27.9400335 28.8999111,28.8175775 28.4768,29.5972203 C28.0785778,30.3076516 27.4679919,30.8744731 26.7313455,31.2180995 C25.9596283,31.5879841 25.1138909,31.7764923 24.2586182,31.7691984 C23.3653657,31.7883247 22.4818101,31.5821489 21.6889212,31.1694731 C20.9422545,30.7691159 20.3379717,30.14605 19.9596283,29.386506 C19.6472242,28.7921297 19.4909414,28.0520363 19.4909414,27.1659016 C19.4909414,26.0097286 19.7333657,25.1073852 20.2182141,24.4590335 C20.7077495,23.8071159 21.4224162,23.3618604 22.2222545,23.2109566 L22.5616485,25.0749676 C22.1257697,25.1908604 21.7432242,25.4542533 21.4788202,25.820572 C21.2092444,26.2157423 21.0733253,26.6874181 21.0909414,27.1659016 C21.0909414,27.9872011 21.3495273,28.6355527 21.866699,29.1109566 C22.3838707,29.5863604 23.1542949,29.8294923 24.1778101,29.8403522 C25.2768,29.8403522 26.1010424,29.5972203 26.6505374,29.1109566 C27.2000323,28.6246929 27.5027394,27.9166929 27.4747798,27.1821104 C27.4741333,26.7768907 27.3973657,26.375561 27.2485172,25.9988687 C27.1101737,25.6328742 26.9196283,25.2889236 26.6828606,24.9777148 L25.5030626,24.9777148 L25.5192242,27.1334841 Z" id="Fill-12" fill="#A7A7A7" mask="url(#mask-20)"></path>
                            <polygon id="Fill-13" fill="#A7A7A7" mask="url(#mask-20)" points="19.6686869 21.4215385 28.9292929 21.4215385 28.9292929 19.5478022 19.6686869 19.5478022"></polygon>
                            <path d="M154.456566,54.0076275 L155.006061,53.9590011 C155.023192,54.1123363 155.091556,54.2551357 155.2,54.3642209 C155.315071,54.4543418 155.458263,54.5002126 155.60404,54.4938912 C155.747717,54.5036165 155.890263,54.4635808 156.008081,54.3805918 C156.098101,54.3175396 156.152242,54.2149379 156.153535,54.1050423 C156.151273,54.0449077 156.128485,53.9876907 156.088889,53.9429544 C156.031677,53.8816852 155.959111,53.8367868 155.878788,53.8132841 L155.426263,53.6834516 C155.198061,53.6406604 154.982626,53.5463253 154.79596,53.4080643 C154.629333,53.2672099 154.534465,53.0589269 154.537374,52.8407566 C154.539475,52.6956879 154.584404,52.5545093 154.666667,52.4355368 C154.752323,52.3035973 154.876606,52.201806 155.022222,52.1436165 C155.197091,52.0747291 155.383919,52.0416632 155.571717,52.0463637 C155.854222,52.0243198 156.135434,52.1047154 156.363636,52.2734489 C156.540283,52.4288912 156.640485,52.6535451 156.638384,52.889383 L156.072727,52.9218005 C156.058505,52.8025038 156.001131,52.6929324 155.911111,52.6136714 C155.806707,52.5423527 155.681616,52.5081522 155.555556,52.5165808 C155.419313,52.5070176 155.283394,52.541056 155.167677,52.6136714 C155.107071,52.6527346 155.070545,52.719839 155.070707,52.7919681 C155.066667,52.8611797 155.097051,52.9277978 155.151515,52.9704269 C155.310222,53.0668692 155.485737,53.1330011 155.668687,53.1649324 C155.880404,53.2052923 156.086465,53.2706137 156.282828,53.3592758 C156.409697,53.4268665 156.515879,53.5276852 156.589899,53.6511962 C156.669576,53.7884846 156.708848,53.945872 156.70303,54.1050423 C156.704808,54.2656714 156.659879,54.4232209 156.573899,54.5587264 C156.48404,54.6969874 156.354263,54.8044516 156.20202,54.8668555 C156.005818,54.9394709 155.79701,54.9725368 155.587879,54.9639462 C155.298263,54.9827484 155.011556,54.8961934 154.779798,54.7208143 C154.58602,54.5326302 154.470465,54.277828 154.456566,54.0076275" id="Fill-14" fill="#A7A7A7" mask="url(#mask-20)"></path>
                            <polygon id="Fill-15" fill="#A7A7A7" mask="url(#mask-20)" points="157.20404 54.931561 157.20404 52.1113934 158.044444 52.1113934 158.561616 54.0400775 159.062626 52.1113934 159.90303 52.1113934 159.90303 54.931561 159.385859 54.931561 159.385859 52.7109566 158.820202 54.931561 158.286869 54.931561 157.737374 52.7109566 157.737374 54.931561"></polygon>
                        </g>
                    </g>
                </g>
            </g>
        </g>
    </g>
</svg>
