<?xml version="1.0" encoding="UTF-8" standalone="no"?>
<svg width="40px" height="38px" viewBox="0 0 40 38" version="1.1" xmlns="http://www.w3.org/2000/svg" xmlns:xlink="http://www.w3.org/1999/xlink">
    <!-- Generator: Sketch 49.1 (51147) - http://www.bohemiancoding.com/sketch -->
    <title>Checkmark</title>
    <desc>Created with Sketch.</desc>
    <defs></defs>
    <g id="Mockups" stroke="none" stroke-width="1" fill="none" fill-rule="evenodd">
        <g id="Desktop-HD" transform="translate(-657.000000, -2217.000000)" fill="#FFC629">
            <g id="Action" transform="translate(0.000000, 1202.000000)">
                <g id="Slider-Nav" transform="translate(274.000000, 647.000000)">
                    <path d="M411.783282,380.70047 C408.317001,384.987525 405.016239,389.402337 402.042087,394.058298 C401.295688,395.226757 400.568939,396.407937 399.863245,397.602057 C399.020752,399.027895 398.338163,400.550895 397.567471,402.021475 C397.456153,402.233892 397.283077,402.437975 397.090458,402.577576 C395.650889,403.620691 394.093848,405.129763 392.489408,405.874813 C391.487983,406.340003 391.545423,405.417409 391.211147,404.606012 C389.63953,400.791605 388.330497,396.100332 385.299661,393.123421 C384.627977,392.463689 383.794338,391.974372 383,391.38285 C384.260986,390.093762 385.65402,388.827374 387.537347,388.355384 C388.391717,388.141213 389.198255,388.305707 389.920253,388.989017 C391.078775,390.085537 391.92807,391.557982 392.620052,392.986781 C393.100736,393.979012 393.527543,394.99811 393.994299,395.997468 C394.070634,396.160647 394.229783,396.283799 394.350601,396.425483 C394.493554,396.294984 394.672785,396.188172 394.773521,396.029929 C395.510635,394.870681 396.191604,393.672284 396.968883,392.541988 C402.957136,383.834638 410.446393,375.594452 419.205813,369.705331 C420.035134,369.147804 420.88065,368.615061 421.743333,368.112366 C421.862316,368.043059 421.999007,367.971888 422.130407,368.011257 C422.245719,368.04591 422.320758,368.155354 422.386404,368.25745 C422.591008,368.575144 422.795396,368.892838 423,369.210531 C418.76443,372.50053 415.1566,376.528561 411.783282,380.70047 Z" id="Checkmark"></path>
                </g>
            </g>
        </g>
    </g>
</svg>