<?xml version="1.0" encoding="UTF-8" standalone="no"?>
<svg width="116px" height="83px" viewBox="0 0 116 83" version="1.1" xmlns="http://www.w3.org/2000/svg" xmlns:xlink="http://www.w3.org/1999/xlink">
    <!-- Generator: Sketch 49.1 (51147) - http://www.bohemiancoding.com/sketch -->
    <title>Page 1</title>
    <desc>Created with Sketch.</desc>
    <defs>
        <polygon id="path-1" points="0.0817575956 0.0792677291 107.695989 0.0792677291 107.695989 37 0.0817575956 37"></polygon>
    </defs>
    <g id="Mockups" stroke="none" stroke-width="1" fill="none" fill-rule="evenodd">
        <g id="Desktop-HD" transform="translate(-662.000000, -1479.000000)">
            <g id="Action" transform="translate(0.000000, 1202.000000)">
                <g id="Action-3—Email" transform="translate(389.000000, 277.000000)">
                    <g id="Page-1" transform="translate(273.000000, 0.000000)">
                        <path d="M4,0 L112,0 C111.777514,0.327620494 111.6625,0.570267372 111.484323,0.747767813 C107.749197,4.48660688 104.002758,8.21317197 100.26669,11.9510669 C95.7113827,16.5084851 91.1673883,21.0781773 86.6130237,25.6365397 C82.202898,30.0495027 77.7890014,34.4568009 73.3722765,38.8622108 C70.4705307,41.7569786 67.5546439,44.6347517 64.6594972,47.5361286 C63.3368366,48.8598287 61.8765363,50.0173581 60.1164455,50.6329448 C58.6184358,51.158837 57.0798883,51.139954 55.5347416,50.4441145 C53.124162,49.3564522 51.3895251,47.4842003 49.5747556,45.6818155 C48.190817,44.3071312 46.7748254,42.9664364 45.3984288,41.5851431 C43.4224511,39.6024254 41.480412,37.5885507 39.5053771,35.6048889 C38.1299232,34.2226514 36.7120461,32.8819566 35.3347067,31.5016074 C33.9394553,30.1033194 32.5781425,28.6682094 31.1847765,27.2680331 C29.5717528,25.6469253 27.9323324,24.0541421 26.3174232,22.4349227 C24.5601606,20.6731364 22.8236383,18.8915229 21.0673184,17.1297366 C19.4901187,15.546395 17.8931215,13.9847687 16.3149791,12.4023712 C14.5209497,10.603763 12.7486034,8.78532765 10.9479749,6.99332852 C8.96539804,5.02005235 6.95831006,3.07037996 4.9672486,1.10371284 C4.68159916,0.820467461 4.43365922,0.497567724 4,0" id="Fill-1" fill="#FEFEFE"></path>
                        <g id="Group-5" transform="translate(5.000000, 46.000000)">
                            <mask id="mask-2" fill="white">
                                <use xlink:href="#path-1"></use>
                            </mask>
                            <g id="Clip-4"></g>
                            <path d="M107.695989,36.9083538 C107.343568,36.9500974 107.123779,37.0003795 106.903042,37.0003795 C86.0760947,36.9937385 65.2482,36.9814051 44.4212526,36.9747641 C30.4324105,36.9700205 16.4445158,36.9738154 2.45567368,36.9757128 C1.86072632,36.9757128 1.26388421,37.0136615 0.669884211,36.9927897 C0.465252632,36.9852 0.116621053,36.8798923 0.0938842105,36.7660462 C0.0512526316,36.5516359 0.123252632,36.2271744 0.274831579,36.0753795 C2.16862105,34.1779436 4.09177895,32.3108667 5.99314737,30.4210205 C7.43693684,28.986559 8.8542,27.5255333 10.2942,26.0872769 C12.2628316,24.1205846 14.2447263,22.1700205 16.2124105,20.2023795 C17.6514632,18.7631744 19.0687263,17.3012 20.5077789,15.8610462 C22.1656737,14.2026872 23.8406211,12.5614051 25.4994632,10.9039949 C26.8684105,9.53689231 28.2155684,8.14986667 29.5854632,6.78561026 C31.0084105,5.36632821 32.4531474,3.96886667 33.8760947,2.55053333 C34.5885158,1.84089231 35.2914632,1.12081538 35.9622,0.372276923 C36.3051474,-0.00815897436 36.5457789,-0.0176461538 36.9133579,0.340969231 C39.1482,2.52871282 41.3489368,4.75345641 43.6643053,6.85296923 C45.0266211,8.08725128 46.5585158,9.13843077 48.0525158,10.2190205 C48.7980947,10.7578923 49.5825158,11.3109949 50.4360947,11.609841 C51.3957789,11.9466359 52.4502,12.1164564 53.4714632,12.164841 C55.6002,12.2644564 57.4987263,11.5159179 59.2977789,10.4021231 C61.9911474,8.73522564 64.1843053,6.47822564 66.5167263,4.38914872 C67.8733579,3.17194359 69.1058842,1.81622564 70.3725158,0.501302564 C70.8120947,0.0449692308 71.1569368,0.040225641 71.6069368,0.493712821 C73.9639895,2.87025128 76.3456737,5.22117436 78.7055684,7.59581538 C80.7026211,9.6052 82.6684105,11.6458923 84.6702,13.6505333 C86.6719895,15.6551744 88.7145158,17.6171231 90.7153579,19.6217641 C93.0079895,21.9176615 95.2636737,24.250559 97.5553579,26.5474051 C99.5562,28.5520462 101.583568,30.5301231 103.600516,32.5195846 C104.829253,33.7310974 106.063674,34.9369179 107.281042,36.1617128 C107.445884,36.3277385 107.520726,36.584841 107.695989,36.9083538" id="Fill-3" fill="#FEFEFE" mask="url(#mask-2)"></path>
                        </g>
                        <path d="M0,78 L0,5 C0.404422294,5.2889481 0.70727309,5.44569773 0.935575997,5.67798934 C2.96514225,7.73367569 4.98073078,9.80352616 7.00097855,11.8686552 C8.87865349,13.7893103 10.7535329,15.7127982 12.6367989,17.6268433 C14.322513,19.3416464 16.0222049,21.0394526 17.7069872,22.7542557 C19.4076109,24.4870001 21.0886657,26.2405184 22.7939487,27.9694857 C24.4088423,29.6068583 26.0526232,31.2187354 27.6712443,32.8532752 C29.3429807,34.5435272 30.9979438,36.2507761 32.6668846,37.9429166 C33.6546441,38.943848 34.6442674,39.943835 35.6609142,40.9145496 C36.1231111,41.3555259 36.1100652,41.6378641 35.6385498,42.1024474 C33.6788722,44.0372665 31.7713781,46.0296864 29.8322012,47.9862239 C28.1436915,49.69064 26.4281582,51.3648393 24.7443078,53.0720883 C22.7911531,55.0493998 20.8696813,57.0588167 18.9146629,59.0342397 C16.9233025,61.0474336 14.8965318,63.0238009 12.9088987,65.0379392 C11.2604585,66.7074171 9.65674707,68.4203317 8.01389799,70.094531 C6.36825335,71.7687303 4.69185772,73.4117685 3.04248569,75.0812464 C2.32403042,75.8073938 1.64750833,76.5732007 0.930916754,77.3012366 C0.706341241,77.5297511 0.415604477,77.6921664 0,78" id="Fill-6" fill="#FEFEFE"></path>
                        <path d="M116,5.12725817 L116,78 C115.680451,77.7652794 115.446862,77.6380212 115.2684,77.4570318 C113.152086,75.3030694 111.048852,73.1368526 108.933472,70.9847755 C106.689151,68.7016697 104.435487,66.428933 102.184626,64.154311 C99.9169458,61.863664 97.6473973,59.5739595 95.3778487,57.2851978 C93.0886788,54.9775829 90.8004431,52.6690255 88.5066014,50.3661239 C86.4837226,48.3356491 84.4505659,46.3146008 82.4248841,44.2869539 C81.7381331,43.5988172 81.0738066,42.8861714 80.3730403,42.2131171 C79.8413923,41.7021991 79.9067971,41.2374711 80.3870556,40.759546 C82.6790287,38.4802107 84.9840827,36.2140726 87.2611061,33.919655 C88.9298642,32.2389045 90.5519047,30.509136 92.2187942,28.8265002 C93.8688653,27.1617748 95.5637854,25.5413541 97.2157252,23.878514 C98.8844834,22.1958782 100.515867,20.4764789 102.180888,18.7900724 C103.558128,17.3968311 104.969004,16.0346974 106.349981,14.6452267 C107.697321,13.2878062 109.019433,11.9068194 110.363036,10.5465709 C111.688886,9.2042329 113.03062,7.87980527 114.357404,6.53840989 C114.850743,6.03974639 115.317921,5.51374595 115.796311,5 C115.864519,5.04241939 115.932726,5.08483878 116,5.12725817" id="Fill-8" fill="#FEFEFE"></path>
                    </g>
                </g>
            </g>
        </g>
    </g>
</svg>