<?xml version="1.0" encoding="UTF-8" standalone="no"?>
<svg width="54px" height="54px" viewBox="0 0 54 54" version="1.1" xmlns="http://www.w3.org/2000/svg" xmlns:xlink="http://www.w3.org/1999/xlink">
    <!-- Generator: Sketch 49.1 (51147) - http://www.bohemiancoding.com/sketch -->
    <title>McD-icon</title>
    <desc>Created with Sketch.</desc>
    <defs>
        <polygon id="path-1" points="1.61676647e-05 0.14878209 53.8507725 0.14878209 53.8507725 53.8387737 1.61676647e-05 53.8387737"></polygon>
        <polygon id="path-3" points="0 53.8512179 53.8507725 53.8512179 53.8507725 0.16119403 0 0.16119403"></polygon>
    </defs>
    <g id="Mockups" stroke="none" stroke-width="1" fill="none" fill-rule="evenodd">
        <g id="Desktop-HD" transform="translate(-13.000000, -9.000000)">
            <g id="Navigation-Bar" transform="translate(-4.000000, 0.000000)">
                <g id="McD-icon" transform="translate(17.000000, 9.000000)">
                    <g id="Page-1">
                        <g id="Group-3" transform="translate(0.000000, 0.012412)">
                            <mask id="mask-2" fill="white">
                                <use xlink:href="#path-1"></use>
                            </mask>
                            <g id="Clip-2"></g>
                            <path d="M53.8507886,26.9938424 C53.8507886,41.8199857 41.7956928,53.8387737 26.9253216,53.8387737 C12.0549503,53.8387737 1.61676647e-05,41.8199857 1.61676647e-05,26.9938424 C1.61676647e-05,12.1676991 12.0549503,0.148749851 26.9253216,0.148749851 C41.7956928,0.148749851 53.8507886,12.1676991 53.8507886,26.9938424" id="Fill-1" fill="#BF2026" mask="url(#mask-2)"></path>
                        </g>
                        <path d="M31.0213994,16.3543755 L31.0293216,16.3613069 C31.0259263,16.3692054 31.0247946,16.3759755 31.0225311,16.3840352 C30.5944114,17.8979696 30.2131778,19.6880293 29.8898246,21.6992472 C29.1373814,26.3585606 28.6887287,32.2028113 28.6887287,38.5488591 L24.0793275,38.5488591 C24.0793275,23.3177964 21.4984832,10.9698501 18.3153934,10.9698501 C15.1334353,10.9698501 12.552591,24.3462143 12.552591,40.8460352 L7.94205808,40.8460352 C7.94205808,23.0772949 12.5878365,8.67251284 18.3153934,8.67251284 C21.5746329,8.67251284 24.4822257,13.0015397 26.3833814,19.770883 C26.9025251,17.9265009 27.4955551,16.2624949 28.1501838,14.8188412 C28.1991719,14.7097128 28.2481599,14.6031636 28.2982796,14.4974203 C28.3073335,14.4771099 28.3165491,14.4577666 28.3267347,14.4372949 L28.3653754,14.4645367 L28.3665072,14.4645367 L31.0213994,16.3543755 Z" id="Fill-4" fill="#FEC326"></path>
                        <path d="M43.3563413,24.3394603 L38.6704671,20.5007857 C37.6185988,14.6371916 36.1171078,10.9698663 34.451515,10.9698663 C33.3983533,10.9698663 32.4126108,12.320511 31.5633234,14.6791021 L29.2146467,12.7552513 C30.7515449,10.160511 32.5411437,8.67252896 34.451515,8.67252896 C38.2344251,8.67252896 41.5450778,14.9549051 43.3563413,24.3394603" id="Fill-6" fill="#FEC326"></path>
                        <path d="M44.8237509,40.8460997 L40.214188,40.8460997 C40.214188,36.4808042 40.0331102,32.3345713 39.7086251,28.5969654 C39.5015174,26.2066191 39.2352359,23.984237 38.9186731,21.9773713 L43.5269425,25.2565415 C43.7091521,26.274643 43.874224,27.3267564 44.0198946,28.4085296 C44.5379066,32.234631 44.8237509,36.436637 44.8237509,40.8460997" id="Fill-8" fill="#FEC326"></path>
                        <path d="M44.1280886,28.2677749 C44.1043222,28.3211301 44.0666515,28.3699719 44.0199269,28.4084973 C43.9334299,28.4823242 43.8173461,28.5174645 43.7148431,28.472169 C43.5804898,28.4130107 43.5281066,28.2508496 43.5064419,28.104163 C43.4440347,27.6808675 43.5088671,27.2506406 43.5248731,26.8228316 C43.5407174,26.3950227 43.4985198,25.9420675 43.2550347,25.5890525 C43.1956994,25.5028137 43.1125976,25.4188316 43.0089629,25.4143182 C42.8906156,25.4098048 42.7950647,25.5073272 42.7312024,25.6059779 C42.5286216,25.9170824 42.4717114,26.2984675 42.4351725,26.6672794 C42.2964539,28.0680555 42.3840826,29.4913988 42.6936934,30.8646107 C42.7291006,31.0212913 42.7664479,31.1836137 42.7336275,31.3402943 C42.7004838,31.4981033 42.5719509,31.6478525 42.411406,31.6491421 C42.2634719,31.6501093 42.1393042,31.5264734 42.0914479,31.3878466 C42.0426216,31.2493809 42.0528072,31.0985033 42.0618611,30.9510107 C42.1315437,29.8189451 42.0990467,28.68156 41.9541844,27.5562645 C41.8940407,27.087351 42.1268551,26.204169 41.5128072,26.0108973 C41.3390048,25.9562525 41.1521066,25.9617331 40.9737772,25.921757 C40.4961844,25.8147242 40.6176036,24.9734525 40.0910228,25.0476018 C39.7356575,25.0977331 39.7141545,25.4383361 39.6860228,25.7379958 C39.6076096,26.5778167 39.8302383,27.411351 39.8213461,28.2505272 C39.8202144,28.3717451 39.7893341,28.5221391 39.7086575,28.5969331 C39.6769689,28.6273988 39.6370347,28.6457749 39.5880467,28.6446466 C39.4433461,28.6422287 39.3717234,28.469751 39.3444,28.3279003 C39.0996216,27.0805809 39.3568491,25.8058585 39.2213641,24.5504794 C39.1610587,23.9954884 39.0756934,23.4438824 39.0063341,22.8900197 C38.9720587,22.6163122 38.9688251,22.3292257 38.917412,22.0580973 C38.9107832,22.0239242 38.9060946,21.9932973 38.9026994,21.964766 C38.8947772,21.9070585 43.5269749,25.2565093 43.5269749,25.2565093 C43.5269749,25.2565093 43.8889689,25.5140973 43.8889689,25.5153869 C43.9460407,25.7378346 43.9652802,25.9839779 43.9971305,26.2699361 C44.0517772,26.7683481 44.106424,27.2665988 44.1610707,27.7637212 C44.1793401,27.9341033 44.1964778,28.1122227 44.1280886,28.2677749" id="Fill-10" fill="#A91F25"></path>
                        <path d="M31.0224988,16.3839707 C31.0247623,16.4112125 31.0236305,16.4395827 31.0191036,16.4679528 C30.9838581,16.710711 30.8391575,17.0774275 30.7731934,17.3475887 C30.6284928,17.9367528 30.5785347,18.4406454 30.572876,19.0593081 C30.5672174,19.7788782 30.421385,20.45412 30.421385,21.1783648 C30.421385,22.0694454 30.4498401,22.9784185 30.5352054,23.8636961 C30.5706126,24.2317021 30.815391,25.9648603 30.3529958,26.1702215 C29.8466246,26.394926 29.8897922,25.226914 29.8897922,24.972711 C29.8897922,23.8933558 29.8636006,22.7924006 29.8897922,21.6993439 C29.9045048,21.0534394 29.9374868,20.41092 30.0047443,19.7777499 C30.0537323,19.3123827 30.5101455,15.6495707 29.2340317,16.4395827 C28.8139958,16.6994275 28.941397,17.2318513 28.941397,17.6609499 L28.941397,19.5598155 C28.941397,20.0240543 28.9027563,20.47572 28.9027563,20.9399588 C28.9027563,21.1964185 28.9494808,22.0069021 28.4473132,21.6140722 C28.195906,21.4178991 28.3721335,20.5664722 28.3721335,20.2429558 L28.3721335,18.1783827 C28.3721335,17.413517 28.4963012,16.5325916 28.3551575,15.7812663 C28.3186186,15.5860603 28.1377024,15.1422931 28.1501515,14.8187767 C28.1548401,14.680311 28.195906,14.5632842 28.2982473,14.497517 C28.3176485,14.4851051 28.3402832,14.4736603 28.3653431,14.4646334 L28.3664749,14.4646334 L31.0213671,16.354311 C31.0224988,16.3634991 31.0224988,16.3738155 31.0224988,16.3839707" id="Fill-12" fill="#A91F25"></path>
                        <mask id="mask-4" fill="white">
                            <use xlink:href="#path-3"></use>
                        </mask>
                        <g id="Clip-21"></g>
                        <path d="M22.4678479,27.4128501 C22.4804587,27.3756143 22.502285,27.4636263 22.5008299,27.4944143 C22.5742311,27.5039248 22.674309,27.4986054 22.7459317,27.4292919 C22.755794,27.5837158 22.868806,27.6923606 22.8600754,27.8691904 C22.8380874,28.3153755 22.1713329,28.3835606 22.1574287,27.8366293 C22.193806,27.676886 22.2819198,27.6372322 22.3373749,27.4781337 C22.3912132,27.5029576 22.4778719,27.4968322 22.4678479,27.4128501" id="Fill-25" fill="#A91F25" mask="url(#mask-4)"></path>
                        <path d="M21.0626515,27.5921463 C21.1111545,27.614391 21.168388,27.6277701 21.1934479,27.6737104 C21.2353222,27.6559791 21.2718611,27.6324448 21.2915856,27.5921463 C21.3493042,27.7468925 21.4889928,27.8295851 21.5037054,27.983203 C21.487376,28.2175791 21.4412982,28.4740388 21.1934479,28.5209463 C21.1208551,28.8057761 20.5863521,28.7040627 20.7520707,28.3742597 C20.7063162,28.3059134 20.670424,28.2274119 20.5886156,28.1950119 C20.6034898,28.1411731 20.7137533,28.1524567 20.6540946,28.0483254 C20.6919269,27.9791731 20.7648431,27.8971254 20.702921,27.8202358 C20.810921,27.8742358 20.8477832,27.7291612 20.8827054,27.6572687 C20.9294299,27.7011134 21.0518192,27.6759672 21.0626515,27.5921463" id="Fill-26" fill="#A91F25" mask="url(#mask-4)"></path>
                        <path d="M5.60303353,29.3519015 C5.84538683,29.5556507 6.02630299,29.8204925 6.25669222,30.0361701 C5.95581198,29.9721761 5.81596168,29.6065881 5.58670419,29.4170239 C5.5797521,29.3828507 5.59785988,29.3739851 5.60303353,29.3519015" id="Fill-32" fill="#A91F25" mask="url(#mask-4)"></path>
                        <path d="M16.5685419,33.5229582 C16.607991,33.5540687 16.6998234,33.5332746 16.7648174,33.5392388 C16.7771048,33.5866299 16.8047515,33.6183851 16.8789611,33.6042 C16.9897096,33.7131672 16.9758054,33.9119194 16.9444401,34.0281403 C16.8918952,34.0845582 16.817524,34.1185701 16.780985,34.1911075 C16.7020868,34.1458119 16.6962665,34.1846597 16.6176916,34.2072269 C16.2645898,34.1229224 16.2353263,33.7534657 16.4867335,33.5555194 C16.5400868,33.5526179 16.5654701,33.5937224 16.5685419,33.5229582" id="Fill-55" fill="#A91F25" mask="url(#mask-4)"></path>
                        <path d="M12.9404533,34.3377457 C12.8132138,34.416086 12.7438545,34.7423427 12.8261479,34.9567307 C12.6698066,35.0940681 12.7023036,35.4901218 12.7771599,35.6409994 C12.7357707,35.6966113 12.6374713,35.6677576 12.5812078,35.7388442 C12.5024713,35.8378173 12.5503275,36.0246412 12.4830701,36.1461815 C12.5430521,36.2217815 12.6413515,36.2599845 12.6628545,36.374271 C12.6124114,36.331877 12.5401419,36.311889 12.466579,36.2928681 C12.4589802,36.2256501 12.5105551,36.3085039 12.5157287,36.2440263 C12.5231659,36.1929278 12.4746629,36.198086 12.4502497,36.1787427 C12.2678784,36.333489 12.1678006,36.5706054 11.9108964,36.6513636 C11.7936808,36.7729039 11.6549623,36.8736501 11.4861719,36.9445755 C11.4755012,37.0535427 11.434597,37.131883 11.4370222,37.2542293 C11.4861719,37.29888 11.5134952,37.4101039 11.5678186,37.4005934 C11.5665251,37.4336382 11.5962737,37.5758113 11.5349982,37.596283 C11.5358066,37.5079487 11.3826988,37.0506412 11.2410701,37.0259785 C11.1783395,37.0148561 11.0415611,37.0919069 10.9304892,37.1238233 C10.8017946,37.1605755 10.6693814,37.2954949 10.5382617,37.2866293 C10.4852317,37.2829218 10.414094,37.1976501 10.3586389,37.1887845 C10.2729503,37.1752442 10.1494293,37.233274 10.0480581,37.2215069 C9.81653713,37.1944263 9.70126168,36.96408 9.44338743,37.1238233 C9.43724371,37.0556382 9.35365689,37.0464501 9.32875868,37.0422591 C9.07589641,37.1127009 9.29593832,37.4587845 9.0676509,37.5474412 C9.02060299,37.2677696 9.2572976,37.0019606 9.1492976,36.716486 C9.13280659,36.7039128 9.10823174,36.61848 9.08381856,36.667483 C9.18438144,36.5444919 9.24048323,36.2005039 9.08381856,36.0157755 C9.0649024,36.029477 9.04000419,36.0372143 9.00233353,36.0320561 C8.96692635,36.0459188 8.97565689,36.1036263 8.95302216,36.1299009 C8.93345928,36.1113636 8.92359701,36.0833158 8.87137545,36.0973397 C8.95528563,36.0048143 8.96482455,35.9226054 9.0185012,35.8202472 C9.01817784,35.7880084 8.97387844,35.7996143 8.98568084,35.7551248 C8.95787246,35.7543188 8.94348323,35.7672143 8.93685449,35.787686 C8.87703413,35.7622173 8.9748485,35.7633457 8.95302216,35.7225636 C8.93475269,35.6566352 8.85779461,35.7236919 8.80589641,35.7225636 C8.85391437,35.5692681 8.66701617,35.5151069 8.7242497,35.2989457 C8.70015988,35.2413994 8.63322575,35.2268919 8.62627365,35.1522591 C8.62902216,35.0737576 8.68318383,35.0461934 8.69175269,34.9730113 C8.68722575,34.9069218 8.62077665,34.9024084 8.59361497,34.858886 C8.78455509,34.4283367 8.26153114,34.2068561 8.11957904,33.897686 C8.08514192,33.8619009 8.07156108,33.9186412 8.02144132,33.9138054 C7.79784251,33.7708263 7.36309401,33.7966173 7.07369281,33.76728 C7.07433952,33.729077 7.04572275,33.7194054 7.05736347,33.6695964 C7.1361,33.6375188 7.27158503,33.6929696 7.33544731,33.6695964 C7.41612395,33.5543427 7.25509401,33.4329636 7.13901018,33.4087845 C7.13092635,33.27048 7.00756707,33.2467845 6.94305808,33.1645755 C6.65543533,33.1144442 6.55697425,32.8760382 6.25674072,32.8386412 C6.37848323,32.7690054 6.19902216,32.6564919 6.14243533,32.6105516 C6.11624371,32.4163128 5.78868683,32.445489 5.83185449,32.2357755 C6.00646527,32.2246531 6.03750719,32.3565099 6.12578263,32.4313039 C6.39513593,32.5541337 6.64444132,32.6963069 6.77976467,32.9527666 C7.0350521,32.8987666 7.0308485,33.1038054 7.15566287,33.1806949 C7.14175868,33.1995546 7.13383653,33.2245397 7.13901018,33.2620979 C7.43245329,33.5248442 8.21723174,33.6009278 8.25037545,33.0667307 C8.45198623,33.1597397 8.59571677,33.027077 8.6751,32.9039248 C8.56386647,32.7051725 8.34042934,32.618289 8.18489641,32.4638651 C8.19944731,32.4184084 8.19475868,32.3540919 8.25037545,32.3497397 C8.39378263,32.5154472 8.5228006,32.7669099 8.78972874,32.7572382 C8.81107006,32.6759964 8.73928563,32.6879248 8.74057904,32.6268322 C8.80751317,32.6360203 8.80783653,32.7117815 8.85504611,32.7407964 C9.00734551,32.7079128 9.08786048,32.769489 9.18195629,32.7082352 C9.40442335,32.875071 9.95396228,33.1163785 10.1785311,32.887483 C10.225094,32.8902233 10.247082,32.9173039 10.2931599,32.9202054 C10.360094,32.8678173 10.4574234,32.8934472 10.522094,32.8710412 C10.6501419,32.9603427 10.9697766,32.9853278 11.143094,32.9527666 C11.235088,32.9353576 11.3122078,32.8723307 11.4045251,32.8710412 C11.4863335,32.8699128 11.5527826,32.9173039 11.6332976,32.9039248 C11.9419383,32.8513755 11.9136449,32.4556442 12.1723275,32.3171785 C12.1821898,32.6640681 11.7880222,32.7524024 11.7967527,33.0992919 C11.8989323,33.1268561 11.931106,33.0583487 12.0255251,33.0667307 C12.0546269,33.167477 11.9778305,33.2411427 12.0743515,33.3111009 C12.1731359,33.320289 12.2099982,33.2263128 12.303124,33.2785397 C12.3152497,33.3829934 12.2368365,33.3970173 12.2051479,33.4577875 C12.3517886,33.6425158 12.5747407,33.6731427 12.7608305,33.7509994 C12.5390102,33.8206352 12.5611599,34.1936382 12.6790222,34.3540263 C12.8015731,34.3844919 12.8686689,34.2885815 12.957106,34.3377457 C12.9537108,34.3559606 12.9404533,34.3467725 12.9404533,34.3377457" id="Fill-120" fill="#A91F25" mask="url(#mask-4)"></path>
                        <path d="M21.9939413,30.1991212 C22.0146359,30.2329719 22.0363006,30.2655331 22.075588,30.2806854 C22.1473725,30.2976107 22.129588,30.2253958 22.1902168,30.2316824 C22.2257856,30.3429063 22.3656359,30.4368824 22.4678156,30.4270496 C22.4943305,30.5800227 22.5342647,30.7196167 22.582121,30.8508287 C22.5782407,30.91176 22.5444503,30.9435152 22.5169653,30.9812346 C22.5601329,31.1238913 22.4183425,31.1669301 22.4026599,31.3070078 C22.3339473,31.3039451 22.2710551,31.3060406 22.2881928,31.3884107 C22.1292647,31.4340287 22.0191629,31.4524048 21.8633066,31.4374137 C21.6516719,31.3386018 21.5266958,31.1540346 21.4057617,30.9647928 C21.5347796,30.9396466 21.4747976,30.7544346 21.454588,30.6553003 C21.507618,30.615969 21.5431868,30.5587451 21.5853844,30.5087749 C21.5863545,30.458966 21.5706719,30.42576 21.5365581,30.410769 C21.6756,30.3753063 21.8293545,30.2584406 21.9939413,30.1991212" id="Fill-145" fill="#A91F25" mask="url(#mask-4)"></path>
                        <path d="M9.30492754,36.8110585 C9.80871198,37.4103779 9.86093353,38.3050048 9.9262509,39.0476257 C10.0408796,40.3508794 9.91283174,41.5706346 9.87435269,42.866957 C9.85689162,43.4607958 10.1146042,43.5733093 10.3894545,43.1158406 C10.6148317,42.7407421 10.4305204,41.9674943 10.4259934,41.5495182 C10.4177479,40.7683719 10.3425683,39.9287122 10.3459635,39.124354 C10.3479036,38.688969 10.3682749,38.2526167 10.435694,37.8220675 C10.5048916,37.3792675 10.6872629,37.1924436 10.8877419,36.8110585" id="Fill-148" fill="#A91F25" mask="url(#mask-4)"></path>
                        <path d="M41.9677168,13.4631188 C41.9736988,13.4716621 41.9597946,13.4731128 41.9525192,13.469083 C41.982106,13.4831069 42.0383695,13.5943307 42.0989982,13.5877218 C42.0779802,13.5998113 42.0876808,13.5998113 42.0702198,13.6204442 C42.0930162,13.6285039 42.0933395,13.6775069 42.1187228,13.6531666 C42.1057886,13.6720263 42.1129024,13.7082949 42.139579,13.7389218 C42.1240581,13.7774472 42.0972198,13.8166173 42.1162976,13.8532084 C42.0362677,13.9202651 42.0668246,13.9555666 41.9973036,13.999089 C41.9966569,14.0129516 41.9806509,14.0277815 41.9997287,14.039871 C41.9347347,14.040677 41.8720042,14.0783964 41.8081419,14.0930651 C41.701597,14.0648561 41.6138066,14.0277815 41.5253695,13.9320322 C41.5598066,13.8504681 41.4309503,13.8372501 41.3814772,13.8543367 C41.3688665,13.836283 41.3530222,13.8182293 41.3522138,13.7996919 C41.3767886,13.7805099 41.3856808,13.7701934 41.3947347,13.7408561 C41.4335371,13.7531069 41.4661958,13.6968501 41.4773515,13.6686412 C41.448088,13.640271 41.4218964,13.6567128 41.3934413,13.6431725 C41.3869743,13.6336621 41.404112,13.6222173 41.3814772,13.6135128 C41.4149443,13.6019069 41.4197946,13.5545158 41.447603,13.5271128 C41.4729862,13.5440382 41.5197108,13.5427487 41.5533395,13.5716024 C41.5811479,13.5540322 41.6293275,13.5068024 41.6427467,13.5250173 C41.6962617,13.4752084 41.6961,13.4673099 41.7481599,13.4054113 C41.7208365,13.4631188 41.8872018,13.496486 41.8946389,13.4469994 C41.9190521,13.4528024 41.9442737,13.4692442 41.9677168,13.4631188" id="Fill-227" fill="#A91F25" mask="url(#mask-4)"></path>
                        <path d="M39.4650431,13.6158018 C39.4600311,13.610966 39.4542108,13.6054854 39.4459653,13.5980704 C39.4559892,13.5427809 39.4555042,13.458154 39.5035222,13.4302675 C39.5096659,13.3915809 39.5064323,13.3540227 39.4778156,13.3174316 C39.4634263,13.2990555 39.4652048,13.2781003 39.4744204,13.2616585 C39.4598695,13.2550496 39.4483904,13.2419928 39.4482287,13.22136 C39.4482287,13.2066913 39.4451569,13.1958913 39.4390132,13.182351 C39.4377198,13.1794496 39.4377198,13.1768704 39.4370731,13.1742913 C39.4336778,13.1659093 39.4317377,13.1567212 39.4343246,13.1459212 C39.4464503,13.0919212 39.4480671,13.0364704 39.4482287,12.9811809 C39.4309293,12.9758615 39.4167018,12.9616764 39.4167018,12.9383033 C39.4167018,12.9107391 39.4149234,12.8841421 39.4115281,12.8577063 C39.4042527,12.8543212 39.3956838,12.8510973 39.3850132,12.8485182 C39.404576,12.8633481 39.3788695,12.859963 39.3733725,12.8704406 C39.3381269,12.8444884 39.322121,12.8623809 39.2815401,12.8378794 C39.2723246,12.8188585 39.2698994,12.7991928 39.2863904,12.7782376 C39.2676359,12.7680824 39.2715162,12.7563152 39.2671509,12.7455152 C39.2458096,12.7542197 39.242576,12.7490615 39.2149293,12.7318137 C39.172085,12.7459988 39.1594743,12.8032227 39.1302108,12.8093481 C39.1153365,12.7946794 39.0332048,12.811766 39.003618,12.7621182 C38.9392707,12.7698555 38.8661928,12.7616346 38.8278754,12.6882913 C38.8066958,12.7053779 38.7948934,12.7189182 38.7649832,12.7052167 C38.7627198,12.6779749 38.7276359,12.6357421 38.6969174,12.6454137 C38.6467976,12.7182734 38.5442946,12.7008645 38.5197198,12.6102734 C38.491588,12.6330018 38.480109,12.6623391 38.4377497,12.6665301 C38.4057377,12.6457361 38.372594,12.6225242 38.3392886,12.5960884 C38.2833485,12.6305839 38.2679892,12.5565958 38.2278934,12.5224227 C38.1467317,12.5227451 38.1692048,12.4152287 38.1370311,12.3707391 C38.1223186,12.3871809 38.1063126,12.379766 38.0909533,12.3865361 C38.1042108,12.4197421 38.0962886,12.4542376 38.1059892,12.4876048 C38.0954802,12.4793839 38.0873964,12.5051749 38.0776958,12.5108167 C38.0413186,12.4938913 38.0314563,12.4934078 37.9973425,12.4564943 C37.9908754,12.4664884 37.9832766,12.4598794 37.9760012,12.4619749 C37.9207078,12.5704585 37.865091,12.4534316 37.7942766,12.4864764 C37.8009054,12.5129122 37.811091,12.5391869 37.8122228,12.5661063 C37.7367198,12.6091451 37.6523246,12.530966 37.5832886,12.5254854 C37.6089952,12.4948585 37.5745581,12.4724525 37.5659892,12.4543988 C37.5441629,12.4722913 37.5776299,12.4758376 37.5719713,12.4837361 C37.5512766,12.4705182 37.5428695,12.4764824 37.5357557,12.4518197 C37.5283186,12.4705182 37.5275102,12.4656824 37.5115042,12.4706794 C37.5202347,12.4893779 37.5485281,12.4834137 37.5430311,12.4982436 C37.5147377,12.4808346 37.5470731,12.5164585 37.5446479,12.5237122 C37.5192647,12.556757 37.5100491,12.5807749 37.4741569,12.6218794 C37.4896778,12.6368704 37.4783605,12.6421899 37.4688216,12.6731391 C37.4282407,12.6794257 37.4130431,12.7176287 37.368097,12.6968346 C37.3608216,12.6847451 37.3718156,12.6625003 37.3488575,12.663951 C37.3593665,12.654763 37.3627617,12.6460585 37.3556479,12.63816 C37.3373784,12.6560525 37.3393186,12.6184943 37.325091,12.6271988 C37.3462707,12.6728167 37.2940491,12.6926436 37.2586419,12.7208525 C37.233582,12.7089242 37.2081988,12.6928048 37.1837856,12.6873242 C37.1892826,12.6940943 37.1800671,12.7016704 37.1808754,12.7089242 C37.1799054,12.6978018 37.1693964,12.6884525 37.158079,12.6889361 C37.1541988,12.6947391 37.146115,12.7010257 37.1509653,12.7063451 C37.157594,12.6997361 37.1640611,12.6903869 37.1718216,12.7008645 C37.157594,12.729557 37.1254204,12.8261122 37.1326958,12.890751 C37.0743305,12.9603869 37.0017377,12.913963 36.9508096,12.9150913 C36.9451509,12.9212167 36.9441808,12.9270197 36.9432108,12.9326615 C36.9436958,12.9083212 36.9118455,12.9376585 36.9123305,12.9134794 C36.9105521,12.9292764 36.9036,12.9450734 36.9110371,12.9603869 C36.9286599,12.9486197 36.9184743,12.9655451 36.9320551,12.9545839 C36.9380371,12.9600645 36.9291449,12.966351 36.9331868,12.9716704 C36.9372287,12.9589361 36.963097,12.9676406 36.9546898,12.9744107 C36.9493545,12.9805361 36.9430491,12.9716704 36.9377138,12.9755391 C37.0386,13.0247033 36.9178275,13.0994973 36.9154024,13.1642973 C36.8914743,13.1975033 36.8439413,13.177354 36.8038455,13.1544645 C36.8001269,13.2162018 36.8504084,13.2457003 36.8597856,13.2913182 C36.8416778,13.3064704 36.8187198,13.32936 36.790103,13.334357 C36.8064323,13.4012525 36.7873545,13.5203749 36.6876,13.4686316 C36.6772527,13.420757 36.6211509,13.376751 36.6192108,13.3367749 C36.5972228,13.3641779 36.6437856,13.4225301 36.6188874,13.4644406 C36.6508994,13.555354 36.7378814,13.5740525 36.7653665,13.6806018 C36.7614862,13.6822137 36.7388515,13.6881779 36.7495222,13.6986555 C36.7603545,13.6925301 36.7724802,13.7004287 36.7834743,13.69656 C36.8725581,13.7742555 36.742085,13.8574316 36.6772527,13.8351869 C36.6782228,13.8767749 36.7013425,13.8827391 36.7404683,13.8907988 C36.7480671,13.929163 36.7873545,13.9217481 36.8264802,13.9660764 C36.8410311,14.0050854 36.8360192,14.0450615 36.8681928,14.0826197 C36.8466898,14.0955152 36.8717497,14.1051869 36.8618874,14.1171152 C36.8478216,14.1229182 36.8122527,14.1406496 36.8128994,14.154351 C36.8206599,14.15016 36.8368275,14.1851391 36.8300371,14.1533839 C36.8453964,14.16096 36.8313305,14.1701481 36.8402228,14.1782078 C36.9228395,14.1622496 36.9567916,14.3011988 36.9118455,14.3610018 C36.9491928,14.3647093 37.0093365,14.3917899 36.9637437,14.4385361 C36.9446659,14.4283809 36.9267198,14.4388585 36.9066719,14.4124227 C36.8827437,14.4303152 36.9333485,14.4327331 36.9212228,14.4411152 C36.9021449,14.4436943 36.8896958,14.4715809 36.8984263,14.4852824 C36.9050551,14.4786734 36.9118455,14.469163 36.9194443,14.4794794 C36.893091,14.4997899 36.9320551,14.4947928 36.9430491,14.5163928 C37.0266359,14.4875391 37.1121629,14.489151 37.1988216,14.5084943 C37.2086838,14.5508884 37.2484563,14.5953779 37.2070671,14.6358376 C37.2261449,14.6471212 37.1942946,14.6495391 37.233582,14.651151 C37.2444144,14.6418018 37.2482946,14.6332585 37.2489413,14.624554 C37.3129653,14.6040824 37.3818395,14.6027928 37.4400431,14.6719451 C37.4334144,14.706763 37.4636479,14.7643093 37.4306659,14.7917122 C37.4474802,14.8091212 37.4597677,14.8186316 37.4878994,14.8178257 C37.4836958,14.7759152 37.5488515,14.7833301 37.5742347,14.7655988 C37.5705162,14.6448645 37.6864383,14.7772048 37.7446419,14.8270137 C37.7412467,14.8602197 37.7370431,14.858769 37.735588,14.8827869 C37.7394683,14.8802078 37.7438335,14.8811749 37.7485222,14.8863331 C37.7608096,14.8790794 37.7402766,14.8536107 37.7637198,14.8597361 C37.7553126,14.8739212 37.7818275,14.8816585 37.7658216,14.8937481 C37.772612,14.8882675 37.7805341,14.8971331 37.7876479,14.8963272 C37.7870012,14.9101899 37.7604862,14.9200227 37.7761689,14.9184107 C37.8099593,14.9026137 37.7894263,14.8655391 37.7933066,14.8536107 C37.8240251,14.7594734 37.995079,14.7813958 38.0553844,14.8112167 C38.0542527,14.8107331 38.0534443,14.8260466 38.0565162,14.8281421 C38.0912766,14.8536107 38.1468934,14.8684406 38.1811689,14.905354 C38.1908695,14.9159928 38.1981449,14.9425899 38.2177078,14.9454913 C38.2288635,14.9296943 38.2527916,14.8864943 38.2833485,14.9071272 C38.2773665,14.8950376 38.2773665,14.8821421 38.2938575,14.8682794 C38.3147138,14.8811749 38.334115,14.8705361 38.3551329,14.8898794 C38.3703305,14.8700525 38.3766359,14.8774675 38.3829413,14.8582854 C38.5106659,14.8316884 38.6338635,14.7346496 38.7685401,14.8123451 C38.7792108,14.8029958 38.7900431,14.7938078 38.8026539,14.8100884 C38.8120311,14.7996107 38.8065341,14.7899391 38.8217317,14.7791391 C38.8357976,14.7975152 38.8485701,14.7925182 38.8621509,14.8063809 C38.8694263,14.7810734 38.9009533,14.7988048 38.8944862,14.7786555 C38.8946479,14.764954 38.9051569,14.7037003 38.9507497,14.7240107 C38.988582,14.7407749 39.0222108,14.8078316 39.0053964,14.8439391 C38.949618,14.8499033 38.9623904,14.932757 38.9627138,14.9745063 C38.9979593,14.9845003 38.9916539,14.9401719 39.0228575,14.9151869 C38.998606,14.8694078 39.1446,14.791551 39.0514743,14.7644704 C39.0323964,14.7817182 39.058588,14.780751 39.053091,14.7897779 C39.0390251,14.7912287 39.0247976,14.7941301 39.0096,14.7755928 C39.0393485,14.7535093 38.9795281,14.7188525 38.9869653,14.6919331 C39.0060431,14.6846794 39.0304563,14.6395451 39.0614982,14.6532466 C39.0808994,14.6401899 39.0506659,14.6310018 39.0678036,14.6184287 C39.0802527,14.6166555 39.0920551,14.598763 39.1051509,14.6034376 C39.1091928,14.6287451 39.1308575,14.6140764 39.1533305,14.6216525 C39.1602826,14.6505063 39.1694982,14.6624346 39.1751569,14.696769 C39.1913246,14.7876824 39.031588,14.8876227 39.1412048,14.9629003 C39.188576,14.9266316 39.2414443,14.9720884 39.289624,14.9490376 C39.285097,14.9437182 39.2763665,14.9387212 39.280085,14.932757 C39.3049832,14.9280824 39.3245461,14.8876227 39.3272946,14.8700525 C39.2970611,14.8292704 39.2815401,14.7828466 39.3108036,14.7435152 C39.3318216,14.739969 39.3538096,14.7464167 39.3730491,14.7180466 C39.3374802,14.5570137 39.1612527,14.6829063 39.1143665,14.5473421 C39.1494503,14.5383152 39.1533305,14.5160704 39.1751569,14.4967272 C39.1583425,14.4796406 39.1332826,14.4801242 39.1382946,14.4565899 C39.1586659,14.4554615 39.1389413,14.4420824 39.1538156,14.4299928 C39.1758036,14.4306376 39.1898695,14.4590078 39.203612,14.473354 C39.2194563,14.4673899 39.1921329,14.4441779 39.2149293,14.4515928 C39.2202647,14.4585242 39.2115341,14.4659391 39.2121808,14.4728704 C39.2325521,14.4873779 39.2517916,14.4860884 39.2377257,14.4715809 C39.2438695,14.4751272 39.2448395,14.4688406 39.2458096,14.4623928 C39.2437078,14.4951152 39.2692527,14.4656167 39.2886539,14.4681958 C39.2614922,14.4385361 39.2383725,14.4224167 39.2286719,14.3995272 C39.2223665,14.4033958 39.2168695,14.4064585 39.2076539,14.4050078 C39.1834024,14.3801839 39.1922946,14.348751 39.1989234,14.3334376 C39.1714383,14.3173182 39.1712766,14.3128048 39.145085,14.2944287 C39.1686898,14.2757301 39.1412048,14.2605779 39.1585042,14.242363 C39.2220431,14.3263451 39.3305281,14.382763 39.3863066,14.3937242 C39.370624,14.3679331 39.4094263,14.3458496 39.4194503,14.3108704 C39.4084563,14.2547749 39.4006958,14.1914257 39.3812946,14.1172764 C39.3982707,14.0910018 39.4288275,14.0829421 39.4459653,14.0621481 C39.517588,13.9749421 39.4545341,13.8619451 39.4933365,13.7994018 C39.5022287,13.8085899 39.512091,13.8124585 39.5203365,13.8160048 C39.4923665,13.7534615 39.4702168,13.6881779 39.4648814,13.6204764 C39.4647198,13.6190257 39.4650431,13.6174137 39.4650431,13.6158018" id="Fill-235" fill="#A91F25" mask="url(#mask-4)"></path>
                        <path d="M40.4104796,13.4903445 C40.4518689,13.4697116 40.5163778,13.5021116 40.545803,13.5230669 C40.5199347,13.6159146 40.4159766,13.53564 40.4104796,13.4903445 M40.3988389,13.6697534 C40.3802461,13.6847445 40.3804078,13.6518609 40.3558329,13.6407385 C40.3658569,13.6233296 40.3800844,13.5909296 40.3936653,13.5877057 C40.4255156,13.6133355 40.3965754,13.6425116 40.3988389,13.6697534 M40.3711922,13.5250012 C40.3828329,13.534834 40.3781443,13.5459564 40.3962521,13.5556281 C40.3823479,13.5806131 40.3653719,13.5536937 40.3511443,13.5675564 C40.3501743,13.5538549 40.3616533,13.5391863 40.3711922,13.5250012 M41.1647012,14.2031445 C41.1760186,14.1543027 41.1884677,14.0442072 41.1355994,13.9710251 C41.1855575,13.898649 41.0292162,13.7920997 41.1289707,13.7239146 C41.0927551,13.6965116 41.0597731,13.6884519 41.0411802,13.6471863 C41.0746473,13.607049 41.1213719,13.5970549 41.1422281,13.5717475 C41.1249287,13.5349952 41.0971204,13.5395087 41.0634916,13.563043 C41.0589647,13.5825475 41.043282,13.6381594 41.021779,13.6299385 C41.0044796,13.6189773 41.0204856,13.6057594 41.0101383,13.5939922 C40.9980126,13.6039863 41.009815,13.6123684 40.9934856,13.6225236 C40.962282,13.6197833 40.9050485,13.5644937 40.9372222,13.5299982 C40.9116772,13.5114609 40.8971263,13.5520818 40.8846772,13.5699743 C40.8783719,13.54644 40.8426413,13.5540161 40.8229168,13.5416042 C40.777809,13.4740639 40.7440186,13.5399922 40.6942222,13.5409594 C40.648791,13.4959863 40.6023898,13.5764221 40.5605156,13.5358012 C40.5525934,13.5282251 40.5401443,13.4964699 40.5519467,13.4768042 C40.588809,13.4813176 40.5949527,13.4381176 40.6326234,13.4439206 C40.6119287,13.4255445 40.6453958,13.4034609 40.6609168,13.3826669 C40.680803,13.3842788 40.7026293,13.4092639 40.7213838,13.3926609 C40.696809,13.3873415 40.6782162,13.3684818 40.6639886,13.3594549 C40.6798329,13.3460758 40.6701323,13.3344699 40.6892102,13.3212519 C40.6541263,13.2975564 40.7060246,13.2680579 40.6887251,13.243234 C40.6476593,13.232434 40.6905036,13.1806907 40.6749826,13.1708579 C40.6806413,13.1763385 40.6486293,13.1847206 40.638282,13.1732758 C40.6426473,13.16844 40.6394138,13.1640878 40.6420006,13.1592519 C40.6536413,13.1513534 40.6662521,13.1558669 40.6772461,13.1386191 C40.6765994,13.1247564 40.6866234,13.1104101 40.6791862,13.097031 C40.6245395,13.0876818 40.5823419,13.0360997 40.5933359,12.9787146 C40.5276952,13.0291684 40.5527551,12.936643 40.5171862,12.9379325 C40.5070006,12.9493773 40.5131443,12.9595325 40.4963299,12.9712997 C40.4694916,12.9398669 40.4444317,12.9127863 40.4093479,12.9035982 C40.4289108,12.8995684 40.4067611,12.8821594 40.4350545,12.8745833 C40.4101563,12.8563684 40.4169467,12.8681355 40.4196952,12.8523385 C40.3880066,12.8589475 40.3559946,12.8620101 40.3220425,12.8358967 C40.3262461,12.7876997 40.3914018,12.8102669 40.3962521,12.7715803 C40.3734557,12.7511087 40.3529228,12.7667445 40.3307731,12.757234 C40.2964976,12.7006549 40.3076533,12.6585833 40.3171922,12.6160281 C40.2992461,12.6271504 40.2804916,12.5765355 40.2737012,12.5868519 C40.2300485,12.6203803 40.2646473,12.6817952 40.2499347,12.7122609 C40.2104856,12.7312818 40.1904377,12.6776042 40.1593958,12.6676101 C40.1652162,12.6614848 40.1716832,12.6663206 40.1771802,12.6571325 C40.1484018,12.6479445 40.1723299,12.6119982 40.1514737,12.6174788 C40.1509886,12.6352101 40.1296473,12.632631 40.1443599,12.6456878 C40.1272222,12.6416579 40.1354677,12.633437 40.1163898,12.6382728 C40.1063659,12.6464937 40.114288,12.6535863 40.1129946,12.6611624 C40.0452521,12.6563266 39.9752461,12.6150609 39.903785,12.5554191 C39.9151024,12.5417176 39.9207611,12.5530012 39.9210844,12.5360758 C39.9018449,12.5265654 39.9126772,12.5151206 39.9052401,12.5051266 C39.8567371,12.5381713 39.8038689,12.5015803 39.7542341,12.5191504 C39.7621563,12.535431 39.7906114,12.5247922 39.7836593,12.5447803 C39.7552042,12.5555803 39.7275575,12.5800818 39.6981323,12.5733116 C39.6798629,12.5325296 39.6683838,12.536237 39.6305515,12.5225355 C39.6189108,12.5325296 39.6148689,12.54204 39.6140605,12.5512281 C39.5708928,12.5402669 39.5634557,12.4686967 39.5120425,12.470631 C39.4884377,12.5049654 39.5290186,12.5267266 39.5272401,12.5612221 C39.5244916,12.623443 39.4651563,12.6621296 39.4158449,12.6877594 C39.3780126,12.7212878 39.400324,12.7810907 39.3492341,12.7928579 C39.3341982,12.764649 39.2748629,12.7543325 39.2641922,12.7615863 C39.2732461,12.7578788 39.2753479,12.778834 39.292324,12.76884 C39.2814916,12.7833475 39.3167371,12.7980161 39.3050964,12.8231624 C39.2884437,12.8450848 39.2509347,12.9000519 39.2218329,12.8882848 C39.2425275,12.8944101 39.2371922,12.9056937 39.2609587,12.9224579 C39.2444677,12.9601773 39.2315335,12.9925773 39.2040485,13.0007982 C39.2040485,13.0356161 39.2037251,13.0705952 39.2021084,13.1052519 C39.2169826,13.119437 39.2174677,13.14684 39.2213479,13.163443 C39.2110006,13.1603803 39.2035635,13.1652161 39.1967731,13.1719863 C39.1948329,13.1898788 39.1915994,13.207449 39.1880425,13.2251803 C39.1970964,13.248231 39.2038868,13.2711206 39.2040485,13.297234 C39.2040485,13.2982012 39.2035635,13.2986848 39.2035635,13.2994907 C39.2320186,13.304649 39.2517431,13.3434967 39.2531982,13.3721893 C39.249318,13.3747684 39.2457611,13.3787982 39.2420425,13.3816997 C39.2695275,13.4290907 39.2777731,13.4756758 39.266294,13.5325773 C39.2688808,13.5628818 39.2588569,13.595443 39.244306,13.6217176 C39.2425275,13.6292937 39.2413958,13.6368699 39.2401024,13.6442848 C39.2504497,13.6525057 39.2561084,13.661049 39.2404257,13.671043 C39.2606353,13.6816818 39.2527132,13.6979624 39.2693659,13.6965116 C39.2641922,13.7223027 39.2349287,13.7669534 39.2784198,13.7646967 C39.2643539,13.7501893 39.266294,13.7106967 39.293294,13.7087624 C39.3047731,13.7759803 39.3029946,13.8303027 39.3012162,13.9052579 C39.3178689,13.9168639 39.314797,13.9370131 39.3353299,13.93524 C39.3211024,13.9429773 39.3293479,13.9708639 39.3212641,13.994237 C39.3235275,13.9987504 39.325791,14.0032639 39.3283778,14.0076161 C39.3369467,14.0085833 39.3451922,14.0119684 39.3408269,14.0176101 C39.3374317,14.0176101 39.3353299,14.0177713 39.3335515,14.0179325 C39.3345216,14.0200281 39.3346832,14.0219624 39.3353299,14.0240579 C39.3400186,14.0267982 39.3451922,14.0308281 39.3421204,14.0358251 C39.3409886,14.0353415 39.3400186,14.0359863 39.3390485,14.0356639 C39.3400186,14.0434012 39.3392102,14.0508161 39.3366234,14.0575863 C39.3489108,14.0572639 39.363785,14.0564579 39.374779,14.047431 C39.4119647,14.0712878 39.3933719,14.0712878 39.4236054,14.0901475 C39.4345994,14.0946609 39.4436533,14.0666131 39.4549707,14.0743504 C39.4782521,14.1210967 39.4915096,14.1567206 39.5046054,14.2042728 C39.4992701,14.1984699 39.5012102,14.1857355 39.4900545,14.1912161 C39.5091323,14.2511803 39.5839886,14.2495684 39.6156772,14.2153952 C39.671294,14.222649 39.7288509,14.2463445 39.7443719,14.285031 C39.7555275,14.2618191 39.7734737,14.2769713 39.8138928,14.2942191 C39.8289287,14.2690728 39.8470365,14.2848699 39.8632042,14.2772937 C39.8486533,14.2576281 39.8772701,14.2594012 39.8895575,14.2573057 C39.8809886,14.2698788 39.892791,14.2801952 39.9041084,14.27004 C39.8785635,14.2611743 39.9054018,14.2487624 39.8974796,14.238446 C39.8826054,14.2390907 39.8843838,14.2663325 39.8614257,14.2498907 C39.8911743,14.2300639 39.864821,14.2224878 39.9007132,14.2153952 C39.8501084,14.2105594 39.8523719,14.146243 39.9002281,14.1375385 C39.9160725,14.1533355 39.9430725,14.1483385 39.9702341,14.1557534 C39.9797731,14.1475325 39.9744377,14.1402788 39.9826832,14.1318967 C40.0024078,14.1483385 40.0011144,14.1265773 40.0198689,14.1388281 C40.0142102,14.1317355 40.0237491,14.1235146 40.0231024,14.1159385 C40.0326413,14.1244818 40.0176054,14.1344758 40.0340964,14.1426967 C40.0399168,14.1360878 40.0410485,14.1298012 40.0420186,14.123837 C40.0444437,14.1388281 40.0468689,14.15124 40.0662701,14.1451146 C40.0995754,14.0917594 40.1480784,14.0917594 40.1994916,14.0722549 C40.189791,14.0859564 40.2140425,14.0732221 40.2190545,14.0895027 C40.2146892,14.09724 40.2179228,14.1049773 40.2067671,14.113037 C40.2235814,14.1414072 40.2518749,14.1543027 40.2787132,14.1588161 C40.3037731,14.2062072 40.3094317,14.2793893 40.3529228,14.3101773 C40.3500126,14.3058251 40.3433838,14.3014728 40.3475874,14.2967982 C40.3744257,14.3209773 40.3776593,14.3430609 40.4151683,14.3474131 C40.3905934,14.3501534 40.4135515,14.3778788 40.4088629,14.3936758 C40.4163,14.3901296 40.4237371,14.3872281 40.4313359,14.3873893 C40.5189647,14.4512221 40.5783,14.5294012 40.7021443,14.5903325 C40.7081263,14.5837236 40.7090964,14.5775982 40.7102281,14.5714728 C40.7642281,14.5850131 40.7682701,14.5883982 40.8259886,14.5871087 C40.8185515,14.6074191 40.8921144,14.6050012 40.8767551,14.5883982 C40.8856473,14.5842072 40.896318,14.604034 40.9047251,14.5956519 C40.8993898,14.5671206 40.9525814,14.5843684 40.9487012,14.5653475 C40.9556533,14.5771146 40.9548449,14.6004878 40.9729527,14.5867863 C40.9614737,14.5721176 40.9666473,14.5564818 40.9702042,14.5411684 C40.9973659,14.556643 41.0196772,14.4994191 41.0466772,14.5132818 C41.0376234,14.5031266 41.0641383,14.4908758 41.058318,14.4803982 C41.0672102,14.4762072 41.0777192,14.4958728 41.086288,14.4876519 C41.1173299,14.4188221 41.1262222,14.351443 41.161791,14.3040519 C41.1574257,14.29164 41.2017251,14.2427982 41.1647012,14.2031445" id="Fill-236" fill="#A91F25" mask="url(#mask-4)"></path>
                        <path d="M31.5376814,17.9054006 C31.5215138,17.9458603 31.4432623,18.0296812 31.3970228,18.0324215 C31.4613701,18.0751379 31.4557114,18.1932931 31.4101186,18.2364931 C31.4442323,18.2480991 31.4906335,18.3030663 31.4574898,18.3357887 C31.4751126,18.325311 31.4587832,18.3590006 31.4699389,18.3657707 C31.4778611,18.358517 31.5221605,18.3849528 31.5598311,18.4062304 C31.5617713,18.4128394 31.5632263,18.4192872 31.5643581,18.4257349 C31.5889329,18.4363737 31.6125377,18.4491081 31.6346874,18.4639379 C31.6725198,18.4769946 31.7131006,18.5002066 31.7368671,18.5229349 C31.8023461,18.477317 31.9137413,18.5535618 31.9716216,18.4976275 C31.9651545,18.5021409 31.9512503,18.5026245 31.9559389,18.4932752 C32.006382,18.4699021 32.0817234,18.4392752 32.1245677,18.4005887 C32.1117952,18.4130006 32.1232743,18.3374006 32.1478491,18.3631916 C32.1635317,18.3465887 32.1486575,18.3054842 32.1392802,18.3074185 C32.1423521,18.3101588 32.1415437,18.3174125 32.1342683,18.3128991 C32.1344299,18.2958125 32.1633701,18.2769528 32.1515677,18.2606722 C32.1696754,18.2492275 32.1885916,18.2534185 32.2062144,18.2313349 C32.2029808,18.2263379 32.2041126,18.2213409 32.2102563,18.2156991 C32.1860048,18.2111857 32.1902084,18.1821707 32.2123581,18.1695976 C32.199909,18.1542842 32.2024958,18.1246245 32.1737174,18.125914 C32.2154299,18.1060872 32.1480108,18.077717 32.1906934,18.073526 C32.1816395,18.062726 32.1735557,18.0714304 32.1649868,18.0699797 C32.1688671,18.0117887 32.151891,17.911526 32.0881904,17.9162006 C32.0775198,17.84592 32.0023401,17.8581707 31.9527054,17.8072334 C31.9598192,17.8111021 31.9735617,17.8094901 31.9677413,17.8011081 C31.957394,17.8082006 31.9615976,17.7938543 31.951412,17.7867618 C31.9105078,17.7883737 31.870412,17.8048155 31.8265976,17.7638722 C31.7994359,17.7954663 31.7690407,17.7722543 31.7397772,17.774511 C31.7616036,17.8207737 31.6726814,17.8102961 31.6927293,17.8391499 C31.6731665,17.8246424 31.6350108,17.8302842 31.6477832,17.857526 C31.6175497,17.8428573 31.5884479,17.8412454 31.5591844,17.8375379 C31.5486754,17.8465648 31.5544958,17.8547857 31.5454419,17.8641349 L31.5126216,17.8352812 C31.5218371,17.8678424 31.5255557,17.8589767 31.5376814,17.9054006" id="Fill-296" fill="#A91F25" mask="url(#mask-4)"></path>
                        <path d="M38.3521096,14.8131188 C38.0758042,15.0860203 38.1623012,15.8718412 38.1623012,16.2471009 C38.1623012,17.2411845 38.3074868,18.290074 38.2075707,19.2780322 C38.1957683,19.3952203 38.2316605,19.6392681 38.0877683,19.6961696 C37.754876,19.8267367 37.9278701,19.1777696 37.9270617,19.0600979 C37.9233431,18.5868322 37.8963431,18.1077636 37.8968281,17.6299845 C37.8973132,17.0777337 37.8525287,16.5414412 37.8229419,15.9919307 C37.7993371,15.5591248 37.8200317,14.9967188 37.403391,14.7752382 C37.1107563,14.619686 36.8677563,13.9612084 37.5552054,14.056474" id="Fill-341" fill="#A91F25" mask="url(#mask-4)"></path>
                    </g>
                </g>
            </g>
        </g>
    </g>
</svg>