<?xml version="1.0" encoding="UTF-8" standalone="no"?>
<svg width="147px" height="auto" viewBox="0 0 147 39" version="1.1" xmlns="http://www.w3.org/2000/svg" xmlns:xlink="http://www.w3.org/1999/xlink">
    <!-- Generator: Sketch 49.1 (51147) - http://www.bohemiancoding.com/sketch -->
    <title>i'm not lovin it</title>
    <desc>Created with Sketch.</desc>
    <defs>
        <polygon id="path-1" points="0.114532317 0.168320896 11.3711769 0.168320896 11.3711769 14.3837336 0.114532317 14.3837336"></polygon>
        <polygon id="path-3" points="0 39 146.88557 39 146.88557 0.168320896 0 0.168320896"></polygon>
    </defs>
    <g id="Mockups" stroke="none" stroke-width="1" fill="none" fill-rule="evenodd">
        <g id="Desktop-HD" transform="translate(-79.000000, -12.000000)">
            <g id="Navigation-Bar" transform="translate(-4.000000, 0.000000)">
                <g id="i'm-not-lovin-it" transform="translate(83.000000, 12.000000)">
                    <g id="Page-1">
                        <polygon id="Fill-1" fill="#FEFEFE" points="0 38.4179104 4.93873518 38.4179104 4.93873518 21.8283582 0 21.8283582"></polygon>
                        <polygon id="Fill-2" fill="#FEFEFE" points="0 19.7910448 4.93873518 19.7910448 4.93873518 15.7164179 0 15.7164179"></polygon>
                        <g id="Group-25">
                            <path d="M8.42253899,20.8526015 L10.4942771,20.8526015 C10.4744834,21.5205493 10.3342782,22.0944896 10.0786099,22.5628776 C9.80644682,23.0560045 9.28851231,23.4353328 8.53800209,23.6926164 L8.42253899,23.7321985 L8.42253899,26.1236164 L8.61552733,26.0988776 C9.28191441,26.0131164 9.91036362,25.8102582 10.4843802,25.4969 C11.0550979,25.185191 11.5515892,24.7860716 11.962308,24.3127358 C12.3713773,23.8377507 12.6930246,23.280303 12.9206518,22.6568851 C13.1466296,22.0318179 13.248897,21.3556239 13.2291033,20.6497433 L13.2291033,15.668997 L8.42253899,15.668997 L8.42253899,20.8526015 Z" id="Fill-3" fill="#FEFEFE"></path>
                            <path d="M39.0836027,24.6561104 C38.7800997,23.8908567 38.3528862,23.2608418 37.8118591,22.7825582 C37.2708319,22.3075731 36.6143417,21.9579313 35.858883,21.7418791 C35.1116718,21.5291254 34.2918837,21.4202746 33.4242609,21.4202746 C32.2630319,21.4202746 31.2436576,21.7055955 30.3908801,22.2663418 C29.6420193,22.7594687 29.0251164,23.3268119 28.5517177,23.9568269 C28.1014116,23.0579836 27.4663645,22.4114761 26.6614216,22.033797 C25.7921494,21.6264313 24.8206098,21.4202746 23.7748439,21.4202746 C22.6828928,21.4202746 21.6981574,21.6610657 20.8470293,22.1344015 C20.1146633,22.5417672 19.4664204,23.1008642 18.9171459,23.7984985 L18.9171459,21.8606254 L14.362951,21.8606254 L14.362951,38.4504687 L19.1695153,38.4504687 L19.1695153,28.8501627 C19.1695153,28.0832597 19.28003,27.4581925 19.4994099,26.9914537 C19.7171403,26.5247149 19.981056,26.1651776 20.2845591,25.9210881 C20.5897116,25.6753493 20.9064104,25.5071254 21.2264081,25.4180657 C21.5563027,25.329006 21.8218679,25.2828269 22.0148562,25.2828269 C22.6894907,25.2828269 23.2024768,25.3949761 23.5389693,25.6176254 C23.8738123,25.8369761 24.1162848,26.1321925 24.259789,26.4950284 C24.409891,26.8727075 24.4956636,27.2932672 24.5154573,27.7435134 C24.5369004,28.2201478 24.5467973,28.6984313 24.5467973,29.1651701 L24.5467973,38.4504687 L29.3533616,38.4504687 L29.3533616,29.2278418 C29.3533616,28.7347149 29.38965,28.2399388 29.4605773,27.760006 C29.5298552,27.2932672 29.6700604,26.869409 29.8795434,26.4999761 C30.0840781,26.1404388 30.3710864,25.8435731 30.732321,25.6192746 C31.0919061,25.3966254 31.5735522,25.2828269 32.1673625,25.2828269 C32.7611728,25.2828269 33.2345715,25.3801328 33.5743629,25.5747448 C33.9108554,25.7677075 34.1698227,26.0299388 34.3413679,26.3548418 C34.5178615,26.687991 34.6267267,27.090409 34.6663141,27.545603 C34.7092004,28.0238866 34.728994,28.5368045 34.728994,29.0711627 L34.728994,38.4504687 L39.5355583,38.4504687 L39.5355583,27.4054164 C39.5355583,26.3416478 39.3838068,25.4164164 39.0836027,24.6561104" id="Fill-5" fill="#FEFEFE"></path>
                            <path d="M49.0360279,22.853806 L49.0211827,22.8092761 C48.9865437,22.7020746 48.9354101,22.6031194 48.8710806,22.515709 C48.7506691,22.2567761 48.6154123,22.0143358 48.4884029,21.7883881 C48.4290219,21.6828358 48.3712903,21.5772836 48.3152082,21.4733806 C47.6092338,20.1490299 46.0488323,17.5267164 45.9828534,17.4145672 C45.7997619,17.1061567 45.4665684,16.9148433 45.1069832,16.9115448 C44.7473981,16.9082463 44.4109056,17.0946119 44.2228657,17.4013731 C44.143691,17.5316642 42.2665908,20.6091716 41.6843268,23.7691418 C41.58041,24.3282388 41.9515414,24.8642463 42.5090633,24.9681493 C42.5733927,24.979694 42.6360727,24.9846418 42.6971032,24.9846418 C43.1836977,24.9846418 43.6175091,24.6382985 43.7082302,24.1418731 C43.9836921,22.6476493 44.6137908,21.1303358 45.1416222,20.0418284 C45.6166704,20.8598582 46.1659449,21.8147761 46.4991385,22.4414925 C46.5618184,22.5569403 46.6277973,22.6756866 46.6937763,22.7927836 C46.8768678,23.1226343 47.0517119,23.432694 47.139134,23.7213134 C47.2941844,24.2342313 47.8170674,24.5409925 48.3432493,24.427194 C48.8661322,24.3133955 49.214171,23.8169701 49.1432437,23.2859104 C49.1185016,23.1044925 49.0706668,22.9593582 49.0360279,22.853806" id="Fill-7" fill="#FEFEFE"></path>
                            <path d="M39.4007964,14.2798306 C39.1550249,13.0181515 38.9455418,11.3969351 38.7789451,9.46071119 C38.6205957,7.83124851 38.4671947,6.17539776 38.322041,4.53933806 L38.3154432,4.46842015 L38.2824537,4.40409925 C38.171939,4.19464403 37.9888475,4.05940522 37.7282308,4.00992761 C37.6886434,4.00497985 37.5599845,3.99508433 37.3439036,3.98353955 C37.1624615,3.97364403 37.0074111,3.98353955 36.8688553,4.00992761 C36.1744272,4.14516642 36.1199946,4.63334552 36.1298914,4.84774851 C36.3162819,7.37770373 36.4729818,9.43762164 36.5933934,10.9961664 C36.1711283,10.382644 35.7026779,9.62728582 35.1896918,8.73833806 C34.2890796,7.17649478 33.589703,6.08963657 33.0470264,5.41509179 L33.0024907,5.35736791 L32.9381612,5.32273358 C32.3921856,5.02916642 31.9963121,4.93186045 31.6977575,5.01597239 C30.8284853,5.19244254 30.810341,5.72185299 30.8400316,5.92965896 C30.8779694,6.24466642 31.0643599,7.8741291 31.3992029,10.8147485 C31.6268302,12.7476739 31.8676532,14.3705396 32.1150742,15.6437634 C32.2569289,16.3743828 32.4152783,17.0835619 32.5835245,17.753159 C32.6346582,17.9560172 32.6857918,18.1506291 32.735276,18.3402933 L32.7435234,18.3699799 C32.9002233,18.8103306 33.1690874,18.9439201 33.38022,18.9769052 C33.4445494,18.9933978 33.5600125,19.0230843 33.7167125,19.0610172 C33.8602166,19.1071963 33.9855766,19.1286366 34.0977407,19.1286366 C34.1455754,19.1286366 34.1934102,19.1253381 34.2379459,19.1170918 C34.3616564,19.0907037 34.53815,19.0214351 34.6866026,18.8218754 C34.876292,18.6322112 35.057734,18.2941142 34.9274256,17.7234724 C34.6981489,16.8031888 34.4936142,15.8779575 34.3171206,14.9708679 C34.0136176,13.4139724 33.7892893,11.8884127 33.6507335,10.4321216 C35.1748466,12.9703231 36.4300955,14.8686142 37.3851404,16.0841142 C37.8206013,16.6514575 38.3038968,16.8905993 38.8168829,16.7899948 C39.0972934,16.7355694 39.3364669,16.577241 39.5113111,16.329853 C39.6927531,16.0709201 39.7488352,15.7806515 39.6746089,15.4920321 C39.5723416,15.101159 39.4816206,14.6937933 39.4007964,14.2798306" id="Fill-9" fill="#FEFEFE"></path>
                            <path d="M42.3591262,11.6947903 C42.0985095,11.4309097 41.9286137,11.0845664 41.8411917,10.6359694 C41.7290275,10.0537828 41.7768622,9.60023806 41.9896442,9.25554403 C42.0127369,9.2637903 42.0391284,9.27533507 42.0688189,9.29017836 C42.3657241,9.41882015 42.6098461,9.42211866 42.7780923,9.3066709 C42.9595344,9.1961709 43.1409764,8.9751709 43.3620058,8.59089478 C43.5071594,8.35010373 43.592932,8.29732761 43.5912825,8.2940291 C43.5945815,8.29237985 43.6028288,8.2940291 43.6160246,8.29567836 C43.8848887,8.35670075 44.1471549,8.77396194 44.3549885,9.47489478 L44.356638,9.47984254 C44.4918948,9.91359627 44.4077716,10.4529022 44.1042686,11.0779694 C43.7941677,11.7211784 43.4312836,12.0873127 43.0255133,12.1664769 C43.0255133,12.1681261 42.8424218,12.1730739 42.3591262,11.6947903 M43.5170562,14.1224918 C43.6984983,14.0878575 43.8766413,14.0317828 44.049836,13.9542679 C45.3859091,13.3572381 46.278274,12.1235963 46.6988896,10.2879769 C46.7797138,9.95317836 46.7830128,9.5952903 46.7104359,9.22255896 C46.5867255,8.58594701 46.2254909,7.89985746 45.6069385,7.12470821 C45.2209618,6.64312612 44.6683884,6.35450672 43.9640634,6.26214851 C42.9760291,6.13845448 42.7055155,6.03290224 42.6362377,5.99332015 C42.3657241,5.83993955 42.0869631,5.78881269 41.8115012,5.84323806 C41.3809887,5.92570075 40.9851152,6.23411119 40.6354269,6.75032761 C40.3517176,7.15769328 40.1290387,7.61948433 39.9756377,8.13075299 C39.6325473,9.30007388 39.5500737,10.3687903 39.7331652,11.3088649 C39.9063599,12.1978127 40.3170786,12.8839022 40.9554247,13.350641 C41.7059349,13.8932455 42.4152083,14.1653724 43.0749975,14.1653724 C43.2250995,14.1653724 43.3719026,14.1505291 43.5170562,14.1224918" id="Fill-11" fill="#FEFEFE"></path>
                            <g id="Group-15" transform="translate(43.757839, 0.000000)">
                                <mask id="mask-2" fill="white">
                                    <use xlink:href="#path-1"></use>
                                </mask>
                                <g id="Clip-14"></g>
                                <path d="M11.3629296,0.914278358 C11.3101464,0.648748507 11.1105602,0.39806194 10.7047898,0.376621642 C10.6783983,0.343636567 10.6503572,0.315599254 10.6256151,0.294158955 C10.4903584,0.182009701 10.3138647,0.144076866 10.0961343,0.182009701 C9.75964182,0.208397761 9.38026303,0.322196269 8.92830743,0.533300746 C8.20253931,0.884591791 7.99635519,0.958808209 7.94192258,0.975300746 L7.88254155,0.996741045 C7.44708069,1.20949478 6.97038299,1.36782313 6.46399478,1.4651291 C5.96750341,1.56243507 5.50894992,1.58387537 5.10317957,1.52780075 L4.9481291,1.50636045 L4.82771758,1.60531567 C4.40545249,1.95165896 3.69947805,2.27656194 2.73288688,2.57177836 C1.53042107,2.9230694 0.756818235,3.20179328 0.370841555,3.42609179 L0.288367905,3.47392015 L0.240533188,3.55803209 C0.131667971,3.74604701 0.0920806192,3.92911418 0.126719552,4.10063657 C0.144863755,4.18969627 0.144863755,4.19464403 0.497850975,4.68612164 L0.544036219,4.75209179 L0.613314084,4.79002463 C1.11970229,5.07204701 1.71516204,5.15121119 2.38484808,5.02092015 C2.65866059,4.96814403 3.11226567,4.82960672 3.77205486,4.59706194 C4.13328945,4.4700694 4.44503984,4.37771119 4.70070816,4.31998731 C4.85905756,5.1545097 5.03225223,6.30074104 5.21534373,7.73559179 C5.43967206,9.46236045 5.6326604,10.7421813 5.78771086,11.5420694 C5.88502976,12.0417933 5.99059603,12.5167784 6.1027602,12.9587784 C6.21162542,13.3710918 6.43925269,13.7256813 6.77904412,14.009353 C7.07429979,14.2583903 7.40419439,14.3837336 7.75388266,14.3837336 C7.83470684,14.3837336 7.91718049,14.3754873 8.00130361,14.3622933 C8.34604347,14.3177634 8.57696968,14.0736739 8.61820651,13.704241 C8.63470124,13.5360172 8.61160862,13.3232634 8.5456297,13.0610321 C8.38233187,12.3502037 8.22563194,11.6063903 8.07882884,10.8526813 C7.70769742,8.94449478 7.35141125,6.51844254 7.02316613,3.63884552 C8.75181382,2.99893507 9.98891856,2.50910672 10.6965425,2.18090522 C10.9819013,2.05061418 11.3299401,1.74055448 11.367878,1.00168881 L11.3711769,0.957158955 L11.3629296,0.914278358 Z" id="Fill-13" fill="#FEFEFE" mask="url(#mask-2)"></path>
                            </g>
                            <mask id="mask-4" fill="white">
                                <use xlink:href="#path-3"></use>
                            </mask>
                            <g id="Clip-17"></g>
                            <polygon id="Fill-16" fill="#FEFEFE" mask="url(#mask-4)" points="52.7765378 38.5316119 57.5880505 38.5316119 57.5880505 15.9632239 52.7765378 15.9632239"></polygon>
                            <path d="M65.270471,26.8553903 C64.6766607,27.8317485 64.4622292,28.9647858 64.4622292,30.1258604 C64.4622292,32.7712634 65.7191276,35.1033082 68.4028202,35.1033082 C70.9941423,35.1033082 72.2757828,32.9642261 72.2757828,30.3518082 C72.2757828,28.4881515 71.8403219,27.048353 70.9265139,26.1660022 C69.940129,25.1945918 68.8052916,25.156659 68.1174614,25.2275769 C66.7500483,25.3248828 65.9319097,25.8229575 65.270471,26.8553903 M77.1400786,30.162144 C77.1400786,34.3792858 74.7714354,39.0004948 68.4028202,39.0004948 C63.805739,39.0004948 59.6193765,36.3353007 59.6193765,30.162144 C59.6193765,25.0379127 62.7764678,20.9741515 69.0180736,21.3435843 C75.6670992,21.731159 77.1400786,27.1110246 77.1400786,30.162144" id="Fill-18" fill="#FEFEFE" mask="url(#mask-4)"></path>
                            <polygon id="Fill-19" fill="#FEFEFE" mask="url(#mask-4)" points="85.0666211 33.9902269 87.7931999 21.8236821 92.7251242 21.8236821 87.4501096 38.5306224 82.4258148 38.5306224 77.1409034 21.8236821 82.2047854 21.8236821"></polygon>
                            <path d="M106.374513,23.3523754 C106.859458,22.8295619 107.174508,22.4485843 108.01244,22.0461664 C108.753053,21.731159 109.803768,21.4441888 110.979842,21.4441888 C111.949732,21.4441888 113.028487,21.64045 113.86477,22.1088381 C115.601665,23.0208754 116.045373,24.5249948 116.045373,27.1110246 L116.045373,38.5321067 L111.273448,38.5321067 L111.273448,29.1247634 C111.273448,27.6305396 111.238809,27.0780396 111.050769,26.6393381 C110.661493,25.7553381 109.803768,25.3578679 108.875114,25.3578679 C106.348122,25.3578679 106.348122,27.4342784 106.348122,29.5106888 L106.348122,38.5321067 L101.526712,38.5321067 L101.526712,21.8235172 L106.374513,21.8235172 L106.374513,23.3523754 Z" id="Fill-20" fill="#FEFEFE" mask="url(#mask-4)"></path>
                            <path d="M94.7671717,38.5299627 L99.5160045,38.5299627 L99.5160045,21.8230224 L94.7671717,21.8230224 L94.7671717,38.5299627 Z M94.7671717,19.7449627 L99.5160045,19.7449627 L99.5160045,15.9384851 L94.7671717,15.9384851 L94.7671717,19.7449627 Z" id="Fill-21" fill="#FEFEFE" mask="url(#mask-4)"></path>
                            <path d="M129.803628,38.5299627 L134.539264,38.5299627 L134.539264,21.8230224 L129.803628,21.8230224 L129.803628,38.5299627 Z M129.803628,19.7449627 L134.539264,19.7449627 L134.539264,15.9384851 L129.803628,15.9384851 L129.803628,19.7449627 Z" id="Fill-22" fill="#FEFEFE" mask="url(#mask-4)"></path>
                            <path d="M138.944347,18.013906 L143.716272,18.013906 L143.716272,21.8533687 L146.88656,21.8533687 L146.88656,25.6631448 L143.686582,25.6631448 L143.686582,32.736794 C143.66184,33.7543836 143.66184,34.6301373 144.958326,34.6301373 L146.66718,34.5674657 L146.66718,38.4102269 C145.651104,38.5636075 145.022655,38.6576149 144.138538,38.6576149 C142.484116,38.6576149 140.689489,38.5636075 139.633827,37.019906 C138.977337,36.0369507 138.944347,34.8511373 138.944347,33.2431149 L138.944347,25.6252119 L136.595498,25.6252119 L136.595498,21.8236821 L138.944347,21.8236821 L138.944347,18.013906 Z" id="Fill-23" fill="#FEFEFE" mask="url(#mask-4)"></path>
                            <path d="M123.016541,20.769644 L123.016541,15.9620694 L118.048328,15.9620694 L118.048328,20.769644 L120.144809,20.769644 C120.144809,22.4931142 119.206258,23.8966291 118.048328,23.8966291 L118.048328,26.177547 C120.806247,26.177547 123.016541,23.7613903 123.016541,20.769644" id="Fill-24" fill="#FEFEFE" mask="url(#mask-4)"></path>
                        </g>
                    </g>
                </g>
            </g>
        </g>
    </g>
</svg>