<?xml version="1.0" encoding="UTF-8" standalone="no"?>
<svg width="140px" height="106px" viewBox="0 0 140 106" version="1.1" xmlns="http://www.w3.org/2000/svg" xmlns:xlink="http://www.w3.org/1999/xlink">
    <!-- Generator: Sketch 49.1 (51147) - http://www.bohemiancoding.com/sketch -->
    <title>Petition Icon</title>
    <desc>Created with Sketch.</desc>
    <defs>
        <polygon id="path-1" points="0.608748 0.445711538 62.189988 0.445711538 62.189988 42.9383942 0.608748 42.9383942"></polygon>
        <polygon id="path-3" points="0 107 139 107 139 1 0 1"></polygon>
    </defs>
    <g id="Mockups" stroke="none" stroke-width="1" fill="none" fill-rule="evenodd">
        <g id="Desktop-HD" transform="translate(-650.000000, -1463.000000)">
            <g id="Action" transform="translate(0.000000, 1202.000000)">
                <g id="Action-1—Petition" transform="translate(484.000000, 261.000000)">
                    <g id="Petition-Icon" transform="translate(166.000000, 0.000000)">
                        <path d="M34.6905384,104.307588 C35.6120932,105.230804 37.1028191,105.230804 38.0226999,104.307588 L46.3535222,95.9785559 L48.0191844,97.6416839 C48.9373912,98.5648999 50.4314651,98.5648999 51.3513459,97.644195 L59.6813312,89.3134889 L61.3478305,90.9799649 C61.8073524,91.4378064 62.410841,91.6654716 63.0134927,91.6654716 C63.6169814,91.6654716 64.2196331,91.4378064 64.6791549,90.9799649 L109,46.6572271 L92.3400295,30 L48.0191844,74.3152047 C47.5772399,74.7563061 47.3294831,75.3622974 47.3294831,75.9808438 C47.3294831,76.6069231 47.5772399,77.2078924 48.0191844,77.6464828 L49.6848467,79.3129588 L41.3548614,87.6436649 C40.4341436,88.5635328 40.4341436,90.0525639 41.3548614,90.9749429 L43.0205236,92.6414189 L34.6905384,100.973799 C33.7698205,101.893667 33.7698205,103.386883 34.6905384,104.307588" id="Fill-1" fill="#FEFEFE"></path>
                        <g id="Group-5" transform="translate(77.000000, 0.000000)">
                            <mask id="mask-2" fill="white">
                                <use xlink:href="#path-1"></use>
                            </mask>
                            <g id="Clip-4"></g>
                            <path d="M35.743428,42.9383942 L61.497828,17.5857596 C61.940508,17.1507981 62.189988,16.5578942 62.189988,15.9459712 C62.189988,15.3249519 61.940508,14.732875 61.497828,14.2979135 L48.121668,1.12585577 C47.198508,0.218721154 45.700788,0.218721154 44.777628,1.12585577 L42.935508,2.93764423 C41.017788,1.68485577 38.769108,1.00760577 36.417948,1.00760577 C33.258708,1.00760577 30.288468,2.21739423 28.054068,4.42031731 L1.301748,30.7536827 C0.377748,31.6624712 0.377748,33.1377019 1.301748,34.0473173 C2.223228,34.9544519 3.724308,34.9544519 4.645788,34.0473173 L31.397268,7.70899038 C33.498108,5.64499038 36.806028,5.21829808 39.434388,6.38922115 L19.024068,26.4817981 L35.743428,42.9383942 Z" id="Fill-3" fill="#FEFEFE" mask="url(#mask-2)"></path>
                        </g>
                        <mask id="mask-4" fill="white">
                            <use xlink:href="#path-3"></use>
                        </mask>
                        <g id="Clip-7"></g>
                        <polygon id="Fill-6" fill="#FEFEFE" mask="url(#mask-4)" points="0 106 30 106 30 104 0 104"></polygon>
                    </g>
                </g>
            </g>
        </g>
    </g>
</svg>