<svg xmlns="http://www.w3.org/2000/svg" viewBox="0 0 300 202.7"><title>THL18-vertical-logo-white</title><path d="M154.9,12.2h.1c.6.1,1.1,1,1.4,1.4a19,19,0,0,0,3.6,3.9c1.9,1.3,3.6,1.2,5.8,1.3,3.8.2,7.1,2.8,9.6,5.4a8.2,8.2,0,0,0,2.5,2.1c1.9.6,3.9-.2,5.7-.7a52.1,52.1,0,0,1,5.7-1,62.5,62.5,0,0,1,8.7-.8,58,58,0,0,1,9.2,1.2,41.7,41.7,0,0,0,6,1c2.5.1,3.9-.7,5.7-2.3s3-4.4,4.3-6.7a23.8,23.8,0,0,1,4.3-5.2,15.5,15.5,0,0,1,3.3-2.4c1.6-.9,3.5-1.4,5-2.5S238.5,4,240.1,3s1.9-.9,2.6-.5.6,1,.8,1.5a62.9,62.9,0,0,1,2.2,7.4c.8,4-.3,7.9-.5,11.8a16.5,16.5,0,0,1-1.2,6.6,21.8,21.8,0,0,1-5.6,6.9,35.5,35.5,0,0,1-3.1,2.3,14.6,14.6,0,0,0-2.8,2.1c-1.6,2-1,4.6-.2,6.7a22.5,22.5,0,0,0,1.6,3.1,15.2,15.2,0,0,1,2.2,3.4,14.9,14.9,0,0,1,.8,4.2c.6,2.9.7,6.7,3.1,8.9a4,4,0,0,0,2,1.1,12.6,12.6,0,0,0,2.7-.4c3.1-.4,6.3.7,7.5,2.4s1.5,8-.6,11a13.7,13.7,0,0,1-3.4,3.8c-1.5,1.1-3.3,1.5-4.8,2.5L237.3,92a16,16,0,0,1-4.1,2.1c-2,.5-3.9.2-5.6.4a18.8,18.8,0,0,0-4.6,1.4c-2.9,1.2-5.6,2.4-8.6,3.4-5.6,2-11.8,4-17.8,6.3-1.3.5-1.1,4.1-1.1,6.4a34.2,34.2,0,0,1-.4,4.6,63.3,63.3,0,0,0-.3,9.7c.1,1.6.2,3.7.4,5.1.6,3.2,2.7,5.8,2.9,9.3a22.8,22.8,0,0,0,.3,3.6c.4,1.2,1.2,2.2,1.6,3.4s2.4,4.5.8,4.3-.8-.4-1.2-.6-1.6-1-2.1-.5.8,2.1.4,3.1-4.5-1-5.4-1.3a9.1,9.1,0,0,1-3.9-1.7,8.4,8.4,0,0,1-2.2-3.9c-.3-1.2-.3-3.4-1.3-4.1a2,2,0,0,0-2.2.1c-.5.3-1.5.4-1.8-.4s-.1-.6,0-.9a30.5,30.5,0,0,0,.6-6,27.2,27.2,0,0,0,.2-5.7,27.9,27.9,0,0,0-2-5.5c-.7-2.2-.4-4.3-.5-6.6s.7-6-1.5-6.9a22.3,22.3,0,0,0-3.7-.2c-.9,0-1.9-.3-2.7.1s-.8,1.8-1,2.8-.3,1.8-.4,2.8a89.3,89.3,0,0,0-.8,10.3c-.1,1.7-.1,3.2-.3,4.8a12,12,0,0,0,.2,5l.7,1.9a22,22,0,0,1,1,5.6c.1,1.2.2,2.4.4,3.6a27,27,0,0,0,1.2,4.7c.3.8,1.6,3.2.5,3.9s-2-.8-2.5-1.2-1.2-1-1.9-.9-.8,1.8-.9,2.7-3.3.7-4.3,0-3-2.8-3.7-5.4a23.2,23.2,0,0,1-.5-5.9c0-.8.3-2-.4-2.6s-1.6.6-2.3.5-.3-2-.1-2.7a16.1,16.1,0,0,0,.1-4.9,140.2,140.2,0,0,0-2.4-16c-.5-2.5-1.3-4.9-1.7-7.4s.1-4.7-2-5.1-3.1-.1-4.5-.3c-3.3-.4-6.5-1-9.7-1.5a132,132,0,0,1-15.1-3.5c-4.6-1.4-9.6-2.5-13.9-4.7a41.5,41.5,0,0,1-5.7-3.5c-1.4-.9-3.5-3-5.2-2.9s-2.7,2.5-3.1,4.1-2,4.6-3.3,7a41.1,41.1,0,0,0-3,5.9,13,13,0,0,0-.2,6.2c.4,2.5,1.7,4.8,2.5,7.2a44.4,44.4,0,0,0,2.7,7.2c.5,1.1,3.8,7.9,2.2,8.4s-2.6-2.4-3.8-2.6-.9.9-.9,1.4.8,2.6-.1,3.1h-.8c-2.6-.3-5.2-1.3-6.6-3.6s-1.5-5.3-2.5-7.9c-.3-.6-1.1-2.8-2.2-2.4s-.3,1.2-.7,1.6-1.6-.9-1.7-1.5a18.3,18.3,0,0,1-.5-4.7c.1-1.4.5-2.6.6-4,.3-3.1-2.6-5.4-3.3-8.3s.4-3.2.9-5a13,13,0,0,0,.6-4.4c-.1-.3-.6-3.8-.8-3.7A9.8,9.8,0,0,0,69,98.2a75.7,75.7,0,0,0-4.9,6.3,10.9,10.9,0,0,0-1.7,3.4,37.8,37.8,0,0,0-1,5.7c-.2,1.9.5,3.8.8,5.7s0,3.7.3,5.6.7,3.4,1.1,5.1a32.8,32.8,0,0,0,1.1,4.5,32,32,0,0,1,1.5,6.1c.3,1.6-.6,1.6-1.7.8s-2.2-3.2-3.3-2.9.3,3.9-.7,4.9-2,.3-2.7,0c-3.2-1.2-4.5-4.8-5-7.9s.2-4.8-.5-7c-.2-.6-.6-1.2-1.3-1.1s-.6.5-.9.8-1.5-1-1.5-1.7a17.9,17.9,0,0,1,.6-6.1c.8-3.3-.2-6-1.4-9a13.9,13.9,0,0,1-1.3-6.6c.3-3.1,2.5-5.3,3.6-8.1s.4-5.2-.2-7.3a31.8,31.8,0,0,0-4.6-9.2,29.6,29.6,0,0,1-3-5.1A44.8,44.8,0,0,1,39.7,49a58.4,58.4,0,0,1,1.8-6.9c.6-2,1.7-4.8,1.5-7v-.2H40.8a6.3,6.3,0,0,1-1.9-.3,6.3,6.3,0,0,1-2.4-1.4,5.2,5.2,0,0,1-1-1.1,9.1,9.1,0,0,1-.8-1.3,2.7,2.7,0,0,0-1.2,2.5,5.5,5.5,0,0,0,.9,2.8c0,.1.2.3.1.4s-.7-.6-.8-.6a4.5,4.5,0,0,1-1.1-1.9,5.5,5.5,0,0,1,0-3.1.8.8,0,0,0,.2-.4,6.4,6.4,0,0,1,1-1.3c.4-.4.7-.5.9-1a10.7,10.7,0,0,1,8.5-7.2c5-.7,10,.8,14.8-1.4,12.6-5.7,26.6-6.3,39.9-3.1s23,5.4,34.4,8.8c4.1,1.3,8.1,2.6,12.4,3.8a27,27,0,0,0,6.8,1.2c1,0,5,.4,5.4-.9s-.4-1.6-.8-2.3a16.2,16.2,0,0,1-2.2-10.8c.1-.6.4-3.9,1-4.2M40.7,24.9c0,.1-.2.2-.2.3h.7l2,.5a5.3,5.3,0,0,1,1.7.8,5.4,5.4,0,0,1,1.5,2.2c0,.1,0,.1.1.1h0l1.3-1.5.4-.7.7-1.1a6.4,6.4,0,0,0-1.8-1,6.6,6.6,0,0,0-2-.6h-.5a5.5,5.5,0,0,0-3.9,1m-2.9,6c.8,1.9,6.7,2.9,5.6-1.3S36,27,37.8,30.9" fill="#fff" fill-rule="evenodd"/><polygon points="8.5 179.9 8.5 192 5 192 5 179.9 3.5 179.9 3.5 176.6 5 176.6 5 170.9 8.5 170.9 8.5 176.6 11.3 176.6 11.3 179.9 8.5 179.9" fill="#fff"/><path d="M14.4,170h3.5v7.8a6.4,6.4,0,0,1,4.2-1.7,5.6,5.6,0,0,1,4.2,1.7c.9,1,1.3,2.6,1.3,4.7V192H24.1v-9.1a4.4,4.4,0,0,0-.7-2.7,2.3,2.3,0,0,0-2.1-.8,2.7,2.7,0,0,0-2.6,1.1,7.7,7.7,0,0,0-.8,4V192H14.4Z" fill="#fff"/><path d="M46.1,185.1h-11a4.6,4.6,0,0,0,1.2,3,3.7,3.7,0,0,0,2.8,1.1,3.6,3.6,0,0,0,2.2-.6,8,8,0,0,0,2-2.3l3,1.6L44.8,190l-1.6,1.4-2,.8-2.2.2a7.1,7.1,0,0,1-5.5-2.2,8.4,8.4,0,0,1-2.1-5.9,8.6,8.6,0,0,1,2-5.9,7.1,7.1,0,0,1,5.4-2.3,7.1,7.1,0,0,1,5.4,2.2,8.5,8.5,0,0,1,2,6Zm-3.6-2.9a3.4,3.4,0,0,0-3.6-2.8H37.7l-1,.6a3.2,3.2,0,0,0-.8.9,6.7,6.7,0,0,0-.6,1.2Z" fill="#fff"/><path d="M60,165.3h3.6v12.5a6.3,6.3,0,0,1,4.2-1.7,5.3,5.3,0,0,1,4.1,1.7,6.9,6.9,0,0,1,1.4,4.7V192H69.7v-9.1a4.5,4.5,0,0,0-.6-2.7,2.6,2.6,0,0,0-2.1-.9,2.9,2.9,0,0,0-2.7,1.2,7.9,7.9,0,0,0-.7,4V192H60Z" fill="#fff"/><path d="M81.3,176.6v8.8c0,2.6,1,3.8,3.1,3.8s3-1.2,3-3.8v-8.8h3.5v8.9a10.4,10.4,0,0,1-.4,3.2,4.6,4.6,0,0,1-1.6,2.1,6.4,6.4,0,0,1-4.5,1.6,6.5,6.5,0,0,1-4.6-1.6,5.4,5.4,0,0,1-1.6-2.1,8.9,8.9,0,0,1-.4-3.2v-8.9Z" fill="#fff"/><path d="M95.4,176.6H99V178l1.7-1.5a5.9,5.9,0,0,1,2-.4,4.8,4.8,0,0,1,4.1,2.3,5.3,5.3,0,0,1,4.5-2.3c3.5,0,5.2,2.1,5.2,6.3V192H113v-8.6a5.8,5.8,0,0,0-.6-3.1,1.8,1.8,0,0,0-1.8-.9,2.1,2.1,0,0,0-2.1,1.1,6.3,6.3,0,0,0-.7,3.5v8h-3.6v-8.5c0-2.8-.8-4.1-2.3-4.1a2.2,2.2,0,0,0-2.2,1.1A6.3,6.3,0,0,0,99,184v8H95.4Z" fill="#fff"/><path d="M132.4,176.6H136V192h-3.6v-1.6a7.2,7.2,0,0,1-4.7,2,6.9,6.9,0,0,1-5.3-2.3,9.2,9.2,0,0,1,0-11.7,6.8,6.8,0,0,1,5.2-2.3,6.5,6.5,0,0,1,4.8,2.3Zm-8.5,7.6a5.2,5.2,0,0,0,1.2,3.6,3.8,3.8,0,0,0,3.1,1.4,4.1,4.1,0,0,0,3.2-1.3,6,6,0,0,0,0-7.2,4.2,4.2,0,0,0-3.2-1.4,3.9,3.9,0,0,0-3,1.4,5.4,5.4,0,0,0-1.3,3.5" fill="#fff"/><path d="M140.5,176.6H144V178a6.2,6.2,0,0,1,4.2-1.9,5.4,5.4,0,0,1,4.2,1.7c.9,1,1.3,2.6,1.3,4.7V192h-3.6v-8.6a6.2,6.2,0,0,0-.6-3.2c-.4-.6-1.1-.8-2.2-.8s-2.1.3-2.5,1.1a7.7,7.7,0,0,0-.8,4V192h-3.5Z" fill="#fff"/><path d="M172.2,185.1h-11a4.6,4.6,0,0,0,1.2,3,3.7,3.7,0,0,0,2.8,1.1,3.8,3.8,0,0,0,2.2-.6,9.8,9.8,0,0,0,2-2.3l3,1.6-1.5,2.1-1.7,1.4-1.9.8-2.2.2a7.1,7.1,0,0,1-5.5-2.2,8.4,8.4,0,0,1-2.1-5.9,8.6,8.6,0,0,1,2-5.9,7.6,7.6,0,0,1,10.8-.1c1.3,1.4,1.9,3.4,1.9,6Zm-3.6-2.9a3.4,3.4,0,0,0-3.6-2.8h-1.2l-1.1.6-.8.9a6.1,6.1,0,0,0-.5,1.2Z" fill="#fff"/><rect x="186.1" y="165.3" width="3.6" height="26.7" fill="#fff"/><path d="M208.2,185.1h-11a4.6,4.6,0,0,0,1.2,3,3.6,3.6,0,0,0,2.8,1.1,3.8,3.8,0,0,0,2.2-.6,7.9,7.9,0,0,0,1.9-2.3l3,1.6a11,11,0,0,1-1.4,2.1l-1.7,1.4-1.9.8-2.2.2a7.3,7.3,0,0,1-5.6-2.2,8.4,8.4,0,0,1-2.1-5.9,8.2,8.2,0,0,1,2.1-5.9,6.8,6.8,0,0,1,5.4-2.3,7.4,7.4,0,0,1,5.4,2.2c1.3,1.4,1.9,3.4,1.9,6Zm-3.7-2.9a3.2,3.2,0,0,0-3.5-2.8h-1.3l-1,.6-.8.9a6.1,6.1,0,0,0-.5,1.2Z" fill="#fff"/><path d="M223.4,176.6H227V192h-3.6v-1.6a6.9,6.9,0,0,1-4.7,2,7,7,0,0,1-5.3-2.3,9.6,9.6,0,0,1,0-11.7,6.8,6.8,0,0,1,5.2-2.3,6.5,6.5,0,0,1,4.8,2.3Zm-8.4,7.6a5.2,5.2,0,0,0,1.2,3.6,3.7,3.7,0,0,0,3.1,1.4,3.9,3.9,0,0,0,3.1-1.3,5.6,5.6,0,0,0,0-7.2,4,4,0,0,0-3.1-1.4,4.1,4.1,0,0,0-3.1,1.4,5.3,5.3,0,0,0-1.2,3.5" fill="#fff"/><path d="M246.4,191.6a10.9,10.9,0,0,1-.1,1.9,7.4,7.4,0,0,1-1.7,4.5,7,7,0,0,1-5.7,2.4,7.8,7.8,0,0,1-5.1-1.7,6.8,6.8,0,0,1-2.3-4.7H235a5.4,5.4,0,0,0,.7,1.7,3.7,3.7,0,0,0,3.2,1.5q3.9,0,3.9-4.8v-2.2a6.7,6.7,0,0,1-10-.1,8.4,8.4,0,0,1-2-5.7,8.8,8.8,0,0,1,1.9-5.8,6.6,6.6,0,0,1,5.3-2.5,6.2,6.2,0,0,1,4.8,2.2v-1.7h3.6Zm-3.4-7.3a5.2,5.2,0,0,0-1.2-3.6,4,4,0,0,0-3.1-1.3,3.7,3.7,0,0,0-3.2,1.4,6.1,6.1,0,0,0,0,7,3.9,3.9,0,0,0,3.2,1.4,3.9,3.9,0,0,0,3.2-1.5,5.1,5.1,0,0,0,1.1-3.4" fill="#fff"/><path d="M254.4,176.6v8.8c0,2.6,1.1,3.8,3.1,3.8s3-1.2,3-3.8v-8.8H264v8.9a10.4,10.4,0,0,1-.4,3.2,4.6,4.6,0,0,1-1.6,2.1,6.4,6.4,0,0,1-4.5,1.6,6.5,6.5,0,0,1-4.6-1.6,5.4,5.4,0,0,1-1.6-2.1,8.9,8.9,0,0,1-.4-3.2v-8.9Z" fill="#fff"/><path d="M282.6,185.1H271.5a4.2,4.2,0,0,0,1.3,3,3.4,3.4,0,0,0,2.8,1.1,4,4,0,0,0,2.2-.6,9.9,9.9,0,0,0,1.9-2.3l3,1.6-1.5,2.1a10.7,10.7,0,0,1-1.6,1.4l-1.9.8-2.3.2a7.1,7.1,0,0,1-5.5-2.2,8.4,8.4,0,0,1-2.1-5.9,8.6,8.6,0,0,1,2-5.9,7.6,7.6,0,0,1,10.8-.1,8.5,8.5,0,0,1,2,6Zm-3.7-2.9a3.4,3.4,0,0,0-3.6-2.8h-1.2l-1,.6-.8.9a3.1,3.1,0,0,0-.5,1.2Z" fill="#fff"/><path d="M287.8,177.6h-1.7v-.9h4.5v.9h-1.7V182h-1.1Zm3.6-.9h1.3l.8,2,.5,1.3h0l.5-1.3.8-2h1.2V182h-.9v-4.2h-.1l-1.2,3.4h-.8l-1.3-3.4h-.1l.2,1.9V182h-1Z" fill="#fff"/></svg>