<svg xmlns="http://www.w3.org/2000/svg" viewBox="0 0 650 99.3"><title>THL18-horiz-logo-white</title><path d="M81.1,9.8h.1c.3,0,.6.6.8.8a11.5,11.5,0,0,0,2.1,2.3,5.7,5.7,0,0,0,3.4.7,9.4,9.4,0,0,1,5.6,3.2A4.2,4.2,0,0,0,94.6,18c1.1.4,2.2-.1,3.3-.4l3.3-.6a29.6,29.6,0,0,1,5.2-.4,32.1,32.1,0,0,1,5.3.7c1.2.2,2.4.5,3.6.6a4.2,4.2,0,0,0,3.3-1.4c1.2-1.1,1.7-2.5,2.5-3.9a14.8,14.8,0,0,1,2.5-3,9.5,9.5,0,0,1,2-1.5c.9-.5,2-.8,2.9-1.4S130.1,5,131,4.4s1.1-.6,1.5-.3a1.6,1.6,0,0,1,.5.9,30.6,30.6,0,0,1,1.3,4.3c.4,2.4-.2,4.6-.3,7a8.3,8.3,0,0,1-.7,3.8,13.8,13.8,0,0,1-3.2,4l-1.9,1.4a6.7,6.7,0,0,0-1.6,1.2c-.9,1.2-.6,2.7-.1,4a5.6,5.6,0,0,0,.9,1.7,11.3,11.3,0,0,1,1.3,2,22.1,22.1,0,0,1,.5,2.5c.3,1.7.3,3.9,1.7,5.2a3.7,3.7,0,0,0,1.2.7,7.6,7.6,0,0,0,1.6-.3c1.8-.2,3.7.4,4.4,1.4s.9,4.7-.3,6.5a10.5,10.5,0,0,1-2,2.2c-.9.6-2,.9-2.8,1.5l-3.6,2.4a11.5,11.5,0,0,1-2.4,1.3,19.4,19.4,0,0,1-3.3.2,8.4,8.4,0,0,0-2.7.8l-5,2c-3.3,1.2-6.9,2.3-10.4,3.7-.8.3-.7,2.4-.7,3.7a21.3,21.3,0,0,1-.2,2.7,36.6,36.6,0,0,0-.2,5.7c.1.9.1,2.2.2,3s1.6,3.4,1.7,5.4a16.4,16.4,0,0,0,.2,2.2,11.4,11.4,0,0,0,1,1.9c.1.4,1.3,2.7.4,2.6s-.4-.3-.7-.4-.9-.6-1.3-.3.6,1.3.3,1.8-2.6-.6-3.2-.7a6.7,6.7,0,0,1-2.3-1,5.1,5.1,0,0,1-1.2-2.3c-.2-.7-.2-2-.8-2.4s-.9-.2-1.3,0-.9.3-1.1-.2v-.5a13.9,13.9,0,0,0,.4-3.5,12.8,12.8,0,0,0,.1-3.4c-.2-1.1-.8-2.1-1.1-3.2a12.2,12.2,0,0,1-.3-3.8c-.1-1.7.3-3.6-.9-4.1H92.4a4.3,4.3,0,0,0-1.6,0c-.6.3-.5,1.1-.5,1.7L90,70.9c-.2,2-.4,4.1-.5,6.1a27.2,27.2,0,0,1-.1,2.8,7,7,0,0,0,.1,2.9c.1.4.3.7.4,1.1a19.1,19.1,0,0,1,.6,3.3c.1.7.1,1.4.2,2.1a26.8,26.8,0,0,0,.7,2.7c.2.5,1,2,.3,2.3s-1.2-.4-1.5-.6-.6-.7-1.1-.6-.4,1.1-.5,1.6-1.9.4-2.5,0a4.4,4.4,0,0,1-2.2-3.1,21.6,21.6,0,0,1-.3-3.5c0-.5.2-1.2-.2-1.6s-.9.4-1.4.3-.1-1.1,0-1.6a13.1,13.1,0,0,0,.1-2.8c-.3-3.2-.9-6.3-1.5-9.4-.3-1.5-.7-2.9-.9-4.3s0-2.8-1.2-3a24.5,24.5,0,0,0-2.7-.2c-1.9-.2-3.7-.6-5.6-.9a67.4,67.4,0,0,1-8.9-2,49.6,49.6,0,0,1-8.2-2.8l-3.3-2c-.8-.5-2-1.8-3-1.7s-1.6,1.4-1.8,2.4a21.7,21.7,0,0,1-1.9,4.1,18.9,18.9,0,0,0-1.8,3.4,6.7,6.7,0,0,0-.1,3.7,29.6,29.6,0,0,0,1.4,4.2A30.3,30.3,0,0,0,44.2,78c.3.6,2.2,4.6,1.3,5s-1.5-1.4-2.2-1.6-.6.6-.5.9.4,1.5-.1,1.7h-.5a5.2,5.2,0,0,1-3.9-2.2c-.8-1.4-.9-3.1-1.4-4.6s-.7-1.6-1.3-1.4-.2.7-.4.9-1-.5-1-.8a13.3,13.3,0,0,1-.3-2.8c.1-.8.3-1.5.4-2.3s-1.6-3.2-2-4.9.2-1.9.6-2.9a10.9,10.9,0,0,0,.3-2.6,11.9,11.9,0,0,0-.5-2.2,6.9,6.9,0,0,0-1.9,1.9c-1,1.2-2,2.3-2.9,3.6a7.5,7.5,0,0,0-1,2c-.2,1.1-.5,2.3-.6,3.4a18.8,18.8,0,0,0,.5,3.3c.2,1.1,0,2.2.2,3.3s.4,2,.6,3a19.7,19.7,0,0,0,.7,2.6,21.1,21.1,0,0,1,.9,3.6c.1.9-.4.9-1,.5s-1.3-1.9-2-1.7.2,2.2-.4,2.8-1.1.2-1.5,0c-1.9-.7-2.7-2.8-3-4.6s.1-2.8-.3-4.1-.3-.7-.7-.6-.4.2-.6.5-.8-.7-.9-1.1a11.1,11.1,0,0,1,.4-3.6,8.5,8.5,0,0,0-.8-5.2,8.8,8.8,0,0,1-.8-3.9c.2-1.8,1.5-3.1,2.1-4.7a7,7,0,0,0-.1-4.3,18.2,18.2,0,0,0-2.7-5.4,18.3,18.3,0,0,1-1.8-3,27.6,27.6,0,0,1-1.5-15.3c.3-1.3.7-2.7,1.1-4s1-2.8.9-4.1H14.3a2,2,0,0,1-1.1-.2,2.8,2.8,0,0,1-1.5-.8,1.5,1.5,0,0,1-.5-.6,2.2,2.2,0,0,1-.5-.8,1.7,1.7,0,0,0-.7,1.5,2.8,2.8,0,0,0,.5,1.6c0,.1.1.2.1.3l-.5-.4a2.4,2.4,0,0,1-.6-1.1,2.8,2.8,0,0,1,0-1.8c0-.1.1-.2.1-.3l.6-.7c.2-.2.4-.3.5-.6a6.4,6.4,0,0,1,5-4.2c2.9-.4,5.8.4,8.7-.8,7.3-3.4,15.5-3.7,23.3-1.9s13.5,3.2,20.2,5.2l7.3,2.3a17.6,17.6,0,0,0,3.9.6c.6,0,2.9.3,3.2-.5s-.3-.9-.5-1.3a10.1,10.1,0,0,1-1.3-6.4c.1-.3.3-2.3.6-2.4M14.2,17.2c0,.1-.1.1-.1.2h.4a2.7,2.7,0,0,1,1.2.3,2.4,2.4,0,0,1,1,.5,4.3,4.3,0,0,1,.9,1.3h0l.8-.9c.1-.1.1-.2.2-.4s.4-.6.4-.6a2.7,2.7,0,0,0-1-.6l-1.2-.4h-.3a3.8,3.8,0,0,0-2.3.6m-1.7,3.5c.5,1.1,3.9,1.7,3.3-.7s-4.3-1.6-3.3.7" fill="#fff" fill-rule="evenodd"/><polygon points="174.9 50.4 174.9 71 168.8 71 168.8 50.4 166.2 50.4 166.2 44.7 168.8 44.7 168.8 35.1 174.9 35.1 174.9 44.7 179.6 44.7 179.6 50.4 174.9 50.4" fill="#fff"/><path d="M184.9,33.5h6V46.9a10.4,10.4,0,0,1,7.2-2.9,8.9,8.9,0,0,1,7.1,2.9c1.5,1.6,2.3,4.3,2.3,8V71h-6.1V55.4a7.4,7.4,0,0,0-1.1-4.5,4.3,4.3,0,0,0-3.6-1.4c-2.1,0-3.6.6-4.5,1.9s-1.3,3.6-1.3,6.9V71h-6Z" fill="#fff"/><path d="M237.4,59.3H218.6a7.2,7.2,0,0,0,2.1,5.1,6.1,6.1,0,0,0,4.7,1.9,5.9,5.9,0,0,0,3.8-1.1,13.1,13.1,0,0,0,3.3-4l5.1,2.9a19.7,19.7,0,0,1-2.5,3.5,14.9,14.9,0,0,1-2.8,2.3,9.7,9.7,0,0,1-3.3,1.4,14.8,14.8,0,0,1-3.8.4,12.4,12.4,0,0,1-9.4-3.7,14.2,14.2,0,0,1-3.6-10.1,14.6,14.6,0,0,1,3.5-10.1,11.6,11.6,0,0,1,9.2-3.8,11.8,11.8,0,0,1,9.2,3.7c2.2,2.4,3.3,5.8,3.3,10.1Zm-6.2-5c-.9-3.2-2.9-4.8-6.2-4.8a6.4,6.4,0,0,0-2,.3,4,4,0,0,0-1.8,1,6.7,6.7,0,0,0-1.4,1.5,7,7,0,0,0-.8,2Z" fill="#fff"/><path d="M259.4,25.4h6V46.9a10.4,10.4,0,0,1,7.2-2.9,8.9,8.9,0,0,1,7.1,2.9c1.5,1.6,2.3,4.3,2.3,8V71h-6.1V55.4a7.4,7.4,0,0,0-1.1-4.5,4.3,4.3,0,0,0-3.6-1.4c-2.1,0-3.6.6-4.5,1.9s-1.3,3.6-1.3,6.9V71h-6Z" fill="#fff"/><path d="M294,44.7V59.8c0,4.3,1.7,6.5,5.2,6.5s5.1-2.2,5.1-6.5V44.7h6.1V59.9a15.5,15.5,0,0,1-.8,5.5,9,9,0,0,1-2.6,3.7,13,13,0,0,1-15.6,0,9.3,9.3,0,0,1-2.7-3.7,15.6,15.6,0,0,1-.7-5.5V44.7Z" fill="#fff"/><path d="M316.4,44.7h6v2.4a17.7,17.7,0,0,1,3-2.5,8.7,8.7,0,0,1,10.4,3.3,9.1,9.1,0,0,1,7.7-3.9c6,0,8.9,3.6,8.9,10.7V71h-6.1V56.4a11.9,11.9,0,0,0-.9-5.4,3.4,3.4,0,0,0-3.1-1.5,4.1,4.1,0,0,0-3.7,1.8,13.2,13.2,0,0,0-1.1,6.1V71h-6.1V56.5c0-4.7-1.4-7-4.1-7a4,4,0,0,0-3.7,1.9c-.8,1.2-1.2,3.3-1.2,6V71h-6Z" fill="#fff"/><path d="M377.7,44.7h6.1V71h-6.1V68.2a11.6,11.6,0,0,1-17-.4,14.4,14.4,0,0,1-3.6-10,14,14,0,0,1,3.6-9.9,11.3,11.3,0,0,1,8.8-3.9,11,11,0,0,1,8.2,3.7ZM363.3,57.8a9.3,9.3,0,0,0,2,6.1,6.8,6.8,0,0,0,5.3,2.4A6.9,6.9,0,0,0,376,64a8.9,8.9,0,0,0,2.1-6.1,8.9,8.9,0,0,0-2.1-6.1,6.5,6.5,0,0,0-5.4-2.3,6.6,6.6,0,0,0-5.2,2.3,8.8,8.8,0,0,0-2.1,6" fill="#fff"/><path d="M389.8,44.7h6.1v2.4a9.9,9.9,0,0,1,7.2-3.1,8.8,8.8,0,0,1,7.1,2.9c1.5,1.6,2.2,4.3,2.2,8V71h-6.1V56.3c0-2.6-.3-4.4-1.1-5.3s-1.9-1.5-3.8-1.5a4.8,4.8,0,0,0-4.3,1.9c-.8,1.4-1.2,3.6-1.2,6.9V71h-6.1Z" fill="#fff"/><path d="M442.3,59.3H423.5a7.2,7.2,0,0,0,2.1,5.1,6.2,6.2,0,0,0,4.8,1.9,5.6,5.6,0,0,0,3.7-1.1,13.1,13.1,0,0,0,3.3-4l5.2,2.9a19.9,19.9,0,0,1-2.6,3.5,12.3,12.3,0,0,1-2.8,2.3,9.7,9.7,0,0,1-3.3,1.4,14.8,14.8,0,0,1-3.8.4,12.4,12.4,0,0,1-9.4-3.7,14.2,14.2,0,0,1-3.6-10.1,14.6,14.6,0,0,1,3.5-10.1,11.6,11.6,0,0,1,9.2-3.8,11.8,11.8,0,0,1,9.2,3.7c2.2,2.4,3.3,5.8,3.3,10.1Zm-6.2-5c-.9-3.2-2.9-4.8-6.1-4.8a6.6,6.6,0,0,0-2.1.3,4,4,0,0,0-1.8,1,6.7,6.7,0,0,0-1.4,1.5,11.9,11.9,0,0,0-.8,2Z" fill="#fff"/><rect x="464.3" y="25.4" width="6.1" height="45.59" fill="#fff"/><path d="M501.3,59.3H482.5a8.2,8.2,0,0,0,2.1,5.1,6.2,6.2,0,0,0,4.8,1.9,5.6,5.6,0,0,0,3.7-1.1,13.1,13.1,0,0,0,3.3-4l5.2,2.9a26.5,26.5,0,0,1-2.5,3.5,15.4,15.4,0,0,1-2.9,2.3,10.1,10.1,0,0,1-3.2,1.4,15.8,15.8,0,0,1-3.8.4,12.4,12.4,0,0,1-9.5-3.7c-2.4-2.6-3.5-5.9-3.5-10.1s1.1-7.5,3.4-10.1a11.6,11.6,0,0,1,9.2-3.8c3.9,0,7,1.2,9.2,3.7s3.4,5.8,3.4,10.1Zm-6.2-5a5.8,5.8,0,0,0-6.1-4.8,6.6,6.6,0,0,0-2.1.3,4.6,4.6,0,0,0-1.8,1,4.7,4.7,0,0,0-1.3,1.5,7.2,7.2,0,0,0-.9,2Z" fill="#fff"/><path d="M525.9,44.7H532V71h-6.1V68.2a11.4,11.4,0,0,1-8.1,3.5,11.7,11.7,0,0,1-9-3.9,14.4,14.4,0,0,1-3.6-10,14,14,0,0,1,3.6-9.9,11.5,11.5,0,0,1,17.1-.2ZM511.4,57.8a8.9,8.9,0,0,0,2.1,6.1,6.6,6.6,0,0,0,5.2,2.4,7.2,7.2,0,0,0,5.5-2.3,9.3,9.3,0,0,0,2-6.1,9.3,9.3,0,0,0-2-6.1,7.4,7.4,0,0,0-10.7,0,8.8,8.8,0,0,0-2.1,6" fill="#fff"/><path d="M563.1,70.4a31.1,31.1,0,0,1-.1,3.2,14.5,14.5,0,0,1-.4,2.5,10.2,10.2,0,0,1-2.5,5.1c-2.4,2.8-5.6,4.1-9.8,4.1a13.2,13.2,0,0,1-8.7-2.8,11.9,11.9,0,0,1-4-8.1h6.1a5.9,5.9,0,0,0,1.2,3,6.5,6.5,0,0,0,5.5,2.5c4.4,0,6.6-2.7,6.6-8.2V68a11.2,11.2,0,0,1-8.3,3.7,11.4,11.4,0,0,1-8.8-3.8,14.8,14.8,0,0,1-3.5-9.9,15.6,15.6,0,0,1,3.2-9.8,11.3,11.3,0,0,1,9.2-4.2,10.4,10.4,0,0,1,8.2,3.7v-3h6.1Zm-5.8-12.5a8.7,8.7,0,0,0-2.1-6.1,6.6,6.6,0,0,0-5.3-2.3,6.7,6.7,0,0,0-5.5,2.5,9.2,9.2,0,0,0-1.8,5.9,9.2,9.2,0,0,0,1.8,5.9,6.7,6.7,0,0,0,5.5,2.5,6.6,6.6,0,0,0,5.5-2.5,9.3,9.3,0,0,0,1.9-5.9" fill="#fff"/><path d="M575.1,44.7V59.8c0,4.3,1.7,6.5,5.2,6.5s5.1-2.2,5.1-6.5V44.7h6.1V59.9a18.2,18.2,0,0,1-.8,5.5,10,10,0,0,1-2.6,3.7,11.5,11.5,0,0,1-7.8,2.6,11.2,11.2,0,0,1-7.8-2.6,9.3,9.3,0,0,1-2.7-3.7,15.2,15.2,0,0,1-.8-5.5V44.7Z" fill="#fff"/><path d="M621.4,59.3H602.5a8.2,8.2,0,0,0,2.1,5.1,6.5,6.5,0,0,0,4.8,1.9,5.9,5.9,0,0,0,3.8-1.1,14.7,14.7,0,0,0,3.3-4l5.1,2.9a19.7,19.7,0,0,1-2.5,3.5,14.9,14.9,0,0,1-2.8,2.3,9.7,9.7,0,0,1-3.3,1.4,15.3,15.3,0,0,1-3.8.4c-3.9,0-7.1-1.2-9.4-3.7a14.2,14.2,0,0,1-3.6-10.1,14.6,14.6,0,0,1,3.5-10.1,11.6,11.6,0,0,1,9.2-3.8,11.8,11.8,0,0,1,9.2,3.7c2.2,2.4,3.3,5.8,3.3,10.1Zm-6.3-5c-.8-3.2-2.8-4.8-6.1-4.8a7.6,7.6,0,0,0-2.1.3,4.2,4.2,0,0,0-1.7,1,5,5,0,0,0-1.4,1.5,7.2,7.2,0,0,0-.9,2Z" fill="#fff"/><path d="M628.2,45.7h-2.4V44.4h6.4v1.3h-2.5V52h-1.5Zm5.1-1.3h1.8l1.2,2.8.7,2h.1l.7-2,1.1-2.8h1.8V52h-1.4V48.6l.2-2.5h-.1l-1.8,4.7h-1.2l-1.8-4.7h-.1l.2,2.5V52h-1.4Z" fill="#fff"/></svg>