<svg xmlns="http://www.w3.org/2000/svg" viewBox="0 0 571.7 46.2"><title>THL-mended-heart-logo-2color-horiz-white</title><path d="M1.9,34.8V31.1H0v9.6H1.9V37H12.5V34.8Z" fill="#fff"/><path d="M12.5,19.9V17.8H0v2.1H5.4v6.2H0v2.1H12.5V26.1H7.4V19.9Z" fill="#fff"/><path d="M10.5,4.8v6.9H7.2v-6H5.3v6H2V5H0v8.8H12.5v-9Z" fill="#fff"/><path d="M49.8,3.9V20.1H31.3V3.9H25V41.3h6.3V26H49.8V41.3h6.3V3.9Z" fill="#fff"/><path d="M92.2,3.9V24.6c0,3.4-.8,6.1-2.5,8.1a8.9,8.9,0,0,1-7,3,8.6,8.6,0,0,1-6.9-3c-1.8-2-2.6-4.7-2.6-8.1V3.9H66.9v21c0,5.4,1.5,9.5,4.4,12.4a15.8,15.8,0,0,0,11.4,4.4,15.8,15.8,0,0,0,11.4-4.4c2.9-2.9,4.4-7,4.4-12.4V3.9Z" fill="#fff"/><path d="M142,3.9,130.8,27.4,119.5,3.9h-9.9V41.3h6.3V12.1l13,25.9h3.6l13-25.9V41.3h6.3V3.9Z" fill="#fff"/><path d="M158.6,41.3h6.7l3.8-8.5h14.6L181.1,27h-9.5l6.8-15.4,9.4,21.2,3.7,8.5h6.7L181.8,3.9h-6.7Z" fill="#fff"/><path d="M232.5,3.9V31.8L210.8,3.9h-6.3V41.3h6.3V14L232,41.3h6.8V3.9Z" fill="#fff"/><path d="M255.5,35.3V25.4h17.9V19.7H255.5V9.9h19.9v-6H249.2V41.3h26.9v-6Z" fill="#fff"/><polygon points="300.1 3.8 295.5 3.8 295.5 41.2 316.3 41.2 316.3 36.7 300.1 36.7 300.1 3.8" fill="#fff"/><polygon points="330.9 24.5 349.5 24.5 349.5 20 330.9 20 330.9 8.3 351.7 8.3 351.7 3.8 326.2 3.8 326.2 41.2 352.4 41.2 352.4 36.7 330.9 36.7 330.9 24.5" fill="#fff"/><polygon points="380.4 3.8 375.8 3.8 359.2 40.8 359.1 41.2 364.1 41.2 368.3 31.8 384.1 31.8 382.1 27.3 370.2 27.3 378.2 9.4 392.2 41 392.2 41.2 397.2 41.2 380.5 3.9 380.4 3.8" fill="#fff"/><path d="M420.5,8.1a16.8,16.8,0,0,1,11.1,4.2v.2l2.7-3.6h-.1a21.3,21.3,0,0,0-13.8-5.1c-11,0-19.7,8.2-19.7,18.8s8.6,18.9,19.5,18.9a23.7,23.7,0,0,0,13.9-4.9h0V22.7H419.6v4.3h10.5v7a17.7,17.7,0,0,1-9.5,3c-8.3,0-15-6.5-15-14.4A14.6,14.6,0,0,1,420.5,8.1Z" fill="#fff"/><path d="M470.8,25.7c0,7-4.1,11.2-11,11.2s-11.1-4.2-11.1-11.2V3.8H444V25.7c0,9.8,5.9,15.7,15.8,15.7s15.7-5.9,15.7-15.7V3.8h-4.7Z" fill="#fff"/><polygon points="490.4 36.7 490.4 24.5 509 24.5 509 20 490.4 20 490.4 8.3 511.2 8.3 511.2 3.8 485.7 3.8 485.7 41.2 511.9 41.2 511.9 36.7 490.4 36.7" fill="#fff"/><path d="M555,0h0l-7.2,6.9-7-6.9h-9l-7.5,7.3V23.2l23.5,23,23.9-23.1V7.4L564,0Zm1,3.6h6.9l-5.6,12.5-7.1-7Zm-9.5,36.7L541.2,35l4.9-11.3,5.5,5.3Zm-2.9-19-5,11.2-6-5.9,8.1-8.1Zm9.4,4.4-10.2-10,2.7-6.4,3.3,3.2h0l7,7ZM533.1,3.6h6.7l3.3,3.3-2.8,6.3L531.7,5ZM528,8.8l1.2-1.2,9.1,8.6-8.1,8.1L528,22.1Zm40,13.3L551,38.3l7.3-16.4h0l.8-1.7H568Zm0-5.5h-7.4l4.7-10.5L568,8.7Z" fill="#fe3b1f"/></svg>